<svg width="20" height="20" viewBox="0 0 20 20" fill="none" xmlns="http://www.w3.org/2000/svg">
<g clip-path="url(#clip0_98_1176)">
<path d="M3.95093 2.0833C3.78645 2.08524 3.62936 2.15194 3.51373 2.26894C3.3981 2.38594 3.33326 2.5438 3.33325 2.7083V15.4166C2.64284 15.4166 2.08325 15.9762 2.08325 16.6666C2.08325 17.357 2.64284 17.9166 3.33325 17.9166H3.95825H4.58325H15.4166H16.0416H16.6666C17.357 17.9166 17.9166 17.357 17.9166 16.6666C17.9166 15.9762 17.357 15.4166 16.6666 15.4166V2.7083C16.6666 2.59518 16.6358 2.48419 16.5777 2.38716C16.5196 2.29013 16.4362 2.2107 16.3365 2.15733C16.2367 2.10395 16.1244 2.07864 16.0114 2.08409C15.8984 2.08954 15.789 2.12555 15.6949 2.18828L14.1487 3.21855L12.4047 2.172C12.3076 2.11377 12.1965 2.08301 12.0833 2.08301C11.97 2.08301 11.8589 2.11377 11.7618 2.172L9.99992 3.22913L8.23804 2.172C8.14093 2.11377 8.02982 2.08301 7.91659 2.08301C7.80335 2.08301 7.69225 2.11377 7.59513 2.172L5.85116 3.21855L4.30493 2.18828C4.20019 2.11843 4.07681 2.08184 3.95093 2.0833ZM7.91659 3.43746L9.67847 4.49378C9.77558 4.55201 9.88669 4.58277 9.99992 4.58277C10.1132 4.58277 10.2243 4.55201 10.3214 4.49378L12.0833 3.43746L13.8451 4.49459C13.9466 4.55539 14.0633 4.58613 14.1816 4.58325C14.2998 4.58037 14.4149 4.54398 14.5133 4.47831L15.4166 3.8761V15.4166V16.6666H4.58325V15.4166V3.8761L5.48657 4.47831C5.58498 4.54398 5.70001 4.58037 5.81828 4.58325C5.93655 4.58613 6.05321 4.55539 6.1547 4.49459L7.91659 3.43746ZM6.45825 6.66663C6.37543 6.66546 6.29321 6.68076 6.21635 6.71164C6.13949 6.74253 6.06954 6.78838 6.01056 6.84653C5.95158 6.90468 5.90475 6.97398 5.87278 7.05039C5.84081 7.1268 5.82435 7.2088 5.82435 7.29163C5.82435 7.37446 5.84081 7.45646 5.87278 7.53287C5.90475 7.60928 5.95158 7.67858 6.01056 7.73673C6.06954 7.79488 6.13949 7.84073 6.21635 7.87162C6.29321 7.9025 6.37543 7.9178 6.45825 7.91663H13.5416C13.6244 7.9178 13.7066 7.9025 13.7835 7.87162C13.8603 7.84073 13.9303 7.79488 13.9893 7.73673C14.0483 7.67858 14.0951 7.60928 14.1271 7.53287C14.159 7.45646 14.1755 7.37446 14.1755 7.29163C14.1755 7.2088 14.159 7.1268 14.1271 7.05039C14.0951 6.97398 14.0483 6.90468 13.9893 6.84653C13.9303 6.78838 13.8603 6.74253 13.7835 6.71164C13.7066 6.68076 13.6244 6.66546 13.5416 6.66663H6.45825ZM6.45825 9.99996C6.37543 9.99879 6.29321 10.0141 6.21635 10.045C6.13949 10.0759 6.06954 10.1217 6.01056 10.1799C5.95158 10.238 5.90475 10.3073 5.87278 10.3837C5.84081 10.4601 5.82435 10.5421 5.82435 10.625C5.82435 10.7078 5.84081 10.7898 5.87278 10.8662C5.90475 10.9426 5.95158 11.0119 6.01056 11.0701C6.06954 11.1282 6.13949 11.1741 6.21635 11.2049C6.29321 11.2358 6.37543 11.2511 6.45825 11.25H10.2083C10.2911 11.2511 10.3733 11.2358 10.4502 11.2049C10.527 11.1741 10.597 11.1282 10.6559 11.0701C10.7149 11.0119 10.7618 10.9426 10.7937 10.8662C10.8257 10.7898 10.8422 10.7078 10.8422 10.625C10.8422 10.5421 10.8257 10.4601 10.7937 10.3837C10.7618 10.3073 10.7149 10.238 10.6559 10.1799C10.597 10.1217 10.527 10.0759 10.4502 10.045C10.3733 10.0141 10.2911 9.99879 10.2083 9.99996H6.45825ZM12.7083 9.99996C12.6254 9.99879 12.5432 10.0141 12.4663 10.045C12.3895 10.0759 12.3195 10.1217 12.2606 10.1799C12.2016 10.238 12.1547 10.3073 12.1228 10.3837C12.0908 10.4601 12.0743 10.5421 12.0743 10.625C12.0743 10.7078 12.0908 10.7898 12.1228 10.8662C12.1547 10.9426 12.2016 11.0119 12.2606 11.0701C12.3195 11.1282 12.3895 11.1741 12.4663 11.2049C12.5432 11.2358 12.6254 11.2511 12.7083 11.25H13.5416C13.6244 11.2511 13.7066 11.2358 13.7835 11.2049C13.8603 11.1741 13.9303 11.1282 13.9893 11.0701C14.0483 11.0119 14.0951 10.9426 14.1271 10.8662C14.159 10.7898 14.1755 10.7078 14.1755 10.625C14.1755 10.5421 14.159 10.4601 14.1271 10.3837C14.0951 10.3073 14.0483 10.238 13.9893 10.1799C13.9303 10.1217 13.8603 10.0759 13.7835 10.045C13.7066 10.0141 13.6244 9.99879 13.5416 9.99996H12.7083ZM6.45825 12.5C6.37543 12.4988 6.29321 12.5141 6.21635 12.545C6.13949 12.5759 6.06954 12.6217 6.01056 12.6799C5.95158 12.738 5.90475 12.8073 5.87278 12.8837C5.84081 12.9601 5.82435 13.0421 5.82435 13.125C5.82435 13.2078 5.84081 13.2898 5.87278 13.3662C5.90475 13.4426 5.95158 13.5119 6.01056 13.5701C6.06954 13.6282 6.13949 13.6741 6.21635 13.7049C6.29321 13.7358 6.37543 13.7511 6.45825 13.75H9.37492C9.45774 13.7511 9.53997 13.7358 9.61682 13.7049C9.69368 13.6741 9.76363 13.6282 9.82261 13.5701C9.88159 13.5119 9.92842 13.4426 9.96039 13.3662C9.99236 13.2898 10.0088 13.2078 10.0088 13.125C10.0088 13.0421 9.99236 12.9601 9.96039 12.8837C9.92842 12.8073 9.88159 12.738 9.82261 12.6799C9.76363 12.6217 9.69368 12.5759 9.61682 12.545C9.53997 12.5141 9.45774 12.4988 9.37492 12.5H6.45825ZM12.7083 12.5C12.6254 12.4988 12.5432 12.5141 12.4663 12.545C12.3895 12.5759 12.3195 12.6217 12.2606 12.6799C12.2016 12.738 12.1547 12.8073 12.1228 12.8837C12.0908 12.9601 12.0743 13.0421 12.0743 13.125C12.0743 13.2078 12.0908 13.2898 12.1228 13.3662C12.1547 13.4426 12.2016 13.5119 12.2606 13.5701C12.3195 13.6282 12.3895 13.6741 12.4663 13.7049C12.5432 13.7358 12.6254 13.7511 12.7083 13.75H13.5416C13.6244 13.7511 13.7066 13.7358 13.7835 13.7049C13.8603 13.6741 13.9303 13.6282 13.9893 13.5701C14.0483 13.5119 14.0951 13.4426 14.1271 13.3662C14.159 13.2898 14.1755 13.2078 14.1755 13.125C14.1755 13.0421 14.159 12.9601 14.1271 12.8837C14.0951 12.8073 14.0483 12.738 13.9893 12.6799C13.9303 12.6217 13.8603 12.5759 13.7835 12.545C13.7066 12.5141 13.6244 12.4988 13.5416 12.5H12.7083Z" fill="white"/>
</g>
<defs>
<clipPath id="clip0_98_1176">
<rect width="20" height="20" fill="white"/>
</clipPath>
</defs>
</svg>
