<svg width="14" height="18" viewBox="0 0 14 18" fill="none" xmlns="http://www.w3.org/2000/svg">
<path d="M6.99992 0.666504C4.70613 0.666504 2.83325 2.53939 2.83325 4.83317C2.83325 7.12695 4.70613 8.99984 6.99992 8.99984C9.2937 8.99984 11.1666 7.12695 11.1666 4.83317C11.1666 2.53939 9.2937 0.666504 6.99992 0.666504ZM6.99992 1.9165C8.61815 1.9165 9.91659 3.21494 9.91659 4.83317C9.91659 6.45141 8.61815 7.74984 6.99992 7.74984C5.38168 7.74984 4.08325 6.45141 4.08325 4.83317C4.08325 3.21494 5.38168 1.9165 6.99992 1.9165ZM1.99097 10.6665C1.08271 10.6665 0.333252 11.416 0.333252 12.3242V12.9582C0.333252 14.4599 1.28295 15.6216 2.54435 16.3175C3.80576 17.0135 5.4033 17.3332 6.99992 17.3332C8.59654 17.3332 10.1941 17.0135 11.4555 16.3175C12.531 15.7241 13.3405 14.7759 13.5673 13.5832H13.6674V12.3242C13.6674 11.416 12.9171 10.6665 12.0089 10.6665H1.99097ZM1.99097 11.9165H12.0089C12.2415 11.9165 12.4174 12.0916 12.4174 12.3242V12.3332H12.4166V12.9582C12.4166 13.9564 11.8559 14.6697 10.8516 15.2238C9.84742 15.7778 8.42413 16.0832 6.99992 16.0832C5.57571 16.0832 4.15241 15.7778 3.14819 15.2238C2.14397 14.6697 1.58325 13.9564 1.58325 12.9582V12.3242C1.58325 12.0916 1.75839 11.9165 1.99097 11.9165Z" fill="#484860"/>
</svg>
