<svg width="19" height="18" viewBox="0 0 19 18" fill="none" xmlns="http://www.w3.org/2000/svg">
<g clip-path="url(#clip0_135_817)">
<path d="M16.8016 3.37035C16.6555 3.37461 16.5168 3.43555 16.4149 3.54027L6.68759 13.2676L2.58529 9.16527C2.53346 9.11129 2.47138 9.06819 2.40268 9.0385C2.33398 9.00881 2.26005 8.99312 2.18522 8.99236C2.11038 8.9916 2.03615 9.00578 1.96686 9.03407C1.89758 9.06235 1.83463 9.10418 1.78171 9.1571C1.72879 9.21002 1.68697 9.27297 1.65868 9.34225C1.63039 9.41154 1.61621 9.48577 1.61697 9.56061C1.61773 9.63544 1.63342 9.70937 1.66311 9.77807C1.6928 9.84677 1.7359 9.90885 1.78988 9.96068L6.28988 14.4607C6.39538 14.5661 6.53843 14.6254 6.68759 14.6254C6.83675 14.6254 6.9798 14.5661 7.08529 14.4607L17.2103 4.33568C17.2914 4.25665 17.3468 4.15496 17.3692 4.04392C17.3916 3.93288 17.38 3.81766 17.3358 3.71335C17.2917 3.60904 17.2171 3.52049 17.1217 3.45929C17.0264 3.39809 16.9148 3.36709 16.8016 3.37035V3.37035Z" fill="white"/>
</g>
<defs>
<clipPath id="clip0_135_817">
<rect width="18" height="18" fill="white" transform="translate(0.5)"/>
</clipPath>
</defs>
</svg>
