<svg width="48" height="48" viewBox="0 0 48 48" fill="none" xmlns="http://www.w3.org/2000/svg">
<path d="M16.9707 5.97266C16.4406 5.98042 15.9353 6.19832 15.5658 6.57846C15.1962 6.95861 14.9927 7.4699 15 8L14.998 13.5C14.998 14.3454 14.3434 15 13.498 15H7.99804C7.73302 14.9963 7.46989 15.0452 7.22396 15.144C6.97802 15.2429 6.75418 15.3896 6.56544 15.5757C6.3767 15.7618 6.22683 15.9835 6.12453 16.228C6.02224 16.4725 5.96956 16.735 5.96956 17C5.96956 17.265 6.02224 17.5275 6.12453 17.772C6.22683 18.0165 6.3767 18.2382 6.56544 18.4243C6.75418 18.6104 6.97802 18.7571 7.22396 18.856C7.46989 18.9548 7.73302 19.0037 7.99804 19H13.498C16.5127 19 18.998 16.5146 18.998 13.5L19 8C19.0037 7.73259 18.9536 7.46716 18.8529 7.21941C18.7522 6.97166 18.6029 6.74662 18.4137 6.55761C18.2245 6.36859 17.9993 6.21944 17.7514 6.11896C17.5036 6.01849 17.2381 5.96874 16.9707 5.97266ZM30.9707 5.97266C30.4409 5.98094 29.9361 6.19906 29.567 6.57914C29.1979 6.95923 28.9947 7.47023 29.0019 8L29 13.5C29 16.5146 31.4854 19 34.5 19H40C40.265 19.0037 40.5281 18.9548 40.7741 18.856C41.02 18.7571 41.2439 18.6104 41.4326 18.4243C41.6213 18.2382 41.7712 18.0165 41.8735 17.772C41.9758 17.5275 42.0285 17.265 42.0285 17C42.0285 16.735 41.9758 16.4725 41.8735 16.228C41.7712 15.9835 41.6213 15.7618 41.4326 15.5757C41.2439 15.3896 41.02 15.2429 40.7741 15.144C40.5281 15.0452 40.265 14.9963 40 15H34.5C33.6546 15 33 14.3454 33 13.5L33.0019 8C33.0056 7.73242 32.9555 7.46683 32.8547 7.21895C32.7539 6.97107 32.6043 6.74594 32.4149 6.5569C32.2255 6.36785 32.0001 6.21874 31.752 6.11839C31.504 6.01803 31.2383 5.96848 30.9707 5.97266ZM8 29C7.73497 28.9963 7.47185 29.0452 7.22591 29.144C6.97997 29.2429 6.75613 29.3896 6.56739 29.5757C6.37865 29.7618 6.22878 29.9835 6.12649 30.228C6.02419 30.4725 5.97151 30.7349 5.97151 31C5.97151 31.2651 6.02419 31.5275 6.12649 31.772C6.22878 32.0165 6.37865 32.2382 6.56739 32.4243C6.75613 32.6104 6.97997 32.7571 7.22591 32.856C7.47185 32.9548 7.73497 33.0037 8 33H13.5C14.3454 33 15 33.6546 15 34.5V40C14.9962 40.265 15.0452 40.5281 15.144 40.7741C15.2429 41.02 15.3896 41.2439 15.5757 41.4326C15.7618 41.6213 15.9835 41.7712 16.228 41.8735C16.4725 41.9758 16.7349 42.0285 17 42.0285C17.265 42.0285 17.5275 41.9758 17.772 41.8735C18.0165 41.7712 18.2382 41.6213 18.4243 41.4326C18.6104 41.2439 18.7571 41.02 18.856 40.7741C18.9548 40.5281 19.0037 40.265 19 40V34.5C19 31.4854 16.5146 29 13.5 29H8ZM34.5 29C31.4854 29 29 31.4854 29 34.5V40C28.9962 40.265 29.0452 40.5281 29.144 40.7741C29.2429 41.02 29.3896 41.2439 29.5757 41.4326C29.7618 41.6213 29.9835 41.7712 30.228 41.8735C30.4725 41.9758 30.7349 42.0285 31 42.0285C31.265 42.0285 31.5275 41.9758 31.772 41.8735C32.0165 41.7712 32.2382 41.6213 32.4243 41.4326C32.6104 41.2439 32.7571 41.02 32.856 40.7741C32.9548 40.5281 33.0037 40.265 33 40V34.5C33 33.6546 33.6546 33 34.5 33H40C40.265 33.0037 40.5281 32.9548 40.7741 32.856C41.02 32.7571 41.2439 32.6104 41.4326 32.4243C41.6213 32.2382 41.7712 32.0165 41.8735 31.772C41.9758 31.5275 42.0285 31.2651 42.0285 31C42.0285 30.7349 41.9758 30.4725 41.8735 30.228C41.7712 29.9835 41.6213 29.7618 41.4326 29.5757C41.2439 29.3896 41.02 29.2429 40.7741 29.144C40.5281 29.0452 40.265 28.9963 40 29H34.5Z" fill="black"/>
</svg>
