<svg width="48" height="48" viewBox="0 0 48 48" fill="none" xmlns="http://www.w3.org/2000/svg">
<path d="M11.5 6.00002C8.48536 6.00002 5.99999 8.48539 5.99999 11.5L5.99803 17C5.99429 17.265 6.04325 17.5282 6.14208 17.7741C6.2409 18.02 6.38762 18.2439 6.57371 18.4326C6.7598 18.6214 6.98155 18.7712 7.22606 18.8735C7.47058 18.9758 7.73298 19.0285 7.99803 19.0285C8.26308 19.0285 8.52549 18.9758 8.77 18.8735C9.01452 18.7712 9.23626 18.6214 9.42235 18.4326C9.60844 18.2439 9.75516 18.02 9.85399 17.7741C9.95282 17.5282 10.0018 17.265 9.99803 17L9.99999 11.5C9.99999 10.6546 10.6546 10 11.5 10H17C17.265 10.0038 17.5281 9.9548 17.7741 9.85597C18.02 9.75715 18.2439 9.61043 18.4326 9.42434C18.6213 9.23825 18.7712 9.0165 18.8735 8.77199C18.9758 8.52747 19.0285 8.26507 19.0285 8.00002C19.0285 7.73497 18.9758 7.47256 18.8735 7.22805C18.7712 6.98353 18.6213 6.76179 18.4326 6.5757C18.2439 6.38961 18.02 6.24289 17.7741 6.14406C17.5281 6.04523 17.265 5.99627 17 6.00002H11.5ZM31 6.00002C30.735 5.99627 30.4718 6.04523 30.2259 6.14406C29.98 6.24289 29.7561 6.38961 29.5674 6.5757C29.3786 6.76179 29.2288 6.98353 29.1265 7.22805C29.0242 7.47256 28.9715 7.73497 28.9715 8.00002C28.9715 8.26507 29.0242 8.52747 29.1265 8.77199C29.2288 9.0165 29.3786 9.23825 29.5674 9.42434C29.7561 9.61043 29.98 9.75715 30.2259 9.85597C30.4718 9.9548 30.735 10.0038 31 10H36.5C37.3454 10 38 10.6546 38 11.5L37.998 17C37.9943 17.265 38.0432 17.5282 38.1421 17.7741C38.2409 18.02 38.3876 18.2439 38.5737 18.4326C38.7598 18.6214 38.9815 18.7712 39.2261 18.8735C39.4706 18.9758 39.733 19.0285 39.998 19.0285C40.2631 19.0285 40.5255 18.9758 40.77 18.8735C41.0145 18.7712 41.2363 18.6214 41.4224 18.4326C41.6084 18.2439 41.7552 18.02 41.854 17.7741C41.9528 17.5282 42.0018 17.265 41.998 17L42 11.5C42 8.48539 39.5146 6.00002 36.5 6.00002H31ZM7.97069 28.9727C7.4406 28.9804 6.93527 29.1983 6.56575 29.5785C6.19623 29.9586 5.99274 30.4699 5.99999 31V36.5C5.99999 39.5146 8.48536 42 11.5 42H17C17.265 42.0038 17.5281 41.9548 17.7741 41.856C18.02 41.7571 18.2439 41.6104 18.4326 41.4243C18.6213 41.2382 18.7712 41.0165 18.8735 40.772C18.9758 40.5275 19.0285 40.2651 19.0285 40C19.0285 39.735 18.9758 39.4726 18.8735 39.228C18.7712 38.9835 18.6213 38.7618 18.4326 38.5757C18.2439 38.3896 18.02 38.2429 17.7741 38.1441C17.5281 38.0452 17.265 37.9963 17 38H11.5C10.6546 38 9.99999 37.3454 9.99999 36.5V31C10.0036 30.7326 9.95364 30.4672 9.85293 30.2194C9.75222 29.9717 9.60284 29.7466 9.41365 29.5576C9.22445 29.3686 8.99927 29.2195 8.75142 29.119C8.50358 29.0185 8.2381 28.9688 7.97069 28.9727ZM39.9707 28.9727C39.4406 28.9804 38.9353 29.1983 38.5658 29.5785C38.1962 29.9586 37.9927 30.4699 38 31V36.5C38 37.3454 37.3454 38 36.5 38H31C30.735 37.9963 30.4718 38.0452 30.2259 38.1441C29.98 38.2429 29.7561 38.3896 29.5674 38.5757C29.3786 38.7618 29.2288 38.9835 29.1265 39.228C29.0242 39.4726 28.9715 39.735 28.9715 40C28.9715 40.2651 29.0242 40.5275 29.1265 40.772C29.2288 41.0165 29.3786 41.2382 29.5674 41.4243C29.7561 41.6104 29.98 41.7571 30.2259 41.856C30.4718 41.9548 30.735 42.0038 31 42H36.5C39.5146 42 42 39.5146 42 36.5V31C42.0036 30.7326 41.9536 30.4672 41.8529 30.2194C41.7522 29.9717 41.6028 29.7466 41.4136 29.5576C41.2244 29.3686 40.9993 29.2195 40.7514 29.119C40.5036 29.0185 40.2381 28.9688 39.9707 28.9727Z" fill="black"/>
</svg>
