<svg width="24" height="24" viewBox="0 0 24 24" fill="none" xmlns="http://www.w3.org/2000/svg">
<g clip-path="url(#clip0_18_7429)">
<g clip-path="url(#clip1_18_7429)">
<path d="M3.56368 16.0721C3.67419 16.0227 3.79243 15.9982 3.91152 16.0001L20.0885 16.0001C20.2076 15.9982 20.3258 16.0227 20.4363 16.0721C20.5468 16.1215 20.6474 16.1949 20.7322 16.2879C20.817 16.3809 20.8844 16.4918 20.9304 16.6141C20.9763 16.7363 21 16.8675 21 17C21 17.1325 20.9763 17.2637 20.9304 17.3859C20.8844 17.5082 20.817 17.6191 20.7322 17.7121C20.6474 17.8051 20.5468 17.8785 20.4363 17.9279C20.3258 17.9773 20.2076 18.0018 20.0885 17.9999L3.91152 17.9999C3.79243 18.0018 3.67419 17.9773 3.56368 17.9279C3.45316 17.8785 3.35258 17.8051 3.26776 17.7121C3.18295 17.6191 3.11561 17.5082 3.06964 17.3859C3.02367 17.2637 3 17.1325 3 17C3 16.8675 3.02367 16.7363 3.06964 16.6141C3.11561 16.4918 3.18295 16.3809 3.26776 16.2879C3.35258 16.1949 3.45316 16.1215 3.56368 16.0721Z" fill="#484860"/>
<path d="M3.56368 11.0721C3.67419 11.0227 3.79243 10.9982 3.91152 11.0001L20.0885 11.0001C20.2076 10.9982 20.3258 11.0227 20.4363 11.0721C20.5468 11.1215 20.6474 11.1949 20.7322 11.2879C20.817 11.3809 20.8844 11.4918 20.9304 11.6141C20.9763 11.7363 21 11.8675 21 12C21 12.1325 20.9763 12.2637 20.9304 12.3859C20.8844 12.5082 20.817 12.6191 20.7322 12.7121C20.6474 12.8051 20.5468 12.8785 20.4363 12.9279C20.3258 12.9773 20.2076 13.0018 20.0885 12.9999L3.91152 12.9999C3.79243 13.0018 3.67419 12.9773 3.56368 12.9279C3.45316 12.8785 3.35258 12.8051 3.26776 12.7121C3.18295 12.6191 3.11561 12.5082 3.06964 12.3859C3.02367 12.2637 3 12.1325 3 12C3 11.8675 3.02367 11.7363 3.06964 11.6141C3.11561 11.4918 3.18295 11.3809 3.26776 11.2879C3.35258 11.1949 3.45316 11.1215 3.56368 11.0721Z" fill="#484860"/>
<path d="M3.56368 6.07211C3.67419 6.0227 3.79243 5.99823 3.91152 6.0001L20.0885 6.0001C20.2076 5.99823 20.3258 6.0227 20.4363 6.07211C20.5468 6.12152 20.6474 6.19488 20.7322 6.28791C20.817 6.38095 20.8844 6.49181 20.9304 6.61405C20.9763 6.7363 21 6.86749 21 7C21 7.13251 20.9763 7.2637 20.9304 7.38595C20.8844 7.50819 20.817 7.61905 20.7322 7.71209C20.6474 7.80512 20.5468 7.87848 20.4363 7.92789C20.3258 7.9773 20.2076 8.00177 20.0885 7.9999L3.91152 7.9999C3.79243 8.00177 3.67419 7.9773 3.56368 7.92789C3.45316 7.87848 3.35258 7.80512 3.26776 7.71209C3.18295 7.61905 3.11561 7.50819 3.06964 7.38595C3.02367 7.2637 3 7.13251 3 7C3 6.86749 3.02367 6.7363 3.06964 6.61405C3.11561 6.49181 3.18295 6.38095 3.26776 6.28791C3.35258 6.19488 3.45316 6.12152 3.56368 6.07211Z" fill="#484860"/>
</g>
</g>
<defs>
<clipPath id="clip0_18_7429">
<rect width="24" height="24" fill="white"/>
</clipPath>
<clipPath id="clip1_18_7429">
<rect width="24" height="24" fill="white"/>
</clipPath>
</defs>
</svg>
