<svg width="24" height="24" viewBox="0 0 24 24" fill="none" xmlns="http://www.w3.org/2000/svg">
<g clip-path="url(#clip0_18_6972)">
<path d="M15.2354 9.99444C15.2416 10.2587 15.3522 10.5097 15.543 10.6927L16.836 11.9856L15.543 13.2786C15.4471 13.3719 15.3709 13.4835 15.3189 13.6068C15.2669 13.7301 15.2401 13.8626 15.2403 13.9964C15.2405 14.1952 15.3 14.3895 15.4112 14.5544C15.5224 14.7192 15.6802 14.8472 15.8645 14.9219C16.0488 14.9967 16.2511 15.0148 16.4457 14.9739C16.6404 14.9331 16.8184 14.8352 16.9571 14.6927L18.9571 12.6927C19.1445 12.5051 19.2498 12.2508 19.2498 11.9856C19.2498 11.7205 19.1445 11.4662 18.9571 11.2786L16.9571 9.27862C16.8175 9.1331 16.6373 9.03316 16.4399 8.99189C16.2426 8.95061 16.0374 8.96994 15.8513 9.04734C15.6651 9.12474 15.5067 9.25659 15.3968 9.4256C15.2869 9.59461 15.2306 9.79289 15.2354 9.99444Z" fill="#484860"/>
<path d="M11.8221 21.3727C11.7727 21.2498 11.7482 21.1182 11.7501 20.9857L11.7501 2.98568C11.7482 2.85317 11.7727 2.7216 11.8221 2.59863C11.8715 2.47567 11.9449 2.36374 12.0379 2.26937C12.131 2.17501 12.2419 2.10007 12.3641 2.04892C12.4864 1.99777 12.6176 1.97144 12.7501 1.97144C12.8826 1.97144 13.0138 1.99777 13.1361 2.04892C13.2583 2.10007 13.3692 2.17501 13.4623 2.26937C13.5553 2.36374 13.6287 2.47567 13.6781 2.59863C13.7275 2.7216 13.752 2.85317 13.7501 2.98568V20.9857C13.752 21.1182 13.7275 21.2498 13.6781 21.3727C13.6287 21.4957 13.5553 21.6076 13.4623 21.702C13.3692 21.7964 13.2583 21.8713 13.1361 21.9224C13.0138 21.9736 12.8826 21.9999 12.7501 21.9999C12.6176 21.9999 12.4864 21.9736 12.3641 21.9224C12.2419 21.8713 12.131 21.7964 12.0379 21.702C11.9449 21.6076 11.8715 21.4957 11.8221 21.3727Z" fill="#484860"/>
<path d="M8.32212 21.3727C8.27271 21.2498 8.24823 21.1182 8.2501 20.9857L8.2501 2.98568C8.24823 2.85317 8.27271 2.7216 8.32212 2.59863C8.37153 2.47567 8.4449 2.36374 8.53794 2.26937C8.63098 2.17501 8.74186 2.10007 8.86411 2.04892C8.98637 1.99777 9.11758 1.97144 9.2501 1.97144C9.38263 1.97144 9.51383 1.99777 9.63609 2.04892C9.75834 2.10007 9.86922 2.17501 9.96226 2.26937C10.0553 2.36374 10.1287 2.47567 10.1781 2.59863C10.2275 2.7216 10.252 2.85317 10.2501 2.98568L10.2501 20.9857C10.252 21.1182 10.2275 21.2498 10.1781 21.3727C10.1287 21.4957 10.0553 21.6076 9.96226 21.702C9.86922 21.7964 9.75834 21.8713 9.63609 21.9224C9.51383 21.9736 9.38263 21.9999 9.2501 21.9999C9.11758 21.9999 8.98637 21.9736 8.86411 21.9224C8.74186 21.8713 8.63099 21.7964 8.53794 21.702C8.4449 21.6076 8.37154 21.4957 8.32212 21.3727Z" fill="#484860"/>
<path d="M4.82212 21.3727C4.77271 21.2498 4.74823 21.1182 4.7501 20.9857L4.7501 2.98568C4.74823 2.85317 4.77271 2.7216 4.82212 2.59863C4.87153 2.47567 4.9449 2.36374 5.03794 2.26937C5.13098 2.17501 5.24186 2.10007 5.36411 2.04892C5.48637 1.99777 5.61757 1.97144 5.7501 1.97144C5.88263 1.97144 6.01383 1.99777 6.13609 2.04892C6.25834 2.10007 6.36922 2.17501 6.46226 2.26937C6.5553 2.36374 6.62867 2.47567 6.67808 2.59863C6.72749 2.7216 6.75197 2.85317 6.7501 2.98568L6.7501 20.9857C6.75197 21.1182 6.72749 21.2498 6.67808 21.3727C6.62867 21.4957 6.55531 21.6076 6.46226 21.702C6.36922 21.7964 6.25834 21.8713 6.13609 21.9224C6.01383 21.9736 5.88263 21.9999 5.7501 21.9999C5.61758 21.9999 5.48637 21.9736 5.36411 21.9224C5.24186 21.8713 5.13099 21.7964 5.03794 21.702C4.9449 21.6076 4.87154 21.4957 4.82212 21.3727Z" fill="#484860"/>
</g>
<defs>
<clipPath id="clip0_18_6972">
<rect width="24" height="24" fill="white"/>
</clipPath>
</defs>
</svg>
