<svg width="20" height="20" viewBox="0 0 20 20" fill="none" xmlns="http://www.w3.org/2000/svg">
<g clip-path="url(#clip0_98_1144)">
<path d="M15.831 1.6665C14.6866 1.6665 13.746 2.60793 13.746 3.75228V16.2498C13.746 17.3942 14.6866 18.3356 15.831 18.3356C16.9753 18.3356 17.9167 17.3942 17.9167 16.2498V3.75228C17.9167 2.60793 16.9753 1.6665 15.831 1.6665ZM15.831 2.9165C16.3 2.9165 16.6667 3.28329 16.6667 3.75228V16.2498C16.6667 16.7188 16.3 17.0856 15.831 17.0856C15.362 17.0856 14.996 16.7188 14.996 16.2498V3.75228C14.996 3.28329 15.362 2.9165 15.831 2.9165ZM4.16431 5.41895C3.01996 5.41895 2.07935 6.35956 2.07935 7.50391V16.2498C2.07935 17.3942 3.01996 18.3356 4.16431 18.3356C5.30865 18.3356 6.25008 17.3942 6.25008 16.2498V7.50391C6.25008 6.35956 5.30865 5.41895 4.16431 5.41895ZM4.16431 6.66895C4.63329 6.66895 5.00008 7.03492 5.00008 7.50391V16.2498C5.00008 16.7188 4.63329 17.0856 4.16431 17.0856C3.69532 17.0856 3.32935 16.7188 3.32935 16.2498V7.50391C3.32935 7.03492 3.69532 6.66895 4.16431 6.66895ZM10.0001 9.1665C8.85573 9.1665 7.91431 10.1079 7.91431 11.2523V16.2498C7.91431 17.3942 8.85573 18.3356 10.0001 18.3356C11.1444 18.3356 12.0859 17.3942 12.0859 16.2498V11.2523C12.0859 10.1079 11.1444 9.1665 10.0001 9.1665ZM10.0001 10.4165C10.4691 10.4165 10.8359 10.7833 10.8359 11.2523V16.2498C10.8359 16.7188 10.4691 17.0856 10.0001 17.0856C9.53109 17.0856 9.16431 16.7188 9.16431 16.2498V11.2523C9.16431 10.7833 9.53109 10.4165 10.0001 10.4165Z" fill="white"/>
</g>
<defs>
<clipPath id="clip0_98_1144">
<rect width="20" height="20" fill="white"/>
</clipPath>
</defs>
</svg>
