<svg width="18" height="18" viewBox="0 0 18 18" fill="none" xmlns="http://www.w3.org/2000/svg">
<path d="M9.00008 0.666504C4.4052 0.666504 0.666748 4.40496 0.666748 8.99984C0.666748 13.5947 4.4052 17.3332 9.00008 17.3332C11.6455 17.3332 14.0066 16.0928 15.5317 14.1667C15.583 14.1024 15.6212 14.0286 15.6439 13.9495C15.6667 13.8704 15.6736 13.7876 15.6643 13.7059C15.655 13.6241 15.6296 13.545 15.5897 13.473C15.5497 13.4011 15.4959 13.3378 15.4314 13.2867C15.3669 13.2356 15.293 13.1977 15.2138 13.1752C15.1347 13.1528 15.0518 13.1462 14.9701 13.1558C14.8884 13.1654 14.8094 13.1911 14.7376 13.2313C14.6658 13.2716 14.6027 13.3256 14.5518 13.3903C13.2536 15.03 11.2555 16.0832 9.00008 16.0832C5.08079 16.0832 1.91675 12.9191 1.91675 8.99984C1.91675 5.08055 5.08079 1.9165 9.00008 1.9165C11.2555 1.9165 13.2536 2.96967 14.5518 4.60938C14.6027 4.67407 14.6658 4.72809 14.7376 4.76833C14.8094 4.80857 14.8884 4.83424 14.9701 4.84387C15.0518 4.8535 15.1347 4.84689 15.2138 4.82444C15.293 4.80198 15.3669 4.76412 15.4314 4.71301C15.4959 4.66191 15.5497 4.59857 15.5897 4.52663C15.6296 4.4547 15.655 4.37558 15.6643 4.29382C15.6736 4.21206 15.6667 4.12927 15.6439 4.05019C15.6212 3.97111 15.583 3.89731 15.5317 3.83301C14.0066 1.90688 11.6455 0.666504 9.00008 0.666504ZM14.2019 5.86833C14.0775 5.86836 13.956 5.9055 13.8528 5.97499C13.7497 6.04449 13.6696 6.14318 13.6228 6.25845C13.5761 6.37371 13.5648 6.5003 13.5904 6.62202C13.616 6.74375 13.6773 6.85506 13.7665 6.94173L15.1988 8.37402L6.70923 8.3667C6.62641 8.36543 6.54417 8.38062 6.46728 8.41141C6.39039 8.44219 6.32038 8.48795 6.26133 8.54603C6.20228 8.60411 6.15536 8.67334 6.12329 8.7497C6.09123 8.82607 6.07466 8.90805 6.07455 8.99087C6.07444 9.0737 6.0908 9.15572 6.12266 9.23217C6.15453 9.30862 6.20127 9.37797 6.26017 9.4362C6.31907 9.49443 6.38896 9.54037 6.46577 9.57136C6.54258 9.60235 6.62478 9.61776 6.7076 9.6167L15.2004 9.62402L13.7665 11.0579C13.7065 11.1155 13.6586 11.1845 13.6257 11.2608C13.5927 11.3372 13.5752 11.4193 13.5744 11.5025C13.5736 11.5856 13.5893 11.6681 13.6207 11.7451C13.6522 11.8221 13.6986 11.892 13.7574 11.9508C13.8162 12.0096 13.8862 12.0561 13.9632 12.0875C14.0402 12.1189 14.1226 12.1347 14.2058 12.1339C14.2889 12.133 14.3711 12.1156 14.4474 12.0826C14.5237 12.0496 14.5927 12.0017 14.6503 11.9417L17.1503 9.44173C17.2675 9.32452 17.3333 9.16557 17.3333 8.99984C17.3333 8.83411 17.2675 8.67516 17.1503 8.55794L14.6503 6.05794C14.5921 5.99795 14.5223 5.95025 14.4453 5.91768C14.3683 5.88511 14.2855 5.86833 14.2019 5.86833Z" fill="#484860"/>
</svg>
