<?xml version="1.0" encoding="iso-8859-1"?>
<!-- Uploaded to: SVG Repo, www.svgrepo.com, Generator: SVG Repo Mixer Tools -->
<svg height="800px" width="800px" version="1.1" id="Layer_1" xmlns="http://www.w3.org/2000/svg" xmlns:xlink="http://www.w3.org/1999/xlink" 
	 viewBox="0 0 512 512" xml:space="preserve">
<polygon style="fill:#FF583E;" points="285.932,136.192 147.708,0 9.484,136.192 68.804,136.192 68.804,322.328 226.612,322.328 
	226.612,136.192 "/>
<path style="fill:#32BEA6;" d="M375.204,415.888v-95.416c-29.768-8.504-51.584-21.368-65.48-38.6
	c-13.888-17.232-20.832-38.152-20.832-62.744c0-24.904,7.848-45.808,23.568-62.744c15.72-16.92,36.624-26.672,62.744-29.264v-22.544
	h33.024v22.544c24.136,2.888,43.344,11.12,57.616,24.712c14.256,13.592,23.376,31.776,27.328,54.536l-57.616,7.52
	c-3.496-17.92-12.608-30.064-27.328-36.44v89.048c36.432,9.872,61.256,22.664,74.464,38.376
	c13.2,15.704,19.824,35.864,19.824,60.456c0,27.48-8.312,50.64-24.952,69.464c-16.624,18.824-39.728,30.36-69.336,34.616V512
	h-33.024v-41.456c-26.272-3.184-47.592-12.984-63.992-29.384c-16.4-16.384-26.88-39.536-31.432-69.456l59.448-6.376
	c2.424,12.144,6.976,22.632,13.664,31.432C359.564,405.568,366.996,411.944,375.204,415.888z M375.204,176.768
	c-8.968,3.032-16.104,8.192-21.408,15.496c-5.32,7.288-7.968,15.328-7.968,24.136c0,8.048,2.424,15.52,7.288,22.44
	c4.864,6.912,12.224,12.488,22.096,16.744v-78.816H375.204z M408.228,419.088c11.376-2.128,20.64-7.408,27.776-15.832
	c7.136-8.416,10.704-18.336,10.704-29.72c0-10.168-3-18.928-8.992-26.304c-5.992-7.36-15.824-13.008-29.488-16.968V419.088z"/>
</svg>