<svg id="Layer_1" data-name="Layer 1" xmlns="http://www.w3.org/2000/svg" viewBox="0 0 512 512"><defs><style>.cls-1{fill:#141f38;}</style></defs><title>price-tag-2-glyph</title><path class="cls-1" d="M275,253.23c7.28,10.32,8.8,21.19,4.56,32.8-1.41,4.67-3.8,5.54-8.58,3.58l-10.86-4.13c-4.23-1.63-5.21-3.48-3.8-8.15,2.07-6.41,1.31-11.29-4.67-17.27-7.71-7.72-12.6-9.34-17.27-4.67-4,4-1,10.1,6.52,19.34a107.31,107.31,0,0,1,10.32,14.45,30,30,0,0,1,3.37,8.37c2,7.82,1,18.14-8.8,27-11.62,11.62-27.26,12-43.23,1.07l-4.67,4.67c-3,3-5,3-8,0l-8.26-8.26c-2.93-2.94-3-5,0-8l4.45-4.45c-9-12.28-10.64-24.55-5.1-36.82q2.77-5.7,8.79-2.93l10,4.79c4.34,2,5.22,4.13,3.47,8.69-2.72,6.19-.87,12.39,5.32,18.58,8.26,8.26,14.67,10.11,19.34,5.44,4.34-4.34,1.52-10-6.2-19.45-5.32-6.84-8.15-10.32-11.51-18a26.74,26.74,0,0,1-2.94-10.54c-.43-6.3,2.28-14.66,9.34-21.72,11.41-11.4,26.51-11.93,42.15-.64l4.46-4.45c2.93-2.93,5-2.82,7.93.12l8.26,8.26c3,3,3,5,.11,7.92ZM512,76.6V215.79A76.08,76.08,0,0,1,489.56,270L270,489.56a76.59,76.59,0,0,1-108.33,0L22.44,350.37a76.59,76.59,0,0,1,0-108.33L242,22.44A76.11,76.11,0,0,1,296.2,0H435.4A76.69,76.69,0,0,1,512,76.6ZM349,246l-83-83a32.11,32.11,0,0,0-45.42,0L111.81,271.74a32.11,32.11,0,0,0,0,45.42l83,83a32.11,32.11,0,0,0,45.42,0L349,291.46A32.11,32.11,0,0,0,349,246ZM448,89.6a25.6,25.6,0,1,0-25.6,25.6A25.6,25.6,0,0,0,448,89.6Z"/></svg>