<svg width="20" height="20" viewBox="0 0 20 20" fill="none" xmlns="http://www.w3.org/2000/svg">
<path d="M9.99992 1.66699C7.70613 1.66699 5.83325 3.53988 5.83325 5.83366C5.83325 8.12744 7.70613 10.0003 9.99992 10.0003C12.2937 10.0003 14.1666 8.12744 14.1666 5.83366C14.1666 3.53988 12.2937 1.66699 9.99992 1.66699ZM9.99992 2.91699C11.6182 2.91699 12.9166 4.21542 12.9166 5.83366C12.9166 7.45189 11.6182 8.75033 9.99992 8.75033C8.38168 8.75033 7.08325 7.45189 7.08325 5.83366C7.08325 4.21542 8.38168 2.91699 9.99992 2.91699ZM4.99097 11.667C4.08271 11.667 3.33325 12.4165 3.33325 13.3247V13.9587C3.33325 15.4604 4.28295 16.6221 5.54435 17.318C6.80576 18.014 8.4033 18.3337 9.99992 18.3337C11.5965 18.3337 13.1941 18.014 14.4555 17.318C15.531 16.7246 16.3405 15.7764 16.5673 14.5837H16.6674V13.3247C16.6674 12.4165 15.9171 11.667 15.0089 11.667H4.99097ZM4.99097 12.917H15.0089C15.2415 12.917 15.4174 13.0921 15.4174 13.3247V13.3337H15.4166V13.9587C15.4166 14.9569 14.8559 15.6702 13.8516 16.2243C12.8474 16.7783 11.4241 17.0837 9.99992 17.0837C8.57571 17.0837 7.15241 16.7783 6.14819 16.2243C5.14397 15.6702 4.58325 14.9569 4.58325 13.9587V13.3247C4.58325 13.0921 4.75839 12.917 4.99097 12.917Z" fill="white"/>
</svg>
