<?xml version="1.0" encoding="utf-8"?>
<!-- Generator: Adobe Illustrator 27.3.1, SVG Export Plug-In . SVG Version: 6.00 Build 0)  -->
<svg version="1.1" id="Layer_1" xmlns="http://www.w3.org/2000/svg" xmlns:xlink="http://www.w3.org/1999/xlink" x="0px" y="0px"
	 viewBox="0 0 50 50" style="enable-background:new 0 0 50 50;" xml:space="preserve">
<style type="text/css">
	.st0{fill:none;}
	.st1{stroke:#000000;stroke-miterlimit:10;}
	.st2{stroke:#000000;stroke-width:0.75;stroke-miterlimit:10;}
	.st3{clip-path:url(#SVGID_00000003098523643565812810000005038957693425837746_);}
	.st4{clip-path:url(#SVGID_00000099628053242300278920000016487819701488005817_);}
	.st5{fill:#FFFFFF;}
	.st6{clip-path:url(#SVGID_00000138550394521357922070000003387666855412213894_);}
	.st7{fill:#231F20;}
	.st8{clip-path:url(#SVGID_00000106108395037055246040000015785018821835889035_);}
	.st9{clip-path:url(#SVGID_00000150790693998875364570000018193323739138362548_);}
	.st10{clip-path:url(#SVGID_00000180329309788936769420000009526803484439516588_);}
	.st11{clip-path:url(#SVGID_00000040559135904296931200000014865769528114524803_);}
	.st12{clip-path:url(#SVGID_00000122685936885886491720000010481384442250449551_);}
	.st13{clip-path:url(#SVGID_00000178163946119398622190000013011149252129706883_);}
	.st14{clip-path:url(#SVGID_00000017515375345407230820000014388676010292148616_);}
	.st15{clip-path:url(#SVGID_00000126292968061319779840000017690151908837014968_);}
	.st16{clip-path:url(#SVGID_00000003065952916105284080000003616952056799842481_);}
	.st17{clip-path:url(#SVGID_00000058570158771039733420000004072409947941742997_);}
	.st18{clip-path:url(#SVGID_00000109726815774047177190000009917029657951720329_);}
	.st19{clip-path:url(#SVGID_00000136369935058707381480000015129499824816863671_);}
	.st20{clip-path:url(#SVGID_00000086688523985619619680000013842845168335561625_);}
	.st21{clip-path:url(#SVGID_00000013889607870444713690000011075093017992617353_);}
	.st22{clip-path:url(#SVGID_00000147185690559923176760000003951846224007681941_);}
	.st23{clip-path:url(#SVGID_00000100384537315172301000000001261395185106246562_);}
	.st24{clip-path:url(#SVGID_00000147904865840840856620000004479112700825441666_);}
	.st25{clip-path:url(#SVGID_00000058575258223801149350000005063326763894336926_);}
	.st26{clip-path:url(#SVGID_00000122711408094593970850000000807142885961850785_);}
	.st27{clip-path:url(#SVGID_00000058562292936670355520000007476618431544527779_);}
	.st28{clip-path:url(#SVGID_00000160891607871565502380000010679981136509232042_);}
	.st29{clip-path:url(#SVGID_00000173143810225749465090000006209918716748686492_);}
	.st30{clip-path:url(#SVGID_00000016762480335484491430000014761912656113739673_);}
	.st31{fill-rule:evenodd;clip-rule:evenodd;}
	.st32{clip-path:url(#SVGID_00000163067834465864851610000018240232901372837565_);}
	.st33{clip-path:url(#SVGID_00000132075738651780835170000014401392484362132369_);}
	.st34{stroke:#000000;stroke-width:0.5;stroke-miterlimit:10;}
	.st35{clip-path:url(#SVGID_00000045580244727642035540000008549722592014534296_);}
	.st36{clip-path:url(#SVGID_00000127736827855277328510000003045777475199137941_);}
	.st37{clip-path:url(#SVGID_00000183228860266231542120000017830789314159373730_);}
	.st38{fill:#1A1A1A;}
	.st39{clip-path:url(#SVGID_00000170276660616872540060000009583165402044500908_);}
	.st40{clip-path:url(#SVGID_00000003823444161975059700000005548313201625151636_);}
	.st41{clip-path:url(#SVGID_00000027578489856222295330000009752996152911742125_);}
	.st42{clip-path:url(#SVGID_00000150062897959070203770000004889678370205866375_);}
	.st43{clip-path:url(#SVGID_00000003813727840081200040000001888535904064105614_);}
	.st44{clip-path:url(#SVGID_00000140701937229322460680000010452964548864003770_);}
	.st45{clip-path:url(#SVGID_00000003077542492530393600000009508682864951026340_);}
	.st46{clip-path:url(#SVGID_00000032607858254976452560000013902471282819896983_);}
	.st47{clip-path:url(#SVGID_00000013160634469687888490000014680281815318428075_);}
	.st48{fill:#F1F1F1;}
	.st49{fill:#E8E8E8;}
	.st50{fill:#FEFEFE;}
	.st51{fill:#CCCCCC;}
	.st52{fill:#B3B3B3;}
	.st53{fill:#E6E6E6;}
	.st54{fill:#EBEBEB;}
	.st55{fill:#EEEEEE;}
	.st56{fill:#F8F8F8;}
	.st57{fill:#FBFBFB;}
	.st58{fill:#383838;}
	.st59{fill:#232323;}
	.st60{fill:#F6F6F6;}
	.st61{fill:#535353;}
	.st62{fill:#0A0A0A;}
	.st63{fill:#F5F5F5;}
	.st64{fill:#818181;}
	.st65{fill:#4A4A4A;}
	.st66{fill:#999999;}
	.st67{fill:url(#SVGID_00000044890133053798861980000007132982115402807688_);}
	.st68{fill:url(#SVGID_00000099659748878512832630000006346952505422763706_);}
	.st69{fill:#0E0E0D;}
	.st70{fill:#333333;}
	.st71{fill:#808080;}
	.st72{fill:url(#SVGID_00000153673631085286308190000000426828005343894972_);}
	.st73{fill:#666666;}
	.st74{fill:url(#SVGID_00000049188578756548508190000015473319987888748451_);}
	.st75{fill:url(#SVGID_00000155143525588587367860000008344062382069585065_);}
	.st76{fill:url(#SVGID_00000164476940789823950470000001887906623120762284_);}
	.st77{fill:url(#SVGID_00000023982582181075810130000012177796380582329774_);}
	.st78{fill:url(#SVGID_00000007391367716193936140000001866350882520659353_);}
	.st79{clip-path:url(#SVGID_00000150824369340489841900000008400989543500580004_);}
	.st80{clip-path:url(#SVGID_00000010281890540186255580000005836970801751705499_);}
	.st81{clip-path:url(#SVGID_00000147217027535884581510000007178956685749930382_);}
	.st82{clip-path:url(#SVGID_00000086682268482296343030000015205129450596339074_);}
	.st83{clip-path:url(#SVGID_00000078022691983152221010000001183362409519317930_);}
	.st84{fill:#241F20;stroke:#000000;stroke-width:0.5;stroke-miterlimit:10;}
	.st85{clip-path:url(#SVGID_00000039832043251861361130000001640646801068594602_);}
	.st86{clip-path:url(#SVGID_00000005225177214800798680000008950698945445054379_);}
	.st87{clip-path:url(#SVGID_00000134946952343567255690000003049114548785630619_);}
	.st88{clip-path:url(#SVGID_00000016060419489801508420000004756832238631088307_);}
	.st89{clip-path:url(#SVGID_00000150800171662522023020000000548657274538235056_);}
	.st90{clip-path:url(#SVGID_00000063631989610389720550000005032912560512581795_);}
	.st91{clip-path:url(#SVGID_00000092437748958673650660000003585866711504970410_);}
	.st92{clip-path:url(#SVGID_00000069394816895262176300000000791414430087277231_);}
	.st93{clip-path:url(#SVGID_00000032627121192673327100000003802241893547110838_);}
	.st94{clip-path:url(#SVGID_00000070825341091304414730000007175657155601854091_);}
	.st95{clip-path:url(#SVGID_00000072977316963937669870000015920099971898571167_);}
	.st96{clip-path:url(#SVGID_00000144325012322749035730000009939556787602036154_);}
	.st97{clip-path:url(#SVGID_00000108989432593416183700000010580183970286448789_);}
	.st98{clip-path:url(#SVGID_00000118366852611429075460000015895618875940123838_);}
	.st99{clip-path:url(#SVGID_00000116958260202778994890000008271309079367924146_);}
	.st100{clip-path:url(#SVGID_00000106826891493694510790000011578554631642433711_);}
	.st101{clip-path:url(#SVGID_00000176017225370057453320000006842439232786126009_);}
	.st102{clip-path:url(#SVGID_00000078019596760705037080000009601312948360039050_);}
	.st103{clip-path:url(#SVGID_00000034808246109802716460000011763077898021815985_);}
	.st104{clip-path:url(#SVGID_00000158023347401892322200000007009249194720119174_);}
	.st105{clip-path:url(#SVGID_00000004512033276454787600000009688323972222406042_);}
	.st106{clip-path:url(#SVGID_00000023977435221688982010000007570850391285219224_);}
	.st107{clip-path:url(#SVGID_00000136392860031324806250000005936999133512208813_);}
	.st108{clip-path:url(#SVGID_00000085943847920970700300000013067498135816417186_);}
	.st109{clip-path:url(#SVGID_00000083778326992116241760000017600776717180299691_);}
	.st110{clip-path:url(#SVGID_00000045581469222551505520000014665290490680547207_);}
	.st111{clip-path:url(#SVGID_00000080895580739757507680000005437232614156716939_);}
	.st112{clip-path:url(#SVGID_00000174580145147193654300000017452938524926888837_);}
	.st113{clip-path:url(#SVGID_00000141455232132581184300000011331485004868906943_);}
	.st114{clip-path:url(#SVGID_00000103255334488799842810000014730183087383002045_);}
	.st115{fill:#FFFFFF;stroke:#000000;stroke-miterlimit:10;}
	.st116{clip-path:url(#SVGID_00000178903383830643905200000014569851065866082749_);}
	.st117{clip-path:url(#SVGID_00000043436502212787265450000008757084658929261985_);}
	.st118{fill:none;stroke:#010101;stroke-miterlimit:10;}
	.st119{fill:#010101;stroke:#000000;stroke-miterlimit:10;}
	.st120{clip-path:url(#SVGID_00000002343129672862355030000015533648689841095068_);}
	.st121{fill:#010101;stroke:#010101;stroke-miterlimit:10;}
	.st122{clip-path:url(#SVGID_00000019678249491769749400000016894261640123459481_);}
	.st123{clip-path:url(#SVGID_00000100381849229586579870000009084769295075247783_);}
	.st124{clip-path:url(#SVGID_00000155109368105921294900000001119818579222342554_);}
	.st125{clip-path:url(#SVGID_00000030446976403756917980000012040374730408430481_);}
	.st126{clip-path:url(#SVGID_00000107572687535167394400000009930779122217074055_);}
	.st127{fill:none;stroke:#000000;stroke-width:3;stroke-miterlimit:10;}
	.st128{clip-path:url(#SVGID_00000049187252583381713370000014869595980784274337_);}
	.st129{clip-path:url(#SVGID_00000180351763898795170570000007433953762386523283_);}
	.st130{clip-path:url(#SVGID_00000029763836761423141620000002970584201795955336_);}
	.st131{clip-path:url(#SVGID_00000050630148649796226660000000859717398791751344_);}
	.st132{fill:#040606;}
	.st133{clip-path:url(#SVGID_00000070108913986761549670000002392108933426218153_);}
	.st134{clip-path:url(#SVGID_00000105386375233404305120000017177416903525808016_);}
	.st135{clip-path:url(#SVGID_00000154424320358401689470000013047788916104327071_);}
	.st136{clip-path:url(#SVGID_00000009552085877738112930000009348434814827876998_);}
	.st137{clip-path:url(#SVGID_00000150089869364929949380000003944828579629428892_);}
	.st138{clip-path:url(#SVGID_00000005980831753909317280000006080010600496820900_);}
	.st139{clip-path:url(#SVGID_00000159440103644893331840000010797361288860710059_);}
	.st140{fill:#FFFFFF;stroke:#000000;stroke-width:1.5;stroke-miterlimit:10;}
	.st141{clip-path:url(#SVGID_00000143591759247950729500000006273660239656719278_);}
	.st142{fill:#BDBCBC;}
	.st143{clip-path:url(#SVGID_00000062194260196379599460000017399766391656436395_);}
	.st144{fill:#2E2A2B;}
	.st145{clip-path:url(#SVGID_00000099664123609714377660000013681060245533501340_);}
	.st146{clip-path:url(#SVGID_00000176032493912638428090000008077905642705314436_);}
	.st147{clip-path:url(#SVGID_00000087378314533375585160000008079989317123335095_);}
	.st148{clip-path:url(#SVGID_00000103247362573551169520000011456564115985933463_);}
	.st149{clip-path:url(#SVGID_00000062910184087550121490000001159201100420822932_);}
	.st150{fill:#272324;}
	.st151{clip-path:url(#SVGID_00000026164588575934827630000005337233362406197686_);}
	.st152{clip-path:url(#SVGID_00000000930621341986178210000006630810078161363384_);}
	.st153{clip-path:url(#SVGID_00000072243067835370116480000010200931361826518937_);}
	.st154{clip-path:url(#SVGID_00000131329868541214832060000015147874309993259170_);}
	.st155{clip-path:url(#SVGID_00000011021442854490141820000016305717295782734268_);}
	.st156{clip-path:url(#SVGID_00000077284974826111057510000017330196091627463866_);}
	.st157{fill:none;stroke:#000000;stroke-width:0.8735;stroke-linecap:round;stroke-linejoin:round;stroke-miterlimit:10;}
	.st158{clip-path:url(#SVGID_00000100382186084935433420000002640339799255447425_);}
	.st159{clip-path:url(#SVGID_00000112610252907614642720000008715405484157382797_);}
	.st160{clip-path:url(#SVGID_00000001637251194518997310000000084069056460023725_);}
	.st161{clip-path:url(#SVGID_00000044155821436345661980000005486340965218980783_);}
	.st162{clip-path:url(#SVGID_00000164482468888458581960000004037040717741046665_);}
	.st163{clip-path:url(#SVGID_00000093898732647561525100000008096112702036981155_);}
	.st164{clip-path:url(#SVGID_00000173841993712183844260000008199690725449276055_);}
	.st165{clip-path:url(#SVGID_00000142151959920394741650000000954728823727930773_);}
	.st166{clip-path:url(#SVGID_00000085942561388010464060000013885769856866676389_);}
	.st167{clip-path:url(#SVGID_00000105419357894516083020000010353247551631182992_);}
	.st168{clip-path:url(#SVGID_00000093890988428466788290000012540408593778585256_);}
	.st169{clip-path:url(#SVGID_00000109738820808865097780000017596393801401074830_);}
	.st170{clip-path:url(#SVGID_00000176034885810007089500000018216619454025659802_);}
	.st171{clip-path:url(#SVGID_00000057149975040935301590000013819203470804859279_);}
	.st172{clip-path:url(#SVGID_00000152226438483134860250000017776787628835856808_);}
	.st173{clip-path:url(#SVGID_00000071521415938841227980000016264298370987186346_);}
	.st174{clip-path:url(#SVGID_00000037671552486660689830000011286743302135691956_);}
	.st175{clip-path:url(#SVGID_00000037670502851696198780000002308714218361002389_);}
	.st176{clip-path:url(#SVGID_00000155844877967813071330000017653261608737514151_);}
	.st177{clip-path:url(#SVGID_00000013911297725147247830000008835127883619514764_);}
	.st178{clip-path:url(#SVGID_00000096028145307732905010000001627278469955554739_);}
	.st179{clip-path:url(#SVGID_00000004514915173082677960000002574250660159179136_);}
	.st180{clip-path:url(#SVGID_00000014592858851184438490000014693889575027272068_);}
	.st181{clip-path:url(#SVGID_00000101793188734951290190000007264176593106878081_);}
	.st182{clip-path:url(#SVGID_00000139996128084177199390000011972246035402590885_);}
	.st183{clip-path:url(#SVGID_00000152971327029338284960000010783846502899615164_);}
	.st184{clip-path:url(#SVGID_00000051366923409702608450000014000339802801178272_);}
	.st185{clip-path:url(#SVGID_00000068658008463208307180000008144500236798491013_);}
	.st186{clip-path:url(#SVGID_00000183936850793991834040000017917631691040779454_);}
	.st187{clip-path:url(#SVGID_00000052795619848649327230000003607743486127001266_);}
	.st188{clip-path:url(#SVGID_00000140705268760353754040000003103441582480191133_);}
	.st189{clip-path:url(#SVGID_00000012472776782565764710000018092150934479714232_);}
	.st190{clip-path:url(#SVGID_00000051371111449923421380000017065093043104323231_);}
	.st191{clip-path:url(#SVGID_00000039845328708823966440000007719988521951856300_);}
	.st192{clip-path:url(#SVGID_00000083057644599781226660000000736685634519779746_);}
	.st193{clip-path:url(#SVGID_00000176019333887893851540000017878320157721938877_);}
	.st194{clip-path:url(#SVGID_00000040534342797287833490000007712347485449295493_);}
	.st195{clip-path:url(#SVGID_00000130611206271901357280000014147159077353525146_);}
	.st196{fill:#E5E5E5;}
	.st197{fill:#1D1D1B;}
	.st198{fill:none;stroke:#000000;stroke-miterlimit:10;}
	.st199{fill:#FEFEFE;stroke:#000000;stroke-miterlimit:10;}
	.st200{clip-path:url(#SVGID_00000114035617575194498990000007137148670065575834_);}
	.st201{clip-path:url(#SVGID_00000010296758790017292120000003625329723932933260_);}
	.st202{clip-path:url(#SVGID_00000078015886229992830290000009349706982903601339_);}
	.st203{fill:#231F1F;}
	.st204{fill:#020000;}
	.st205{clip-path:url(#SVGID_00000121268015021998154980000014508407913088298891_);}
	.st206{clip-path:url(#SVGID_00000156587484347554686860000014154523597274849727_);}
	.st207{clip-path:url(#SVGID_00000106127234632091757060000001018628982817210770_);}
	.st208{clip-path:url(#SVGID_00000100350987889797534530000010616477684266005638_);}
	.st209{fill:#050000;}
	.st210{clip-path:url(#SVGID_00000108998901183773301380000002101120172983410564_);}
	.st211{clip-path:url(#SVGID_00000006677125975659933320000000814079201859404952_);}
	.st212{clip-path:url(#SVGID_00000087377281787663808710000017707399657300798896_);}
	.st213{clip-path:url(#SVGID_00000047748077194094084560000001622360170984081551_);}
	.st214{clip-path:url(#SVGID_00000170988988290865185660000006563777020996338076_);}
	.st215{clip-path:url(#SVGID_00000067224750842367027200000017433708653370892943_);}
	.st216{fill:#12100F;}
	.st217{clip-path:url(#SVGID_00000135677089226787116450000002525352764672929162_);}
	.st218{clip-path:url(#SVGID_00000017518432533202497370000003443825758883249341_);}
	.st219{fill:none;stroke:#000000;stroke-width:0.5;stroke-miterlimit:10;}
	.st220{clip-path:url(#SVGID_00000020356839007240324090000000505247910103091090_);}
	.st221{clip-path:url(#SVGID_00000037652328150365318190000005028981210343318421_);}
	.st222{clip-path:url(#SVGID_00000111873154016566120070000017001815496154742187_);}
	.st223{clip-path:url(#SVGID_00000105422838593578707500000013738714972108830875_);}
	.st224{fill:none;stroke:#000000;stroke-width:0.25;stroke-miterlimit:10;}
	.st225{clip-path:url(#SVGID_00000118388617035136812920000014961995287883001216_);}
	.st226{clip-path:url(#SVGID_00000078723030566740053950000011861046082145155725_);}
	.st227{clip-path:url(#SVGID_00000179647993931103746340000005340304299942884748_);}
</style>
<g>
	<g>
		<defs>
			<rect id="SVGID_00000107577760564257472270000011281637368989702075_" x="16.45" y="12.17" width="14.44" height="18.36"/>
		</defs>
		<clipPath id="SVGID_00000087408325562074186980000002805896105282019770_">
			<use xlink:href="#SVGID_00000107577760564257472270000011281637368989702075_"  style="overflow:visible;"/>
		</clipPath>
		<g style="clip-path:url(#SVGID_00000087408325562074186980000002805896105282019770_);">
			<path d="M23.43,29.67c-0.16,0-0.31-0.1-0.39-0.24l-6.15-12.46c-0.08-0.15-0.06-0.33,0.05-0.47l3.4-4.18
				c0.08-0.1,0.2-0.16,0.33-0.16h5.51c0.13,0,0.26,0.06,0.33,0.16l3.4,4.18c0.11,0.13,0.13,0.31,0.06,0.47l-6.15,12.45
				C23.75,29.57,23.59,29.67,23.43,29.67z M17.8,16.84l5.63,11.41l5.64-11.41l-3.09-3.81h-5.09L17.8,16.84z"/>
		</g>
	</g>
	<path d="M23.43,29.67c-0.19,0-0.37-0.13-0.42-0.32L19,14.25c-0.03-0.13-0.01-0.27,0.08-0.38c0.08-0.11,0.2-0.16,0.35-0.17
		l8.02,0.02c0.13,0,0.26,0.06,0.35,0.17c0.09,0.11,0.11,0.25,0.08,0.38l-4.02,15.08C23.8,29.54,23.63,29.67,23.43,29.67z
		 M19.99,14.57l3.44,12.98l3.45-12.96L19.99,14.57z"/>
	<path d="M29.57,24.98h-2.36c-0.24,0-0.44-0.19-0.44-0.43s0.2-0.43,0.44-0.43h2.36c0.24,0,0.44,0.19,0.44,0.43
		S29.82,24.98,29.57,24.98z"/>
	<g>
		<defs>
			<rect id="SVGID_00000181047473227829241170000005969518782183209905_" x="8.9" y="13.38" width="15.68" height="30.6"/>
		</defs>
		<clipPath id="SVGID_00000067232406929794862900000007362781518926938534_">
			<use xlink:href="#SVGID_00000181047473227829241170000005969518782183209905_"  style="overflow:visible;"/>
		</clipPath>
		<g style="clip-path:url(#SVGID_00000067232406929794862900000007362781518926938534_);">
			<path d="M19.74,43.98c-0.14,0-0.28-0.01-0.42-0.03l-4.57-0.72c-0.12-0.02-0.22-0.09-0.3-0.18c-0.06-0.1-0.08-0.22-0.06-0.33
				c0.02-0.08,1.7-7.88,1.7-10.88c0-1.25-0.24-3.8-0.44-5.8c-0.22,1.08-0.38,1.92-0.48,2.51c-0.54,3.25-1.61,13.18-1.62,13.28
				c-0.01,0.12-0.07,0.24-0.17,0.3c-0.1,0.07-0.23,0.1-0.35,0.07L9.31,41.4c-0.22-0.04-0.36-0.25-0.34-0.47
				c0.01-0.1,1.09-10.07,1.63-13.35c0.35-2.09,1.23-5.93,1.86-8.72c0.15-0.67,0.29-1.28,0.4-1.79c0.17-0.77,1.08-1.65,1.76-1.75
				l4.64-1.6c0.19-0.07,0.39,0,0.5,0.16c0.11,0.16,0.11,0.36-0.01,0.51l-1.97,2.44l6.03,12.21c0.02,0.03,0.03,0.07,0.03,0.11
				c0.21,1.13,0.29,2,0.29,2.27c0,1.93-0.61,6.03-1.12,9.13C22.69,42.59,21.32,43.98,19.74,43.98z M15.35,42.45l4.11,0.65
				c1.26,0.19,2.43-0.95,2.71-2.68c0.5-3.07,1.11-7.11,1.11-8.99c0-0.19-0.07-0.98-0.26-2.06L16.9,16.98
				c-0.08-0.15-0.06-0.33,0.05-0.47l1.2-1.47l-3.26,1.12c-0.03,0.01-0.08,0.02-0.12,0.02c-0.23,0.01-0.92,0.6-1.03,1.08
				c-0.12,0.51-0.25,1.12-0.4,1.79c-0.65,2.79-1.51,6.61-1.85,8.68c-0.48,2.89-1.38,11.05-1.58,12.92l2.85,0.61
				c0.22-2.04,1.1-9.99,1.58-12.86c0.18-1.02,0.53-2.79,1.05-5.23c0.04-0.2,0.23-0.35,0.44-0.35c0.22,0.01,0.39,0.17,0.41,0.38
				c0.04,0.26,0.75,6.37,0.75,8.61C16.96,34.54,15.71,40.72,15.35,42.45z"/>
		</g>
	</g>
	<g>
		<defs>
			<rect id="SVGID_00000038393027746025565340000013923946147766739863_" x="22.77" y="13.38" width="15.24" height="30.6"/>
		</defs>
		<clipPath id="SVGID_00000119117708113446539520000001347312842199409581_">
			<use xlink:href="#SVGID_00000038393027746025565340000013923946147766739863_"  style="overflow:visible;"/>
		</clipPath>
		<g style="clip-path:url(#SVGID_00000119117708113446539520000001347312842199409581_);">
			<path d="M27.31,43.98c-1.58,0-2.95-1.4-3.28-3.43c-0.29-1.81-0.7-4.42-0.92-6.51c0-0.03,0-0.06,0-0.1
				c0.12-1.09,0.18-1.94,0.18-2.52c0-0.18-0.08-1.05-0.27-2.11c-0.02-0.08,0-0.18,0.03-0.27l6.03-12.21l-1.96-2.42
				c-0.12-0.15-0.13-0.37-0.01-0.53c0.12-0.16,0.33-0.22,0.51-0.15l4.78,1.83c0.04,0.01,0.07,0.04,0.11,0.07
				c0.19,0.15,1.15,0.93,1.3,1.64c0.22,0.99,0.57,2.34,0.94,3.76c0.6,2.31,1.27,4.91,1.55,6.53c0.54,3.29,1.62,13.25,1.63,13.35
				c0.02,0.22-0.12,0.42-0.33,0.47l-3.71,0.81c-0.12,0.02-0.25,0-0.35-0.07c-0.1-0.08-0.17-0.18-0.18-0.3
				c-0.01-0.1-1.08-10.02-1.62-13.28c-0.08-0.48-0.2-1.12-0.36-1.92c-0.2,2.07-0.41,4.5-0.41,5.19c0,3,1.67,10.79,1.7,10.88
				c0.02,0.12,0,0.24-0.07,0.33c-0.06,0.1-0.17,0.16-0.29,0.18l-4.57,0.72C27.59,43.97,27.45,43.98,27.31,43.98z M23.96,34
				c0.23,2.06,0.62,4.62,0.92,6.41c0.28,1.72,1.45,2.88,2.71,2.68l4.11-0.65c-0.36-1.72-1.62-7.91-1.62-10.61
				c0-1.1,0.48-6,0.69-8.06l0.01-0.08c0.02-0.22,0.2-0.38,0.41-0.39c0.22-0.01,0.4,0.13,0.45,0.35c0.47,2.2,0.78,3.8,0.94,4.76
				c0.48,2.87,1.35,10.82,1.58,12.86l2.85-0.61c-0.21-1.87-1.1-10.02-1.58-12.92c-0.26-1.59-0.94-4.17-1.53-6.46
				c-0.37-1.43-0.73-2.79-0.95-3.79c-0.06-0.29-0.59-0.82-0.94-1.11l-3.2-1.23l1.11,1.37c0.11,0.13,0.13,0.31,0.06,0.46l-6.08,12.33
				c0.18,1.04,0.26,1.9,0.26,2.13C24.14,32.04,24.08,32.9,23.96,34z"/>
		</g>
	</g>
</g>
</svg>
