<?xml version="1.0" encoding="utf-8"?>
<!-- Generator: Adobe Illustrator 27.3.1, SVG Export Plug-In . SVG Version: 6.00 Build 0)  -->
<svg version="1.1" id="Layer_1" xmlns="http://www.w3.org/2000/svg" xmlns:xlink="http://www.w3.org/1999/xlink" x="0px" y="0px"
	 viewBox="0 0 50 50" style="enable-background:new 0 0 50 50;" xml:space="preserve">
<style type="text/css">
	.st0{fill:none;}
	.st1{stroke:#000000;stroke-miterlimit:10;}
	.st2{stroke:#000000;stroke-width:0.75;stroke-miterlimit:10;}
	.st3{clip-path:url(#SVGID_00000173863442128212329320000010484772278322198692_);}
	.st4{clip-path:url(#SVGID_00000078761104742935994570000012052312909263651469_);}
	.st5{fill:#FFFFFF;}
	.st6{clip-path:url(#SVGID_00000034076864925121522250000017445739688131789496_);}
	.st7{fill:#231F20;}
	.st8{clip-path:url(#SVGID_00000067951686231029397120000017802465858712494995_);}
	.st9{clip-path:url(#SVGID_00000011021259547133283360000012592988071100684162_);}
	.st10{clip-path:url(#SVGID_00000026165802038810499970000000142017085835202991_);}
	.st11{clip-path:url(#SVGID_00000166646141826493370740000011245667555101879962_);}
	.st12{clip-path:url(#SVGID_00000162340189166341483270000011883534933143032485_);}
	.st13{clip-path:url(#SVGID_00000116195176617172827880000006191458846845244058_);}
	.st14{clip-path:url(#SVGID_00000054232972911726353770000015913202764190190519_);}
	.st15{clip-path:url(#SVGID_00000181084892881332294310000014950164191069220235_);}
	.st16{clip-path:url(#SVGID_00000090999150865305515900000015082405883197889717_);}
	.st17{clip-path:url(#SVGID_00000057849299070890735270000000661977937274589363_);}
	.st18{clip-path:url(#SVGID_00000080900186346753459470000003545890673621320327_);}
	.st19{clip-path:url(#SVGID_00000119090876325826456740000011332084250443984282_);}
	.st20{clip-path:url(#SVGID_00000040548806418096427830000006947984345530337668_);}
	.st21{clip-path:url(#SVGID_00000074418395685771129420000010364313860171746985_);}
	.st22{clip-path:url(#SVGID_00000147192877153058472370000008627613530835638449_);}
	.st23{clip-path:url(#SVGID_00000056424394298266725570000015875860960165582495_);}
	.st24{clip-path:url(#SVGID_00000057145330948055254960000000322949673252213399_);}
	.st25{clip-path:url(#SVGID_00000057865973758809703480000009700225442632806273_);}
	.st26{clip-path:url(#SVGID_00000051365759981185996780000010632439318009824921_);}
	.st27{clip-path:url(#SVGID_00000176732342896772650010000012970830430486255767_);}
	.st28{clip-path:url(#SVGID_00000109025670510956761260000011219779543280499853_);}
	.st29{clip-path:url(#SVGID_00000117667878346495197960000005049365306107295921_);}
	.st30{clip-path:url(#SVGID_00000070114990305712852380000002099522100019414198_);}
	.st31{fill-rule:evenodd;clip-rule:evenodd;}
	.st32{clip-path:url(#SVGID_00000036246147588042017100000006938138084512405438_);}
	.st33{clip-path:url(#SVGID_00000139274025957897466650000007039375158904367505_);}
	.st34{stroke:#000000;stroke-width:0.5;stroke-miterlimit:10;}
	.st35{clip-path:url(#SVGID_00000139973669597499169330000002600633986936990110_);}
	.st36{clip-path:url(#SVGID_00000019645655208593116150000001830059450108866986_);}
	.st37{clip-path:url(#SVGID_00000012460405259429579080000002188523100801283761_);}
	.st38{fill:#1A1A1A;}
	.st39{clip-path:url(#SVGID_00000005980810189786116220000006443746427867618448_);}
	.st40{clip-path:url(#SVGID_00000017485217542961340220000008895372418904730541_);}
	.st41{clip-path:url(#SVGID_00000116233980455069447590000005464777396847544706_);}
	.st42{clip-path:url(#SVGID_00000074428560724337830180000006538937001039981730_);}
	.st43{clip-path:url(#SVGID_00000046323616544751853840000008317010630639599492_);}
	.st44{clip-path:url(#SVGID_00000072266875155932782310000002385809126762934419_);}
	.st45{clip-path:url(#SVGID_00000041276598382855172740000018280142716053713044_);}
	.st46{clip-path:url(#SVGID_00000027581130941228092100000012425922386736852923_);}
	.st47{clip-path:url(#SVGID_00000079486649656958640770000016719792465510669244_);}
	.st48{fill:#F1F1F1;}
	.st49{fill:#E8E8E8;}
	.st50{fill:#FEFEFE;}
	.st51{fill:#CCCCCC;}
	.st52{fill:#B3B3B3;}
	.st53{fill:#E6E6E6;}
	.st54{fill:#EBEBEB;}
	.st55{fill:#EEEEEE;}
	.st56{fill:#F8F8F8;}
	.st57{fill:#FBFBFB;}
	.st58{fill:#383838;}
	.st59{fill:#232323;}
	.st60{fill:#F6F6F6;}
	.st61{fill:#535353;}
	.st62{fill:#0A0A0A;}
	.st63{fill:#F5F5F5;}
	.st64{fill:#818181;}
	.st65{fill:#4A4A4A;}
	.st66{fill:#999999;}
	.st67{fill:url(#SVGID_00000125570936791342250320000004994833710040761500_);}
	.st68{fill:url(#SVGID_00000038415646356305497230000013414039979240395448_);}
	.st69{fill:#0E0E0D;}
	.st70{fill:#333333;}
	.st71{fill:#808080;}
	.st72{fill:url(#SVGID_00000163065454726861723120000017705928656497663670_);}
	.st73{fill:#666666;}
	.st74{fill:url(#SVGID_00000138534060388647171070000010598531811166638764_);}
	.st75{fill:url(#SVGID_00000037683424170667655640000006129746227794753706_);}
	.st76{fill:url(#SVGID_00000135669334034112946730000001120270279712483737_);}
	.st77{fill:url(#SVGID_00000108297449278950912830000013790683582329883539_);}
	.st78{fill:url(#SVGID_00000085212707893397962010000005109233437123820193_);}
	.st79{clip-path:url(#SVGID_00000101087755177147471220000003938137750426680223_);}
	.st80{clip-path:url(#SVGID_00000178181897001408556390000014584517090581527226_);}
	.st81{clip-path:url(#SVGID_00000113313473415921511580000003611095350796941962_);}
	.st82{clip-path:url(#SVGID_00000127737248063014686860000009047145760479859612_);}
	.st83{clip-path:url(#SVGID_00000117660698000074855290000006782820955149440926_);}
	.st84{fill:#241F20;stroke:#000000;stroke-width:0.5;stroke-miterlimit:10;}
	.st85{clip-path:url(#SVGID_00000013887184496583476120000012236499280890106782_);}
	.st86{clip-path:url(#SVGID_00000168812393274514733460000015304274079995415188_);}
	.st87{clip-path:url(#SVGID_00000113343674937485522290000009330832276179786411_);}
	.st88{clip-path:url(#SVGID_00000183952172813046771850000016786032658254625974_);}
	.st89{clip-path:url(#SVGID_00000075875760256108143950000011884541575176601231_);}
	.st90{clip-path:url(#SVGID_00000096032597669400907540000005865637047253515908_);}
	.st91{clip-path:url(#SVGID_00000059295943445323404330000016899151070703943844_);}
	.st92{clip-path:url(#SVGID_00000145755637657156478000000016024443087223947178_);}
	.st93{clip-path:url(#SVGID_00000032642771286543273700000011264684757171676847_);}
	.st94{clip-path:url(#SVGID_00000177459934959061668500000015865957429587180423_);}
	.st95{clip-path:url(#SVGID_00000096752310115146629240000000888237101686878094_);}
	.st96{clip-path:url(#SVGID_00000108279278852463608530000004659980932343487117_);}
	.st97{clip-path:url(#SVGID_00000176034987183955687940000014042858286457092780_);}
	.st98{clip-path:url(#SVGID_00000013156983608817460490000002581791618208229528_);}
	.st99{clip-path:url(#SVGID_00000052085639202273776070000002238091243636884895_);}
	.st100{clip-path:url(#SVGID_00000029724688163046081250000003764303351110703027_);}
	.st101{clip-path:url(#SVGID_00000025419196815164346130000004114303692999324070_);}
	.st102{clip-path:url(#SVGID_00000016045447920977568230000000824435523861130668_);}
	.st103{clip-path:url(#SVGID_00000079461033798317210250000005871855192548184252_);}
	.st104{clip-path:url(#SVGID_00000165223264713049460670000009743608212344414614_);}
	.st105{clip-path:url(#SVGID_00000134972203341583883790000014214965617698286215_);}
	.st106{clip-path:url(#SVGID_00000035490782205714224240000011129689676293882767_);}
	.st107{clip-path:url(#SVGID_00000119109310220781276630000003262026265957909929_);}
	.st108{clip-path:url(#SVGID_00000067928113155277151680000012833787316839418549_);}
	.st109{clip-path:url(#SVGID_00000016790130355149571550000012890767990014938797_);}
	.st110{clip-path:url(#SVGID_00000081617184038412780640000007729214890564214950_);}
	.st111{clip-path:url(#SVGID_00000093160687653409050380000016209212288918889150_);}
	.st112{clip-path:url(#SVGID_00000049942397436728780620000003311449480388441781_);}
	.st113{clip-path:url(#SVGID_00000146470197975558519770000010531338478087940534_);}
	.st114{clip-path:url(#SVGID_00000181073356212147776420000015060712655362519706_);}
	.st115{fill:#FFFFFF;stroke:#000000;stroke-miterlimit:10;}
	.st116{clip-path:url(#SVGID_00000062179585134474627680000013302675138864634551_);}
	.st117{clip-path:url(#SVGID_00000127725707902498109180000012077945988222972814_);}
	.st118{fill:none;stroke:#010101;stroke-miterlimit:10;}
	.st119{fill:#010101;stroke:#000000;stroke-miterlimit:10;}
	.st120{clip-path:url(#SVGID_00000022542738735376799260000017570013082465742783_);}
	.st121{fill:#010101;stroke:#010101;stroke-miterlimit:10;}
	.st122{clip-path:url(#SVGID_00000100371487746422742460000017597981524315014572_);}
	.st123{clip-path:url(#SVGID_00000084501681582890489040000005482681309230435770_);}
	.st124{clip-path:url(#SVGID_00000036937891098966492540000014202818816947362945_);}
	.st125{clip-path:url(#SVGID_00000147914231998127292980000002229138784168238265_);}
	.st126{clip-path:url(#SVGID_00000176004726989429067700000000469093178589435570_);}
	.st127{fill:none;stroke:#000000;stroke-width:3;stroke-miterlimit:10;}
	.st128{clip-path:url(#SVGID_00000027570900084480154380000015671048473450544259_);}
	.st129{clip-path:url(#SVGID_00000021803483609715121830000018395661089111235253_);}
	.st130{clip-path:url(#SVGID_00000161590900671652832600000003389087402063293827_);}
	.st131{clip-path:url(#SVGID_00000024724040268085550930000011587198289252011444_);}
	.st132{fill:#040606;}
	.st133{clip-path:url(#SVGID_00000017516442680882240340000013688350930045188269_);}
	.st134{clip-path:url(#SVGID_00000072982370467305776080000012141885062720665743_);}
	.st135{clip-path:url(#SVGID_00000083771975345636941690000002154089750101434286_);}
	.st136{clip-path:url(#SVGID_00000148634795076557514980000005882688886748380857_);}
	.st137{clip-path:url(#SVGID_00000138533143761368717540000013430905638943888799_);}
	.st138{clip-path:url(#SVGID_00000077312088236939195310000004289806696506993802_);}
	.st139{clip-path:url(#SVGID_00000109740179221321469380000006577960470714552756_);}
	.st140{fill:#FFFFFF;stroke:#000000;stroke-width:1.5;stroke-miterlimit:10;}
	.st141{clip-path:url(#SVGID_00000049221132198072982980000011699404585063106746_);}
	.st142{fill:#BDBCBC;}
	.st143{clip-path:url(#SVGID_00000171708828599923428890000001213614023722443140_);}
	.st144{fill:#2E2A2B;}
	.st145{clip-path:url(#SVGID_00000126286414357228449960000013089812735586563508_);}
	.st146{clip-path:url(#SVGID_00000038396222397365031710000005427968801171271852_);}
	.st147{clip-path:url(#SVGID_00000021110052531494727810000004320476925310732192_);}
	.st148{clip-path:url(#SVGID_00000144297914699184423570000001615187831389091734_);}
	.st149{clip-path:url(#SVGID_00000140735442155147292670000004390467225762873788_);}
	.st150{fill:#272324;}
	.st151{clip-path:url(#SVGID_00000020381685300039921110000007653872922711548834_);}
	.st152{clip-path:url(#SVGID_00000111193377634852504420000012585173819025018758_);}
	.st153{clip-path:url(#SVGID_00000055700457343559130150000013493036799784552601_);}
	.st154{clip-path:url(#SVGID_00000044884353000064902670000014445968313327856797_);}
	.st155{clip-path:url(#SVGID_00000078039958137354308310000003130147758115958182_);}
	.st156{clip-path:url(#SVGID_00000026149020805794670830000012350413258405117841_);}
	.st157{fill:none;stroke:#000000;stroke-width:0.8735;stroke-linecap:round;stroke-linejoin:round;stroke-miterlimit:10;}
	.st158{clip-path:url(#SVGID_00000003098536379243776150000002841513154848606616_);}
	.st159{clip-path:url(#SVGID_00000059283986978881050230000006055110304350777494_);}
	.st160{clip-path:url(#SVGID_00000151540130598602357490000015432117328335814816_);}
	.st161{clip-path:url(#SVGID_00000069360240533806473650000004145670337079990189_);}
	.st162{clip-path:url(#SVGID_00000129197147220550396640000006230962194395820466_);}
	.st163{clip-path:url(#SVGID_00000040570603330965736130000005221907962781859767_);}
	.st164{clip-path:url(#SVGID_00000040537653066654200070000002954924138403399847_);}
	.st165{clip-path:url(#SVGID_00000113319984000778069170000000851409640378591372_);}
	.st166{clip-path:url(#SVGID_00000115501665366364434200000018348404684890674062_);}
	.st167{clip-path:url(#SVGID_00000149382089787605503090000008261813075853713542_);}
	.st168{clip-path:url(#SVGID_00000099632609086723270800000009099977007374237362_);}
	.st169{clip-path:url(#SVGID_00000034772594590390397170000000523946130532119200_);}
	.st170{clip-path:url(#SVGID_00000018942518541828569070000002416799031238335659_);}
	.st171{clip-path:url(#SVGID_00000013902425587869864080000010150138921116607162_);}
	.st172{clip-path:url(#SVGID_00000093889780668975026820000001099230256983528359_);}
	.st173{clip-path:url(#SVGID_00000183945684431322476160000016202737659921023134_);}
	.st174{clip-path:url(#SVGID_00000075149328111520846190000004253261851836931771_);}
	.st175{clip-path:url(#SVGID_00000132777229721560074360000008193384947362850740_);}
	.st176{clip-path:url(#SVGID_00000127726556359417766300000009085482669629106623_);}
	.st177{clip-path:url(#SVGID_00000095311729329374650070000005167192565154184381_);}
	.st178{clip-path:url(#SVGID_00000119804243510314924440000005958606244461499790_);}
	.st179{clip-path:url(#SVGID_00000010284371766194262360000004141818301214915999_);}
	.st180{clip-path:url(#SVGID_00000065778132645776344460000016854366520396326841_);}
	.st181{clip-path:url(#SVGID_00000068645527098267648980000011710978722425501828_);}
	.st182{clip-path:url(#SVGID_00000023998808461810625220000016240871459897834404_);}
	.st183{clip-path:url(#SVGID_00000077294465656851066480000014189189156000400304_);}
	.st184{clip-path:url(#SVGID_00000018222440986762014370000013567846828429380255_);}
	.st185{clip-path:url(#SVGID_00000049902651770698568450000001154664292628345508_);}
	.st186{clip-path:url(#SVGID_00000065784428721125346780000001768891413406937256_);}
	.st187{clip-path:url(#SVGID_00000136379038023445274280000017372836946225931936_);}
	.st188{clip-path:url(#SVGID_00000160165357721573347490000008582444892441004442_);}
	.st189{clip-path:url(#SVGID_00000109750199416947847660000006769054185879786430_);}
	.st190{clip-path:url(#SVGID_00000008134901069585989280000013244133394506566844_);}
	.st191{clip-path:url(#SVGID_00000142857615198489527730000004859932203952437425_);}
	.st192{clip-path:url(#SVGID_00000041991092773806532290000011621477054056220855_);}
	.st193{clip-path:url(#SVGID_00000138559988223225489900000010641463017910722980_);}
	.st194{clip-path:url(#SVGID_00000037660462012493724600000009667352862913834668_);}
	.st195{clip-path:url(#SVGID_00000068647094921911880690000014090121069874891655_);}
	.st196{fill:#E5E5E5;}
	.st197{fill:#1D1D1B;}
	.st198{fill:none;stroke:#000000;stroke-miterlimit:10;}
	.st199{fill:#FEFEFE;stroke:#000000;stroke-miterlimit:10;}
	.st200{clip-path:url(#SVGID_00000021094747389017370410000013423323811049775274_);}
	.st201{clip-path:url(#SVGID_00000075128010958022717110000014826868684300842631_);}
	.st202{clip-path:url(#SVGID_00000165215353015939634930000011130973433801612970_);}
	.st203{fill:#231F1F;}
	.st204{fill:#020000;}
	.st205{clip-path:url(#SVGID_00000038399655959577820640000010135217596003766197_);}
	.st206{clip-path:url(#SVGID_00000160179941528516483400000003905002366593796013_);}
	.st207{clip-path:url(#SVGID_00000025442793748162790250000015358580497803306677_);}
	.st208{clip-path:url(#SVGID_00000091704008163335521410000009108108271175034788_);}
	.st209{fill:#050000;}
	.st210{clip-path:url(#SVGID_00000113325467178241793430000013711007829938958476_);}
	.st211{clip-path:url(#SVGID_00000067199819457559934150000002563509501024283798_);}
	.st212{clip-path:url(#SVGID_00000140700820221992233360000001890179461739074453_);}
	.st213{clip-path:url(#SVGID_00000043434232288951550430000007743666258369532591_);}
	.st214{clip-path:url(#SVGID_00000134959916748088034590000003846058002375621035_);}
	.st215{clip-path:url(#SVGID_00000171681868456696716250000016296591564646157994_);}
	.st216{fill:#12100F;}
	.st217{clip-path:url(#SVGID_00000182523927325128256350000016569820632604115873_);}
	.st218{clip-path:url(#SVGID_00000171691461889190272040000015821997116437649336_);}
	.st219{fill:none;stroke:#000000;stroke-width:0.5;stroke-miterlimit:10;}
	.st220{clip-path:url(#SVGID_00000122684051565772882240000010758885125174667197_);}
	.st221{clip-path:url(#SVGID_00000003104093866216701400000013017641813043910071_);}
	.st222{clip-path:url(#SVGID_00000035505718805348791060000008288444305276596670_);}
	.st223{clip-path:url(#SVGID_00000050641793092133958880000000598660678238722179_);}
	.st224{fill:none;stroke:#000000;stroke-width:0.25;stroke-miterlimit:10;}
	.st225{clip-path:url(#SVGID_00000161611023308526800570000013370227087326784429_);}
	.st226{clip-path:url(#SVGID_00000174600096709460602310000003590325824917091752_);}
	.st227{clip-path:url(#SVGID_00000183928888324072167370000018272909050321486991_);}
</style>
<g>
	<path d="M23.21,22.42c0.51,0,0.94-0.42,0.94-0.93s-0.42-0.93-0.94-0.93c-0.51,0-0.93,0.42-0.93,0.93S22.69,22.42,23.21,22.42z
		 M23.21,21.18c0.17,0,0.31,0.14,0.31,0.31s-0.14,0.31-0.31,0.31c-0.17,0-0.31-0.14-0.31-0.31S23.03,21.18,23.21,21.18z"/>
	<path d="M23.21,24.91c0.51,0,0.94-0.42,0.94-0.93c0-0.51-0.42-0.93-0.94-0.93c-0.51,0-0.93,0.42-0.93,0.93
		C22.27,24.49,22.69,24.91,23.21,24.91z M23.21,23.66c0.17,0,0.31,0.14,0.31,0.31s-0.14,0.31-0.31,0.31c-0.17,0-0.31-0.14-0.31-0.31
		S23.03,23.66,23.21,23.66z"/>
	<path d="M24.14,26.46c0-0.51-0.42-0.93-0.94-0.93c-0.51,0-0.93,0.42-0.93,0.93c0,0.51,0.42,0.93,0.93,0.93
		C23.72,27.39,24.14,26.97,24.14,26.46z M22.89,26.46c0-0.17,0.14-0.31,0.31-0.31c0.17,0,0.31,0.14,0.31,0.31s-0.14,0.31-0.31,0.31
		C23.03,26.77,22.89,26.63,22.89,26.46z"/>
	<path d="M29.44,18.07h-0.12l-0.85-1.69c-0.05-0.11-0.16-0.17-0.28-0.17c-0.12,0-0.23,0.07-0.28,0.17l-0.85,1.69h-0.12
		c-0.17,0-0.31,0.14-0.31,0.31s0.14,0.31,0.31,0.31h2.49c0.17,0,0.31-0.14,0.31-0.31S29.61,18.07,29.44,18.07z M28.19,17.21
		l0.43,0.86h-0.86L28.19,17.21z"/>
	<g>
		<defs>
			<rect id="SVGID_00000108267681384192547810000014939766492306794152_" x="12.6" y="11.16" width="24.93" height="36.74"/>
		</defs>
		<clipPath id="SVGID_00000079480526565025057900000009101398814451499432_">
			<use xlink:href="#SVGID_00000108267681384192547810000014939766492306794152_"  style="overflow:visible;"/>
		</clipPath>
		<g style="clip-path:url(#SVGID_00000079480526565025057900000009101398814451499432_);">
			<path d="M37.48,25.28l-0.49-0.8l0.27-0.16c0.07-0.04,0.12-0.11,0.14-0.19c0.02-0.08,0.01-0.16-0.04-0.23l-6.39-10.6
				c-0.04-0.09-0.12-0.15-0.21-0.18l-2.32-0.58l-0.02-0.68c-0.01-0.13-0.09-0.25-0.22-0.29l-1.19-0.37
				c-0.08-0.02-0.16-0.01-0.23,0.02c-0.07,0.04-0.13,0.1-0.16,0.19l-0.12,0.4h-2.82l-0.13-0.4c-0.02-0.08-0.08-0.15-0.15-0.19
				c-0.07-0.04-0.16-0.04-0.24-0.02l-1.2,0.37c-0.12,0.04-0.22,0.16-0.22,0.29l-0.02,0.68c0,0-2.35,0.59-2.37,0.6
				c-0.06,0.02-0.11,0.07-0.15,0.12l-6.42,10.63c-0.04,0.07-0.05,0.16-0.04,0.23c0.02,0.08,0.07,0.15,0.14,0.19l0.26,0.16l-0.48,0.8
				c-0.04,0.07-0.05,0.15-0.04,0.23c0.02,0.08,0.07,0.15,0.14,0.19l1.6,0.96c0.05,0.03,0.11,0.05,0.16,0.05
				c0.11,0,0.21-0.05,0.26-0.15l0.49-0.8l0.26,0.16c0.05,0.03,0.1,0.04,0.16,0.04c0.02,0,0.05,0,0.08-0.01
				c0.08-0.02,0.15-0.07,0.19-0.14l2.87-4.76l-0.32,7.85c-0.01,0.13,0.07,0.25,0.19,0.29l1.06,0.45v17.89
				c0,0.17,0.14,0.31,0.31,0.31h4.36c0.17,0,0.31-0.14,0.31-0.31V33.05c0-0.04,0.03-0.07,0.07-0.07h0.49c0.04,0,0.07,0.03,0.07,0.07
				v14.52c0,0.17,0.14,0.31,0.31,0.31h4.36c0.17,0,0.31-0.14,0.31-0.31V29.68l1.06-0.45c0.12-0.05,0.19-0.17,0.19-0.29l-0.31-7.85
				l2.86,4.74c0.06,0.09,0.16,0.15,0.27,0.15c0.05,0,0.11-0.02,0.16-0.05l0.26-0.16l0.48,0.8c0.06,0.09,0.16,0.15,0.27,0.15
				c0.05,0,0.11-0.01,0.16-0.04l1.6-0.96c0.07-0.04,0.13-0.11,0.14-0.19C37.54,25.44,37.52,25.35,37.48,25.28z M27.12,11.9
				l0.69,0.21l0.07,1.86l-1.44,0.15L27.12,11.9z M25.08,17.02l-0.82-3.29h1.64L25.08,17.02z M24.48,17.19l-1.42-1.68l0.9-0.54
				L24.48,17.19z M26.2,14.96l0.9,0.54l-1.41,1.68L26.2,14.96z M26.29,12.44l-0.21,0.67h-2.02l-0.2-0.67H26.29z M22.36,12.11
				l0.68-0.21l0.69,2.22l-1.44-0.15L22.36,12.11z M14.43,25.98l-1.07-0.64l0.32-0.54l1.07,0.64L14.43,25.98z M15.6,25.23l-2.13-1.28
				l5.64-9.34l-0.21,5.16L15.6,25.23z M19.77,13.66l1.92-0.48l-0.04,1.06c-0.01,0.16,0.12,0.3,0.28,0.32l1.28,0.14l-0.79,0.48
				c-0.08,0.04-0.13,0.12-0.15,0.22c-0.02,0.1,0.01,0.18,0.07,0.25l2.42,2.86v10.31l-1.63,1.62l-3.97-1.69L19.77,13.66z
				 M29.75,47.26h-3.74V33.05c0-0.38-0.31-0.69-0.69-0.69h-0.49c-0.38,0-0.69,0.31-0.69,0.69v14.21H20.4V29.94l2.68,1.15
				c0.12,0.05,0.25,0.02,0.34-0.06l1.65-1.64l1.65,1.64c0.06,0.06,0.14,0.1,0.22,0.1c0.04,0,0.09-0.01,0.13-0.02l2.68-1.15V47.26z
				 M27.02,30.43l-1.63-1.62V18.49l2.42-2.86c0.06-0.07,0.09-0.16,0.07-0.25c-0.02-0.09-0.07-0.17-0.15-0.22l-0.79-0.48l1.28-0.13
				c0.16-0.01,0.29-0.15,0.28-0.32l-0.04-1.05l1.92,0.48l0.6,15.08L27.02,30.43z M34.54,25.23l-3.28-5.45l-0.21-5.16l5.63,9.33
				L34.54,25.23z M35.72,25.98l-0.32-0.53l1.07-0.65l0.32,0.54L35.72,25.98z"/>
		</g>
	</g>
</g>
</svg>
