<?xml version="1.0" encoding="utf-8"?>
<!-- Generator: Adobe Illustrator 27.3.1, SVG Export Plug-In . SVG Version: 6.00 Build 0)  -->
<svg version="1.1" id="Layer_1" xmlns="http://www.w3.org/2000/svg" xmlns:xlink="http://www.w3.org/1999/xlink" x="0px" y="0px"
	 viewBox="0 0 50 50" style="enable-background:new 0 0 50 50;" xml:space="preserve">
<style type="text/css">
	.st0{fill:none;}
	.st1{stroke:#000000;stroke-miterlimit:10;}
	.st2{stroke:#000000;stroke-width:0.75;stroke-miterlimit:10;}
	.st3{clip-path:url(#SVGID_00000153687639976590306900000008486668315115281799_);}
	.st4{clip-path:url(#SVGID_00000170960713692374541990000012098846012551701893_);}
	.st5{fill:#FFFFFF;}
	.st6{clip-path:url(#SVGID_00000131362144774805383530000017298631515413642671_);}
	.st7{fill:#231F20;}
	.st8{clip-path:url(#SVGID_00000003813049415552668500000015099653015908075168_);}
	.st9{clip-path:url(#SVGID_00000056390971392840302990000015518592159912032902_);}
	.st10{clip-path:url(#SVGID_00000162330016177497794130000001913059440387849395_);}
	.st11{clip-path:url(#SVGID_00000121253615535269417690000015794863886715544478_);}
	.st12{clip-path:url(#SVGID_00000023271367116831169370000008969718743726431155_);}
	.st13{clip-path:url(#SVGID_00000023969767558113608480000006873979836441375377_);}
	.st14{clip-path:url(#SVGID_00000148637034155772563130000012015795793331007113_);}
	.st15{clip-path:url(#SVGID_00000174604259469556610910000001217108237085175445_);}
	.st16{clip-path:url(#SVGID_00000005241163498274103930000002197560683374495902_);}
	.st17{clip-path:url(#SVGID_00000052086498983225964810000000680102895927586972_);}
	.st18{clip-path:url(#SVGID_00000165940661782925063140000004501963703345509282_);}
	.st19{clip-path:url(#SVGID_00000111156661673709067490000008350355866420297389_);}
	.st20{clip-path:url(#SVGID_00000108301912694241989340000017067839413029020340_);}
	.st21{clip-path:url(#SVGID_00000144335478098670474810000007028620972058279057_);}
	.st22{clip-path:url(#SVGID_00000062873392302026499420000016822284255147521951_);}
	.st23{clip-path:url(#SVGID_00000183938878921847786720000007118380552581936266_);}
	.st24{clip-path:url(#SVGID_00000116950247882280517220000014960029218044177836_);}
	.st25{clip-path:url(#SVGID_00000160161897186364072840000000440055173590673342_);}
	.st26{clip-path:url(#SVGID_00000076594551557925566080000013702011808053288836_);}
	.st27{clip-path:url(#SVGID_00000011030404980251403080000017844989388009294474_);}
	.st28{clip-path:url(#SVGID_00000018199774422611709610000003912680736294161795_);}
	.st29{clip-path:url(#SVGID_00000093156715599260972580000014083589785906055820_);}
	.st30{clip-path:url(#SVGID_00000039842795677086445140000017530913936484521915_);}
	.st31{fill-rule:evenodd;clip-rule:evenodd;}
	.st32{clip-path:url(#SVGID_00000093140244996787693820000006136006043770174903_);}
	.st33{clip-path:url(#SVGID_00000150789094961476689090000005429297689380374967_);}
	.st34{stroke:#000000;stroke-width:0.5;stroke-miterlimit:10;}
	.st35{clip-path:url(#SVGID_00000103948889511600468520000009750406056569434522_);}
	.st36{clip-path:url(#SVGID_00000134247281753335382210000016568634077433166257_);}
	.st37{clip-path:url(#SVGID_00000041296960113528108550000008321626303203945398_);}
	.st38{fill:#1A1A1A;}
	.st39{clip-path:url(#SVGID_00000111181826971059183150000007972065462623672723_);}
	.st40{clip-path:url(#SVGID_00000066499253777832661170000004207571099418115004_);}
	.st41{clip-path:url(#SVGID_00000152251870806315082700000016771035871191519403_);}
	.st42{clip-path:url(#SVGID_00000145746769825382880860000015597903111751520667_);}
	.st43{clip-path:url(#SVGID_00000002371439148087160290000006681224382701313154_);}
	.st44{clip-path:url(#SVGID_00000088835689088250431670000009904655112953158545_);}
	.st45{clip-path:url(#SVGID_00000147199048034123776810000007168078827584455310_);}
	.st46{clip-path:url(#SVGID_00000083794008875772462090000017206740020583947708_);}
	.st47{clip-path:url(#SVGID_00000105402959129713707700000015345204779311413896_);}
	.st48{fill:#F1F1F1;}
	.st49{fill:#E8E8E8;}
	.st50{fill:#FEFEFE;}
	.st51{fill:#CCCCCC;}
	.st52{fill:#B3B3B3;}
	.st53{fill:#E6E6E6;}
	.st54{fill:#EBEBEB;}
	.st55{fill:#EEEEEE;}
	.st56{fill:#F8F8F8;}
	.st57{fill:#FBFBFB;}
	.st58{fill:#383838;}
	.st59{fill:#232323;}
	.st60{fill:#F6F6F6;}
	.st61{fill:#535353;}
	.st62{fill:#0A0A0A;}
	.st63{fill:#F5F5F5;}
	.st64{fill:#818181;}
	.st65{fill:#4A4A4A;}
	.st66{fill:#999999;}
	.st67{fill:url(#SVGID_00000168119270285738800410000016407812938448303267_);}
	.st68{fill:url(#SVGID_00000109708224671270121100000004362611335576117919_);}
	.st69{fill:#0E0E0D;}
	.st70{fill:#333333;}
	.st71{fill:#808080;}
	.st72{fill:url(#SVGID_00000088814709912472872980000012091443933447437707_);}
	.st73{fill:#666666;}
	.st74{fill:url(#SVGID_00000030452314764314976980000014382932809050551942_);}
	.st75{fill:url(#SVGID_00000046325156868267788940000015253515553684310403_);}
	.st76{fill:url(#SVGID_00000001635789152233790810000016349965139527700147_);}
	.st77{fill:url(#SVGID_00000109011780312111638140000005655655452772589184_);}
	.st78{fill:url(#SVGID_00000074437788894223874220000017836634218740700801_);}
	.st79{clip-path:url(#SVGID_00000164515438923318741530000010977243083716989582_);}
	.st80{clip-path:url(#SVGID_00000052789674148826655960000000376491035154710457_);}
	.st81{clip-path:url(#SVGID_00000100380554079843591860000015714955747790380722_);}
	.st82{clip-path:url(#SVGID_00000118396773536963614410000012381507925053093051_);}
	.st83{clip-path:url(#SVGID_00000049187417349728830840000013079806773269153169_);}
	.st84{fill:#241F20;stroke:#000000;stroke-width:0.5;stroke-miterlimit:10;}
	.st85{clip-path:url(#SVGID_00000134965381967163735280000018244871551503163271_);}
	.st86{clip-path:url(#SVGID_00000170957243139035184260000003599368842257273272_);}
	.st87{clip-path:url(#SVGID_00000059281687644601939490000009167016501897916564_);}
	.st88{clip-path:url(#SVGID_00000063629610274862262790000008410260267986444707_);}
	.st89{clip-path:url(#SVGID_00000088824850420631542770000004449414588732409253_);}
	.st90{clip-path:url(#SVGID_00000108269035084846965260000001050664175083008657_);}
	.st91{clip-path:url(#SVGID_00000042711919000787675500000014663504029875057332_);}
	.st92{clip-path:url(#SVGID_00000135673821280047126700000016355000345853772706_);}
	.st93{clip-path:url(#SVGID_00000151514814890356224490000003564569853302113695_);}
	.st94{clip-path:url(#SVGID_00000122712403424042665390000017987118880475509176_);}
	.st95{clip-path:url(#SVGID_00000051363369271268343230000007097545565009733022_);}
	.st96{clip-path:url(#SVGID_00000036217612969171565520000012536177064234874805_);}
	.st97{clip-path:url(#SVGID_00000150783985362457424720000002274941911458374028_);}
	.st98{clip-path:url(#SVGID_00000013193973634478861290000011404412202978458541_);}
	.st99{clip-path:url(#SVGID_00000114064019302095971960000002018614490779156361_);}
	.st100{clip-path:url(#SVGID_00000045596582992415623640000008612496691477758124_);}
	.st101{clip-path:url(#SVGID_00000163781038483093647220000014856609656661653180_);}
	.st102{clip-path:url(#SVGID_00000132769928662941638640000000169627176141021585_);}
	.st103{clip-path:url(#SVGID_00000013871395843373463280000017240787162006932916_);}
	.st104{clip-path:url(#SVGID_00000096748624640577881570000018113531895302241698_);}
	.st105{clip-path:url(#SVGID_00000018954744452217637150000002106283446292493215_);}
	.st106{clip-path:url(#SVGID_00000182495108574272069480000001221208186300915374_);}
	.st107{clip-path:url(#SVGID_00000114762804175893736190000012926126494693459873_);}
	.st108{clip-path:url(#SVGID_00000083793959834024627140000016067756919666361735_);}
	.st109{clip-path:url(#SVGID_00000053534897426459229190000006074584480808064656_);}
	.st110{clip-path:url(#SVGID_00000180362520382696646100000004952253319735945368_);}
	.st111{clip-path:url(#SVGID_00000098935164296475226610000011919838052326923686_);}
	.st112{clip-path:url(#SVGID_00000158731806351435734570000010645424611382415240_);}
	.st113{clip-path:url(#SVGID_00000070090474461160039870000017896620192910275255_);}
	.st114{clip-path:url(#SVGID_00000101099199011249842010000014388271792388169910_);}
	.st115{fill:#FFFFFF;stroke:#000000;stroke-miterlimit:10;}
	.st116{clip-path:url(#SVGID_00000003824678652684508780000007637685292646519189_);}
	.st117{clip-path:url(#SVGID_00000066510310637759895220000005623028068531523203_);}
	.st118{fill:none;stroke:#010101;stroke-miterlimit:10;}
	.st119{fill:#010101;stroke:#000000;stroke-miterlimit:10;}
	.st120{clip-path:url(#SVGID_00000039852972561673974880000004899904573106775992_);}
	.st121{fill:#010101;stroke:#010101;stroke-miterlimit:10;}
	.st122{clip-path:url(#SVGID_00000109727512098213233740000013616436588271813257_);}
	.st123{clip-path:url(#SVGID_00000072244179143125332010000007317420356354300824_);}
	.st124{clip-path:url(#SVGID_00000124863741920915505350000016861714709731560343_);}
	.st125{clip-path:url(#SVGID_00000055685473404940718150000006453306634159128740_);}
	.st126{clip-path:url(#SVGID_00000148641011980260805340000011627763513741528960_);}
	.st127{fill:none;stroke:#000000;stroke-width:3;stroke-miterlimit:10;}
	.st128{clip-path:url(#SVGID_00000013159847096079308440000013203360030343897271_);}
	.st129{clip-path:url(#SVGID_00000015329195162391910310000017227293169885996951_);}
	.st130{clip-path:url(#SVGID_00000069367516510093892040000004874214768437061255_);}
	.st131{clip-path:url(#SVGID_00000142872850311927820670000009079418947708369832_);}
	.st132{fill:#040606;}
	.st133{clip-path:url(#SVGID_00000080174127165963894770000000115902902711982999_);}
	.st134{clip-path:url(#SVGID_00000121976158350021572650000015621807676504491184_);}
	.st135{clip-path:url(#SVGID_00000060717099739993748960000000786067985202161548_);}
	.st136{clip-path:url(#SVGID_00000159444351156998939990000016336416424538025090_);}
	.st137{clip-path:url(#SVGID_00000063610757332014126980000009982975602318699701_);}
	.st138{clip-path:url(#SVGID_00000055703578891038504670000016579687196636215172_);}
	.st139{clip-path:url(#SVGID_00000013186404248867575090000001136408583064615561_);}
	.st140{fill:#FFFFFF;stroke:#000000;stroke-width:1.5;stroke-miterlimit:10;}
	.st141{clip-path:url(#SVGID_00000110461488582159090510000005834679379516623489_);}
	.st142{fill:#BDBCBC;}
	.st143{clip-path:url(#SVGID_00000103948273595413128170000003786191123021068734_);}
	.st144{fill:#2E2A2B;}
	.st145{clip-path:url(#SVGID_00000059299957116484931200000012090465402333113250_);}
	.st146{clip-path:url(#SVGID_00000025440464567555213540000001290452052302055344_);}
	.st147{clip-path:url(#SVGID_00000178186269248555683820000007038642284284172161_);}
	.st148{clip-path:url(#SVGID_00000150783092180823464390000010521887478783576228_);}
	.st149{clip-path:url(#SVGID_00000133491277684290581550000016140679628269462913_);}
	.st150{fill:#272324;}
	.st151{clip-path:url(#SVGID_00000073689010013523011930000010593221403043367859_);}
	.st152{clip-path:url(#SVGID_00000132052889018447441230000006802977259060013220_);}
	.st153{clip-path:url(#SVGID_00000064351438769181329430000010590109682055508653_);}
	.st154{clip-path:url(#SVGID_00000090284096637200080000000014784239969707686578_);}
	.st155{clip-path:url(#SVGID_00000173870544183052401110000016593986469386934964_);}
	.st156{clip-path:url(#SVGID_00000021094163860382224500000006885613139809688759_);}
	.st157{fill:none;stroke:#000000;stroke-width:0.8735;stroke-linecap:round;stroke-linejoin:round;stroke-miterlimit:10;}
	.st158{clip-path:url(#SVGID_00000142869399610583139470000004244571622989922462_);}
	.st159{clip-path:url(#SVGID_00000124884235968045347470000005730662829546146476_);}
	.st160{clip-path:url(#SVGID_00000027589120754787372660000003484973610949630601_);}
	.st161{clip-path:url(#SVGID_00000111892681302413252900000008364534675086890881_);}
	.st162{clip-path:url(#SVGID_00000013174832601501305290000011960900715807198132_);}
	.st163{clip-path:url(#SVGID_00000129899904306543321640000002939325775347036288_);}
	.st164{clip-path:url(#SVGID_00000181075043993186035860000000054706644632026295_);}
	.st165{clip-path:url(#SVGID_00000013154836598837313580000014697274627053851326_);}
	.st166{clip-path:url(#SVGID_00000148636056145087313740000001633015965445370281_);}
	.st167{clip-path:url(#SVGID_00000078037895381386851100000013758642825859311253_);}
	.st168{clip-path:url(#SVGID_00000119822444601071726420000013327594077289733296_);}
	.st169{clip-path:url(#SVGID_00000160166456211623870000000017492487484441084811_);}
	.st170{clip-path:url(#SVGID_00000046305799434749531100000008161581628691342475_);}
	.st171{clip-path:url(#SVGID_00000166662541978791469040000017174255124483431834_);}
	.st172{clip-path:url(#SVGID_00000147193083723513386460000013091217243757545619_);}
	.st173{clip-path:url(#SVGID_00000139256294058215116270000013863620306886546599_);}
	.st174{clip-path:url(#SVGID_00000138551800487467308730000010463881156368097448_);}
	.st175{clip-path:url(#SVGID_00000058584993694131718600000008105119754007173506_);}
	.st176{clip-path:url(#SVGID_00000120524286051984187430000001358078770850954676_);}
	.st177{clip-path:url(#SVGID_00000132082561518895983310000003532311894757727420_);}
	.st178{clip-path:url(#SVGID_00000023247946703957833490000000986463377124488591_);}
	.st179{clip-path:url(#SVGID_00000114764047398479663740000014613138285060189334_);}
	.st180{clip-path:url(#SVGID_00000125604669290747520150000000336375152422131587_);}
	.st181{clip-path:url(#SVGID_00000140007069641785527690000011128392775539760009_);}
	.st182{clip-path:url(#SVGID_00000093894380430958116140000006217651793748735907_);}
	.st183{clip-path:url(#SVGID_00000115498657834467725810000011226517435689851527_);}
	.st184{clip-path:url(#SVGID_00000078006760914837878680000013182302254053344953_);}
	.st185{clip-path:url(#SVGID_00000101786656590182577860000012396535078303899276_);}
	.st186{clip-path:url(#SVGID_00000161618144312534929190000016558460217168235451_);}
	.st187{clip-path:url(#SVGID_00000127743424018219665130000018055966051316574594_);}
	.st188{clip-path:url(#SVGID_00000058591049467250395200000013471155633013793157_);}
	.st189{clip-path:url(#SVGID_00000072961346395248823480000005150499222100257962_);}
	.st190{clip-path:url(#SVGID_00000155104857041492096600000003086858648871339151_);}
	.st191{clip-path:url(#SVGID_00000180337114430119050430000011259275399100156578_);}
	.st192{clip-path:url(#SVGID_00000099661171902059549880000003073728798856708538_);}
	.st193{clip-path:url(#SVGID_00000164509299422751187410000008773037456148079490_);}
	.st194{clip-path:url(#SVGID_00000116234056252082898670000011459542493138717595_);}
	.st195{clip-path:url(#SVGID_00000178920815128102511710000004348735775247882161_);}
	.st196{fill:#E5E5E5;}
	.st197{fill:#1D1D1B;}
	.st198{fill:none;stroke:#000000;stroke-miterlimit:10;}
	.st199{fill:#FEFEFE;stroke:#000000;stroke-miterlimit:10;}
	.st200{clip-path:url(#SVGID_00000165221690586927127970000003867814158361076372_);}
	.st201{clip-path:url(#SVGID_00000031201009017427259500000004848576689324990613_);}
	.st202{clip-path:url(#SVGID_00000022518124109635233800000016757510966549762952_);}
	.st203{fill:#231F1F;}
	.st204{fill:#020000;}
	.st205{clip-path:url(#SVGID_00000180364168890408717380000012351696337221717663_);}
	.st206{clip-path:url(#SVGID_00000149366686626450790350000003522880444798341554_);}
	.st207{clip-path:url(#SVGID_00000147197847130748378220000014260229021650902717_);}
	.st208{clip-path:url(#SVGID_00000106120089185721581120000005214875912900118440_);}
	.st209{fill:#050000;}
	.st210{clip-path:url(#SVGID_00000016059663124125167600000015588045894608586631_);}
	.st211{clip-path:url(#SVGID_00000033354053141503110580000008151733995932887195_);}
	.st212{clip-path:url(#SVGID_00000039846206902079549070000009729427357222994593_);}
	.st213{clip-path:url(#SVGID_00000073684669306390061990000016565616154423335352_);}
	.st214{clip-path:url(#SVGID_00000117649083837126161750000000001913994521443229_);}
	.st215{clip-path:url(#SVGID_00000173144070673983167540000000914820239579239564_);}
	.st216{fill:#12100F;}
	.st217{clip-path:url(#SVGID_00000024703180438922452910000000936729259780985486_);}
	.st218{clip-path:url(#SVGID_00000028286140003614046170000016180645465241170855_);}
	.st219{fill:none;stroke:#000000;stroke-width:0.5;stroke-miterlimit:10;}
	.st220{clip-path:url(#SVGID_00000035497969497234969260000006749522501950391976_);}
	.st221{clip-path:url(#SVGID_00000126307731030274192810000009278565539937946766_);}
	.st222{clip-path:url(#SVGID_00000164490637148900702360000000549003447869986959_);}
	.st223{clip-path:url(#SVGID_00000115500311036766227970000009606660610326999694_);}
	.st224{fill:none;stroke:#000000;stroke-width:0.25;stroke-miterlimit:10;}
	.st225{clip-path:url(#SVGID_00000178166341810040277060000012473293855905786264_);}
	.st226{clip-path:url(#SVGID_00000173855516247802068280000013271637968602283194_);}
	.st227{clip-path:url(#SVGID_00000109714371281803796800000017530891254742097819_);}
</style>
<g>
	<path d="M25.9,17.41c-0.28-1.13-0.78-2.2-1.4-3.19c0.14,0.2,0.31,0.4,0.45,0.61c0.25,0.36,0.44,0.74,0.62,1.13
		c0.21,0.46,0.35,0.93,0.47,1.42C26.07,17.46,25.93,17.5,25.9,17.41z"/>
	<path d="M26.02,16.51c-0.22-0.64-0.47-1.26-0.74-1.88c0-0.02-0.02-0.03-0.01-0.05c0.01,0.02,0.02,0.04,0.03,0.06
		c0.32,0.6,0.61,1.21,0.83,1.84C26.14,16.55,26.04,16.58,26.02,16.51z"/>
	<g>
		<defs>
			<rect id="SVGID_00000043459147453571652180000005238616657418239922_" x="6.34" y="11.61" width="34.37" height="31.7"/>
		</defs>
		<clipPath id="SVGID_00000158008297142384794090000014140209109893327745_">
			<use xlink:href="#SVGID_00000043459147453571652180000005238616657418239922_"  style="overflow:visible;"/>
		</clipPath>
		<g style="clip-path:url(#SVGID_00000158008297142384794090000014140209109893327745_);">
			<path d="M40.69,37.25c-0.01-0.04-0.01-0.07-0.01-0.1c0-0.05-0.01-0.09-0.01-0.13c-0.01-0.09-0.02-0.18-0.03-0.28
				c0-0.01,0-0.02-0.01-0.03c-0.01-0.06-0.01-0.11-0.02-0.17c-0.02-0.14-0.04-0.28-0.06-0.42c-0.01-0.05-0.01-0.09-0.02-0.13
				c0-0.02-0.01-0.04-0.01-0.06c-0.01-0.07-0.02-0.14-0.03-0.21c-0.01-0.04-0.01-0.08-0.02-0.12c-0.01-0.05-0.01-0.1-0.02-0.15
				c0-0.03-0.01-0.06-0.01-0.09c-0.52-3.16-1.46-6.27-2.88-9.19c-1.14-2.33-2.51-4.8-4.91-6.2c-0.55-0.3-1.13-0.53-1.72-0.7
				c0.13-0.33,0.27-0.67,0.4-1c0.41-0.07,0.82-0.15,1.22-0.24c0.83-0.17,1.69-0.38,2.4-0.85c0.7-0.45,0.84-1.14-0.03-1.49
				c-0.45-0.17-0.96-0.15-1.44-0.07c-0.4,0.07-0.84,0.17-1.28,0.31c0.24-0.7,0.46-1.4,0.67-2.1c0.16-0.52,0.32-1.04,0.5-1.56
				c0.02-0.06,0.04-0.11,0.06-0.16c0-0.01,0.01-0.02,0.01-0.03c0.02-0.06,0.04-0.11,0.06-0.16c-0.06-0.02-0.12-0.04-0.19-0.05
				c-0.03-0.01-0.05-0.01-0.08-0.02c-0.03-0.01-0.06-0.02-0.09-0.02c-0.68-0.15-1.39-0.21-2.07-0.15c-0.66,0.09-1.3,0.33-1.83,0.71
				c-0.2,0.14-0.39,0.28-0.57,0.44c-0.08,0.07-0.15,0.16-0.25,0.2c-0.12-0.06-0.21-0.15-0.32-0.21c-0.21-0.1-0.43-0.15-0.66-0.2
				c-0.92-0.2-1.92-0.06-2.74,0.38c-0.43,0.24-0.83,0.52-1.18,0.86c0,0.01-0.01,0.01-0.01,0.02c-0.03,0.03-0.06,0.06-0.1,0.1
				c-0.01,0.01-0.02,0.02-0.03,0.03c-0.07,0.07-0.13,0.15-0.2,0.22c0.02,0.03,0.05,0.05,0.07,0.08c0.01,0.01,0.03,0.03,0.04,0.05
				c0,0,0.01,0.01,0.01,0.01c0.94,1.07,1.66,2.32,2.07,3.65c-1.1-0.46-2.19-0.95-3.36-1.24c-0.74-0.17-1.58-0.3-2.28,0.06
				c-0.4,0.19-0.63,0.68-0.4,1.07c0.16,0.32,0.5,0.51,0.84,0.64c0.68,0.24,1.41,0.28,2.13,0.32c1.09,0.06,2.2,0.05,3.29,0.06
				c0.01,0.06,0.02,0.12,0.03,0.18c-0.72,0.13-1.43,0.31-2.11,0.53c-3.61,1.2-6.46,3.73-9.22,6.13c-1.92,1.73-3.79,3.51-5.99,4.91
				c-0.14,0.09-0.29,0.18-0.43,0.27c-0.02,0.01-0.05,0.03-0.08,0.05c-0.38,0.22-0.77,0.43-1.17,0.63c-0.09,0.04-0.18,0.09-0.27,0.13
				c0.05,0.06,0.1,0.12,0.14,0.18c0,0,0,0.01,0.01,0.01c0.96,1.19,1.86,2.42,2.78,3.63c0.34,0.44,0.69,0.88,1.08,1.29
				c0.39,0.4,0.82,0.75,1.25,1.09c0.26,0.2,0.53,0.38,0.82,0.54c0.24,0.14,0.5,0.26,0.78,0.27h0c0,0,0.01,0,0.01,0s0.01,0,0.01,0
				c0.01,0,0.01,0,0.02,0c0.02,0,0.03,0,0.05,0c0,0,0.01,0,0.01,0s0.01,0,0.01,0c0.01,0,0.01,0,0.02,0s0.01,0,0.02,0
				c0,0,0.01,0,0.01,0s0.01,0,0.02,0c0.01,0,0.01,0,0.02-0.01c0.01,0,0.01,0,0.02,0s0.01,0,0.02-0.01c0,0,0.01,0,0.02,0c0,0,0,0,0,0
				c0.01,0,0.01,0,0.02-0.01c0.01,0,0.01,0,0.02-0.01c0.01,0,0.01-0.01,0.02-0.01c0.01-0.01,0.02-0.01,0.02-0.01
				c0.01-0.01,0.02-0.01,0.02-0.01c0.08-0.05,0.13-0.13,0.14-0.22c0.08-0.11,0.15-0.23,0.23-0.34c0.25-0.33,0.53-0.64,0.84-0.92
				c0.46,0.4,0.88,0.84,1.3,1.28c1.03,1.08,2.03,2.29,3.37,3.07c0.84,0.5,1.78,0.83,2.72,1.11c1.17,0.36,2.38,0.58,3.61,0.62
				c1.61,0.05,3.21-0.24,4.74-0.66c1.55-0.43,3-1.1,4.38-1.88c1.75-0.98,3.37-2.16,5.19-3.02c0.19-0.08,0.39-0.17,0.58-0.25
				c0.01,0,0.02-0.01,0.03-0.01C40.71,37.37,40.7,37.3,40.69,37.25z M30.61,19.18c-0.41-0.1-0.83-0.17-1.25-0.23
				c-0.02,0-0.03,0-0.05-0.01c-0.02,0-0.04,0-0.07-0.01c-0.02,0-0.04,0-0.07-0.01c0,0-0.01,0-0.01,0c-0.02,0-0.04-0.01-0.06-0.01
				c0,0-0.01,0-0.02,0h-0.01c0,0-0.01,0-0.01,0s0,0-0.01,0c-0.03,0-0.06-0.01-0.09-0.01c-0.02,0-0.03,0-0.06,0
				c-0.01,0-0.03,0-0.05,0h0c-0.03,0-0.06-0.01-0.09-0.01c-0.01,0-0.02,0-0.03,0c-0.03,0-0.06,0-0.09,0
				c-0.16-0.01-0.32-0.01-0.48-0.02c0.8-0.19,1.61-0.33,2.42-0.48c0.12-0.02,0.24-0.05,0.37-0.07
				C30.86,18.62,30.74,18.9,30.61,19.18z M31.09,18.04c-0.56,0.1-1.13,0.19-1.69,0.3h0c-0.61,0.11-1.22,0.21-1.81,0.37
				c-0.01,0-0.03,0-0.04,0c-0.06,0-0.11-0.01-0.17-0.01c0.02-0.02,0.04-0.03,0.06-0.05c1.09-0.95,2.44-1.62,3.82-2.12
				c0.15-0.06,0.31-0.1,0.46-0.16C31.52,16.93,31.31,17.49,31.09,18.04z M34.15,15.89c0.37,0.01,0.83,0.06,1.04,0.37
				c0.22,0.48-0.73,0.91-1.11,1.07c-0.85,0.3-1.74,0.49-2.64,0.64c0.22-0.57,0.44-1.14,0.64-1.71
				C32.75,16.06,33.44,15.91,34.15,15.89z M23.02,18.66c-0.93-0.05-1.9-0.06-2.79-0.37c-0.26-0.1-0.54-0.25-0.67-0.5
				c-0.19-0.32,0.07-0.66,0.4-0.77c0.57-0.21,1.22-0.09,1.8,0.01c1.27,0.25,2.44,0.75,3.65,1.19c0.04,0.15,0.08,0.29,0.11,0.44
				C24.69,18.68,23.86,18.71,23.02,18.66z M23.99,14.49c0.13-0.1,0.27-0.18,0.4-0.27c0.19-0.12,0.4-0.24,0.63-0.34
				c0.51-0.24,1.05-0.37,1.59-0.37c0.52,0,1.03,0.12,1.51,0.38c-1.14-0.81-2.65-0.59-3.8,0.08c-0.17,0.09-0.33,0.2-0.49,0.31
				c-0.07-0.08-0.14-0.17-0.21-0.25c0.11-0.1,0.23-0.2,0.35-0.28c0.96-0.69,1.96-1,3.16-0.79c0.29,0.07,0.6,0.13,0.85,0.28
				c0.48,0.37,0.72,0.04,1.08-0.27c0.82-0.68,1.83-1.04,2.93-0.95c0.33,0.03,0.67,0.07,1.01,0.14c-0.03,0.09-0.06,0.18-0.09,0.27
				c-0.04-0.01-0.08-0.02-0.11-0.03c-1.39-0.23-3.34,0.3-4.01,1.54c0,0,0,0,0,0c0.63-0.93,1.85-1.28,2.97-1.33
				c0.32-0.02,0.64-0.02,0.96,0.04c0.04,0,0.08,0.02,0.11,0.03c-0.23,0.74-0.44,1.49-0.65,2.23c-0.11,0.37-0.23,0.74-0.35,1.11
				c-1.69,0.56-3.49,1.53-4.52,2.65c-0.06,0-0.11-0.01-0.17-0.01c-0.48-0.15-0.94-0.33-1.4-0.51
				C25.41,16.85,24.83,15.59,23.99,14.49z M25.84,18.67c-0.02-0.1-0.04-0.21-0.07-0.32c0.35,0.12,0.71,0.23,1.06,0.32
				C26.5,18.67,26.17,18.67,25.84,18.67z M26.71,18.95c-0.27,0.03-0.54,0.06-0.81,0.1c-0.01-0.03-0.01-0.07-0.01-0.1
				c0-0.01,0-0.01,0-0.02C26.16,18.94,26.44,18.94,26.71,18.95z M11.44,28.66c3.84-3.13,7.28-7.08,12.2-8.74
				c0.71-0.21,1.38-0.37,2.02-0.49c0.02,0,0.05-0.01,0.07-0.01c0.03-0.01,0.07-0.01,0.1-0.02c0.03-0.01,0.07-0.01,0.1-0.02
				c0.14-0.02,0.27-0.04,0.41-0.06c-0.13,0.08-0.26,0.17-0.39,0.26c-0.03,0.02-0.07,0.04-0.1,0.06c-0.06,0.04-0.11,0.07-0.16,0.11
				c-1.11,0.75-2.17,1.57-3.11,2.51c-1.36,1.42-2.49,3.05-3.34,4.79c0.87-1.63,2.04-3.12,3.37-4.45c0.95-0.94,2.01-1.76,3.13-2.54
				c0.07-0.04,0.13-0.09,0.19-0.13c0.12-0.08,0.24-0.16,0.35-0.24c-0.11,0.13-0.21,0.26-0.31,0.38c-0.02,0.03-0.04,0.05-0.06,0.07
				c-0.02,0.02-0.04,0.05-0.06,0.07c-0.04,0.05-0.08,0.1-0.11,0.15c0,0,0,0,0,0.01c-0.69,0.89-1.31,1.82-1.83,2.81
				c-0.88,1.7-1.5,3.53-1.81,5.4c-0.21,1.31-0.33,2.65-0.29,3.98c0.11-3.25,1.06-6.48,2.56-9.42c0.73-1.41,1.69-2.69,2.75-3.89
				c0.26,1.42,0.52,2.83,0.62,4.27c0.09,1.42,0.06,2.85,0.01,4.27c0.1-1.31,0.33-2.62,0.31-3.93c-0.04-1.56-0.2-3.12-0.54-4.64
				c0.42-0.02,0.83-0.01,1.22,0.02c0.73,2.33,1.08,4.76,1.34,7.17c0.2,1.99,0.38,4,0.24,6c-0.07,0.99-0.21,1.99-0.42,2.96
				c0.3-1.16,0.54-2.36,0.66-3.56c0.15-1.63,0.06-3.26-0.09-4.89c-0.22-2.35-0.55-4.71-1.21-6.99c0.53,1.38,0.92,2.82,1.35,4.23
				c0.45,1.63,0.96,3.25,1.11,4.94c-0.04-1.33-0.31-2.65-0.58-3.95c-0.41-1.89-0.97-3.77-1.72-5.57c0.15,0.2,0.3,0.4,0.45,0.6
				c0.06,0.08,0.12,0.17,0.17,0.25c0.02,0.03,0.04,0.06,0.07,0.1c0.02,0.04,0.04,0.07,0.07,0.1c1.44,2.16,2.31,4.62,2.84,7.11
				c0.35,1.55,0.59,3.14,0.71,4.73c0.07,0.98,0.11,1.98-0.01,2.96c0.25-1.46,0.23-2.95,0.16-4.42c-0.24-3.72-1.28-7.49-3.46-10.63
				c0-0.01-0.01-0.01-0.01-0.02c-0.01-0.02-0.03-0.04-0.04-0.06c-0.01-0.02-0.03-0.05-0.05-0.07c-0.01-0.02-0.03-0.04-0.04-0.06
				c-0.02-0.04-0.05-0.07-0.08-0.11c-0.04-0.06-0.09-0.13-0.14-0.19c0.22,0.14,0.44,0.28,0.66,0.43c1.61,1.02,2.93,2.36,3.76,4.01
				c0.52,1.01,0.88,2.09,1.12,3.19c0.06,0.27,0.12,0.54,0.11,0.81c0.02-0.53-0.1-1.06-0.19-1.58c-0.34-1.7-1.09-3.36-2.29-4.69
				c-0.76-0.85-1.71-1.54-2.68-2.16c-0.29-0.18-0.59-0.37-0.9-0.52c-0.01,0-0.01,0-0.02,0c0,0-0.01-0.01-0.01-0.01
				c0.01,0,0.02,0.01,0.03,0.02c0.27,0.05,0.52,0.1,0.77,0.17c0.02,0,0.04,0.01,0.06,0.02c0.03,0.01,0.06,0.02,0.08,0.02
				c0.03,0.01,0.07,0.02,0.09,0.03c0.03,0.01,0.06,0.02,0.08,0.03c3.16,1.01,5.19,3.83,6.75,7.9c0.53,1.32,0.96,2.67,1.36,4.03
				c0.39,1.31,0.85,2.6,1.25,3.91c-0.92,0.28-1.8,0.66-2.66,1.08c-1.7,0.88-3.32,1.89-5.12,2.61c-2.55,1-5.45,1.37-8.21,1.1
				c-0.94-0.1-1.84-0.38-2.71-0.72c-0.71-0.28-1.4-0.62-2.05-1.03c-0.93-0.59-1.68-1.38-2.46-2.12c-0.34-0.32-0.66-0.66-1.03-0.94
				c-0.42-0.31-0.91-0.56-1.43-0.71c-0.01,0-0.03-0.01-0.04-0.01c-0.01,0-0.02-0.01-0.03-0.01c0.01,0,0.02,0.01,0.03,0.01
				c0.5-0.54,0.96-1.12,1.4-1.7c0.36-0.47,0.72-0.94,1.03-1.44c0.2-0.32,0.36-0.65,0.54-0.97c0.04-0.06,0.07-0.12,0.11-0.18
				c-0.12,0.16-0.22,0.33-0.34,0.5c-0.63,0.97-1.38,1.86-2.16,2.72c-0.31,0.35-0.62,0.68-0.96,1.02c-0.08,0.08-0.17,0.16-0.25,0.24
				c-0.06,0.06-0.11,0.11-0.16,0.16c-0.1,0.1-0.2,0.19-0.29,0.29c-0.03,0.03-0.05,0.05-0.07,0.07c-0.02,0.02-0.03,0.03-0.04,0.05
				c-0.17,0.17-0.33,0.36-0.48,0.54c-0.02,0.02-0.03,0.05-0.05,0.06c-0.08-0.08-0.16-0.17-0.24-0.25c-0.62-0.68-1.17-1.42-1.71-2.15
				c-0.69-0.92-1.55-2.03-2.65-2.61C9.3,30.35,10.39,29.52,11.44,28.66z M11.85,37.59c-1.17-0.95-2.04-2.15-2.94-3.31
				c-0.65-0.87-1.36-1.69-2.11-2.48c0.42-0.21,0.84-0.43,1.24-0.67c0.8,0.49,1.48,1.28,1.99,1.93c0.55,0.73,1.06,1.48,1.64,2.19
				c0.29,0.36,0.58,0.73,0.92,1.05c-0.01,0.02-0.02,0.04-0.03,0.06c-0.04,0.05-0.07,0.13-0.06,0.19c-0.09,0.25-0.08,0.55,0.03,0.79
				c0.16,0.4,0.47,0.71,0.74,1.04C12.83,38.38,12.19,37.85,11.85,37.59z M13.63,38.13c-0.09-0.14-0.22-0.26-0.34-0.39
				c-0.18-0.19-0.35-0.41-0.44-0.65c-0.07-0.19-0.08-0.41,0.04-0.59c0.01-0.01,0.01-0.02,0.02-0.03c0.01,0,0.01-0.01,0.01-0.01l0,0
				c0,0,0.01-0.01,0.02-0.02c0,0,0,0,0,0c0.01,0,0.01-0.01,0.02-0.01c0.01,0,0.01-0.01,0.02-0.01c0,0,0,0,0,0
				c0.01,0,0.01-0.01,0.02-0.01l0,0c0.29-0.16,0.74,0.05,0.99,0.2c0.23,0.14,0.45,0.3,0.66,0.47
				C14.27,37.39,13.93,37.73,13.63,38.13z M40.2,37.18c-1.89,0.77-3.51,1.99-5.26,2.99c-3.09,1.81-6.75,3.1-10.44,2.66
				c-0.76-0.09-1.51-0.3-2.24-0.53c-1.08-0.37-2.17-0.78-3.08-1.45c-1.56-1.13-2.65-2.68-4.11-3.92c-0.03-0.03-0.07-0.06-0.11-0.09
				c-0.07-0.06-0.14-0.12-0.21-0.17c-0.46-0.34-1.02-0.72-1.63-0.64c0.06-0.08,0.13-0.17,0.21-0.25c0.07-0.07,0.14-0.14,0.21-0.2
				c0.94,0.4,1.83,0.89,2.6,1.54c0.22,0.2,0.47,0.4,0.64,0.64c-0.05-0.11-0.17-0.22-0.25-0.32c-0.27-0.29-0.58-0.56-0.9-0.81
				c-0.6-0.47-1.27-0.85-1.97-1.17c0.11-0.1,0.21-0.19,0.31-0.29c0.69,0.29,1.34,0.69,1.91,1.17c0.41,0.34,0.78,0.73,1.18,1.09
				c0.17,0.15,0.36,0.29,0.52,0.46c-0.21-0.24-0.47-0.45-0.68-0.69c-0.24-0.27-0.47-0.52-0.73-0.78c-0.59-0.57-1.27-1.06-2.04-1.41
				c-0.01,0-0.01,0-0.01-0.01c0.03-0.03,0.06-0.05,0.1-0.08c0.01-0.01,0.01-0.01,0.01-0.02c0.03-0.03,0.06-0.06,0.08-0.09
				c0.01,0,0.01,0.01,0.02,0.01c0.39,0.13,0.76,0.31,1.11,0.53c0.54,0.35,0.97,0.82,1.43,1.27c0.55,0.55,1.1,1.11,1.71,1.61
				c1.01,0.79,2.19,1.36,3.42,1.79c0.9,0.33,1.87,0.51,2.83,0.56h-0.02c2.8,0.14,5.65-0.29,8.19-1.41c2.31-0.96,4.33-2.48,6.73-3.26
				c0.17-0.06,0.35-0.11,0.53-0.16c0.02,0.07,0.04,0.14,0.06,0.21c-0.74,0.25-1.46,0.56-2.14,0.94c-0.76,0.42-1.46,0.92-2.19,1.38
				c-0.32,0.21-0.68,0.38-1.01,0.58c0,0,0,0,0,0c0.33-0.18,0.7-0.34,1.03-0.53c0.75-0.42,1.46-0.9,2.23-1.3
				c0.68-0.37,1.4-0.66,2.13-0.89c0.04,0.14,0.08,0.27,0.11,0.41c-0.66,0.23-1.31,0.51-1.93,0.83c-0.93,0.46-1.8,1.02-2.73,1.49
				c0.98-0.43,1.91-0.98,2.9-1.42c0.52-0.23,1.07-0.47,1.62-0.65c0.07-0.02,0.13-0.04,0.2-0.06c0.02,0.09,0.05,0.18,0.07,0.27
				C40.45,37.09,40.33,37.14,40.2,37.18z"/>
		</g>
	</g>
	<path d="M31.7,15.15c-0.04-0.01-0.07-0.05-0.05-0.09c0.07-0.17,0.14-0.34,0.21-0.51c0.18-0.44,0.33-0.88,0.48-1.32v0
		c-0.12,0.54-0.24,1.09-0.44,1.62c-0.03,0.09-0.07,0.18-0.11,0.27C31.77,15.14,31.73,15.16,31.7,15.15z"/>
	<path d="M25.12,37.83c-0.76-0.05-1.29-0.66-1.53-1.29c-0.34-0.92-0.14-1.92,0.05-2.85c0.16-0.74,0.32-1.46,0.49-2.2
		c0.32-1.33,0.58-2.65,0.69-4c0.03-0.41,0.08-0.83,0.03-1.24c0,0.01,0,0,0,0c0.02,0.04,0.02,0.1,0.03,0.15
		c0.09,1.79-0.13,3.58-0.53,5.34c-0.17,0.84-0.37,1.66-0.53,2.5c-0.12,0.63-0.19,1.28-0.05,1.91c0.14,0.61,0.55,1.26,1.25,1.4
		c0.76,0.12,1.39-0.5,1.71-1.08c0.17-0.34,0.3-0.69,0.4-1.05c0.04-0.13,0.25-0.07,0.21,0.06c-0.15,0.47-0.29,0.96-0.55,1.39
		C26.44,37.39,25.83,37.86,25.12,37.83z"/>
	<path d="M12.73,32.46c-0.83-0.55-0.98-1.33-0.58-2.18c0.49-0.96,1.48-1.59,2.35-2.24C15.24,27.51,16,27,16.7,26.43
		c0.51-0.39,0.96-0.85,1.42-1.28c-0.95,1.03-2.04,1.95-3.19,2.79c-0.96,0.74-2.44,1.68-2.69,2.87c-0.12,0.5,0.06,0.97,0.48,1.31
		c0.06,0.05,0.12,0.1,0.19,0.15C13.03,32.36,12.87,32.55,12.73,32.46z"/>
</g>
</svg>
