<?xml version="1.0" encoding="utf-8"?>
<!-- Generator: Adobe Illustrator 27.3.1, SVG Export Plug-In . SVG Version: 6.00 Build 0)  -->
<svg version="1.1" id="Layer_1" xmlns="http://www.w3.org/2000/svg" xmlns:xlink="http://www.w3.org/1999/xlink" x="0px" y="0px"
	 viewBox="0 0 50 50" style="enable-background:new 0 0 50 50;" xml:space="preserve">
<style type="text/css">
	.st0{fill:none;}
	.st1{stroke:#000000;stroke-miterlimit:10;}
	.st2{stroke:#000000;stroke-width:0.75;stroke-miterlimit:10;}
	.st3{clip-path:url(#SVGID_00000178179384017792509560000005571076859600213930_);}
	.st4{clip-path:url(#SVGID_00000052783560356841271510000015309587945274976160_);}
	.st5{fill:#FFFFFF;}
	.st6{clip-path:url(#SVGID_00000067204215748010535710000016354229388594760339_);}
	.st7{fill:#231F20;}
	.st8{clip-path:url(#SVGID_00000031182917903282241590000011494930540629009573_);}
	.st9{clip-path:url(#SVGID_00000021113512946942879260000004452044612758067074_);}
	.st10{clip-path:url(#SVGID_00000120549304703585156140000017794272426024194974_);}
	.st11{clip-path:url(#SVGID_00000062886614930960655550000002103075485359165084_);}
	.st12{clip-path:url(#SVGID_00000095329880783915204090000006771781804043801505_);}
	.st13{clip-path:url(#SVGID_00000162338107230485766840000015884134361385623991_);}
	.st14{clip-path:url(#SVGID_00000101813153768785800660000002573586504888009375_);}
	.st15{clip-path:url(#SVGID_00000175285622584118021900000000088389226341350561_);}
	.st16{clip-path:url(#SVGID_00000175299197319324604100000003802534637224895889_);}
	.st17{clip-path:url(#SVGID_00000018215633298388161580000016793478274885999243_);}
	.st18{clip-path:url(#SVGID_00000160176223277655122570000010175404002615305365_);}
	.st19{clip-path:url(#SVGID_00000144332028167401206600000004624624450503522738_);}
	.st20{clip-path:url(#SVGID_00000065763958809564753390000000318985665169926330_);}
	.st21{clip-path:url(#SVGID_00000097476674683089876710000002303242181674716073_);}
	.st22{clip-path:url(#SVGID_00000056415691923344717730000007502431252982319234_);}
	.st23{clip-path:url(#SVGID_00000142882268460978522190000014796108983683699114_);}
	.st24{clip-path:url(#SVGID_00000102515910298117242580000009551555660289812127_);}
	.st25{clip-path:url(#SVGID_00000181808286048168783830000007839836355875188620_);}
	.st26{clip-path:url(#SVGID_00000028289070481854389870000003994020009611995298_);}
	.st27{clip-path:url(#SVGID_00000134215402891681618850000008620776090795297715_);}
	.st28{clip-path:url(#SVGID_00000086668168526734957180000012716989153029099689_);}
	.st29{clip-path:url(#SVGID_00000162329137445926492550000000206035520574879671_);}
	.st30{clip-path:url(#SVGID_00000065755554956323263390000001024153380778573234_);}
	.st31{fill-rule:evenodd;clip-rule:evenodd;}
	.st32{clip-path:url(#SVGID_00000056416666691963299610000006913158531860582584_);}
	.st33{clip-path:url(#SVGID_00000005252090317866607190000005316421029466736801_);}
	.st34{stroke:#000000;stroke-width:0.5;stroke-miterlimit:10;}
	.st35{clip-path:url(#SVGID_00000083056770605472052830000013242229837601107644_);}
	.st36{clip-path:url(#SVGID_00000021834618289338247690000003413108975889690018_);}
	.st37{clip-path:url(#SVGID_00000116947469829642775010000014746488775403455397_);}
	.st38{fill:#1A1A1A;}
	.st39{clip-path:url(#SVGID_00000081622353066126223360000000073505370492271029_);}
	.st40{clip-path:url(#SVGID_00000052069397795613870830000001598926400550248323_);}
	.st41{clip-path:url(#SVGID_00000095297112636295840250000005788845670003018145_);}
	.st42{clip-path:url(#SVGID_00000057139254646474823350000007951164980618229662_);}
	.st43{clip-path:url(#SVGID_00000170997408023373955160000004932008881812016512_);}
	.st44{clip-path:url(#SVGID_00000060721823747724333470000010128825551851985033_);}
	.st45{clip-path:url(#SVGID_00000029731844452305583600000012421469073711567014_);}
	.st46{clip-path:url(#SVGID_00000065041500372740898710000010682503809343258272_);}
	.st47{clip-path:url(#SVGID_00000123403183752827626900000015310173096477541537_);}
	.st48{fill:#F1F1F1;}
	.st49{fill:#E8E8E8;}
	.st50{fill:#FEFEFE;}
	.st51{fill:#CCCCCC;}
	.st52{fill:#B3B3B3;}
	.st53{fill:#E6E6E6;}
	.st54{fill:#EBEBEB;}
	.st55{fill:#EEEEEE;}
	.st56{fill:#F8F8F8;}
	.st57{fill:#FBFBFB;}
	.st58{fill:#383838;}
	.st59{fill:#232323;}
	.st60{fill:#F6F6F6;}
	.st61{fill:#535353;}
	.st62{fill:#0A0A0A;}
	.st63{fill:#F5F5F5;}
	.st64{fill:#818181;}
	.st65{fill:#4A4A4A;}
	.st66{fill:#999999;}
	.st67{fill:url(#SVGID_00000101102462399166363630000006300025484702434698_);}
	.st68{fill:url(#SVGID_00000166662916636838338560000004634449493168445065_);}
	.st69{fill:#0E0E0D;}
	.st70{fill:#333333;}
	.st71{fill:#808080;}
	.st72{fill:url(#SVGID_00000176045142952023028790000008770599590637426840_);}
	.st73{fill:#666666;}
	.st74{fill:url(#SVGID_00000059279274243515349670000009873117004757953968_);}
	.st75{fill:url(#SVGID_00000175304093880849952000000016449068932348970139_);}
	.st76{fill:url(#SVGID_00000086652586814592850930000002371061607423686791_);}
	.st77{fill:url(#SVGID_00000136383043885953450270000002847525536146833598_);}
	.st78{fill:url(#SVGID_00000099656535935541719100000008303772779919423930_);}
	.st79{clip-path:url(#SVGID_00000090264331357954257060000001790264241273234868_);}
	.st80{clip-path:url(#SVGID_00000146477350657617719620000002669929056447155892_);}
	.st81{clip-path:url(#SVGID_00000137850551089522154670000001946261546840952450_);}
	.st82{clip-path:url(#SVGID_00000163032875937798885110000003769674075202224044_);}
	.st83{clip-path:url(#SVGID_00000170280684080833564390000009461203241134866319_);}
	.st84{fill:#241F20;stroke:#000000;stroke-width:0.5;stroke-miterlimit:10;}
	.st85{clip-path:url(#SVGID_00000047054378255557413280000014499643544352952489_);}
	.st86{clip-path:url(#SVGID_00000141456529247003256870000016435419449305463473_);}
	.st87{clip-path:url(#SVGID_00000141414230317306128560000009464256500260698007_);}
	.st88{clip-path:url(#SVGID_00000103228732925106131190000015416238887868164258_);}
	.st89{clip-path:url(#SVGID_00000182501073459607974130000010453646757274311320_);}
	.st90{clip-path:url(#SVGID_00000171678321181600132430000011793809911150153624_);}
	.st91{clip-path:url(#SVGID_00000042709639482585932630000013688796172511683466_);}
	.st92{clip-path:url(#SVGID_00000022542305243940899540000018351897189499528595_);}
	.st93{clip-path:url(#SVGID_00000091710039122057661410000005577758045147552901_);}
	.st94{clip-path:url(#SVGID_00000160152356060409338450000007896977206225042339_);}
	.st95{clip-path:url(#SVGID_00000063619730174275964300000008795975253967449731_);}
	.st96{clip-path:url(#SVGID_00000110444770913009265820000002116349743359670683_);}
	.st97{clip-path:url(#SVGID_00000171707110263793141990000013513765905614179748_);}
	.st98{clip-path:url(#SVGID_00000080915956458134982270000001288824465969059994_);}
	.st99{clip-path:url(#SVGID_00000086666222845137686420000014276171112706933392_);}
	.st100{clip-path:url(#SVGID_00000032642854867007517680000011008027442048224385_);}
	.st101{clip-path:url(#SVGID_00000174580691189988353260000018078991120747327659_);}
	.st102{clip-path:url(#SVGID_00000056397817336922382950000003247071497837549468_);}
	.st103{clip-path:url(#SVGID_00000178180174105401388200000011954457748377354145_);}
	.st104{clip-path:url(#SVGID_00000152234230587003160090000006755275050824980359_);}
	.st105{clip-path:url(#SVGID_00000169548741256170443100000016697608241456182672_);}
	.st106{clip-path:url(#SVGID_00000060003518585108604840000003524608371697569965_);}
	.st107{clip-path:url(#SVGID_00000158750525041181902190000002585126329268007614_);}
	.st108{clip-path:url(#SVGID_00000059311527265123653340000004477192279130703503_);}
	.st109{clip-path:url(#SVGID_00000005240998475704763400000004011516245036871811_);}
	.st110{clip-path:url(#SVGID_00000086660182792721689430000011091714816206119065_);}
	.st111{clip-path:url(#SVGID_00000010310507947549570590000004442191499962643876_);}
	.st112{clip-path:url(#SVGID_00000119096787482672725480000014200227864767367568_);}
	.st113{clip-path:url(#SVGID_00000029008208810474493310000000260962882179629990_);}
	.st114{clip-path:url(#SVGID_00000177461691664121820850000004534497831237291947_);}
	.st115{fill:#FFFFFF;stroke:#000000;stroke-miterlimit:10;}
	.st116{clip-path:url(#SVGID_00000016766933478209149300000014946549675558050224_);}
	.st117{clip-path:url(#SVGID_00000125589679502031545970000012111517850642692501_);}
	.st118{fill:none;stroke:#010101;stroke-miterlimit:10;}
	.st119{fill:#010101;stroke:#000000;stroke-miterlimit:10;}
	.st120{clip-path:url(#SVGID_00000059989042803631724580000014237670247077194942_);}
	.st121{fill:#010101;stroke:#010101;stroke-miterlimit:10;}
	.st122{clip-path:url(#SVGID_00000174595626679467591030000011546762300811933573_);}
	.st123{clip-path:url(#SVGID_00000122680520415802073400000016474184358020737715_);}
	.st124{clip-path:url(#SVGID_00000181076111835231832940000006102307592869211811_);}
	.st125{clip-path:url(#SVGID_00000024709980927965595210000002435227918433322890_);}
	.st126{clip-path:url(#SVGID_00000052106226590096350710000008920788461437070249_);}
	.st127{fill:none;stroke:#000000;stroke-width:3;stroke-miterlimit:10;}
	.st128{clip-path:url(#SVGID_00000121281777460724414880000001183949214292166553_);}
	.st129{clip-path:url(#SVGID_00000075856697351446038630000005314675449598463133_);}
	.st130{clip-path:url(#SVGID_00000016776466537616722190000011933055826528327826_);}
	.st131{clip-path:url(#SVGID_00000160895179161526672720000008576974827477519248_);}
	.st132{fill:#040606;}
	.st133{clip-path:url(#SVGID_00000163752616792403650620000012164661586675424659_);}
	.st134{clip-path:url(#SVGID_00000145758496543875053370000016141122887656167579_);}
	.st135{clip-path:url(#SVGID_00000040540163366915949780000015614532635029400241_);}
	.st136{clip-path:url(#SVGID_00000012441197051814488940000015385269590822045824_);}
	.st137{clip-path:url(#SVGID_00000093889056092660434110000011280357136932643762_);}
	.st138{clip-path:url(#SVGID_00000046303492266099676850000008592483146649908921_);}
	.st139{clip-path:url(#SVGID_00000066485658145157924290000014822157363600438705_);}
	.st140{fill:#FFFFFF;stroke:#000000;stroke-width:1.5;stroke-miterlimit:10;}
	.st141{clip-path:url(#SVGID_00000176030142181221282870000016457967048458665391_);}
	.st142{fill:#BDBCBC;}
	.st143{clip-path:url(#SVGID_00000129178660303953024690000002768789042357907860_);}
	.st144{fill:#2E2A2B;}
	.st145{clip-path:url(#SVGID_00000152955314519449214720000018285460344255998084_);}
	.st146{clip-path:url(#SVGID_00000085943975626804861630000002757384764363096967_);}
	.st147{clip-path:url(#SVGID_00000138574433431249961110000011654795214643829385_);}
	.st148{clip-path:url(#SVGID_00000156578490324973425110000002082010886721943168_);}
	.st149{clip-path:url(#SVGID_00000016788964409047124620000012799619556768236955_);}
	.st150{fill:#272324;}
	.st151{clip-path:url(#SVGID_00000137855163003112950160000007341647881836423053_);}
	.st152{clip-path:url(#SVGID_00000159455584526946599400000018033980474397775511_);}
	.st153{clip-path:url(#SVGID_00000140698907246383647210000018223295651809362076_);}
	.st154{clip-path:url(#SVGID_00000178903322192400999890000011078240826958915228_);}
	.st155{clip-path:url(#SVGID_00000036965236168708530170000000384662498912091794_);}
	.st156{clip-path:url(#SVGID_00000003098368208025306430000006928618993472160440_);}
	.st157{fill:none;stroke:#000000;stroke-width:0.8735;stroke-linecap:round;stroke-linejoin:round;stroke-miterlimit:10;}
	.st158{clip-path:url(#SVGID_00000106136687128287819150000010408457850625355430_);}
	.st159{clip-path:url(#SVGID_00000142139133458458370370000011276177888728352145_);}
	.st160{clip-path:url(#SVGID_00000031905519291481639050000004771200968604805803_);}
	.st161{clip-path:url(#SVGID_00000176737467442972698680000010124566926766634892_);}
	.st162{clip-path:url(#SVGID_00000115473552265669319060000003734322317907166336_);}
	.st163{clip-path:url(#SVGID_00000109011826712345184070000005264877276892691078_);}
	.st164{clip-path:url(#SVGID_00000173145930001916498410000004829619953944924841_);}
	.st165{clip-path:url(#SVGID_00000015314327448434165760000012369317620766425274_);}
	.st166{clip-path:url(#SVGID_00000183237472415769340130000010339659928026474672_);}
	.st167{clip-path:url(#SVGID_00000044171865645433603760000008345809936103729290_);}
	.st168{clip-path:url(#SVGID_00000182513077678566361940000007265946617162546576_);}
	.st169{clip-path:url(#SVGID_00000020396575063928616510000003814526803273495195_);}
	.st170{clip-path:url(#SVGID_00000031906227520728981330000013135277702169032330_);}
	.st171{clip-path:url(#SVGID_00000070800811265816566540000010274126272424005821_);}
	.st172{clip-path:url(#SVGID_00000018220743287029258780000018120330055645647758_);}
	.st173{clip-path:url(#SVGID_00000087377387765295904130000013943133912326362526_);}
	.st174{clip-path:url(#SVGID_00000100342532772473136310000005555440190808265090_);}
	.st175{clip-path:url(#SVGID_00000064348860461866822810000016940667280234903437_);}
	.st176{clip-path:url(#SVGID_00000013180323285199045130000002001076227461776773_);}
	.st177{clip-path:url(#SVGID_00000129916984034370915410000004547982297601386649_);}
	.st178{clip-path:url(#SVGID_00000165199877216279099710000007610710249516860341_);}
	.st179{clip-path:url(#SVGID_00000160156627768598033380000018270601169131208876_);}
	.st180{clip-path:url(#SVGID_00000124124042918690636570000000898300419128912055_);}
	.st181{clip-path:url(#SVGID_00000086667193710783816320000003734974145933392055_);}
	.st182{clip-path:url(#SVGID_00000053514334163203086650000010906938076182460089_);}
	.st183{clip-path:url(#SVGID_00000024700002266461246910000004619443721249993380_);}
	.st184{clip-path:url(#SVGID_00000038385558841605785250000016509815563000799369_);}
	.st185{clip-path:url(#SVGID_00000090981877792876641400000001175812557387689371_);}
	.st186{clip-path:url(#SVGID_00000055684841116751415030000013578679510048456100_);}
	.st187{clip-path:url(#SVGID_00000004540389136171416050000011133559825279786405_);}
	.st188{clip-path:url(#SVGID_00000171709854159517974200000000393069931442046374_);}
	.st189{clip-path:url(#SVGID_00000063607505514394722090000001328735728913057940_);}
	.st190{clip-path:url(#SVGID_00000029750233000756605870000006267492513011922306_);}
	.st191{clip-path:url(#SVGID_00000031905948673698327080000017185837155071886260_);}
	.st192{clip-path:url(#SVGID_00000142884984740699090350000016568369741389019803_);}
	.st193{clip-path:url(#SVGID_00000049215592386400885620000017470890602914857398_);}
	.st194{clip-path:url(#SVGID_00000134209349761058309770000014164166959554187402_);}
	.st195{clip-path:url(#SVGID_00000041996037777767689620000011545091668724906937_);}
	.st196{fill:#E5E5E5;}
	.st197{fill:#1D1D1B;}
	.st198{fill:none;stroke:#000000;stroke-miterlimit:10;}
	.st199{fill:#FEFEFE;stroke:#000000;stroke-miterlimit:10;}
	.st200{clip-path:url(#SVGID_00000152259635651417988930000000323245684362417306_);}
	.st201{clip-path:url(#SVGID_00000048489487821269299170000006169663821313185981_);}
	.st202{clip-path:url(#SVGID_00000049911306863363508070000008627277997066672257_);}
	.st203{fill:#231F1F;}
	.st204{fill:#020000;}
	.st205{clip-path:url(#SVGID_00000045608307310806232930000002236408404578247863_);}
	.st206{clip-path:url(#SVGID_00000163794233611513488310000007331387015658884773_);}
	.st207{clip-path:url(#SVGID_00000022533495867835861850000014438194478689727423_);}
	.st208{clip-path:url(#SVGID_00000005986793568432832480000010208916607206739371_);}
	.st209{fill:#050000;}
	.st210{clip-path:url(#SVGID_00000083090806849307781700000018211340566207490691_);}
	.st211{clip-path:url(#SVGID_00000103256312417541926160000011166456641565971848_);}
	.st212{clip-path:url(#SVGID_00000058569414249985088890000005605315633144271275_);}
	.st213{clip-path:url(#SVGID_00000076565283397792266000000011220829126567429524_);}
	.st214{clip-path:url(#SVGID_00000141419491784757312920000015140086816373702079_);}
	.st215{clip-path:url(#SVGID_00000086652498397378536140000005117612967478299279_);}
	.st216{fill:#12100F;}
	.st217{clip-path:url(#SVGID_00000081605620454231955220000001022236192755082676_);}
	.st218{clip-path:url(#SVGID_00000044867521741372352600000003150122547073463971_);}
	.st219{fill:none;stroke:#000000;stroke-width:0.5;stroke-miterlimit:10;}
	.st220{clip-path:url(#SVGID_00000150070788662517725130000008693258830389815425_);}
	.st221{clip-path:url(#SVGID_00000065062523174635747570000017725430100505835404_);}
	.st222{clip-path:url(#SVGID_00000127036501716737884590000012442064354030011566_);}
	.st223{clip-path:url(#SVGID_00000083767499077222181520000003619402570459344057_);}
	.st224{fill:none;stroke:#000000;stroke-width:0.25;stroke-miterlimit:10;}
	.st225{clip-path:url(#SVGID_00000102519406705414601560000016732574918238609068_);}
	.st226{clip-path:url(#SVGID_00000034082918337963285360000013586462239101555113_);}
	.st227{clip-path:url(#SVGID_00000090259091005393832530000007559989167268533938_);}
</style>
<g>
	<defs>
		<rect id="SVGID_00000090977238031518776140000012332648982492264097_" x="13.77" y="5.71" width="18.86" height="39.64"/>
	</defs>
	<clipPath id="SVGID_00000007409548418713743060000011100289773300993180_">
		<use xlink:href="#SVGID_00000090977238031518776140000012332648982492264097_"  style="overflow:visible;"/>
	</clipPath>
	<g style="clip-path:url(#SVGID_00000007409548418713743060000011100289773300993180_);">
		<path d="M31.02,7.74c-0.48-0.81-1.42-0.99-2.42-1.17c-0.8-0.15-1.63-0.3-2.23-0.79c-0.01-0.01-0.02-0.01-0.03-0.01
			c-0.02-0.02-0.05-0.03-0.08-0.04c-0.02-0.01-0.03-0.01-0.05-0.01c-0.03,0-0.06,0-0.09,0c-0.01,0-0.03,0-0.04,0c0,0-0.01,0-0.01,0
			c0,0-0.01,0-0.01,0c-1.98,0.69-3.91,0.69-5.74,0c-0.01,0-0.01,0-0.02,0s-0.01,0-0.01-0.01c-0.01,0-0.02,0-0.03,0
			c-0.03,0-0.06,0-0.09,0c-0.02,0-0.03,0.01-0.05,0.01c-0.03,0.01-0.06,0.02-0.08,0.04c-0.01,0-0.02,0.01-0.03,0.01
			c-0.61,0.49-1.43,0.64-2.23,0.79c-1,0.19-1.95,0.36-2.43,1.17c-1.01,1.73-1.48,22.52-1.53,24.89c0,0.06,0.02,0.13,0.05,0.18
			c0.5,0.76,1.28,1.14,2.37,1.14c0.11,0,0.23,0,0.35-0.01c-0.03,3.49-0.11,6.86-0.35,7.67c-0.19,0.64-0.66,1.36-1.35,2.09
			c-0.28,0.29-0.35,0.69-0.19,1.06c0.16,0.37,0.5,0.6,0.9,0.6h15.17c0.4,0,0.75-0.23,0.9-0.6c0.16-0.37,0.08-0.77-0.19-1.06
			c-0.7-0.73-1.17-1.45-1.35-2.09c-0.24-0.8-0.31-4.18-0.35-7.67c0.12,0.01,0.24,0.01,0.35,0.01c1.09,0,1.87-0.38,2.37-1.14
			c0.04-0.05,0.05-0.11,0.05-0.18C32.5,30.27,32.04,9.48,31.02,7.74z M30.48,8.06c0.63,1.07,1.13,12.45,1.37,21.44
			c-0.53,0.45-1.26,0.69-2.1,0.71c-0.02-2.59-0.04-4.96-0.11-6.11c-0.2-3.02-1.16-6.52-1.27-6.94v-3.37c0-0.15,0.02-0.29,0.07-0.43
			l0.94-3.08c0.05-0.17-0.04-0.34-0.21-0.39c-0.16-0.05-0.34,0.04-0.39,0.21l-0.94,3.08c-0.06,0.2-0.09,0.41-0.09,0.62v1.24h-1.9
			l2.33-7.89c0.1,0.02,0.21,0.04,0.31,0.06C29.37,7.36,30.15,7.5,30.48,8.06z M24.96,44.72c-0.43,0-0.77-0.34-0.78-0.76l-0.67-26.44
			h1.36c0.05,2.99,0.45,24.61,0.71,25.76c0.14,0.63,0.39,1.11,0.61,1.44H24.96z M20.18,44.72c0.22-0.33,0.47-0.82,0.61-1.44
			c0.26-1.15,0.66-22.78,0.71-25.76h1.36l-0.67,26.44c-0.01,0.43-0.35,0.76-0.78,0.76H20.18z M22.82,43.97l0.36-14.31l0.36,14.31
			c0.01,0.28,0.1,0.53,0.24,0.75h-1.2C22.73,44.51,22.82,44.25,22.82,43.97z M18.63,16.89v-1.24h2.32c0,0,0,0,0,0h4.47c0,0,0,0,0,0
			h2.32v1.24H18.63z M23.59,15.02c0.73-2.99,1.64-5.85,2.72-8.52c0.39,0.24,0.82,0.38,1.25,0.49l-2.37,8.03H23.59z M23.19,14.03
			c-0.53-2.08-1.16-4.09-1.87-6.02h3.74C24.34,9.94,23.72,11.95,23.19,14.03z M20.07,6.51c1.08,2.67,1.99,5.53,2.72,8.52h-1.6
			L18.82,7C19.25,6.89,19.68,6.74,20.07,6.51z M25.63,6.52c-0.11,0.29-0.23,0.57-0.34,0.86h-4.21c-0.11-0.28-0.22-0.57-0.33-0.85
			c0.78,0.23,1.57,0.34,2.38,0.34C23.95,6.88,24.79,6.75,25.63,6.52z M15.89,8.06c0.33-0.56,1.1-0.71,2-0.87
			c0.1-0.02,0.2-0.04,0.31-0.06l2.33,7.89h-1.9v-1.24c0-0.21-0.03-0.42-0.09-0.62l-0.94-3.08c-0.05-0.17-0.23-0.26-0.39-0.21
			c-0.17,0.05-0.26,0.23-0.21,0.39l0.94,3.08C17.98,13.5,18,13.64,18,13.79v3.37c-0.12,0.42-1.07,3.92-1.27,6.94
			c-0.08,1.15-0.1,3.53-0.11,6.11c-0.84-0.01-1.57-0.26-2.1-0.71C14.76,20.52,15.26,9.14,15.89,8.06z M14.45,32.54
			c0.02-0.73,0.03-1.49,0.05-2.27c0.59,0.36,1.31,0.56,2.11,0.57c0,0.8-0.01,1.63-0.02,2.46C15.57,33.38,14.88,33.14,14.45,32.54z
			 M15.28,44.51c-0.02-0.05-0.08-0.22,0.07-0.38c0.78-0.81,1.28-1.6,1.5-2.35c0.33-1.13,0.36-6.13,0.39-10.97
			c0.02-2.8,0.03-5.45,0.12-6.67c0.18-2.68,0.97-5.77,1.2-6.62h2.31c-0.13,7.11-0.48,24.68-0.7,25.62c-0.2,0.85-0.62,1.39-0.79,1.58
			H15.6C15.38,44.72,15.3,44.56,15.28,44.51z M31.02,44.13c0.15,0.15,0.09,0.33,0.07,0.38c-0.02,0.05-0.11,0.21-0.32,0.21h-3.79
			c-0.17-0.19-0.59-0.72-0.79-1.58c-0.22-0.94-0.57-18.51-0.7-25.62h2.31c0.23,0.85,1.02,3.94,1.2,6.62
			c0.08,1.22,0.1,3.86,0.12,6.67c0.03,4.84,0.06,9.84,0.39,10.97C29.74,42.53,30.25,43.32,31.02,44.13z M29.77,33.3
			c-0.01-0.83-0.01-1.66-0.02-2.46c0.8-0.01,1.53-0.21,2.11-0.57c0.02,0.78,0.04,1.54,0.05,2.27C31.49,33.14,30.8,33.38,29.77,33.3z
			"/>
	</g>
</g>
</svg>
