<?xml version="1.0" encoding="utf-8"?>
<!-- Generator: Adobe Illustrator 27.3.1, SVG Export Plug-In . SVG Version: 6.00 Build 0)  -->
<svg version="1.1" id="Layer_1" xmlns="http://www.w3.org/2000/svg" xmlns:xlink="http://www.w3.org/1999/xlink" x="0px" y="0px"
	 viewBox="0 0 50 50" style="enable-background:new 0 0 50 50;" xml:space="preserve">
<style type="text/css">
	.st0{fill:none;}
	.st1{stroke:#000000;stroke-miterlimit:10;}
	.st2{stroke:#000000;stroke-width:0.75;stroke-miterlimit:10;}
	.st3{clip-path:url(#SVGID_00000081627584100063353920000002159393973014998961_);}
	.st4{clip-path:url(#SVGID_00000158742382247921017790000014646057100815513753_);}
	.st5{fill:#FFFFFF;}
	.st6{clip-path:url(#SVGID_00000132808784252990019690000000940677791532517024_);}
	.st7{fill:#231F20;}
	.st8{clip-path:url(#SVGID_00000039132796752387542180000012094897469324579998_);}
	.st9{clip-path:url(#SVGID_00000147922676557976590510000004959247512426484143_);}
	.st10{clip-path:url(#SVGID_00000143580131973378309030000000634111520414713481_);}
	.st11{clip-path:url(#SVGID_00000096755407579800784860000001225118021652222374_);}
	.st12{clip-path:url(#SVGID_00000153670508581566472150000006871883784567714954_);}
	.st13{clip-path:url(#SVGID_00000123420917026631280450000006270626434377456799_);}
	.st14{clip-path:url(#SVGID_00000114759661822845687040000016753133831731441035_);}
	.st15{clip-path:url(#SVGID_00000087373705173302536930000008649532939054234247_);}
	.st16{clip-path:url(#SVGID_00000138568069518853197920000015265671165361726370_);}
	.st17{clip-path:url(#SVGID_00000113344132659054312130000001989725308150648214_);}
	.st18{clip-path:url(#SVGID_00000183939888433662482190000010689501849050570881_);}
	.st19{clip-path:url(#SVGID_00000037680449097878195010000003334554948019664303_);}
	.st20{clip-path:url(#SVGID_00000047775609365788590370000002503202430336412056_);}
	.st21{clip-path:url(#SVGID_00000115514084326416266270000010000304811683339139_);}
	.st22{clip-path:url(#SVGID_00000043437208300132674900000007138292679351293367_);}
	.st23{clip-path:url(#SVGID_00000013190076241464043790000007637554866757285019_);}
	.st24{clip-path:url(#SVGID_00000013879105551846639880000012938426564673784726_);}
	.st25{clip-path:url(#SVGID_00000026131008104386252000000014120528637119324832_);}
	.st26{clip-path:url(#SVGID_00000016074900218891149230000009696816772704514734_);}
	.st27{clip-path:url(#SVGID_00000067916886847024362590000008294270700257052564_);}
	.st28{clip-path:url(#SVGID_00000123428770272303033060000009160805701549155754_);}
	.st29{clip-path:url(#SVGID_00000112618970178965406930000006317832057642247053_);}
	.st30{clip-path:url(#SVGID_00000054246897577633602330000001883259953360703165_);}
	.st31{fill-rule:evenodd;clip-rule:evenodd;}
	.st32{clip-path:url(#SVGID_00000045592409472886341780000007559624575363612079_);}
	.st33{clip-path:url(#SVGID_00000168830299341014586060000006267118817734408091_);}
	.st34{stroke:#000000;stroke-width:0.5;stroke-miterlimit:10;}
	.st35{clip-path:url(#SVGID_00000143612494718716007740000009262294934397453201_);}
	.st36{clip-path:url(#SVGID_00000020394495475716925350000015147190579000385666_);}
	.st37{clip-path:url(#SVGID_00000052794653395368693350000011853336630461054126_);}
	.st38{fill:#1A1A1A;}
	.st39{clip-path:url(#SVGID_00000160895882577768595060000006072455664843675018_);}
	.st40{clip-path:url(#SVGID_00000177482993214786482050000010858587404305901996_);}
	.st41{clip-path:url(#SVGID_00000038393262375104520540000010618048156290293428_);}
	.st42{clip-path:url(#SVGID_00000129165021352994574910000013361560692596795042_);}
	.st43{clip-path:url(#SVGID_00000073691899341416004590000008220071787576185493_);}
	.st44{clip-path:url(#SVGID_00000093885894832198368660000015951940827578440337_);}
	.st45{clip-path:url(#SVGID_00000006667257232665701150000008535606881626635185_);}
	.st46{clip-path:url(#SVGID_00000045612773118485228320000004997322238972462235_);}
	.st47{clip-path:url(#SVGID_00000008128458038044404030000016787383425383268538_);}
	.st48{fill:#F1F1F1;}
	.st49{fill:#E8E8E8;}
	.st50{fill:#FEFEFE;}
	.st51{fill:#CCCCCC;}
	.st52{fill:#B3B3B3;}
	.st53{fill:#E6E6E6;}
	.st54{fill:#EBEBEB;}
	.st55{fill:#EEEEEE;}
	.st56{fill:#F8F8F8;}
	.st57{fill:#FBFBFB;}
	.st58{fill:#383838;}
	.st59{fill:#232323;}
	.st60{fill:#F6F6F6;}
	.st61{fill:#535353;}
	.st62{fill:#0A0A0A;}
	.st63{fill:#F5F5F5;}
	.st64{fill:#818181;}
	.st65{fill:#4A4A4A;}
	.st66{fill:#999999;}
	.st67{fill:url(#SVGID_00000010311187401998803970000016719040489800748206_);}
	.st68{fill:url(#SVGID_00000134949963771590775400000004941330122420508036_);}
	.st69{fill:#0E0E0D;}
	.st70{fill:#333333;}
	.st71{fill:#808080;}
	.st72{fill:url(#SVGID_00000179627359807846680730000013127345706639334590_);}
	.st73{fill:#666666;}
	.st74{fill:url(#SVGID_00000021834777572750300430000008710783934371317663_);}
	.st75{fill:url(#SVGID_00000139292326767689959200000007043575181660327559_);}
	.st76{fill:url(#SVGID_00000106138794689168812070000018229829727053778840_);}
	.st77{fill:url(#SVGID_00000180329401992434111150000008846517480616723388_);}
	.st78{fill:url(#SVGID_00000165217448658070715300000008708517496261530508_);}
	.st79{clip-path:url(#SVGID_00000099632257313148320730000012932136175703723915_);}
	.st80{clip-path:url(#SVGID_00000080897242116048294180000005524776194242131377_);}
	.st81{clip-path:url(#SVGID_00000129198770529032551850000009158415521778902401_);}
	.st82{clip-path:url(#SVGID_00000131362052095007362980000013525537034721583033_);}
	.st83{clip-path:url(#SVGID_00000156577125352559242790000007954826609956363397_);}
	.st84{fill:#241F20;stroke:#000000;stroke-width:0.5;stroke-miterlimit:10;}
	.st85{clip-path:url(#SVGID_00000133493356397709783190000018219243257441455002_);}
	.st86{clip-path:url(#SVGID_00000175280730952793038830000004991472278388209826_);}
	.st87{clip-path:url(#SVGID_00000055688065371629052070000008620851044171637694_);}
	.st88{clip-path:url(#SVGID_00000123431182633272491980000007863329739527439014_);}
	.st89{clip-path:url(#SVGID_00000151512193280970559340000003098490082989641615_);}
	.st90{clip-path:url(#SVGID_00000042735640862631283340000012633021095844042123_);}
	.st91{clip-path:url(#SVGID_00000114065596972076376790000017929705615163319224_);}
	.st92{clip-path:url(#SVGID_00000063601835842926324700000001435500987189355650_);}
	.st93{clip-path:url(#SVGID_00000110455910769192880640000001012429159709446798_);}
	.st94{clip-path:url(#SVGID_00000017500652478427717040000008205060423202162576_);}
	.st95{clip-path:url(#SVGID_00000040555103361373998010000012869349868018096299_);}
	.st96{clip-path:url(#SVGID_00000045618022857583494220000017885066869274370195_);}
	.st97{clip-path:url(#SVGID_00000172441921444734935380000015477549805693735837_);}
	.st98{clip-path:url(#SVGID_00000021804941268463039530000009307244008059106444_);}
	.st99{clip-path:url(#SVGID_00000105399936916329680790000014520259894540983946_);}
	.st100{clip-path:url(#SVGID_00000083075022445849297640000002088092458190367160_);}
	.st101{clip-path:url(#SVGID_00000042005716613194590900000006608068195740907182_);}
	.st102{clip-path:url(#SVGID_00000087384238542076342020000016835740374724270480_);}
	.st103{clip-path:url(#SVGID_00000163755391475098282160000009385721577971125934_);}
	.st104{clip-path:url(#SVGID_00000005245924724447612000000014153405644833309845_);}
	.st105{clip-path:url(#SVGID_00000021816388597211277850000009588127228545566624_);}
	.st106{clip-path:url(#SVGID_00000158715875956671519430000005337014229524056469_);}
	.st107{clip-path:url(#SVGID_00000048464881824766930440000005954427619365722301_);}
	.st108{clip-path:url(#SVGID_00000068663513277236715480000000309702425591336600_);}
	.st109{clip-path:url(#SVGID_00000000909810437600900270000006666696082765823156_);}
	.st110{clip-path:url(#SVGID_00000013180719500498285170000006524850774788065206_);}
	.st111{clip-path:url(#SVGID_00000059280930011780770280000006701179050885665188_);}
	.st112{clip-path:url(#SVGID_00000016780548887095867070000017049222045661647791_);}
	.st113{clip-path:url(#SVGID_00000014627087366685018910000012533512631034880675_);}
	.st114{clip-path:url(#SVGID_00000120518592404214914220000011965447029272688548_);}
	.st115{fill:#FFFFFF;stroke:#000000;stroke-miterlimit:10;}
	.st116{clip-path:url(#SVGID_00000018205885897913940710000017389354721675889328_);}
	.st117{clip-path:url(#SVGID_00000100355467457635249440000002147659388582795186_);}
	.st118{fill:none;stroke:#010101;stroke-miterlimit:10;}
	.st119{fill:#010101;stroke:#000000;stroke-miterlimit:10;}
	.st120{clip-path:url(#SVGID_00000043426022550077844820000006866424525785133732_);}
	.st121{fill:#010101;stroke:#010101;stroke-miterlimit:10;}
	.st122{clip-path:url(#SVGID_00000087397790297794755710000011868335492669408167_);}
	.st123{clip-path:url(#SVGID_00000160902887314105565360000005077182748206921636_);}
	.st124{clip-path:url(#SVGID_00000098218396324092605540000006595463492703490485_);}
	.st125{clip-path:url(#SVGID_00000096026684764125868860000004036139491304208805_);}
	.st126{clip-path:url(#SVGID_00000169544192201129194250000001597048376691636370_);}
	.st127{fill:none;stroke:#000000;stroke-width:3;stroke-miterlimit:10;}
	.st128{clip-path:url(#SVGID_00000145768792362694409770000000094564526778076842_);}
	.st129{clip-path:url(#SVGID_00000152969576173543785290000015334372431227440023_);}
	.st130{clip-path:url(#SVGID_00000007413567858968711970000008525875855907382669_);}
	.st131{clip-path:url(#SVGID_00000166648497621103665540000001343341739687303042_);}
	.st132{fill:#040606;}
	.st133{clip-path:url(#SVGID_00000097486773476561378660000017582967932341769870_);}
	.st134{clip-path:url(#SVGID_00000124848813925675515700000005402171225855385493_);}
	.st135{clip-path:url(#SVGID_00000139266018817211600500000003092833941410192528_);}
	.st136{clip-path:url(#SVGID_00000022547517636786416670000005458962577729608113_);}
	.st137{clip-path:url(#SVGID_00000067218636722839605860000013574538847901367206_);}
	.st138{clip-path:url(#SVGID_00000035498822899421477410000001016468130166954115_);}
	.st139{clip-path:url(#SVGID_00000044871976511323675370000003858821989366062527_);}
	.st140{fill:#FFFFFF;stroke:#000000;stroke-width:1.5;stroke-miterlimit:10;}
	.st141{clip-path:url(#SVGID_00000160163314718153776650000007471201557199377300_);}
	.st142{fill:#BDBCBC;}
	.st143{clip-path:url(#SVGID_00000002354697278635274750000017344986388888498592_);}
	.st144{fill:#2E2A2B;}
	.st145{clip-path:url(#SVGID_00000055681681266435103370000013414361661137220266_);}
	.st146{clip-path:url(#SVGID_00000106834094859938373190000008992909311419628984_);}
	.st147{clip-path:url(#SVGID_00000173882734770730215260000009329894818018699176_);}
	.st148{clip-path:url(#SVGID_00000039836516906617698300000016612701406487214261_);}
	.st149{clip-path:url(#SVGID_00000144328646879198759710000005823843007505200794_);}
	.st150{fill:#272324;}
	.st151{clip-path:url(#SVGID_00000071525724356950438670000016376415455178558081_);}
	.st152{clip-path:url(#SVGID_00000038395065898395447550000008724634486392998297_);}
	.st153{clip-path:url(#SVGID_00000111174109190707654130000011968174151297202359_);}
	.st154{clip-path:url(#SVGID_00000044160153126593482840000009171656077515165333_);}
	.st155{clip-path:url(#SVGID_00000153663339890133577620000011588169500892899980_);}
	.st156{clip-path:url(#SVGID_00000061458458392718199490000009012235426611681408_);}
	.st157{fill:none;stroke:#000000;stroke-width:0.8735;stroke-linecap:round;stroke-linejoin:round;stroke-miterlimit:10;}
	.st158{clip-path:url(#SVGID_00000098941990613594069870000006790742438516555453_);}
	.st159{clip-path:url(#SVGID_00000129884032956164591680000002700646552735191169_);}
	.st160{clip-path:url(#SVGID_00000005953459111461743650000010247889811562128777_);}
	.st161{clip-path:url(#SVGID_00000054260581599542781180000000408608034109022342_);}
	.st162{clip-path:url(#SVGID_00000164492307768441355730000003829870643658589078_);}
	.st163{clip-path:url(#SVGID_00000041259313258822501800000015353309567878266550_);}
	.st164{clip-path:url(#SVGID_00000013193514402363203830000009019883908183265669_);}
	.st165{clip-path:url(#SVGID_00000121979180488450501970000010246761709836956850_);}
	.st166{clip-path:url(#SVGID_00000137132144579272488170000000053662884665880476_);}
	.st167{clip-path:url(#SVGID_00000082341370655292738570000010246680564876169093_);}
	.st168{clip-path:url(#SVGID_00000124860781407562780690000013773961059821173156_);}
	.st169{clip-path:url(#SVGID_00000083770900352135418670000008778766901857183362_);}
	.st170{clip-path:url(#SVGID_00000080911731824634472720000008006887592989682068_);}
	.st171{clip-path:url(#SVGID_00000011012241690650939650000004719884330172490382_);}
	.st172{clip-path:url(#SVGID_00000066506918490870705690000000499589395831075751_);}
	.st173{clip-path:url(#SVGID_00000080194912592847316820000015901141861768488104_);}
	.st174{clip-path:url(#SVGID_00000101100959509325721120000002813000301487739299_);}
	.st175{clip-path:url(#SVGID_00000170999746991072387270000010015184728544162185_);}
	.st176{clip-path:url(#SVGID_00000086675641799110682200000005960734847628569240_);}
	.st177{clip-path:url(#SVGID_00000160877561741794300310000001529536292565896339_);}
	.st178{clip-path:url(#SVGID_00000085958813716581067760000012389680929659044280_);}
	.st179{clip-path:url(#SVGID_00000150075400240073510940000018072727850172967303_);}
	.st180{clip-path:url(#SVGID_00000142888959160869505020000007565774019125689488_);}
	.st181{clip-path:url(#SVGID_00000090253363244962867000000009598910992771192966_);}
	.st182{clip-path:url(#SVGID_00000107583386076958670590000013834603600353926801_);}
	.st183{clip-path:url(#SVGID_00000150102036319760516600000005109189168194635395_);}
	.st184{clip-path:url(#SVGID_00000032623720230596479480000018109706561990523066_);}
	.st185{clip-path:url(#SVGID_00000138536611958727506370000012103172425186987913_);}
	.st186{clip-path:url(#SVGID_00000062886625405751891230000000615094023807318961_);}
	.st187{clip-path:url(#SVGID_00000098211874079419849160000016686864346529025426_);}
	.st188{clip-path:url(#SVGID_00000047751226991132286840000015398886225433428918_);}
	.st189{clip-path:url(#SVGID_00000023276693764795737640000000623908785676977342_);}
	.st190{clip-path:url(#SVGID_00000114788302417903403160000011514343911708361617_);}
	.st191{clip-path:url(#SVGID_00000057847996851026153880000002521899486003604131_);}
	.st192{clip-path:url(#SVGID_00000118389406566228354160000012068957798882225322_);}
	.st193{clip-path:url(#SVGID_00000133521763010231494600000017441570430931790484_);}
	.st194{clip-path:url(#SVGID_00000027564000984397749910000013723668699739340479_);}
	.st195{clip-path:url(#SVGID_00000137830245028589559230000010099227129700177081_);}
	.st196{fill:#E5E5E5;}
	.st197{fill:#1D1D1B;}
	.st198{fill:none;stroke:#000000;stroke-miterlimit:10;}
	.st199{fill:#FEFEFE;stroke:#000000;stroke-miterlimit:10;}
	.st200{clip-path:url(#SVGID_00000121279875107335995870000014814680508372036237_);}
	.st201{clip-path:url(#SVGID_00000117644599583748163290000008115510427647758737_);}
	.st202{clip-path:url(#SVGID_00000159437858154045604190000002396088273892754081_);}
	.st203{fill:#231F1F;}
	.st204{fill:#020000;}
	.st205{clip-path:url(#SVGID_00000073687323893996077090000017042889383352130953_);}
	.st206{clip-path:url(#SVGID_00000042016148961322951010000017417190110403605686_);}
	.st207{clip-path:url(#SVGID_00000015348639947722917640000016654103144878191234_);}
	.st208{clip-path:url(#SVGID_00000155863651714573392060000007327769678146708910_);}
	.st209{fill:#050000;}
	.st210{clip-path:url(#SVGID_00000014604396797755728170000003053342120331473814_);}
	.st211{clip-path:url(#SVGID_00000069370949159774938880000016007743190714278540_);}
	.st212{clip-path:url(#SVGID_00000042713210645761434320000012517760701338627726_);}
	.st213{clip-path:url(#SVGID_00000132089609353609315350000001209972207264441251_);}
	.st214{clip-path:url(#SVGID_00000108301342163684099350000010652510209020085437_);}
	.st215{clip-path:url(#SVGID_00000008149020983973553990000006635998071228755639_);}
	.st216{fill:#12100F;}
	.st217{clip-path:url(#SVGID_00000042709550397389633770000002289996146879501986_);}
	.st218{clip-path:url(#SVGID_00000027587584568175946300000010976696004876532924_);}
	.st219{fill:none;stroke:#000000;stroke-width:0.5;stroke-miterlimit:10;}
	.st220{clip-path:url(#SVGID_00000076599925642939607060000002102876247679439234_);}
	.st221{clip-path:url(#SVGID_00000122698323086437192120000014226985760056757945_);}
	.st222{clip-path:url(#SVGID_00000095308638005468011540000003001817884696973232_);}
	.st223{clip-path:url(#SVGID_00000092449857225583242260000011079430280957074367_);}
	.st224{fill:none;stroke:#000000;stroke-width:0.25;stroke-miterlimit:10;}
	.st225{clip-path:url(#SVGID_00000022526234154491887210000011133027821948981642_);}
	.st226{clip-path:url(#SVGID_00000104684111530606236050000009304956666199233690_);}
	.st227{clip-path:url(#SVGID_00000114038191252115206740000005532164879988942988_);}
</style>
<g>
	<path class="st31" d="M12.5,40.12c-0.05,0-0.09,0-0.11,0.01c-0.2,0.04-0.41,0.16-0.58,0.33c-0.17,0.17-0.3,0.39-0.33,0.58
		c-0.01,0.07-0.03,0.24,0.06,0.33c0.09,0.09,0.26,0.07,0.33,0.06c0.2-0.04,0.41-0.16,0.58-0.33c0.17-0.17,0.29-0.39,0.33-0.58
		c0.01-0.07,0.03-0.24-0.06-0.33C12.66,40.14,12.57,40.12,12.5,40.12z M11.75,42.23c-0.3,0-0.57-0.1-0.77-0.3
		c-0.25-0.25-0.35-0.62-0.28-1.02c0.07-0.35,0.26-0.7,0.55-0.99c0.29-0.29,0.64-0.48,0.99-0.55c0.4-0.08,0.77,0.03,1.02,0.28
		c0.25,0.25,0.35,0.62,0.27,1.02c-0.07,0.36-0.26,0.71-0.54,0.99c-0.29,0.29-0.64,0.48-0.99,0.55
		C11.91,42.22,11.83,42.23,11.75,42.23z"/>
	<path class="st31" d="M19.33,37.6c-0.07,0-0.13-0.02-0.19-0.05c-1.57-0.87-2.92-2.21-3.78-3.79c-0.1-0.19-0.04-0.42,0.15-0.53
		c0.19-0.1,0.42-0.04,0.53,0.15c0.8,1.45,2.04,2.68,3.48,3.48c0.19,0.1,0.25,0.34,0.15,0.53C19.6,37.52,19.46,37.6,19.33,37.6z"/>
	<path class="st31" d="M18.29,38.88c-0.06,0-0.12-0.01-0.18-0.05c-1.7-0.9-3.13-2.33-4.03-4.03c-0.1-0.19-0.03-0.43,0.16-0.53
		c0.19-0.1,0.43-0.03,0.53,0.16c0.82,1.56,2.14,2.88,3.71,3.71c0.19,0.1,0.26,0.33,0.16,0.53C18.56,38.8,18.43,38.88,18.29,38.88z"
		/>
	<g>
		<g>
			<defs>
				<rect id="SVGID_00000121275422830504752900000017741242934322164638_" x="8.75" y="26.33" width="17.24" height="17.75"/>
			</defs>
			<clipPath id="SVGID_00000125568496497011040900000004831779937744925572_">
				<use xlink:href="#SVGID_00000121275422830504752900000017741242934322164638_"  style="overflow:visible;"/>
			</clipPath>
			<g style="clip-path:url(#SVGID_00000125568496497011040900000004831779937744925572_);">
				<path class="st31" d="M20.77,28.79c-0.28,2-1.57,3.65-3.46,4.33c-1.31,0.47-3.21,2.1-4.95,4.25c-1.66,2.05-2.73,4.08-2.68,5.03
					c0.02,0.35,0.46,0.79,0.81,0.81c0.96,0.06,2.98-1.02,5.03-2.68c2.16-1.74,3.79-3.64,4.25-4.95c0.68-1.89,2.33-3.19,4.33-3.46
					L20.77,28.79z M10.56,44c-0.04,0-0.08,0-0.12,0c-0.74-0.05-1.49-0.8-1.54-1.54c-0.16-2.55,5.01-8.95,8.14-10.07
					c1.85-0.66,3.03-2.42,3-4.48c0-0.16,0.09-0.3,0.24-0.36c0.15-0.06,0.32-0.03,0.43,0.08l4.56,4.56c0.11,0.11,0.15,0.28,0.08,0.43
					c-0.06,0.15-0.21,0.24-0.36,0.24c-0.02,0-0.05,0-0.08,0c-2.03,0-3.75,1.17-4.4,3C19.41,38.93,13.19,44,10.56,44z"/>
			</g>
		</g>
		<g>
			<defs>
				<rect id="SVGID_00000163064886830352015310000002338429646301512587_" x="18.75" y="8.24" width="26.18" height="25.33"/>
			</defs>
			<clipPath id="SVGID_00000123417965638660258440000013315379571239809209_">
				<use xlink:href="#SVGID_00000163064886830352015310000002338429646301512587_"  style="overflow:visible;"/>
			</clipPath>
			<g style="clip-path:url(#SVGID_00000123417965638660258440000013315379571239809209_);">
				<path class="st31" d="M35.84,9.11c-0.42,0-0.82,0.11-1.14,0.42L20.96,23.28c-0.38,0.38-0.38,1,0,1.38l7.28,7.28
					c0.38,0.38,1,0.38,1.38,0L43.37,18.2c0.68-0.68,0.42-1.8,0.08-2.62c-0.46-1.12-1.39-2.42-2.55-3.58
					c-1.15-1.15-2.45-2.08-3.58-2.55C36.87,9.28,36.34,9.11,35.84,9.11z M28.93,33.01c-0.45,0-0.9-0.17-1.24-0.51l-7.28-7.28
					c-0.68-0.68-0.68-1.8,0-2.48L34.15,8.99c0.55-0.54,1.59-1.03,3.47-0.25c1.23,0.51,2.59,1.47,3.83,2.72
					c1.24,1.24,2.21,2.6,2.72,3.83c0.78,1.88,0.3,2.92-0.25,3.47L30.17,32.5C29.83,32.84,29.38,33.01,28.93,33.01z"/>
			</g>
		</g>
		<path class="st31" d="M25.93,33.47c-0.31,0-0.6-0.12-0.82-0.34l-5.33-5.34c-0.22-0.22-0.34-0.51-0.34-0.82s0.12-0.6,0.34-0.82
			l1.06-1.06c0.15-0.15,0.4-0.15,0.55,0c0.16,0.16,0.16,0.4,0,0.55l-1.06,1.06c-0.07,0.08-0.11,0.17-0.11,0.27s0.04,0.2,0.11,0.27
			l5.34,5.34c0.07,0.07,0.17,0.11,0.27,0.11s0.2-0.04,0.27-0.11l1.06-1.06c0.15-0.15,0.4-0.15,0.55,0c0.15,0.15,0.15,0.4,0,0.55
			l-1.06,1.06C26.54,33.35,26.24,33.47,25.93,33.47z"/>
		<path class="st31" d="M33.1,23.82c-0.05,0-0.1-0.01-0.15-0.03c-2.45-1.02-2.06-2.54-1.72-3.88c0.22-0.85,0.43-1.66,0.04-2.45
			c-0.1-0.19-0.02-0.43,0.17-0.52s0.42-0.02,0.52,0.17c0.52,1.05,0.25,2.08,0.01,2.99c-0.34,1.33-0.57,2.21,1.26,2.97
			c0.2,0.08,0.29,0.31,0.21,0.51C33.41,23.73,33.26,23.82,33.1,23.82z"/>
		<path class="st31" d="M29.61,14.46c-0.88,0-1.73-0.41-2.38-1.97c-0.08-0.2,0.01-0.42,0.21-0.51c0.2-0.08,0.43,0.01,0.51,0.21
			c0.76,1.82,1.64,1.6,2.97,1.25c0.91-0.23,1.95-0.5,2.99,0.02c0.19,0.1,0.27,0.33,0.17,0.52c-0.1,0.19-0.33,0.27-0.52,0.17
			c-0.78-0.39-1.59-0.18-2.45,0.04C30.62,14.33,30.11,14.46,29.61,14.46z"/>
		<path class="st31" d="M40.73,25.54c-0.05,0-0.1-0.01-0.15-0.03c-2.45-1.02-2.06-2.54-1.72-3.88c0.22-0.86,0.43-1.66,0.04-2.45
			c-0.1-0.19-0.02-0.43,0.17-0.52c0.19-0.1,0.42-0.02,0.52,0.17c0.52,1.05,0.25,2.08,0.02,2.99c-0.34,1.33-0.57,2.21,1.25,2.97
			c0.2,0.08,0.29,0.31,0.21,0.51C41.03,25.45,40.88,25.54,40.73,25.54z"/>
		<path class="st31" d="M26.7,21.4c-0.05,0-0.1-0.01-0.15-0.03c-2.45-1.02-2.05-2.54-1.71-3.88c0.22-0.85,0.43-1.66,0.04-2.45
			c-0.09-0.19-0.01-0.43,0.17-0.52c0.19-0.09,0.43-0.02,0.52,0.17c0.52,1.05,0.25,2.08,0.02,2.99c-0.34,1.33-0.57,2.21,1.26,2.97
			c0.2,0.08,0.29,0.31,0.21,0.51C26.99,21.31,26.85,21.4,26.7,21.4z"/>
		<path class="st31" d="M32.6,33.51c-0.05,0-0.1-0.01-0.15-0.03c-2.45-1.02-2.06-2.54-1.72-3.88c0.22-0.86,0.43-1.66,0.04-2.45
			c-0.1-0.19-0.02-0.43,0.17-0.52c0.19-0.1,0.42-0.02,0.52,0.17c0.52,1.05,0.25,2.08,0.01,2.99c-0.34,1.33-0.57,2.21,1.26,2.97
			c0.2,0.08,0.29,0.31,0.21,0.51C32.9,33.42,32.75,33.51,32.6,33.51z"/>
		<path class="st31" d="M36.83,14.52c-0.21,0-0.39-0.17-0.39-0.39c0-0.21,0.17-0.39,0.39-0.39c0.22,0,0.39,0.17,0.39,0.39
			C37.22,14.35,37.05,14.52,36.83,14.52z"/>
		<path class="st31" d="M35.36,17.46c-0.22,0-0.39-0.17-0.39-0.39c0-0.21,0.17-0.39,0.39-0.39c0.21,0,0.39,0.17,0.39,0.39
			C35.75,17.28,35.57,17.46,35.36,17.46z"/>
		<path class="st31" d="M37.75,17.73c-0.22,0-0.39-0.17-0.39-0.39c0-0.21,0.17-0.39,0.39-0.39c0.21,0,0.39,0.17,0.39,0.39
			C38.13,17.56,37.96,17.73,37.75,17.73z"/>
		<path class="st31" d="M27.41,28.72c-0.22,0-0.39-0.17-0.39-0.39c0-0.21,0.17-0.39,0.39-0.39c0.22,0,0.39,0.17,0.39,0.39
			C27.8,28.55,27.62,28.72,27.41,28.72z"/>
		<path class="st31" d="M32.37,25.66c-0.22,0-0.39-0.17-0.39-0.39c0-0.22,0.17-0.39,0.39-0.39c0.22,0,0.39,0.17,0.39,0.39
			C32.76,25.49,32.58,25.66,32.37,25.66z"/>
		<path class="st31" d="M28.9,19.21c-0.21,0-0.39-0.17-0.39-0.39c0-0.22,0.17-0.39,0.39-0.39c0.22,0,0.39,0.17,0.39,0.39
			C29.29,19.03,29.12,19.21,28.9,19.21z"/>
		<path class="st31" d="M29.42,24.75c-0.22,0-0.39-0.17-0.39-0.39c0-0.22,0.17-0.39,0.39-0.39c0.21,0,0.39,0.17,0.39,0.39
			C29.8,24.57,29.63,24.75,29.42,24.75z"/>
		<path class="st31" d="M34.23,20.67c-0.22,0-0.39-0.17-0.39-0.39s0.17-0.39,0.39-0.39c0.22,0,0.39,0.17,0.39,0.39
			S34.44,20.67,34.23,20.67z"/>
		<path class="st31" d="M26.54,25.59c-0.22,0-0.39-0.17-0.39-0.39c0-0.22,0.17-0.39,0.39-0.39c0.21,0,0.39,0.17,0.39,0.39
			C26.92,25.41,26.75,25.59,26.54,25.59z"/>
	</g>
</g>
</svg>
