<?xml version="1.0" encoding="utf-8"?>
<!-- Generator: Adobe Illustrator 27.3.1, SVG Export Plug-In . SVG Version: 6.00 Build 0)  -->
<svg version="1.1" id="Layer_1" xmlns="http://www.w3.org/2000/svg" xmlns:xlink="http://www.w3.org/1999/xlink" x="0px" y="0px"
	 viewBox="0 0 50 50" style="enable-background:new 0 0 50 50;" xml:space="preserve">
<style type="text/css">
	.st0{fill:none;}
	.st1{stroke:#000000;stroke-miterlimit:10;}
	.st2{stroke:#000000;stroke-width:0.75;stroke-miterlimit:10;}
	.st3{clip-path:url(#SVGID_00000140729700667589206970000010937792701230710693_);}
	.st4{clip-path:url(#SVGID_00000099659916767543327920000014829338093042514088_);}
	.st5{fill:#FFFFFF;}
	.st6{clip-path:url(#SVGID_00000183962917492311097510000013279460709578049196_);}
	.st7{fill:#231F20;}
	.st8{clip-path:url(#SVGID_00000034790281836700044260000016431819869052969401_);}
	.st9{clip-path:url(#SVGID_00000031893922991368565710000000768479498338189211_);}
	.st10{clip-path:url(#SVGID_00000022523762384979181350000014086078458371829951_);}
	.st11{clip-path:url(#SVGID_00000077310126914232262730000005043607416412697268_);}
	.st12{clip-path:url(#SVGID_00000131337265675013586900000008068564853112462756_);}
	.st13{clip-path:url(#SVGID_00000086677662717902973590000007773379438610262670_);}
	.st14{clip-path:url(#SVGID_00000151528451335408921910000000587179668596273331_);}
	.st15{clip-path:url(#SVGID_00000149383488500472477910000017857839802463011714_);}
	.st16{clip-path:url(#SVGID_00000106120342220020952620000011310432613719062676_);}
	.st17{clip-path:url(#SVGID_00000140726282138592120910000003992839740781520803_);}
	.st18{clip-path:url(#SVGID_00000114038110904836348760000015475118154795651506_);}
	.st19{clip-path:url(#SVGID_00000166665755759656375950000015294872866516680639_);}
	.st20{clip-path:url(#SVGID_00000031905576488477264780000008153858183358377103_);}
	.st21{clip-path:url(#SVGID_00000083802138296094529050000011083480401891540659_);}
	.st22{clip-path:url(#SVGID_00000089550488868902226020000017529591852868797612_);}
	.st23{clip-path:url(#SVGID_00000098907944136636817550000010320760301583402159_);}
	.st24{clip-path:url(#SVGID_00000103252209148169309380000001762621278323278252_);}
	.st25{clip-path:url(#SVGID_00000006691762361451911130000001202051271341853357_);}
	.st26{clip-path:url(#SVGID_00000140736100100849731690000013241844496623642039_);}
	.st27{clip-path:url(#SVGID_00000129168147664280006090000006348111464193148334_);}
	.st28{clip-path:url(#SVGID_00000001629953912280407000000014425118638873540270_);}
	.st29{clip-path:url(#SVGID_00000166661380957714224200000005792791604962873764_);}
	.st30{clip-path:url(#SVGID_00000044897198701554242850000008235800315911946911_);}
	.st31{fill-rule:evenodd;clip-rule:evenodd;}
	.st32{clip-path:url(#SVGID_00000101095463106385606260000014472673482683384720_);}
	.st33{clip-path:url(#SVGID_00000134241786383559683230000004304297411889523881_);}
	.st34{stroke:#000000;stroke-width:0.5;stroke-miterlimit:10;}
	.st35{clip-path:url(#SVGID_00000029015214975468997260000002498373472475922100_);}
	.st36{clip-path:url(#SVGID_00000044890373671814698720000007197637910300318876_);}
	.st37{clip-path:url(#SVGID_00000054954805080995253180000007885721893397050502_);}
	.st38{fill:#1A1A1A;}
	.st39{clip-path:url(#SVGID_00000176002769421456685700000004008019938070354566_);}
	.st40{clip-path:url(#SVGID_00000065034116191055074230000009703685366461744049_);}
	.st41{clip-path:url(#SVGID_00000091701371240895459580000014003161753422774933_);}
	.st42{clip-path:url(#SVGID_00000132080356061787093290000005261398612090160551_);}
	.st43{clip-path:url(#SVGID_00000137111020451074992710000007798781941287908493_);}
	.st44{clip-path:url(#SVGID_00000108307910286166895860000015826456615153261708_);}
	.st45{clip-path:url(#SVGID_00000163752765309061850640000006990900288606417086_);}
	.st46{clip-path:url(#SVGID_00000082326679833658575960000013647577056947138219_);}
	.st47{clip-path:url(#SVGID_00000171700369668643743680000012151883553494228626_);}
	.st48{fill:#F1F1F1;}
	.st49{fill:#E8E8E8;}
	.st50{fill:#FEFEFE;}
	.st51{fill:#CCCCCC;}
	.st52{fill:#B3B3B3;}
	.st53{fill:#E6E6E6;}
	.st54{fill:#EBEBEB;}
	.st55{fill:#EEEEEE;}
	.st56{fill:#F8F8F8;}
	.st57{fill:#FBFBFB;}
	.st58{fill:#383838;}
	.st59{fill:#232323;}
	.st60{fill:#F6F6F6;}
	.st61{fill:#535353;}
	.st62{fill:#0A0A0A;}
	.st63{fill:#F5F5F5;}
	.st64{fill:#818181;}
	.st65{fill:#4A4A4A;}
	.st66{fill:#999999;}
	.st67{fill:url(#SVGID_00000132808636471052529590000014900448847461518524_);}
	.st68{fill:url(#SVGID_00000130639784902150684630000006508246454875431559_);}
	.st69{fill:#0E0E0D;}
	.st70{fill:#333333;}
	.st71{fill:#808080;}
	.st72{fill:url(#SVGID_00000155139470642877651080000010697672203706877355_);}
	.st73{fill:#666666;}
	.st74{fill:url(#SVGID_00000142160174537267159040000001359635954910159757_);}
	.st75{fill:url(#SVGID_00000084503408164296261990000018315547192490997125_);}
	.st76{fill:url(#SVGID_00000149349052090434520000000011965997714728381616_);}
	.st77{fill:url(#SVGID_00000016044541489678190220000017716812500409666956_);}
	.st78{fill:url(#SVGID_00000043431124344891558540000008741545110333288864_);}
	.st79{clip-path:url(#SVGID_00000123421285444488508320000001350280825402643075_);}
	.st80{clip-path:url(#SVGID_00000061435436014316458320000001465630244905108410_);}
	.st81{clip-path:url(#SVGID_00000044860094352835317300000006245374045205201841_);}
	.st82{clip-path:url(#SVGID_00000161599195640656017680000004622526387967602859_);}
	.st83{clip-path:url(#SVGID_00000119814424394687166130000012173321015051025036_);}
	.st84{fill:#241F20;stroke:#000000;stroke-width:0.5;stroke-miterlimit:10;}
	.st85{clip-path:url(#SVGID_00000056394941770515356190000006186779365106251149_);}
	.st86{clip-path:url(#SVGID_00000044899961099242194260000009111810999433981578_);}
	.st87{clip-path:url(#SVGID_00000183241419431462923280000012479974185360053165_);}
	.st88{clip-path:url(#SVGID_00000163064441268447153660000010386795089197385121_);}
	.st89{clip-path:url(#SVGID_00000153702016728202791280000005153054663593587852_);}
	.st90{clip-path:url(#SVGID_00000183224842905465779860000015520546457301525906_);}
	.st91{clip-path:url(#SVGID_00000086659480329772529620000014429980677408066228_);}
	.st92{clip-path:url(#SVGID_00000173130911919550820020000010386541107045863578_);}
	.st93{clip-path:url(#SVGID_00000041993466384063488180000013065367924472206271_);}
	.st94{clip-path:url(#SVGID_00000092447539661553276480000004341136434218242975_);}
	.st95{clip-path:url(#SVGID_00000051367545231191793300000012690965873430670783_);}
	.st96{clip-path:url(#SVGID_00000016771265959170296200000013783758819156151736_);}
	.st97{clip-path:url(#SVGID_00000017502109937551729380000003004014360352132242_);}
	.st98{clip-path:url(#SVGID_00000141457676504755291830000013612869540067235208_);}
	.st99{clip-path:url(#SVGID_00000049904593027480786770000013216188918598580884_);}
	.st100{clip-path:url(#SVGID_00000181062202436194285830000002757172763988039849_);}
	.st101{clip-path:url(#SVGID_00000126294791750124134230000000166668418381022113_);}
	.st102{clip-path:url(#SVGID_00000098918411515196209910000003117916827127030967_);}
	.st103{clip-path:url(#SVGID_00000178901922461556536360000017205620637601160069_);}
	.st104{clip-path:url(#SVGID_00000050634362910770028110000009009871287889348767_);}
	.st105{clip-path:url(#SVGID_00000170273862701320352640000004966871167996571318_);}
	.st106{clip-path:url(#SVGID_00000029020781256506307180000004233214140424812949_);}
	.st107{clip-path:url(#SVGID_00000175288080380107548030000011542034332509208963_);}
	.st108{clip-path:url(#SVGID_00000108294723967929916210000015533084677192859534_);}
	.st109{clip-path:url(#SVGID_00000051358020623070544590000011025615749239311744_);}
	.st110{clip-path:url(#SVGID_00000055686514966764173220000010218139248188558224_);}
	.st111{clip-path:url(#SVGID_00000005953726984211739030000014570727205500163458_);}
	.st112{clip-path:url(#SVGID_00000132066329947076381850000011287427805382868667_);}
	.st113{clip-path:url(#SVGID_00000088119213361675198410000000172973881525502877_);}
	.st114{clip-path:url(#SVGID_00000159449376574209386310000000629480094804169903_);}
	.st115{fill:#FFFFFF;stroke:#000000;stroke-miterlimit:10;}
	.st116{clip-path:url(#SVGID_00000028305948183871303050000000690002175981080204_);}
	.st117{clip-path:url(#SVGID_00000047739667440965617180000001445939551879434676_);}
	.st118{fill:none;stroke:#010101;stroke-miterlimit:10;}
	.st119{fill:#010101;stroke:#000000;stroke-miterlimit:10;}
	.st120{clip-path:url(#SVGID_00000112627556528295240550000006926975160051317397_);}
	.st121{fill:#010101;stroke:#010101;stroke-miterlimit:10;}
	.st122{clip-path:url(#SVGID_00000099657035851000819380000012092528029379959711_);}
	.st123{clip-path:url(#SVGID_00000039129741687934074520000011539373182556450709_);}
	.st124{clip-path:url(#SVGID_00000148639766485836355350000010079768819449363391_);}
	.st125{clip-path:url(#SVGID_00000101819384586859461240000007064144419058236350_);}
	.st126{clip-path:url(#SVGID_00000139995557550853039830000007815825061093141670_);}
	.st127{fill:none;stroke:#000000;stroke-width:3;stroke-miterlimit:10;}
	.st128{clip-path:url(#SVGID_00000075876466062252006400000002222442214463612289_);}
	.st129{clip-path:url(#SVGID_00000096769292113026655380000011724354685070936197_);}
	.st130{clip-path:url(#SVGID_00000054257777980124172450000006213841830212397968_);}
	.st131{clip-path:url(#SVGID_00000137092471469979955190000015034095073931227306_);}
	.st132{fill:#040606;}
	.st133{clip-path:url(#SVGID_00000176022544303873965860000010250103836943871911_);}
	.st134{clip-path:url(#SVGID_00000176003118837159975200000011227415875784868266_);}
	.st135{clip-path:url(#SVGID_00000061449096125800338180000004491806292241481371_);}
	.st136{clip-path:url(#SVGID_00000139260923001205472760000002672918161717279639_);}
	.st137{clip-path:url(#SVGID_00000124141651915686410070000007925184884766726067_);}
	.st138{clip-path:url(#SVGID_00000145740964656750195890000009885881309582931633_);}
	.st139{clip-path:url(#SVGID_00000182505629380780432570000002849733690283968447_);}
	.st140{fill:#FFFFFF;stroke:#000000;stroke-width:1.5;stroke-miterlimit:10;}
	.st141{clip-path:url(#SVGID_00000098199405889103888100000007297025995121072818_);}
	.st142{fill:#BDBCBC;}
	.st143{clip-path:url(#SVGID_00000065779324124393808730000008978005124848394166_);}
	.st144{fill:#2E2A2B;}
	.st145{clip-path:url(#SVGID_00000037668674689331236350000009485181943005205414_);}
	.st146{clip-path:url(#SVGID_00000168092744834799578900000000591787446408528568_);}
	.st147{clip-path:url(#SVGID_00000078766139307682147730000011617194881597726129_);}
	.st148{clip-path:url(#SVGID_00000131338362850171075310000018087486561629851321_);}
	.st149{clip-path:url(#SVGID_00000056395493748699325000000004824680576316845484_);}
	.st150{fill:#272324;}
	.st151{clip-path:url(#SVGID_00000044167703619349236580000000624737896740582544_);}
	.st152{clip-path:url(#SVGID_00000014595163249012484980000010840259353570702990_);}
	.st153{clip-path:url(#SVGID_00000140002730342119793010000001769878770779490481_);}
	.st154{clip-path:url(#SVGID_00000128468012655866771990000007447662254009545897_);}
	.st155{clip-path:url(#SVGID_00000013902955176156225580000002620296332198461857_);}
	.st156{clip-path:url(#SVGID_00000052810819112204789150000008326556268658596025_);}
	.st157{fill:none;stroke:#000000;stroke-width:0.8735;stroke-linecap:round;stroke-linejoin:round;stroke-miterlimit:10;}
	.st158{clip-path:url(#SVGID_00000147211875027892186720000015035420746946779806_);}
	.st159{clip-path:url(#SVGID_00000133506369426910846710000017969900133727888829_);}
	.st160{clip-path:url(#SVGID_00000134928629793067916340000001935172029728818076_);}
	.st161{clip-path:url(#SVGID_00000007415585612838778420000016330353153778559146_);}
	.st162{clip-path:url(#SVGID_00000057850674285766414250000013397934884617493428_);}
	.st163{clip-path:url(#SVGID_00000023980643926450783280000010412566058071262629_);}
	.st164{clip-path:url(#SVGID_00000136384631699148743900000016220582385991184308_);}
	.st165{clip-path:url(#SVGID_00000158747336267046760220000008759958106237030538_);}
	.st166{clip-path:url(#SVGID_00000103970092888133677550000000003495219099545503_);}
	.st167{clip-path:url(#SVGID_00000113339272968339425870000016979638951083791502_);}
	.st168{clip-path:url(#SVGID_00000119806922002590921460000014869497634351730617_);}
	.st169{clip-path:url(#SVGID_00000169530106455590878580000015160166958086046091_);}
	.st170{clip-path:url(#SVGID_00000001646602455884398670000009528551716475420322_);}
	.st171{clip-path:url(#SVGID_00000090994083804557435100000017182010060819443603_);}
	.st172{clip-path:url(#SVGID_00000111888510393006013050000008936509549470243736_);}
	.st173{clip-path:url(#SVGID_00000064327371310842989470000013540501718262039201_);}
	.st174{clip-path:url(#SVGID_00000106125150651339101770000007962147799688195505_);}
	.st175{clip-path:url(#SVGID_00000104666387699948325630000000061993762224383420_);}
	.st176{clip-path:url(#SVGID_00000104693533259567741860000010524483164279693454_);}
	.st177{clip-path:url(#SVGID_00000106858996804052151670000010655976064202253957_);}
	.st178{clip-path:url(#SVGID_00000107561454826216166000000016431937696906175404_);}
	.st179{clip-path:url(#SVGID_00000183946420905356129930000014409233406085501625_);}
	.st180{clip-path:url(#SVGID_00000155120593439002760270000008546560462293072805_);}
	.st181{clip-path:url(#SVGID_00000003071735599588666610000003965151336317680294_);}
	.st182{clip-path:url(#SVGID_00000130606068202114031610000003193936902401054600_);}
	.st183{clip-path:url(#SVGID_00000152972232627395289490000000026507997473695675_);}
	.st184{clip-path:url(#SVGID_00000086668914575488771010000011721936806423879358_);}
	.st185{clip-path:url(#SVGID_00000138559858932420792360000005335737300908903069_);}
	.st186{clip-path:url(#SVGID_00000095311940844941795540000002616094788013154485_);}
	.st187{clip-path:url(#SVGID_00000137838486177178906510000003382873925117173391_);}
	.st188{clip-path:url(#SVGID_00000048466344857070129720000001319084834764224957_);}
	.st189{clip-path:url(#SVGID_00000001639739106575971380000012768033479639620030_);}
	.st190{clip-path:url(#SVGID_00000001640497927932612200000005204087804500172971_);}
	.st191{clip-path:url(#SVGID_00000016053421064129922940000004039920303035099034_);}
	.st192{clip-path:url(#SVGID_00000028300437410686820130000013825417328063060918_);}
	.st193{clip-path:url(#SVGID_00000036965895433806685290000003403317281471111354_);}
	.st194{clip-path:url(#SVGID_00000018919038533187311900000006069867075579445632_);}
	.st195{clip-path:url(#SVGID_00000180328938009483067860000005788154231482061213_);}
	.st196{fill:#E5E5E5;}
	.st197{fill:#1D1D1B;}
	.st198{fill:none;stroke:#000000;stroke-miterlimit:10;}
	.st199{fill:#FEFEFE;stroke:#000000;stroke-miterlimit:10;}
	.st200{clip-path:url(#SVGID_00000180327857114851777340000001027605491850670994_);}
	.st201{clip-path:url(#SVGID_00000044160522714402171600000002633727847840873354_);}
	.st202{clip-path:url(#SVGID_00000148631671132778137870000011373397003913405367_);}
	.st203{fill:#231F1F;}
	.st204{fill:#020000;}
	.st205{clip-path:url(#SVGID_00000103977153810525664410000013108110137157581973_);}
	.st206{clip-path:url(#SVGID_00000092431217591974545100000006020819971291740331_);}
	.st207{clip-path:url(#SVGID_00000098194479926191680410000009478094119078685360_);}
	.st208{clip-path:url(#SVGID_00000160173581440464695600000001529534730749781427_);}
	.st209{fill:#050000;}
	.st210{clip-path:url(#SVGID_00000060750329733633025760000005121709196067267499_);}
	.st211{clip-path:url(#SVGID_00000152230303193848056280000001052268762726732201_);}
	.st212{clip-path:url(#SVGID_00000057106418547917724500000009466929380719550851_);}
	.st213{clip-path:url(#SVGID_00000151538695063316497610000017857301351474524063_);}
	.st214{clip-path:url(#SVGID_00000180337858383300467540000015244399996518719647_);}
	.st215{clip-path:url(#SVGID_00000038402786219107855710000001055891956551300511_);}
	.st216{fill:#12100F;}
	.st217{clip-path:url(#SVGID_00000078742864093626702270000004874829642261148827_);}
	.st218{clip-path:url(#SVGID_00000015356376402477793960000001401947104703916185_);}
	.st219{fill:none;stroke:#000000;stroke-width:0.5;stroke-miterlimit:10;}
	.st220{clip-path:url(#SVGID_00000091713949538510315700000017657718702515094693_);}
	.st221{clip-path:url(#SVGID_00000108285816601328499640000005471616561983011515_);}
	.st222{clip-path:url(#SVGID_00000150095356628145636790000017475500285511650970_);}
	.st223{clip-path:url(#SVGID_00000086663274053055086840000006459592269819553716_);}
	.st224{fill:none;stroke:#000000;stroke-width:0.25;stroke-miterlimit:10;}
	.st225{clip-path:url(#SVGID_00000011724274257604908960000000577740350346886306_);}
	.st226{clip-path:url(#SVGID_00000090264744692725552250000003626977719080580754_);}
	.st227{clip-path:url(#SVGID_00000030449809854308941360000008312437290487193762_);}
</style>
<g>
	<g>
		<defs>
			<rect id="SVGID_00000141454356663882892370000011339439341835132555_" x="14.38" y="10.85" width="24.17" height="33.28"/>
		</defs>
		<clipPath id="SVGID_00000116941923991964995220000017654689242892676287_">
			<use xlink:href="#SVGID_00000141454356663882892370000011339439341835132555_"  style="overflow:visible;"/>
		</clipPath>
		<g style="clip-path:url(#SVGID_00000116941923991964995220000017654689242892676287_);">
			<path d="M19.91,26.52c-0.04,0.19-0.08,0.38-0.13,0.58c-0.17,0.7-0.35,1.4-0.5,2.11c-0.11,0.54-0.19,1.09-0.27,1.64
				c-0.08,0.56-0.17,1.12-0.25,1.68c-0.12,0.81-0.3,1.6-0.45,2.4c-0.07,0.38-0.14,0.75-0.21,1.13c-0.03,0.16-0.11,0.24-0.27,0.27
				c-0.14,0.03-0.27,0-0.4-0.01c-0.17-0.02-0.33-0.03-0.5-0.03c-0.24,0-0.47-0.03-0.7-0.1c-0.35-0.1-0.71-0.17-1.06-0.3
				c-0.16-0.06-0.31-0.13-0.45-0.23c-0.09-0.07-0.14-0.16-0.21-0.24c-0.03-0.04-0.03-0.09-0.02-0.14c0.06-0.41,0.08-0.83,0.15-1.23
				c0.01-0.06,0-0.1-0.06-0.12c-0.12-0.04-0.15-0.13-0.17-0.25c-0.03-0.29,0-0.58,0.04-0.87c0.02-0.19,0.05-0.38,0.08-0.57
				c0.01-0.06,0.03-0.12,0.05-0.18c0.03-0.09,0.08-0.15,0.19-0.14c0.08,0.01,0.08-0.01,0.09-0.09c0.03-0.29,0.05-0.57,0.08-0.86
				c0.03-0.28,0.06-0.56,0.09-0.85c0.04-0.41,0.09-0.82,0.15-1.22c0.13-0.84,0.26-1.67,0.42-2.5c0.12-0.66,0.28-1.31,0.43-1.96
				c0.17-0.74,0.33-1.47,0.51-2.21c0.21-0.89,0.49-1.76,0.78-2.62c0.19-0.55,0.35-1.11,0.52-1.66c0.12-0.41,0.25-0.81,0.39-1.21
				c0.17-0.47,0.31-0.94,0.43-1.42c0.1-0.4,0.29-0.77,0.56-1.09c0.13-0.16,0.29-0.3,0.47-0.39c0.61-0.33,1.23-0.64,1.88-0.91
				c0.12-0.05,0.25-0.09,0.38-0.09c0.06,0,0.1-0.03,0.12-0.09c0.05-0.13,0.09-0.25,0.16-0.37c0.05-0.08,0.11-0.15,0.2-0.2
				c0.27-0.16,0.52-0.35,0.78-0.52c0.27-0.19,0.54-0.37,0.81-0.56c0.05-0.04,0.11-0.07,0.16-0.1c0.1-0.05,0.2-0.07,0.32-0.05
				c0.78,0.14,1.56,0.21,2.35,0.17c0.4-0.02,0.81-0.05,1.21-0.1c0.09-0.01,0.19-0.04,0.28-0.06c0.11-0.04,0.22-0.05,0.32-0.06
				c0.09-0.01,0.18,0.01,0.26,0.07c0.44,0.32,0.93,0.57,1.36,0.91c0.06,0.05,0.13,0.09,0.19,0.13c0.25,0.16,0.4,0.38,0.44,0.67
				c0.02,0.11,0.02,0.13,0.15,0.15c0.2,0.03,0.38,0.1,0.56,0.18c0.16,0.07,0.32,0.15,0.47,0.22c0.3,0.15,0.6,0.3,0.91,0.44
				c0.21,0.1,0.4,0.23,0.58,0.39c0.13,0.11,0.23,0.24,0.32,0.38c0.17,0.27,0.31,0.56,0.39,0.87c0.15,0.59,0.35,1.16,0.55,1.74
				c0.23,0.66,0.4,1.33,0.61,1.99c0.13,0.39,0.26,0.78,0.39,1.17c0.35,1.04,0.61,2.1,0.85,3.17c0.13,0.61,0.28,1.22,0.42,1.83
				c0.2,0.85,0.35,1.71,0.49,2.57c0.07,0.46,0.16,0.91,0.22,1.37c0.05,0.38,0.09,0.76,0.13,1.14c0.05,0.46,0.09,0.91,0.14,1.37
				c0,0.05,0.01,0.1,0.01,0.15c0,0.05,0.03,0.08,0.08,0.08c0.13-0.01,0.18,0.08,0.22,0.18c0.04,0.13,0.06,0.27,0.08,0.41
				c0.04,0.29,0.07,0.59,0.09,0.88c0.01,0.12-0.01,0.24-0.02,0.35c-0.01,0.09-0.06,0.16-0.15,0.19c-0.06,0.02-0.09,0.06-0.07,0.13
				c0.07,0.4,0.09,0.82,0.15,1.22c0.01,0.07-0.01,0.13-0.05,0.19c-0.1,0.16-0.24,0.26-0.41,0.33c-0.09,0.04-0.19,0.09-0.28,0.12
				c-0.43,0.14-0.86,0.26-1.31,0.35c-0.13,0.03-0.27,0.04-0.4,0.04c-0.19,0-0.39,0.01-0.58,0.04c-0.09,0.01-0.19,0.01-0.28,0.01
				c-0.16-0.01-0.27-0.11-0.3-0.27c-0.16-0.93-0.35-1.86-0.53-2.79c-0.1-0.53-0.18-1.08-0.25-1.61c-0.19-1.35-0.4-2.7-0.76-4.01
				c-0.1-0.37-0.18-0.74-0.27-1.12c0,0.13-0.01,0.27,0,0.4c0.02,0.24,0.02,0.47,0.03,0.71c0.03,0.4,0.04,0.81,0.06,1.22
				c0.02,0.43,0.06,0.85,0.09,1.28c0.03,0.36,0.05,0.72,0.08,1.08c0.03,0.32,0.06,0.65,0.09,0.97c0.03,0.33,0.05,0.65,0.08,0.98
				c0.02,0.28,0.04,0.55,0.06,0.83c0.02,0.3,0.04,0.6,0.06,0.9c0.02,0.35,0.04,0.7,0.06,1.05c0.01,0.16,0.01,0.32,0.02,0.48
				c0.02,0.27,0.02,0.54,0.03,0.8c0.02,0.46,0.04,0.92,0.09,1.37c0.06,0.64,0.14,1.28,0.2,1.92c0.06,0.59,0.12,1.18,0.17,1.77
				c0.02,0.22,0.04,0.43,0.06,0.65c0.01,0.16-0.02,0.2-0.16,0.26c-0.5,0.21-1.03,0.3-1.56,0.38c-0.58,0.08-1.17,0.13-1.75,0.21
				c-0.41,0.06-0.83,0.12-1.24,0.18c-0.27,0.04-0.54,0.06-0.81,0.09c-0.37,0.04-0.75,0.06-1.12,0.08c-0.36,0.02-0.72,0.03-1.08,0.03
				c-0.57,0-1.15-0.02-1.72-0.05c-0.54-0.03-1.08-0.07-1.62-0.11c-0.35-0.02-0.69-0.03-1.04-0.06c-0.8-0.06-1.6-0.16-2.38-0.37
				c-0.28-0.08-0.53-0.19-0.77-0.35c-0.02-0.01-0.04-0.03-0.06-0.04c-0.12-0.03-0.14-0.13-0.13-0.23c0.01-0.09,0.01-0.17,0.02-0.26
				c0.06-0.65,0.11-1.3,0.18-1.95c0.06-0.58,0.13-1.16,0.19-1.74c0.03-0.33,0.06-0.67,0.08-1c0.03-0.53,0.05-1.05,0.07-1.57
				c0.03-0.55,0.06-1.1,0.09-1.64c0.03-0.46,0.06-0.93,0.09-1.39c0.04-0.52,0.09-1.04,0.13-1.56c0.04-0.43,0.07-0.87,0.1-1.3
				c0.04-0.54,0.08-1.07,0.11-1.61c0.02-0.38,0.04-0.77,0.05-1.15c0.02-0.38,0.03-0.76,0.05-1.14c0-0.03,0-0.06,0-0.09
				C19.92,26.52,19.92,26.52,19.91,26.52z M21.97,12.95c-0.05-0.01-0.09,0.02-0.12,0.03c-0.24,0.09-0.48,0.21-0.71,0.32
				c-0.24,0.12-0.48,0.25-0.72,0.36c-0.26,0.12-0.51,0.24-0.75,0.39c-0.12,0.07-0.22,0.15-0.3,0.27c-0.23,0.33-0.41,0.69-0.51,1.08
				c-0.11,0.43-0.25,0.85-0.39,1.27c-0.12,0.35-0.24,0.7-0.35,1.06c-0.21,0.69-0.42,1.39-0.65,2.08c-0.24,0.7-0.46,1.41-0.65,2.13
				c-0.27,1.02-0.48,2.06-0.73,3.09c-0.12,0.49-0.22,0.98-0.31,1.47c-0.14,0.75-0.25,1.5-0.37,2.24c-0.1,0.6-0.16,1.2-0.22,1.8
				c-0.04,0.41-0.08,0.82-0.11,1.23c-0.01,0.11,0,0.12,0.11,0.12c0.13,0,0.26,0.02,0.39,0.04c0.35,0.06,0.47,0.22,0.43,0.57
				c-0.04,0.38-0.12,0.75-0.22,1.11c-0.07,0.24-0.2,0.34-0.45,0.35c-0.14,0-0.28,0-0.41-0.01c-0.11,0-0.11-0.01-0.12,0.1
				c-0.03,0.39-0.08,0.78-0.1,1.17c-0.01,0.09,0.01,0.14,0.08,0.19c0.05,0.03,0.11,0.07,0.16,0.1c0.18,0.09,0.37,0.16,0.56,0.22
				c0.28,0.08,0.57,0.14,0.85,0.21c0.19,0.05,0.39,0.08,0.6,0.08c0.08,0,0.15,0.01,0.22,0.01c0.19,0.01,0.37,0.04,0.55,0.06
				c0.12,0.01,0.13-0.01,0.15-0.12c0.08-0.49,0.16-0.98,0.25-1.47c0.11-0.55,0.22-1.09,0.31-1.64c0.15-0.92,0.28-1.83,0.43-2.75
				c0.12-0.76,0.27-1.52,0.47-2.26c0.24-0.89,0.46-1.79,0.62-2.7c0.01-0.05,0.02-0.1,0.02-0.15c0.02-0.44,0.04-0.88,0.06-1.31
				c0.02-0.4,0.03-0.8,0.06-1.2c0.01-0.19,0.01-0.37,0.03-0.56c0.03-0.49,0.05-0.99,0.06-1.48c0.01-0.57,0-1.14,0-1.71
				c0-0.05,0-0.1,0.01-0.14c0.01-0.05-0.01-0.13,0.06-0.13c0.06,0,0.05,0.08,0.06,0.13c0.05,0.38,0.07,0.76,0.09,1.14
				c0.02,0.53,0.01,1.05-0.01,1.58c-0.02,0.59-0.04,1.18-0.07,1.78c-0.02,0.44-0.03,0.88-0.06,1.31c-0.01,0.19-0.01,0.39-0.02,0.58
				c-0.02,0.41-0.04,0.81-0.06,1.22c-0.01,0.28-0.01,0.57-0.03,0.85c-0.01,0.19-0.01,0.37-0.02,0.56c-0.02,0.41-0.04,0.81-0.06,1.22
				c-0.02,0.29-0.03,0.58-0.05,0.88c-0.03,0.37-0.06,0.74-0.09,1.11c-0.03,0.33-0.05,0.65-0.08,0.98c-0.03,0.39-0.07,0.78-0.11,1.17
				c-0.04,0.45-0.07,0.9-0.1,1.35c-0.04,0.52-0.08,1.05-0.11,1.57c-0.03,0.45-0.05,0.91-0.07,1.36c-0.02,0.5-0.05,0.99-0.1,1.49
				c-0.05,0.49-0.1,0.97-0.15,1.46c-0.05,0.46-0.09,0.92-0.13,1.38c-0.04,0.45-0.06,0.91-0.1,1.36c-0.01,0.11-0.01,0.11,0.09,0.15
				c0.25,0.11,0.52,0.19,0.79,0.25c0.6,0.13,1.2,0.21,1.8,0.27c0.37,0.03,0.73,0.05,1.1,0.07c0.54,0.03,1.08,0.06,1.62,0.1
				c0.58,0.04,1.17,0.06,1.75,0.06c0.05,0,0.09,0,0.14,0c0.45,0.03,0.89-0.02,1.34-0.01c0,0,0.01,0,0.01,0
				c0.04,0,0.06-0.02,0.05-0.07c-0.05-0.25-0.06-0.49-0.07-0.74c-0.02-0.47-0.04-0.93-0.04-1.4c-0.01-0.53-0.03-1.07-0.08-1.6
				c-0.03-0.39-0.06-0.78-0.08-1.17c-0.03-0.55-0.06-1.1-0.07-1.66c-0.01-0.74,0.03-1.48,0.04-2.22c0.02-1.08,0.01-2.16-0.02-3.23
				c0-0.02,0-0.04,0-0.06c-0.02-0.51-0.04-1.03-0.06-1.54c-0.01-0.26-0.01-0.53-0.02-0.79c-0.03-0.55-0.04-1.1-0.05-1.65
				c-0.01-1-0.02-2.01,0.03-3.01c0.03-0.47,0.01-0.94-0.01-1.41c-0.02-0.53-0.09-1.05-0.16-1.57c-0.01-0.07-0.02-0.15-0.06-0.22
				c-0.14-0.22-0.29-0.43-0.48-0.61c-0.12-0.11-0.24-0.23-0.36-0.34c-0.14-0.13-0.29-0.26-0.44-0.38c-0.38-0.31-0.77-0.61-1.14-0.92
				c-0.33-0.28-0.66-0.55-1.02-0.8c-0.41-0.28-0.8-0.58-1.16-0.91c-0.13-0.12-0.25-0.23-0.32-0.39c-0.06-0.12-0.06-0.24,0-0.36
				c0.06-0.11,0.12-0.21,0.2-0.31c0.2-0.25,0.42-0.48,0.66-0.7c0.1-0.09,0.19-0.2,0.28-0.29c-0.01-0.03-0.03-0.04-0.04-0.04
				c-0.41-0.14-0.77-0.38-1.13-0.62c-0.14-0.09-0.22-0.22-0.24-0.39c-0.05-0.46-0.01-0.91,0.11-1.35
				C21.96,13.04,21.99,13,21.97,12.95z M30.94,12.92c0,0.08,0,0.14,0,0.19c0,0.16,0,0.32-0.03,0.48c-0.03,0.14-0.04,0.28-0.04,0.42
				c0,0.12-0.04,0.23-0.11,0.33c-0.1,0.15-0.24,0.25-0.4,0.33c-0.27,0.14-0.53,0.3-0.82,0.41c-0.09,0.03-0.09,0.05-0.04,0.13
				c0.05,0.06,0.09,0.13,0.15,0.19c0.2,0.23,0.39,0.45,0.56,0.7c0.13,0.2,0.14,0.4,0.03,0.61c-0.12,0.22-0.26,0.41-0.42,0.6
				c-0.4,0.47-0.83,0.92-1.26,1.37c-0.5,0.53-1.02,1.03-1.55,1.53c-0.03,0.03-0.06,0.05-0.09,0.07c-0.09,0.06-0.09,0.06-0.05,0.16
				c0.1,0.27,0.2,0.53,0.28,0.81c0.01,0.03,0.02,0.07,0.04,0.1c0.08,0.14,0.12,0.28,0.15,0.43c0.11,0.62,0.15,1.25,0.16,1.88
				c0.01,0.49-0.03,0.99-0.03,1.48c-0.02,1.15-0.02,2.3,0.03,3.45c0.02,0.44,0.03,0.88,0.05,1.31c0.01,0.39,0.03,0.78,0.05,1.17
				c0.02,0.45,0.04,0.9,0.05,1.35c0.01,0.95,0.02,1.9-0.01,2.84c-0.02,0.46-0.04,0.92-0.03,1.37c0,0.36,0,0.73,0.01,1.09
				c0.01,0.44,0.04,0.88,0.06,1.31c0.01,0.27,0.03,0.54,0.06,0.82c0.05,0.45,0.06,0.91,0.08,1.36c0.01,0.32,0.01,0.65,0.02,0.97
				c0.01,0.51,0.02,1.02,0.06,1.52c0,0.04,0.01,0.06,0.05,0.06c0.03,0,0.06,0,0.08,0c0.25-0.01,0.49-0.03,0.73-0.04
				c0.39-0.02,0.77-0.07,1.15-0.13c0.79-0.13,1.58-0.24,2.37-0.35c0.55-0.08,1.09-0.17,1.61-0.39c0.06-0.02,0.07-0.05,0.06-0.11
				c-0.01-0.13-0.02-0.26-0.03-0.39c-0.03-0.51-0.06-1.03-0.12-1.54c-0.06-0.56-0.11-1.13-0.18-1.7c-0.06-0.53-0.1-1.06-0.13-1.59
				c-0.02-0.56-0.06-1.12-0.08-1.68c-0.01-0.15-0.02-0.3-0.03-0.45c-0.03-0.41-0.06-0.81-0.09-1.22c-0.03-0.35-0.05-0.69-0.08-1.04
				c-0.03-0.4-0.07-0.79-0.11-1.19c-0.04-0.41-0.07-0.83-0.1-1.24c-0.04-0.48-0.08-0.97-0.11-1.45c-0.03-0.41-0.05-0.82-0.07-1.23
				c-0.03-0.54-0.05-1.07-0.07-1.61c-0.02-0.45-0.03-0.9-0.06-1.35c-0.01-0.19-0.01-0.37-0.02-0.56c-0.02-0.46-0.04-0.92-0.07-1.39
				c-0.01-0.22-0.01-0.43-0.03-0.65c-0.03-0.48-0.04-0.97-0.06-1.46c-0.01-0.51-0.02-1.03,0.01-1.54c0.02-0.27,0.04-0.54,0.06-0.8
				c0.01-0.07,0.02-0.14,0.03-0.21c0-0.02,0.01-0.05,0.04-0.05c0.04,0,0.05,0.03,0.05,0.05c0.02,0.07,0.02,0.15,0.02,0.22
				c0.01,0.73-0.02,1.45,0.02,2.18c0.02,0.45,0.03,0.91,0.06,1.36c0.01,0.17,0.01,0.35,0.02,0.52c0.02,0.41,0.04,0.83,0.06,1.24
				c0.01,0.24,0.02,0.48,0.03,0.72c0.01,0.12,0.01,0.24,0.03,0.35c0.06,0.33,0.12,0.65,0.19,0.98c0.11,0.53,0.25,1.05,0.39,1.57
				c0.35,1.29,0.55,2.61,0.76,3.93c0.09,0.58,0.17,1.16,0.28,1.74c0.14,0.71,0.29,1.42,0.4,2.14c0.03,0.17,0.05,0.34,0.08,0.5
				c0.02,0.1,0.04,0.12,0.14,0.11c0.02,0,0.03-0.01,0.05-0.01c0.25-0.03,0.49-0.06,0.74-0.06c0.13,0,0.26-0.01,0.39-0.04
				c0.32-0.06,0.64-0.15,0.96-0.23c0.17-0.04,0.33-0.1,0.48-0.17c0.12-0.05,0.25-0.11,0.35-0.19c0.05-0.03,0.07-0.07,0.07-0.14
				c-0.03-0.38-0.07-0.76-0.1-1.14c-0.01-0.17,0-0.17-0.19-0.17c-0.02,0-0.05,0-0.07,0.01c-0.13,0.02-0.25,0.01-0.38-0.01
				c-0.15-0.02-0.26-0.11-0.32-0.25c-0.02-0.05-0.04-0.11-0.05-0.17c-0.06-0.23-0.11-0.47-0.15-0.71c-0.02-0.15-0.06-0.3-0.05-0.45
				c0.01-0.22,0.11-0.35,0.32-0.42c0.05-0.01,0.1-0.03,0.15-0.03c0.13-0.02,0.26-0.03,0.39-0.04c0.08-0.01,0.09-0.02,0.09-0.11
				c-0.01-0.09-0.02-0.17-0.02-0.26c-0.04-0.39-0.07-0.79-0.11-1.18c-0.04-0.38-0.08-0.75-0.13-1.13c-0.07-0.53-0.17-1.06-0.25-1.59
				c-0.13-0.83-0.28-1.65-0.47-2.47c-0.14-0.62-0.29-1.24-0.43-1.86c-0.21-0.93-0.45-1.85-0.74-2.76c-0.17-0.53-0.35-1.06-0.52-1.6
				c-0.18-0.56-0.34-1.12-0.52-1.68c-0.2-0.63-0.43-1.25-0.59-1.89c-0.09-0.34-0.25-0.64-0.42-0.94c-0.08-0.13-0.16-0.25-0.29-0.33
				c-0.23-0.14-0.46-0.27-0.71-0.38c-0.17-0.08-0.34-0.16-0.51-0.25c-0.2-0.1-0.4-0.2-0.61-0.3C31.36,13.07,31.17,12.99,30.94,12.92
				z M26.44,19.25c0.03-0.01,0.04-0.04,0.04-0.06c0.1-0.25,0.2-0.5,0.3-0.75c0.13-0.36,0.24-0.72,0.38-1.07
				c0.48-1.19,0.86-2.4,1.15-3.65c0.12-0.54,0.2-1.08,0.18-1.63c-0.01-0.17,0-0.33-0.02-0.5c-0.01-0.05,0-0.1,0-0.15
				c0-0.04,0.01-0.08,0.06-0.08c0.04,0,0.05,0.03,0.06,0.06c0.01,0.03,0.02,0.07,0.02,0.1c0.04,0.23,0.06,0.47,0.06,0.71
				c0.01,0.4-0.02,0.8-0.1,1.19c-0.22,1.13-0.55,2.23-0.96,3.31c-0.2,0.53-0.41,1.06-0.6,1.6c-0.14,0.39-0.28,0.77-0.46,1.14
				c-0.02,0.04-0.02,0.08-0.01,0.12c0.06,0.15,0.11,0.3,0.17,0.45c0.03,0.07,0.04,0.08,0.1,0.02c0.14-0.14,0.28-0.29,0.43-0.43
				c0.39-0.4,0.76-0.81,1.15-1.21c0.41-0.42,0.83-0.83,1.21-1.27c0.17-0.19,0.33-0.38,0.46-0.6c0.07-0.12,0.06-0.22-0.02-0.33
				c-0.09-0.12-0.18-0.24-0.28-0.36c-0.17-0.19-0.35-0.37-0.48-0.58c-0.02-0.04-0.05-0.07-0.06-0.11c-0.04-0.09-0.02-0.16,0.06-0.22
				c0.04-0.03,0.09-0.06,0.14-0.08c0.27-0.11,0.52-0.25,0.77-0.39c0.06-0.03,0.12-0.07,0.18-0.11c0.18-0.12,0.29-0.29,0.28-0.52
				c0-0.06,0.01-0.13,0.02-0.19c0.07-0.28,0.06-0.56,0.05-0.85c-0.01-0.27-0.09-0.51-0.34-0.67c-0.27-0.17-0.52-0.37-0.79-0.55
				c-0.23-0.16-0.49-0.29-0.7-0.48c-0.12-0.1-0.24-0.12-0.38-0.08c-0.18,0.05-0.35,0.11-0.54,0.13c-0.14,0.02-0.28,0.03-0.43,0.04
				c-0.5,0.04-0.99,0.07-1.49,0.05c-0.52-0.03-1.03-0.07-1.54-0.2c-0.09-0.02-0.17-0.02-0.24,0.02c-0.05,0.03-0.1,0.06-0.15,0.09
				c-0.54,0.36-1.08,0.73-1.62,1.09c-0.07,0.05-0.12,0.11-0.15,0.19c-0.25,0.62-0.38,1.26-0.34,1.93c0.01,0.15,0.05,0.24,0.19,0.28
				c0.02,0.01,0.04,0.02,0.05,0.03c0.29,0.14,0.57,0.3,0.86,0.43c0.09,0.04,0.17,0.1,0.25,0.16c0.08,0.06,0.09,0.09,0.05,0.18
				c-0.03,0.07-0.07,0.14-0.13,0.2c-0.1,0.12-0.21,0.24-0.32,0.35c-0.23,0.24-0.46,0.48-0.66,0.75c-0.09,0.11-0.09,0.21-0.03,0.33
				c0.05,0.1,0.13,0.19,0.21,0.27c0.21,0.19,0.42,0.38,0.65,0.55c0.61,0.46,1.24,0.89,1.84,1.36c0.53,0.43,1.08,0.84,1.56,1.33
				c0.07,0.07,0.13,0.14,0.23,0.2c-0.01-0.04-0.02-0.06-0.03-0.09c-0.21-0.54-0.4-1.09-0.62-1.63c-0.43-1.07-0.84-2.15-1.22-3.24
				c-0.24-0.7-0.47-1.41-0.62-2.14c-0.06-0.32-0.13-0.64-0.15-0.97c-0.02-0.31,0-0.62,0.03-0.94c0.01-0.1,0.02-0.19,0.04-0.29
				c0.01-0.06,0.04-0.12,0.08-0.17c0.02-0.02,0.04-0.04,0.07-0.03s0.04,0.03,0.05,0.06c0,0.05,0.01,0.1,0,0.14
				c-0.04,0.32-0.03,0.64-0.06,0.96c-0.02,0.15-0.01,0.31,0,0.46c0.05,0.48,0.15,0.96,0.28,1.43c0.27,0.95,0.6,1.87,0.94,2.79
				c0.26,0.69,0.55,1.36,0.82,2.05C26.41,19.22,26.41,19.24,26.44,19.25z M38.35,33.39c-0.01-0.3-0.04-0.6-0.08-0.9
				c-0.02-0.13-0.04-0.26-0.06-0.38c-0.02-0.09-0.02-0.09-0.11-0.08c-0.08,0.01-0.16,0.02-0.23,0.03c-0.17,0.02-0.34,0.03-0.5,0.07
				c-0.17,0.04-0.22,0.11-0.2,0.29c0.03,0.19,0.06,0.39,0.09,0.58c0.03,0.18,0.08,0.35,0.12,0.53c0.03,0.12,0.1,0.18,0.22,0.19
				c0.02,0,0.05,0,0.07,0c0.2,0.01,0.39-0.03,0.59-0.03c0.05,0,0.07-0.03,0.08-0.07C38.36,33.56,38.35,33.47,38.35,33.39z
				 M15.14,33.74c0.06,0,0.14,0,0.23,0c0.1,0,0.16-0.05,0.19-0.15c0.01-0.03,0.02-0.07,0.03-0.1c0.07-0.33,0.14-0.66,0.19-1
				c0.03-0.26-0.01-0.31-0.26-0.36c-0.2-0.03-0.4-0.04-0.6-0.07c-0.17-0.02-0.17-0.02-0.2,0.14c0,0.02,0,0.03-0.01,0.05
				c-0.05,0.32-0.09,0.64-0.11,0.96c-0.01,0.14-0.01,0.29,0.01,0.44c0.01,0.04,0.02,0.07,0.07,0.07
				C14.83,33.71,14.97,33.75,15.14,33.74z"/>
		</g>
	</g>
	<path d="M22.02,22.75c0,0.32,0.01,0.65,0,0.97c-0.01,0.43-0.02,0.86-0.06,1.29c-0.02,0.31-0.04,0.63-0.06,0.95
		c-0.03,0.41-0.06,0.83-0.09,1.24c-0.02,0.26-0.04,0.52-0.05,0.78c-0.02,0.3-0.04,0.6-0.06,0.9c-0.02,0.29-0.04,0.58-0.05,0.87
		c-0.02,0.33-0.04,0.65-0.06,0.98c-0.02,0.3-0.04,0.59-0.06,0.89c-0.02,0.33-0.04,0.65-0.06,0.98c-0.01,0.16-0.01,0.32-0.02,0.47
		c-0.02,0.42-0.03,0.84-0.06,1.25c-0.03,0.51-0.05,1.03-0.08,1.54c-0.02,0.33-0.05,0.65-0.08,0.98c-0.04,0.44-0.1,0.88-0.16,1.32
		c-0.07,0.5-0.14,0.99-0.18,1.49c-0.04,0.41-0.06,0.83-0.09,1.24c-0.01,0.14-0.02,0.28-0.06,0.42c-0.01,0.05-0.03,0.12-0.09,0.12
		c-0.07,0-0.08-0.08-0.09-0.13c-0.01-0.05-0.02-0.09-0.02-0.14c-0.01-0.36,0.01-0.71,0.04-1.06c0.02-0.29,0.05-0.58,0.08-0.87
		c0.04-0.37,0.09-0.73,0.13-1.09c0.05-0.4,0.09-0.8,0.13-1.2c0.03-0.36,0.06-0.72,0.09-1.09c0.01-0.15,0.02-0.31,0.03-0.46
		c0.02-0.4,0.03-0.8,0.05-1.2c0.03-0.5,0.06-1,0.09-1.5c0.02-0.41,0.05-0.81,0.08-1.22c0.04-0.49,0.08-0.98,0.11-1.48
		c0.03-0.41,0.05-0.82,0.08-1.23c0.03-0.39,0.06-0.78,0.09-1.17c0.02-0.27,0.04-0.54,0.06-0.82c0.02-0.29,0.04-0.57,0.06-0.86
		c0.02-0.3,0.04-0.59,0.05-0.89c0.02-0.48,0.05-0.97,0.06-1.46c0.01-0.29,0.01-0.58,0.01-0.88c0-0.27,0-0.54,0-0.81
		c0-0.62-0.09-1.23-0.3-1.81c-0.21-0.58-0.44-1.15-0.68-1.72c-0.07-0.16-0.13-0.32-0.19-0.47c-0.02-0.04-0.03-0.08-0.04-0.12
		c-0.01-0.04-0.04-0.1,0.02-0.13c0.06-0.02,0.08,0.03,0.11,0.07c0.09,0.14,0.16,0.3,0.24,0.45c0.23,0.49,0.47,0.98,0.66,1.49
		c0.15,0.4,0.29,0.81,0.37,1.24c0.05,0.29,0.07,0.58,0.08,0.87C22.02,22.09,22.02,22.42,22.02,22.75
		C22.02,22.75,22.02,22.75,22.02,22.75z"/>
	<path d="M26.45,21.48c0.25,0,0.45,0.21,0.46,0.46c0,0.26-0.21,0.47-0.46,0.47c-0.25,0-0.46-0.21-0.46-0.46
		C25.99,21.72,26.22,21.46,26.45,21.48z M26.43,22.15c0.13,0,0.23-0.1,0.23-0.22c0-0.13-0.11-0.22-0.24-0.22
		c-0.14,0-0.22,0.08-0.22,0.22C26.2,22.05,26.3,22.15,26.43,22.15z"/>
	<path d="M19.66,14.71c0-0.04,0-0.09,0-0.13c0-0.04,0-0.09,0.05-0.1c0.06-0.01,0.06,0.05,0.08,0.09c0.01,0.02,0.02,0.05,0.02,0.08
		c0.08,0.45,0.17,0.9,0.23,1.35c0.04,0.28,0.02,0.56-0.02,0.84c-0.01,0.05,0,0.14-0.07,0.14c-0.06,0-0.05-0.09-0.06-0.14
		c-0.01-0.09-0.03-0.19-0.03-0.28c-0.01-0.42-0.08-0.82-0.14-1.23C19.7,15.12,19.67,14.92,19.66,14.71z"/>
	<path d="M26.84,27.07c0,0.19-0.11,0.36-0.29,0.42c-0.18,0.07-0.37,0.01-0.49-0.13c-0.11-0.13-0.13-0.35-0.02-0.5
		c0.11-0.16,0.29-0.28,0.47-0.22C26.7,26.71,26.83,26.87,26.84,27.07z M26.36,26.85c-0.14,0-0.23,0.09-0.23,0.23
		c0,0.13,0.12,0.24,0.26,0.24c0.14,0,0.24-0.09,0.24-0.22C26.64,26.96,26.52,26.85,26.36,26.85z"/>
	<path d="M26.57,32.56c-0.25,0-0.44-0.21-0.44-0.45c0-0.22,0.24-0.46,0.45-0.45c0.24,0.01,0.44,0.21,0.44,0.45
		C27.02,32.37,26.83,32.57,26.57,32.56z M26.58,32.36c0.15,0,0.27-0.11,0.27-0.26c0-0.14-0.12-0.26-0.27-0.25
		c-0.17,0.01-0.25,0.07-0.26,0.24C26.31,32.25,26.43,32.36,26.58,32.36z"/>
	<path d="M25.75,32.31c-0.03,0-0.07,0-0.12-0.01c-0.04,0-0.08-0.02-0.08-0.07c0-0.04,0.03-0.06,0.06-0.08
		c0.07-0.03,0.15-0.04,0.23-0.04c0.05,0,0.09,0.01,0.14,0.02c0.04,0.01,0.09,0.02,0.09,0.06c0,0.05-0.05,0.07-0.09,0.08
		c-0.04,0.01-0.08,0.02-0.12,0.02C25.84,32.3,25.8,32.3,25.75,32.31z"/>
	<path d="M25.72,22.04c-0.1,0-0.17,0-0.24-0.02c-0.04-0.01-0.09-0.02-0.09-0.08c0-0.05,0.04-0.07,0.09-0.08
		c0.14-0.02,0.27,0,0.39,0.06c0.02,0.01,0.05,0.03,0.05,0.06c-0.01,0.03-0.04,0.04-0.06,0.05C25.81,22.04,25.75,22.04,25.72,22.04z"
		/>
	<path d="M25.61,27.2c-0.06,0-0.09,0-0.13-0.02c-0.04-0.01-0.06-0.04-0.06-0.08c0-0.04,0.02-0.06,0.05-0.07
		c0.13-0.04,0.26-0.03,0.38,0.02c0.05,0.02,0.05,0.07,0,0.1C25.78,27.19,25.68,27.19,25.61,27.2z"/>
	<path d="M30.83,23.55c0-0.76,0.04-1.51,0.15-2.26c0.06-0.46,0.2-0.9,0.37-1.34c0.27-0.71,0.56-1.41,0.87-2.1
		c0.03-0.06,0.06-0.13,0.1-0.19c0.02-0.03,0.04-0.05,0.08-0.03c0.03,0.01,0.03,0.04,0.03,0.07c-0.01,0.05-0.03,0.1-0.04,0.15
		c-0.22,0.58-0.45,1.16-0.68,1.73c-0.19,0.47-0.36,0.94-0.46,1.43c-0.07,0.34-0.11,0.68-0.14,1.02c-0.05,0.6-0.08,1.21-0.06,1.81
		c0.01,0.4,0.03,0.8,0.06,1.2c0.02,0.25,0.04,0.5,0.05,0.76c0.02,0.36,0.06,0.72,0.11,1.07c0.05,0.44,0.11,0.89,0.16,1.33
		c0.06,0.52,0.12,1.03,0.18,1.55c0.07,0.58,0.15,1.17,0.2,1.75c0.05,0.53,0.09,1.06,0.12,1.59c0.02,0.45,0.05,0.91,0.07,1.36
		c0.03,0.58,0.07,1.15,0.11,1.73c0.03,0.48,0.06,0.96,0.1,1.44c0.04,0.48,0.08,0.95,0.13,1.43c0.07,0.68,0.17,1.36,0.26,2.03
		c0.03,0.2,0.04,0.39,0.03,0.59c0,0.08-0.01,0.15-0.05,0.22c-0.03,0.05-0.06,0.05-0.1,0c-0.03-0.04-0.04-0.09-0.05-0.14
		c-0.04-0.18-0.05-0.37-0.06-0.55c-0.03-0.36-0.09-0.72-0.14-1.08c-0.06-0.43-0.11-0.87-0.15-1.31c-0.04-0.4-0.07-0.81-0.11-1.21
		c-0.02-0.26-0.04-0.51-0.06-0.77c-0.02-0.28-0.04-0.55-0.06-0.83c-0.01-0.15-0.02-0.3-0.03-0.45c-0.01-0.38-0.04-0.76-0.06-1.14
		c-0.02-0.54-0.06-1.07-0.08-1.61c-0.02-0.37-0.04-0.74-0.08-1.11c-0.04-0.46-0.1-0.91-0.15-1.36c-0.05-0.44-0.1-0.89-0.15-1.33
		c-0.05-0.45-0.11-0.91-0.16-1.37c-0.06-0.54-0.14-1.09-0.18-1.64c-0.04-0.53-0.07-1.06-0.1-1.6
		C30.84,24.12,30.84,23.83,30.83,23.55z"/>
	<path d="M33.29,14.72c-0.01,0.3-0.06,0.6-0.1,0.9c-0.04,0.28-0.08,0.57-0.09,0.86c-0.01,0.12-0.02,0.24-0.03,0.36
		c0,0.02-0.01,0.05-0.02,0.07c-0.01,0.03-0.01,0.06-0.05,0.06c-0.04,0-0.04-0.03-0.05-0.06c-0.03-0.11-0.04-0.22-0.05-0.33
		c-0.05-0.45,0.05-0.88,0.12-1.31c0.04-0.21,0.08-0.41,0.12-0.62c0.01-0.05,0.03-0.1,0.04-0.15c0.01-0.03,0.03-0.05,0.06-0.04
		c0.03,0.01,0.04,0.03,0.04,0.05C33.29,14.59,33.29,14.66,33.29,14.72z"/>
	<path d="M25.37,12.05c-0.21,0-0.43-0.01-0.64-0.04c-0.06-0.01-0.11-0.02-0.16-0.04c-0.02-0.01-0.04-0.02-0.04-0.05
		c0-0.03,0.03-0.04,0.05-0.04c0.04-0.01,0.07-0.01,0.11-0.01c0.1,0,0.21,0.02,0.31,0.01c0.51,0,1.03-0.03,1.54-0.06
		c0.2-0.01,0.39-0.01,0.59-0.03c0.28-0.02,0.56-0.05,0.83-0.11c0.06-0.01,0.12-0.03,0.18-0.02c0.03,0,0.06,0.01,0.07,0.05
		c0.01,0.04-0.01,0.06-0.04,0.08c-0.04,0.03-0.09,0.04-0.13,0.05c-0.28,0.06-0.57,0.1-0.85,0.12c-0.54,0.04-1.08,0.06-1.62,0.09
		C25.49,12.05,25.43,12.05,25.37,12.05z"/>
	<path d="M24.21,14.8c0.03,0,0.06,0,0.07,0.02c0.01,0.02,0,0.05-0.01,0.07c-0.03,0.03-0.05,0.07-0.09,0.1
		c-0.15,0.12-0.3,0.24-0.47,0.33c-0.03,0.02-0.07,0.03-0.11,0.04c-0.03,0.01-0.06,0-0.09-0.03c-0.02-0.03-0.02-0.06,0-0.09
		c0.01-0.02,0.03-0.04,0.04-0.06c0.17-0.18,0.38-0.29,0.61-0.38C24.18,14.8,24.2,14.8,24.21,14.8z"/>
	<path d="M29.1,15.18c0,0.03-0.02,0.05-0.04,0.04c-0.05-0.01-0.09-0.02-0.13-0.05c-0.17-0.12-0.32-0.26-0.45-0.43
		c0-0.01-0.01-0.01-0.01-0.02c-0.02-0.04-0.05-0.09-0.01-0.13c0.04-0.04,0.09-0.02,0.13,0.01c0.04,0.03,0.09,0.06,0.13,0.1
		c0.1,0.09,0.2,0.19,0.29,0.3C29.05,15.05,29.09,15.11,29.1,15.18z"/>
</g>
</svg>
