<?xml version="1.0" encoding="utf-8"?>
<!-- Generator: Adobe Illustrator 27.3.1, SVG Export Plug-In . SVG Version: 6.00 Build 0)  -->
<svg version="1.1" id="Layer_1" xmlns="http://www.w3.org/2000/svg" xmlns:xlink="http://www.w3.org/1999/xlink" x="0px" y="0px"
	 viewBox="0 0 50 50" style="enable-background:new 0 0 50 50;" xml:space="preserve">
<style type="text/css">
	.st0{fill:none;}
	.st1{stroke:#000000;stroke-miterlimit:10;}
	.st2{stroke:#000000;stroke-width:0.75;stroke-miterlimit:10;}
	.st3{clip-path:url(#SVGID_00000033369646355389563390000010797586450993720708_);}
	.st4{clip-path:url(#SVGID_00000002375028128229496060000012128986158568730266_);}
	.st5{fill:#FFFFFF;}
	.st6{clip-path:url(#SVGID_00000145760499431226998560000001274129578512375169_);}
	.st7{fill:#231F20;}
	.st8{clip-path:url(#SVGID_00000070801813506183838470000007907092536246528133_);}
	.st9{clip-path:url(#SVGID_00000096039849511416400090000018082860012524150457_);}
	.st10{clip-path:url(#SVGID_00000089571536547559280020000003508360136745965696_);}
	.st11{clip-path:url(#SVGID_00000005236831478020581060000001768155789055441806_);}
	.st12{clip-path:url(#SVGID_00000090995781583157502260000016714561528446989743_);}
	.st13{clip-path:url(#SVGID_00000078033793315011297090000001416748857635100298_);}
	.st14{clip-path:url(#SVGID_00000054258644224665824780000017666879200711983269_);}
	.st15{clip-path:url(#SVGID_00000057848244962602113820000009814422144945036163_);}
	.st16{clip-path:url(#SVGID_00000148631506896650902570000017676332827453214647_);}
	.st17{clip-path:url(#SVGID_00000004517079027077843060000007012423416424275594_);}
	.st18{clip-path:url(#SVGID_00000183951575905752457290000014916826689683424147_);}
	.st19{clip-path:url(#SVGID_00000079463249702247497490000004956602406040603833_);}
	.st20{clip-path:url(#SVGID_00000165236521384537716290000008746119325340470451_);}
	.st21{clip-path:url(#SVGID_00000070107888952617123870000003826326050957718166_);}
	.st22{clip-path:url(#SVGID_00000176763915383330688620000005127598850389398954_);}
	.st23{clip-path:url(#SVGID_00000096751375575359932880000014622149960952373668_);}
	.st24{clip-path:url(#SVGID_00000027591781122934737970000016156009656989981583_);}
	.st25{clip-path:url(#SVGID_00000080174898349373760380000006502087004676575389_);}
	.st26{clip-path:url(#SVGID_00000075147818148550826760000008181701166051389872_);}
	.st27{clip-path:url(#SVGID_00000052075475622368790480000007328896561016148388_);}
	.st28{clip-path:url(#SVGID_00000062908862796048197920000012303710866752079535_);}
	.st29{clip-path:url(#SVGID_00000092427613006032677460000012716878839664813746_);}
	.st30{clip-path:url(#SVGID_00000064348576329450247100000013636757451173867700_);}
	.st31{fill-rule:evenodd;clip-rule:evenodd;}
	.st32{clip-path:url(#SVGID_00000087390271893201716150000002732037540995533733_);}
	.st33{clip-path:url(#SVGID_00000117678008103834238790000002734041998745724072_);}
	.st34{stroke:#000000;stroke-width:0.5;stroke-miterlimit:10;}
	.st35{clip-path:url(#SVGID_00000041275666170661978990000011197626069674294954_);}
	.st36{clip-path:url(#SVGID_00000157269262692056331520000004564860387120974225_);}
	.st37{clip-path:url(#SVGID_00000169526920694069141620000009731452633551747999_);}
	.st38{fill:#1A1A1A;}
	.st39{clip-path:url(#SVGID_00000118369359492322984400000009856585637359528619_);}
	.st40{clip-path:url(#SVGID_00000134948736854314862580000002936901601103787142_);}
	.st41{clip-path:url(#SVGID_00000065770247526910763230000013600447856756093354_);}
	.st42{clip-path:url(#SVGID_00000095319165950031265310000004760970069417416367_);}
	.st43{clip-path:url(#SVGID_00000026134330513627786500000013589836288129367445_);}
	.st44{clip-path:url(#SVGID_00000134935770324443484200000002647276482198578618_);}
	.st45{clip-path:url(#SVGID_00000022537162951412333380000009002861615450309011_);}
	.st46{clip-path:url(#SVGID_00000112616744624504519120000012193408288981561480_);}
	.st47{clip-path:url(#SVGID_00000018930295305674833790000000116654598953887106_);}
	.st48{fill:#F1F1F1;}
	.st49{fill:#E8E8E8;}
	.st50{fill:#FEFEFE;}
	.st51{fill:#CCCCCC;}
	.st52{fill:#B3B3B3;}
	.st53{fill:#E6E6E6;}
	.st54{fill:#EBEBEB;}
	.st55{fill:#EEEEEE;}
	.st56{fill:#F8F8F8;}
	.st57{fill:#FBFBFB;}
	.st58{fill:#383838;}
	.st59{fill:#232323;}
	.st60{fill:#F6F6F6;}
	.st61{fill:#535353;}
	.st62{fill:#0A0A0A;}
	.st63{fill:#F5F5F5;}
	.st64{fill:#818181;}
	.st65{fill:#4A4A4A;}
	.st66{fill:#999999;}
	.st67{fill:url(#SVGID_00000016780244437512663770000009602206709256121505_);}
	.st68{fill:url(#SVGID_00000075164639611807577450000018315698723929289148_);}
	.st69{fill:#0E0E0D;}
	.st70{fill:#333333;}
	.st71{fill:#808080;}
	.st72{fill:url(#SVGID_00000152266580572759711350000006094368266419989125_);}
	.st73{fill:#666666;}
	.st74{fill:url(#SVGID_00000183229836622631990820000001466731868471062443_);}
	.st75{fill:url(#SVGID_00000131351714024094152570000013295152670426047114_);}
	.st76{fill:url(#SVGID_00000134965202189805731950000002155395243947300504_);}
	.st77{fill:url(#SVGID_00000034054236743725156020000012990705817060853945_);}
	.st78{fill:url(#SVGID_00000075139433384973835290000015657362965039508641_);}
	.st79{clip-path:url(#SVGID_00000129172808672232342420000017220034662407691956_);}
	.st80{clip-path:url(#SVGID_00000069388424225053587790000013701681558207154359_);}
	.st81{clip-path:url(#SVGID_00000027602036366050476920000003541473885755880367_);}
	.st82{clip-path:url(#SVGID_00000068647664914352265210000007641770435236240521_);}
	.st83{clip-path:url(#SVGID_00000025427840133910781920000011160221646705602432_);}
	.st84{fill:#241F20;stroke:#000000;stroke-width:0.5;stroke-miterlimit:10;}
	.st85{clip-path:url(#SVGID_00000087412114051522753080000013897006676109637807_);}
	.st86{clip-path:url(#SVGID_00000057135305998809805810000001831871517347513476_);}
	.st87{clip-path:url(#SVGID_00000178206647880373400810000009384909184695242380_);}
	.st88{clip-path:url(#SVGID_00000105420137939323456830000001181986491739610777_);}
	.st89{clip-path:url(#SVGID_00000016755069068620090850000016049718103277190560_);}
	.st90{clip-path:url(#SVGID_00000079445049104527655850000001010966132352976780_);}
	.st91{clip-path:url(#SVGID_00000179646626601006404180000004885764354906536833_);}
	.st92{clip-path:url(#SVGID_00000119082298308868688870000016572397698082799017_);}
	.st93{clip-path:url(#SVGID_00000090987131180216700360000009828561066018652560_);}
	.st94{clip-path:url(#SVGID_00000109709946552988991130000017150368820484569997_);}
	.st95{clip-path:url(#SVGID_00000066491869506362031030000017025356751884390834_);}
	.st96{clip-path:url(#SVGID_00000045612811803464311900000017216014280456863109_);}
	.st97{clip-path:url(#SVGID_00000085224580707455160510000004889818592446210474_);}
	.st98{clip-path:url(#SVGID_00000082350638170918448480000005217905419024250523_);}
	.st99{clip-path:url(#SVGID_00000145738090868133324820000015498544198662000011_);}
	.st100{clip-path:url(#SVGID_00000054945854341670631920000006768282428958465210_);}
	.st101{clip-path:url(#SVGID_00000008125370890998341100000012147528165593982888_);}
	.st102{clip-path:url(#SVGID_00000077288944131509008670000007950373771693374617_);}
	.st103{clip-path:url(#SVGID_00000029739510258666138240000011983949673526936238_);}
	.st104{clip-path:url(#SVGID_00000011740437936021839660000001343063110978229654_);}
	.st105{clip-path:url(#SVGID_00000031929624801805981680000016348378067969339567_);}
	.st106{clip-path:url(#SVGID_00000135679859141821919590000010027363035075787405_);}
	.st107{clip-path:url(#SVGID_00000168102028810353473210000001274745159560989324_);}
	.st108{clip-path:url(#SVGID_00000092446226160034599730000005276933634840137088_);}
	.st109{clip-path:url(#SVGID_00000167394317313328587000000005369538094809959334_);}
	.st110{clip-path:url(#SVGID_00000111870934724344147030000017547440825915310518_);}
	.st111{clip-path:url(#SVGID_00000129903266597292745720000003988002859700227258_);}
	.st112{clip-path:url(#SVGID_00000162347305614328462050000006701126410624287897_);}
	.st113{clip-path:url(#SVGID_00000070799948953945652620000005161022477207629704_);}
	.st114{clip-path:url(#SVGID_00000181085649535959761600000014020848662299660728_);}
	.st115{fill:#FFFFFF;stroke:#000000;stroke-miterlimit:10;}
	.st116{clip-path:url(#SVGID_00000132803265651551263540000014339978171493614225_);}
	.st117{clip-path:url(#SVGID_00000119089293093644002230000015712138083293310609_);}
	.st118{fill:none;stroke:#010101;stroke-miterlimit:10;}
	.st119{fill:#010101;stroke:#000000;stroke-miterlimit:10;}
	.st120{clip-path:url(#SVGID_00000183222063398902770990000013832854317862929573_);}
	.st121{fill:#010101;stroke:#010101;stroke-miterlimit:10;}
	.st122{clip-path:url(#SVGID_00000018222545090091063910000013207279877084482748_);}
	.st123{clip-path:url(#SVGID_00000021101043678993690110000000206124587359529360_);}
	.st124{clip-path:url(#SVGID_00000029724626884217347870000018371067118476363395_);}
	.st125{clip-path:url(#SVGID_00000097465180663160099340000001264629819992207027_);}
	.st126{clip-path:url(#SVGID_00000046333000055786071240000011201851166696205234_);}
	.st127{fill:none;stroke:#000000;stroke-width:3;stroke-miterlimit:10;}
	.st128{clip-path:url(#SVGID_00000140709668347029635790000008140002663650827944_);}
	.st129{clip-path:url(#SVGID_00000070104822285516984690000016486940361868647865_);}
	.st130{clip-path:url(#SVGID_00000072275631088804176710000015327457147830798474_);}
	.st131{clip-path:url(#SVGID_00000040536421329651481610000008760461311440612018_);}
	.st132{fill:#040606;}
	.st133{clip-path:url(#SVGID_00000057850473495263692940000016125514851559095698_);}
	.st134{clip-path:url(#SVGID_00000031923981706987424960000014663333521951756696_);}
	.st135{clip-path:url(#SVGID_00000044176077911397049160000013286303875049225347_);}
	.st136{clip-path:url(#SVGID_00000053519465601525819690000000422682949914629308_);}
	.st137{clip-path:url(#SVGID_00000139269333675572504700000007315058233139380918_);}
	.st138{clip-path:url(#SVGID_00000087392307745669675270000001953678328621723044_);}
	.st139{clip-path:url(#SVGID_00000054256043484892117880000012000556330221502634_);}
	.st140{fill:#FFFFFF;stroke:#000000;stroke-width:1.5;stroke-miterlimit:10;}
	.st141{clip-path:url(#SVGID_00000114052255871428293070000014809663480650143661_);}
	.st142{fill:#BDBCBC;}
	.st143{clip-path:url(#SVGID_00000063603582786561838650000013484138516449275837_);}
	.st144{fill:#2E2A2B;}
	.st145{clip-path:url(#SVGID_00000063601154170400785490000014660108401845977481_);}
	.st146{clip-path:url(#SVGID_00000130626158255488801530000000676640878726521016_);}
	.st147{clip-path:url(#SVGID_00000126309028703763397700000006055540882596410546_);}
	.st148{clip-path:url(#SVGID_00000047746539377340668200000001190925306865740976_);}
	.st149{clip-path:url(#SVGID_00000112610605212501477870000005852962431977322628_);}
	.st150{fill:#272324;}
	.st151{clip-path:url(#SVGID_00000145772562108809650390000009367093792986408862_);}
	.st152{clip-path:url(#SVGID_00000018952715417686771300000008820666723267422105_);}
	.st153{clip-path:url(#SVGID_00000149368333704664413530000009171243466363137207_);}
	.st154{clip-path:url(#SVGID_00000039813150977895440950000007909037487197081017_);}
	.st155{clip-path:url(#SVGID_00000093178369300904756280000016887865400162810290_);}
	.st156{clip-path:url(#SVGID_00000088095472448579037430000013329630453353108608_);}
	.st157{fill:none;stroke:#000000;stroke-width:0.8735;stroke-linecap:round;stroke-linejoin:round;stroke-miterlimit:10;}
	.st158{clip-path:url(#SVGID_00000138543433630835229700000002033034132756963749_);}
	.st159{clip-path:url(#SVGID_00000070089520328864822740000005310987055028443034_);}
	.st160{clip-path:url(#SVGID_00000034064189104478789940000008177718150314199710_);}
	.st161{clip-path:url(#SVGID_00000005988308501025476630000012381065433199925653_);}
	.st162{clip-path:url(#SVGID_00000018949301659980100160000005932129005786157463_);}
	.st163{clip-path:url(#SVGID_00000127724562020741854750000015354723460975540924_);}
	.st164{clip-path:url(#SVGID_00000065074638845048257430000009585151976031508656_);}
	.st165{clip-path:url(#SVGID_00000064313127843501234440000008243272331031138697_);}
	.st166{clip-path:url(#SVGID_00000140724345893351370350000007758407498109209737_);}
	.st167{clip-path:url(#SVGID_00000177442515824465804020000003845634432763417008_);}
	.st168{clip-path:url(#SVGID_00000176042939932778423300000012392107803037484182_);}
	.st169{clip-path:url(#SVGID_00000132046876485236485780000001651273722173164189_);}
	.st170{clip-path:url(#SVGID_00000172408335747761835170000004943624280064063653_);}
	.st171{clip-path:url(#SVGID_00000121258828485917871470000005223096652814683810_);}
	.st172{clip-path:url(#SVGID_00000173862243697316774190000004285414061012397709_);}
	.st173{clip-path:url(#SVGID_00000105411041446228889260000005323062694839700156_);}
	.st174{clip-path:url(#SVGID_00000060718745291289006290000008453208492549767808_);}
	.st175{clip-path:url(#SVGID_00000155841828191615364280000008055627704698028444_);}
	.st176{clip-path:url(#SVGID_00000108272273215071060460000008741872300175571133_);}
	.st177{clip-path:url(#SVGID_00000102526910473488586460000016885600727776165565_);}
	.st178{clip-path:url(#SVGID_00000178896215259850511580000004367561115969939087_);}
	.st179{clip-path:url(#SVGID_00000043432387011328449290000008187779879739669404_);}
	.st180{clip-path:url(#SVGID_00000114073177998890568820000011394267574600569758_);}
	.st181{clip-path:url(#SVGID_00000144311916614760436930000011103090209411628929_);}
	.st182{clip-path:url(#SVGID_00000065760667147131631350000008957551989187202736_);}
	.st183{clip-path:url(#SVGID_00000160192405852505075800000006655771076920546452_);}
	.st184{clip-path:url(#SVGID_00000126302408385558551690000017651343122815902125_);}
	.st185{clip-path:url(#SVGID_00000051381979667899514630000016792200432196323982_);}
	.st186{clip-path:url(#SVGID_00000181073413650718578330000003458745966118180284_);}
	.st187{clip-path:url(#SVGID_00000037668014809000063120000012063378684865950336_);}
	.st188{clip-path:url(#SVGID_00000034794488127257624750000007712262103927062960_);}
	.st189{clip-path:url(#SVGID_00000145038008636076902370000011264387413263919520_);}
	.st190{clip-path:url(#SVGID_00000096047317339160526310000010227102761639221155_);}
	.st191{clip-path:url(#SVGID_00000039843485647924492950000018330131671932627866_);}
	.st192{clip-path:url(#SVGID_00000016066579439328283160000017073855898212108987_);}
	.st193{clip-path:url(#SVGID_00000155134544546079019700000001965237555712021900_);}
	.st194{clip-path:url(#SVGID_00000075163381460593535960000009846885973205163137_);}
	.st195{clip-path:url(#SVGID_00000093885448438997681060000010718627859470594432_);}
	.st196{fill:#E5E5E5;}
	.st197{fill:#1D1D1B;}
	.st198{fill:none;stroke:#000000;stroke-miterlimit:10;}
	.st199{fill:#FEFEFE;stroke:#000000;stroke-miterlimit:10;}
	.st200{clip-path:url(#SVGID_00000107590767266889815030000007433355348426717102_);}
	.st201{clip-path:url(#SVGID_00000093158521655165835850000012628406239557224355_);}
	.st202{clip-path:url(#SVGID_00000021110222133414914880000017627392693555862158_);}
	.st203{fill:#231F1F;}
	.st204{fill:#020000;}
	.st205{clip-path:url(#SVGID_00000155108893562436776200000014112540477362422432_);}
	.st206{clip-path:url(#SVGID_00000001662098152022648670000007189281568573119135_);}
	.st207{clip-path:url(#SVGID_00000115492890353302866910000017744867696834183333_);}
	.st208{clip-path:url(#SVGID_00000004538468548805207310000012025167684477537206_);}
	.st209{fill:#050000;}
	.st210{clip-path:url(#SVGID_00000023261345894738745440000013574652628503365261_);}
	.st211{clip-path:url(#SVGID_00000020396723071134293240000010543037439033425053_);}
	.st212{clip-path:url(#SVGID_00000157991772058050079250000006027415522988945340_);}
	.st213{clip-path:url(#SVGID_00000173882005982348148770000006982715365565000846_);}
	.st214{clip-path:url(#SVGID_00000155118564649909733300000010981114844157625993_);}
	.st215{clip-path:url(#SVGID_00000152942694766620511730000007506698893272990131_);}
	.st216{fill:#12100F;}
	.st217{clip-path:url(#SVGID_00000183962059193101818470000014979930790921817507_);}
	.st218{clip-path:url(#SVGID_00000136393175287406962000000016666983892486819483_);}
	.st219{fill:none;stroke:#000000;stroke-width:0.5;stroke-miterlimit:10;}
	.st220{clip-path:url(#SVGID_00000086660701177290794070000000144236087134920365_);}
	.st221{clip-path:url(#SVGID_00000146485104522818665570000006491621347813322390_);}
	.st222{clip-path:url(#SVGID_00000021103813720261678730000017976177111828070572_);}
	.st223{clip-path:url(#SVGID_00000087370512593184159080000016253589838446041730_);}
	.st224{fill:none;stroke:#000000;stroke-width:0.25;stroke-miterlimit:10;}
	.st225{clip-path:url(#SVGID_00000116938258714701478820000002045232522593226398_);}
	.st226{clip-path:url(#SVGID_00000104669003890317589200000000346279907948669596_);}
	.st227{clip-path:url(#SVGID_00000122702857041119063980000011595281588607189384_);}
</style>
<g>
	<defs>
		<rect id="SVGID_00000031886053359324962230000012374482169217594767_" x="12.11" y="7.35" width="25.03" height="36.66"/>
	</defs>
	<clipPath id="SVGID_00000047751491569430007260000003220037664359944621_">
		<use xlink:href="#SVGID_00000031886053359324962230000012374482169217594767_"  style="overflow:visible;"/>
	</clipPath>
	<g style="clip-path:url(#SVGID_00000047751491569430007260000003220037664359944621_);">
		<path d="M34.73,12.68c-0.96-2.54-3.85-4.32-5.05-4.96c-0.41-0.23-0.88-0.34-1.35-0.34H20.9c-0.47,0-0.93,0.12-1.35,0.34
			c-1.2,0.64-4.09,2.42-5.05,4.96c-1.2,3.17-2.34,17.5-2.39,18.11c-0.01,0.1,0.03,0.19,0.11,0.25c0.97,0.77,2.2,1.18,3.65,1.25
			c-0.41,2.61-0.66,5.48-0.76,8.64c-0.02,0.57,0.19,1.11,0.59,1.52c0.4,0.41,0.93,0.64,1.5,0.64h4.53c0.31,0.24,0.68,0.41,1.1,0.48
			c0.48,0.07,0.96,0.13,1.43,0.19c0.01,0,0.02,0,0.03,0c0,0,0,0,0.01,0c1.08,0.11,2.16,0.17,3.23,0.17c1.6,0,3.2-0.13,4.79-0.38
			c1.06-0.17,1.86-1.09,1.9-2.17c0.12-3.34-0.04-6.38-0.47-9.11c1.11-0.15,2.2-0.55,3.23-1.21c0.09-0.06,0.14-0.16,0.13-0.27
			C37.07,30.17,35.93,15.84,34.73,12.68z M34.19,12.88c0.9,2.36,1.79,11.48,2.16,15.74c-0.89,0.68-1.92,1.1-3.07,1.27
			c-0.6-2.55-1.49-4.78-2.64-6.68l0.37-2.13c0.46-2.35,1.25-4.81,2.36-7.34c0.07-0.15,0-0.32-0.15-0.38c-0.14-0.07-0.32,0-0.38,0.15
			c-1.11,2.53-1.91,5.02-2.38,7.38c-0.13,0.12-0.56,0.49-1.6,0.82l1.54-4.97c0.05-0.15-0.04-0.31-0.19-0.36
			c-0.16-0.05-0.32,0.04-0.37,0.19l-1.64,5.32c-0.85,0.2-1.98,0.35-3.47,0.36c-0.03-0.12-0.09-0.22-0.17-0.32
			c2.65-4.73,4.29-9.34,4.89-13.69C30.61,8.88,33.31,10.55,34.19,12.88z M20.96,35.25h-0.62c-0.29,0-0.53-0.24-0.53-0.53v-4.7
			c0.16,0.04,0.32,0.07,0.47,0.07c0.42,0,0.8-0.16,1.06-0.45c0.06-0.06,0.1-0.14,0.15-0.22v5.31
			C21.49,35.01,21.25,35.25,20.96,35.25z M18.9,23.13l-0.24-1.41c0.43,0.26,1.11,0.56,2.15,0.78c-0.35,0.28-0.69,0.67-1.01,1.13
			C19.26,23.42,18.99,23.22,18.9,23.13z M20.94,23.15v0.83c-0.75,0.96-1.18,2.23-1.31,3.87c-0.01,0.16,0.1,0.3,0.27,0.31
			c0.01,0,0.01,0,0.02,0c0.15,0,0.28-0.11,0.29-0.27c0.1-1.25,0.38-2.26,0.85-3.06c0.1,0.18,0.24,0.33,0.42,0.42
			c0,0.03,0,0.05,0,0.07c-0.01,1.37-0.17,3.45-0.59,3.92c-0.21,0.24-0.59,0.32-0.99,0.2c-0.46-0.14-0.99-0.56-1.1-1.35
			C18.63,26.81,19.77,24.28,20.94,23.15z M21.95,24.79c-0.23,0-0.43-0.19-0.43-0.43v-1.83c0-0.23,0.19-0.42,0.43-0.42h1.82
			c0.23,0,0.43,0.19,0.43,0.42v1.83c0,0.23-0.19,0.43-0.43,0.43H21.95z M24.23,34.72v-5.71c0.13,0.28,0.28,0.51,0.47,0.66
			c0.31,0.24,0.74,0.38,1.21,0.41v4.64c0,0.3-0.24,0.53-0.53,0.53h-0.62C24.47,35.25,24.23,35.01,24.23,34.72z M25.06,29.22
			c-0.6-0.48-0.82-2.61-0.83-3.96c0.23-0.12,0.4-0.31,0.48-0.56c0.81,0.85,1.34,1.93,1.59,3.23c0.03,0.14,0.15,0.23,0.28,0.23
			c0.02,0,0.04,0,0.06,0c0.16-0.03,0.26-0.18,0.23-0.34c-0.31-1.59-1.02-2.89-2.1-3.87v-0.93c1.83,1.06,3.79,3.79,3.53,5.07
			c-0.1,0.54-0.55,0.99-1.23,1.24C26.33,29.6,25.49,29.56,25.06,29.22z M25.51,22.81c1.24-0.06,2.21-0.2,2.96-0.39
			c0.02,0,0.03-0.01,0.05-0.01c0.84-0.21,1.41-0.47,1.79-0.69l-0.24,1.41c-0.2,0.17-1.01,0.73-3.09,1
			C26.52,23.62,26.01,23.16,25.51,22.81z M28.89,8.03c-0.56,4.3-2.18,8.87-4.81,13.57c-0.1-0.03-0.2-0.06-0.32-0.06h-1.41
			c0.89-1.65,1.76-3.33,2.53-5.04c0,0,0,0,0,0c1.27-2.82,2.27-5.7,2.65-8.54h0.8C28.52,7.96,28.71,7.98,28.89,8.03z M24.62,7.96
			h2.33c-0.35,2.56-1.21,5.15-2.33,7.72c-1.25-2.88-2.02-5.42-2.33-7.72H24.62z M21.7,7.96c0.33,2.51,1.18,5.27,2.6,8.44
			c-0.28,0.62-0.57,1.23-0.87,1.84c-1.63-3.51-2.66-6.94-3.09-10.21c0.18-0.05,0.37-0.07,0.56-0.07H21.7z M15.04,12.88
			c0.89-2.33,3.58-4,4.74-4.63c0.47,3.41,1.58,6.99,3.32,10.65c-0.46,0.9-0.93,1.8-1.41,2.68c-0.1,0.03-0.19,0.07-0.27,0.12
			l-0.93-3.31c-0.04-0.16-0.2-0.24-0.36-0.2c-0.15,0.04-0.24,0.2-0.2,0.36l0.95,3.37c-1.59-0.35-2.21-0.88-2.36-1.02
			c-0.38-1.96-1.07-4.23-2.11-6.95c-0.06-0.15-0.23-0.23-0.38-0.17c-0.15,0.06-0.22,0.22-0.17,0.37c1.04,2.73,1.73,4.99,2.09,6.93
			l0.37,2.16c-0.85,2.02-1.53,4.27-2.05,6.79c-1.28-0.09-2.43-0.43-3.44-1C13.19,24.98,14.11,15.32,15.04,12.88z M12.7,30.67
			c0.01-0.19,0.04-0.54,0.08-1.01c1,0.53,2.14,0.84,3.39,0.94c-0.07,0.36-0.14,0.73-0.2,1.1C14.66,31.66,13.56,31.31,12.7,30.67z
			 M16.11,42.03c-0.29-0.3-0.43-0.69-0.42-1.1c0.22-7.09,1.23-12.72,3.06-17.19c0.17,0.11,0.4,0.24,0.72,0.38
			c-0.81,1.33-1.37,3-1.23,4.06c0.11,0.77,0.53,1.29,1,1.59c0,0.01,0,0.01,0,0.03v4.92c0,0.61,0.5,1.11,1.11,1.11h0.54v5.46
			c0,0.44,0.13,0.86,0.34,1.21H17.2C16.79,42.49,16.4,42.33,16.11,42.03z M21.45,41.29v-5.58c0.36-0.18,0.61-0.56,0.61-0.99v-9.35
			h1.59v9.35c0,0.31,0.13,0.6,0.35,0.8v7.61c-0.36-0.04-0.72-0.09-1.08-0.14C22.07,42.85,21.45,42.14,21.45,41.29z M33.65,41.34
			c-0.03,0.81-0.63,1.5-1.42,1.63c-2.52,0.4-5.09,0.48-7.65,0.22v-7.38c0.06,0.01,0.12,0.02,0.18,0.02h0.62
			c0.61,0,1.11-0.5,1.11-1.11v-4.66c0.27-0.03,0.53-0.09,0.79-0.19c0.87-0.32,1.46-0.93,1.6-1.67c0.19-0.95-0.48-2.33-1.45-3.55
			c1.61-0.25,2.45-0.67,2.84-0.94C32.78,27.95,33.92,33.88,33.65,41.34z M33.65,31.68c-0.07-0.42-0.16-0.83-0.24-1.23
			c1.11-0.17,2.12-0.55,3.01-1.16c0.05,0.64,0.09,1.11,0.11,1.36C35.6,31.21,34.64,31.56,33.65,31.68z"/>
	</g>
</g>
</svg>
