<?xml version="1.0" encoding="utf-8"?>
<!-- Generator: Adobe Illustrator 27.3.1, SVG Export Plug-In . SVG Version: 6.00 Build 0)  -->
<svg version="1.1" id="Layer_1" xmlns="http://www.w3.org/2000/svg" xmlns:xlink="http://www.w3.org/1999/xlink" x="0px" y="0px"
	 viewBox="0 0 50 50" style="enable-background:new 0 0 50 50;" xml:space="preserve">
<style type="text/css">
	.st0{fill:none;}
	.st1{stroke:#000000;stroke-miterlimit:10;}
	.st2{stroke:#000000;stroke-width:0.75;stroke-miterlimit:10;}
	.st3{clip-path:url(#SVGID_00000080198110716459693850000000853379390307642510_);}
	.st4{clip-path:url(#SVGID_00000139252720491374049200000004744537038357798540_);}
	.st5{fill:#FFFFFF;}
	.st6{clip-path:url(#SVGID_00000098193305849993709760000004430140265376351385_);}
	.st7{fill:#231F20;}
	.st8{clip-path:url(#SVGID_00000039126843164689982540000005847269847370895759_);}
	.st9{clip-path:url(#SVGID_00000085240217537484334660000011808248646619174576_);}
	.st10{clip-path:url(#SVGID_00000145754019420853492330000006532862528081543552_);}
	.st11{clip-path:url(#SVGID_00000139253791688225045190000005563164503604879034_);}
	.st12{clip-path:url(#SVGID_00000013912868167366543970000006862977971274294190_);}
	.st13{clip-path:url(#SVGID_00000081622977582329259550000015676456725794085008_);}
	.st14{clip-path:url(#SVGID_00000054979939445734302320000015791474656504144274_);}
	.st15{clip-path:url(#SVGID_00000065780070365916856600000006667896338382936208_);}
	.st16{clip-path:url(#SVGID_00000066510065679644712650000002123518839952178056_);}
	.st17{clip-path:url(#SVGID_00000081622447581412403410000001133010384393735338_);}
	.st18{clip-path:url(#SVGID_00000032610952332881951740000008832067275360177593_);}
	.st19{clip-path:url(#SVGID_00000108996134297979850150000000839752775436930225_);}
	.st20{clip-path:url(#SVGID_00000157301297182710460670000007105214409737305500_);}
	.st21{clip-path:url(#SVGID_00000169526595356870820780000014476814217382896789_);}
	.st22{clip-path:url(#SVGID_00000104681203996325033480000005730068217110991285_);}
	.st23{clip-path:url(#SVGID_00000119800230048220339170000013712931486773180844_);}
	.st24{clip-path:url(#SVGID_00000026160646294106358880000006638284339581825157_);}
	.st25{clip-path:url(#SVGID_00000074430023185068491110000007852312228164065466_);}
	.st26{clip-path:url(#SVGID_00000056414843123309320360000011176202703417143478_);}
	.st27{clip-path:url(#SVGID_00000181066727758943078690000000215277398476281253_);}
	.st28{clip-path:url(#SVGID_00000127723829638683771100000016185838700350357419_);}
	.st29{clip-path:url(#SVGID_00000092419092290051594090000004308755915763239299_);}
	.st30{clip-path:url(#SVGID_00000059281757611322281260000004127916573036849052_);}
	.st31{fill-rule:evenodd;clip-rule:evenodd;}
	.st32{clip-path:url(#SVGID_00000076594718862154097060000002732145481256894097_);}
	.st33{clip-path:url(#SVGID_00000062876497079665144370000012103019655543213999_);}
	.st34{stroke:#000000;stroke-width:0.5;stroke-miterlimit:10;}
	.st35{clip-path:url(#SVGID_00000140013370730401016830000015612113212093596076_);}
	.st36{clip-path:url(#SVGID_00000008860990421939069950000017051005296971984535_);}
	.st37{clip-path:url(#SVGID_00000009583527888610831220000016923383087255881613_);}
	.st38{fill:#1A1A1A;}
	.st39{clip-path:url(#SVGID_00000121983957211223686930000015243285330734464912_);}
	.st40{clip-path:url(#SVGID_00000086651896404320725490000009365107436740502438_);}
	.st41{clip-path:url(#SVGID_00000111191209521761833860000001441519123029264019_);}
	.st42{clip-path:url(#SVGID_00000165225942907438632720000002952593690435214257_);}
	.st43{clip-path:url(#SVGID_00000042738358092699380610000009423048376195784356_);}
	.st44{clip-path:url(#SVGID_00000134960119681387521110000007236817808272211621_);}
	.st45{clip-path:url(#SVGID_00000108989157279370437110000011643263955968455328_);}
	.st46{clip-path:url(#SVGID_00000137832611320878324930000016581086806395880886_);}
	.st47{clip-path:url(#SVGID_00000141423788262150142780000008647249228911882370_);}
	.st48{fill:#F1F1F1;}
	.st49{fill:#E8E8E8;}
	.st50{fill:#FEFEFE;}
	.st51{fill:#CCCCCC;}
	.st52{fill:#B3B3B3;}
	.st53{fill:#E6E6E6;}
	.st54{fill:#EBEBEB;}
	.st55{fill:#EEEEEE;}
	.st56{fill:#F8F8F8;}
	.st57{fill:#FBFBFB;}
	.st58{fill:#383838;}
	.st59{fill:#232323;}
	.st60{fill:#F6F6F6;}
	.st61{fill:#535353;}
	.st62{fill:#0A0A0A;}
	.st63{fill:#F5F5F5;}
	.st64{fill:#818181;}
	.st65{fill:#4A4A4A;}
	.st66{fill:#999999;}
	.st67{fill:url(#SVGID_00000133513103095455045460000008234691702430879672_);}
	.st68{fill:url(#SVGID_00000111182829941258186450000016240978888524270511_);}
	.st69{fill:#0E0E0D;}
	.st70{fill:#333333;}
	.st71{fill:#808080;}
	.st72{fill:url(#SVGID_00000077324317084927077680000011713554482629917320_);}
	.st73{fill:#666666;}
	.st74{fill:url(#SVGID_00000101781470104998686430000017681562907563966112_);}
	.st75{fill:url(#SVGID_00000103240054069250776460000015626855448776197028_);}
	.st76{fill:url(#SVGID_00000062911312080090274760000005434704158881139118_);}
	.st77{fill:url(#SVGID_00000144330984829871573190000010326120500523194274_);}
	.st78{fill:url(#SVGID_00000149344146193241916790000006688010433733883783_);}
	.st79{clip-path:url(#SVGID_00000168085213409747598950000015017450279249830292_);}
	.st80{clip-path:url(#SVGID_00000023967959311153725630000003492367330043351428_);}
	.st81{clip-path:url(#SVGID_00000078025278062567541400000003259652742200529552_);}
	.st82{clip-path:url(#SVGID_00000021810963171213223950000015399487257874099856_);}
	.st83{clip-path:url(#SVGID_00000009566025916527737500000000753048268676255637_);}
	.st84{fill:#241F20;stroke:#000000;stroke-width:0.5;stroke-miterlimit:10;}
	.st85{clip-path:url(#SVGID_00000157988562289043773130000018051820784172520619_);}
	.st86{clip-path:url(#SVGID_00000019663810878697053630000015277611415719155119_);}
	.st87{clip-path:url(#SVGID_00000047051202335607811220000010510783833780772277_);}
	.st88{clip-path:url(#SVGID_00000111189665319272077440000002802111203437204384_);}
	.st89{clip-path:url(#SVGID_00000048481360558823376630000003723405728296031880_);}
	.st90{clip-path:url(#SVGID_00000156558502728445669280000002700733064026284989_);}
	.st91{clip-path:url(#SVGID_00000051361645930743477220000009868691538684228253_);}
	.st92{clip-path:url(#SVGID_00000124156877603991851710000000061267172564505522_);}
	.st93{clip-path:url(#SVGID_00000107568811858232569740000012816481645305599659_);}
	.st94{clip-path:url(#SVGID_00000165194495548246692040000010320197784793909409_);}
	.st95{clip-path:url(#SVGID_00000034779636673581903510000003456593840429448578_);}
	.st96{clip-path:url(#SVGID_00000049934982308405523120000007584627109680780950_);}
	.st97{clip-path:url(#SVGID_00000039132983821993540000000016125123647449881762_);}
	.st98{clip-path:url(#SVGID_00000042724631766637044930000003046245431543760036_);}
	.st99{clip-path:url(#SVGID_00000070091041288950116980000006564562827556078765_);}
	.st100{clip-path:url(#SVGID_00000142876096339924131450000007894619777426244027_);}
	.st101{clip-path:url(#SVGID_00000000217597411011978650000010258967242136372147_);}
	.st102{clip-path:url(#SVGID_00000075884062890733837400000009557900762000122034_);}
	.st103{clip-path:url(#SVGID_00000063621857382173563480000006990489175805256383_);}
	.st104{clip-path:url(#SVGID_00000086660879377094770270000000061084773561021619_);}
	.st105{clip-path:url(#SVGID_00000031182967527963490020000006551312866905934723_);}
	.st106{clip-path:url(#SVGID_00000009575726236129469780000010691634911067830662_);}
	.st107{clip-path:url(#SVGID_00000168095597791984667370000005882029725879314583_);}
	.st108{clip-path:url(#SVGID_00000111870439698333141920000004629500699551478682_);}
	.st109{clip-path:url(#SVGID_00000114796395444905641780000001723953585391560341_);}
	.st110{clip-path:url(#SVGID_00000154409644954786047670000011951422832735150994_);}
	.st111{clip-path:url(#SVGID_00000133525654590114022420000013092441620842846868_);}
	.st112{clip-path:url(#SVGID_00000064333499603607172640000014440929485641504925_);}
	.st113{clip-path:url(#SVGID_00000130611477180128859100000011991484459842385574_);}
	.st114{clip-path:url(#SVGID_00000072243398290673556850000014647606103504010888_);}
	.st115{fill:#FFFFFF;stroke:#000000;stroke-miterlimit:10;}
	.st116{clip-path:url(#SVGID_00000123405443070098006420000016537625173284285101_);}
	.st117{clip-path:url(#SVGID_00000176044530465739875250000016609027934503145102_);}
	.st118{fill:none;stroke:#010101;stroke-miterlimit:10;}
	.st119{fill:#010101;stroke:#000000;stroke-miterlimit:10;}
	.st120{clip-path:url(#SVGID_00000081640625326751896840000006237880860892118162_);}
	.st121{fill:#010101;stroke:#010101;stroke-miterlimit:10;}
	.st122{clip-path:url(#SVGID_00000083794324288286512840000008838592828236064154_);}
	.st123{clip-path:url(#SVGID_00000093146604958372778120000017256570908040592307_);}
	.st124{clip-path:url(#SVGID_00000114059109433241781890000007450744902131769758_);}
	.st125{clip-path:url(#SVGID_00000073689929411482312990000017743101419724252090_);}
	.st126{clip-path:url(#SVGID_00000092424900861997751340000011249457318897771192_);}
	.st127{fill:none;stroke:#000000;stroke-width:3;stroke-miterlimit:10;}
	.st128{clip-path:url(#SVGID_00000129200655871284569800000017544094830243667646_);}
	.st129{clip-path:url(#SVGID_00000044139310877144736660000005349882789671076782_);}
	.st130{clip-path:url(#SVGID_00000086655605573074468670000016526329740759415685_);}
	.st131{clip-path:url(#SVGID_00000041283806959201229310000013164591684800073856_);}
	.st132{fill:#040606;}
	.st133{clip-path:url(#SVGID_00000023995966000430828670000008311017047839393963_);}
	.st134{clip-path:url(#SVGID_00000011010772179784238440000002915174908224380821_);}
	.st135{clip-path:url(#SVGID_00000080927085993651081020000008109279342158214079_);}
	.st136{clip-path:url(#SVGID_00000142178581755582998820000005349609333573983366_);}
	.st137{clip-path:url(#SVGID_00000160165308642326191090000011657912248832389308_);}
	.st138{clip-path:url(#SVGID_00000021825260628388671910000018208007798664654755_);}
	.st139{clip-path:url(#SVGID_00000017497365160852996730000008151343212955387536_);}
	.st140{fill:#FFFFFF;stroke:#000000;stroke-width:1.5;stroke-miterlimit:10;}
	.st141{clip-path:url(#SVGID_00000143578470989365122020000002514158039143115929_);}
	.st142{fill:#BDBCBC;}
	.st143{clip-path:url(#SVGID_00000016794136391085926950000007674952831058577553_);}
	.st144{fill:#2E2A2B;}
	.st145{clip-path:url(#SVGID_00000106836001595483486880000006527404594943663506_);}
	.st146{clip-path:url(#SVGID_00000022561069248298602460000012773235854362046907_);}
	.st147{clip-path:url(#SVGID_00000112597731316311657630000010020119202290105518_);}
	.st148{clip-path:url(#SVGID_00000011721551547128570060000010372075639410140850_);}
	.st149{clip-path:url(#SVGID_00000013886006717389901490000017633476612928513192_);}
	.st150{fill:#272324;}
	.st151{clip-path:url(#SVGID_00000137095634704429565540000012894086745905245619_);}
	.st152{clip-path:url(#SVGID_00000092423769163967196510000002225185377611775129_);}
	.st153{clip-path:url(#SVGID_00000045581634843903750410000005826926724172476854_);}
	.st154{clip-path:url(#SVGID_00000036230010677117032970000012695265331381704833_);}
	.st155{clip-path:url(#SVGID_00000132056238645251255780000015806606246726524064_);}
	.st156{clip-path:url(#SVGID_00000119820029855582463300000004333833082654875573_);}
	.st157{fill:none;stroke:#000000;stroke-width:0.8735;stroke-linecap:round;stroke-linejoin:round;stroke-miterlimit:10;}
	.st158{clip-path:url(#SVGID_00000178166630951161661890000013799243988597156768_);}
	.st159{clip-path:url(#SVGID_00000093174570925626361190000000153311465748470146_);}
	.st160{clip-path:url(#SVGID_00000053508115220569100710000000076731656912256129_);}
	.st161{clip-path:url(#SVGID_00000131325487504488701360000012046983470771380129_);}
	.st162{clip-path:url(#SVGID_00000079464526674027290390000016418182091812477871_);}
	.st163{clip-path:url(#SVGID_00000088133093250507474720000018044719486756656800_);}
	.st164{clip-path:url(#SVGID_00000165221573204539146960000003509480133990594465_);}
	.st165{clip-path:url(#SVGID_00000142876283715068041800000010971086075576234672_);}
	.st166{clip-path:url(#SVGID_00000103956484516680156500000017405572532801149319_);}
	.st167{clip-path:url(#SVGID_00000007424155672338502800000015880923394485279367_);}
	.st168{clip-path:url(#SVGID_00000026861934141252499280000015997674615094585759_);}
	.st169{clip-path:url(#SVGID_00000009577692181174812580000012974306703523226548_);}
	.st170{clip-path:url(#SVGID_00000060009388870297207250000004728867135870640003_);}
	.st171{clip-path:url(#SVGID_00000096054627009878481630000012240755257691479983_);}
	.st172{clip-path:url(#SVGID_00000119829142413006446520000017535733492022496687_);}
	.st173{clip-path:url(#SVGID_00000020397741923434159970000013536542877734471067_);}
	.st174{clip-path:url(#SVGID_00000120529445724005001190000004603418206150038678_);}
	.st175{clip-path:url(#SVGID_00000107571345236172953610000001532582026686098858_);}
	.st176{clip-path:url(#SVGID_00000078738533319314674920000004504588448026161835_);}
	.st177{clip-path:url(#SVGID_00000151512653997500969290000015049537069540305804_);}
	.st178{clip-path:url(#SVGID_00000137106461691052236850000015922859931223655817_);}
	.st179{clip-path:url(#SVGID_00000068666355355763075060000013797320148858176680_);}
	.st180{clip-path:url(#SVGID_00000155120661040487051020000008335133322915727261_);}
	.st181{clip-path:url(#SVGID_00000145040024346018885260000017851872066956922274_);}
	.st182{clip-path:url(#SVGID_00000076578284900415083180000015512807574876685469_);}
	.st183{clip-path:url(#SVGID_00000039843018041719715460000005416997585903103157_);}
	.st184{clip-path:url(#SVGID_00000065770622777466795830000001289236383839772570_);}
	.st185{clip-path:url(#SVGID_00000126312889425467993090000003554550796659795855_);}
	.st186{clip-path:url(#SVGID_00000062914456008684680580000009632697965115128736_);}
	.st187{clip-path:url(#SVGID_00000058588347737968591300000013734744359522973116_);}
	.st188{clip-path:url(#SVGID_00000133526217760933041510000001301144897845512638_);}
	.st189{clip-path:url(#SVGID_00000146494226066118587890000007458484054650846355_);}
	.st190{clip-path:url(#SVGID_00000167355843604789167510000006343822041356223891_);}
	.st191{clip-path:url(#SVGID_00000072269546412448601490000017221511021848200861_);}
	.st192{clip-path:url(#SVGID_00000172421594014615419060000004846799820129659279_);}
	.st193{clip-path:url(#SVGID_00000161619744590481394500000017292606683922513590_);}
	.st194{clip-path:url(#SVGID_00000101814679840666592490000007556265160553215658_);}
	.st195{clip-path:url(#SVGID_00000036953500187186711940000018142850925373771960_);}
	.st196{fill:#E5E5E5;}
	.st197{fill:#1D1D1B;}
	.st198{fill:none;stroke:#000000;stroke-miterlimit:10;}
	.st199{fill:#FEFEFE;stroke:#000000;stroke-miterlimit:10;}
	.st200{clip-path:url(#SVGID_00000116212751112979970270000000635067550623675265_);}
	.st201{clip-path:url(#SVGID_00000013905666739002336920000007337609819794321835_);}
	.st202{clip-path:url(#SVGID_00000163793329914231121210000004572941538866067606_);}
	.st203{fill:#231F1F;}
	.st204{fill:#020000;}
	.st205{clip-path:url(#SVGID_00000103958545427663177410000004873890620875045767_);}
	.st206{clip-path:url(#SVGID_00000132787312071933430630000005459488459097619363_);}
	.st207{clip-path:url(#SVGID_00000156578827369306456490000002680925710475303867_);}
	.st208{clip-path:url(#SVGID_00000060714318445755001960000017563871423701086624_);}
	.st209{fill:#050000;}
	.st210{clip-path:url(#SVGID_00000060001562887365797830000008347430136148393619_);}
	.st211{clip-path:url(#SVGID_00000113311203033923291730000006825095469408972691_);}
	.st212{clip-path:url(#SVGID_00000003106363261154050210000011609132285106953864_);}
	.st213{clip-path:url(#SVGID_00000047777050993965318160000014488361481346205350_);}
	.st214{clip-path:url(#SVGID_00000093140251605730263300000007666594248767470519_);}
	.st215{clip-path:url(#SVGID_00000098940345538910024590000007686056776978164379_);}
	.st216{fill:#12100F;}
	.st217{clip-path:url(#SVGID_00000158706978596554147010000012576852504867036063_);}
	.st218{clip-path:url(#SVGID_00000146472685336793345020000017902715292467548584_);}
	.st219{fill:none;stroke:#000000;stroke-width:0.5;stroke-miterlimit:10;}
	.st220{clip-path:url(#SVGID_00000159451542321410680470000003336538575334779282_);}
	.st221{clip-path:url(#SVGID_00000175313493779639786810000016374010601249954950_);}
	.st222{clip-path:url(#SVGID_00000129910163636954924260000007812403756298214057_);}
	.st223{clip-path:url(#SVGID_00000176035343227268732000000013581932858606559635_);}
	.st224{fill:none;stroke:#000000;stroke-width:0.25;stroke-miterlimit:10;}
	.st225{clip-path:url(#SVGID_00000142890135294348918270000007436047755264369306_);}
	.st226{clip-path:url(#SVGID_00000085954694582438716130000017928007349310656899_);}
	.st227{clip-path:url(#SVGID_00000072246275237939268540000003428406079298354835_);}
</style>
<g>
	<g>
		<defs>
			<rect id="SVGID_00000134933570781641090620000015547967500451506073_" x="11.32" y="19.84" width="33.93" height="22.81"/>
		</defs>
		<clipPath id="SVGID_00000054257233421398783310000015944921559515751328_">
			<use xlink:href="#SVGID_00000134933570781641090620000015547967500451506073_"  style="overflow:visible;"/>
		</clipPath>
		<g style="clip-path:url(#SVGID_00000054257233421398783310000015944921559515751328_);">
			<path class="st7" d="M45.21,35.28c0-1.04,0.01-2.09-0.01-3.13c-0.01-0.28-0.32-0.34-0.52-0.38c0.02-0.43,0.02-0.86,0.02-1.3
				c-0.02-0.14,0.09-0.24,0.12-0.37c0.05-0.3,0-0.61-0.14-0.88c-0.19-0.37-0.54-0.62-0.9-0.81c-0.53-0.27-1.1-0.45-1.67-0.61
				c-1.94-0.52-3.95-0.79-5.95-0.88c-1.59-0.31-3.18-0.66-4.8-0.8c-0.54-0.25-0.95-0.72-1.41-1.08c-0.02-1.1,0.01-2.2-0.01-3.3
				c-0.31-0.17-0.65-0.28-0.97-0.42c-2.66-1.01-5.41-1.47-8.25-1.38c-3.2,0.12-6.37,0.78-9.37,1.91c0,2.93,0,5.86,0,8.8
				c-0.01,1.28,0.02,2.56-0.01,3.84c0.22,0.18,0.54,0.2,0.81,0.17c0.13-0.02,0.28-0.05,0.38-0.14c0.02-0.39,0.01-0.79,0-1.18
				c0.4,0.18,0.77,0.4,1.16,0.6c0.78,0.39,1.55,0.81,2.33,1.21c1.72,0.92,3.46,1.82,5.19,2.75c0.11,0.06,0.22,0.13,0.27,0.25
				c0.34,0.68,0.68,1.38,1.13,2c0.33,0.44,0.91,0.54,1.42,0.61c0.17-0.34,0.33-0.68,0.5-1.02c0.29,0.16,0.59,0.29,0.87,0.45
				c0,0.65,0,1.31,0,1.97c0,0.1,0.02,0.22,0.12,0.26c0.43,0.25,0.98,0.25,1.45,0.1c0.13-0.05,0.3-0.14,0.29-0.3
				c0-0.64,0-1.28,0.01-1.92c1.24-0.37,2.47-0.76,3.71-1.12c4.28-1.3,8.57-2.58,12.86-3.84c0.01,0.35,0.01,0.69,0,1.04
				c0.01,0.08-0.01,0.17,0.03,0.24c0.17,0.14,0.4,0.17,0.61,0.18c0.25,0.01,0.51-0.01,0.73-0.14C45.25,36.17,45.2,35.72,45.21,35.28
				z M25.56,23.63c0.83,0.12,1.67,0.23,2.51,0.34c0.11,0.05,0.19,0.16,0.28,0.24c0.56,0.53,1.1,1.08,1.64,1.62h0.01l0.18,0.17
				c-0.8,0.18-1.63,0.19-2.45,0.24c-0.65,0.03-1.3,0.13-1.94,0.22c-0.37,0.05-0.74,0.06-1.12,0.02c-0.15,0-0.3-0.01-0.45-0.03
				c-0.81-1.1-1.53-2.27-2.36-3.35C23.09,23.31,24.33,23.45,25.56,23.63z M23.4,26.37c-0.01,0.09-0.16,0.06-0.18-0.02
				C23.21,26.28,23.38,26.29,23.4,26.37z M20.47,24.16c0.64,0.64,1.28,1.28,1.91,1.92h0.01c0.1,0.11,0.21,0.21,0.32,0.31
				c-0.67-0.02-1.34,0.01-2.01,0.05c-1.34,0.07-2.69,0.26-3.96,0.7c-0.17,0.06-0.34,0.12-0.51,0.16c-0.92-1.33-1.67-2.78-2.59-4.1
				C15.92,23.53,18.19,23.86,20.47,24.16z M13.51,30.91c-0.33-0.12-0.65-0.29-0.98-0.39c-0.03-0.95-0.01-1.91-0.02-2.86
				c-0.01-0.16,0.01-0.35,0.14-0.46c0.16-0.17,0.4-0.16,0.61-0.17c0.62-0.05,1.25-0.1,1.87-0.14c0.19,0.32,0.45,0.63,0.83,0.71
				c0.49,0.07,0.97-0.1,1.45-0.18c-0.14,0.12-0.3,0.21-0.44,0.33c-0.47,0.4-0.86,0.92-1.01,1.53c-0.1,0.38-0.08,0.78,0.03,1.15
				c0.17,0.63,0.42,1.23,0.72,1.8C15.64,31.78,14.57,31.35,13.51,30.91z M44.07,31.09c-0.01,0.33-0.02,0.67-0.02,1
				c-4.22,0.96-8.45,1.89-12.68,2.84c-0.43,0.09-0.86,0.2-1.3,0.29c-1.3,0.32-2.61,0.58-3.91,0.9c0.1-0.25,0.19-0.51,0.28-0.77
				c0.16-0.4,0.07-0.84,0.02-1.25c1.2,0.06,2.4-0.14,3.56-0.41c1.05-0.25,2.07-0.59,3.06-1.03c0.51-0.22,1.01-0.47,1.52-0.7
				c0.37-0.17,0.76-0.25,1.17-0.23c0.38,0,0.75,0.11,1.13,0.14c0.98,0.11,1.94-0.12,2.9-0.31c0.48-0.1,0.97-0.22,1.43-0.41
				c0.46-0.19,0.92-0.37,1.41-0.41c0.5-0.03,0.97,0.08,1.44-0.05C44.09,30.82,44.09,30.96,44.07,31.09L44.07,31.09z M43.85,30.06
				c-0.31,0.04-0.63,0-0.94-0.01c-0.43-0.02-0.84,0.07-1.25,0.2c-0.4,0.13-0.77,0.33-1.18,0.44c-0.62,0.17-1.25,0.28-1.88,0.4
				c-0.47,0.07-0.95,0.14-1.43,0.1c-0.48-0.03-0.92-0.17-1.39-0.17c-0.49,0-0.95,0.1-1.4,0.28c-0.39,0.17-0.76,0.36-1.14,0.54
				c-1.89,0.88-3.95,1.47-6.03,1.55c-0.3,0.01-0.6-0.01-0.9-0.06c-0.13-0.59-0.36-1.15-0.56-1.72c0.83-0.49,1.81-0.6,2.75-0.71
				c1.39-0.13,2.78-0.18,4.17-0.21c1.18-0.01,2.35-0.07,3.52-0.18c1.41-0.13,2.81-0.36,4.21-0.63c0.96-0.19,1.94-0.34,2.89-0.59
				c-0.48,0-0.95,0.06-1.42,0.08c-1.17,0.06-2.34,0.15-3.51,0.2c-2.33,0.11-4.66,0.21-6.98,0.35c-1.4,0.11-2.81,0.25-4.17,0.61
				c-0.71,0.21-1.44,0.45-2,0.96c-0.47,0.41-0.75,0.99-0.99,1.56c0.44-0.54,0.94-1.04,1.52-1.44c-0.07,0.15-0.03,0.32-0.04,0.48
				c0.03,0.82,0.13,1.64,0.19,2.46c0.02,0.22-0.03,0.43-0.12,0.64c-0.42,1.03-0.84,2.06-1.3,3.07c-0.28,0.62-0.54,1.25-0.88,1.83
				c-0.21-0.09-0.41-0.22-0.55-0.4c-0.27-0.34-0.45-0.74-0.66-1.12c-0.34-0.63-0.7-1.25-1.14-1.82c-0.23-0.32-0.51-0.61-0.74-0.93
				c-0.23-0.32-0.17-0.79-0.06-1.16c0.33-0.99,0.84-1.91,1.43-2.77c-0.66,0.49-1.18,1.16-1.61,1.86c-0.24,0.43-0.47,0.87-0.58,1.34
				c-0.44-0.5-0.97-0.91-1.43-1.38c-0.17-0.17-0.25-0.41-0.37-0.62c-0.51-0.97-1.06-1.94-1.31-3.02c-0.1-0.39,0.02-0.81,0.21-1.15
				c0.39-0.65,1.04-1.08,1.72-1.34c1.26-0.5,2.64-0.56,3.98-0.59c1.48-0.03,2.97,0.11,4.45,0.06c1.04-0.05,2.08-0.14,3.1-0.36
				c0.39-0.11,0.79-0.06,1.18-0.04c0.83,0.09,1.67,0.18,2.5,0.31c-0.59,0.03-1.18,0.01-1.78,0.03c-1.39,0.04-2.79,0.12-4.18,0.19
				c-1.24,0.06-2.48,0.19-3.73,0.31c-2.01,0.22-4.04,0.44-6,0.97c-0.11,0.03-0.22,0.07-0.32,0.12c0.91-0.12,1.82-0.21,2.74-0.3
				c-0.64,0.17-1.23,0.5-1.72,0.95c-0.29,0.28-0.55,0.61-0.62,1.02c-0.05,0.29-0.04,0.59,0,0.89c0.06-0.3,0.1-0.6,0.26-0.86
				c0.42-0.76,1.17-1.25,1.94-1.59c0.62-0.28,1.29-0.46,1.97-0.5c-0.07,0.05-0.14,0.1-0.22,0.12c-0.83,0.35-1.6,0.87-2.15,1.59
				c-0.77,0.99-1.27,2.19-1.65,3.4c0.52-0.88,1.14-1.7,1.81-2.48c0.58-0.66,1.21-1.29,1.97-1.72c1.11-0.63,2.35-0.96,3.59-1.19
				c1.08-0.19,2.17-0.32,3.27-0.41c0.58-0.06,1.16-0.14,1.75-0.14c1.41-0.01,2.82-0.01,4.24,0.02c2.39,0.14,4.79,0.36,7.1,1
				c0.56,0.16,1.13,0.34,1.63,0.65c0.26,0.16,0.5,0.42,0.5,0.74C44.14,29.95,43.99,30.04,43.85,30.06z"/>
		</g>
	</g>
	<path class="st7" d="M36.68,25.35c-1.44-0.12-2.9-0.32-4.35-0.11c-1.15,0.17-2.26,0.51-3.35,0.88c-1.29,0.46-2.56,1.03-3.72,1.77
		c-0.4,0.25-0.8,0.5-1.15,0.82c1.7-0.86,3.47-1.53,5.31-2.01c1.2-0.32,2.44-0.56,3.68-0.65c1.61-0.13,3.23-0.03,4.84,0.07
		c2.17,0.11,4.34,0.25,6.51,0.36c-0.19-0.05-0.38-0.09-0.58-0.12C41.49,25.93,39.09,25.59,36.68,25.35z"/>
	<path class="st7" d="M24.56,30.02c-0.39,0.85-0.49,1.81-0.45,2.74c0.08,1.34,0.3,2.67,0.49,4c0.04-0.34,0.01-0.7,0.02-1.04
		c0.01-1.21-0.01-2.41,0.01-3.62c0.02-1.1,0.31-2.21,0.89-3.15C25.09,29.17,24.77,29.58,24.56,30.02z"/>
</g>
</svg>
