<?xml version="1.0" encoding="utf-8"?>
<!-- Generator: Adobe Illustrator 27.3.1, SVG Export Plug-In . SVG Version: 6.00 Build 0)  -->
<svg version="1.1" id="Layer_1" xmlns="http://www.w3.org/2000/svg" xmlns:xlink="http://www.w3.org/1999/xlink" x="0px" y="0px"
	 viewBox="0 0 50 50" style="enable-background:new 0 0 50 50;" xml:space="preserve">
<style type="text/css">
	.st0{fill:none;}
	.st1{stroke:#000000;stroke-miterlimit:10;}
	.st2{stroke:#000000;stroke-width:0.75;stroke-miterlimit:10;}
	.st3{clip-path:url(#SVGID_00000174590025052834555800000016853541404512176048_);}
	.st4{clip-path:url(#SVGID_00000104693035639220610160000012478639575977035441_);}
	.st5{fill:#FFFFFF;}
	.st6{clip-path:url(#SVGID_00000025418195455249735710000002355280870693529218_);}
	.st7{fill:#231F20;}
	.st8{clip-path:url(#SVGID_00000111188931574203450130000004593941572092131200_);}
	.st9{clip-path:url(#SVGID_00000055692480080234501920000001892532234199893378_);}
	.st10{clip-path:url(#SVGID_00000016041790867341525170000009992808057779143054_);}
	.st11{clip-path:url(#SVGID_00000151514313301919109730000013356468807902861477_);}
	.st12{clip-path:url(#SVGID_00000009572552527066483610000017657491686196087694_);}
	.st13{clip-path:url(#SVGID_00000085944366242586279320000016708343645599158912_);}
	.st14{clip-path:url(#SVGID_00000078035308572343262450000010451341851733663134_);}
	.st15{clip-path:url(#SVGID_00000157303766078311759270000016305082335824175746_);}
	.st16{clip-path:url(#SVGID_00000183965792355947723430000011547176545816721815_);}
	.st17{clip-path:url(#SVGID_00000070823209421622616930000006891193528042105264_);}
	.st18{clip-path:url(#SVGID_00000158732021404870999080000001308400808260611228_);}
	.st19{clip-path:url(#SVGID_00000061458675520801286120000009368431277437310617_);}
	.st20{clip-path:url(#SVGID_00000144334333721063449550000001799566315824756103_);}
	.st21{clip-path:url(#SVGID_00000049217666317901387220000012106529180858511799_);}
	.st22{clip-path:url(#SVGID_00000042728462721366348820000015518303545882878875_);}
	.st23{clip-path:url(#SVGID_00000092419385861705176350000010077183194111882903_);}
	.st24{clip-path:url(#SVGID_00000174599528198574539480000010956314457704749502_);}
	.st25{clip-path:url(#SVGID_00000083805486953635094600000011854846887415801508_);}
	.st26{clip-path:url(#SVGID_00000165231404580684921900000006786191578642751912_);}
	.st27{clip-path:url(#SVGID_00000114762439949333129170000003404487896932126878_);}
	.st28{clip-path:url(#SVGID_00000043432732232458347780000006376267089072357306_);}
	.st29{clip-path:url(#SVGID_00000044861652611526279920000011133545047182469019_);}
	.st30{clip-path:url(#SVGID_00000130626905546117319700000001357369757028532614_);}
	.st31{fill-rule:evenodd;clip-rule:evenodd;}
	.st32{clip-path:url(#SVGID_00000058551552766494376850000006817416852123769755_);}
	.st33{clip-path:url(#SVGID_00000169534261843965893400000017627261257359744919_);}
	.st34{stroke:#000000;stroke-width:0.5;stroke-miterlimit:10;}
	.st35{clip-path:url(#SVGID_00000085935493168714090060000017843325364403039414_);}
	.st36{clip-path:url(#SVGID_00000173860887037562866760000015830082349166998436_);}
	.st37{clip-path:url(#SVGID_00000114045896209248100780000005811660477273094573_);}
	.st38{fill:#1A1A1A;}
	.st39{clip-path:url(#SVGID_00000075877326949737456620000011053973289217072824_);}
	.st40{clip-path:url(#SVGID_00000130639193731825306730000012341010268505715389_);}
	.st41{clip-path:url(#SVGID_00000124141462186137651810000012519088605026338698_);}
	.st42{clip-path:url(#SVGID_00000142158257029188316330000002549335071654537375_);}
	.st43{clip-path:url(#SVGID_00000172438576445205275330000008115792467525242252_);}
	.st44{clip-path:url(#SVGID_00000001625823242366547300000003146578934867508155_);}
	.st45{clip-path:url(#SVGID_00000059993549089629871240000014283202500984597900_);}
	.st46{clip-path:url(#SVGID_00000174573729868862762230000007894029063437716374_);}
	.st47{clip-path:url(#SVGID_00000101793597636542827940000015949844036956574142_);}
	.st48{fill:#F1F1F1;}
	.st49{fill:#E8E8E8;}
	.st50{fill:#FEFEFE;}
	.st51{fill:#CCCCCC;}
	.st52{fill:#B3B3B3;}
	.st53{fill:#E6E6E6;}
	.st54{fill:#EBEBEB;}
	.st55{fill:#EEEEEE;}
	.st56{fill:#F8F8F8;}
	.st57{fill:#FBFBFB;}
	.st58{fill:#383838;}
	.st59{fill:#232323;}
	.st60{fill:#F6F6F6;}
	.st61{fill:#535353;}
	.st62{fill:#0A0A0A;}
	.st63{fill:#F5F5F5;}
	.st64{fill:#818181;}
	.st65{fill:#4A4A4A;}
	.st66{fill:#999999;}
	.st67{fill:url(#SVGID_00000051361530720800705520000007799387794689613739_);}
	.st68{fill:url(#SVGID_00000181087956501125830930000004107709705621947525_);}
	.st69{fill:#0E0E0D;}
	.st70{fill:#333333;}
	.st71{fill:#808080;}
	.st72{fill:url(#SVGID_00000008134393157627323760000017277554955436758921_);}
	.st73{fill:#666666;}
	.st74{fill:url(#SVGID_00000109748234413184124010000002482553652914840204_);}
	.st75{fill:url(#SVGID_00000116956911931992428410000011583536820601654919_);}
	.st76{fill:url(#SVGID_00000108998971770678737550000009239051391439640225_);}
	.st77{fill:url(#SVGID_00000002381530648560158730000017861265002884887994_);}
	.st78{fill:url(#SVGID_00000107561885772256251550000006998226195203209387_);}
	.st79{clip-path:url(#SVGID_00000162322155976229826760000003034637733760026783_);}
	.st80{clip-path:url(#SVGID_00000026861303951456664310000005455790295289215375_);}
	.st81{clip-path:url(#SVGID_00000113354955701955818140000008502874613823717531_);}
	.st82{clip-path:url(#SVGID_00000119819258324379389980000008691028428979413671_);}
	.st83{clip-path:url(#SVGID_00000000932096178291528310000011430539674651072652_);}
	.st84{fill:#241F20;stroke:#000000;stroke-width:0.5;stroke-miterlimit:10;}
	.st85{clip-path:url(#SVGID_00000174567844120855841590000017868893496159222919_);}
	.st86{clip-path:url(#SVGID_00000051346123935643120740000007882744940370917820_);}
	.st87{clip-path:url(#SVGID_00000115493369993421825300000006244106088094420115_);}
	.st88{clip-path:url(#SVGID_00000168826070439345704960000014463319309058430655_);}
	.st89{clip-path:url(#SVGID_00000069358660189663257640000010761378893328941491_);}
	.st90{clip-path:url(#SVGID_00000085247845248269899860000003712300665091601086_);}
	.st91{clip-path:url(#SVGID_00000070090107397058370970000014409182318595138944_);}
	.st92{clip-path:url(#SVGID_00000052103130203351950660000011460247749549586083_);}
	.st93{clip-path:url(#SVGID_00000047059872195316067550000014944895686642212793_);}
	.st94{clip-path:url(#SVGID_00000023242493488435211150000007198954818003771040_);}
	.st95{clip-path:url(#SVGID_00000150067919954454309540000014510815704664209572_);}
	.st96{clip-path:url(#SVGID_00000117641973766335673710000007381327564015347890_);}
	.st97{clip-path:url(#SVGID_00000059298169845822451830000004648925829856723860_);}
	.st98{clip-path:url(#SVGID_00000036937178794981760860000004621082465773797302_);}
	.st99{clip-path:url(#SVGID_00000150821841472804972110000011243254676743184794_);}
	.st100{clip-path:url(#SVGID_00000006682972126311488080000015100125097555306125_);}
	.st101{clip-path:url(#SVGID_00000107589766886281829400000005647131298593578893_);}
	.st102{clip-path:url(#SVGID_00000173145632900986918090000012191949781562755501_);}
	.st103{clip-path:url(#SVGID_00000142871965573830791310000002339105148438278558_);}
	.st104{clip-path:url(#SVGID_00000142164393323242341720000011751794338474217371_);}
	.st105{clip-path:url(#SVGID_00000137838917498968186390000017711385166140506262_);}
	.st106{clip-path:url(#SVGID_00000113329099465776884830000014723425890702605714_);}
	.st107{clip-path:url(#SVGID_00000078022127340522866840000015725043294446074018_);}
	.st108{clip-path:url(#SVGID_00000126289305153607874830000009752372561757737654_);}
	.st109{clip-path:url(#SVGID_00000011007302440083990200000017869655871020772795_);}
	.st110{clip-path:url(#SVGID_00000096765586181666250740000011854224578075301552_);}
	.st111{clip-path:url(#SVGID_00000025404981637509891190000003447366549858097840_);}
	.st112{clip-path:url(#SVGID_00000117639844654482759380000002555013120650092184_);}
	.st113{clip-path:url(#SVGID_00000002373228481511975730000004101023075719455416_);}
	.st114{clip-path:url(#SVGID_00000071545931878022491590000006283172284292523431_);}
	.st115{fill:#FFFFFF;stroke:#000000;stroke-miterlimit:10;}
	.st116{clip-path:url(#SVGID_00000106859262352532670550000011478481938710050971_);}
	.st117{clip-path:url(#SVGID_00000147921699264422249800000006830186885880091281_);}
	.st118{fill:none;stroke:#010101;stroke-miterlimit:10;}
	.st119{fill:#010101;stroke:#000000;stroke-miterlimit:10;}
	.st120{clip-path:url(#SVGID_00000157999397158052875000000015766820099455967629_);}
	.st121{fill:#010101;stroke:#010101;stroke-miterlimit:10;}
	.st122{clip-path:url(#SVGID_00000101823787187286009550000009141927612202417316_);}
	.st123{clip-path:url(#SVGID_00000076598127100848419450000004105483625116941740_);}
	.st124{clip-path:url(#SVGID_00000090280090323319296980000007681780708985058693_);}
	.st125{clip-path:url(#SVGID_00000004541303960931740570000006066231038334903452_);}
	.st126{clip-path:url(#SVGID_00000119812908076729556810000006182137870546286251_);}
	.st127{fill:none;stroke:#000000;stroke-width:3;stroke-miterlimit:10;}
	.st128{clip-path:url(#SVGID_00000174604424165758502230000009124803070140938158_);}
	.st129{clip-path:url(#SVGID_00000088133813368595966780000012723654763160589976_);}
	.st130{clip-path:url(#SVGID_00000101060875973814387340000011471454005693545900_);}
	.st131{clip-path:url(#SVGID_00000054228306444882015930000007161088893144610182_);}
	.st132{fill:#040606;}
	.st133{clip-path:url(#SVGID_00000170242306123496334570000002762758457621412492_);}
	.st134{clip-path:url(#SVGID_00000139991579937128956750000017441274775208502442_);}
	.st135{clip-path:url(#SVGID_00000123413145790665900790000006326451982917838473_);}
	.st136{clip-path:url(#SVGID_00000169548168872238653310000013566515710496846218_);}
	.st137{clip-path:url(#SVGID_00000177441891741687015290000002634611282888358275_);}
	.st138{clip-path:url(#SVGID_00000083810780323204684130000010054959891982828197_);}
	.st139{clip-path:url(#SVGID_00000163772639246125739970000004802288342438832016_);}
	.st140{fill:#FFFFFF;stroke:#000000;stroke-width:1.5;stroke-miterlimit:10;}
	.st141{clip-path:url(#SVGID_00000152962398716565958190000003916694534205564307_);}
	.st142{fill:#BDBCBC;}
	.st143{clip-path:url(#SVGID_00000025408059271241294050000012914841558650442129_);}
	.st144{fill:#2E2A2B;}
	.st145{clip-path:url(#SVGID_00000160899304973804914550000010932426235905261976_);}
	.st146{clip-path:url(#SVGID_00000043436554360843823020000011189840973551385505_);}
	.st147{clip-path:url(#SVGID_00000075866813557656016520000012690929353000147121_);}
	.st148{clip-path:url(#SVGID_00000069376462521627359260000008037559730395735208_);}
	.st149{clip-path:url(#SVGID_00000000184410011397998250000005411624647985694140_);}
	.st150{fill:#272324;}
	.st151{clip-path:url(#SVGID_00000073701302582287199050000006718135384088353693_);}
	.st152{clip-path:url(#SVGID_00000097473615620058694630000010858421930213477036_);}
	.st153{clip-path:url(#SVGID_00000119099171910059309760000018216140451290411188_);}
	.st154{clip-path:url(#SVGID_00000005228948748657397950000006224575081084932260_);}
	.st155{clip-path:url(#SVGID_00000058585179388656484890000015922237961327881148_);}
	.st156{clip-path:url(#SVGID_00000063599631801962520040000011797050497357518496_);}
	.st157{fill:none;stroke:#000000;stroke-width:0.8735;stroke-linecap:round;stroke-linejoin:round;stroke-miterlimit:10;}
	.st158{clip-path:url(#SVGID_00000038408359163886763220000006777132979460341167_);}
	.st159{clip-path:url(#SVGID_00000145749872411264880980000007602426946028823221_);}
	.st160{clip-path:url(#SVGID_00000106843409523345971800000009479301158359059330_);}
	.st161{clip-path:url(#SVGID_00000054230644209062971760000004218832689762307512_);}
	.st162{clip-path:url(#SVGID_00000024716489647802780890000018330175086329587620_);}
	.st163{clip-path:url(#SVGID_00000171695010417438735440000000730152630212925858_);}
	.st164{clip-path:url(#SVGID_00000016772330971533743500000018403242572668327615_);}
	.st165{clip-path:url(#SVGID_00000145018585556131577850000012152262912144596363_);}
	.st166{clip-path:url(#SVGID_00000093890318859639442260000002383504187389323188_);}
	.st167{clip-path:url(#SVGID_00000161607868079261823560000000975583675651066756_);}
	.st168{clip-path:url(#SVGID_00000181777543955096019570000010938527061778251454_);}
	.st169{clip-path:url(#SVGID_00000110471795073931079620000012577040062887653809_);}
	.st170{clip-path:url(#SVGID_00000155838476552269001700000007406811946554228407_);}
	.st171{clip-path:url(#SVGID_00000000212378078697678350000003549463407724056469_);}
	.st172{clip-path:url(#SVGID_00000074400409577056970820000009797790387476372650_);}
	.st173{clip-path:url(#SVGID_00000104691495292269372760000000659485567593772960_);}
	.st174{clip-path:url(#SVGID_00000063622608428232989940000017288913639250010802_);}
	.st175{clip-path:url(#SVGID_00000042726343569334135110000018232618270800946106_);}
	.st176{clip-path:url(#SVGID_00000137107192475718680160000017993584580795025585_);}
	.st177{clip-path:url(#SVGID_00000154407260090838143980000009152477362467718298_);}
	.st178{clip-path:url(#SVGID_00000076598029650128878540000001966557732585875858_);}
	.st179{clip-path:url(#SVGID_00000163791839981780875640000000620126051499328926_);}
	.st180{clip-path:url(#SVGID_00000049195557322561837910000016489756040402301840_);}
	.st181{clip-path:url(#SVGID_00000005952599828029807510000000918321663032841884_);}
	.st182{clip-path:url(#SVGID_00000037657460130475068990000003949980491128759425_);}
	.st183{clip-path:url(#SVGID_00000036226097930689494160000004218887405293976712_);}
	.st184{clip-path:url(#SVGID_00000059290002787224588910000003539223701911515530_);}
	.st185{clip-path:url(#SVGID_00000052080865527664470820000001909171747981455254_);}
	.st186{clip-path:url(#SVGID_00000050635307561650452640000008626120653342103741_);}
	.st187{clip-path:url(#SVGID_00000081635265181883482160000014981909877545885631_);}
	.st188{clip-path:url(#SVGID_00000178903203429539105160000008563799747141761696_);}
	.st189{clip-path:url(#SVGID_00000139999000489583649870000007007707616765151409_);}
	.st190{clip-path:url(#SVGID_00000001652369464093669660000010454013774048061334_);}
	.st191{clip-path:url(#SVGID_00000087409603513491569340000005115111643058537656_);}
	.st192{clip-path:url(#SVGID_00000005984186941993592310000010308994382575462280_);}
	.st193{clip-path:url(#SVGID_00000067221108868464607150000016837488979643837090_);}
	.st194{clip-path:url(#SVGID_00000080184583140915949200000009292500406310438066_);}
	.st195{clip-path:url(#SVGID_00000083050888632382889840000004850736289158674365_);}
	.st196{fill:#E5E5E5;}
	.st197{fill:#1D1D1B;}
	.st198{fill:none;stroke:#000000;stroke-miterlimit:10;}
	.st199{fill:#FEFEFE;stroke:#000000;stroke-miterlimit:10;}
	.st200{clip-path:url(#SVGID_00000035504165275414933860000004728669348775186322_);}
	.st201{clip-path:url(#SVGID_00000078024115509903421300000015789904603926464951_);}
	.st202{clip-path:url(#SVGID_00000004510558786982485180000001049244355338544554_);}
	.st203{fill:#231F1F;}
	.st204{fill:#020000;}
	.st205{clip-path:url(#SVGID_00000036958202557541421430000014352012833029699739_);}
	.st206{clip-path:url(#SVGID_00000155104010484079811090000013670636033732902786_);}
	.st207{clip-path:url(#SVGID_00000003794882296762374190000005347457726682183608_);}
	.st208{clip-path:url(#SVGID_00000009589122666641420120000001448276281843496852_);}
	.st209{fill:#050000;}
	.st210{clip-path:url(#SVGID_00000013156407840357459470000001630199503030220180_);}
	.st211{clip-path:url(#SVGID_00000089554940664770345260000010141011961039617689_);}
	.st212{clip-path:url(#SVGID_00000173857182565475684760000005352491244422467210_);}
	.st213{clip-path:url(#SVGID_00000137096453922942370490000002978371596222314885_);}
	.st214{clip-path:url(#SVGID_00000023243860509301361610000014317627246849734291_);}
	.st215{clip-path:url(#SVGID_00000019638128570574842590000017144931117593397415_);}
	.st216{fill:#12100F;}
	.st217{clip-path:url(#SVGID_00000019676532126269977150000001116300769063557259_);}
	.st218{clip-path:url(#SVGID_00000075848544561335320060000013524391722265579679_);}
	.st219{fill:none;stroke:#000000;stroke-width:0.5;stroke-miterlimit:10;}
	.st220{clip-path:url(#SVGID_00000152956801208151717930000017113381712410809777_);}
	.st221{clip-path:url(#SVGID_00000015343353699870514400000014809194612265699990_);}
	.st222{clip-path:url(#SVGID_00000060005811076167185930000001658973143962943679_);}
	.st223{clip-path:url(#SVGID_00000164478408108704599650000003935958363598919076_);}
	.st224{fill:none;stroke:#000000;stroke-width:0.25;stroke-miterlimit:10;}
	.st225{clip-path:url(#SVGID_00000137122209192183735380000014964399160339586723_);}
	.st226{clip-path:url(#SVGID_00000009571378997515831970000014587234622942283159_);}
	.st227{clip-path:url(#SVGID_00000139980207568025584430000015478699192672193409_);}
</style>
<g>
	<defs>
		<rect id="SVGID_00000029004840957450625450000010238033960970279833_" x="5.86" y="18.25" width="34.02" height="22.16"/>
	</defs>
	<clipPath id="SVGID_00000149381826108195835310000010323213287305552770_">
		<use xlink:href="#SVGID_00000029004840957450625450000010238033960970279833_"  style="overflow:visible;"/>
	</clipPath>
	<g style="clip-path:url(#SVGID_00000149381826108195835310000010323213287305552770_);">
		<path d="M38.07,30.22c-4.1,4.62-8.65,8-8.7,8.03c-0.01,0-0.01,0.01-0.02,0.01c-0.02,0.02-1.53,1.23-4.7,1.23
			c-0.78,0-1.66-0.07-2.64-0.26c-6.08-1.13-12.3-2.91-13.59-3.88c-1.08-0.82-1.62-1.78-1.65-2.95c-0.04-1.63,1.34-3.6,3.48-3.95
			c0.01,0,0.02,0,0.02,0c0.27,0.06,0.54,0.11,0.8,0.16c0.33,0.07,0.66,0.13,0.99,0.19l0.24,0.05c1.11,0.21,3.54,0.73,5.89,1.23
			c2.64,0.56,5.14,1.09,5.94,1.23c0.26,0.05,0.49,0.08,0.71,0.11c0.04,0.03,0.08,0.06,0.13,0.09c0.27,0.12,0.66,0.31,0.87,0.6
			c0.4,0.54,0.43,1.35,0.07,2.03c-0.24,0.44-0.66,0.76-1.18,0.89c-0.74,0.19-1.56,0.1-2.34-0.03c-0.77-0.13-1.55-0.29-2.31-0.44
			c-0.26-0.05-0.52-0.1-0.78-0.16c-3.5-0.69-7.55-1.87-8.53-2.15c0.07-0.52-0.07-1.06-0.41-1.45c-0.16-0.19-0.45-0.21-0.64-0.04
			c-0.19,0.16-0.21,0.45-0.04,0.64c0.26,0.3,0.25,0.72,0.12,1c-0.07,0.16-0.26,0.43-0.64,0.43c-0.01,0-0.01,0-0.02,0
			c-0.25-0.01-0.46,0.19-0.46,0.44c-0.01,0.25,0.19,0.45,0.44,0.46c0.01,0,0.02,0,0.03,0c0.52,0,0.97-0.24,1.27-0.65
			c0.81,0.24,5.04,1.48,8.69,2.2c0.26,0.05,0.51,0.1,0.77,0.15c0.77,0.15,1.56,0.31,2.34,0.45c0.5,0.08,1.03,0.15,1.55,0.15
			c0.39,0,0.78-0.04,1.17-0.14c0.77-0.2,1.38-0.68,1.74-1.34c0.54-0.99,0.48-2.17-0.14-3c-0.06-0.08-0.13-0.16-0.2-0.23
			c0.36-0.11,0.7-0.3,1.1-0.59c0.2-0.14,0.25-0.43,0.11-0.63c-0.15-0.2-0.43-0.25-0.63-0.1c-0.79,0.56-1.18,0.67-2.65,0.41
			c-0.78-0.14-3.39-0.69-5.91-1.22c-2.36-0.5-4.79-1.01-5.9-1.23l-0.24-0.05c-0.33-0.06-0.66-0.12-0.98-0.19
			c-0.41-0.08-0.88-0.17-1.33-0.29c-0.06-0.02-0.12-0.03-0.18-0.05c-0.16-0.04-0.31-0.08-0.46-0.13c-0.7-0.24-1.44-0.72-1.47-1.37
			c-0.02-0.48,0.47-1.03,0.95-1.25c1.08-0.36,2.61-0.51,4.01-0.4c1.47,0.12,2.94,0.21,4.18,0.28c0.73,0.05,1.47,0.09,2.2,0.13
			c1.22,0.06,3.26-0.09,5.24-0.24c1.76-0.13,3.43-0.26,4.46-0.23c1.38,0.03,2.06,0.1,2.66,0.16c0.28,0.03,0.55,0.06,0.87,0.08
			c0.7,0.04,1.23-0.18,1.47-0.62c0.17-0.32,0.24-0.86-0.37-1.64c-0.18-0.24-0.41-0.55-0.66-0.88c-0.2-0.27-0.38-0.53-0.56-0.76
			c1.19,0.29,2.47,0.65,3.4,1.19c1.81,1.05,3,2.4,3.43,3.89C39.49,27.07,39.16,28.59,38.07,30.22z M18.03,20.42
			c0.83-0.42,1.89-0.88,2.64-1.19c0.5-0.21,1.43,0.02,2.33,0.24c0.19,0.05,0.38,0.09,0.56,0.13c0.88,0.2,1.57,0.36,2.28,0.51
			c-2.66,1.03-7.56,2.51-10.2,2.73c-0.27,0.02-2.66,0.23-3.34,0.41c-0.03,0.01-0.06,0.02-0.09,0.03c-0.14,0-0.29,0-0.43,0
			C14.05,22.28,16.96,20.97,18.03,20.42z M28.87,19.81c0.68-0.32,0.93-0.43,1.16-0.41c0.38,0.13,1.5,1.66,2.03,2.4
			c0.25,0.34,0.48,0.66,0.67,0.91c0.3,0.39,0.32,0.61,0.29,0.67c-0.04,0.07-0.23,0.16-0.61,0.14c-0.3-0.02-0.56-0.04-0.83-0.07
			c-0.62-0.06-1.31-0.13-2.73-0.17c-1.08-0.03-2.76,0.1-4.55,0.24c-1.95,0.15-3.96,0.3-5.12,0.24c-0.73-0.04-1.46-0.08-2.19-0.13
			c-0.04,0-0.08,0-0.12-0.01c2.89-0.48,7.14-1.8,9.48-2.71C27.54,20.43,28.31,20.07,28.87,19.81z M39.93,25.34
			c-0.49-1.72-1.82-3.25-3.84-4.42c-1.31-0.77-3.15-1.18-4.62-1.52l-0.14-0.03c-0.47-0.53-0.86-0.84-1.2-0.87
			c-0.49-0.05-0.87,0.13-1.63,0.49c-0.3,0.14-0.67,0.31-1.14,0.52c-0.04-0.01-0.08-0.01-0.12-0.02c-1.18-0.23-2.1-0.44-3.46-0.76
			c-0.18-0.04-0.37-0.09-0.55-0.13c-1.09-0.27-2.11-0.52-2.89-0.2c-0.77,0.32-1.86,0.79-2.71,1.22c-1.81,0.93-9.13,4.15-9.21,4.18
			c-0.76,0.33-1.54,1.19-1.5,2.11C6.95,27.1,8.08,27.74,8.71,28c-1.84,0.9-2.89,2.8-2.85,4.43c0.04,1.44,0.72,2.67,2.01,3.65
			c1.59,1.21,8.35,3.01,13.97,4.06c1.04,0.19,1.98,0.27,2.81,0.27c3.38,0,5.09-1.29,5.26-1.43c0.23-0.17,4.76-3.57,8.85-8.18
			c0.01-0.02,0.03-0.03,0.04-0.05C40.07,28.87,40.44,27.1,39.93,25.34"/>
	</g>
</g>
</svg>
