<?xml version="1.0" encoding="utf-8"?>
<!-- Generator: Adobe Illustrator 27.3.1, SVG Export Plug-In . SVG Version: 6.00 Build 0)  -->
<svg version="1.1" id="Layer_1" xmlns="http://www.w3.org/2000/svg" xmlns:xlink="http://www.w3.org/1999/xlink" x="0px" y="0px"
	 viewBox="0 0 50 50" style="enable-background:new 0 0 50 50;" xml:space="preserve">
<style type="text/css">
	.st0{fill:none;}
	.st1{stroke:#000000;stroke-miterlimit:10;}
	.st2{stroke:#000000;stroke-width:0.75;stroke-miterlimit:10;}
	.st3{clip-path:url(#SVGID_00000169538948661786127000000001886242124987677854_);}
	.st4{clip-path:url(#SVGID_00000070831500203100945710000012877404827686660013_);}
	.st5{fill:#FFFFFF;}
	.st6{clip-path:url(#SVGID_00000155138791553903826210000017613066066571097003_);}
	.st7{fill:#231F20;}
	.st8{clip-path:url(#SVGID_00000167398705698867680440000015721540221036357807_);}
	.st9{clip-path:url(#SVGID_00000001666094293369575940000012975775770263948723_);}
	.st10{clip-path:url(#SVGID_00000086674125466168363780000017145476206661264306_);}
	.st11{clip-path:url(#SVGID_00000120548107376612303790000010072744760657077913_);}
	.st12{clip-path:url(#SVGID_00000016791182459593834480000007230940563828037762_);}
	.st13{clip-path:url(#SVGID_00000038389297296246665170000002938067747817004459_);}
	.st14{clip-path:url(#SVGID_00000114055586863462884960000017898501451017486504_);}
	.st15{clip-path:url(#SVGID_00000001629400939353243550000015748311750015698069_);}
	.st16{clip-path:url(#SVGID_00000082337134912486166890000014918709712828727715_);}
	.st17{clip-path:url(#SVGID_00000052095315279171510280000007954327870610191542_);}
	.st18{clip-path:url(#SVGID_00000000924191152158764170000008061073422666636435_);}
	.st19{clip-path:url(#SVGID_00000088103191960727023260000006618915390724138634_);}
	.st20{clip-path:url(#SVGID_00000062912133480632099770000010169270192764711103_);}
	.st21{clip-path:url(#SVGID_00000110454585804318224570000001616835010451494050_);}
	.st22{clip-path:url(#SVGID_00000022520064915251487250000009103174983802937225_);}
	.st23{clip-path:url(#SVGID_00000049910468614264402160000015387727479505063060_);}
	.st24{clip-path:url(#SVGID_00000096021745261949011400000016439605518354166203_);}
	.st25{clip-path:url(#SVGID_00000146496502241421233120000005453768589909733054_);}
	.st26{clip-path:url(#SVGID_00000044173550388819922760000005180028155280234383_);}
	.st27{clip-path:url(#SVGID_00000042017092494867980910000007897596816235232672_);}
	.st28{clip-path:url(#SVGID_00000060722265459397178590000005794478185832452004_);}
	.st29{clip-path:url(#SVGID_00000094599954966790787950000004073943262163337899_);}
	.st30{clip-path:url(#SVGID_00000097487502847260810270000011163254419635203227_);}
	.st31{fill-rule:evenodd;clip-rule:evenodd;}
	.st32{clip-path:url(#SVGID_00000062164946019444379580000008309130946922675341_);}
	.st33{clip-path:url(#SVGID_00000046336105226336561500000014945916960663207325_);}
	.st34{stroke:#000000;stroke-width:0.5;stroke-miterlimit:10;}
	.st35{clip-path:url(#SVGID_00000111874715272527137920000008361153307700983958_);}
	.st36{clip-path:url(#SVGID_00000029724052905154343690000007145797419006694785_);}
	.st37{clip-path:url(#SVGID_00000119078545746812321640000009885301390997082283_);}
	.st38{fill:#1A1A1A;}
	.st39{clip-path:url(#SVGID_00000054258080832515245160000009747366009431717818_);}
	.st40{clip-path:url(#SVGID_00000129169950519592238260000010460436163946731689_);}
	.st41{clip-path:url(#SVGID_00000134953041741881819970000002153686433494125487_);}
	.st42{clip-path:url(#SVGID_00000047740855422201964170000002243167739319354301_);}
	.st43{clip-path:url(#SVGID_00000118356048353994201140000000310069488804719268_);}
	.st44{clip-path:url(#SVGID_00000010298041180378422750000017935849047092677267_);}
	.st45{clip-path:url(#SVGID_00000142147639068646534100000011984501191209540511_);}
	.st46{clip-path:url(#SVGID_00000033353937636530521650000007344595603219629239_);}
	.st47{clip-path:url(#SVGID_00000016067828548476559960000005949830885914004868_);}
	.st48{fill:#F1F1F1;}
	.st49{fill:#E8E8E8;}
	.st50{fill:#FEFEFE;}
	.st51{fill:#CCCCCC;}
	.st52{fill:#B3B3B3;}
	.st53{fill:#E6E6E6;}
	.st54{fill:#EBEBEB;}
	.st55{fill:#EEEEEE;}
	.st56{fill:#F8F8F8;}
	.st57{fill:#FBFBFB;}
	.st58{fill:#383838;}
	.st59{fill:#232323;}
	.st60{fill:#F6F6F6;}
	.st61{fill:#535353;}
	.st62{fill:#0A0A0A;}
	.st63{fill:#F5F5F5;}
	.st64{fill:#818181;}
	.st65{fill:#4A4A4A;}
	.st66{fill:#999999;}
	.st67{fill:url(#SVGID_00000002379992392809012330000010973972926707605682_);}
	.st68{fill:url(#SVGID_00000063599185543609652900000005279688641168833182_);}
	.st69{fill:#0E0E0D;}
	.st70{fill:#333333;}
	.st71{fill:#808080;}
	.st72{fill:url(#SVGID_00000026126043652449185230000018209130921146747782_);}
	.st73{fill:#666666;}
	.st74{fill:url(#SVGID_00000161589622345187461070000002523143163494317706_);}
	.st75{fill:url(#SVGID_00000119076702602371693480000009680333045711617965_);}
	.st76{fill:url(#SVGID_00000142867161488437674140000006925310819849024908_);}
	.st77{fill:url(#SVGID_00000061465946447056955310000015193095597544728998_);}
	.st78{fill:url(#SVGID_00000174575272322852603680000005675403538506628488_);}
	.st79{clip-path:url(#SVGID_00000173849299711342146760000010613026094244348039_);}
	.st80{clip-path:url(#SVGID_00000111874364559031590800000001804379786475669676_);}
	.st81{clip-path:url(#SVGID_00000121250854395216221990000008015367840056910495_);}
	.st82{clip-path:url(#SVGID_00000017502595165807569740000013342889982441047195_);}
	.st83{clip-path:url(#SVGID_00000033347138654696958260000002752504514467568305_);}
	.st84{fill:#241F20;stroke:#000000;stroke-width:0.5;stroke-miterlimit:10;}
	.st85{clip-path:url(#SVGID_00000000187619115865014460000015105828060019593608_);}
	.st86{clip-path:url(#SVGID_00000106840169498371368080000012375355567500040117_);}
	.st87{clip-path:url(#SVGID_00000057840800568068302860000004970374004242172059_);}
	.st88{clip-path:url(#SVGID_00000128486113071009866290000003562988636873704866_);}
	.st89{clip-path:url(#SVGID_00000038410888021255095890000002903225398150542750_);}
	.st90{clip-path:url(#SVGID_00000054967439038166459540000004859191057055847330_);}
	.st91{clip-path:url(#SVGID_00000144336546039348105270000000559511033162164634_);}
	.st92{clip-path:url(#SVGID_00000148626618407573565300000003595589557076364179_);}
	.st93{clip-path:url(#SVGID_00000072242008163630243280000005223340117270323077_);}
	.st94{clip-path:url(#SVGID_00000057839569411663995630000002183543881739439746_);}
	.st95{clip-path:url(#SVGID_00000132784266455855619110000001348554598719747473_);}
	.st96{clip-path:url(#SVGID_00000037675953479828971530000018207420512345443504_);}
	.st97{clip-path:url(#SVGID_00000034782653483559251270000009068824530800757662_);}
	.st98{clip-path:url(#SVGID_00000085970382324211895350000012123274839888515752_);}
	.st99{clip-path:url(#SVGID_00000121981311261207989860000011941691265247317377_);}
	.st100{clip-path:url(#SVGID_00000110448706953119876460000000269276145321009802_);}
	.st101{clip-path:url(#SVGID_00000121275836293992859610000011579294473504148619_);}
	.st102{clip-path:url(#SVGID_00000042726580111523739390000015664429392590358435_);}
	.st103{clip-path:url(#SVGID_00000048460554650788322200000013451890888557331374_);}
	.st104{clip-path:url(#SVGID_00000007397222335137424170000009577043985368743813_);}
	.st105{clip-path:url(#SVGID_00000183929334068639611900000000291606308630043810_);}
	.st106{clip-path:url(#SVGID_00000020388669548492616530000005262628216683534262_);}
	.st107{clip-path:url(#SVGID_00000044171162357209979150000009564847481564134822_);}
	.st108{clip-path:url(#SVGID_00000048479762781406186150000004046028283432215194_);}
	.st109{clip-path:url(#SVGID_00000093158043262880460740000015564187387446058376_);}
	.st110{clip-path:url(#SVGID_00000069356703544031325630000000441549408410676644_);}
	.st111{clip-path:url(#SVGID_00000018209774366264787590000017346078487066840981_);}
	.st112{clip-path:url(#SVGID_00000087402617703093537570000006761029421811200139_);}
	.st113{clip-path:url(#SVGID_00000112628508685336417620000007483422182515246995_);}
	.st114{clip-path:url(#SVGID_00000016045217608393818400000012373393851191911559_);}
	.st115{fill:#FFFFFF;stroke:#000000;stroke-miterlimit:10;}
	.st116{clip-path:url(#SVGID_00000019657747666000005920000009954319227486557877_);}
	.st117{clip-path:url(#SVGID_00000117666183315897815220000012285351577640013704_);}
	.st118{fill:none;stroke:#010101;stroke-miterlimit:10;}
	.st119{fill:#010101;stroke:#000000;stroke-miterlimit:10;}
	.st120{clip-path:url(#SVGID_00000170243734214880134520000000259108052890006949_);}
	.st121{fill:#010101;stroke:#010101;stroke-miterlimit:10;}
	.st122{clip-path:url(#SVGID_00000139997843285458758970000016127214564499747989_);}
	.st123{clip-path:url(#SVGID_00000025441087306324426660000008461752948894218403_);}
	.st124{clip-path:url(#SVGID_00000112606165518701541600000013325625531723751818_);}
	.st125{clip-path:url(#SVGID_00000088115617028332761530000015030881521003424920_);}
	.st126{clip-path:url(#SVGID_00000044877876470043484370000016689908919201085877_);}
	.st127{fill:none;stroke:#000000;stroke-width:3;stroke-miterlimit:10;}
	.st128{clip-path:url(#SVGID_00000152971654740569794770000005278742239447173509_);}
	.st129{clip-path:url(#SVGID_00000176745962947479810900000015351936301177702801_);}
	.st130{clip-path:url(#SVGID_00000052082921367182484260000013677252766463153290_);}
	.st131{clip-path:url(#SVGID_00000137829280280068507750000000541562573948567718_);}
	.st132{fill:#040606;}
	.st133{clip-path:url(#SVGID_00000013893429559088018580000005452613844180508059_);}
	.st134{clip-path:url(#SVGID_00000178168540036297567810000010268460772094353539_);}
	.st135{clip-path:url(#SVGID_00000056406151748169804580000010456771033239489726_);}
	.st136{clip-path:url(#SVGID_00000152959438174431403850000004649602609760543931_);}
	.st137{clip-path:url(#SVGID_00000117640742480797906750000003953129063854302099_);}
	.st138{clip-path:url(#SVGID_00000042710972898640919670000013060182675405575062_);}
	.st139{clip-path:url(#SVGID_00000006693803658795048380000002788763399793929395_);}
	.st140{fill:#FFFFFF;stroke:#000000;stroke-width:1.5;stroke-miterlimit:10;}
	.st141{clip-path:url(#SVGID_00000127038305783813127530000009183340990478340770_);}
	.st142{fill:#BDBCBC;}
	.st143{clip-path:url(#SVGID_00000098919387697489814110000013302432644560061839_);}
	.st144{fill:#2E2A2B;}
	.st145{clip-path:url(#SVGID_00000056385155353097765840000002699998327670837124_);}
	.st146{clip-path:url(#SVGID_00000075879273024348337320000018304900375872163500_);}
	.st147{clip-path:url(#SVGID_00000178920412270511079550000014702884706591686827_);}
	.st148{clip-path:url(#SVGID_00000042734463168275528460000001741958630244606378_);}
	.st149{clip-path:url(#SVGID_00000109001001539731428380000012821130720425884825_);}
	.st150{fill:#272324;}
	.st151{clip-path:url(#SVGID_00000150782100213491198380000018373374123795740299_);}
	.st152{clip-path:url(#SVGID_00000145058890437153967610000012015891553577866395_);}
	.st153{clip-path:url(#SVGID_00000006684924948284746430000016792132943700713142_);}
	.st154{clip-path:url(#SVGID_00000103228194336678933470000010725031790105922455_);}
	.st155{clip-path:url(#SVGID_00000114049598805314193220000009535612494828883132_);}
	.st156{clip-path:url(#SVGID_00000097480860607881495010000010125489758345616548_);}
	.st157{fill:none;stroke:#000000;stroke-width:0.8735;stroke-linecap:round;stroke-linejoin:round;stroke-miterlimit:10;}
	.st158{clip-path:url(#SVGID_00000062889529308688422060000007356956417865982343_);}
	.st159{clip-path:url(#SVGID_00000054239459321621862740000006026611118626783875_);}
	.st160{clip-path:url(#SVGID_00000111180419627318092790000003373486995366753942_);}
	.st161{clip-path:url(#SVGID_00000143578260701928574710000009041350330624759957_);}
	.st162{clip-path:url(#SVGID_00000179643366779714229270000001298813668782656444_);}
	.st163{clip-path:url(#SVGID_00000104670168274905383920000010053875437966463897_);}
	.st164{clip-path:url(#SVGID_00000114786187395321654460000006221648838256536460_);}
	.st165{clip-path:url(#SVGID_00000106866264732832734290000016288196460564277693_);}
	.st166{clip-path:url(#SVGID_00000057113014985309830040000006558710807025957004_);}
	.st167{clip-path:url(#SVGID_00000070830972695192137320000005293289282584285579_);}
	.st168{clip-path:url(#SVGID_00000160160055142366532840000001888685647204637856_);}
	.st169{clip-path:url(#SVGID_00000085965569640116967380000004962063568864814226_);}
	.st170{clip-path:url(#SVGID_00000121961707945310782690000005592112648806787496_);}
	.st171{clip-path:url(#SVGID_00000082352862779229019750000007285724404302788231_);}
	.st172{clip-path:url(#SVGID_00000165215014088159064610000002703960017063958463_);}
	.st173{clip-path:url(#SVGID_00000068679419640547206130000004624384984044084875_);}
	.st174{clip-path:url(#SVGID_00000130623739390193934820000018100439412213909159_);}
	.st175{clip-path:url(#SVGID_00000126310180867157936960000010263751942206297986_);}
	.st176{clip-path:url(#SVGID_00000005257975622298306030000004914384100757500313_);}
	.st177{clip-path:url(#SVGID_00000095336554551064152500000001838387552600937868_);}
	.st178{clip-path:url(#SVGID_00000158741186999109607820000013761489851171397763_);}
	.st179{clip-path:url(#SVGID_00000165234633685416802140000002369119983160989594_);}
	.st180{clip-path:url(#SVGID_00000128456251435270993710000016492187385994116510_);}
	.st181{clip-path:url(#SVGID_00000026863584160681187920000010700395298762774164_);}
	.st182{clip-path:url(#SVGID_00000009560010238589176850000007007900371985241274_);}
	.st183{clip-path:url(#SVGID_00000128481537180047183520000015500780356827911068_);}
	.st184{clip-path:url(#SVGID_00000148652050386803245430000004566388136506594480_);}
	.st185{clip-path:url(#SVGID_00000108990721366104631700000008814318485177465236_);}
	.st186{clip-path:url(#SVGID_00000171692086295827653420000002608280178512613045_);}
	.st187{clip-path:url(#SVGID_00000121974560821141145400000017579038798359330479_);}
	.st188{clip-path:url(#SVGID_00000168811583419951124240000011122646455231638153_);}
	.st189{clip-path:url(#SVGID_00000152950444903796262730000014287435236573813888_);}
	.st190{clip-path:url(#SVGID_00000022537512381934992220000009519194651817229986_);}
	.st191{clip-path:url(#SVGID_00000171682962379243861470000013905969373341231029_);}
	.st192{clip-path:url(#SVGID_00000122705998311836552970000007255763905217182344_);}
	.st193{clip-path:url(#SVGID_00000128458343429475724080000002352480582487646359_);}
	.st194{clip-path:url(#SVGID_00000062175472881672632030000010127938398652126650_);}
	.st195{clip-path:url(#SVGID_00000097477061299670383320000017611438398846250636_);}
	.st196{fill:#E5E5E5;}
	.st197{fill:#1D1D1B;}
	.st198{fill:none;stroke:#000000;stroke-miterlimit:10;}
	.st199{fill:#FEFEFE;stroke:#000000;stroke-miterlimit:10;}
	.st200{clip-path:url(#SVGID_00000126313054965417630300000002841955463029027495_);}
	.st201{clip-path:url(#SVGID_00000124150495710751076630000000546947406766155168_);}
	.st202{clip-path:url(#SVGID_00000087408110516900638000000006439280337409218954_);}
	.st203{fill:#231F1F;}
	.st204{fill:#020000;}
	.st205{clip-path:url(#SVGID_00000008842050901433443200000007072023316673164422_);}
	.st206{clip-path:url(#SVGID_00000000220920339223831520000001639097609196166078_);}
	.st207{clip-path:url(#SVGID_00000145754975543904320220000009713420134714701964_);}
	.st208{clip-path:url(#SVGID_00000125577805061228726540000016656530790465691839_);}
	.st209{fill:#050000;}
	.st210{clip-path:url(#SVGID_00000049908268983507643550000016032507265120738468_);}
	.st211{clip-path:url(#SVGID_00000132071127771936319640000011278244619008556457_);}
	.st212{clip-path:url(#SVGID_00000147204088127926603130000015025197551618628227_);}
	.st213{clip-path:url(#SVGID_00000070797760995563384400000013078257020726918281_);}
	.st214{clip-path:url(#SVGID_00000152258506212826973520000000704905867678100899_);}
	.st215{clip-path:url(#SVGID_00000182494636249696377440000015401198743327271075_);}
	.st216{fill:#12100F;}
	.st217{clip-path:url(#SVGID_00000080191248646715186690000000963516662788917155_);}
	.st218{clip-path:url(#SVGID_00000116212842815806631490000014263058324545380780_);}
	.st219{fill:none;stroke:#000000;stroke-width:0.5;stroke-miterlimit:10;}
	.st220{clip-path:url(#SVGID_00000067915444209185459810000008356968951888696727_);}
	.st221{clip-path:url(#SVGID_00000131350980651140342070000008651122811235329420_);}
	.st222{clip-path:url(#SVGID_00000163751288066493001700000014053691587519044799_);}
	.st223{clip-path:url(#SVGID_00000060746090503602945110000012756285320239142074_);}
	.st224{fill:none;stroke:#000000;stroke-width:0.25;stroke-miterlimit:10;}
	.st225{clip-path:url(#SVGID_00000010289936345711930600000007522211436962351747_);}
	.st226{clip-path:url(#SVGID_00000142141431928559168270000011764657872482280629_);}
	.st227{clip-path:url(#SVGID_00000092436008482262145520000002214171806398277518_);}
</style>
<g>
	<g>
		<defs>
			<rect id="SVGID_00000092440532084074225640000008124727020638458019_" x="7.71" y="14.27" width="32.61" height="32.61"/>
		</defs>
		<clipPath id="SVGID_00000116202381965188371610000013509293085620610985_">
			<use xlink:href="#SVGID_00000092440532084074225640000008124727020638458019_"  style="overflow:visible;"/>
		</clipPath>
		<g style="clip-path:url(#SVGID_00000116202381965188371610000013509293085620610985_);">
			<path d="M39.92,27.95c-0.16-0.16-0.36-0.48-0.56-0.79c-0.24-0.44-0.44-0.68-0.6-0.79c0.2-0.32,0.28-0.68,0.28-0.95l0.04-0.04
				c0.12-0.16,0.6-0.91,0.6-1.27c0-0.28-0.08-1.86-0.36-2.82c-0.28-0.99-1.36-1.39-1.4-1.43l-3.37-1.43l-3.29-1.35
				c0,0-4.3-1.63-5.86-2.22c-1.36-0.52-2.45,0-2.85,0.2c-0.04,0.04-0.08,0.04-0.08,0.04c-0.04,0-0.2,0-4.14,2.02
				c-0.04-0.08-0.08-0.12-0.16-0.12l-3.21-0.36c-1.17-0.2-1.85-0.28-2.01-0.2c-0.24,0.12-0.44,0.48-0.48,0.56v0.04
				c-0.04,0.16-0.28,1.15-0.36,1.94c-0.4,0.2-2.25,1.15-2.89,1.63c-0.81,0.59-1.33,2.3-1.37,2.5c-0.08,0.32-0.08,1.23-0.08,2.74
				c0,0.32,0,0.67,0,1.03c0,1.82,1,2.81,1.41,3.21c0.08,0.08,0.2,0.16,0.36,0.28c-0.84,0.6-1.32,2.26-1.41,2.5
				c0,0.08-0.4,2.06-0.16,4.21c0.28,2.22,2.09,3.05,2.13,3.09c0.08,0.04,8.51,4.6,12.16,5.86c1.65,0.56,2.85,0.75,3.7,0.75
				c1.08,0,1.56-0.28,1.6-0.28l4.42-2.26c0.24-0.12,6.34-3.09,7.23-4c0.92-0.95,0.88-2.5,0.8-4.16c-0.04-1.19-0.92-1.86-1.49-2.18
				c0.24-0.16,0.6-0.47,0.96-1.23l0.08-0.2c0.53-1.07,0.6-1.31,0.6-2.22c0-0.16,0-0.32,0-0.48C40.27,28.99,40.32,28.35,39.92,27.95z
				 M22.53,15.51c0.04,0,0.12-0.04,0.24-0.08c0.4-0.2,1.37-0.63,2.57-0.2c1.57,0.6,5.86,2.22,5.86,2.22l3.25,1.35l3.37,1.43
				c0,0,0.92,0.36,1.17,1.15c0.24,0.83,0.32,2.3,0.32,2.7c0,0.12-0.16,0.43-0.36,0.75c-0.12-0.32-0.48-1.15-1-1.79
				c-0.64-0.79-2.25-1.94-4.1-2.66c-1.81-0.63-6.71-2.02-9.08-2.38c-2.29-0.32-4.02-0.75-4.02-0.75h-0.04l-1.04,0.04l-0.56-0.08
				C20.56,16.49,22.33,15.58,22.53,15.51z M12.81,17.17c0.08-0.12,0.2-0.32,0.28-0.36c0.16-0.04,1.04,0.08,1.81,0.2l1.77,0.2
				c-0.04,0-0.04,0.04-0.08,0.04c-0.08,0.08-0.08,0.2,0,0.28l0.2,0.2c0.04,0.04,0.08,0.08,0.16,0.08c0.04,0,0.12,0,0.12-0.04
				c0.08-0.08,0.08-0.2,0-0.28l-0.2-0.2c0,0-0.04,0-0.04-0.04l1.16,0.12v0.04c0,0.04,0,0.08,0,0.08s0,0.04,0.04,0.04l0.04,0.08
				c0,0.04,0.08,0.08,0.12,0.12c0.04,0.04,0.12,0,0.16,0l0.36-0.16l0.88,0.08l1.05-0.04c0.24,0.04,1.88,0.43,4.01,0.75
				c2.33,0.32,7.23,1.71,9.04,2.42c1.81,0.67,3.33,1.78,3.93,2.54c0.53,0.68,0.92,1.63,0.96,1.79c0,0.16,0.08,0.99-0.56,1.35
				c-0.6,0.32-1.24,0.56-1.52,0.68c-0.08-0.48-0.2-1.11-0.2-1.23c0-0.4-1.24-1.71-1.97-2.14c-0.77-0.48-1.61-0.71-2.33-0.91
				l-0.16-0.04c-0.72-0.2-3.53-0.28-3.65-0.28c-0.12,0-2.65,0.04-3.33,0.12c-0.4,0.04-1.37,0-2.25-0.08
				c-0.56-0.04-1.09-0.08-1.41-0.08c-0.85,0-4.02,0.68-4.18,0.71l-1.45,0.52l-1.6,1.07c0,0-0.6,0.24-1.45,0.39
				c-0.04,0-0.08,0-0.12,0c0-0.12,0.04-0.39-0.08-0.68c-0.08-0.2,0-0.71,0.08-1.07l0.16-1.03v-1.15c0-0.04-0.04-1.03-0.12-1.66
				C12.41,19.19,12.69,17.73,12.81,17.17z M34.86,24.98l-0.28-0.24c-0.77-0.6-1.45-1.11-2.21-1.35c-0.84-0.24-5.78-0.08-5.98-0.08
				l-6.51,0.08h-0.04l-1.89,0.48c-0.08,0.04-1.8,0.51-2.61,0.91c-0.36,0.16-0.72,0.43-1.08,0.63c-0.32,0.2-0.76,0.48-0.88,0.52
				c-0.08,0-0.28-0.2-0.52-0.4c0.76-0.16,1.28-0.36,1.33-0.39l1.73-1.03l1.36-0.48c0.04,0,3.25-0.67,4.06-0.67
				c0.32,0,0.85,0.04,1.37,0.08c0.92,0.08,1.89,0.12,2.33,0.08C25.7,23.04,28.27,23,28.27,23c0.04,0,2.85,0.08,3.53,0.28l0.16,0.04
				c0.68,0.2,1.49,0.4,2.21,0.87c0.76,0.47,1.73,1.63,1.77,1.82c0,0.2,0.12,0.83,0.2,1.19l-0.4-0.12
				C35.74,26.92,35.86,25.73,34.86,24.98z M22.45,45.64c-3.65-1.27-12.05-5.83-12.12-5.87c0,0-1.69-0.75-1.93-2.78
				c-0.24-2.06,0.16-4.04,0.16-4.04c0.16-0.6,0.72-2.11,1.41-2.34c0.88,0.44,2.05,0.87,2.13,0.91c0.12,0.04,10.88,3.53,11.81,3.93
				c0.4,0.16,0.88,0.24,1.28,0.24c0.16,0,0.32,0,0.48-0.04c-0.52,0.75-1.04,2.26-1.45,3.53c-0.52,1.74-0.48,3.68,0.16,5.67
				c0.32,0.91,1.28,1.35,1.77,1.55C25.34,46.35,24.13,46.19,22.45,45.64z M39.88,29.7c0,0.16,0,0.32,0,0.48
				c0,0.83-0.08,0.99-0.56,2.06l-0.08,0.2c-0.48,1.07-0.92,1.11-0.92,1.11c-0.04,0-0.12,0.04-0.12,0.04c-0.04,0-0.08,0-0.12,0
				l-2.21,0.95l-1.69,0.39c-0.04,0-0.04,0-0.04,0.04c-0.6,0.36-1.33,0.83-1.49,1.03c-0.12,0.04-0.48,0-0.81-0.08
				c-0.04,0-0.08,0-0.12,0l-3.65,1.82l-1.73,0.87c-0.04,0.04-0.08,0.08-0.12,0.16c0,0.04,0,0.04,0,0.08c-0.6,0.32-0.6,0.52-0.6,0.6
				c0,0.12,0.04,0.2,0.16,0.24c0.08,0.04,0.12,0.2,0.16,0.4l-0.53,0.51c-0.08,0.08-0.08,0.16-0.04,0.24
				c0.24,0.44,0.4,0.99,0.28,1.15c-0.24,0.28-0.48,0.32-0.48,0.32c-0.12,0-0.2,0.08-0.16,0.2c0,0.12,0.08,0.2,0.2,0.2
				c0,0,0.4,0.04,0.4,0.24c0,0.28-0.28,1.07-0.4,1.31c-0.04,0.12,0,0.2,0.12,0.28c0.04,0,0.04,0,0.08,0c0.08,0,0.16-0.04,0.2-0.12
				c0.04-0.12,0.4-0.99,0.4-1.43l0.4,0.32l-0.08,0.32l-0.12,1.19c0,0.12,0.08,0.2,0.2,0.2c0.12,0,0.2-0.08,0.2-0.2l0.08-1.15
				l0.12-0.39c0-0.04,0-0.08,0-0.12h0.04c0.04,0,0.08,0,0.12-0.04c0,0,0.96-0.71,1.37-0.99c0.4-0.28,0.64-0.39,0.64-0.39l0.96-0.32
				c0,0,0.04,0,0.04-0.04l1.4-0.91c0.96-0.44,2.61-1.15,2.73-1.19c0.04,0,0.2,0,2.09-0.95l0.72-0.24c0,0,0.04,0.04,0.08,0.04
				l0.4,0.16c0.12,0.2,0.36,0.47,0.56,0.47c0.04,0,0.2,0.08,0.28,0.16c0.04,0.04,0.08,0.04,0.12,0.04l0.32,0.04
				c0.12,0,0.2-0.08,0.2-0.2s-0.08-0.2-0.16-0.2l-0.28-0.04c-0.08-0.08-0.28-0.2-0.44-0.2c-0.04-0.04-0.2-0.2-0.28-0.36
				c-0.04-0.04-0.04-0.08-0.08-0.08l-0.16-0.08h0.04l0.12-0.08c0.04,0,0.04,0.04,0.08,0.04h0.92l0.36,0.04c0.12,0,0.2-0.08,0.2-0.2
				s-0.08-0.2-0.2-0.2h-0.84l0.64-0.39c0.2-0.04,0.85-0.28,0.85-0.71c0-0.12-0.08-0.2-0.2-0.2c-0.12,0-0.2,0.12-0.2,0.24
				c0,0.08-0.28,0.28-0.56,0.36c0,0-0.04,0-0.04,0.04l-1.33,0.83l-1.2,0.43c-0.88,0.44-1.85,0.87-1.93,0.91
				c-0.04,0-0.16,0-2.93,1.23L29.8,41l-0.96,0.36c0,0-0.28,0.16-0.72,0.43c-0.4,0.28-1.37,0.95-1.41,0.99
				c-0.08,0.04-0.08,0.12-0.08,0.2l-0.36-0.32h0.04c0.44-0.24,1-0.87,1.2-1.71c0.2-0.91-0.4-1.7-0.72-2.1l1.41-0.71l3.61-1.82
				c1,0.2,1.13-0.04,1.17-0.12c0.08-0.12,0.76-0.56,1.32-0.91l1.69-0.4l2.17-0.91c0.32,0.16,1.52,0.75,1.56,2.02
				c0.04,1.54,0.08,3.05-0.72,3.88c-0.68,0.68-4.94,2.89-7.11,3.93l-4.42,2.26c0,0-0.24,0.12-0.8,0.2c0,0,0,0,0-0.04
				c0.04-0.12-0.04-0.2-0.16-0.24c0,0-1.45-0.36-1.81-1.35c-0.44-1.31-0.8-3.33-0.16-5.43c0.88-2.78,1.49-3.69,1.73-3.77
				c0.44-0.16,3.21-1.79,3.29-1.82l5.46-2.5l1.97-0.6c0.04,0,0.08-0.04,0.08-0.08l0.12-0.12c0.04,0.04,0.04,0.08,0.08,0.08
				l0.72,0.32c0.04,0,0.04,0,0.08,0l0.88,0.04l0.12,0.52c0,0.08,0.12,0.16,0.2,0.16h0.04c0.12-0.04,0.16-0.12,0.16-0.24l-0.12-0.68
				c0-0.08-0.08-0.16-0.2-0.16l-1-0.04l-0.36-0.16c0.52-0.16,1.09-0.4,1.17-0.75c0.08-0.32,0.56-0.39,0.56-0.39
				c0.12,0,0.2-0.12,0.16-0.24c0-0.12-0.12-0.2-0.24-0.16c-0.04,0-0.76,0.12-0.88,0.71c-0.04,0.16-0.76,0.43-1.49,0.6
				c-0.04,0-0.08,0.04-0.12,0.08l-0.12,0.16l-1.93,0.59l-5.5,2.54c-0.68,0.39-2.37,1.35-3.01,1.71c-0.04,0-0.04,0-0.08,0
				c0,0-0.64,0.2-1.08-0.12c-0.28-0.2-0.44-0.55-0.48-1.07v-0.28c-0.12-1.71-0.2-2.82-0.04-3.77c0.32-2.02,1.05-2.58,1.41-2.85
				c0.08-0.08,0.16-0.12,0.2-0.2c0.2-0.2,1.53-1.03,2.33-1.54l3.93-0.87c0.12-0.04,0.16-0.12,0.16-0.24s-0.2-0.16-0.28-0.12
				l-3.98,0.87c-0.04,0-0.04,0-0.08,0.04c-0.24,0.12-2.17,1.31-2.45,1.62c-0.04,0.04-0.08,0.08-0.16,0.12
				c-0.4,0.32-1.2,0.95-1.57,3.13c-0.16,0.99-0.08,2.14,0.04,3.85v0.28c0.04,0.64,0.28,1.11,0.68,1.39c-0.32,0-0.64-0.08-0.92-0.2
				c-0.96-0.4-11.41-3.77-11.85-3.93c-0.4-0.16-1.24-0.48-1.93-0.83c-0.16-0.08-0.24-0.16-0.28-0.16c-0.24-0.12-0.44-0.24-0.52-0.36
				c-0.64-0.63-1.29-1.47-1.29-2.93c0-0.36,0-0.68,0-1.03c0-1.19,0-2.34,0.08-2.62c0-0.08,0.48-1.75,1.2-2.3
				c0.52-0.4,2.01-1.15,2.61-1.47c0,0.08,0,0.16,0,0.24c0.08,0.55,0.12,1.58,0.12,1.58v1.11l-0.16,0.99
				c-0.04,0.16-0.2,0.91-0.04,1.27c0.08,0.16,0.08,0.36,0.08,0.44c-0.2,0.12-0.2,0.24-0.16,0.36c0.04,0.16,0.24,0.2,0.52,0.16
				c0.2,0.24,0.64,0.75,0.96,0.75c0.2,0,0.52-0.2,1.09-0.55c0.32-0.2,0.72-0.44,1.04-0.64c0.76-0.39,2.53-0.87,2.53-0.87l1.89-0.47
				l6.5-0.08c1.41-0.04,5.22-0.12,5.86,0.04c0.68,0.2,1.28,0.67,2.09,1.27l0.28,0.24c0.68,0.52,0.72,1.35,0.72,1.59
				c-0.04,0-0.08,0-0.12,0c-0.12,0.04-3.29,1.35-3.7,1.54c-0.32,0.16-1.56,0.56-2.17,0.71h-0.04l-0.72,0.43l-0.88,0.44l-0.56,0.32
				l-0.52,0.08h-0.04v-0.04l-0.2-0.56c0-0.04-0.04-0.08-0.04-0.08l-0.24-0.24c-0.08-0.08-0.2-0.08-0.28,0
				c-0.08,0.08-0.08,0.2,0,0.28l0.2,0.2l0.12,0.51c-0.04,0-0.04,0.04-0.08,0.08l-0.6-0.16c-0.12-0.04-0.2,0.04-0.24,0.16
				c-0.04,0.12,0.04,0.2,0.16,0.24l0.53,0.12l-0.2,0.39c-0.04,0.04-0.04,0.08-0.04,0.12l0.12,0.83c0,0.04,0,0.08,0.04,0.08l0.16,0.2
				l-0.04,0.83l-0.08,0.32c-0.04,0.12,0.04,0.2,0.12,0.24h0.04c0.08,0,0.16-0.04,0.2-0.16l0.12-0.32v-0.04l0.04-0.91
				c0-0.04,0-0.08-0.04-0.12l-0.16-0.24L26.1,31.4l0.32-0.56c0,0,0,0,0-0.04h0.24l0.56-0.08c0.04,0,0.04,0,0.08-0.04l0.6-0.32
				l0.88-0.43l0.72-0.44c0.24-0.08,1.8-0.55,2.21-0.75c0.36-0.2,3.17-1.35,3.61-1.54l1.08,0.32c0.04,0,0.08,0,0.12,0
				c0.04,0,0.92-0.36,1.77-0.79c0.08-0.04,0.12-0.08,0.2-0.12h0.04c0.08,0.08,0.32,0.44,0.48,0.68c0.2,0.32,0.4,0.64,0.6,0.83
				C39.88,28.51,39.88,29.02,39.88,29.7z M25.9,42.35c-0.04,0-0.08,0-0.12,0c0.04-0.04,0.08-0.08,0.16-0.12
				c0.32-0.36,0-1.11-0.16-1.47l0.48-0.47c0.04-0.04,0.08-0.08,0.08-0.16c0-0.08-0.04-0.48-0.24-0.71c0.08-0.08,0.24-0.16,0.4-0.24
				c0.04,0,0.04-0.04,0.08-0.04c0.28,0.32,0.77,0.99,0.6,1.7C26.87,41.87,26.06,42.39,25.9,42.35z"/>
		</g>
	</g>
	<path d="M37.51,22.13c0.04,0,0.08,0,0.08-0.04l0.88-0.48c0.08-0.04,0.12-0.16,0.08-0.28c-0.04-0.08-0.16-0.12-0.28-0.08l-0.88,0.48
		c-0.08,0.04-0.12,0.16-0.08,0.28C37.38,22.09,37.47,22.13,37.51,22.13z"/>
	<path d="M11.24,21.09c0,0-1.6,0.43-1.8,2.06c-0.16,1.54-0.16,2.34-0.16,2.38c0,0.12,0.08,0.2,0.2,0.2c0.12,0,0.2-0.08,0.2-0.2
		c0,0,0-0.79,0.16-2.3c0.16-1.39,1.45-1.71,1.49-1.75c0.12-0.04,0.16-0.12,0.16-0.24C11.44,21.13,11.33,21.05,11.24,21.09z"/>
	<path d="M9.35,27.52C9.35,27.52,9.4,27.52,9.35,27.52c0.12,0,0.2-0.08,0.2-0.2l0.04-1.07c0-0.12-0.08-0.2-0.2-0.2
		c-0.12,0-0.2,0.08-0.2,0.2l-0.04,1.07C9.2,27.44,9.28,27.52,9.35,27.52z"/>
	<path d="M9.6,28.03c0-0.12-0.08-0.2-0.2-0.2c-0.12,0-0.2,0.08-0.2,0.2s-0.04,1.19,0.44,1.54c0.04,0.04,0.08,0.04,0.12,0.04
		c0.08,0,0.12-0.04,0.16-0.08c0.08-0.08,0.04-0.2-0.04-0.28C9.64,29.06,9.6,28.39,9.6,28.03z"/>
	<path d="M24.93,24.54c-0.08,0.04-2.09,1.07-2.29,2.22c-0.16,1.15-0.32,2.42-0.32,2.97c0,0.12,0.08,0.2,0.2,0.2
		c0.12,0,0.2-0.08,0.2-0.2c0-0.55,0.12-1.82,0.32-2.93c0.12-0.83,1.52-1.67,2.05-1.94c0.08-0.04,0.12-0.16,0.08-0.28
		C25.18,24.5,25.06,24.46,24.93,24.54z"/>
	<path d="M22.45,30.29c-0.12,0-0.2,0.08-0.24,0.16l-0.12,0.95c0,0.12,0.08,0.2,0.16,0.24c0,0,0,0,0.04,0c0.08,0,0.2-0.08,0.2-0.16
		l0.12-0.95C22.61,30.41,22.53,30.29,22.45,30.29z"/>
	<path d="M22.37,32.31c0-0.12-0.08-0.2-0.2-0.2c-0.12,0-0.2,0.08-0.2,0.2c0,0.24-0.04,1.07,0.24,1.35c0.04,0.04,0.08,0.04,0.16,0.04
		c0.04,0,0.12,0,0.16-0.04c0.08-0.08,0.08-0.2,0-0.28C22.37,33.27,22.33,32.71,22.37,32.31z"/>
	<path d="M15.26,33.19c-0.76-0.24-3.05-1.15-4.02-1.55c-0.28-0.12-0.48-0.2-0.52-0.2c-0.12-0.04-0.2,0.04-0.24,0.12
		c-0.04,0.12,0,0.2,0.12,0.24c0.04,0,0.2,0.08,0.48,0.2c1,0.39,3.29,1.35,4.06,1.58h0.04c0.08,0,0.16-0.04,0.2-0.16
		C15.42,33.35,15.38,33.23,15.26,33.19z"/>
	<path d="M17.23,33.86l-1.17-0.36c-0.12-0.04-0.2,0.04-0.24,0.12c-0.04,0.12,0.04,0.24,0.16,0.24l1.17,0.36c0.04,0,0.04,0,0.08,0
		c0.08,0,0.16-0.04,0.2-0.12C17.39,34.02,17.35,33.9,17.23,33.86z"/>
	<path d="M22.77,36.16c0.08,0,0.16-0.04,0.2-0.16c0.04-0.12-0.04-0.2-0.16-0.24c-0.77-0.2-4.58-1.5-4.62-1.5
		c-0.12-0.04-0.2,0-0.24,0.12s0,0.2,0.12,0.24c0.16,0.04,3.89,1.35,4.66,1.55H22.77z"/>
	<path d="M10.16,31.72c-0.08-0.04-0.2-0.04-0.28,0.08c-0.04,0.08-0.96,1.63-0.96,2.78c0,1.07,0.12,2.34,0.12,2.34
		c0,0.12,0.08,0.2,0.2,0.2c0.12,0,0.2-0.12,0.2-0.2c0,0-0.12-1.23-0.12-2.3c0-1.03,0.92-2.54,0.92-2.54
		C10.28,31.92,10.24,31.8,10.16,31.72z"/>
	<path d="M9.56,37.75c-0.04-0.12-0.12-0.16-0.24-0.16c-0.12,0.04-0.16,0.16-0.16,0.24c0,0.08,0.2,0.83,0.28,0.99
		c0.04,0.08,0.12,0.12,0.2,0.12c0.04,0,0.04,0,0.08,0c0.12-0.04,0.16-0.16,0.12-0.28C9.76,38.58,9.64,38.07,9.56,37.75z"/>
	<path d="M23.09,36.24c-0.04,0.04-1.24,1.39-1.17,3.17c0.08,1.66,0.2,2.82,0.2,2.82c0,0.12,0.08,0.16,0.2,0.16c0,0,0,0,0.04,0
		c0.12,0,0.2-0.12,0.16-0.24c0,0-0.12-1.15-0.2-2.82c-0.08-1.59,1.04-2.86,1.08-2.89c0.08-0.08,0.08-0.2,0-0.28
		C23.29,36.16,23.17,36.16,23.09,36.24z"/>
	<path d="M22.65,43.06c0-0.12-0.08-0.2-0.2-0.2c-0.12,0-0.2,0.08-0.2,0.2c0,0.04,0,0.87,0.36,1.39c0.04,0.04,0.12,0.08,0.16,0.08
		c0.04,0,0.08,0,0.12-0.04c0.08-0.08,0.12-0.2,0.04-0.28C22.65,43.77,22.65,43.06,22.65,43.06z"/>
	<path d="M31.56,29.26c0,0-0.36,0.36-1.69,0.64c-1.45,0.36-2.53,1.23-2.61,1.27c-0.08,0.08-0.08,0.2-0.04,0.28
		c0.04,0.04,0.08,0.08,0.16,0.08c0.04,0,0.08,0,0.12-0.04c0,0,1.09-0.87,2.41-1.19c1.45-0.32,1.85-0.71,1.89-0.75
		c0.08-0.08,0.08-0.2,0-0.28C31.76,29.18,31.64,29.18,31.56,29.26z"/>
	<path d="M33.21,28.51l-0.96,0.4c-0.12,0.04-0.16,0.16-0.12,0.28c0.04,0.08,0.12,0.12,0.2,0.12c0.04,0,0.04,0,0.08,0l0.96-0.39
		c0.12-0.04,0.16-0.16,0.12-0.28C33.41,28.51,33.33,28.47,33.21,28.51z"/>
	<path d="M29.19,42.66c0.04,0,0.08,0,0.12-0.04c0,0,0.96-0.79,1.77-1.15c0.85-0.36,1.57-0.71,1.57-0.71
		c0.08-0.04,0.16-0.16,0.08-0.28c-0.04-0.08-0.16-0.16-0.28-0.08c0,0-0.72,0.32-1.57,0.71c-0.84,0.36-1.84,1.15-1.89,1.19
		c-0.08,0.08-0.08,0.2-0.04,0.28C29.07,42.66,29.11,42.66,29.19,42.66z"/>
	<path d="M33.37,40.52c0.04,0,0.04,0,0.08,0l0.84-0.39c0.08-0.04,0.16-0.16,0.08-0.28c-0.04-0.08-0.16-0.16-0.28-0.08l-0.85,0.4
		c-0.08,0.04-0.16,0.16-0.08,0.28C33.21,40.48,33.29,40.52,33.37,40.52z"/>
	<path d="M24.69,15.82l6.59,2.42c0.04,0,0.04,0,0.08,0c0.08,0,0.16-0.04,0.2-0.12c0.04-0.12,0-0.2-0.12-0.24l-6.59-2.42
		c-0.12-0.04-0.2,0-0.24,0.12C24.54,15.66,24.62,15.78,24.69,15.82z"/>
	<path d="M31.88,18.52l1.41,0.48c0.04,0,0.04,0,0.08,0c0.08,0,0.16-0.04,0.2-0.12c0.04-0.12-0.04-0.2-0.12-0.24l-1.41-0.48
		c-0.12-0.04-0.2,0.04-0.24,0.12C31.76,18.36,31.8,18.48,31.88,18.52z"/>
	<path d="M13.25,18.04c0.04,0,0.04,0,0.08,0c0.08,0,0.16-0.04,0.2-0.12l0.12-0.32c0.04-0.12-0.04-0.2-0.12-0.24
		c-0.12-0.04-0.2,0.04-0.24,0.12l-0.12,0.32C13.09,17.88,13.17,18,13.25,18.04z"/>
	<path d="M13.94,18.04c0.04,0,0.04,0,0.08-0.04l0.24-0.12c0.08-0.04,0.12-0.16,0.08-0.28c-0.04-0.08-0.16-0.16-0.28-0.08l-0.24,0.12
		c-0.08,0.04-0.12,0.16-0.08,0.28C13.77,18,13.85,18.04,13.94,18.04z"/>
	<path d="M13.57,18.08c-0.08-0.08-0.2-0.04-0.28,0.04c-0.08,0.08-0.04,0.2,0.04,0.28l0.2,0.16c0.04,0.04,0.08,0.04,0.12,0.04
		c0.08,0,0.12-0.04,0.16-0.08c0.08-0.08,0.04-0.2-0.04-0.28L13.57,18.08z"/>
	<path d="M12.77,18.64l0.12,0.08c0.04,0,0.08,0.04,0.12,0.04c0.08,0,0.12-0.04,0.16-0.08c0.04-0.08,0.04-0.2-0.08-0.28l-0.12-0.08
		c-0.08-0.04-0.2-0.04-0.28,0.08C12.65,18.48,12.69,18.6,12.77,18.64z"/>
	<path d="M15.42,18.84c0.04,0,0.04,0,0.08,0c0.08,0,0.16-0.04,0.2-0.12l0.12-0.32c0.04-0.12-0.04-0.2-0.12-0.24
		c-0.12-0.04-0.2,0.04-0.24,0.12l-0.12,0.32C15.26,18.68,15.3,18.8,15.42,18.84z"/>
	<path d="M16.06,18.84c0.04,0,0.04,0,0.08-0.04l0.24-0.12c0.08-0.04,0.12-0.16,0.08-0.28c-0.04-0.12-0.16-0.16-0.28-0.08l-0.2,0.12
		c-0.08,0.04-0.12,0.16-0.08,0.28C15.9,18.8,15.98,18.84,16.06,18.84z"/>
	<path d="M15.7,18.87c-0.08-0.08-0.2-0.04-0.28,0.04c-0.08,0.08-0.04,0.2,0.04,0.28l0.2,0.16c0.04,0.04,0.08,0.04,0.12,0.04
		c0.08,0,0.12-0.04,0.16-0.08c0.08-0.08,0.04-0.2-0.04-0.28L15.7,18.87z"/>
	<path d="M14.9,19.43l0.12,0.08c0.04,0,0.08,0.04,0.12,0.04c0.08,0,0.12-0.04,0.16-0.08c0.04-0.08,0.04-0.2-0.08-0.28l-0.12-0.08
		c-0.08-0.04-0.2-0.04-0.28,0.08C14.78,19.23,14.82,19.35,14.9,19.43z"/>
	<path d="M14.26,20.02c-0.04,0.12,0.04,0.2,0.12,0.24c0.04,0,0.04,0,0.08,0c0.08,0,0.16-0.04,0.2-0.12l0.12-0.32
		c0.04-0.12-0.04-0.2-0.12-0.24c-0.12-0.04-0.2,0.04-0.24,0.12L14.26,20.02z"/>
	<path d="M15.22,19.79l-0.24,0.12c-0.08,0.04-0.12,0.16-0.08,0.28c0.04,0.08,0.12,0.12,0.16,0.12c0.04,0,0.04,0,0.08-0.04l0.24-0.12
		c0.08-0.04,0.12-0.16,0.08-0.28C15.42,19.79,15.3,19.75,15.22,19.79z"/>
	<path d="M14.42,20.38c-0.08,0.08-0.04,0.2,0.04,0.28l0.2,0.16c0.04,0.04,0.08,0.04,0.12,0.04c0.08,0,0.12-0.04,0.16-0.08
		c0.08-0.08,0.04-0.2-0.04-0.28l-0.2-0.16C14.61,20.26,14.5,20.3,14.42,20.38z"/>
	<path d="M14.22,20.62l-0.12-0.08c-0.08-0.04-0.2-0.04-0.28,0.08c-0.04,0.08-0.04,0.2,0.08,0.28l0.12,0.08
		c0.04,0,0.08,0.04,0.12,0.04c0.08,0,0.12-0.04,0.16-0.08C14.37,20.82,14.33,20.66,14.22,20.62z"/>
	<path d="M15.78,20.74l-0.12,0.32c-0.04,0.12,0.04,0.2,0.12,0.24c0.04,0,0.04,0,0.08,0c0.08,0,0.16-0.04,0.2-0.12l0.12-0.32
		c0.04-0.12-0.04-0.2-0.12-0.24C15.94,20.58,15.82,20.66,15.78,20.74z"/>
	<path d="M16.63,20.82l-0.24,0.12c-0.08,0.04-0.12,0.16-0.08,0.28c0.04,0.08,0.12,0.12,0.16,0.12c0.04,0,0.04,0,0.08-0.04l0.24-0.12
		c0.08-0.04,0.12-0.16,0.08-0.28C16.87,20.82,16.74,20.78,16.63,20.82z"/>
	<path d="M16.34,21.49l-0.2-0.16c-0.08-0.08-0.2-0.04-0.28,0.04c-0.08,0.08-0.04,0.2,0.04,0.28l0.2,0.16
		c0.04,0.04,0.08,0.04,0.12,0.04c0.08,0,0.12-0.04,0.16-0.08C16.46,21.69,16.42,21.57,16.34,21.49z"/>
	<path d="M15.66,21.65l-0.12-0.08c-0.08-0.04-0.2-0.04-0.28,0.08c-0.04,0.08-0.04,0.2,0.08,0.28l0.12,0.08
		c0.04,0,0.08,0.04,0.12,0.04c0.08,0,0.12-0.04,0.16-0.08C15.78,21.81,15.74,21.69,15.66,21.65z"/>
	<path d="M17.67,18.76c-0.12-0.04-0.2,0.04-0.24,0.12l-0.12,0.32c-0.04,0.12,0.04,0.2,0.12,0.24c0.04,0,0.04,0,0.08,0
		c0.08,0,0.16-0.04,0.2-0.12l0.12-0.32C17.83,18.87,17.75,18.76,17.67,18.76z"/>
	<path d="M17.87,19.31c0.04,0.08,0.12,0.12,0.16,0.12c0.04,0,0.04,0,0.08-0.04l0.24-0.12c0.08-0.04,0.12-0.16,0.08-0.28
		c-0.04-0.08-0.16-0.16-0.28-0.08l-0.16,0.12C17.87,19.11,17.83,19.23,17.87,19.31z"/>
	<path d="M17.95,19.59l-0.2-0.16c-0.08-0.08-0.2-0.04-0.28,0.04c-0.08,0.08-0.04,0.2,0.04,0.28l0.2,0.16
		c0.04,0.04,0.08,0.04,0.12,0.04c0.08,0,0.12-0.04,0.16-0.08C18.07,19.79,18.03,19.67,17.95,19.59z"/>
	<path d="M17.15,20.1c0.08,0,0.12-0.04,0.16-0.08c0.04-0.08,0.04-0.2-0.08-0.28l-0.12-0.08c-0.08-0.04-0.2-0.04-0.28,0.08
		c-0.04,0.08-0.04,0.2,0.08,0.28l0.12,0.08C17.07,20.1,17.11,20.1,17.15,20.1z"/>
	<path d="M19.31,20.22c0.04,0,0.04,0,0.08,0c0.08,0,0.16-0.04,0.2-0.12l0.12-0.32c0.04-0.12-0.04-0.2-0.12-0.24
		c-0.12-0.04-0.2,0.04-0.24,0.12l-0.16,0.28C19.15,20.06,19.24,20.18,19.31,20.22z"/>
	<path d="M19.96,20.22c0.04,0,0.08,0,0.08-0.04l0.24-0.12c0.08-0.04,0.12-0.16,0.08-0.28c-0.04-0.08-0.16-0.12-0.28-0.08l-0.24,0.12
		c-0.08,0.04-0.12,0.16-0.08,0.28C19.84,20.18,19.92,20.22,19.96,20.22z"/>
	<path d="M19.63,20.26c-0.08-0.08-0.2-0.04-0.28,0.04c-0.08,0.08-0.04,0.2,0.04,0.28l0.2,0.16c0.04,0.04,0.08,0.04,0.12,0.04
		c0.08,0,0.12-0.04,0.16-0.08c0.08-0.08,0.04-0.2-0.04-0.28L19.63,20.26z"/>
	<path d="M19.07,20.9c0.08,0,0.12-0.04,0.16-0.08c0.04-0.08,0.04-0.2-0.08-0.28l-0.12-0.08c-0.08-0.04-0.2-0.04-0.28,0.08
		c-0.04,0.08-0.04,0.2,0.08,0.28l0.12,0.08C18.99,20.9,19.03,20.9,19.07,20.9z"/>
	<path d="M17.59,20.9l-0.12,0.32c-0.04,0.12,0.04,0.2,0.12,0.24c0.04,0,0.04,0,0.08,0c0.08,0,0.16-0.04,0.2-0.12l0.12-0.32
		c0.04-0.12-0.04-0.2-0.12-0.24C17.71,20.74,17.59,20.82,17.59,20.9z"/>
	<path d="M18.43,20.98l-0.24,0.12c-0.08,0.04-0.12,0.16-0.08,0.28c0.04,0.08,0.12,0.12,0.16,0.12c0.04,0,0.04,0,0.08-0.04l0.24-0.12
		c0.08-0.04,0.12-0.16,0.08-0.28C18.63,20.94,18.51,20.9,18.43,20.98z"/>
	<path d="M18.19,21.93c0.08-0.08,0.04-0.2-0.04-0.28l-0.2-0.16c-0.08-0.08-0.2-0.04-0.28,0.04c-0.08,0.08-0.04,0.2,0.04,0.28
		l0.2,0.16c0.04,0.04,0.08,0.04,0.12,0.04C18.07,22.01,18.15,21.97,18.19,21.93z"/>
	<path d="M17.43,21.81l-0.12-0.08c-0.08-0.04-0.2-0.04-0.28,0.08c-0.04,0.08-0.04,0.2,0.08,0.28l0.12,0.08
		c0.04,0,0.08,0.04,0.12,0.04c0.08,0,0.12-0.04,0.16-0.08C17.55,21.97,17.55,21.85,17.43,21.81z"/>
	<path d="M22.57,20.3c-0.12,0-0.2,0.08-0.2,0.2c0,0.12,0.08,0.2,0.2,0.2h0.32c0.12,0,0.2-0.08,0.2-0.2c0-0.12-0.08-0.2-0.2-0.2
		H22.57z"/>
	<path d="M22.41,19.63c-0.08,0.08-0.08,0.2,0,0.28l0.2,0.2c0.04,0.04,0.08,0.08,0.16,0.08c0.04,0,0.12,0,0.12-0.04
		c0.08-0.08,0.08-0.2,0-0.28l-0.2-0.2C22.61,19.55,22.49,19.55,22.41,19.63z"/>
	<path d="M23.21,20.46h0.04c0.08,0,0.16-0.04,0.2-0.16l0.08-0.24c0.04-0.12-0.04-0.2-0.12-0.24c-0.12-0.04-0.2,0.04-0.24,0.12
		l-0.08,0.24C23.01,20.3,23.09,20.42,23.21,20.46z"/>
	<path d="M23.73,20.42c-0.12-0.04-0.2,0.04-0.24,0.16l-0.04,0.16c-0.04,0.12,0.04,0.2,0.16,0.24h0.04c0.08,0,0.16-0.08,0.2-0.16
		l0.04-0.16C23.89,20.54,23.85,20.46,23.73,20.42z"/>
	<path d="M20.4,18.99c-0.12,0-0.2,0.08-0.2,0.2s0.08,0.2,0.2,0.2h0.32c0.12,0,0.2-0.08,0.2-0.2s-0.08-0.2-0.2-0.2H20.4z"/>
	<path d="M20.4,18.8c0.04,0.04,0.08,0.08,0.16,0.08c0.04,0,0.12,0,0.12-0.04c0.08-0.08,0.08-0.2,0-0.28l-0.2-0.2
		c-0.08-0.08-0.2-0.08-0.28,0c-0.08,0.08-0.08,0.2,0,0.28L20.4,18.8z"/>
	<path d="M21.04,19.15h0.04c0.08,0,0.16-0.04,0.2-0.16l0.08-0.24c0.04-0.12-0.04-0.2-0.12-0.24c-0.12-0.04-0.2,0.04-0.24,0.12
		l-0.08,0.24C20.88,19.03,20.92,19.11,21.04,19.15z"/>
	<path d="M21.32,19.27l-0.04,0.16c-0.04,0.12,0.04,0.2,0.16,0.24h0.04c0.08,0,0.16-0.08,0.2-0.16l0.04-0.16
		c0.04-0.12-0.04-0.2-0.16-0.24C21.44,19.11,21.36,19.15,21.32,19.27z"/>
	<path d="M24.33,21.21h0.04c0.08,0,0.16-0.08,0.2-0.16l0.04-0.16c0.04-0.12-0.04-0.2-0.16-0.24c-0.12-0.04-0.2,0.04-0.24,0.16
		l-0.04,0.16C24.17,21.09,24.26,21.21,24.33,21.21z"/>
	<path d="M27.91,21.29l-0.04,0.16c-0.04,0.12,0.04,0.2,0.16,0.24h0.04c0.08,0,0.16-0.08,0.2-0.16l0.04-0.16
		c0.04-0.12-0.04-0.2-0.16-0.24C28.07,21.13,27.95,21.17,27.91,21.29z"/>
	<path d="M30.48,20.62h0.04c0.08,0,0.16-0.08,0.2-0.16l0.04-0.16c0.04-0.12-0.04-0.2-0.16-0.24c-0.12-0.04-0.2,0.04-0.24,0.16
		l-0.04,0.16C30.32,20.5,30.36,20.62,30.48,20.62z"/>
	<path d="M34.17,21.69h0.04c0.08,0,0.16-0.08,0.2-0.16l0.04-0.16c0.04-0.12-0.04-0.2-0.16-0.24c-0.12-0.04-0.2,0.04-0.24,0.16
		l-0.04,0.16C33.97,21.57,34.05,21.69,34.17,21.69z"/>
	<path d="M35.78,22.88h0.04c0.08,0,0.16-0.08,0.2-0.16l0.04-0.16c0.04-0.12-0.04-0.2-0.16-0.24c-0.12-0.04-0.2,0.04-0.24,0.16v0.16
		C35.62,22.72,35.7,22.84,35.78,22.88z"/>
	<path d="M37.14,24.62h0.04c0.08,0,0.16-0.08,0.2-0.16l0.04-0.16c0.04-0.12-0.04-0.2-0.16-0.24c-0.12-0.04-0.2,0.04-0.24,0.16
		l-0.04,0.16C36.95,24.46,37.02,24.58,37.14,24.62z"/>
	<path d="M38.11,25.69h0.04c0.08,0,0.16-0.08,0.2-0.16l0.04-0.16c0.04-0.12-0.04-0.2-0.16-0.24c-0.12-0.04-0.2,0.04-0.24,0.16
		l-0.04,0.16C37.95,25.53,38.03,25.65,38.11,25.69z"/>
	<path d="M37.3,25.14c-0.12-0.04-0.2,0.04-0.24,0.16l-0.04,0.16c-0.04,0.12,0.04,0.2,0.16,0.24h0.04c0.08,0,0.16-0.08,0.2-0.16
		l0.04-0.16C37.51,25.26,37.43,25.14,37.3,25.14z"/>
	<path d="M37.1,26.17c-0.12-0.04-0.2,0.04-0.24,0.16l-0.04,0.16c-0.04,0.12,0.04,0.2,0.16,0.24h0.04c0.08,0,0.16-0.08,0.2-0.16
		l0.04-0.16C37.27,26.29,37.19,26.17,37.1,26.17z"/>
	<path d="M34.86,23.51l-0.04,0.16c-0.04,0.12,0.04,0.2,0.16,0.24h0.04c0.08,0,0.16-0.08,0.2-0.16l0.04-0.16
		c0.04-0.12-0.04-0.2-0.16-0.24C34.97,23.35,34.86,23.39,34.86,23.51z"/>
	<path d="M31.84,21.97c-0.12-0.04-0.2,0.04-0.24,0.16l-0.04,0.16c-0.04,0.12,0.04,0.2,0.16,0.24h0.04c0.08,0,0.16-0.08,0.2-0.16
		L32,22.2C32,22.13,31.97,22.01,31.84,21.97z"/>
	<path d="M29.31,21.69c-0.12-0.04-0.2,0.04-0.24,0.16v0.12c-0.04,0.12,0.04,0.2,0.16,0.24h0.04c0.08,0,0.16-0.08,0.2-0.16l0.04-0.16
		C29.52,21.85,29.43,21.73,29.31,21.69z"/>
	<path d="M25.62,21.73c-0.12-0.04-0.2,0.04-0.24,0.16l-0.04,0.16c-0.04,0.12,0.04,0.2,0.16,0.24h0.04c0.08,0,0.16-0.08,0.2-0.16
		l0.04-0.16C25.78,21.85,25.74,21.77,25.62,21.73z"/>
	<path d="M24.21,22.28h0.04c0.08,0,0.16-0.08,0.2-0.16l0.04-0.16c0.04-0.12-0.04-0.2-0.16-0.24c-0.12-0.04-0.2,0.04-0.24,0.16
		l-0.04,0.16C24.05,22.16,24.09,22.28,24.21,22.28z"/>
	<path d="M21.65,20.74c-0.12-0.04-0.2,0.04-0.24,0.16l-0.04,0.16c-0.04,0.12,0.04,0.2,0.16,0.24h0.04c0.08,0,0.16-0.08,0.2-0.16
		l0.04-0.16C21.8,20.9,21.72,20.78,21.65,20.74z"/>
	<path d="M21.16,21.65c-0.12-0.04-0.2,0.04-0.24,0.16l-0.04,0.16c-0.04,0.12,0.04,0.2,0.16,0.24h0.04c0.08,0,0.16-0.08,0.2-0.16
		l0.04-0.16C21.32,21.77,21.24,21.69,21.16,21.65z"/>
	<path d="M19.07,21.33l-0.04,0.16c-0.04,0.12,0.04,0.2,0.16,0.24h0.04c0.08,0,0.16-0.08,0.2-0.16l0.04-0.16
		c0.04-0.12-0.04-0.2-0.16-0.24C19.2,21.13,19.11,21.21,19.07,21.33z"/>
	<path d="M18.19,22.16c-0.12-0.04-0.2,0.04-0.24,0.16l-0.04,0.16c-0.04,0.12,0.04,0.2,0.16,0.24h0.04c0.08,0,0.16-0.08,0.2-0.16
		l0.04-0.16C18.35,22.32,18.31,22.2,18.19,22.16z"/>
	<path d="M13.41,19.94l0.04-0.16c0.04-0.12-0.04-0.2-0.16-0.24c-0.12-0.04-0.2,0.04-0.24,0.16l-0.04,0.16
		c-0.04,0.12,0.04,0.2,0.16,0.24h0.04C13.33,20.1,13.41,20.02,13.41,19.94z"/>
	<path d="M14.22,18.48c-0.12-0.04-0.2,0.04-0.24,0.16l-0.04,0.16c-0.04,0.12,0.04,0.2,0.16,0.24h0.04c0.08,0,0.16-0.08,0.2-0.16
		l0.04-0.16C14.42,18.6,14.33,18.48,14.22,18.48z"/>
	<path d="M13.01,23.95c-0.12-0.04-0.2,0.04-0.24,0.16l-0.04,0.16c-0.04,0.12,0.04,0.2,0.16,0.24h0.04c0.08,0,0.16-0.08,0.2-0.16
		l0.04-0.16C13.17,24.07,13.13,23.95,13.01,23.95z"/>
	<path d="M13.89,23.87c-0.12-0.04-0.2,0.04-0.24,0.16l-0.04,0.16c-0.04,0.12,0.04,0.2,0.16,0.24h0.04c0.08,0,0.16-0.08,0.2-0.16
		l0.04-0.16C14.05,23.99,14.01,23.87,13.89,23.87z"/>
	<path d="M15.38,22.72l0.04-0.16c0.04-0.12-0.04-0.2-0.16-0.24c-0.12-0.04-0.2,0.04-0.24,0.16l-0.04,0.16
		c-0.04,0.12,0.04,0.2,0.16,0.24h0.04C15.26,22.84,15.34,22.8,15.38,22.72z"/>
	<path d="M15.58,23.04c-0.12-0.04-0.2,0.04-0.24,0.16l-0.04,0.16c-0.04,0.12,0.04,0.2,0.16,0.24h0.04c0.08,0,0.16-0.08,0.2-0.16
		l0.04-0.16C15.74,23.16,15.7,23.08,15.58,23.04z"/>
	<path d="M20.24,21.65c-0.12-0.04-0.2,0.04-0.24,0.16l-0.04,0.16c-0.04,0.12,0.04,0.2,0.16,0.24h0.04c0.08,0,0.16-0.08,0.2-0.16
		l0.04-0.16C20.4,21.77,20.32,21.69,20.24,21.65z"/>
	<path d="M23.65,19.35h0.04c0.08,0,0.16-0.08,0.2-0.16l0.04-0.16c0.04-0.12-0.04-0.2-0.16-0.24c-0.12-0.04-0.2,0.04-0.24,0.16
		l-0.04,0.16C23.49,19.23,23.53,19.35,23.65,19.35z"/>
	<path d="M24.86,19.27h0.04c0.08,0,0.16-0.08,0.2-0.16l0.04-0.16c0.04-0.12-0.04-0.2-0.16-0.24c-0.12-0.04-0.2,0.04-0.24,0.16
		l-0.04,0.16C24.69,19.11,24.74,19.23,24.86,19.27z"/>
	<path d="M18.91,18.56c-0.12,0-0.2,0.08-0.2,0.2s0.08,0.2,0.2,0.2h0.32c0.12,0,0.2-0.08,0.2-0.2s-0.08-0.2-0.2-0.2H18.91z"/>
	<path d="M18.91,18.36c0.04,0.04,0.08,0.08,0.16,0.08c0.04,0,0.12,0,0.12-0.04c0.08-0.08,0.08-0.2,0-0.28l-0.2-0.2
		c-0.08-0.08-0.2-0.08-0.28,0c-0.08,0.08-0.08,0.2,0,0.28L18.91,18.36z"/>
	<path d="M19.52,18.72h0.04c0.08,0,0.16-0.04,0.2-0.16l0.08-0.24c0.04-0.12-0.04-0.2-0.12-0.24c-0.12-0.04-0.2,0.04-0.24,0.12
		l-0.08,0.24C19.35,18.56,19.44,18.68,19.52,18.72z"/>
	<path d="M19.84,18.84l-0.04,0.16c-0.04,0.12,0.04,0.2,0.16,0.24H20c0.08,0,0.16-0.08,0.2-0.16l0.04-0.16
		c0.04-0.12-0.04-0.2-0.16-0.24C19.96,18.64,19.84,18.72,19.84,18.84z"/>
	<path d="M16.78,18.36h0.32c0.12,0,0.2-0.08,0.2-0.2s-0.08-0.2-0.2-0.2h-0.32c-0.12,0-0.2,0.08-0.2,0.2S16.7,18.36,16.78,18.36z"/>
	<path d="M17.43,18.12h0.04c0.08,0,0.16-0.04,0.2-0.16l0.08-0.24c0.04-0.12-0.04-0.2-0.12-0.24c-0.12-0.04-0.2,0.04-0.24,0.12
		l-0.08,0.24C17.27,17.96,17.31,18.08,17.43,18.12z"/>
	<path d="M17.71,18.2l-0.04,0.16c-0.04,0.12,0.04,0.2,0.16,0.24h0.04c0.08,0,0.16-0.08,0.2-0.16l0.04-0.16
		c0.04-0.12-0.04-0.2-0.16-0.24C17.83,18.04,17.75,18.12,17.71,18.2z"/>
	<path d="M13.69,22.16h0.32c0.12,0,0.2-0.08,0.2-0.2s-0.08-0.2-0.2-0.2h-0.32c-0.12,0-0.2,0.08-0.2,0.2S13.57,22.16,13.69,22.16z"/>
	<path d="M13.85,21.61c0.04,0,0.12,0,0.12-0.04c0.08-0.08,0.08-0.2,0-0.28l-0.2-0.2c-0.08-0.08-0.2-0.08-0.28,0
		c-0.08,0.08-0.08,0.2,0,0.28l0.2,0.2C13.73,21.61,13.81,21.61,13.85,21.61z"/>
	<path d="M14.26,21.41l-0.08,0.24c-0.04,0.12,0.04,0.2,0.12,0.24h0.04c0.08,0,0.16-0.04,0.2-0.16l0.08-0.24
		c0.04-0.12-0.04-0.2-0.12-0.24C14.42,21.25,14.3,21.33,14.26,21.41z"/>
	<path d="M14.86,21.89c-0.12-0.04-0.2,0.04-0.24,0.16l-0.04,0.16c-0.04,0.12,0.04,0.2,0.16,0.24h0.04c0.08,0,0.16-0.08,0.2-0.16
		l0.04-0.16C15.02,22.01,14.94,21.89,14.86,21.89z"/>
	<path d="M13.77,23.71c0.12,0,0.2-0.08,0.2-0.2s-0.08-0.2-0.2-0.2h-0.32c-0.12,0-0.2,0.08-0.2,0.2s0.08,0.2,0.2,0.2H13.77z"/>
	<path d="M13.49,23.12c0.04,0.04,0.08,0.04,0.12,0.04s0.12,0,0.12-0.04c0.08-0.08,0.08-0.2,0-0.28l-0.16-0.2
		c-0.08-0.08-0.2-0.08-0.28,0c-0.08,0.08-0.08,0.2,0,0.28L13.49,23.12z"/>
	<path d="M14.3,22.84c-0.12-0.04-0.2,0.04-0.24,0.12l-0.08,0.24c-0.04,0.12,0.04,0.2,0.12,0.24h0.04c0.08,0,0.16-0.04,0.2-0.16
		l0.08-0.24C14.46,23,14.37,22.88,14.3,22.84z"/>
	<path d="M14.61,23.43c-0.12-0.04-0.2,0.04-0.24,0.16l-0.04,0.16c-0.04,0.12,0.04,0.2,0.16,0.24h0.04c0.08,0,0.16-0.08,0.2-0.16
		l0.04-0.16C14.78,23.55,14.74,23.43,14.61,23.43z"/>
	<path d="M22.77,21.57h-0.32c-0.12,0-0.2,0.08-0.2,0.2s0.08,0.2,0.2,0.2h0.32c0.12,0,0.2-0.08,0.2-0.2S22.89,21.57,22.77,21.57z"/>
	<path d="M22.45,21.37c0.04,0.04,0.08,0.08,0.16,0.08c0.04,0,0.12,0,0.12-0.04c0.08-0.08,0.08-0.2,0-0.28l-0.2-0.2
		c-0.08-0.08-0.2-0.08-0.28,0c-0.08,0.08-0.08,0.2,0,0.28L22.45,21.37z"/>
	<path d="M23.25,21.09c-0.12-0.04-0.2,0.04-0.24,0.12l-0.08,0.24c-0.04,0.12,0.04,0.2,0.12,0.24h0.04c0.08,0,0.16-0.04,0.2-0.16
		l0.08-0.24C23.41,21.25,23.37,21.13,23.25,21.09z"/>
	<path d="M23.61,21.69c-0.12-0.04-0.2,0.04-0.24,0.16l-0.04,0.12c-0.04,0.12,0.04,0.2,0.16,0.24h0.04c0.08,0,0.16-0.08,0.2-0.16
		l0.04-0.16C23.77,21.81,23.69,21.69,23.61,21.69z"/>
	<path d="M24.74,20.18c-0.12,0-0.2,0.08-0.2,0.2c0,0.12,0.08,0.2,0.2,0.2h0.32c0.12,0,0.2-0.08,0.2-0.2c0-0.12-0.08-0.2-0.2-0.2
		H24.74z"/>
	<path d="M24.74,19.98c0.04,0.04,0.08,0.08,0.16,0.08c0.04,0,0.12,0,0.12-0.04c0.08-0.08,0.08-0.2,0-0.28l-0.2-0.24
		c-0.08-0.08-0.2-0.08-0.28,0c-0.08,0.08-0.08,0.2,0,0.28L24.74,19.98z"/>
	<path d="M25.34,20.34h0.04c0.08,0,0.16-0.04,0.2-0.16l0.08-0.24c0.04-0.12-0.04-0.2-0.12-0.24c-0.12-0.04-0.2,0.04-0.24,0.12
		l-0.08,0.28C25.18,20.22,25.26,20.34,25.34,20.34z"/>
	<path d="M25.66,20.46l-0.04,0.16c-0.04,0.12,0.04,0.2,0.16,0.24h0.04c0.08,0,0.16-0.08,0.2-0.16l0.04-0.16
		c0.04-0.12-0.04-0.2-0.16-0.24C25.78,20.3,25.66,20.34,25.66,20.46z"/>
	<path d="M26.78,20.14c-0.12,0-0.2,0.08-0.2,0.2s0.08,0.2,0.2,0.2h0.32c0.12,0,0.2-0.08,0.2-0.2s-0.08-0.2-0.2-0.2H26.78z"/>
	<path d="M26.78,19.94c0.04,0.04,0.08,0.08,0.16,0.08c0.04,0,0.12,0,0.12-0.04c0.08-0.08,0.08-0.2,0-0.28l-0.2-0.2
		c-0.08-0.08-0.2-0.08-0.28,0c-0.08,0.08-0.08,0.2,0,0.28L26.78,19.94z"/>
	<path d="M27.43,20.3h0.04c0.08,0,0.16-0.04,0.2-0.16l0.08-0.24c0.04-0.12-0.04-0.2-0.12-0.24c-0.12-0.04-0.2,0.04-0.24,0.12
		l-0.08,0.24C27.23,20.18,27.3,20.26,27.43,20.3z"/>
	<path d="M27.71,20.42l-0.04,0.16c-0.04,0.08,0.04,0.2,0.16,0.2h0.04c0.08,0,0.16-0.08,0.2-0.16l0.04-0.16
		c0.04-0.12-0.04-0.2-0.16-0.24C27.83,20.22,27.75,20.3,27.71,20.42z"/>
	<path d="M29.03,20.78C28.99,20.78,28.99,20.78,29.03,20.78c-0.12,0-0.2,0.08-0.2,0.2s0.08,0.2,0.2,0.2h0.32
		c0.12,0,0.2-0.08,0.2-0.2s-0.08-0.2-0.2-0.2H29.03z"/>
	<path d="M28.99,20.58c0.04,0.04,0.08,0.08,0.16,0.08c0.04,0,0.12,0,0.12-0.04c0.08-0.08,0.08-0.2,0-0.28l-0.2-0.2
		c-0.08-0.08-0.2-0.08-0.28,0c-0.08,0.08-0.08,0.2,0,0.28L28.99,20.58z"/>
	<path d="M29.63,20.94h0.04c0.08,0,0.16-0.04,0.2-0.16l0.08-0.24c0.04-0.12-0.04-0.2-0.12-0.24c-0.12-0.04-0.2,0.04-0.24,0.12
		l-0.08,0.24C29.47,20.78,29.52,20.9,29.63,20.94z"/>
	<path d="M29.92,21.02l-0.04,0.16c-0.04,0.12,0.04,0.2,0.16,0.24h0.04c0.08,0,0.16-0.08,0.2-0.16l0.04-0.16
		c0.04-0.12-0.04-0.2-0.16-0.24C30.04,20.86,29.95,20.94,29.92,21.02z"/>
	<path d="M31.28,21.53c-0.12,0-0.2,0.08-0.2,0.2c0,0.12,0.08,0.2,0.2,0.2h0.32c0.12,0,0.2-0.08,0.2-0.2c0-0.12-0.08-0.2-0.2-0.2
		H31.28z"/>
	<path d="M31.28,21.33c0.04,0.04,0.08,0.08,0.16,0.08c0.04,0,0.12,0,0.12-0.04c0.08-0.08,0.08-0.2,0-0.28l-0.2-0.2
		c-0.08-0.08-0.2-0.08-0.28,0c-0.08,0.08-0.08,0.2,0,0.28L31.28,21.33z"/>
	<path d="M31.88,21.69h0.04c0.08,0,0.16-0.04,0.2-0.16l0.08-0.24c0.04-0.12-0.04-0.2-0.12-0.24c-0.12-0.04-0.2,0.04-0.24,0.12
		l-0.08,0.24C31.72,21.57,31.76,21.65,31.88,21.69z"/>
	<path d="M32.17,21.81l-0.04,0.16c-0.04,0.12,0.04,0.2,0.16,0.24h0.04c0.08,0,0.16-0.08,0.2-0.16l0.04-0.16
		c0.04-0.12-0.04-0.2-0.16-0.24C32.32,21.61,32.21,21.69,32.17,21.81z"/>
	<path d="M26.78,21.53h-0.32c-0.12,0-0.2,0.08-0.2,0.2c0,0.12,0.08,0.2,0.2,0.2h0.32c0.12,0,0.2-0.08,0.2-0.2
		C26.98,21.61,26.91,21.53,26.78,21.53z"/>
	<path d="M26.46,21.33c0.04,0.04,0.08,0.08,0.16,0.08c0.04,0,0.12,0,0.12-0.04c0.08-0.08,0.08-0.2,0-0.28l-0.2-0.2
		c-0.08-0.08-0.2-0.08-0.28,0c-0.08,0.08-0.08,0.2,0,0.28L26.46,21.33z"/>
	<path d="M27.27,21.05c-0.12-0.04-0.2,0.04-0.24,0.12l-0.08,0.24c-0.04,0.12,0.04,0.2,0.12,0.24h0.04c0.08,0,0.16-0.04,0.2-0.16
		l0.08-0.24C27.43,21.17,27.39,21.09,27.27,21.05z"/>
	<path d="M27.63,21.65c-0.12-0.04-0.2,0.04-0.24,0.16l-0.04,0.16c-0.04,0.12,0.04,0.2,0.16,0.24h0.04c0.08,0,0.16-0.08,0.2-0.16
		l0.04-0.16C27.79,21.77,27.71,21.65,27.63,21.65z"/>
	<path d="M34.17,22.48h-0.32c-0.12,0-0.2,0.08-0.2,0.2c0,0.12,0.08,0.2,0.2,0.2h0.32c0.12,0,0.2-0.08,0.2-0.2
		C34.37,22.56,34.29,22.48,34.17,22.48z"/>
	<path d="M33.85,22.24c0.04,0.04,0.08,0.08,0.16,0.08c0.04,0,0.12,0,0.12-0.04c0.08-0.08,0.08-0.2,0-0.28l-0.2-0.2
		c-0.08-0.08-0.2-0.08-0.28,0c-0.08,0.08-0.08,0.2,0,0.28L33.85,22.24z"/>
	<path d="M34.41,22.13l-0.08,0.24c-0.04,0.12,0.04,0.2,0.12,0.24h0.04c0.08,0,0.16-0.04,0.2-0.16l0.08-0.24
		c0.04-0.12-0.04-0.2-0.12-0.24C34.54,21.97,34.41,22.01,34.41,22.13z"/>
	<path d="M34.73,22.72l-0.04,0.16c-0.04,0.12,0.04,0.2,0.16,0.24h0.04c0.08,0,0.16-0.08,0.2-0.16l0.04-0.16
		c0.04-0.12-0.04-0.2-0.16-0.24C34.9,22.56,34.78,22.6,34.73,22.72z"/>
	<path d="M35.98,23.67c-0.08-0.08-0.2-0.04-0.28,0.04c-0.08,0.08-0.04,0.2,0.04,0.28l0.28,0.2c0.04,0.04,0.08,0.04,0.12,0.04
		c0.08,0,0.12-0.04,0.16-0.08c0.08-0.08,0.04-0.2-0.04-0.28L35.98,23.67z"/>
	<path d="M36.02,23.2l0.04,0.28c0,0.08,0.12,0.16,0.2,0.16h0.04c0.12,0,0.2-0.12,0.16-0.24l-0.04-0.24c0-0.12-0.12-0.2-0.24-0.16
		C36.1,23,36.02,23.12,36.02,23.2z"/>
	<path d="M36.38,24.11c0.04,0.04,0.08,0.08,0.16,0.08c0.04,0,0.08,0,0.12-0.04l0.2-0.16c0.08-0.08,0.08-0.2,0.04-0.28
		c-0.04-0.08-0.2-0.08-0.28-0.04l-0.2,0.16C36.34,23.91,36.3,24.03,36.38,24.11z"/>
	<path d="M32.77,22.68c0.04,0,0.08,0,0.12-0.04l0.2-0.16c0.08-0.08,0.08-0.2,0.04-0.28c-0.08-0.08-0.2-0.08-0.28-0.04l-0.2,0.16
		c-0.08,0.08-0.08,0.2-0.04,0.28C32.65,22.68,32.73,22.68,32.77,22.68z"/>
	<path d="M33.01,21.29c0.04,0,0.08,0,0.12-0.04l0.2-0.16c0.08-0.08,0.08-0.2,0.04-0.28c-0.08-0.08-0.2-0.08-0.28-0.04l-0.2,0.16
		c-0.08,0.08-0.08,0.2-0.04,0.28C32.89,21.25,32.93,21.29,33.01,21.29z"/>
	<path d="M30.24,21.65l-0.2,0.16c-0.08,0.08-0.08,0.2-0.04,0.28c0.04,0.04,0.08,0.08,0.16,0.08c0.04,0,0.08,0,0.12-0.04l0.2-0.16
		c0.08-0.08,0.08-0.2,0.04-0.28C30.44,21.61,30.32,21.57,30.24,21.65z"/>
	<path d="M28.63,21.89c0.04,0,0.08,0,0.12-0.04l0.2-0.16c0.08-0.08,0.08-0.2,0.04-0.28c-0.04-0.08-0.2-0.08-0.28-0.04l-0.2,0.16
		c-0.08,0.08-0.08,0.2-0.04,0.28C28.51,21.85,28.55,21.89,28.63,21.89z"/>
	<path d="M24.93,21.17l-0.2,0.16c-0.08,0.08-0.08,0.2-0.04,0.28c0.04,0.04,0.08,0.08,0.16,0.08c0.04,0,0.08,0,0.12-0.04l0.2-0.16
		c0.08-0.08,0.08-0.2,0.04-0.28C25.14,21.09,25.02,21.09,24.93,21.17z"/>
	<path d="M20.48,21.02l-0.2,0.16c-0.08,0.08-0.08,0.2-0.04,0.28c0.04,0.04,0.08,0.08,0.16,0.08c0.04,0,0.08,0,0.12-0.04l0.2-0.16
		c0.08-0.08,0.08-0.2,0.04-0.28C20.72,20.94,20.56,20.94,20.48,21.02z"/>
	<path d="M21.48,20.14c-0.08-0.08-0.2-0.08-0.28-0.04L21,20.26c-0.08,0.08-0.08,0.2-0.04,0.28c0.04,0.04,0.08,0.08,0.16,0.08
		c0.04,0,0.08,0,0.12-0.04l0.2-0.16C21.56,20.34,21.56,20.22,21.48,20.14z"/>
	<path d="M19.24,21.93l-0.2,0.16c-0.08,0.08-0.08,0.2-0.04,0.28c0.04,0.04,0.08,0.08,0.16,0.08c0.04,0,0.08,0,0.12-0.04l0.2-0.16
		c0.08-0.08,0.08-0.2,0.04-0.28C19.44,21.89,19.31,21.85,19.24,21.93z"/>
	<path d="M16.5,22.36l-0.2,0.16c-0.08,0.08-0.08,0.2-0.04,0.28c0.04,0.04,0.08,0.08,0.16,0.08c0.04,0,0.08,0,0.12-0.04l0.2-0.16
		c0.08-0.08,0.08-0.2,0.04-0.28C16.7,22.32,16.59,22.32,16.5,22.36z"/>
	<path d="M16.34,19.47c0.04,0.04,0.08,0.08,0.16,0.08c0.04,0,0.08,0,0.12-0.04l0.2-0.16c0.08-0.08,0.08-0.2,0.04-0.28
		c-0.08-0.08-0.2-0.08-0.28-0.04l-0.2,0.16C16.3,19.27,16.26,19.39,16.34,19.47z"/>
	<path d="M22.28,19.23c0.04,0,0.08,0,0.12-0.04l0.2-0.16c0.08-0.08,0.08-0.2,0.04-0.28c-0.08-0.08-0.2-0.08-0.28-0.04l-0.2,0.16
		c-0.08,0.08-0.08,0.2-0.04,0.28C22.17,19.23,22.25,19.23,22.28,19.23z"/>
	<path d="M36.86,24.38c-0.08-0.08-0.2-0.08-0.28,0l-0.12,0.08c-0.08,0.08-0.08,0.2,0,0.28c0.04,0.04,0.08,0.08,0.16,0.08
		c0.04,0,0.08,0,0.12-0.04l0.12-0.08C36.9,24.58,36.9,24.46,36.86,24.38z"/>
</g>
</svg>
