<?xml version="1.0" encoding="utf-8"?>
<!-- Generator: Adobe Illustrator 27.3.1, SVG Export Plug-In . SVG Version: 6.00 Build 0)  -->
<svg version="1.1" id="Layer_1" xmlns="http://www.w3.org/2000/svg" xmlns:xlink="http://www.w3.org/1999/xlink" x="0px" y="0px"
	 viewBox="0 0 50 50" style="enable-background:new 0 0 50 50;" xml:space="preserve">
<style type="text/css">
	.st0{fill:none;}
	.st1{stroke:#000000;stroke-miterlimit:10;}
	.st2{stroke:#000000;stroke-width:0.75;stroke-miterlimit:10;}
	.st3{clip-path:url(#SVGID_00000111160519664536011110000005263561483172545415_);}
	.st4{clip-path:url(#SVGID_00000166644888488884815400000015536086011507396740_);}
	.st5{fill:#FFFFFF;}
	.st6{clip-path:url(#SVGID_00000096757739540796222350000015038386314691623592_);}
	.st7{fill:#231F20;}
	.st8{clip-path:url(#SVGID_00000022552036277689909470000009492699562911880085_);}
	.st9{clip-path:url(#SVGID_00000058550550573253988940000008314072215619277499_);}
	.st10{clip-path:url(#SVGID_00000005238196973743151260000010148478157798032257_);}
	.st11{clip-path:url(#SVGID_00000171682775694903626150000009230271811728093350_);}
	.st12{clip-path:url(#SVGID_00000068654010377554753230000005251507741392671646_);}
	.st13{clip-path:url(#SVGID_00000122678331239786760380000012650374192960089791_);}
	.st14{clip-path:url(#SVGID_00000101072010325883730660000000333873891812464258_);}
	.st15{clip-path:url(#SVGID_00000091726997929028069640000017596956780138287022_);}
	.st16{clip-path:url(#SVGID_00000038371976910849393110000015233680994608606648_);}
	.st17{clip-path:url(#SVGID_00000149348719499640304690000005621021182978170022_);}
	.st18{clip-path:url(#SVGID_00000145753507632562999350000007385706290162085804_);}
	.st19{clip-path:url(#SVGID_00000008118780034474852280000012282445520780750485_);}
	.st20{clip-path:url(#SVGID_00000170965487656556539930000002525236987740437420_);}
	.st21{clip-path:url(#SVGID_00000015325425971258228910000013452425434645633710_);}
	.st22{clip-path:url(#SVGID_00000163750894886020467540000001134579404882220192_);}
	.st23{clip-path:url(#SVGID_00000053515936058700185320000008571523566121162156_);}
	.st24{clip-path:url(#SVGID_00000146479579308292830820000004948358881768516528_);}
	.st25{clip-path:url(#SVGID_00000149377715090624523680000002069268715957400758_);}
	.st26{clip-path:url(#SVGID_00000163768642870991165280000004551706241587219843_);}
	.st27{clip-path:url(#SVGID_00000088132568556216838730000004461850214210765952_);}
	.st28{clip-path:url(#SVGID_00000004537846398190602920000013778700602114848138_);}
	.st29{clip-path:url(#SVGID_00000021085697238052573140000006658792097161336499_);}
	.st30{clip-path:url(#SVGID_00000013153435639431113490000015609510883155536298_);}
	.st31{fill-rule:evenodd;clip-rule:evenodd;}
	.st32{clip-path:url(#SVGID_00000164511185395533030440000001019232849631729555_);}
	.st33{clip-path:url(#SVGID_00000127024872674240480480000017790852971310356868_);}
	.st34{stroke:#000000;stroke-width:0.5;stroke-miterlimit:10;}
	.st35{clip-path:url(#SVGID_00000017507029135503635330000002502273754593436859_);}
	.st36{clip-path:url(#SVGID_00000162327145988599190150000006429441363270208953_);}
	.st37{clip-path:url(#SVGID_00000176026844418409924550000009690241106487664291_);}
	.st38{fill:#1A1A1A;}
	.st39{clip-path:url(#SVGID_00000051372801435334399590000006687913006805457805_);}
	.st40{clip-path:url(#SVGID_00000039816617539544311630000001774993905717931936_);}
	.st41{clip-path:url(#SVGID_00000177466334851672150610000004218725472619840175_);}
	.st42{clip-path:url(#SVGID_00000080186534495914532280000009670321710441592231_);}
	.st43{clip-path:url(#SVGID_00000160896328226289596060000015019981776789614764_);}
	.st44{clip-path:url(#SVGID_00000165948380843119731930000003743107260513720964_);}
	.st45{clip-path:url(#SVGID_00000172412733107825464720000015469185574947107247_);}
	.st46{clip-path:url(#SVGID_00000018939180035051561060000010234712441491907234_);}
	.st47{clip-path:url(#SVGID_00000090254246202284192420000002487348350540668576_);}
	.st48{fill:#F1F1F1;}
	.st49{fill:#E8E8E8;}
	.st50{fill:#FEFEFE;}
	.st51{fill:#CCCCCC;}
	.st52{fill:#B3B3B3;}
	.st53{fill:#E6E6E6;}
	.st54{fill:#EBEBEB;}
	.st55{fill:#EEEEEE;}
	.st56{fill:#F8F8F8;}
	.st57{fill:#FBFBFB;}
	.st58{fill:#383838;}
	.st59{fill:#232323;}
	.st60{fill:#F6F6F6;}
	.st61{fill:#535353;}
	.st62{fill:#0A0A0A;}
	.st63{fill:#F5F5F5;}
	.st64{fill:#818181;}
	.st65{fill:#4A4A4A;}
	.st66{fill:#999999;}
	.st67{fill:url(#SVGID_00000054249246128268399200000001348632419035458948_);}
	.st68{fill:url(#SVGID_00000068658575254351526140000015472306630054165397_);}
	.st69{fill:#0E0E0D;}
	.st70{fill:#333333;}
	.st71{fill:#808080;}
	.st72{fill:url(#SVGID_00000142175237737326637600000013093690142042144951_);}
	.st73{fill:#666666;}
	.st74{fill:url(#SVGID_00000070096496263198495480000005800567987167549828_);}
	.st75{fill:url(#SVGID_00000038410396281223146700000016783557380358343309_);}
	.st76{fill:url(#SVGID_00000168834816160685611150000006602806412836568196_);}
	.st77{fill:url(#SVGID_00000054979069694755973680000016493036880939418240_);}
	.st78{fill:url(#SVGID_00000097465998596275719610000012396537022021134998_);}
	.st79{clip-path:url(#SVGID_00000093150332773466577350000013613307692047799701_);}
	.st80{clip-path:url(#SVGID_00000025414995166056914670000002376579072667269567_);}
	.st81{clip-path:url(#SVGID_00000159447093791540858250000002324120106454405779_);}
	.st82{clip-path:url(#SVGID_00000127038541289922085900000009492080080560787108_);}
	.st83{clip-path:url(#SVGID_00000017507048960266649970000001157310216010410139_);}
	.st84{fill:#241F20;stroke:#000000;stroke-width:0.5;stroke-miterlimit:10;}
	.st85{clip-path:url(#SVGID_00000105390358272273236160000014424892674409733760_);}
	.st86{clip-path:url(#SVGID_00000070814353015860788130000005923133586975908532_);}
	.st87{clip-path:url(#SVGID_00000090283258277163501840000010490296165447708826_);}
	.st88{clip-path:url(#SVGID_00000031901288076618210570000015087786683325778102_);}
	.st89{clip-path:url(#SVGID_00000116950266661133440050000011806240680847198889_);}
	.st90{clip-path:url(#SVGID_00000113353791254425311040000015849947102532155280_);}
	.st91{clip-path:url(#SVGID_00000095301074772973650880000017186582338733424519_);}
	.st92{clip-path:url(#SVGID_00000160155657017369621600000012497126192126703509_);}
	.st93{clip-path:url(#SVGID_00000164504032389032170210000008549194527903406512_);}
	.st94{clip-path:url(#SVGID_00000025427867928452656760000008048753843611978633_);}
	.st95{clip-path:url(#SVGID_00000152230451661083811970000014729004102756672437_);}
	.st96{clip-path:url(#SVGID_00000137812059674225122450000015530255978081402813_);}
	.st97{clip-path:url(#SVGID_00000072966517607055102550000013237667622637331622_);}
	.st98{clip-path:url(#SVGID_00000138536523753801080360000009954773328824612761_);}
	.st99{clip-path:url(#SVGID_00000041269886585913181700000015924101634258418329_);}
	.st100{clip-path:url(#SVGID_00000052082447220193052540000009563275486208559543_);}
	.st101{clip-path:url(#SVGID_00000080894462972821404170000006564184390480846720_);}
	.st102{clip-path:url(#SVGID_00000057141806082987914290000013859692839970638247_);}
	.st103{clip-path:url(#SVGID_00000114757145047175670410000014221934558602626226_);}
	.st104{clip-path:url(#SVGID_00000108283631492406628550000002998499965250991007_);}
	.st105{clip-path:url(#SVGID_00000140712701463055803260000013821776129588064911_);}
	.st106{clip-path:url(#SVGID_00000168809219211704111040000013476067203598497463_);}
	.st107{clip-path:url(#SVGID_00000124149963872004428750000006399792913770302103_);}
	.st108{clip-path:url(#SVGID_00000005966659082389544360000003423651543811071908_);}
	.st109{clip-path:url(#SVGID_00000026131638635937556680000017060644590663315129_);}
	.st110{clip-path:url(#SVGID_00000174585811564097622240000010026394826347452850_);}
	.st111{clip-path:url(#SVGID_00000048482977524639844150000005252721051858157715_);}
	.st112{clip-path:url(#SVGID_00000136396051889821297060000013920275947698641077_);}
	.st113{clip-path:url(#SVGID_00000075863436882706000770000007861075372645486738_);}
	.st114{clip-path:url(#SVGID_00000100378630035959050810000003331637340858622130_);}
	.st115{fill:#FFFFFF;stroke:#000000;stroke-miterlimit:10;}
	.st116{clip-path:url(#SVGID_00000157272365968175697870000000253709733678542013_);}
	.st117{clip-path:url(#SVGID_00000065758465210977979150000009583823775985056424_);}
	.st118{fill:none;stroke:#010101;stroke-miterlimit:10;}
	.st119{fill:#010101;stroke:#000000;stroke-miterlimit:10;}
	.st120{clip-path:url(#SVGID_00000113314176319002360590000006859860276980295845_);}
	.st121{fill:#010101;stroke:#010101;stroke-miterlimit:10;}
	.st122{clip-path:url(#SVGID_00000044894570921680272770000009404734467396060347_);}
	.st123{clip-path:url(#SVGID_00000065055098344835734870000016332489676775582128_);}
	.st124{clip-path:url(#SVGID_00000134219220747043046480000000290558029830394301_);}
	.st125{clip-path:url(#SVGID_00000011726676241036550240000002138670459112915134_);}
	.st126{clip-path:url(#SVGID_00000182487097600868880960000002957650203514549400_);}
	.st127{fill:none;stroke:#000000;stroke-width:3;stroke-miterlimit:10;}
	.st128{clip-path:url(#SVGID_00000078749105009797016480000013121054410618896303_);}
	.st129{clip-path:url(#SVGID_00000036230376876173240160000001611355265436753812_);}
	.st130{clip-path:url(#SVGID_00000084495959581507989570000004679231206598052255_);}
	.st131{clip-path:url(#SVGID_00000135662861079542166530000003723890511967884463_);}
	.st132{fill:#040606;}
	.st133{clip-path:url(#SVGID_00000047032398020981928210000006327354573017535398_);}
	.st134{clip-path:url(#SVGID_00000016060692338777629990000015438966015670638479_);}
	.st135{clip-path:url(#SVGID_00000016753707323040142710000008086993504953359240_);}
	.st136{clip-path:url(#SVGID_00000023970472258436833080000006554994460892714927_);}
	.st137{clip-path:url(#SVGID_00000175312436935391309330000006305443815736856738_);}
	.st138{clip-path:url(#SVGID_00000166677434821090723920000016983911692898920092_);}
	.st139{clip-path:url(#SVGID_00000090995593723743735340000002267551457235516071_);}
	.st140{fill:#FFFFFF;stroke:#000000;stroke-width:1.5;stroke-miterlimit:10;}
	.st141{clip-path:url(#SVGID_00000065758194013330944560000018024287551271086269_);}
	.st142{fill:#BDBCBC;}
	.st143{clip-path:url(#SVGID_00000075164499572021288300000016892611636810850972_);}
	.st144{fill:#2E2A2B;}
	.st145{clip-path:url(#SVGID_00000114754462536500542880000016895224844227048089_);}
	.st146{clip-path:url(#SVGID_00000003800094636769724800000005959989120118190218_);}
	.st147{clip-path:url(#SVGID_00000071546027950568166980000000775413967384619165_);}
	.st148{clip-path:url(#SVGID_00000005234994083223497810000012183085823986927232_);}
	.st149{clip-path:url(#SVGID_00000044857586510803094760000016992932843148186807_);}
	.st150{fill:#272324;}
	.st151{clip-path:url(#SVGID_00000142880744050888167470000006671999010388135564_);}
	.st152{clip-path:url(#SVGID_00000039110760167602514760000007820809670024289679_);}
	.st153{clip-path:url(#SVGID_00000141433391612831316830000009883260238778892202_);}
	.st154{clip-path:url(#SVGID_00000079443840251657025410000003397235360843248806_);}
	.st155{clip-path:url(#SVGID_00000081627875945745380900000017533535270995302066_);}
	.st156{clip-path:url(#SVGID_00000085234200048625864140000017749408968999857289_);}
	.st157{fill:none;stroke:#000000;stroke-width:0.8735;stroke-linecap:round;stroke-linejoin:round;stroke-miterlimit:10;}
	.st158{clip-path:url(#SVGID_00000160160045405193421370000015872208992762100360_);}
	.st159{clip-path:url(#SVGID_00000091001473088696702640000016927758372634966421_);}
	.st160{clip-path:url(#SVGID_00000132060021339539795170000017744183025414389895_);}
	.st161{clip-path:url(#SVGID_00000151531726802345522650000009921052397079820213_);}
	.st162{clip-path:url(#SVGID_00000162333117947845603100000004972497169123751054_);}
	.st163{clip-path:url(#SVGID_00000036233804128400641860000004566163190118628491_);}
	.st164{clip-path:url(#SVGID_00000127743054534049968490000016987687731849271174_);}
	.st165{clip-path:url(#SVGID_00000092415741733425808180000011207540340541799842_);}
	.st166{clip-path:url(#SVGID_00000077298098193644429250000003985444959669636785_);}
	.st167{clip-path:url(#SVGID_00000013162672352961752360000007364964777537253294_);}
	.st168{clip-path:url(#SVGID_00000015316502935035314770000009067258443984920250_);}
	.st169{clip-path:url(#SVGID_00000023969184594970729830000012333562589611878555_);}
	.st170{clip-path:url(#SVGID_00000079486927840643209650000007806473726397665438_);}
	.st171{clip-path:url(#SVGID_00000130626142540103481280000009133638720442860432_);}
	.st172{clip-path:url(#SVGID_00000128471886931671859950000004710059869957920649_);}
	.st173{clip-path:url(#SVGID_00000070812669661646734320000016052849826561391501_);}
	.st174{clip-path:url(#SVGID_00000144307088178032215570000011040436804556982656_);}
	.st175{clip-path:url(#SVGID_00000115517198403066164980000012871356930625322119_);}
	.st176{clip-path:url(#SVGID_00000161605841358885774320000010250936609447695777_);}
	.st177{clip-path:url(#SVGID_00000034075802648835226690000000404950382733351607_);}
	.st178{clip-path:url(#SVGID_00000168830654910115898640000002689123446659183530_);}
	.st179{clip-path:url(#SVGID_00000090276827171547625360000009746167503834912400_);}
	.st180{clip-path:url(#SVGID_00000083068728726253167390000012159530393400588938_);}
	.st181{clip-path:url(#SVGID_00000085246332728607437950000000778469596255382188_);}
	.st182{clip-path:url(#SVGID_00000161625163777597389400000000168506609855389325_);}
	.st183{clip-path:url(#SVGID_00000145055262450291333520000004973196305274076831_);}
	.st184{clip-path:url(#SVGID_00000120527760913393467120000015565431356929054139_);}
	.st185{clip-path:url(#SVGID_00000072971806545717961200000008575517004497629850_);}
	.st186{clip-path:url(#SVGID_00000107549682623989131710000009686485614555571072_);}
	.st187{clip-path:url(#SVGID_00000076603028574490636060000005193149372368379817_);}
	.st188{clip-path:url(#SVGID_00000134239054156351653750000007761632342269146784_);}
	.st189{clip-path:url(#SVGID_00000174586735661425399090000007496370484218707866_);}
	.st190{clip-path:url(#SVGID_00000182518312417677223940000012875364188387959957_);}
	.st191{clip-path:url(#SVGID_00000002370223395121039080000012859929287732573318_);}
	.st192{clip-path:url(#SVGID_00000011025086959538081250000004857543443612896443_);}
	.st193{clip-path:url(#SVGID_00000000908572972130655830000006064231599764433813_);}
	.st194{clip-path:url(#SVGID_00000089565666104652360570000015690882739936180900_);}
	.st195{clip-path:url(#SVGID_00000178183062130213826590000013985942580489691776_);}
	.st196{fill:#E5E5E5;}
	.st197{fill:#1D1D1B;}
	.st198{fill:none;stroke:#000000;stroke-miterlimit:10;}
	.st199{fill:#FEFEFE;stroke:#000000;stroke-miterlimit:10;}
	.st200{clip-path:url(#SVGID_00000023967166742955458690000017156365739658694808_);}
	.st201{clip-path:url(#SVGID_00000043432674417634751910000000261358516100217227_);}
	.st202{clip-path:url(#SVGID_00000129921742776032164170000011588533764394626195_);}
	.st203{fill:#231F1F;}
	.st204{fill:#020000;}
	.st205{clip-path:url(#SVGID_00000040548270698286150430000014845638539335521408_);}
	.st206{clip-path:url(#SVGID_00000052786153304492291990000006393900470553459358_);}
	.st207{clip-path:url(#SVGID_00000168806310541920541440000000838549890805791889_);}
	.st208{clip-path:url(#SVGID_00000147907050157413599820000002528374900005529016_);}
	.st209{fill:#050000;}
	.st210{clip-path:url(#SVGID_00000068674461139570247280000006358101052121057930_);}
	.st211{clip-path:url(#SVGID_00000047768107380133775760000016123283567612615325_);}
	.st212{clip-path:url(#SVGID_00000036246008675532313330000007906488296024095650_);}
	.st213{clip-path:url(#SVGID_00000159462141368788298900000005987165443183449760_);}
	.st214{clip-path:url(#SVGID_00000036216065778185476190000016482560821949678998_);}
	.st215{clip-path:url(#SVGID_00000178907638253057030460000010228983609619044519_);}
	.st216{fill:#12100F;}
	.st217{clip-path:url(#SVGID_00000120532815116635253510000000006537598531503268_);}
	.st218{clip-path:url(#SVGID_00000124853206888414408630000013851340749548227206_);}
	.st219{fill:none;stroke:#000000;stroke-width:0.5;stroke-miterlimit:10;}
	.st220{clip-path:url(#SVGID_00000173162730737255832950000001066479472362099862_);}
	.st221{clip-path:url(#SVGID_00000086653709536455244960000013283894251834476934_);}
	.st222{clip-path:url(#SVGID_00000055673668387385779010000014288189870920472998_);}
	.st223{clip-path:url(#SVGID_00000003792122644611581770000006143912942471170451_);}
	.st224{fill:none;stroke:#000000;stroke-width:0.25;stroke-miterlimit:10;}
	.st225{clip-path:url(#SVGID_00000031188339341867952560000006778380671286459310_);}
	.st226{clip-path:url(#SVGID_00000155147101715590298790000010871833100042036662_);}
	.st227{clip-path:url(#SVGID_00000039099966416676619450000007897134357387522999_);}
</style>
<g>
	<g>
		<defs>
			<rect id="SVGID_00000050624115858057805380000009928435884172471953_" x="7.53" y="12.99" width="32.89" height="30.69"/>
		</defs>
		<clipPath id="SVGID_00000013912090691530856420000018235649094661402814_">
			<use xlink:href="#SVGID_00000050624115858057805380000009928435884172471953_"  style="overflow:visible;"/>
		</clipPath>
		<g style="clip-path:url(#SVGID_00000013912090691530856420000018235649094661402814_);">
			<path d="M18.77,13.61c-0.04,0-0.09,0.01-0.13,0.02c-0.28,0.05-0.69,0.19-0.79,0.49c-0.12,0.35,0.3,0.56,0.57,0.6
				c0.25,0.04,0.5,0.04,0.74,0c0.21-0.03,0.49-0.08,0.66-0.23c0.16-0.16,0.14-0.45-0.02-0.61c-0.06-0.06-0.13-0.1-0.2-0.14
				C19.36,13.63,19.06,13.58,18.77,13.61z M21.65,13.38c-0.54,0-1.08-0.04-1.61,0.11c-0.04,0.01-0.08,0.03-0.1,0.07
				c-0.05,0.08,0.21,0.24,0.26,0.3c0.1,0.12,0.14,0.25,0.12,0.4c-0.01,0.07,0.05,0.09,0.11,0.09c0.52,0,1.03-0.02,1.55,0.02
				c0.14,0.01,0.28,0.01,0.41,0.03c0.45,0.05,0.9,0.1,1.35,0.16c0.4,0.05,0.8,0.1,1.19,0.17c0.45,0.09,0.91,0.2,1.36,0.3
				c0.05,0.01,0.1,0.03,0.15,0.04c0.02,0,0.04,0,0.06-0.01c-0.01-0.02-0.01-0.04-0.02-0.05c-0.08-0.05-0.16-0.11-0.24-0.15
				c-0.5-0.3-1.04-0.53-1.57-0.77C24.53,14.03,22.74,13.39,21.65,13.38z M17.63,14.65c0.01-0.03-0.01-0.06-0.01-0.1
				c-0.02-0.12-0.05-0.25-0.05-0.37c-0.01-0.09-0.05-0.12-0.12-0.11c-0.19,0.02-0.38,0.04-0.57,0.07c-0.53,0.09-1.07,0.17-1.58,0.36
				c-1.19,0.42-2.32,0.98-3.35,1.73c-0.51,0.38-3.51,2.53-3.92,7.4c0,0.03-0.02,0.08,0.01,0.08c0.01,0,0.03-0.04,0.03-0.05
				c0.02-0.04,0.03-0.08,0.05-0.12c0.32-0.84,0.64-1.68,1.02-2.5c0.53-1.11,1.24-2.07,2.15-2.88c0.89-0.79,1.87-1.42,2.91-1.98
				c0.52-0.28,1.07-0.52,1.6-0.77c0.54-0.26,1.08-0.53,1.67-0.69C17.53,14.71,17.61,14.69,17.63,14.65
				C17.63,14.66,17.63,14.65,17.63,14.65z M21.29,14.65c-0.17,0-0.36,0-0.53,0c-0.02,0-0.04,0.01-0.05,0.02
				c0.01,0.02,0.01,0.04,0.03,0.05c0.11,0.07,0.22,0.13,0.33,0.19c0.18,0.11,0.38,0.2,0.55,0.32c0.98,0.65,1.88,1.38,2.7,2.21
				c0.4,0.4,0.75,0.83,1.11,1.27c0.94,1.16,1.57,2.27,2.18,3.63c0.51,1.13,1.03,2.46,1.35,3.66c0.31,1.19,0.6,2.38,0.88,3.58
				c0.13,0.55,0.29,1.11,0.34,1.68c0.01,0.05,0.03,0.1,0.05,0.15c0.02,0.05,0.05,0.07,0.1,0.05c0.04-0.02,0.08-0.04,0.11-0.06
				c0.43-0.29,0.86-0.58,1.28-0.88c0.36-0.25,0.66-0.56,0.96-0.88c0.07-0.07,0.12-0.14,0.1-0.25c-0.09-0.55-0.17-1.11-0.26-1.66
				c-0.07-0.45-0.15-0.9-0.23-1.35s-0.13-0.9-0.23-1.34c-0.22-1-0.46-2-0.7-3c-0.16-0.69-0.35-1.38-0.6-2.04
				c-0.29-0.78-0.65-1.52-1.18-2.17c-0.25-0.31-1.97-2.42-5.02-2.86c-0.61-0.09-1.22-0.16-1.83-0.22
				C22.27,14.68,21.79,14.67,21.29,14.65z M17.06,33.92c0.02-0.02,0.03-0.05,0.03-0.08c0.04-0.21-0.06-0.5-0.11-0.71
				c-0.05-0.22-0.11-0.45-0.15-0.66c-0.21-0.98-0.39-1.96-0.52-2.95c-0.13-0.97-0.27-1.94-0.36-2.92c-0.36-3.72,0.16-6.64,0.41-7.5
				c0.29-0.99,0.59-1.98,1.08-2.9c0.2-0.38,0.43-0.75,0.65-1.13c0.06-0.09,0.03-0.16-0.08-0.16c-0.08,0-0.17,0.02-0.25,0.04
				c-0.75,0.25-1.49,0.54-2.21,0.88c-0.65,0.3-1.27,0.63-1.87,1.01C13.45,17,13.22,17.13,13,17.28c-0.81,0.55-1.59,1.13-2.22,1.89
				c-0.57,0.69-1.09,1.4-1.49,2.21c-0.56,1.13-1.04,2.3-1.34,3.53c-0.02,0.08-0.04,0.17-0.04,0.25c-0.01,0.88-0.05,1.76,0.04,2.64
				c0.07,0.75,0.21,1.49,0.4,2.21c0.17,0.66,0.44,1.28,0.89,1.81c0.24,0.29,0.52,0.54,0.86,0.7c0.28,0.14,0.57,0.27,0.87,0.38
				c0.84,0.31,1.7,0.51,2.58,0.69c0.37,0.08,0.75,0.14,1.12,0.19c0.45,0.06,0.91,0.11,1.35,0.16
				C16.22,33.95,16.89,34.13,17.06,33.92z M32.02,41.67c0.2-0.09,0.4-0.17,0.6-0.26c0.41-0.18,0.8-0.4,1.18-0.63
				c0.47-0.28,0.94-0.57,1.41-0.87c0.66-0.42,1.26-0.93,1.85-1.45c0.42-0.37,0.82-0.73,1.24-1.1c0.26-0.23,0.51-0.47,0.77-0.71
				c0.76-0.69,0.93-1.3-0.39-2.68c-1.81-1.89-4.24-4.23-4.4-4.39c-0.29-0.3-0.58-0.59-0.87-0.88c-0.1-0.11-0.19-0.22-0.3-0.33
				c-0.01-0.01-0.04-0.03-0.05-0.02c-0.01,0-0.02,0.04-0.02,0.05c0.03,0.23,0.05,0.46,0.1,0.69c0.07,0.33,0,0.61-0.25,0.84
				c-0.05,0.05-2.56,2.54-5.41,3.39c-0.31,0.09-4.44,1.66-9.69,1.23c-0.66-0.05-1.28-0.19-1.94-0.21c0.41,0.57,0.85,1.12,1.31,1.65
				c1.61,1.83,3.56,3.49,5.55,4.89c0.57,0.4,1.15,0.79,1.79,1.07c0.65,0.3,1.36,0.45,2.08,0.52c0.71,0.07,1.49,0.14,2.19,0.03
				c0.39-0.06,0.77-0.12,1.16-0.18C30.62,42.19,31.34,41.94,32.02,41.67z M20.17,34.23c4.97-0.13,8.9-1.94,9.69-2.48
				c0.06-0.04,0.09-0.09,0.08-0.16c-0.06-0.37-1.04-5.57-2.42-8.66c-1.98-4.41-4.21-6.15-4.56-6.43c-0.33-0.27-0.68-0.51-1.02-0.76
				c-0.54-0.38-1.11-0.71-1.72-0.95c-0.19-0.08-0.39,0.05-0.56,0.11c-0.22,0.08-0.45,0.12-0.69,0.12c-0.14,0-0.29-0.03-0.43,0.02
				c-0.13,0.04-0.22,0.14-0.29,0.24c-0.14,0.22-1.77,2.92-2.03,6.91C15.91,27.1,17.34,33.57,17.58,34c0.05,0.1,0.11,0.14,0.22,0.15
				C18.21,34.18,19.82,34.24,20.17,34.23z M7.57,26.13c0-0.43,0.26-3.37,0.34-3.85c0.12-0.68,0.36-1.33,0.61-1.97
				c0.36-0.92,0.83-1.78,1.46-2.56c1.26-1.58,3.43-3.28,6.93-3.9c0.25-0.04,0.51-0.03,0.76-0.06c0.07-0.01,0.14-0.04,0.2-0.08
				c0.34-0.27,0.73-0.38,1.16-0.37c0.21,0.01,0.42-0.02,0.63-0.06c0.31-0.06,0.63-0.11,0.94-0.13c2.1-0.14,3.5,0.43,3.96,0.61
				c0.74,0.28,1.41,0.62,2.07,1.03c0.69,0.42,1.31,0.93,1.92,1.46c0.48,0.43,1.8,1.3,2.7,4.1c0.42,1.3,1.43,5.74,1.54,6.64
				c0,0.04,0.02,0.08,0.02,0.13c0.01,0.34,0.17,0.58,0.4,0.83c0.47,0.53,5.5,5.49,5.95,5.93c1.26,1.29,0.99,2.22,0.8,2.49
				c-0.2,0.25-0.38,0.52-0.62,0.74c-0.5,0.47-1.01,0.93-1.52,1.4c-0.86,0.78-1.81,1.44-2.8,2.03c-0.59,0.35-1.18,0.72-1.78,1.06
				c-0.52,0.3-1.06,0.58-1.6,0.84c-0.64,0.31-4.5,1.51-7.01,0.21c-0.93-0.38-1.77-0.9-2.56-1.53c-0.82-0.65-4.89-3.9-6.78-6.73
				c-0.02-0.03-0.03-0.05-0.05-0.08c-0.05-0.1-0.12-0.14-0.23-0.14c-0.98-0.07-1.92-0.31-2.87-0.52c-0.09-0.02-0.18-0.05-0.27-0.08
				c-0.53-0.19-1.06-0.37-1.58-0.57c-0.6-0.23-1.07-0.62-1.44-1.15c-0.6-0.86-0.93-1.82-1.1-2.85C7.59,28.05,7.53,27.09,7.57,26.13"
				/>
		</g>
	</g>
	<path d="M21.3,21.54c0.14-0.01,0.29-0.08,0.37-0.19c0.09-0.13,0.08-0.29,0.01-0.42c-0.06-0.1-0.14-0.18-0.25-0.23
		c-0.21-0.1-0.49-0.03-0.6,0.18c-0.07,0.15-0.05,0.34,0.06,0.46c0.05,0.06,0.12,0.12,0.18,0.15C21.14,21.53,21.22,21.55,21.3,21.54z
		 M21.35,20.43c0.22,0.01,0.42,0.15,0.52,0.35c0.06,0.12,0.09,0.26,0.09,0.39c0,0.09-0.02,0.17-0.06,0.25
		c-0.04,0.08-0.09,0.14-0.15,0.21c-0.19,0.2-0.51,0.26-0.76,0.14c-0.28-0.13-0.47-0.43-0.45-0.71c0.03-0.35,0.33-0.59,0.66-0.63
		C21.26,20.42,21.31,20.42,21.35,20.43"/>
	<path d="M13.2,20.69c-0.03-0.02-0.07-0.03-0.1-0.04c-0.29-0.08-0.63,0.14-0.62,0.45c0,0.27,0.24,0.46,0.5,0.47
		c0.22,0.01,0.45-0.17,0.48-0.4C13.48,20.99,13.36,20.79,13.2,20.69z M13.7,21.07c0,0.42-0.33,0.76-0.73,0.76
		c-0.39-0.01-0.71-0.34-0.71-0.74c0.01-0.37,0.32-0.66,0.71-0.66C13.36,20.42,13.74,20.66,13.7,21.07"/>
	<path d="M28.44,17.85c-0.07-0.04-0.16-0.06-0.23-0.06c-0.19-0.01-0.4,0.06-0.51,0.21c-0.15,0.22-0.03,0.56,0.2,0.67
		c0.18,0.09,0.41,0.1,0.57-0.03c0.14-0.12,0.21-0.31,0.17-0.49c-0.02-0.11-0.08-0.2-0.16-0.27C28.47,17.87,28.46,17.86,28.44,17.85z
		 M28.17,17.6c0.11,0,0.21,0.02,0.32,0.05c0.07,0.02,0.14,0.06,0.19,0.11c0.16,0.13,0.23,0.33,0.23,0.53
		c-0.02,0.37-0.27,0.66-0.63,0.73c-0.37,0.08-0.68-0.19-0.8-0.45c-0.1-0.2-0.07-0.44,0.05-0.63c0.07-0.11,0.17-0.2,0.29-0.25
		C27.92,17.62,28.04,17.6,28.17,17.6"/>
	<path d="M21.4,21.1c0.01-0.07-0.04-0.14-0.14-0.14c-0.19,0-0.21,0.3,0.01,0.27C21.36,21.21,21.4,21.16,21.4,21.1z M21.28,20.75
		c0.04,0,0.08,0.01,0.12,0.03c0.12,0.07,0.21,0.22,0.18,0.36c-0.04,0.16-0.18,0.27-0.35,0.26c-0.16-0.02-0.32-0.15-0.32-0.32
		C20.91,20.89,21.09,20.74,21.28,20.75"/>
	<path d="M13.08,21.11c0.01-0.04-0.01-0.08-0.04-0.12c-0.22-0.18-0.33,0.32-0.05,0.22C13.04,21.2,13.07,21.15,13.08,21.11z
		 M13.12,20.82c0.11,0.06,0.15,0.19,0.15,0.32c-0.01,0.2-0.21,0.32-0.4,0.27c-0.11-0.03-0.21-0.13-0.25-0.23
		c-0.05-0.15,0.01-0.32,0.18-0.38C12.91,20.76,13.03,20.77,13.12,20.82"/>
	<path d="M28.29,18.34c0.11-0.13-0.16-0.33-0.27-0.16c-0.1,0.14,0.07,0.28,0.21,0.21C28.26,18.37,28.28,18.35,28.29,18.34z
		 M28.34,18c0.12,0.09,0.17,0.26,0.1,0.42c-0.07,0.14-0.19,0.19-0.35,0.18c-0.08-0.01-0.15-0.03-0.21-0.09
		c-0.08-0.07-0.12-0.17-0.11-0.28c0.02-0.17,0.16-0.29,0.33-0.3C28.2,17.93,28.28,17.95,28.34,18"/>
</g>
</svg>
