<?xml version="1.0" encoding="utf-8"?>
<!-- Generator: Adobe Illustrator 27.3.1, SVG Export Plug-In . SVG Version: 6.00 Build 0)  -->
<svg version="1.1" id="Layer_1" xmlns="http://www.w3.org/2000/svg" xmlns:xlink="http://www.w3.org/1999/xlink" x="0px" y="0px"
	 viewBox="0 0 50 50" style="enable-background:new 0 0 50 50;" xml:space="preserve">
<style type="text/css">
	.st0{fill:none;}
	.st1{stroke:#000000;stroke-miterlimit:10;}
	.st2{stroke:#000000;stroke-width:0.75;stroke-miterlimit:10;}
	.st3{clip-path:url(#SVGID_00000053524167733314040530000006006162021023118214_);}
	.st4{clip-path:url(#SVGID_00000005250045993581225720000007259817662313844120_);}
	.st5{fill:#FFFFFF;}
	.st6{clip-path:url(#SVGID_00000105386159567294002180000010785652715578650550_);}
	.st7{fill:#231F20;}
	.st8{clip-path:url(#SVGID_00000113322070303027272220000012211272129314375067_);}
	.st9{clip-path:url(#SVGID_00000154414569541418667950000014043080893099528101_);}
	.st10{clip-path:url(#SVGID_00000068649325226933668110000000825184401830922684_);}
	.st11{clip-path:url(#SVGID_00000025428475201442545260000003173253217916421011_);}
	.st12{clip-path:url(#SVGID_00000134233272343854934570000011214882388786230675_);}
	.st13{clip-path:url(#SVGID_00000031180856131164149730000017017992906690085282_);}
	.st14{clip-path:url(#SVGID_00000061456840658774599390000017165701895166802325_);}
	.st15{clip-path:url(#SVGID_00000137129969143638525500000011621801061697131687_);}
	.st16{clip-path:url(#SVGID_00000145020980457499005720000011381268776705210516_);}
	.st17{clip-path:url(#SVGID_00000164503736503127144490000006090755981757095848_);}
	.st18{clip-path:url(#SVGID_00000121256792101094822490000011868405425565267629_);}
	.st19{clip-path:url(#SVGID_00000170983039180622860700000015043319964545515454_);}
	.st20{clip-path:url(#SVGID_00000173849519377895893730000009511726357421646479_);}
	.st21{clip-path:url(#SVGID_00000047746492557283418340000006953143619170217395_);}
	.st22{clip-path:url(#SVGID_00000061460197649407725340000005528641247481807800_);}
	.st23{clip-path:url(#SVGID_00000075155374936818582960000010613926610386146696_);}
	.st24{clip-path:url(#SVGID_00000046324589125076891020000013198804504452666515_);}
	.st25{clip-path:url(#SVGID_00000161611726059720964640000003708103766404807329_);}
	.st26{clip-path:url(#SVGID_00000159450326581294083950000000630585699421100942_);}
	.st27{clip-path:url(#SVGID_00000065073082103889292490000000459261278840547254_);}
	.st28{clip-path:url(#SVGID_00000152254606827537308000000002426476511988776116_);}
	.st29{clip-path:url(#SVGID_00000144308444243955487900000000513235324051316379_);}
	.st30{clip-path:url(#SVGID_00000013163783227342100290000014315252788290290097_);}
	.st31{fill-rule:evenodd;clip-rule:evenodd;}
	.st32{clip-path:url(#SVGID_00000023962646676920792230000013546948331686317736_);}
	.st33{clip-path:url(#SVGID_00000116938436721045724370000011434749858750880191_);}
	.st34{stroke:#000000;stroke-width:0.5;stroke-miterlimit:10;}
	.st35{clip-path:url(#SVGID_00000144334679521409379930000012308031871543633573_);}
	.st36{clip-path:url(#SVGID_00000030480334342625555920000005769915578502625706_);}
	.st37{clip-path:url(#SVGID_00000152976214986642999840000004838564091661423539_);}
	.st38{fill:#1A1A1A;}
	.st39{clip-path:url(#SVGID_00000166663142398829106290000009012898267318628513_);}
	.st40{clip-path:url(#SVGID_00000043414797164813616750000003751473422820111258_);}
	.st41{clip-path:url(#SVGID_00000149383055730608154040000017378643492816904622_);}
	.st42{clip-path:url(#SVGID_00000173136502604281180340000002923840413922922175_);}
	.st43{clip-path:url(#SVGID_00000032618470443395607970000010387976006015364755_);}
	.st44{clip-path:url(#SVGID_00000127026573917725358040000011569591572257220494_);}
	.st45{clip-path:url(#SVGID_00000153705506910733269140000017279334712758868410_);}
	.st46{clip-path:url(#SVGID_00000148661413124651481400000003979800608374539197_);}
	.st47{clip-path:url(#SVGID_00000166647358196900474590000017732969526286495928_);}
	.st48{fill:#F1F1F1;}
	.st49{fill:#E8E8E8;}
	.st50{fill:#FEFEFE;}
	.st51{fill:#CCCCCC;}
	.st52{fill:#B3B3B3;}
	.st53{fill:#E6E6E6;}
	.st54{fill:#EBEBEB;}
	.st55{fill:#EEEEEE;}
	.st56{fill:#F8F8F8;}
	.st57{fill:#FBFBFB;}
	.st58{fill:#383838;}
	.st59{fill:#232323;}
	.st60{fill:#F6F6F6;}
	.st61{fill:#535353;}
	.st62{fill:#0A0A0A;}
	.st63{fill:#F5F5F5;}
	.st64{fill:#818181;}
	.st65{fill:#4A4A4A;}
	.st66{fill:#999999;}
	.st67{fill:url(#SVGID_00000152973782773038772240000004039570412762478217_);}
	.st68{fill:url(#SVGID_00000137128973942821056340000014730112534950543775_);}
	.st69{fill:#0E0E0D;}
	.st70{fill:#333333;}
	.st71{fill:#808080;}
	.st72{fill:url(#SVGID_00000003097962037624137890000007544236260560138402_);}
	.st73{fill:#666666;}
	.st74{fill:url(#SVGID_00000134938204393038922020000007099472507104051627_);}
	.st75{fill:url(#SVGID_00000181796298857920087070000016911802806624256668_);}
	.st76{fill:url(#SVGID_00000156579614974144919570000013909294182352987553_);}
	.st77{fill:url(#SVGID_00000060722815566745095830000012978555093121363375_);}
	.st78{fill:url(#SVGID_00000153696858024267899320000003803766552730314904_);}
	.st79{clip-path:url(#SVGID_00000132065371904755769910000011592980342913231783_);}
	.st80{clip-path:url(#SVGID_00000041253459212147467710000017898714159553661338_);}
	.st81{clip-path:url(#SVGID_00000127036026267919564460000011803377752492783800_);}
	.st82{clip-path:url(#SVGID_00000172411012929352607160000011169753195201941173_);}
	.st83{clip-path:url(#SVGID_00000061468119521276129380000007426465296039440309_);}
	.st84{fill:#241F20;stroke:#000000;stroke-width:0.5;stroke-miterlimit:10;}
	.st85{clip-path:url(#SVGID_00000117653978788260251280000017758178286218473393_);}
	.st86{clip-path:url(#SVGID_00000019663998960486561760000003960798750157851295_);}
	.st87{clip-path:url(#SVGID_00000156561103617124053690000003035485171437249975_);}
	.st88{clip-path:url(#SVGID_00000182523112309898549220000010297235622517451953_);}
	.st89{clip-path:url(#SVGID_00000085960309599061079150000000685909878479628960_);}
	.st90{clip-path:url(#SVGID_00000060021174008114703850000015337598774752059560_);}
	.st91{clip-path:url(#SVGID_00000127021273062737429500000008622881354400402575_);}
	.st92{clip-path:url(#SVGID_00000015354856993001119710000017670940033619981745_);}
	.st93{clip-path:url(#SVGID_00000019668560942603405510000017258834910208501162_);}
	.st94{clip-path:url(#SVGID_00000034810289504509830690000012377329106564238212_);}
	.st95{clip-path:url(#SVGID_00000065067341988197581960000007971586906165800122_);}
	.st96{clip-path:url(#SVGID_00000003068415111995746520000005930405851252935085_);}
	.st97{clip-path:url(#SVGID_00000149383155769815753730000012846851458496283832_);}
	.st98{clip-path:url(#SVGID_00000068665000126784486610000001957338918474230958_);}
	.st99{clip-path:url(#SVGID_00000177470865252513156100000013553476413117392827_);}
	.st100{clip-path:url(#SVGID_00000026871376678277857780000012591703407992457110_);}
	.st101{clip-path:url(#SVGID_00000092456988939584400710000013388532038408391080_);}
	.st102{clip-path:url(#SVGID_00000001626617664529997540000015772735672447662500_);}
	.st103{clip-path:url(#SVGID_00000144332788542128928320000011248275494557133455_);}
	.st104{clip-path:url(#SVGID_00000080913635888036730710000017663721778784057010_);}
	.st105{clip-path:url(#SVGID_00000168098710964750653650000010469248424940057271_);}
	.st106{clip-path:url(#SVGID_00000144336015455185555110000013186364021768715706_);}
	.st107{clip-path:url(#SVGID_00000040577138651462547780000006315472994632479136_);}
	.st108{clip-path:url(#SVGID_00000164489915175653627090000007214123655615803809_);}
	.st109{clip-path:url(#SVGID_00000011718690993201320410000008430427311161420962_);}
	.st110{clip-path:url(#SVGID_00000115502404211869049190000003298053803910100353_);}
	.st111{clip-path:url(#SVGID_00000000932426068083891030000006133224910919153033_);}
	.st112{clip-path:url(#SVGID_00000049208348443894668180000015534775693292235933_);}
	.st113{clip-path:url(#SVGID_00000109726530372943439810000016404975688459237264_);}
	.st114{clip-path:url(#SVGID_00000002375751462763448140000011560000688741234351_);}
	.st115{fill:#FFFFFF;stroke:#000000;stroke-miterlimit:10;}
	.st116{clip-path:url(#SVGID_00000024697660323373352870000002026035112167177099_);}
	.st117{clip-path:url(#SVGID_00000049179798378077677730000005526599261605919617_);}
	.st118{fill:none;stroke:#010101;stroke-miterlimit:10;}
	.st119{fill:#010101;stroke:#000000;stroke-miterlimit:10;}
	.st120{clip-path:url(#SVGID_00000036931487039454401370000009222351520536583825_);}
	.st121{fill:#010101;stroke:#010101;stroke-miterlimit:10;}
	.st122{clip-path:url(#SVGID_00000061432960696323941070000008802769634575760316_);}
	.st123{clip-path:url(#SVGID_00000084527177153894194490000004126726101644516534_);}
	.st124{clip-path:url(#SVGID_00000027605619129865163990000014724184302735731391_);}
	.st125{clip-path:url(#SVGID_00000122701357709655718980000007682185293477738370_);}
	.st126{clip-path:url(#SVGID_00000069379254723834344750000011848968963576445834_);}
	.st127{fill:none;stroke:#000000;stroke-width:3;stroke-miterlimit:10;}
	.st128{clip-path:url(#SVGID_00000064339450457354356230000001491599263516488073_);}
	.st129{clip-path:url(#SVGID_00000108281103938055549700000004852265129613938865_);}
	.st130{clip-path:url(#SVGID_00000045576790339901708340000011198760087233666963_);}
	.st131{clip-path:url(#SVGID_00000162345160693177141720000005735974941910249909_);}
	.st132{fill:#040606;}
	.st133{clip-path:url(#SVGID_00000153689449375922903090000014766280568046344843_);}
	.st134{clip-path:url(#SVGID_00000108992370252450010120000007160058145152852639_);}
	.st135{clip-path:url(#SVGID_00000183249327621413725540000015633780365607181202_);}
	.st136{clip-path:url(#SVGID_00000005974556792102343210000014599167862226869691_);}
	.st137{clip-path:url(#SVGID_00000026870824618996896210000009663001808642288792_);}
	.st138{clip-path:url(#SVGID_00000101073126898545723130000001840685914382845877_);}
	.st139{clip-path:url(#SVGID_00000125600749906350349340000011135487519951178664_);}
	.st140{fill:#FFFFFF;stroke:#000000;stroke-width:1.5;stroke-miterlimit:10;}
	.st141{clip-path:url(#SVGID_00000072988362495005252230000004831286774732527519_);}
	.st142{fill:#BDBCBC;}
	.st143{clip-path:url(#SVGID_00000006699020250486291050000011338732380360008853_);}
	.st144{fill:#2E2A2B;}
	.st145{clip-path:url(#SVGID_00000120542139308553856470000007270703614605727633_);}
	.st146{clip-path:url(#SVGID_00000061464641741644509560000001163116032751145906_);}
	.st147{clip-path:url(#SVGID_00000183941123764510674430000005233784990857004976_);}
	.st148{clip-path:url(#SVGID_00000083773393867731950710000002969607128323396025_);}
	.st149{clip-path:url(#SVGID_00000013177919378580170560000015819716194916858286_);}
	.st150{fill:#272324;}
	.st151{clip-path:url(#SVGID_00000172440148290362574940000014498953079148889769_);}
	.st152{clip-path:url(#SVGID_00000023263328857115969720000013661599653207816894_);}
	.st153{clip-path:url(#SVGID_00000007395564833682673860000008109133939937552797_);}
	.st154{clip-path:url(#SVGID_00000016052470232477639090000002708708243904301208_);}
	.st155{clip-path:url(#SVGID_00000181079105573475979640000012420290221609172895_);}
	.st156{clip-path:url(#SVGID_00000127727107263285981450000001942697284693068187_);}
	.st157{fill:none;stroke:#000000;stroke-width:0.8735;stroke-linecap:round;stroke-linejoin:round;stroke-miterlimit:10;}
	.st158{clip-path:url(#SVGID_00000130609428523697873260000016990453799882493070_);}
	.st159{clip-path:url(#SVGID_00000020377189943817286070000005331814754733266103_);}
	.st160{clip-path:url(#SVGID_00000031190394012418136420000004269219282057700485_);}
	.st161{clip-path:url(#SVGID_00000051358427259994950490000008085341081227738549_);}
	.st162{clip-path:url(#SVGID_00000146490479360516577280000001058880451646354108_);}
	.st163{clip-path:url(#SVGID_00000160149105031126515660000011000267110584469161_);}
	.st164{clip-path:url(#SVGID_00000078009854686714049630000005110667785727035277_);}
	.st165{clip-path:url(#SVGID_00000049214794422419079710000003749553951850019474_);}
	.st166{clip-path:url(#SVGID_00000004540413066109898210000002590439043612627903_);}
	.st167{clip-path:url(#SVGID_00000125574222458731925790000002049731177956640656_);}
	.st168{clip-path:url(#SVGID_00000066506788102624887340000003801453495262197410_);}
	.st169{clip-path:url(#SVGID_00000021119433754565077400000000753298484907713967_);}
	.st170{clip-path:url(#SVGID_00000026122746597916274910000017283830079467507843_);}
	.st171{clip-path:url(#SVGID_00000038395546189722242340000017162680490239434883_);}
	.st172{clip-path:url(#SVGID_00000145054042291443061570000012665586302775138950_);}
	.st173{clip-path:url(#SVGID_00000162311746794835001750000004782407975268306312_);}
	.st174{clip-path:url(#SVGID_00000083807951130022976510000012534467884226466183_);}
	.st175{clip-path:url(#SVGID_00000181054206470347298130000011625374991722050701_);}
	.st176{clip-path:url(#SVGID_00000067947988990013142190000005307758461572878728_);}
	.st177{clip-path:url(#SVGID_00000064349045243149135350000002356425263516476347_);}
	.st178{clip-path:url(#SVGID_00000041976335932655286820000006463914141777299374_);}
	.st179{clip-path:url(#SVGID_00000096763124209168847880000004216947909962329275_);}
	.st180{clip-path:url(#SVGID_00000006681617603527065650000010203857682156322489_);}
	.st181{clip-path:url(#SVGID_00000122712066706590993160000001900467831401545093_);}
	.st182{clip-path:url(#SVGID_00000062183679245832639600000017944491869658714512_);}
	.st183{clip-path:url(#SVGID_00000010293158354293879550000016148075315402311590_);}
	.st184{clip-path:url(#SVGID_00000047764152691496525830000007041817030330319245_);}
	.st185{clip-path:url(#SVGID_00000150101219227194335290000013799490772177817990_);}
	.st186{clip-path:url(#SVGID_00000122719886820345406590000005953302071856562846_);}
	.st187{clip-path:url(#SVGID_00000158029911709328854420000007238300984206617257_);}
	.st188{clip-path:url(#SVGID_00000031925929117691060920000018081865938652109997_);}
	.st189{clip-path:url(#SVGID_00000116943749622792038130000003288249228246894731_);}
	.st190{clip-path:url(#SVGID_00000004518696044705005230000006042301087490787980_);}
	.st191{clip-path:url(#SVGID_00000158708267196881472270000016965021045527943353_);}
	.st192{clip-path:url(#SVGID_00000137813889609793681830000008222752089786596263_);}
	.st193{clip-path:url(#SVGID_00000068638687250227386540000002706172631446796989_);}
	.st194{clip-path:url(#SVGID_00000103255643661226239780000017398325586468388774_);}
	.st195{clip-path:url(#SVGID_00000013877378995291661670000002427280242634077591_);}
	.st196{fill:#E5E5E5;}
	.st197{fill:#1D1D1B;}
	.st198{fill:none;stroke:#000000;stroke-miterlimit:10;}
	.st199{fill:#FEFEFE;stroke:#000000;stroke-miterlimit:10;}
	.st200{clip-path:url(#SVGID_00000104675272045781406070000005811376133574626701_);}
	.st201{clip-path:url(#SVGID_00000083089326266164643750000000076871029348613505_);}
	.st202{clip-path:url(#SVGID_00000139283951754405825970000015783344790956012222_);}
	.st203{fill:#231F1F;}
	.st204{fill:#020000;}
	.st205{clip-path:url(#SVGID_00000089559515841006176330000011316588865401265795_);}
	.st206{clip-path:url(#SVGID_00000000909365249132029510000002043270235153698203_);}
	.st207{clip-path:url(#SVGID_00000028311211947621284000000004775182489222871455_);}
	.st208{clip-path:url(#SVGID_00000155847910913867390050000011673633275761327763_);}
	.st209{fill:#050000;}
	.st210{clip-path:url(#SVGID_00000071523882663942879250000017549803500978864536_);}
	.st211{clip-path:url(#SVGID_00000010304842482444116730000003152980190990938276_);}
	.st212{clip-path:url(#SVGID_00000106833063366601477490000014393821961379648415_);}
	.st213{clip-path:url(#SVGID_00000092442003759966835870000013391813866419858320_);}
	.st214{clip-path:url(#SVGID_00000125574579784978086360000011801961661507780794_);}
	.st215{clip-path:url(#SVGID_00000040574538722363898540000007145269872532401573_);}
	.st216{fill:#12100F;}
	.st217{clip-path:url(#SVGID_00000097490399944660477220000004522070863618382217_);}
	.st218{clip-path:url(#SVGID_00000067229098394686234870000002664481205389752249_);}
	.st219{fill:none;stroke:#000000;stroke-width:0.5;stroke-miterlimit:10;}
	.st220{clip-path:url(#SVGID_00000128457358521147259280000002154224104928681374_);}
	.st221{clip-path:url(#SVGID_00000076598422814094037410000009308999667663529118_);}
	.st222{clip-path:url(#SVGID_00000176764359373296640130000016110400856550791840_);}
	.st223{clip-path:url(#SVGID_00000018223336543045278680000002828367646800086147_);}
	.st224{fill:none;stroke:#000000;stroke-width:0.25;stroke-miterlimit:10;}
	.st225{clip-path:url(#SVGID_00000134207436766131519880000010526835638843047061_);}
	.st226{clip-path:url(#SVGID_00000083770679991397702720000009276255864795072682_);}
	.st227{clip-path:url(#SVGID_00000134966359361540875930000004865714319604004002_);}
</style>
<g>
	<g>
		<g>
			<defs>
				<rect id="SVGID_00000062885447678346149950000016333597423709010341_" x="13.5" y="33.67" width="5.44" height="5.45"/>
			</defs>
			<clipPath id="SVGID_00000113314296329402267770000008458128025621470628_">
				<use xlink:href="#SVGID_00000062885447678346149950000016333597423709010341_"  style="overflow:visible;"/>
			</clipPath>
			<g style="clip-path:url(#SVGID_00000113314296329402267770000008458128025621470628_);">
				<path class="st31" d="M16.2,34.42c-1.1,0-1.99,0.9-1.99,2s0.9,2,1.99,2s1.99-0.9,1.99-2S17.29,34.42,16.2,34.42z M16.2,39.11
					c-1.49,0-2.69-1.21-2.69-2.7s1.21-2.7,2.69-2.7s2.69,1.21,2.69,2.7C18.89,37.89,17.68,39.11,16.2,39.11z"/>
			</g>
		</g>
	</g>
	<g>
		<g>
			<defs>
				<rect id="SVGID_00000170980173814427435400000009465599446040163214_" x="15.77" y="14.9" width="27.21" height="24.22"/>
			</defs>
			<clipPath id="SVGID_00000043441844422672456210000004600472517123645107_">
				<use xlink:href="#SVGID_00000170980173814427435400000009465599446040163214_"  style="overflow:visible;"/>
			</clipPath>
			<g style="clip-path:url(#SVGID_00000043441844422672456210000004600472517123645107_);">
				<path class="st31" d="M41.9,39.12H16.2c-0.19,0-0.35-0.16-0.35-0.36c0-0.19,0.16-0.35,0.35-0.35h25.7
					c0.15,0,0.27-0.11,0.27-0.27V15.94c0-0.15-0.11-0.27-0.27-0.27H18.53c-0.19,0-0.35-0.16-0.35-0.36s0.16-0.36,0.35-0.36h23.36
					c0.54,0,0.98,0.44,0.98,0.98v22.2C42.88,38.69,42.44,39.12,41.9,39.12z"/>
			</g>
		</g>
	</g>
	<g>
		<g>
			<defs>
				<rect id="SVGID_00000041280189949539184500000013274242289398015920_" x="13.5" y="11.32" width="23.5" height="25.52"/>
			</defs>
			<clipPath id="SVGID_00000022529409906358197570000002066100586113460109_">
				<use xlink:href="#SVGID_00000041280189949539184500000013274242289398015920_"  style="overflow:visible;"/>
			</clipPath>
			<g style="clip-path:url(#SVGID_00000022529409906358197570000002066100586113460109_);">
				<path class="st31" d="M18.89,18.01v18.04l17.15-0.04c0.09,0,0.18-0.09,0.18-0.18V18.18c0-0.1-0.08-0.18-0.18-0.18L18.89,18.01z
					 M18.54,36.77c-0.09,0-0.18-0.04-0.26-0.11c-0.06-0.06-0.11-0.15-0.11-0.26V17.72c-0.01-0.02-0.01-0.05-0.01-0.07
					c0-0.02,0-0.05,0.01-0.07v-3.56c0-1.1-0.9-2-1.99-2c-1.1,0-1.99,0.9-1.99,2v22.39c0,0.19-0.16,0.36-0.35,0.36
					s-0.35-0.16-0.35-0.36V14.02c0.01-1.49,1.21-2.7,2.7-2.7c1.49,0,2.69,1.21,2.69,2.7v3.29h17.15c0.48,0,0.88,0.39,0.88,0.88
					v17.67c0,0.48-0.39,0.88-0.88,0.88L18.54,36.77z"/>
			</g>
		</g>
	</g>
	<path class="st31" d="M27.54,25.38c-0.91,0-1.65,0.74-1.65,1.65s0.74,1.65,1.65,1.65c0.91,0,1.65-0.74,1.65-1.65
		S28.46,25.38,27.54,25.38z M27.54,29.4c-1.3,0-2.36-1.06-2.36-2.37c0-1.31,1.06-2.37,2.36-2.37c1.3,0,2.36,1.06,2.36,2.37
		C29.9,28.34,28.84,29.4,27.54,29.4z"/>
	<path class="st31" d="M24.84,31.7c0.18,0,0.35,0.06,0.52,0.19l0.01,0.01l2.11,1.73c0.04,0.04,0.1,0.04,0.15,0l2.11-1.74
		c0.14-0.12,0.33-0.19,0.52-0.19h1.84c0.06,0,0.11-0.05,0.11-0.11l-0.01-1.83c0-0.2,0.06-0.39,0.18-0.53l1.72-2.11
		c0.04-0.04,0.04-0.1,0-0.15l-1.73-2.12c-0.11-0.14-0.18-0.33-0.18-0.52v-1.85c0-0.06-0.05-0.11-0.11-0.11l-1.82,0.01
		c-0.2,0-0.39-0.06-0.53-0.18l-2.11-1.72c-0.04-0.04-0.1-0.04-0.15,0l-2.13,1.73c-0.14,0.12-0.33,0.18-0.52,0.18h-1.81
		c-0.06,0-0.11,0.05-0.11,0.12v1.83c0,0.18-0.07,0.38-0.18,0.52l-1.73,2.12c-0.04,0.04-0.04,0.1,0,0.15l1.73,2.12
		c0.11,0.14,0.18,0.33,0.18,0.52v1.85c0,0.06,0.05,0.12,0.11,0.12L24.84,31.7z M27.55,34.35c-0.18,0-0.37-0.06-0.52-0.19l-2.11-1.72
		c-0.04-0.03-0.06-0.04-0.09-0.04L23,32.41c-0.46,0-0.83-0.37-0.83-0.83v-1.85c0-0.02,0-0.04-0.02-0.07l-1.72-2.13
		c-0.25-0.31-0.25-0.74,0-1.04l1.73-2.12c0.02-0.03,0.03-0.05,0.03-0.07v-1.83c0-0.46,0.37-0.83,0.83-0.83h1.82
		c0.02,0,0.04,0,0.07-0.02l2.12-1.74c0.31-0.25,0.74-0.25,1.04,0l2.11,1.72c0.02,0.02,0.05,0.03,0.08,0.03l1.82-0.01
		c0.46,0,0.83,0.37,0.83,0.83v1.85c0,0.02,0,0.04,0.02,0.07l1.73,2.13c0.25,0.31,0.25,0.74,0,1.04l-1.72,2.11
		c-0.02,0.02-0.03,0.05-0.03,0.08l0.01,1.83c0,0.46-0.37,0.83-0.83,0.83h-1.84c-0.03,0-0.05,0.01-0.07,0.02l-2.11,1.75
		C27.91,34.29,27.73,34.35,27.55,34.35z"/>
	<path class="st31" d="M25.63,30.04c0.09,0,0.16,0.03,0.22,0.08l1.69,1.38l1.7-1.38c0.06-0.05,0.14-0.08,0.22-0.08h1.09l-0.01-1.09
		c0-0.09,0.03-0.16,0.08-0.22L32,27.04l-1.38-1.7c-0.05-0.06-0.08-0.14-0.08-0.22v-1.1l-1.08,0.01c-0.09,0-0.16-0.03-0.22-0.08
		l-1.7-1.38l-1.69,1.38c-0.06,0.05-0.14,0.08-0.22,0.08h-1.09v1.08c0,0.09-0.03,0.16-0.08,0.22l-1.38,1.7l1.38,1.69
		c0.05,0.06,0.08,0.14,0.08,0.22v1.1H25.63z M27.54,32.32c-0.08,0-0.16-0.03-0.22-0.08l-1.81-1.49l-1.31,0.01
		c-0.09,0-0.18-0.04-0.26-0.11c-0.07-0.06-0.11-0.15-0.11-0.26v-1.32l-1.49-1.82c-0.11-0.13-0.11-0.32,0-0.45l1.49-1.83v-1.31
		c0-0.19,0.16-0.36,0.35-0.36h1.31l1.81-1.49c0.13-0.11,0.32-0.11,0.45,0l1.82,1.49l1.3-0.01c0.09,0,0.18,0.04,0.26,0.11
		c0.07,0.06,0.11,0.15,0.11,0.26v1.33l1.49,1.83c0.11,0.13,0.11,0.32,0,0.45l-1.49,1.82l0.01,1.31c0,0.09-0.04,0.18-0.11,0.26
		c-0.06,0.07-0.15,0.11-0.26,0.11h-1.31l-1.82,1.48C27.7,32.29,27.62,32.32,27.54,32.32z"/>
	<g>
		<g>
			<defs>
				<rect id="SVGID_00000109001600300399485850000017728533537076261822_" x="39.11" y="14.9" width="0.82" height="24.22"/>
			</defs>
			<clipPath id="SVGID_00000066474081906715688600000013442394879589493917_">
				<use xlink:href="#SVGID_00000109001600300399485850000017728533537076261822_"  style="overflow:visible;"/>
			</clipPath>
			<g style="clip-path:url(#SVGID_00000066474081906715688600000013442394879589493917_);">
				<path class="st31" d="M39.54,39.1c-0.19,0-0.35-0.16-0.35-0.36V15.32c0-0.19,0.16-0.35,0.35-0.35s0.35,0.16,0.35,0.36v23.44
					C39.89,38.95,39.73,39.1,39.54,39.1z"/>
			</g>
		</g>
	</g>
	<g>
		<g>
			<defs>
				<rect id="SVGID_00000176751418577576093100000000437063039944986782_" x="42.16" y="17.13" width="2.13" height="0.82"/>
			</defs>
			<clipPath id="SVGID_00000121259854393520654750000017995041688956433536_">
				<use xlink:href="#SVGID_00000176751418577576093100000000437063039944986782_"  style="overflow:visible;"/>
			</clipPath>
			<g style="clip-path:url(#SVGID_00000121259854393520654750000017995041688956433536_);">
				<path class="st31" d="M43.93,17.9h-1.42c-0.19,0-0.35-0.16-0.35-0.36c0-0.2,0.16-0.36,0.35-0.36h1.42
					c0.19,0,0.35,0.16,0.35,0.36C44.28,17.74,44.12,17.9,43.93,17.9z"/>
			</g>
		</g>
	</g>
	<g>
		<g>
			<defs>
				<rect id="SVGID_00000088835324449334513200000015449128405885194686_" x="42.16" y="19.82" width="2.13" height="0.82"/>
			</defs>
			<clipPath id="SVGID_00000138571040216744520600000003248298762765461436_">
				<use xlink:href="#SVGID_00000088835324449334513200000015449128405885194686_"  style="overflow:visible;"/>
			</clipPath>
			<g style="clip-path:url(#SVGID_00000138571040216744520600000003248298762765461436_);">
				<path class="st31" d="M43.93,20.61h-1.42c-0.19,0-0.35-0.16-0.35-0.36c0-0.19,0.16-0.36,0.35-0.36h1.42
					c0.19,0,0.35,0.16,0.35,0.36S44.12,20.61,43.93,20.61z"/>
			</g>
		</g>
	</g>
	<g>
		<g>
			<defs>
				<rect id="SVGID_00000000918999798391965950000004687243220579377829_" x="42.16" y="22.53" width="2.13" height="0.82"/>
			</defs>
			<clipPath id="SVGID_00000049943103800358840380000005283630511831202963_">
				<use xlink:href="#SVGID_00000000918999798391965950000004687243220579377829_"  style="overflow:visible;"/>
			</clipPath>
			<g style="clip-path:url(#SVGID_00000049943103800358840380000005283630511831202963_);">
				<path class="st31" d="M43.93,23.31h-1.42c-0.19,0-0.35-0.16-0.35-0.36s0.16-0.36,0.35-0.36h1.42c0.19,0,0.35,0.16,0.35,0.36
					S44.12,23.31,43.93,23.31z"/>
			</g>
		</g>
	</g>
	<g>
		<g>
			<defs>
				<rect id="SVGID_00000063620571769269010800000006216109923116988339_" x="42.16" y="25.23" width="2.13" height="0.82"/>
			</defs>
			<clipPath id="SVGID_00000099637123958515333750000005854271382396974999_">
				<use xlink:href="#SVGID_00000063620571769269010800000006216109923116988339_"  style="overflow:visible;"/>
			</clipPath>
			<g style="clip-path:url(#SVGID_00000099637123958515333750000005854271382396974999_);">
				<path class="st31" d="M43.93,26.02h-1.42c-0.19,0-0.35-0.16-0.35-0.36c0-0.19,0.16-0.36,0.35-0.36h1.42
					c0.19,0,0.35,0.16,0.35,0.36C44.28,25.86,44.12,26.02,43.93,26.02z"/>
			</g>
		</g>
	</g>
	<g>
		<g>
			<defs>
				<rect id="SVGID_00000007421348375387202030000006399044738956051344_" x="42.16" y="27.92" width="2.13" height="0.82"/>
			</defs>
			<clipPath id="SVGID_00000050653515797945487030000017324421954563533739_">
				<use xlink:href="#SVGID_00000007421348375387202030000006399044738956051344_"  style="overflow:visible;"/>
			</clipPath>
			<g style="clip-path:url(#SVGID_00000050653515797945487030000017324421954563533739_);">
				<path class="st31" d="M43.93,28.73h-1.42c-0.19,0-0.35-0.16-0.35-0.36c0-0.19,0.16-0.36,0.35-0.36h1.42
					c0.19,0,0.35,0.16,0.35,0.36C44.28,28.56,44.12,28.73,43.93,28.73z"/>
			</g>
		</g>
	</g>
	<g>
		<g>
			<defs>
				<rect id="SVGID_00000101783344760448084600000007480806385847409564_" x="42.16" y="30.62" width="2.13" height="0.82"/>
			</defs>
			<clipPath id="SVGID_00000176733813252523945290000014370300524631904947_">
				<use xlink:href="#SVGID_00000101783344760448084600000007480806385847409564_"  style="overflow:visible;"/>
			</clipPath>
			<g style="clip-path:url(#SVGID_00000176733813252523945290000014370300524631904947_);">
				<path class="st31" d="M43.93,31.44h-1.42c-0.19,0-0.35-0.16-0.35-0.36s0.16-0.36,0.35-0.36h1.42c0.19,0,0.35,0.16,0.35,0.36
					S44.12,31.44,43.93,31.44z"/>
			</g>
		</g>
	</g>
	<g>
		<g>
			<defs>
				<rect id="SVGID_00000005983068616602837150000000837776254769595070_" x="42.16" y="33.32" width="2.13" height="0.94"/>
			</defs>
			<clipPath id="SVGID_00000147208946759894160120000017522424510864270768_">
				<use xlink:href="#SVGID_00000005983068616602837150000000837776254769595070_"  style="overflow:visible;"/>
			</clipPath>
			<g style="clip-path:url(#SVGID_00000147208946759894160120000017522424510864270768_);">
				<path class="st31" d="M43.93,34.15h-1.42c-0.19,0-0.35-0.16-0.35-0.36s0.16-0.36,0.35-0.36h1.42c0.19,0,0.35,0.16,0.35,0.36
					C44.28,33.98,44.12,34.15,43.93,34.15z"/>
			</g>
		</g>
	</g>
	<g>
		<g>
			<defs>
				<rect id="SVGID_00000043424277742388831890000005169419953355969204_" x="42.16" y="36.13" width="2.13" height="0.82"/>
			</defs>
			<clipPath id="SVGID_00000162345279707239234640000015921724284312948124_">
				<use xlink:href="#SVGID_00000043424277742388831890000005169419953355969204_"  style="overflow:visible;"/>
			</clipPath>
			<g style="clip-path:url(#SVGID_00000162345279707239234640000015921724284312948124_);">
				<path class="st31" d="M43.93,36.85h-1.42c-0.19,0-0.35-0.16-0.35-0.36c0-0.19,0.16-0.36,0.35-0.36h1.42
					c0.19,0,0.35,0.16,0.35,0.36C44.28,36.69,44.12,36.85,43.93,36.85z"/>
			</g>
		</g>
	</g>
	<path class="st31" d="M16.2,35.77c-0.35,0-0.63,0.29-0.63,0.63c0,0.34,0.28,0.63,0.63,0.63c0.35,0,0.63-0.29,0.63-0.63
		C16.83,36.06,16.54,35.77,16.2,35.77z M16.2,37.75c-0.74,0-1.34-0.6-1.34-1.35c0-0.74,0.6-1.35,1.34-1.35
		c0.74,0,1.34,0.6,1.34,1.35C17.54,37.16,16.94,37.75,16.2,37.75z"/>
</g>
</svg>
