<?xml version="1.0" encoding="utf-8"?>
<!-- Generator: Adobe Illustrator 27.3.1, SVG Export Plug-In . SVG Version: 6.00 Build 0)  -->
<svg version="1.1" id="Layer_1" xmlns="http://www.w3.org/2000/svg" xmlns:xlink="http://www.w3.org/1999/xlink" x="0px" y="0px"
	 viewBox="0 0 50 50" style="enable-background:new 0 0 50 50;" xml:space="preserve">
<style type="text/css">
	.st0{fill:none;}
	.st1{stroke:#000000;stroke-miterlimit:10;}
	.st2{stroke:#000000;stroke-width:0.75;stroke-miterlimit:10;}
	.st3{clip-path:url(#SVGID_00000041255219919049776270000009270673755285762485_);}
	.st4{clip-path:url(#SVGID_00000119804526108301530370000006103914186158841488_);}
	.st5{fill:#FFFFFF;}
	.st6{clip-path:url(#SVGID_00000064344936282140460350000017609522549030612660_);}
	.st7{fill:#231F20;}
	.st8{clip-path:url(#SVGID_00000105387462667457603640000013311687586965482648_);}
	.st9{clip-path:url(#SVGID_00000166669328403370309920000016615007006832292492_);}
	.st10{clip-path:url(#SVGID_00000109750529772402290830000003737808190504708282_);}
	.st11{clip-path:url(#SVGID_00000101064756972456831370000006034624367639932802_);}
	.st12{clip-path:url(#SVGID_00000127733603225225905810000005226325539126509963_);}
	.st13{clip-path:url(#SVGID_00000134246216666253131990000011919465481363504828_);}
	.st14{clip-path:url(#SVGID_00000036929531973665445990000015566609051681847487_);}
	.st15{clip-path:url(#SVGID_00000073711193802985076570000004011101357359997325_);}
	.st16{clip-path:url(#SVGID_00000098194483556134688040000006253571817267047615_);}
	.st17{clip-path:url(#SVGID_00000145738288108070609270000016252723493647969418_);}
	.st18{clip-path:url(#SVGID_00000075875266700410683590000011417970187898288792_);}
	.st19{clip-path:url(#SVGID_00000178205706923430170640000001001197492896967810_);}
	.st20{clip-path:url(#SVGID_00000114050580591760561750000011630368594270092456_);}
	.st21{clip-path:url(#SVGID_00000046312933596993203600000001331269266350508163_);}
	.st22{clip-path:url(#SVGID_00000020387214777469030220000001277743885933079980_);}
	.st23{clip-path:url(#SVGID_00000063611555721439222390000010195115383064452287_);}
	.st24{clip-path:url(#SVGID_00000161627828058376307220000012899620513190030484_);}
	.st25{clip-path:url(#SVGID_00000062906716455564489670000004658259151230855851_);}
	.st26{clip-path:url(#SVGID_00000078741111675141958510000001963113335231346621_);}
	.st27{clip-path:url(#SVGID_00000161627477043555515820000016026932254167202177_);}
	.st28{clip-path:url(#SVGID_00000131362599262638710510000010208082223354320788_);}
	.st29{clip-path:url(#SVGID_00000074428555665882436200000013672501637005977248_);}
	.st30{clip-path:url(#SVGID_00000144302450315996615510000004462698670221073063_);}
	.st31{fill-rule:evenodd;clip-rule:evenodd;}
	.st32{clip-path:url(#SVGID_00000183934540077534216100000013077514435234091926_);}
	.st33{clip-path:url(#SVGID_00000161626205386942497970000007388992400568620434_);}
	.st34{stroke:#000000;stroke-width:0.5;stroke-miterlimit:10;}
	.st35{clip-path:url(#SVGID_00000172418358384847013450000002846277538258759852_);}
	.st36{clip-path:url(#SVGID_00000176762124778333170670000014596902304544005796_);}
	.st37{clip-path:url(#SVGID_00000146472980335136005880000001452961457965560745_);}
	.st38{fill:#1A1A1A;}
	.st39{clip-path:url(#SVGID_00000119106507961679646790000006138292256161287867_);}
	.st40{clip-path:url(#SVGID_00000059282461791326375170000012944784726027942836_);}
	.st41{clip-path:url(#SVGID_00000163048589428191979170000010164061972300542128_);}
	.st42{clip-path:url(#SVGID_00000176721600195332746480000005163716788152480641_);}
	.st43{clip-path:url(#SVGID_00000038410900527112101610000012042747145228654245_);}
	.st44{clip-path:url(#SVGID_00000140729471481731296010000001193895699441028764_);}
	.st45{clip-path:url(#SVGID_00000070806652068083389400000008928661392994195646_);}
	.st46{clip-path:url(#SVGID_00000006672374933692187870000007699989311800037034_);}
	.st47{clip-path:url(#SVGID_00000054230505812668664480000015146818243496026788_);}
	.st48{fill:#F1F1F1;}
	.st49{fill:#E8E8E8;}
	.st50{fill:#FEFEFE;}
	.st51{fill:#CCCCCC;}
	.st52{fill:#B3B3B3;}
	.st53{fill:#E6E6E6;}
	.st54{fill:#EBEBEB;}
	.st55{fill:#EEEEEE;}
	.st56{fill:#F8F8F8;}
	.st57{fill:#FBFBFB;}
	.st58{fill:#383838;}
	.st59{fill:#232323;}
	.st60{fill:#F6F6F6;}
	.st61{fill:#535353;}
	.st62{fill:#0A0A0A;}
	.st63{fill:#F5F5F5;}
	.st64{fill:#818181;}
	.st65{fill:#4A4A4A;}
	.st66{fill:#999999;}
	.st67{fill:url(#SVGID_00000010270769887912626020000008996477999630327186_);}
	.st68{fill:url(#SVGID_00000170240466038720304660000002223849984643657394_);}
	.st69{fill:#0E0E0D;}
	.st70{fill:#333333;}
	.st71{fill:#808080;}
	.st72{fill:url(#SVGID_00000007414764120959231470000016890060116756416680_);}
	.st73{fill:#666666;}
	.st74{fill:url(#SVGID_00000075143496839436711020000008247871465354563748_);}
	.st75{fill:url(#SVGID_00000107565793970096232100000016241583497875222172_);}
	.st76{fill:url(#SVGID_00000062174149241166346720000013102632894739688864_);}
	.st77{fill:url(#SVGID_00000178891350135951554930000000167113868808864138_);}
	.st78{fill:url(#SVGID_00000001648098245602566070000007437882950304829322_);}
	.st79{clip-path:url(#SVGID_00000175299712759047863150000006802676841818108603_);}
	.st80{clip-path:url(#SVGID_00000076581434490071636600000003772554517911628928_);}
	.st81{clip-path:url(#SVGID_00000083050127369278133790000008919767252431194776_);}
	.st82{clip-path:url(#SVGID_00000142876735441985737730000017570949582236624036_);}
	.st83{clip-path:url(#SVGID_00000173857579986490596990000003936552210006910135_);}
	.st84{fill:#241F20;stroke:#000000;stroke-width:0.5;stroke-miterlimit:10;}
	.st85{clip-path:url(#SVGID_00000111193508033674340150000013276754870934834316_);}
	.st86{clip-path:url(#SVGID_00000160149097426147823010000008192939740599034522_);}
	.st87{clip-path:url(#SVGID_00000178168631111861185150000014076837286616051590_);}
	.st88{clip-path:url(#SVGID_00000168105190478423359800000017641565755251846785_);}
	.st89{clip-path:url(#SVGID_00000027596505231780363030000015462598273364679359_);}
	.st90{clip-path:url(#SVGID_00000160909881235063756030000010988743058276644780_);}
	.st91{clip-path:url(#SVGID_00000119098565044992640670000001540579748640549787_);}
	.st92{clip-path:url(#SVGID_00000036942342772363787810000017670196829374544059_);}
	.st93{clip-path:url(#SVGID_00000098942033184640790140000009273207386441080202_);}
	.st94{clip-path:url(#SVGID_00000111890552308810624720000010283877240475623832_);}
	.st95{clip-path:url(#SVGID_00000158024983203686296740000018257933468181973906_);}
	.st96{clip-path:url(#SVGID_00000121977153248273183490000018166841969149078657_);}
	.st97{clip-path:url(#SVGID_00000093890072326622880540000010593523850442617742_);}
	.st98{clip-path:url(#SVGID_00000097467670884077841560000007254354102511281819_);}
	.st99{clip-path:url(#SVGID_00000156580182982713807290000015474547607086230179_);}
	.st100{clip-path:url(#SVGID_00000114071799023071493260000010191225703852863399_);}
	.st101{clip-path:url(#SVGID_00000014633349880889535480000002922371971897746110_);}
	.st102{clip-path:url(#SVGID_00000116219329217787242370000000862761389074038944_);}
	.st103{clip-path:url(#SVGID_00000023973320089733991890000011472946738684729780_);}
	.st104{clip-path:url(#SVGID_00000070807448178331717470000010631104558103150255_);}
	.st105{clip-path:url(#SVGID_00000067233092364010451060000005801417808889638074_);}
	.st106{clip-path:url(#SVGID_00000124870033866574528630000010874610109719835034_);}
	.st107{clip-path:url(#SVGID_00000171719526923732599980000016145789933606597267_);}
	.st108{clip-path:url(#SVGID_00000018921747099917148840000005988862582684093329_);}
	.st109{clip-path:url(#SVGID_00000085245334146593939810000008654308138140915620_);}
	.st110{clip-path:url(#SVGID_00000010274765642081969860000008433466490236983947_);}
	.st111{clip-path:url(#SVGID_00000121273914142147490710000015855257944152794754_);}
	.st112{clip-path:url(#SVGID_00000034794753329052673750000007273131307732368824_);}
	.st113{clip-path:url(#SVGID_00000147913972654523096020000017960219078539058607_);}
	.st114{clip-path:url(#SVGID_00000033346925271110163680000017162083407062583978_);}
	.st115{fill:#FFFFFF;stroke:#000000;stroke-miterlimit:10;}
	.st116{clip-path:url(#SVGID_00000123433570462823156740000010978434448055886211_);}
	.st117{clip-path:url(#SVGID_00000159464385736447987990000000728363448253982090_);}
	.st118{fill:none;stroke:#010101;stroke-miterlimit:10;}
	.st119{fill:#010101;stroke:#000000;stroke-miterlimit:10;}
	.st120{clip-path:url(#SVGID_00000000907753331651516940000005129185529726875807_);}
	.st121{fill:#010101;stroke:#010101;stroke-miterlimit:10;}
	.st122{clip-path:url(#SVGID_00000036970935736260072100000003371175619891074186_);}
	.st123{clip-path:url(#SVGID_00000144340323731264581700000014602343969916578234_);}
	.st124{clip-path:url(#SVGID_00000160898194949133785850000015628980689146655379_);}
	.st125{clip-path:url(#SVGID_00000019674244930460432370000009620120519370221714_);}
	.st126{clip-path:url(#SVGID_00000155115248973077982300000000170722257674860420_);}
	.st127{fill:none;stroke:#000000;stroke-width:3;stroke-miterlimit:10;}
	.st128{clip-path:url(#SVGID_00000075857214899328613930000012456317914741873556_);}
	.st129{clip-path:url(#SVGID_00000178185056599401265920000013446218258093218697_);}
	.st130{clip-path:url(#SVGID_00000064312701463589211370000013556373127252036768_);}
	.st131{clip-path:url(#SVGID_00000072254231722984770430000004328010409617690028_);}
	.st132{fill:#040606;}
	.st133{clip-path:url(#SVGID_00000113353577468539153070000001137101410875196064_);}
	.st134{clip-path:url(#SVGID_00000181084343810104317530000012035716548589687219_);}
	.st135{clip-path:url(#SVGID_00000009565231298062792390000011079985261197009825_);}
	.st136{clip-path:url(#SVGID_00000092438684215061243460000017332047869738622628_);}
	.st137{clip-path:url(#SVGID_00000026153292663378862980000001931887842518083001_);}
	.st138{clip-path:url(#SVGID_00000031167483731980599720000011137570326914957700_);}
	.st139{clip-path:url(#SVGID_00000037664131797511767430000004546438535513144469_);}
	.st140{fill:#FFFFFF;stroke:#000000;stroke-width:1.5;stroke-miterlimit:10;}
	.st141{clip-path:url(#SVGID_00000051360847725498855600000007538173215664664743_);}
	.st142{fill:#BDBCBC;}
	.st143{clip-path:url(#SVGID_00000040566287293263426440000012223720323829448381_);}
	.st144{fill:#2E2A2B;}
	.st145{clip-path:url(#SVGID_00000130621802561185623590000008067596389755905210_);}
	.st146{clip-path:url(#SVGID_00000018945075051076272180000004708418287471794571_);}
	.st147{clip-path:url(#SVGID_00000174562938486874394830000015117234011362239901_);}
	.st148{clip-path:url(#SVGID_00000174583202524442069420000002448766836783615645_);}
	.st149{clip-path:url(#SVGID_00000101080290270773971260000005327440484855893388_);}
	.st150{fill:#272324;}
	.st151{clip-path:url(#SVGID_00000088826052970234162230000006702346846558084007_);}
	.st152{clip-path:url(#SVGID_00000087397368249982553750000002061206760417350024_);}
	.st153{clip-path:url(#SVGID_00000072967514825890226160000008266792695100131249_);}
	.st154{clip-path:url(#SVGID_00000002355612513238360180000012357542604027628974_);}
	.st155{clip-path:url(#SVGID_00000077322308053502224470000001906953656963005611_);}
	.st156{clip-path:url(#SVGID_00000148629625374553392360000007079820614732027014_);}
	.st157{fill:none;stroke:#000000;stroke-width:0.8735;stroke-linecap:round;stroke-linejoin:round;stroke-miterlimit:10;}
	.st158{clip-path:url(#SVGID_00000035503239583876456010000009075752027145801131_);}
	.st159{clip-path:url(#SVGID_00000078762105669768542090000013649767112734026686_);}
	.st160{clip-path:url(#SVGID_00000139982227083884078370000016690215432433900469_);}
	.st161{clip-path:url(#SVGID_00000093872002039280454340000008718625517925967747_);}
	.st162{clip-path:url(#SVGID_00000082359342445603441200000017232287013447655085_);}
	.st163{clip-path:url(#SVGID_00000025427072054991684900000012282573829112621977_);}
	.st164{clip-path:url(#SVGID_00000062189025416123480300000016197054164600992387_);}
	.st165{clip-path:url(#SVGID_00000101787109464908226600000012721536727809120700_);}
	.st166{clip-path:url(#SVGID_00000151531417280383701250000004227083092882111142_);}
	.st167{clip-path:url(#SVGID_00000148625136963160528300000006378670420928387516_);}
	.st168{clip-path:url(#SVGID_00000096778704404275257000000004186744875350535100_);}
	.st169{clip-path:url(#SVGID_00000114056866152672963990000009560755302169074313_);}
	.st170{clip-path:url(#SVGID_00000107569360310954669090000011884482727890469536_);}
	.st171{clip-path:url(#SVGID_00000108301188788189597870000012411426043519016622_);}
	.st172{clip-path:url(#SVGID_00000093174386704442328040000017139662788734103186_);}
	.st173{clip-path:url(#SVGID_00000026141413675723902920000004619489285809325480_);}
	.st174{clip-path:url(#SVGID_00000164510635844053857790000010933863364638657705_);}
	.st175{clip-path:url(#SVGID_00000175293202095721733430000016297484806363839659_);}
	.st176{clip-path:url(#SVGID_00000091706235481103164000000006222018038913895041_);}
	.st177{clip-path:url(#SVGID_00000009555253788635400150000011242560173792374942_);}
	.st178{clip-path:url(#SVGID_00000094598897374606393460000001067997048296815284_);}
	.st179{clip-path:url(#SVGID_00000060748616883815041940000013652625669182123405_);}
	.st180{clip-path:url(#SVGID_00000047768868345939258020000015793112803055017348_);}
	.st181{clip-path:url(#SVGID_00000172441111210072533480000007286973768401324183_);}
	.st182{clip-path:url(#SVGID_00000044163919779189059570000002750790908957433242_);}
	.st183{clip-path:url(#SVGID_00000087395295416903761530000009545870997379000453_);}
	.st184{clip-path:url(#SVGID_00000122717626937399490350000005533699397902849198_);}
	.st185{clip-path:url(#SVGID_00000029754568077945556040000009231383331228506521_);}
	.st186{clip-path:url(#SVGID_00000116234900184507003870000011334540678292897724_);}
	.st187{clip-path:url(#SVGID_00000155858822150851152070000015768131709062997181_);}
	.st188{clip-path:url(#SVGID_00000179615438246582663910000015222016104010853040_);}
	.st189{clip-path:url(#SVGID_00000165192264929993083960000006320043641146515598_);}
	.st190{clip-path:url(#SVGID_00000137837497211191305950000014627142802686423441_);}
	.st191{clip-path:url(#SVGID_00000132787113432418898340000000934734494235007394_);}
	.st192{clip-path:url(#SVGID_00000114774866702448740710000001165111136182724256_);}
	.st193{clip-path:url(#SVGID_00000177485504545682119890000013017107705323821981_);}
	.st194{clip-path:url(#SVGID_00000170963828627285137230000017254831986972464533_);}
	.st195{clip-path:url(#SVGID_00000011719299866068757320000008414706710368794766_);}
	.st196{fill:#E5E5E5;}
	.st197{fill:#1D1D1B;}
	.st198{fill:none;stroke:#000000;stroke-miterlimit:10;}
	.st199{fill:#FEFEFE;stroke:#000000;stroke-miterlimit:10;}
	.st200{clip-path:url(#SVGID_00000070105322288070581280000014885701793635964805_);}
	.st201{clip-path:url(#SVGID_00000124146314033358178770000001358027635841134496_);}
	.st202{clip-path:url(#SVGID_00000158721587492625418930000003787872561919377084_);}
	.st203{fill:#231F1F;}
	.st204{fill:#020000;}
	.st205{clip-path:url(#SVGID_00000102519104681673238240000002047971270901605529_);}
	.st206{clip-path:url(#SVGID_00000052805461737924852620000003388346690111888546_);}
	.st207{clip-path:url(#SVGID_00000056423090931779999170000010702577543657727127_);}
	.st208{clip-path:url(#SVGID_00000101084540074204899350000009947859873039918001_);}
	.st209{fill:#050000;}
	.st210{clip-path:url(#SVGID_00000135659370819202901300000007881541370750791067_);}
	.st211{clip-path:url(#SVGID_00000081635499480369358950000014764806684154043778_);}
	.st212{clip-path:url(#SVGID_00000103228982912992542840000013208215458757281708_);}
	.st213{clip-path:url(#SVGID_00000084504719918305141540000004688640532232619158_);}
	.st214{clip-path:url(#SVGID_00000143585511337403159960000002552202089012255115_);}
	.st215{clip-path:url(#SVGID_00000180343733502937206810000008520633888837433496_);}
	.st216{fill:#12100F;}
	.st217{clip-path:url(#SVGID_00000072978227079880972440000003257049185660794512_);}
	.st218{clip-path:url(#SVGID_00000129902659270818876570000001487499536281346193_);}
	.st219{fill:none;stroke:#000000;stroke-width:0.5;stroke-miterlimit:10;}
	.st220{clip-path:url(#SVGID_00000175284133718433483540000012484401792060740773_);}
	.st221{clip-path:url(#SVGID_00000123430301458215351180000001247329184607981980_);}
	.st222{clip-path:url(#SVGID_00000183221583768518393460000014268712672119583132_);}
	.st223{clip-path:url(#SVGID_00000172421250038853138090000000426041362200029074_);}
	.st224{fill:none;stroke:#000000;stroke-width:0.25;stroke-miterlimit:10;}
	.st225{clip-path:url(#SVGID_00000021116719895075607680000013631683987013053059_);}
	.st226{clip-path:url(#SVGID_00000005263631431374929450000007381160925589598861_);}
	.st227{clip-path:url(#SVGID_00000181051227002277383300000001448234603915273618_);}
</style>
<g>
	<path class="st34" d="M41.96,18.38c-0.14-0.59-0.6-1.42-2.01-2.06c-1.2-0.55-4.2-2.68-5.7-4.39c-0.53-0.6-0.99-1.19-1.39-1.7
		c-0.73-0.93-1.35-1.74-2.14-2.29c-0.01,0-0.01-0.01-0.02-0.01l-2.13-1.19c-0.07-0.04-0.15-0.04-0.21,0.01
		c-0.06,0.04-0.09,0.12-0.08,0.2c0.01,0.03,0.1,0.75-0.86,1.16c-1.06,0.46-2.45,0.3-2.47,0.3c-0.01-0.01-0.02-0.01-0.02-0.01H24.4
		c-0.02,0-1.42-0.01-2.5-0.47c-0.97-0.42-0.98-1.03-0.98-1.06c0-0.07-0.03-0.13-0.09-0.17c-0.05-0.04-0.13-0.04-0.2-0.02
		c-0.05,0.03-1.28,0.62-2.28,1.53c-0.65,0.6-1.24,1.29-1.98,2.17c-0.38,0.46-0.82,0.98-1.34,1.56c-1.51,1.72-5.04,4-6.2,4.55
		c-0.79,0.38-1.34,1.03-1.52,1.85c-0.14,0.63-0.07,1.32,0.2,1.87c-0.18,0.14-0.52,0.45-0.43,0.85c0.06,0.26,0.3,0.51,0.62,0.84
		c0.28,0.3,0.6,0.63,0.87,1.05c0.14,0.2,0.25,0.38,0.35,0.54c0.35,0.55,0.47,0.75,0.66,0.79c0.02,0.01,0.04,0.01,0.05,0.01
		c0.05,0,0.1-0.02,0.15-0.04c0.13-0.08,0.37-0.29,0.45-0.35c0.5,0.21,1.42,0.41,2.52-0.23c0.94-0.54,4.42-5.13,5.31-6.31
		c0.01,0,0.01,0.01,0.01,0.01c0.08,0.13,0.18,0.27,0.3,0.37c-0.04,0.04-0.09,0.08-0.13,0.13c-0.3,0.29-0.86,0.84-1.57,1.85
		c-1.22,1.73-4.12,6.99-5.63,10.72c-0.52,1.29-1,2.35-1.38,3.2c-0.77,1.71-1.15,2.57-0.98,3.08c0.26,0.81,2.62,1.68,6.11,1.72
		c0.39,0.01,0.47-0.24,0.49-0.31c0.02-0.1,0.01-0.21-0.05-0.32l0.26-1.26c0.68,0.27,1.25,0.71,1.85,1.19
		c0.68,0.53,1.37,1.08,2.26,1.38c0.42,0.14,0.78,0.2,1.08,0.2c0.6,0,0.97-0.24,1.08-0.53c0.04-0.12,0.04-0.24,0-0.34
		c0.01-0.02,0.02-0.03,0.02-0.05l0.12-1.41c0.6,0.13,1.48,0.49,2.76,1.2c2.41,1.36,4.05,0.84,5.53,0.19
		c0.71-0.31,1.33-0.83,1.88-1.29c0.34-0.28,0.65-0.54,0.93-0.71l0.34,1.44c-0.02,0.1-0.01,0.21,0.03,0.31
		c0.08,0.17,0.36,0.55,1.39,0.3c0.62-0.15,1.05-0.46,1.45-0.82c0.04,0.04,0.09,0.07,0.15,0.08c1.65,0.05,3.67-0.45,3.94-1.26
		c0.03-0.08,0.04-0.16,0.04-0.26c0.01-0.04,0.01-0.07,0-0.11c0-0.03,0-0.07-0.01-0.11c-0.06-0.64-0.47-1.63-1.22-3.44
		c-0.25-0.6-0.54-1.29-0.86-2.07c-1.51-3.73-4.42-9-5.63-10.72c-0.71-1.01-1.27-1.56-1.57-1.85c-0.04-0.04-0.09-0.09-0.13-0.13
		c0.13-0.1,0.23-0.24,0.3-0.37c0.01-0.01,0.01-0.01,0.01-0.02c0.89,1.18,4.38,5.75,5.3,6.31c0.46,0.28,0.87,0.38,1.24,0.38
		c0.6,0,1.05-0.27,1.29-0.46c0.05,0.05,0.12,0.1,0.21,0.14c0.08,0.03,0.16,0.04,0.25,0.04c0.14,0,0.3-0.04,0.47-0.13
		c0.68-0.34,1.86-2.22,2-2.59c0.15-0.4-0.15-0.79-0.27-0.92C42,19.56,42.09,18.94,41.96,18.38z M9.64,23.84
		c-0.08-0.1-0.23-0.34-0.38-0.57c-0.1-0.16-0.21-0.34-0.35-0.55c-0.29-0.46-0.64-0.82-0.92-1.11c-0.25-0.25-0.48-0.49-0.51-0.64
		c-0.03-0.15,0.12-0.31,0.24-0.41c0.02,0.03,0.05,0.07,0.07,0.09c0.03,0.03,0.07,0.06,0.11,0.07c0.03,0.01,0.71,0.2,1.06,1.09
		c0.38,1.02,0.8,1.75,0.81,1.79c0.01,0.02,0.03,0.04,0.05,0.06c0,0,0.01,0.01,0.03,0.02C9.77,23.73,9.7,23.79,9.64,23.84z
		 M8.8,20.83c-0.03-0.02-0.05-0.05-0.08-0.07c-0.13-0.31-0.59-1.53,0.07-2.25c0.15-0.17,0.24-0.22,0.27-0.24
		c0.05,0.15-0.05,0.74-0.11,1.03c-0.02,0.12-0.04,0.23-0.06,0.33C8.84,19.94,8.79,20.39,8.8,20.83z M9.43,21.93
		c0.09-0.07,0.17-0.19,0.26-0.34c0.16-0.25,0.36-0.56,0.63-0.63c0.24-0.06,0.44-0.02,0.52,0.11c0.08,0.12,0.03,0.3-0.11,0.46
		c-0.24,0.28-0.86,0.46-1.25,0.53C9.47,22.02,9.44,21.98,9.43,21.93z M17.9,16.63c-0.01,0.08-0.01,0.16,0,0.25
		c-1.25,1.68-4.54,5.95-5.34,6.42c-1.3,0.75-2.28,0.18-2.46,0.05c-0.05-0.09-0.18-0.33-0.33-0.67c0.04,0.02,0.09,0.04,0.15,0.05
		c0.21,0.07,0.52,0.14,0.87,0.15c0.35,0.02,0.68-0.04,0.89-0.12c0.22-0.08,0.34-0.18,0.32-0.2c-0.01-0.02-0.14,0.02-0.36,0.06
		c-0.21,0.04-0.51,0.08-0.84,0.06c-0.34-0.01-0.64-0.05-0.85-0.09c-0.1-0.01-0.18-0.03-0.24-0.03c-0.04-0.08-0.07-0.16-0.11-0.25
		c0.38-0.08,1.05-0.27,1.35-0.61c0.22-0.26,0.27-0.56,0.13-0.78c-0.15-0.24-0.45-0.32-0.82-0.23c-0.37,0.09-0.62,0.47-0.79,0.74
		c-0.04,0.07-0.1,0.15-0.14,0.21c-0.06-0.16-0.13-0.3-0.21-0.43c-0.07-0.4-0.05-0.93,0.04-1.56c0.02-0.09,0.04-0.2,0.06-0.32
		c0.14-0.75,0.21-1.21-0.03-1.33c-0.19-0.09-0.41,0.1-0.59,0.3C8,18.97,8.16,19.9,8.33,20.47c-0.12-0.07-0.21-0.1-0.27-0.13
		c-0.37-0.5-0.51-1.25-0.36-1.92c0.12-0.49,0.43-1.17,1.3-1.58c1.18-0.56,4.79-2.9,6.33-4.65c0.51-0.58,0.95-1.11,1.34-1.56
		c0.27-0.33,0.53-0.63,0.78-0.92c0.19,0.56,0.86,2.42,1.6,3.34c-0.07,0.31-0.15,0.62-0.26,0.91c-0.21,0.58-0.44,1.14-0.64,1.73
		C18.03,15.99,17.93,16.29,17.9,16.63z M18.52,18.14c0.04-0.03,0.07-0.06,0.1-0.09c0.02,0.23,0.05,0.47,0.1,0.73
		c-0.19-0.05-0.43-0.13-0.61-0.22C18.27,18.39,18.41,18.25,18.52,18.14z M14.79,38.03c-3.69-0.05-5.59-0.98-5.74-1.45
		c-0.12-0.36,0.31-1.33,0.97-2.79c0.38-0.85,0.86-1.92,1.39-3.21c1.51-3.71,4.38-8.93,5.59-10.65c0.33-0.47,0.62-0.83,0.87-1.12
		c0.19,0.11,0.46,0.2,0.67,0.26c-0.21,0.27-0.41,0.56-0.59,0.85c-0.25,0.38-0.48,0.76-0.7,1.16c-0.22,0.39-0.44,0.79-0.65,1.19
		c-0.21,0.4-0.41,0.8-0.61,1.2c0.21-0.4,0.44-0.79,0.67-1.17c0.23-0.39,0.46-0.78,0.7-1.15c0.24-0.38,0.49-0.75,0.76-1.12
		c0.21-0.3,0.45-0.59,0.69-0.87c0.12,0.42,0.28,0.88,0.53,1.34c-0.23,0.34-1.61,2.45-3.3,6.81c-1.73,4.46-2.51,8.42-2.61,8.93
		c-0.03,0.04-0.04,0.08-0.05,0.1c-0.13,0.38,0.16,0.81,0.71,1.06c0.57,0.25,0.77,0.51,0.79,0.6C14.86,38.02,14.83,38.03,14.79,38.03
		z M21.84,17.27c-0.1-0.01-0.2-0.02-0.3-0.03c-0.37-0.04-0.73-0.08-1.02-0.08c-0.27,0-0.65,0.03-0.71,0.31
		c-0.02,0.08-0.01,0.15,0.04,0.21c0.09,0.12,0.31,0.18,0.67,0.18c0.32,0,0.74-0.04,1.23-0.14c0.71-0.13,1.17-0.23,1.39-0.27
		c0,0.08,0.01,0.15,0.01,0.23c-0.2,0.06-0.38,0.14-0.57,0.23c-0.21,0.1-0.41,0.21-0.6,0.35c-0.2,0.13-0.37,0.29-0.53,0.47
		c-0.15,0.18-0.29,0.37-0.38,0.58c0.07-0.1,0.13-0.19,0.21-0.27c0.07-0.09,0.15-0.17,0.24-0.25c0.16-0.15,0.35-0.29,0.54-0.41
		c0.19-0.12,0.39-0.23,0.59-0.32c0.17-0.08,0.35-0.15,0.52-0.23c0.05,0.52,0.18,1.05,0.27,1.22c0.02,0.03,0.05,0.07,0.08,0.1
		c-0.05,0.14-0.26,0.56-0.86,1.12c-0.56,0.52-1.53,1.03-2.18,0.96c-0.21-0.02-0.37-0.1-0.47-0.25c-1.19-1.66-1.11-3.36-1.08-3.92
		c0.01-0.06,0.01-0.12,0.01-0.15c0-0.15,0.37-0.43,1.77-0.46c1.27-0.02,2.45,0.48,2.47,0.49c-0.02,0.1-0.03,0.22-0.04,0.35
		c-0.09,0.01-0.24,0.02-0.45,0.02C22.44,17.31,22.15,17.3,21.84,17.27z M22.49,17.45c-0.21,0.04-0.46,0.09-0.75,0.14
		c-0.48,0.09-0.9,0.14-1.2,0.14c-0.4,0-0.53-0.08-0.57-0.13c-0.02-0.03-0.03-0.06-0.02-0.1c0.03-0.14,0.22-0.2,0.58-0.2
		c0.28,0,0.63,0.04,1.01,0.08c0.09,0.01,0.19,0.02,0.3,0.03C22.06,17.42,22.28,17.44,22.49,17.45z M25.79,18.77
		c-0.12-0.09-0.24-0.19-0.36-0.27c-0.07-0.05-0.15-0.11-0.23-0.16c0.02-0.11,0.04-0.22,0.05-0.34c0.25,0.13,0.49,0.25,0.76,0.36
		c0.16,0.06,0.32,0.12,0.5,0.14c0.09,0.01,0.19-0.01,0.27-0.05c0.09-0.04,0.16-0.11,0.21-0.2c0.02-0.05,0.03-0.11,0.02-0.16
		c-0.01-0.05-0.04-0.1-0.08-0.14c-0.08-0.07-0.18-0.09-0.26-0.11c-0.09-0.02-0.17-0.02-0.25-0.02c-0.08-0.01-0.16-0.02-0.25-0.03
		c-0.3-0.04-0.59-0.1-0.89-0.18c0-0.14-0.01-0.27-0.04-0.39c0.3-0.06,1.46-0.25,2.82-0.12c1.68,0.17,1.7,0.64,1.72,0.95
		c0.03,0.78-0.14,3.35-0.8,3.67c-0.85,0.4-2.46-0.67-3.12-1.14c-0.78-0.57-0.96-1.17-1-1.36c0.07-0.08,0.14-0.18,0.18-0.29
		c0.05-0.13,0.1-0.27,0.14-0.44c0.2,0.12,0.39,0.24,0.57,0.37c0.24,0.17,0.48,0.36,0.68,0.58C26.24,19.17,26.02,18.96,25.79,18.77z
		 M25.28,17.85c0-0.04,0.01-0.09,0.01-0.13c0.29,0.07,0.58,0.13,0.87,0.18c0.08,0.01,0.16,0.02,0.25,0.03s0.18,0.01,0.25,0.02
		c0.08,0.01,0.15,0.04,0.19,0.08c0.05,0.04,0.05,0.09,0.03,0.15c-0.02,0.06-0.08,0.11-0.14,0.14c-0.06,0.03-0.13,0.04-0.2,0.04
		c-0.15-0.02-0.31-0.07-0.46-0.13C25.8,18.12,25.54,17.99,25.28,17.85z M25.29,21.24c-0.03-0.25-0.09-0.56-0.18-0.91
		c0.14,0.16,0.32,0.33,0.55,0.49c0.05,0.03,0.1,0.07,0.16,0.11c0.22,0.2,0.44,0.4,0.64,0.63c0.21,0.24,0.4,0.49,0.55,0.74
		c0.15,0.26,0.28,0.52,0.39,0.78c0.21,0.51,0.37,0.98,0.5,1.39c0.25,0.8,0.37,1.31,0.38,1.31c0.02-0.01-0.06-0.52-0.29-1.34
		c-0.12-0.41-0.26-0.89-0.47-1.41c-0.11-0.26-0.24-0.53-0.39-0.79c-0.16-0.27-0.35-0.53-0.57-0.77c-0.03-0.03-0.05-0.06-0.08-0.09
		c0.24,0.14,0.49,0.28,0.75,0.4c0.01,0.02,0.03,0.03,0.04,0.04c0.01,0,0.52,0.4,1.09,1.95c0.61,1.64,1.25,3.81,1.29,4.24
		c-0.15,0.32-2.18,1.86-4.16,3.25c-0.04-0.61-0.14-2.13-0.29-4.27c-0.19-2.56-0.61-6.82-0.69-7.58l0.02-0.01
		c0.01,0,0.01-0.01,0.02-0.01c0.05,0.18,0.16,0.43,0.37,0.72c0.14,0.46,0.23,0.85,0.29,1.14c0.07,0.37,0.08,0.59,0.1,0.59
		C25.33,21.84,25.34,21.61,25.29,21.24z M24.73,18.77c-0.05,0.12-0.12,0.19-0.19,0.24l-0.12,0.06c-0.06,0.02-0.12,0.02-0.16,0.02
		c-0.23,0-0.45-0.12-0.51-0.23c-0.2-0.35-0.36-1.83-0.18-1.97c0.05-0.01,0.31-0.07,0.6-0.07c0.21,0,0.39,0.03,0.53,0.09
		C25.06,17.07,25.01,18.07,24.73,18.77z M20.17,25.35c0.02-0.24,0.06-0.48,0.11-0.71c0.05-0.24,0.12-0.47,0.19-0.7
		c0.07-0.23,0.16-0.45,0.25-0.67c0.1-0.22,0.21-0.43,0.33-0.64c0.23-0.42,0.48-0.84,0.77-1.22c0.07-0.09,0.15-0.19,0.23-0.27
		c0.03-0.03,0.06-0.06,0.09-0.09c0.13-0.07,0.24-0.15,0.36-0.23c-0.07,0.12-0.13,0.24-0.18,0.36c-0.13,0.28-0.25,0.57-0.36,0.86
		c-0.1,0.29-0.2,0.59-0.25,0.9c-0.01,0.08-0.02,0.16-0.02,0.24c0.01,0.04,0.01,0.09,0.02,0.14c0.01,0.02,0.02,0.05,0.04,0.08
		c0.02,0.02,0.04,0.05,0.08,0.06c0.07,0.03,0.13,0.01,0.17-0.01c0.04-0.02,0.09-0.04,0.12-0.07c0.07-0.05,0.13-0.12,0.18-0.18
		c0.1-0.13,0.18-0.27,0.24-0.41c0.07-0.14,0.13-0.29,0.19-0.43c0.11-0.29,0.21-0.58,0.3-0.88c0.15-0.51,0.29-1.03,0.4-1.55
		c0.21-0.26,0.33-0.48,0.4-0.61c0.02,0.01,0.05,0.02,0.08,0.03c-0.07,0.4-0.32,1.98-0.59,3.79c-0.27,1.8-0.47,4.46-0.53,5.2
		c-0.32-0.08-1.03-0.29-1.89-0.68c-1.02-0.47-2.24-1.47-2.56-1.75c0.09-0.31,0.38-1.28,0.82-2.34c0.45-1.08,0.94-1.87,1.08-2.09
		c0.08,0.02,0.15,0.03,0.24,0.04c0.05,0.01,0.1,0.01,0.15,0.01c0.36,0,0.77-0.12,1.17-0.3c-0.02,0.03-0.04,0.05-0.07,0.08
		c-0.3,0.39-0.54,0.81-0.78,1.24c-0.12,0.21-0.23,0.42-0.32,0.65c-0.1,0.23-0.18,0.46-0.24,0.69
		C20.24,24.39,20.16,24.87,20.17,25.35z M22.66,20.85c0.05-0.1,0.11-0.19,0.17-0.29c0.02-0.02,0.04-0.04,0.07-0.06
		c0.12-0.12,0.23-0.23,0.32-0.32c-0.11,0.43-0.23,0.85-0.36,1.28c-0.09,0.29-0.19,0.58-0.3,0.86c-0.05,0.14-0.12,0.28-0.18,0.42
		c-0.07,0.13-0.14,0.26-0.23,0.38c-0.04,0.05-0.09,0.11-0.14,0.15c-0.03,0.02-0.05,0.03-0.08,0.04c-0.03,0.01-0.05,0.01-0.05,0.01
		c0,0-0.01-0.01-0.02-0.04c-0.01-0.02-0.01-0.05-0.01-0.09c0-0.07,0.01-0.14,0.02-0.21c0.05-0.3,0.15-0.59,0.25-0.87
		c0.1-0.29,0.23-0.57,0.35-0.84C22.52,21.12,22.59,20.99,22.66,20.85z M14.94,37.47c-0.17-0.15-0.41-0.29-0.69-0.42
		c-0.37-0.16-0.54-0.42-0.49-0.56c0.05-0.16,0.45-0.32,1.29-0.1c0.04,0.01,0.08,0.02,0.12,0.03L14.94,37.47z M21.37,38.62
		c-0.07,0.19-0.56,0.46-1.66,0.09c-0.81-0.27-1.48-0.8-2.13-1.31c-0.73-0.57-1.47-1.16-2.44-1.4c-0.34-0.09-0.61-0.12-0.83-0.12
		c-0.24,0-0.42,0.04-0.56,0.1c0.23-1.13,1.01-4.65,2.53-8.56c1.55-4.01,2.84-6.1,3.2-6.65c0.08,0.14,0.16,0.27,0.26,0.4
		c0.05,0.07,0.11,0.13,0.18,0.18c-0.18,0.27-0.66,1.04-1.1,2.12c-0.54,1.3-0.86,2.47-0.86,2.48c-0.02,0.07,0.01,0.13,0.05,0.17
		c0.06,0.05,1.5,1.31,2.72,1.87c0.43,0.2,0.81,0.35,1.14,0.46c-0.22,1.01-1.45,6.55-1.64,8.63c-0.01,0.03,0.01,0.07,0.02,0.09
		c-0.06,0.16-0.07,0.33-0.02,0.48c0.15,0.5,0.83,0.78,1.12,0.9C21.37,38.56,21.39,38.57,21.37,38.62z M21.45,38.15
		c-0.24-0.1-0.74-0.32-0.83-0.62c-0.03-0.11-0.01-0.24,0.09-0.37c0.12-0.18,0.36-0.3,0.84-0.25L21.45,38.15z M31.8,36.77
		c-0.53,0.43-1.13,0.93-1.79,1.22c-1.44,0.63-2.92,1.09-5.17-0.17c-2.29-1.28-3.67-1.63-4.31-1.07c0.28-2.27,1.37-7.2,1.59-8.21
		c0.46,0.14,0.74,0.2,0.76,0.21c0.01,0,0.02,0,0.03,0c0.04,0,0.07-0.01,0.1-0.03c0.04-0.03,0.06-0.08,0.07-0.12
		c0-0.03,0.23-3.29,0.54-5.38c0.24-1.65,0.48-3.1,0.57-3.66c0.1,1.03,0.5,5.01,0.67,7.45c0.2,2.8,0.32,4.54,0.32,4.56
		c0,0.06,0.04,0.12,0.09,0.14c0.02,0.01,0.05,0.02,0.07,0.02c0.03,0,0.07-0.01,0.1-0.03c0.01-0.01,1.14-0.79,2.25-1.62
		c2.31-1.72,2.3-1.94,2.3-2.07c-0.03-0.46-0.71-2.73-1.31-4.35c-0.3-0.8-0.59-1.32-0.81-1.64c0.45,0.13,0.89,0.15,1.24-0.02
		c0.27-0.13,0.47-0.46,0.62-0.88c0.42,0.75,1.62,3.13,2.79,7.66c1.02,3.95,1.48,6.24,1.66,7.24c-0.13-0.08-0.29-0.14-0.46-0.19
		C33.13,35.66,32.51,36.18,31.8,36.77z M33.57,37.37l-0.26-1.14c0.12-0.04,0.22-0.05,0.32-0.02c0.34,0.08,0.56,0.24,0.58,0.42
		c0.03,0.16-0.12,0.36-0.37,0.53C33.73,37.22,33.64,37.29,33.57,37.37z M39.92,36.16c-0.01,0.04-0.02,0.09-0.03,0.13
		c-0.15,0.47-1.67,0.99-3.29,0.99c-0.02,0-0.04,0-0.07,0c0.38-0.36,0.82-0.78,1.48-1.14C39.18,35.5,39.76,35.99,39.92,36.16z
		 M31.35,18.76c0.26,0.29,0.58,0.68,0.93,1.18c1.2,1.72,4.08,6.94,5.59,10.65c0.32,0.79,0.6,1.47,0.86,2.08
		c0.58,1.39,0.97,2.33,1.13,2.95c-0.4-0.22-1.07-0.35-2.03,0.18c-0.71,0.4-1.18,0.84-1.59,1.23c-0.51,0.47-0.91,0.85-1.59,1.02
		c-0.64,0.15-0.88,0.02-0.92-0.07c-0.04-0.1,0.07-0.3,0.32-0.47c0.41-0.26,0.6-0.6,0.56-0.93c-0.02-0.08-0.04-0.16-0.09-0.24
		c-0.13-0.74-0.56-3.08-1.73-7.63c-1.33-5.15-2.71-7.57-2.95-7.95c0.08-0.3,0.13-0.63,0.18-0.94c0.34,0.46,0.65,0.97,0.94,1.47
		c0.35,0.6,0.67,1.23,0.98,1.85c0.31,0.63,0.61,1.26,0.9,1.9c0.29,0.64,0.57,1.28,0.84,1.93c-0.25-0.66-0.51-1.31-0.78-1.96
		s-0.55-1.29-0.84-1.93c-0.29-0.64-0.59-1.28-0.92-1.9c-0.16-0.31-0.34-0.62-0.52-0.92c-0.18-0.29-0.36-0.57-0.56-0.84
		c0.01-0.1,0.02-0.2,0.03-0.3C30.62,19.09,31.14,18.87,31.35,18.76z M31.11,18.5c-0.22,0.1-0.61,0.25-1.01,0.27
		c0.02-0.45,0.02-0.76,0.02-0.77c0-0.02,0-0.03,0-0.04l0.37-0.1c0.05,0.08,0.14,0.16,0.27,0.29C30.85,18.24,30.97,18.35,31.11,18.5z
		 M31.01,16.84C31,16.85,31,16.86,30.99,16.88c-0.08,0.2-0.26,0.51-0.38,0.56c-0.04,0.02-0.07,0.04-0.09,0.05
		c0,0.01-0.01,0.01-0.01,0.01l-0.46,0.13c-0.16-0.45-0.65-0.77-1.95-0.9c-1.51-0.15-2.76,0.09-2.97,0.14
		c-0.07-0.12-0.16-0.2-0.29-0.26c-0.18-0.08-0.41-0.13-0.67-0.13c-0.37,0-0.69,0.09-0.71,0.09c0,0-0.01,0-0.01,0.01
		c-0.04,0.01-0.07,0.03-0.1,0.06c-0.01-0.01-0.01-0.01-0.02-0.01c-0.05-0.02-1.27-0.55-2.62-0.52c-1.74,0.03-2.1,0.45-2.1,0.79
		c0,0.03-0.01,0.08-0.01,0.14c-0.01,0.09-0.01,0.21-0.01,0.35c-0.12-0.11-0.25-0.35-0.31-0.51c-0.01-0.02-0.01-0.03-0.02-0.04
		c-0.01-0.05,0-0.11,0.01-0.17c0.02-0.13,0.05-0.27,0.09-0.42c0.04-0.14,0.09-0.29,0.14-0.43l0.3-0.87c0.1-0.3,0.2-0.59,0.3-0.89
		c0.18-0.6,0.29-1.23,0.3-1.86c0.01-0.62-0.06-1.25-0.26-1.84c0.05,0.31,0.08,0.61,0.09,0.92s-0.01,0.61-0.04,0.91
		c-0.02,0.2-0.05,0.4-0.09,0.59c-0.73-1.01-1.4-2.94-1.5-3.25c0.35-0.38,0.67-0.73,1.02-1.04c0.7-0.64,1.55-1.12,1.95-1.34
		c0.1,0.31,0.38,0.79,1.17,1.13c1.15,0.49,2.6,0.51,2.66,0.51h0.52c0.15,0.02,1.54,0.15,2.66-0.33c0.74-0.31,1.01-0.82,1.09-1.22
		l1.83,1.03c0.44,0.31,0.83,0.71,1.23,1.18c-0.02,0.02-0.03,0.03-0.03,0.05c-0.01,0.03-0.73,2.2-1.52,3.29
		c-0.04-0.19-0.07-0.39-0.09-0.59c-0.03-0.3-0.04-0.6-0.04-0.91c0.01-0.31,0.03-0.61,0.09-0.92c-0.2,0.59-0.27,1.22-0.26,1.84
		c0.01,0.63,0.12,1.25,0.3,1.86c0.09,0.3,0.19,0.59,0.3,0.89l0.3,0.87c0.05,0.14,0.1,0.29,0.14,0.43c0.04,0.14,0.08,0.29,0.09,0.42
		C31.01,16.73,31.02,16.79,31.01,16.84z M41.6,20.89c-0.14,0.37-1.27,2.1-1.81,2.38c-0.16,0.08-0.29,0.1-0.38,0.07
		c-0.02-0.01-0.04-0.02-0.05-0.03c0.24-0.22,0.69-0.72,0.98-1.5c0.35-0.91,0.97-1.18,1-1.19c0.03-0.01,0.06-0.03,0.08-0.06
		c0.02-0.03,0.04-0.05,0.07-0.08C41.56,20.59,41.64,20.76,41.6,20.89z M39.77,22.07c-0.38-0.08-1-0.26-1.23-0.53
		c-0.14-0.16-0.18-0.34-0.11-0.46c0.08-0.13,0.28-0.17,0.52-0.11c0.27,0.07,0.47,0.38,0.63,0.63c0.09,0.14,0.16,0.26,0.25,0.33
		C39.82,21.97,39.8,22.02,39.77,22.07z M40.39,19.63c-0.02-0.1-0.04-0.21-0.06-0.33c-0.05-0.29-0.16-0.87-0.11-1.03
		c0.03,0.02,0.12,0.07,0.27,0.24c0.6,0.65,0.27,1.74,0.1,2.15c-0.04,0.04-0.08,0.08-0.11,0.12C40.48,20.36,40.44,19.93,40.39,19.63z
		 M41.12,20.26c-0.03,0.02-0.08,0.04-0.14,0.08c0.16-0.57,0.25-1.42-0.3-2.02c-0.19-0.2-0.4-0.4-0.59-0.3
		c-0.24,0.12-0.18,0.58-0.03,1.33c0.02,0.12,0.04,0.23,0.06,0.32c0.1,0.61,0.12,1.14,0.05,1.54c-0.08,0.13-0.15,0.27-0.21,0.45
		c-0.04-0.06-0.1-0.14-0.14-0.21c-0.18-0.27-0.42-0.65-0.79-0.74c-0.36-0.09-0.67-0.01-0.81,0.23c-0.14,0.23-0.09,0.52,0.13,0.78
		c0.28,0.33,0.91,0.51,1.3,0.6c-0.07,0.1-0.13,0.2-0.2,0.28c-0.03,0.01-0.06,0.01-0.09,0.02c-0.22,0.04-0.52,0.08-0.85,0.09
		c-0.34,0.02-0.63-0.02-0.85-0.06c-0.21-0.04-0.34-0.08-0.36-0.06c-0.02,0.02,0.1,0.12,0.32,0.2c0.22,0.08,0.54,0.14,0.89,0.12
		c0.31-0.01,0.59-0.07,0.8-0.13c-0.19,0.22-0.33,0.34-0.34,0.34s-0.02,0.02-0.03,0.03c-0.03,0.04-0.87,0.97-2.19,0.17
		c-0.8-0.48-4.09-4.75-5.35-6.42c0.01-0.08,0.01-0.16,0-0.25c-0.04-0.34-0.14-0.64-0.24-0.93c-0.2-0.59-0.43-1.15-0.64-1.73
		c-0.11-0.3-0.2-0.6-0.26-0.91c0.79-0.98,1.51-3.07,1.63-3.44c0.22,0.27,0.45,0.56,0.68,0.85c0.4,0.52,0.86,1.11,1.4,1.73
		c1.55,1.75,4.61,3.93,5.85,4.49c0.99,0.45,1.61,1.07,1.78,1.78C41.71,19.06,41.54,19.73,41.12,20.26z"/>
</g>
</svg>
