<?xml version="1.0" encoding="utf-8"?>
<!-- Generator: Adobe Illustrator 27.3.1, SVG Export Plug-In . SVG Version: 6.00 Build 0)  -->
<svg version="1.1" id="Layer_1" xmlns="http://www.w3.org/2000/svg" xmlns:xlink="http://www.w3.org/1999/xlink" x="0px" y="0px"
	 viewBox="0 0 50 50" style="enable-background:new 0 0 50 50;" xml:space="preserve">
<style type="text/css">
	.st0{fill:none;}
	.st1{stroke:#000000;stroke-miterlimit:10;}
	.st2{stroke:#000000;stroke-width:0.75;stroke-miterlimit:10;}
	.st3{clip-path:url(#SVGID_00000152251057317012705970000017626978769765417602_);}
	.st4{clip-path:url(#SVGID_00000065056719133377101410000009192674712008300217_);}
	.st5{fill:#FFFFFF;}
	.st6{clip-path:url(#SVGID_00000051345209607309205090000013129712920226045067_);}
	.st7{fill:#231F20;}
	.st8{clip-path:url(#SVGID_00000049917338335251522990000012305366492726369431_);}
	.st9{clip-path:url(#SVGID_00000003796898603791311650000012935660918294975140_);}
	.st10{clip-path:url(#SVGID_00000111905123957886845120000011844639715154565566_);}
	.st11{clip-path:url(#SVGID_00000038370792327301452900000014967091929508653752_);}
	.st12{clip-path:url(#SVGID_00000011752799721403652960000006872376803007506861_);}
	.st13{clip-path:url(#SVGID_00000160154328890505317160000017172516178241328575_);}
	.st14{clip-path:url(#SVGID_00000107546327978418609500000008187686262684266652_);}
	.st15{clip-path:url(#SVGID_00000099661256165978756370000017454824443070519208_);}
	.st16{clip-path:url(#SVGID_00000173154476021271495510000016411004336758094762_);}
	.st17{clip-path:url(#SVGID_00000090989000190905818150000016402334867599609511_);}
	.st18{clip-path:url(#SVGID_00000000908278332144167270000010698188967978338191_);}
	.st19{clip-path:url(#SVGID_00000131362624551941054590000012497682074677358268_);}
	.st20{clip-path:url(#SVGID_00000036217171670779521900000012942522788411187094_);}
	.st21{clip-path:url(#SVGID_00000052077055275533536970000016707488384642861450_);}
	.st22{clip-path:url(#SVGID_00000124120269751711430180000004537227045521052316_);}
	.st23{clip-path:url(#SVGID_00000137819264925730444300000001867631544300781714_);}
	.st24{clip-path:url(#SVGID_00000100373223200151558610000001346920143091886506_);}
	.st25{clip-path:url(#SVGID_00000134226563822788064660000007657194384423165074_);}
	.st26{clip-path:url(#SVGID_00000096038660500086575540000007942478189378952848_);}
	.st27{clip-path:url(#SVGID_00000102537704603844565360000012524833891351032457_);}
	.st28{clip-path:url(#SVGID_00000153663654618179124820000015533474450425085361_);}
	.st29{clip-path:url(#SVGID_00000172423512161546793610000009200273169140681655_);}
	.st30{clip-path:url(#SVGID_00000050662145361336242600000014354624655990477481_);}
	.st31{fill-rule:evenodd;clip-rule:evenodd;}
	.st32{clip-path:url(#SVGID_00000051361223529367218460000017531657632748442808_);}
	.st33{clip-path:url(#SVGID_00000052103145501603832330000012409532309612425373_);}
	.st34{stroke:#000000;stroke-width:0.5;stroke-miterlimit:10;}
	.st35{clip-path:url(#SVGID_00000019642585516113069690000003546583211388285081_);}
	.st36{clip-path:url(#SVGID_00000142171241258428295770000004169091038656628377_);}
	.st37{clip-path:url(#SVGID_00000040566466714820255870000013434968481331454612_);}
	.st38{fill:#1A1A1A;}
	.st39{clip-path:url(#SVGID_00000086655752765148625400000014652948377542005888_);}
	.st40{clip-path:url(#SVGID_00000034774508003113576310000000524740964670230957_);}
	.st41{clip-path:url(#SVGID_00000145043536073900187650000018326510712784646569_);}
	.st42{clip-path:url(#SVGID_00000029004036389476373610000005394522989992795023_);}
	.st43{clip-path:url(#SVGID_00000072265663681835440240000011930881227699057855_);}
	.st44{clip-path:url(#SVGID_00000077302595822176740570000005449601348801593522_);}
	.st45{clip-path:url(#SVGID_00000140726748056141964180000007798100321556973977_);}
	.st46{clip-path:url(#SVGID_00000156575173376333712600000010857439888526972588_);}
	.st47{clip-path:url(#SVGID_00000080179083561326309500000010120129343729801865_);}
	.st48{fill:#F1F1F1;}
	.st49{fill:#E8E8E8;}
	.st50{fill:#FEFEFE;}
	.st51{fill:#CCCCCC;}
	.st52{fill:#B3B3B3;}
	.st53{fill:#E6E6E6;}
	.st54{fill:#EBEBEB;}
	.st55{fill:#EEEEEE;}
	.st56{fill:#F8F8F8;}
	.st57{fill:#FBFBFB;}
	.st58{fill:#383838;}
	.st59{fill:#232323;}
	.st60{fill:#F6F6F6;}
	.st61{fill:#535353;}
	.st62{fill:#0A0A0A;}
	.st63{fill:#F5F5F5;}
	.st64{fill:#818181;}
	.st65{fill:#4A4A4A;}
	.st66{fill:#999999;}
	.st67{fill:url(#SVGID_00000039821779588463589360000004511584611322356097_);}
	.st68{fill:url(#SVGID_00000076585431388261049810000006241856836602812835_);}
	.st69{fill:#0E0E0D;}
	.st70{fill:#333333;}
	.st71{fill:#808080;}
	.st72{fill:url(#SVGID_00000059296674521895101160000006569000937704082106_);}
	.st73{fill:#666666;}
	.st74{fill:url(#SVGID_00000124858787561552268670000016669410306999362195_);}
	.st75{fill:url(#SVGID_00000170977385208146572460000015352305844773323444_);}
	.st76{fill:url(#SVGID_00000114756521011274056730000018380790206961344703_);}
	.st77{fill:url(#SVGID_00000128443701017487630560000001786150676045382275_);}
	.st78{fill:url(#SVGID_00000071534776664616123220000011394253159770735807_);}
	.st79{clip-path:url(#SVGID_00000054264668072176230270000018133255155362272435_);}
	.st80{clip-path:url(#SVGID_00000062891423763799148310000005591549753089602190_);}
	.st81{clip-path:url(#SVGID_00000044872210921231983280000007782290057645470139_);}
	.st82{clip-path:url(#SVGID_00000106827832814751240030000016075228767498518713_);}
	.st83{clip-path:url(#SVGID_00000063626990471403639400000006988293148792452014_);}
	.st84{fill:#241F20;stroke:#000000;stroke-width:0.5;stroke-miterlimit:10;}
	.st85{clip-path:url(#SVGID_00000083079413983586204500000013232858549761145247_);}
	.st86{clip-path:url(#SVGID_00000131366424396147540780000003932551702359589041_);}
	.st87{clip-path:url(#SVGID_00000093171439501249587530000011756697470716054956_);}
	.st88{clip-path:url(#SVGID_00000101095953653224389310000014338457083123807157_);}
	.st89{clip-path:url(#SVGID_00000162321258610829264850000001976995678965753791_);}
	.st90{clip-path:url(#SVGID_00000177480928415193981980000007635387094769931709_);}
	.st91{clip-path:url(#SVGID_00000079476601223674245500000006954282019458054056_);}
	.st92{clip-path:url(#SVGID_00000078752337848818494410000001888839132059385271_);}
	.st93{clip-path:url(#SVGID_00000023251759708038780530000015336180488149489040_);}
	.st94{clip-path:url(#SVGID_00000056396661067136788430000004671257070013085061_);}
	.st95{clip-path:url(#SVGID_00000051359560805647644090000017884640434386516154_);}
	.st96{clip-path:url(#SVGID_00000089544569537688404620000014072084151869177259_);}
	.st97{clip-path:url(#SVGID_00000067227908365350580150000010259995477845038769_);}
	.st98{clip-path:url(#SVGID_00000119111817702977733840000006717851841424599169_);}
	.st99{clip-path:url(#SVGID_00000183964284081487231800000006008583764767514764_);}
	.st100{clip-path:url(#SVGID_00000093136719995738749080000007338100154429869245_);}
	.st101{clip-path:url(#SVGID_00000096027069854873806240000008386061824838408601_);}
	.st102{clip-path:url(#SVGID_00000007418912890909777970000007857076336357093812_);}
	.st103{clip-path:url(#SVGID_00000158029427469645987930000012038638164844665012_);}
	.st104{clip-path:url(#SVGID_00000000197594775288149690000012159300360856409271_);}
	.st105{clip-path:url(#SVGID_00000179628338960485737170000008769176646219081143_);}
	.st106{clip-path:url(#SVGID_00000108993071243235200830000016813446365831435704_);}
	.st107{clip-path:url(#SVGID_00000138543695650663657790000014562970300804695217_);}
	.st108{clip-path:url(#SVGID_00000041998199048060559970000004038743424732899716_);}
	.st109{clip-path:url(#SVGID_00000135687244118294549390000003363386934664862890_);}
	.st110{clip-path:url(#SVGID_00000031921973991478555890000001562663791034583722_);}
	.st111{clip-path:url(#SVGID_00000003802093288430729200000015832912975690945970_);}
	.st112{clip-path:url(#SVGID_00000151514058730108044510000002366598052532958107_);}
	.st113{clip-path:url(#SVGID_00000173848458781519171700000016896274250951905182_);}
	.st114{clip-path:url(#SVGID_00000070101204226364245310000012282939898365478335_);}
	.st115{fill:#FFFFFF;stroke:#000000;stroke-miterlimit:10;}
	.st116{clip-path:url(#SVGID_00000022542005666165149030000012455134265889609633_);}
	.st117{clip-path:url(#SVGID_00000139262137553924119440000009744515526495770753_);}
	.st118{fill:none;stroke:#010101;stroke-miterlimit:10;}
	.st119{fill:#010101;stroke:#000000;stroke-miterlimit:10;}
	.st120{clip-path:url(#SVGID_00000078020706916858881340000007951930732279675270_);}
	.st121{fill:#010101;stroke:#010101;stroke-miterlimit:10;}
	.st122{clip-path:url(#SVGID_00000003077426950176345480000001082486660933791112_);}
	.st123{clip-path:url(#SVGID_00000043456286620817100630000004826649511202447273_);}
	.st124{clip-path:url(#SVGID_00000149362250080172573400000001356317540267545023_);}
	.st125{clip-path:url(#SVGID_00000134249626422462059960000006116867222736224179_);}
	.st126{clip-path:url(#SVGID_00000093135596931432898700000018099200908993366429_);}
	.st127{fill:none;stroke:#000000;stroke-width:3;stroke-miterlimit:10;}
	.st128{clip-path:url(#SVGID_00000020394144181226744560000009490752366047264645_);}
	.st129{clip-path:url(#SVGID_00000036959385016207379680000010852903736059061157_);}
	.st130{clip-path:url(#SVGID_00000096050671154568061200000011917851499881006513_);}
	.st131{clip-path:url(#SVGID_00000134928849333179742340000014532198942359875771_);}
	.st132{fill:#040606;}
	.st133{clip-path:url(#SVGID_00000018931404887673559160000009170911548431340962_);}
	.st134{clip-path:url(#SVGID_00000056391868660675822880000005930212507049142922_);}
	.st135{clip-path:url(#SVGID_00000180339917372966753350000006742833853730998430_);}
	.st136{clip-path:url(#SVGID_00000070804913534443585540000005615303674298222230_);}
	.st137{clip-path:url(#SVGID_00000044171005495263667420000003562085613872542385_);}
	.st138{clip-path:url(#SVGID_00000165944073961690327890000017014327964204067493_);}
	.st139{clip-path:url(#SVGID_00000038391345807284235130000009380049249620205754_);}
	.st140{fill:#FFFFFF;stroke:#000000;stroke-width:1.5;stroke-miterlimit:10;}
	.st141{clip-path:url(#SVGID_00000027575244888267233120000001990740747120795800_);}
	.st142{fill:#BDBCBC;}
	.st143{clip-path:url(#SVGID_00000178909229416966687740000013056699306724300209_);}
	.st144{fill:#2E2A2B;}
	.st145{clip-path:url(#SVGID_00000018923190994137869090000008201679561629999250_);}
	.st146{clip-path:url(#SVGID_00000155125624065944601970000003192707098767297677_);}
	.st147{clip-path:url(#SVGID_00000050649719383471641530000006616613013031059125_);}
	.st148{clip-path:url(#SVGID_00000041272570031305081590000017415529455035206035_);}
	.st149{clip-path:url(#SVGID_00000174577114669418560710000013846137844397938315_);}
	.st150{fill:#272324;}
	.st151{clip-path:url(#SVGID_00000143583377943065918280000002906744873054080436_);}
	.st152{clip-path:url(#SVGID_00000012461677321467427120000003574704840637519801_);}
	.st153{clip-path:url(#SVGID_00000121990454238829169880000008574957377609676979_);}
	.st154{clip-path:url(#SVGID_00000143611954618439888180000012383089982058546823_);}
	.st155{clip-path:url(#SVGID_00000181790325769002506200000001541104315538877876_);}
	.st156{clip-path:url(#SVGID_00000124844388038793413970000005842851938041951888_);}
	.st157{fill:none;stroke:#000000;stroke-width:0.8735;stroke-linecap:round;stroke-linejoin:round;stroke-miterlimit:10;}
	.st158{clip-path:url(#SVGID_00000115507351319925983090000007451088507529030025_);}
	.st159{clip-path:url(#SVGID_00000123442970121638991360000013456077916722846653_);}
	.st160{clip-path:url(#SVGID_00000011741720584202415090000011878019457675671684_);}
	.st161{clip-path:url(#SVGID_00000148637960699369878370000015468759857703730592_);}
	.st162{clip-path:url(#SVGID_00000151539224763931191480000011316617730285608361_);}
	.st163{clip-path:url(#SVGID_00000090976521047225326980000009069483661366889142_);}
	.st164{clip-path:url(#SVGID_00000015320287689265540510000004945278655232210622_);}
	.st165{clip-path:url(#SVGID_00000086689481011780803640000002371924530740227774_);}
	.st166{clip-path:url(#SVGID_00000088101851864371327110000005595077488758926992_);}
	.st167{clip-path:url(#SVGID_00000000182064739244329810000013031833294151337368_);}
	.st168{clip-path:url(#SVGID_00000131325531193846517700000002497274604103201152_);}
	.st169{clip-path:url(#SVGID_00000053544307332711031690000006910648519508756155_);}
	.st170{clip-path:url(#SVGID_00000042716499878603373000000009369428520847085961_);}
	.st171{clip-path:url(#SVGID_00000142872006409149422800000013106104199662491278_);}
	.st172{clip-path:url(#SVGID_00000136380630657685569760000013987647307662161054_);}
	.st173{clip-path:url(#SVGID_00000037694445628728850020000007846749393705456275_);}
	.st174{clip-path:url(#SVGID_00000136385003918591718150000002634584759832126090_);}
	.st175{clip-path:url(#SVGID_00000138561204792762364840000011780576948463477171_);}
	.st176{clip-path:url(#SVGID_00000129901130736909345980000008654732933639798199_);}
	.st177{clip-path:url(#SVGID_00000006667197011019256000000014264424680250416769_);}
	.st178{clip-path:url(#SVGID_00000046333719371134868460000000065355846091896708_);}
	.st179{clip-path:url(#SVGID_00000119839096796484447040000018257527606657837707_);}
	.st180{clip-path:url(#SVGID_00000002386344117836659710000003432007044916732059_);}
	.st181{clip-path:url(#SVGID_00000036963836593765908920000000078925600488990378_);}
	.st182{clip-path:url(#SVGID_00000051382934529237110450000006433643925792075412_);}
	.st183{clip-path:url(#SVGID_00000072246068899778937860000006637506813549748651_);}
	.st184{clip-path:url(#SVGID_00000039098819408559633650000003891530480001469606_);}
	.st185{clip-path:url(#SVGID_00000181799347781459947560000009858783459283301776_);}
	.st186{clip-path:url(#SVGID_00000132083624802236880360000007087983191039487120_);}
	.st187{clip-path:url(#SVGID_00000017497611501501389130000009416081676549536651_);}
	.st188{clip-path:url(#SVGID_00000052796707851232811000000001252548196116915596_);}
	.st189{clip-path:url(#SVGID_00000116235965896339526720000000490597043214897292_);}
	.st190{clip-path:url(#SVGID_00000092450157069301663040000012581619274158174390_);}
	.st191{clip-path:url(#SVGID_00000134221687817710506680000002561020257494124724_);}
	.st192{clip-path:url(#SVGID_00000172442624543059587650000016587699280781960601_);}
	.st193{clip-path:url(#SVGID_00000105409029000018655110000005022909784225330073_);}
	.st194{clip-path:url(#SVGID_00000066474762469644728090000010826705015202558356_);}
	.st195{clip-path:url(#SVGID_00000114068052848847570820000002424839097180759688_);}
	.st196{fill:#E5E5E5;}
	.st197{fill:#1D1D1B;}
	.st198{fill:none;stroke:#000000;stroke-miterlimit:10;}
	.st199{fill:#FEFEFE;stroke:#000000;stroke-miterlimit:10;}
	.st200{clip-path:url(#SVGID_00000070820487375646649540000006077062298024703891_);}
	.st201{clip-path:url(#SVGID_00000057129523717022023760000001722858883524533133_);}
	.st202{clip-path:url(#SVGID_00000173848116259956457620000012282547831285528976_);}
	.st203{fill:#231F1F;}
	.st204{fill:#020000;}
	.st205{clip-path:url(#SVGID_00000019676796999770829340000003405126605464828858_);}
	.st206{clip-path:url(#SVGID_00000090256397880485704170000014089715860840793753_);}
	.st207{clip-path:url(#SVGID_00000157294913217226683230000016650369620961821117_);}
	.st208{clip-path:url(#SVGID_00000144338646435196887460000012995170833111337385_);}
	.st209{fill:#050000;}
	.st210{clip-path:url(#SVGID_00000015342670873877132730000005106765718040291767_);}
	.st211{clip-path:url(#SVGID_00000107555517395653113530000018424663071399570093_);}
	.st212{clip-path:url(#SVGID_00000152262335570305774270000013601033394165185977_);}
	.st213{clip-path:url(#SVGID_00000116955206618721987490000017955947099440025502_);}
	.st214{clip-path:url(#SVGID_00000042696279198621432350000011775561517781114005_);}
	.st215{clip-path:url(#SVGID_00000035514724974670430620000004064933147214228660_);}
	.st216{fill:#12100F;}
	.st217{clip-path:url(#SVGID_00000040550054041327730690000003550643962352519048_);}
	.st218{clip-path:url(#SVGID_00000065036498792439780870000012611563719492050077_);}
	.st219{fill:none;stroke:#000000;stroke-width:0.5;stroke-miterlimit:10;}
	.st220{clip-path:url(#SVGID_00000060722982523940714460000005984467704054070715_);}
	.st221{clip-path:url(#SVGID_00000101080042456700804550000005439200523379033238_);}
	.st222{clip-path:url(#SVGID_00000144333763491020631660000014489713644081458598_);}
	.st223{clip-path:url(#SVGID_00000058591134840083657990000006514472067132047764_);}
	.st224{fill:none;stroke:#000000;stroke-width:0.25;stroke-miterlimit:10;}
	.st225{clip-path:url(#SVGID_00000064323166485739358280000011773093457123538861_);}
	.st226{clip-path:url(#SVGID_00000093160381087154971470000009141538955258443451_);}
	.st227{clip-path:url(#SVGID_00000115475544878762517160000002649007806896172453_);}
</style>
<g>
	<g>
		<defs>
			<rect id="SVGID_00000050662598742216542200000002577704661224388536_" x="13.49" y="15" width="28.13" height="24.32"/>
		</defs>
		<clipPath id="SVGID_00000040538151455702266460000002368296569565050764_">
			<use xlink:href="#SVGID_00000050662598742216542200000002577704661224388536_"  style="overflow:visible;"/>
		</clipPath>
		<g style="clip-path:url(#SVGID_00000040538151455702266460000002368296569565050764_);">
			<path d="M41.27,15.85c-0.49-0.52-1.39-0.46-1.73,0.13h-0.57v-0.49c0.01-0.15-0.16-0.24-0.28-0.18c-0.49,0.16-0.95-0.14-1.48-0.14
				c-0.37-0.01-0.6,0.09-0.8,0.2c-0.14,0.07-0.26,0.13-0.41,0.09c-0.28-0.08-0.42-0.23-0.76-0.28c-0.38-0.18-0.91-0.04-1.3,0.12
				c-0.5,0.18-0.96-0.14-1.5-0.13c-0.38-0.01-0.6,0.09-0.8,0.2c-0.22,0.15-0.44,0.12-0.66-0.01c-0.31-0.16-0.64-0.32-1.59-0.07
				c-0.08,0.02-0.15,0.11-0.15,0.19v0.5h-3.63v-0.49c0.01-0.15-0.16-0.24-0.28-0.18c-0.49,0.16-0.95-0.14-1.48-0.14
				c-0.38-0.01-0.6,0.09-0.8,0.2c-0.14,0.07-0.26,0.13-0.41,0.09c-0.28-0.08-0.42-0.23-0.76-0.28c-0.38-0.18-0.91-0.04-1.3,0.12
				c-0.5,0.18-0.96-0.14-1.51-0.13c-0.37-0.01-0.6,0.09-0.8,0.2c-0.22,0.15-0.44,0.12-0.66-0.01c-0.31-0.16-0.64-0.32-1.59-0.07
				c-0.08,0.02-0.15,0.11-0.15,0.19v0.5h-0.25c-0.62-0.91-2.09-0.45-2.08,0.65c-0.01,1.11,1.48,1.56,2.09,0.64h0.24
				c0,0.01,0,20.8,0,20.82c0,0.11,0.01,0.71,0.03,0.84c0.02,0.16,0.15,0.27,0.39,0.32c0.23,0.05,0.85,0.01,1.11-0.11
				c0.18-0.06,0.34-0.12,0.78-0.03c0.71,0.14,1.34,0.27,1.78,0.09c0.28-0.11,0.47-0.17,0.77-0.13c0.17,0.18,0.39,0.18,0.68,0.18
				c0.15,0.04,0.25,0.05,0.36,0.04c0.13-0.01,0.24-0.06,0.36-0.16l0.04-0.02c0.18-0.06,0.34-0.12,0.78-0.03l0.13,0.03
				c0.57,0.11,0.98,0.19,1.35,0.15c0.34-0.04,0.63-0.23,0.96-0.2c0.11,0.01,0.2-0.07,0.21-0.19c0.01-0.01-0.01-21.62,0-21.63h3.64
				c0,0.01,0,20.8,0,20.82c0,0.11,0.01,0.71,0.03,0.84c0.02,0.16,0.15,0.27,0.39,0.32c0.23,0.05,0.85,0.01,1.11-0.11
				c0.18-0.06,0.34-0.12,0.78-0.03c0.71,0.14,1.34,0.27,1.78,0.1c0.28-0.11,0.47-0.17,0.77-0.13c0.17,0.18,0.39,0.18,0.68,0.18
				c0.27,0.07,0.49,0.07,0.71-0.11c0.2-0.12,0.54-0.14,0.96-0.03c0.57,0.11,0.98,0.19,1.35,0.15c0.34-0.04,0.63-0.23,0.96-0.2
				c0.12,0.01,0.21-0.08,0.21-0.2v-21.6h0.56C40.41,18.6,42.42,17.04,41.27,15.85z M15.49,16.87c-0.08,0-0.15,0.05-0.18,0.12
				c-0.06,0.12-0.16,0.21-0.27,0.28c-0.47,0.31-1.15-0.07-1.13-0.63c-0.01-0.77,1.03-1.02,1.39-0.36c0.07,0.16,0.34,0.08,0.54,0.11
				v0.5h-0.35V16.87z M17.23,38.77c-0.2,0.1-0.73,0.14-0.91,0.1c-0.05-0.01-0.06,0.05-0.07,0.02c-0.01-0.09-0.02-0.7-0.02-0.81
				V17.07c0-0.3,0-1.14,0-1.44c0.88-0.18,0.94-0.01,1.39,0.18v22.85C17.47,38.69,17.36,38.73,17.23,38.77z M19.81,38.85
				c-0.34,0.16-1.16-0.05-1.77-0.15V15.88c0.15-0.02,0.27-0.07,0.4-0.15c0.49-0.34,1.2-0.02,1.74,0.02v22.97
				C20.05,38.76,19.93,38.8,19.81,38.85z M22.01,38.77l-0.08,0.03c-0.08,0.02-0.14,0.14-0.22,0.13c-0.06,0.02-0.2-0.03-0.31-0.04
				c-0.16,0.01-0.27-0.01-0.35-0.03c-0.02-0.01-0.02,0.06-0.02,0.03c-0.03-0.21-0.32-0.19-0.46-0.2V15.72
				c0.34-0.12,0.79-0.31,1.11-0.17c0.19,0.06,0.39,0.09,0.54,0.19v22.97C22.15,38.72,22.08,38.75,22.01,38.77z M23.13,38.75
				c-0.17-0.03-0.38-0.07-0.52-0.07v-22.8c0.23,0.03,0.4-0.05,0.58-0.14c0.23-0.16,0.7-0.2,1.01-0.11v23.27
				C23.92,38.91,23.59,38.84,23.13,38.75z M25.19,38.69c-0.21,0.02-0.38,0.07-0.58,0.15V15.72c0.2,0.04,0.39,0.06,0.58,0.04
				c0,0.26,0,1.04,0,1.33C25.19,17.07,25.19,38.69,25.19,38.69z M25.59,16.87v-0.5h3.62v0.5H25.59z M30.62,38.77
				c-0.2,0.1-0.73,0.14-0.91,0.1c-0.05-0.01-0.06,0.05-0.07,0.02c-0.01-0.09-0.02-0.7-0.02-0.81V17.07c0-0.3,0-1.14,0-1.44
				c0.88-0.18,0.94-0.01,1.39,0.18v22.85C30.85,38.69,30.73,38.73,30.62,38.77z M33.18,38.85c-0.34,0.16-1.16-0.05-1.77-0.15V15.88
				c0.15-0.02,0.27-0.07,0.4-0.15c0.49-0.34,1.2-0.02,1.74,0.02v22.97C33.43,38.76,33.31,38.8,33.18,38.85z M35.39,38.77l-0.08,0.03
				c-0.08,0.02-0.13,0.14-0.22,0.13c-0.06,0.02-0.2-0.03-0.31-0.04c-0.16,0.01-0.27-0.01-0.35-0.03c-0.02-0.01-0.02,0.06-0.02,0.03
				c-0.03-0.21-0.32-0.19-0.46-0.2V15.72c0.34-0.12,0.79-0.31,1.11-0.17c0.19,0.06,0.39,0.09,0.54,0.19v22.97
				C35.52,38.72,35.45,38.75,35.39,38.77z M36.51,38.75c-0.17-0.03-0.38-0.07-0.52-0.07v-22.8c0.23,0.03,0.4-0.05,0.58-0.14
				c0.23-0.16,0.7-0.2,1.01-0.11v23.27C37.31,38.91,36.96,38.84,36.51,38.75z M38.56,38.69c-0.21,0.02-0.37,0.07-0.58,0.15V15.72
				c0.2,0.04,0.39,0.06,0.58,0.04c0,0.26,0,1.04,0,1.33C38.56,17.07,38.56,38.69,38.56,38.69z M40.99,17.14
				c-0.23,0.26-0.68,0.31-0.93,0.13c-0.18-0.08-0.21-0.39-0.42-0.4h-0.66v-0.5h0.68c0.2,0,0.23-0.31,0.42-0.39
				C40.75,15.57,41.64,16.51,40.99,17.14z"/>
		</g>
	</g>
</g>
</svg>
