<?xml version="1.0" encoding="utf-8"?>
<!-- Generator: Adobe Illustrator 27.3.1, SVG Export Plug-In . SVG Version: 6.00 Build 0)  -->
<svg version="1.1" id="Layer_1" xmlns="http://www.w3.org/2000/svg" xmlns:xlink="http://www.w3.org/1999/xlink" x="0px" y="0px"
	 viewBox="0 0 50 50" style="enable-background:new 0 0 50 50;" xml:space="preserve">
<style type="text/css">
	.st0{fill:none;}
	.st1{stroke:#000000;stroke-miterlimit:10;}
	.st2{stroke:#000000;stroke-width:0.75;stroke-miterlimit:10;}
	.st3{clip-path:url(#SVGID_00000124151800886825118000000000233878650690273153_);}
	.st4{clip-path:url(#SVGID_00000129886386060764345990000003234860957955875483_);}
	.st5{fill:#FFFFFF;}
	.st6{clip-path:url(#SVGID_00000116207476197434913300000004034705489976473266_);}
	.st7{fill:#231F20;}
	.st8{clip-path:url(#SVGID_00000122687484178729829270000012874622656940208779_);}
	.st9{clip-path:url(#SVGID_00000174563745257091041920000002211409258237447355_);}
	.st10{clip-path:url(#SVGID_00000024719886013431234650000003957731409165033603_);}
	.st11{clip-path:url(#SVGID_00000074433250062037028970000008293268308466260390_);}
	.st12{clip-path:url(#SVGID_00000072968579030113796460000005835306575941843368_);}
	.st13{clip-path:url(#SVGID_00000031903497763160750660000003075770883331615672_);}
	.st14{clip-path:url(#SVGID_00000069359510197493314670000004825186524252600450_);}
	.st15{clip-path:url(#SVGID_00000029015577276668707270000012256558875202021248_);}
	.st16{clip-path:url(#SVGID_00000128470901729237606770000006863909393824888491_);}
	.st17{clip-path:url(#SVGID_00000096026956637843345310000013750270934262242744_);}
	.st18{clip-path:url(#SVGID_00000142141765285170704110000003034971859411759793_);}
	.st19{clip-path:url(#SVGID_00000115487340179659962940000001894798480163964845_);}
	.st20{clip-path:url(#SVGID_00000008833580536224471640000006636465547196591794_);}
	.st21{clip-path:url(#SVGID_00000160868689627051141130000017930669271320592271_);}
	.st22{clip-path:url(#SVGID_00000024710782259921326730000004149794263857168301_);}
	.st23{clip-path:url(#SVGID_00000041291861209044948100000011321854091075313575_);}
	.st24{clip-path:url(#SVGID_00000026860083681147809810000001716982852324859276_);}
	.st25{clip-path:url(#SVGID_00000181059261935111098620000002315952779801237129_);}
	.st26{clip-path:url(#SVGID_00000026130972821670625830000002898392047654084243_);}
	.st27{clip-path:url(#SVGID_00000021093688627006873220000007493507461289726636_);}
	.st28{clip-path:url(#SVGID_00000026879551860505126530000001231688414550459785_);}
	.st29{clip-path:url(#SVGID_00000167369182730086310670000008581115931196966804_);}
	.st30{clip-path:url(#SVGID_00000003085071116301420630000009038284951157568188_);}
	.st31{fill-rule:evenodd;clip-rule:evenodd;}
	.st32{clip-path:url(#SVGID_00000059998986337300307370000012403471712486560145_);}
	.st33{clip-path:url(#SVGID_00000106838389249374128430000008932314853647283391_);}
	.st34{stroke:#000000;stroke-width:0.5;stroke-miterlimit:10;}
	.st35{clip-path:url(#SVGID_00000167387221252158769980000009006367164834877614_);}
	.st36{clip-path:url(#SVGID_00000072259606732359096550000018063014032155299509_);}
	.st37{clip-path:url(#SVGID_00000070100045532199607910000006301365334834958496_);}
	.st38{fill:#1A1A1A;}
	.st39{clip-path:url(#SVGID_00000030465497649740152150000001647691444419699634_);}
	.st40{clip-path:url(#SVGID_00000030478339352594777410000010004530763422940292_);}
	.st41{clip-path:url(#SVGID_00000170971874445959361300000005831799834124604817_);}
	.st42{clip-path:url(#SVGID_00000176039981584520355780000001372740140615158950_);}
	.st43{clip-path:url(#SVGID_00000002353837788969670660000005964152146070227093_);}
	.st44{clip-path:url(#SVGID_00000082358901965621856590000014565353025306630529_);}
	.st45{clip-path:url(#SVGID_00000060734712392671242670000000550915807089247660_);}
	.st46{clip-path:url(#SVGID_00000120518729355772104760000005782675055470584448_);}
	.st47{clip-path:url(#SVGID_00000173860843575798771710000008469959301252635044_);}
	.st48{fill:#F1F1F1;}
	.st49{fill:#E8E8E8;}
	.st50{fill:#FEFEFE;}
	.st51{fill:#CCCCCC;}
	.st52{fill:#B3B3B3;}
	.st53{fill:#E6E6E6;}
	.st54{fill:#EBEBEB;}
	.st55{fill:#EEEEEE;}
	.st56{fill:#F8F8F8;}
	.st57{fill:#FBFBFB;}
	.st58{fill:#383838;}
	.st59{fill:#232323;}
	.st60{fill:#F6F6F6;}
	.st61{fill:#535353;}
	.st62{fill:#0A0A0A;}
	.st63{fill:#F5F5F5;}
	.st64{fill:#818181;}
	.st65{fill:#4A4A4A;}
	.st66{fill:#999999;}
	.st67{fill:url(#SVGID_00000013157781598178887190000017099395773218921353_);}
	.st68{fill:url(#SVGID_00000154415676468441922440000017079847121525827744_);}
	.st69{fill:#0E0E0D;}
	.st70{fill:#333333;}
	.st71{fill:#808080;}
	.st72{fill:url(#SVGID_00000098935035911397221060000014288183017628753285_);}
	.st73{fill:#666666;}
	.st74{fill:url(#SVGID_00000005975109211686974440000016603923057488763790_);}
	.st75{fill:url(#SVGID_00000057869140862426715220000001932621601567232140_);}
	.st76{fill:url(#SVGID_00000076590032530576012110000017856260858554967689_);}
	.st77{fill:url(#SVGID_00000049198055361857772310000007074028972748469177_);}
	.st78{fill:url(#SVGID_00000170996515911912309280000017527736870874798245_);}
	.st79{clip-path:url(#SVGID_00000042695376718397452040000004915526942897106364_);}
	.st80{clip-path:url(#SVGID_00000102538366453931884580000015242086824659166868_);}
	.st81{clip-path:url(#SVGID_00000132806446269807060300000011309846783835836832_);}
	.st82{clip-path:url(#SVGID_00000080894852027415130470000014255264244313149574_);}
	.st83{clip-path:url(#SVGID_00000149375536482279404360000007395529912197016487_);}
	.st84{fill:#241F20;stroke:#000000;stroke-width:0.5;stroke-miterlimit:10;}
	.st85{clip-path:url(#SVGID_00000151503967588215161890000006229431049409936536_);}
	.st86{clip-path:url(#SVGID_00000080897237897698648480000006055922791714354845_);}
	.st87{clip-path:url(#SVGID_00000001642382424592191370000002247663097261315757_);}
	.st88{clip-path:url(#SVGID_00000069386260605957399500000012675920831398770607_);}
	.st89{clip-path:url(#SVGID_00000152982039428097176140000010290505923313068981_);}
	.st90{clip-path:url(#SVGID_00000005987293955502226390000007803891291417547448_);}
	.st91{clip-path:url(#SVGID_00000040564178217974693800000010895389658649810586_);}
	.st92{clip-path:url(#SVGID_00000088816757742116618290000011627407176918689945_);}
	.st93{clip-path:url(#SVGID_00000082343289080431384520000012648934913021809302_);}
	.st94{clip-path:url(#SVGID_00000088829225572594407660000002739723385619984807_);}
	.st95{clip-path:url(#SVGID_00000180366892597831926700000001091695663212336301_);}
	.st96{clip-path:url(#SVGID_00000061461133989397027120000004643101289737549754_);}
	.st97{clip-path:url(#SVGID_00000036936661917329768770000001040164174069276837_);}
	.st98{clip-path:url(#SVGID_00000044880405238550017530000015392052947993579165_);}
	.st99{clip-path:url(#SVGID_00000182498591723726041380000014627348652478058943_);}
	.st100{clip-path:url(#SVGID_00000132810640610885410460000003661091607557422210_);}
	.st101{clip-path:url(#SVGID_00000085936265911327245630000004595642606425361805_);}
	.st102{clip-path:url(#SVGID_00000049213704085723427120000015291837795511022243_);}
	.st103{clip-path:url(#SVGID_00000115499686206816812260000004387304507293501627_);}
	.st104{clip-path:url(#SVGID_00000080914089648348841430000013387174441379467664_);}
	.st105{clip-path:url(#SVGID_00000160158893968930564010000010967360178532116870_);}
	.st106{clip-path:url(#SVGID_00000039855114517719983540000006953543255703820933_);}
	.st107{clip-path:url(#SVGID_00000042726434642556033930000011471322287218057632_);}
	.st108{clip-path:url(#SVGID_00000085942889157059128570000001376045753707274932_);}
	.st109{clip-path:url(#SVGID_00000042017962003049447000000008420168432523107263_);}
	.st110{clip-path:url(#SVGID_00000129912983049741385970000017727485012330341559_);}
	.st111{clip-path:url(#SVGID_00000172414732930538860060000018371756776942342824_);}
	.st112{clip-path:url(#SVGID_00000010311275002862042310000000798191951903800505_);}
	.st113{clip-path:url(#SVGID_00000132072912755739126040000016715246622488306110_);}
	.st114{clip-path:url(#SVGID_00000026147573562949285630000018238554143823613618_);}
	.st115{fill:#FFFFFF;stroke:#000000;stroke-miterlimit:10;}
	.st116{clip-path:url(#SVGID_00000075885250372998267130000009418214399391461784_);}
	.st117{clip-path:url(#SVGID_00000134232048942726278250000001310130679717184410_);}
	.st118{fill:none;stroke:#010101;stroke-miterlimit:10;}
	.st119{fill:#010101;stroke:#000000;stroke-miterlimit:10;}
	.st120{clip-path:url(#SVGID_00000127019185509927190830000017552603117072138397_);}
	.st121{fill:#010101;stroke:#010101;stroke-miterlimit:10;}
	.st122{clip-path:url(#SVGID_00000095340380591606089760000012339283837598064773_);}
	.st123{clip-path:url(#SVGID_00000121981950064157975370000000326988393404837523_);}
	.st124{clip-path:url(#SVGID_00000142158389903048033500000006080829223728417452_);}
	.st125{clip-path:url(#SVGID_00000037677083078567640700000009053905728465447552_);}
	.st126{clip-path:url(#SVGID_00000114061326407046707150000014359593531692254367_);}
	.st127{fill:none;stroke:#000000;stroke-width:3;stroke-miterlimit:10;}
	.st128{clip-path:url(#SVGID_00000145047861026802210380000005208687962362915985_);}
	.st129{clip-path:url(#SVGID_00000035511045447647748520000015712472592731960976_);}
	.st130{clip-path:url(#SVGID_00000043449797507330462760000006921939938495230632_);}
	.st131{clip-path:url(#SVGID_00000142891790461696118340000000443160454677850513_);}
	.st132{fill:#040606;}
	.st133{clip-path:url(#SVGID_00000101814069406649006710000013555148071599809954_);}
	.st134{clip-path:url(#SVGID_00000079481946716952505610000012155254883975440051_);}
	.st135{clip-path:url(#SVGID_00000078011703855097645290000001569140532202044078_);}
	.st136{clip-path:url(#SVGID_00000175286162732896416630000001677866240472491147_);}
	.st137{clip-path:url(#SVGID_00000143611088110452294200000002685376125011934613_);}
	.st138{clip-path:url(#SVGID_00000132783626621365817340000001229569424037405356_);}
	.st139{clip-path:url(#SVGID_00000116936699728391500260000013958170353507706790_);}
	.st140{fill:#FFFFFF;stroke:#000000;stroke-width:1.5;stroke-miterlimit:10;}
	.st141{clip-path:url(#SVGID_00000129165887423145889290000012891814153474516104_);}
	.st142{fill:#BDBCBC;}
	.st143{clip-path:url(#SVGID_00000134230514965377845120000013910112024861514158_);}
	.st144{fill:#2E2A2B;}
	.st145{clip-path:url(#SVGID_00000039111870211853272630000008589668183581383863_);}
	.st146{clip-path:url(#SVGID_00000080906298934794982980000015372378085518382225_);}
	.st147{clip-path:url(#SVGID_00000129183989763476252860000006904738105707621515_);}
	.st148{clip-path:url(#SVGID_00000066511093641611045680000014793977039549148558_);}
	.st149{clip-path:url(#SVGID_00000019664564698254414220000017938459569926017699_);}
	.st150{fill:#272324;}
	.st151{clip-path:url(#SVGID_00000052061956474738671250000003305747355519222660_);}
	.st152{clip-path:url(#SVGID_00000023267855176757095450000010194571323302425772_);}
	.st153{clip-path:url(#SVGID_00000021834339713804016480000005046506664054683792_);}
	.st154{clip-path:url(#SVGID_00000146483579332070789040000011411293282401740429_);}
	.st155{clip-path:url(#SVGID_00000181056405852543966020000017457738111951605930_);}
	.st156{clip-path:url(#SVGID_00000062185742048958026680000017441440949637327239_);}
	.st157{fill:none;stroke:#000000;stroke-width:0.8735;stroke-linecap:round;stroke-linejoin:round;stroke-miterlimit:10;}
	.st158{clip-path:url(#SVGID_00000021826704880456979370000002148278974903268998_);}
	.st159{clip-path:url(#SVGID_00000079448042456432034500000017627802144113646477_);}
	.st160{clip-path:url(#SVGID_00000140694250937474538800000012608946757445549735_);}
	.st161{clip-path:url(#SVGID_00000106854106289988074020000003174213416551234178_);}
	.st162{clip-path:url(#SVGID_00000174596865288953742190000000911654399537570980_);}
	.st163{clip-path:url(#SVGID_00000136376243547272459630000006151224143061591447_);}
	.st164{clip-path:url(#SVGID_00000127035232776559373710000017548629317570695070_);}
	.st165{clip-path:url(#SVGID_00000152249556275438759750000010658470257149499274_);}
	.st166{clip-path:url(#SVGID_00000128484005551832261390000005676017042622730381_);}
	.st167{clip-path:url(#SVGID_00000138572506476232301540000010944453234231763089_);}
	.st168{clip-path:url(#SVGID_00000088842377053870733860000002526549076993989007_);}
	.st169{clip-path:url(#SVGID_00000007400487394811786560000003091746636444667531_);}
	.st170{clip-path:url(#SVGID_00000096770321111069076290000001983263815183624625_);}
	.st171{clip-path:url(#SVGID_00000088133721306594444390000001222850780867464093_);}
	.st172{clip-path:url(#SVGID_00000138568932084984860850000008807091115673655173_);}
	.st173{clip-path:url(#SVGID_00000143607708077188694370000008667283200541512339_);}
	.st174{clip-path:url(#SVGID_00000106125597966562760360000002190268683744458423_);}
	.st175{clip-path:url(#SVGID_00000134956720266164311720000012067693617158587554_);}
	.st176{clip-path:url(#SVGID_00000170969380800918691020000000249756830127061431_);}
	.st177{clip-path:url(#SVGID_00000105399820272094186750000006245693001613977497_);}
	.st178{clip-path:url(#SVGID_00000169552787845638310770000009756653328287137413_);}
	.st179{clip-path:url(#SVGID_00000015318668020335086490000003805714632896165008_);}
	.st180{clip-path:url(#SVGID_00000158021414829020862750000016201672446085606567_);}
	.st181{clip-path:url(#SVGID_00000041276120927740020660000002490027411786822328_);}
	.st182{clip-path:url(#SVGID_00000015339737409654663130000014848366914964109749_);}
	.st183{clip-path:url(#SVGID_00000027576179777999123310000018347276166870853286_);}
	.st184{clip-path:url(#SVGID_00000134238317995383462690000015465529939002567611_);}
	.st185{clip-path:url(#SVGID_00000170975005939891056720000003551306009846352277_);}
	.st186{clip-path:url(#SVGID_00000170986474736516657680000018235607865961144992_);}
	.st187{clip-path:url(#SVGID_00000126302596317034184040000001197765897920934327_);}
	.st188{clip-path:url(#SVGID_00000109721476576318901790000011915823811607487874_);}
	.st189{clip-path:url(#SVGID_00000003816344402426493850000014985675557538943376_);}
	.st190{clip-path:url(#SVGID_00000152250423304452460600000000489989043671269002_);}
	.st191{clip-path:url(#SVGID_00000060029347924256197010000007748595176317899452_);}
	.st192{clip-path:url(#SVGID_00000000204653849262850090000013620469954669594786_);}
	.st193{clip-path:url(#SVGID_00000013178181888887985270000001260699224431377594_);}
	.st194{clip-path:url(#SVGID_00000065776692592756634040000004511435985397579701_);}
	.st195{clip-path:url(#SVGID_00000079455136838639009750000011886543580282921620_);}
	.st196{fill:#E5E5E5;}
	.st197{fill:#1D1D1B;}
	.st198{fill:none;stroke:#000000;stroke-miterlimit:10;}
	.st199{fill:#FEFEFE;stroke:#000000;stroke-miterlimit:10;}
	.st200{clip-path:url(#SVGID_00000169528798803778004880000005149526428607256964_);}
	.st201{clip-path:url(#SVGID_00000144318790025720957510000010631189542625165724_);}
	.st202{clip-path:url(#SVGID_00000153694505782026928410000014672387912145567883_);}
	.st203{fill:#231F1F;}
	.st204{fill:#020000;}
	.st205{clip-path:url(#SVGID_00000023242472604266323840000015962082255082667403_);}
	.st206{clip-path:url(#SVGID_00000015319075857806912850000010547028927240223138_);}
	.st207{clip-path:url(#SVGID_00000032649282176034977030000009669318939771197361_);}
	.st208{clip-path:url(#SVGID_00000055665129211545846830000016200981117045759409_);}
	.st209{fill:#050000;}
	.st210{clip-path:url(#SVGID_00000142881985988507083870000002636535856713175226_);}
	.st211{clip-path:url(#SVGID_00000019665511709608647360000015577748708854803872_);}
	.st212{clip-path:url(#SVGID_00000040538618235387964950000003180764071220373388_);}
	.st213{clip-path:url(#SVGID_00000107589037314355122630000007719253320496979132_);}
	.st214{clip-path:url(#SVGID_00000176752750371126556260000015687995979405529012_);}
	.st215{clip-path:url(#SVGID_00000101084767143793059040000009232797727791364249_);}
	.st216{fill:#12100F;}
	.st217{clip-path:url(#SVGID_00000144336500631097637630000016363613804275214755_);}
	.st218{clip-path:url(#SVGID_00000155132506745536786850000009223497838471951784_);}
	.st219{fill:none;stroke:#000000;stroke-width:0.5;stroke-miterlimit:10;}
	.st220{clip-path:url(#SVGID_00000123422951044054187830000016908124497685939625_);}
	.st221{clip-path:url(#SVGID_00000122705962193057860290000006246956244976353712_);}
	.st222{clip-path:url(#SVGID_00000096752656735651538530000008997709996012299437_);}
	.st223{clip-path:url(#SVGID_00000037685820731390034010000011639094758476232634_);}
	.st224{fill:none;stroke:#000000;stroke-width:0.25;stroke-miterlimit:10;}
	.st225{clip-path:url(#SVGID_00000062874216927389028550000013528526791970815378_);}
	.st226{clip-path:url(#SVGID_00000102539060727693688530000018145520051849792645_);}
	.st227{clip-path:url(#SVGID_00000053505538503706233930000012492982853872012708_);}
</style>
<g>
	<g>
		<defs>
			<rect id="SVGID_00000103984682965182687070000003900951041286014882_" x="4.07" y="16.89" width="39.76" height="22.16"/>
		</defs>
		<clipPath id="SVGID_00000165230933180984898470000018106219401420801427_">
			<use xlink:href="#SVGID_00000103984682965182687070000003900951041286014882_"  style="overflow:visible;"/>
		</clipPath>
		<g style="clip-path:url(#SVGID_00000165230933180984898470000018106219401420801427_);">
			<path class="st7" d="M43.22,17.03H18.79l-3.82,1.06c-0.14,0.04-0.24,0.12-0.33,0.22c-0.08,0.11-0.13,0.23-0.13,0.37v1.07
				c-0.22,0.02-0.38,0.12-0.49,0.31l-3.6,6.11l-4.34,1.16c-0.13,0.04-0.24,0.11-0.33,0.22c-0.08,0.11-0.13,0.23-0.13,0.37v4.31
				c-0.2,0.04-0.39,0.12-0.56,0.22c-0.18,0.11-0.33,0.24-0.45,0.4c-0.13,0.16-0.22,0.34-0.29,0.53c-0.06,0.19-0.09,0.39-0.08,0.59
				c0.01,0.2,0.05,0.4,0.13,0.58c0.08,0.18,0.19,0.35,0.33,0.5c0.14,0.15,0.3,0.27,0.49,0.36c0.18,0.09,0.38,0.15,0.58,0.17h1.47
				c0.13,0.81,0.48,1.51,1.06,2.09H4.69c-0.17,0-0.32,0.06-0.44,0.18c-0.12,0.12-0.18,0.26-0.18,0.43c0,0.17,0.06,0.31,0.18,0.43
				c0.12,0.12,0.27,0.18,0.44,0.18h38.53c0.17,0,0.32-0.06,0.44-0.18c0.12-0.12,0.18-0.26,0.18-0.43c0-0.17-0.06-0.31-0.18-0.43
				c-0.12-0.12-0.27-0.18-0.44-0.18H38.7c0.57-0.59,0.93-1.29,1.06-2.09h1.85c0.3,0,0.58-0.05,0.86-0.17
				c0.27-0.11,0.52-0.27,0.73-0.48c0.21-0.21,0.37-0.45,0.49-0.72c0.12-0.27,0.17-0.55,0.17-0.85V17.64c0-0.17-0.06-0.31-0.18-0.43
				C43.54,17.09,43.39,17.03,43.22,17.03z M7.42,33.71C7.35,33.9,7.3,34.1,7.27,34.3c0,0,0,0,0,0.05H5.79
				c-0.13,0-0.23-0.04-0.32-0.13c-0.09-0.09-0.13-0.19-0.13-0.32c0-0.12,0.04-0.23,0.13-0.32c0.09-0.09,0.2-0.13,0.32-0.13h1.72
				c-0.02,0.05-0.04,0.11-0.06,0.16C7.43,33.64,7.43,33.68,7.42,33.71z M18.34,19.76h-2.57v-0.6l2.57-0.71V19.76z M39.59,33.71
				c0-0.03,0-0.06,0-0.1c-0.07-0.19-0.15-0.37-0.26-0.55c0.01-0.02,0.01-0.04,0-0.06c-0.11-0.18-0.22-0.35-0.35-0.51
				c-0.14-0.16-0.28-0.31-0.44-0.44c-0.02-0.02-0.04-0.04-0.06-0.06c-0.16-0.13-0.32-0.24-0.5-0.35l-0.08-0.06
				c-0.18-0.1-0.36-0.18-0.55-0.25h-0.1c-0.2-0.07-0.4-0.13-0.6-0.17h-0.08c-0.22-0.04-0.45-0.07-0.68-0.07
				c-0.23,0-0.45,0.02-0.68,0.07h-0.08c-0.21,0.04-0.41,0.1-0.61,0.17h-0.1c-0.19,0.07-0.37,0.16-0.55,0.26l-0.08,0.05
				c-0.17,0.11-0.34,0.22-0.49,0.35c-0.02,0.02-0.04,0.04-0.06,0.06c-0.16,0.13-0.31,0.28-0.44,0.44c-0.13,0.16-0.25,0.34-0.35,0.52
				c0,0.02,0,0.04,0,0.06c-0.11,0.17-0.19,0.36-0.26,0.55c0,0,0,0.07,0,0.09c-0.06,0.19-0.12,0.39-0.15,0.59c0,0,0,0,0,0.05H19.58
				v-4H42.6v3.01c0,0.13-0.03,0.25-0.08,0.38c-0.05,0.12-0.13,0.23-0.22,0.32c-0.09,0.09-0.2,0.16-0.32,0.21
				c-0.12,0.05-0.25,0.07-0.38,0.07h-1.85c0,0,0,0,0-0.05C39.72,34.1,39.66,33.9,39.59,33.71z M11.2,37.67
				c-0.36,0-0.71-0.07-1.05-0.21c-0.34-0.14-0.63-0.33-0.89-0.59C9,36.62,8.81,36.32,8.67,35.99c-0.14-0.33-0.21-0.68-0.21-1.04
				c0-0.36,0.07-0.71,0.21-1.04c0.14-0.33,0.34-0.62,0.59-0.88c0.26-0.25,0.56-0.45,0.89-0.58c0.34-0.14,0.69-0.21,1.05-0.21
				c0.36,0,0.71,0.07,1.05,0.21c0.34,0.14,0.63,0.34,0.89,0.59c0.25,0.25,0.45,0.55,0.59,0.88c0.14,0.33,0.21,0.68,0.21,1.04
				s-0.07,0.71-0.21,1.04c-0.14,0.33-0.34,0.62-0.6,0.88c-0.26,0.25-0.56,0.45-0.9,0.59C11.92,37.6,11.57,37.67,11.2,37.67z
				 M11.38,27l3.54-6.03h3.43v0.85h-2.66c-0.25,0-0.43,0.11-0.55,0.33l-2.24,4.29c-0.12,0.2-0.12,0.4,0,0.6
				c0.12,0.2,0.3,0.3,0.53,0.3h4.9v7.04h-3.18c0,0,0,0,0-0.05c-0.04-0.2-0.09-0.4-0.16-0.59c0,0,0-0.06,0-0.1
				c-0.06-0.19-0.15-0.37-0.26-0.55c0.01-0.02,0.01-0.04,0-0.06c-0.1-0.18-0.22-0.36-0.35-0.52c-0.14-0.16-0.29-0.31-0.45-0.44
				l-0.05-0.06c-0.16-0.13-0.33-0.24-0.5-0.35l-0.08-0.05c-0.18-0.11-0.36-0.19-0.55-0.26h-0.1c-0.2-0.07-0.4-0.13-0.61-0.17h-0.17
				c-0.22-0.04-0.45-0.06-0.68-0.07c-0.23,0-0.45,0.02-0.68,0.07h-0.07c-0.21,0.04-0.41,0.1-0.61,0.17h-0.1
				c-0.19,0.07-0.38,0.16-0.55,0.26l-0.08,0.05c-0.18,0.1-0.34,0.22-0.5,0.35c-0.02,0.02-0.04,0.04-0.06,0.06l-0.19,0.15H6.88v-2.47
				h8.99c0.17,0,0.32-0.06,0.44-0.18c0.12-0.12,0.18-0.26,0.18-0.43c0-0.17-0.06-0.31-0.18-0.43c-0.12-0.12-0.26-0.18-0.44-0.18
				H6.88v-0.13L11,27.28C11.17,27.23,11.29,27.14,11.38,27z M18.34,23.02v3.06h-3.88l1.64-3.06H18.34z M32.94,37.67H14.09
				c0.57-0.59,0.93-1.29,1.06-2.09h16.71c0.13,0.81,0.49,1.51,1.06,2.09H32.94z M33.13,34.41c0.06-0.3,0.18-0.59,0.35-0.86
				c0.16-0.26,0.37-0.5,0.61-0.69c0.24-0.2,0.52-0.35,0.81-0.45c0.3-0.11,0.6-0.16,0.92-0.16s0.62,0.05,0.92,0.16
				c0.3,0.1,0.57,0.25,0.81,0.45c0.25,0.2,0.45,0.43,0.62,0.69c0.16,0.27,0.28,0.55,0.34,0.86c0.04,0.18,0.05,0.36,0.05,0.54
				c-0.02,0.35-0.11,0.68-0.25,0.99c-0.15,0.32-0.35,0.59-0.6,0.83c-0.26,0.24-0.55,0.42-0.88,0.55c-0.33,0.13-0.67,0.19-1.02,0.19
				s-0.69-0.06-1.02-0.19c-0.33-0.13-0.62-0.31-0.88-0.55c-0.25-0.24-0.46-0.52-0.61-0.83c-0.15-0.32-0.23-0.65-0.25-0.99
				c-0.01-0.18,0.01-0.36,0.04-0.54H33.13z M19.58,18.26H42.6v10.88H19.58V18.26z"/>
		</g>
	</g>
	<path class="st7" d="M11.2,33.13c-0.25,0-0.49,0.05-0.72,0.15c-0.23,0.1-0.43,0.23-0.61,0.4c-0.18,0.17-0.31,0.38-0.41,0.6
		c-0.1,0.23-0.14,0.46-0.14,0.71c0,0.24,0.05,0.48,0.15,0.71c0.1,0.23,0.23,0.43,0.41,0.6c0.18,0.17,0.38,0.31,0.61,0.4
		c0.23,0.09,0.47,0.14,0.72,0.14c0.25,0,0.49-0.05,0.72-0.14c0.23-0.1,0.43-0.23,0.61-0.4c0.18-0.17,0.31-0.37,0.41-0.6
		c0.1-0.23,0.14-0.46,0.14-0.71c0-0.24-0.05-0.48-0.15-0.71c-0.1-0.23-0.23-0.43-0.41-0.6c-0.18-0.17-0.38-0.31-0.61-0.4
		C11.69,33.18,11.45,33.13,11.2,33.13z M11.2,35.63c-0.18,0-0.33-0.06-0.45-0.19c-0.13-0.13-0.19-0.27-0.19-0.45
		c0.02-0.16,0.09-0.29,0.21-0.4c0.12-0.11,0.26-0.16,0.43-0.16c0.16,0,0.31,0.05,0.43,0.16c0.12,0.11,0.19,0.24,0.21,0.4
		c-0.01,0.17-0.07,0.31-0.2,0.43s-0.27,0.17-0.44,0.17V35.63z"/>
	<path class="st7" d="M35.85,36.81c0.25,0,0.49-0.05,0.72-0.15s0.43-0.23,0.61-0.4c0.18-0.17,0.31-0.37,0.4-0.6
		c0.1-0.23,0.14-0.47,0.14-0.71c0-0.25-0.05-0.49-0.15-0.71c-0.1-0.23-0.23-0.43-0.41-0.6c-0.18-0.17-0.38-0.31-0.61-0.4
		c-0.23-0.1-0.47-0.14-0.72-0.14c-0.25,0-0.49,0.05-0.72,0.14c-0.23,0.1-0.43,0.23-0.61,0.4s-0.31,0.37-0.41,0.6
		c-0.1,0.23-0.14,0.47-0.14,0.71c0,0.25,0.05,0.49,0.14,0.71c0.1,0.23,0.23,0.43,0.41,0.6c0.18,0.17,0.38,0.31,0.61,0.4
		C35.36,36.77,35.6,36.81,35.85,36.81z M35.85,34.33c0.18,0,0.33,0.06,0.45,0.19c0.12,0.12,0.18,0.27,0.18,0.44
		c0,0.18-0.06,0.33-0.18,0.45c-0.13,0.13-0.28,0.19-0.45,0.19c-0.18,0-0.33-0.06-0.46-0.19c-0.13-0.13-0.19-0.27-0.19-0.45
		s0.06-0.33,0.19-0.45C35.51,34.39,35.67,34.33,35.85,34.33z"/>
	<path class="st7" d="M35.47,24.02l-3.82-1.11c-0.12-0.42-0.35-0.76-0.7-1.03c-0.05-0.05-0.07-0.1-0.07-0.17
		c0-0.14,0.07-0.21,0.21-0.21c0.14,0,0.22,0.07,0.22,0.21c0,0.17,0.06,0.31,0.18,0.43s0.26,0.18,0.44,0.18
		c0.17,0,0.32-0.06,0.44-0.18s0.19-0.26,0.19-0.43c-0.01-0.18-0.06-0.36-0.14-0.52c-0.08-0.17-0.19-0.31-0.33-0.43
		c-0.14-0.12-0.29-0.22-0.46-0.29c-0.17-0.07-0.35-0.1-0.54-0.1c-0.18,0-0.36,0.03-0.54,0.1s-0.33,0.16-0.46,0.29
		c-0.14,0.13-0.24,0.27-0.32,0.43c-0.08,0.16-0.13,0.34-0.14,0.52c0,0.46,0.18,0.84,0.55,1.13c0.05,0.04,0.1,0.08,0.14,0.14
		l-3.61,1.05c-0.19,0.05-0.36,0.14-0.52,0.25c-0.16,0.12-0.29,0.25-0.39,0.41c-0.11,0.16-0.18,0.34-0.22,0.52
		c-0.04,0.19-0.05,0.38-0.02,0.57c0.03,0.19,0.09,0.37,0.18,0.54c0.1,0.17,0.22,0.32,0.37,0.44c0.15,0.13,0.32,0.22,0.5,0.29
		c0.18,0.06,0.37,0.1,0.57,0.09h7.81c0.2,0,0.38-0.03,0.57-0.1c0.18-0.07,0.35-0.16,0.5-0.29c0.15-0.13,0.27-0.27,0.36-0.44
		c0.09-0.17,0.15-0.35,0.18-0.54c0.03-0.19,0.02-0.38-0.02-0.57c-0.04-0.19-0.12-0.36-0.22-0.52c-0.11-0.16-0.24-0.3-0.39-0.41
		c-0.16-0.12-0.33-0.2-0.52-0.25H35.47z M31.09,24.02l4.03,1.18c0.1,0.02,0.17,0.07,0.22,0.15c0.05,0.08,0.07,0.16,0.06,0.25
		c-0.01,0.1-0.06,0.17-0.13,0.23c-0.07,0.06-0.16,0.08-0.25,0.08h-7.84c-0.1,0-0.19-0.03-0.26-0.1c-0.07-0.07-0.11-0.16-0.11-0.25
		c0-0.18,0.08-0.3,0.26-0.35L31.09,24.02z"/>
</g>
</svg>
