<?xml version="1.0" encoding="utf-8"?>
<!-- Generator: Adobe Illustrator 27.3.1, SVG Export Plug-In . SVG Version: 6.00 Build 0)  -->
<svg version="1.1" id="Layer_1" xmlns="http://www.w3.org/2000/svg" xmlns:xlink="http://www.w3.org/1999/xlink" x="0px" y="0px"
	 viewBox="0 0 50 50" style="enable-background:new 0 0 50 50;" xml:space="preserve">
<style type="text/css">
	.st0{fill:none;}
	.st1{stroke:#000000;stroke-miterlimit:10;}
	.st2{stroke:#000000;stroke-width:0.75;stroke-miterlimit:10;}
	.st3{clip-path:url(#SVGID_00000117638360156640250320000006079943346265877690_);}
	.st4{clip-path:url(#SVGID_00000070077061305217872270000011415790199582615481_);}
	.st5{fill:#FFFFFF;}
	.st6{clip-path:url(#SVGID_00000136412223784016117770000004327572436405326499_);}
	.st7{fill:#231F20;}
	.st8{clip-path:url(#SVGID_00000015316522212110618990000008454398427139794835_);}
	.st9{clip-path:url(#SVGID_00000142870243815868429110000007829400744210338945_);}
	.st10{clip-path:url(#SVGID_00000072259252757594637750000011596286937711612320_);}
	.st11{clip-path:url(#SVGID_00000171704893460204651580000001451960076889200296_);}
	.st12{clip-path:url(#SVGID_00000045621164290661484760000008508556398742935983_);}
	.st13{clip-path:url(#SVGID_00000181785971871537141080000017550833154666127549_);}
	.st14{clip-path:url(#SVGID_00000040572958017017985910000008915225401962315190_);}
	.st15{clip-path:url(#SVGID_00000053531076290613432550000009906734980536684184_);}
	.st16{clip-path:url(#SVGID_00000034060556317357223150000013209204468406278828_);}
	.st17{clip-path:url(#SVGID_00000103966376791334689340000000062176692977264524_);}
	.st18{clip-path:url(#SVGID_00000120519431128336056130000012506861884146766775_);}
	.st19{clip-path:url(#SVGID_00000182494469042229936330000002159156769666446995_);}
	.st20{clip-path:url(#SVGID_00000012440989577852492270000008991129922645697962_);}
	.st21{clip-path:url(#SVGID_00000019652994936911659150000012012167729833148045_);}
	.st22{clip-path:url(#SVGID_00000018218799223317846430000017740486430724731576_);}
	.st23{clip-path:url(#SVGID_00000048497000642535411620000014176228468846762911_);}
	.st24{clip-path:url(#SVGID_00000096054370727426856810000005616176115247357572_);}
	.st25{clip-path:url(#SVGID_00000107566954427904114560000000071115918896586133_);}
	.st26{clip-path:url(#SVGID_00000155145204083690459730000002426324513316379561_);}
	.st27{clip-path:url(#SVGID_00000108992736795442615150000016414441662552753030_);}
	.st28{clip-path:url(#SVGID_00000176043773190093397510000006781157856048188811_);}
	.st29{clip-path:url(#SVGID_00000002361943641517664100000002564090826041950381_);}
	.st30{clip-path:url(#SVGID_00000106126467282554473430000008219037980222075832_);}
	.st31{fill-rule:evenodd;clip-rule:evenodd;}
	.st32{clip-path:url(#SVGID_00000175293996525498269390000016961167340879186091_);}
	.st33{clip-path:url(#SVGID_00000018229754113093035700000010274264858900957315_);}
	.st34{stroke:#000000;stroke-width:0.5;stroke-miterlimit:10;}
	.st35{clip-path:url(#SVGID_00000101068167237407051530000013386948394241530242_);}
	.st36{clip-path:url(#SVGID_00000057857591627986201910000004700549591445322934_);}
	.st37{clip-path:url(#SVGID_00000054955143083132644050000000227630242409735079_);}
	.st38{fill:#1A1A1A;}
	.st39{clip-path:url(#SVGID_00000152248581787903417040000012912362136124992168_);}
	.st40{clip-path:url(#SVGID_00000167390836575425778820000018120227277976714928_);}
	.st41{clip-path:url(#SVGID_00000042715067782176318200000001703948127562261677_);}
	.st42{clip-path:url(#SVGID_00000036218872248661492650000011862216059866060983_);}
	.st43{clip-path:url(#SVGID_00000110463787836311629150000005228765941545145507_);}
	.st44{clip-path:url(#SVGID_00000065056667278968687590000003118140245050043315_);}
	.st45{clip-path:url(#SVGID_00000042699822816915919820000009593093499463697060_);}
	.st46{clip-path:url(#SVGID_00000132766892136685830100000011132353642998153366_);}
	.st47{clip-path:url(#SVGID_00000142885346226794617850000010591684586120479621_);}
	.st48{fill:#F1F1F1;}
	.st49{fill:#E8E8E8;}
	.st50{fill:#FEFEFE;}
	.st51{fill:#CCCCCC;}
	.st52{fill:#B3B3B3;}
	.st53{fill:#E6E6E6;}
	.st54{fill:#EBEBEB;}
	.st55{fill:#EEEEEE;}
	.st56{fill:#F8F8F8;}
	.st57{fill:#FBFBFB;}
	.st58{fill:#383838;}
	.st59{fill:#232323;}
	.st60{fill:#F6F6F6;}
	.st61{fill:#535353;}
	.st62{fill:#0A0A0A;}
	.st63{fill:#F5F5F5;}
	.st64{fill:#818181;}
	.st65{fill:#4A4A4A;}
	.st66{fill:#999999;}
	.st67{fill:url(#SVGID_00000050645546571019769810000012612744098480856226_);}
	.st68{fill:url(#SVGID_00000074431865264979215420000013777668555112614076_);}
	.st69{fill:#0E0E0D;}
	.st70{fill:#333333;}
	.st71{fill:#808080;}
	.st72{fill:url(#SVGID_00000142887975499598914340000001172439371398418108_);}
	.st73{fill:#666666;}
	.st74{fill:url(#SVGID_00000059292943166648461880000012417128812675871418_);}
	.st75{fill:url(#SVGID_00000060737788328933310910000005215206298750493577_);}
	.st76{fill:url(#SVGID_00000059990140230681587060000011176277369764163725_);}
	.st77{fill:url(#SVGID_00000017499939637256211690000014610442646564521373_);}
	.st78{fill:url(#SVGID_00000008148713388406115370000015829580900451902338_);}
	.st79{clip-path:url(#SVGID_00000085219091215838199450000009632313856640508815_);}
	.st80{clip-path:url(#SVGID_00000109016423844488538500000011399493687817149614_);}
	.st81{clip-path:url(#SVGID_00000159471346743608783670000004381273537129120176_);}
	.st82{clip-path:url(#SVGID_00000168104937712424385800000005163363943795467168_);}
	.st83{clip-path:url(#SVGID_00000117669244754362700950000014002358845581325723_);}
	.st84{fill:#241F20;stroke:#000000;stroke-width:0.5;stroke-miterlimit:10;}
	.st85{clip-path:url(#SVGID_00000183238508813599271850000008205778975127905677_);}
	.st86{clip-path:url(#SVGID_00000116227259327734439970000012020109193242363836_);}
	.st87{clip-path:url(#SVGID_00000025434246417649391390000016825881918615003302_);}
	.st88{clip-path:url(#SVGID_00000093899408296355444220000011672736326413698446_);}
	.st89{clip-path:url(#SVGID_00000141455021485915534020000007944808226385841087_);}
	.st90{clip-path:url(#SVGID_00000036942652326828210710000015019213339559339396_);}
	.st91{clip-path:url(#SVGID_00000038400273889965924380000010390508316278642056_);}
	.st92{clip-path:url(#SVGID_00000031195393127326327110000001969966299358087352_);}
	.st93{clip-path:url(#SVGID_00000060022785590505999500000009744429663377117592_);}
	.st94{clip-path:url(#SVGID_00000129900376422659206510000013352041824518278570_);}
	.st95{clip-path:url(#SVGID_00000155837786158139799960000008991297724548429755_);}
	.st96{clip-path:url(#SVGID_00000143583284873835499820000009390653273681115790_);}
	.st97{clip-path:url(#SVGID_00000065032616569451577740000004163839274514136715_);}
	.st98{clip-path:url(#SVGID_00000121965279471975026330000007613804128820287108_);}
	.st99{clip-path:url(#SVGID_00000147198874747845072780000004007140455788309376_);}
	.st100{clip-path:url(#SVGID_00000050659956130149944610000001936610005682755252_);}
	.st101{clip-path:url(#SVGID_00000012435998860558619260000009056624907792883103_);}
	.st102{clip-path:url(#SVGID_00000098199405293253653680000009063338051371418526_);}
	.st103{clip-path:url(#SVGID_00000083810112922684453520000007694327017251493275_);}
	.st104{clip-path:url(#SVGID_00000108268685690736754160000007026222176557041848_);}
	.st105{clip-path:url(#SVGID_00000014610385391216175950000013513102710249611402_);}
	.st106{clip-path:url(#SVGID_00000041264598474238592910000001105319768531055244_);}
	.st107{clip-path:url(#SVGID_00000107575010837393649350000014710628890610626972_);}
	.st108{clip-path:url(#SVGID_00000117660917721556003300000005035928411725109412_);}
	.st109{clip-path:url(#SVGID_00000140705945126056071310000011051151742527279517_);}
	.st110{clip-path:url(#SVGID_00000032646336152795260420000004691589646534244281_);}
	.st111{clip-path:url(#SVGID_00000146501385639107103810000003261110051928040338_);}
	.st112{clip-path:url(#SVGID_00000146482734814942616000000010036704038951959996_);}
	.st113{clip-path:url(#SVGID_00000025408367723882293350000005482493466341316023_);}
	.st114{clip-path:url(#SVGID_00000126299427457605233620000013396083797947328698_);}
	.st115{fill:#FFFFFF;stroke:#000000;stroke-miterlimit:10;}
	.st116{clip-path:url(#SVGID_00000067198588876364262540000002198768019974366877_);}
	.st117{clip-path:url(#SVGID_00000075867719396299874640000004190765118153035441_);}
	.st118{fill:none;stroke:#010101;stroke-miterlimit:10;}
	.st119{fill:#010101;stroke:#000000;stroke-miterlimit:10;}
	.st120{clip-path:url(#SVGID_00000028296780934860625370000000699278790546117816_);}
	.st121{fill:#010101;stroke:#010101;stroke-miterlimit:10;}
	.st122{clip-path:url(#SVGID_00000028302035438471338770000013341473899631711121_);}
	.st123{clip-path:url(#SVGID_00000140707594762608509040000000266272114122123668_);}
	.st124{clip-path:url(#SVGID_00000160892583273111915070000014170380063728879533_);}
	.st125{clip-path:url(#SVGID_00000106864956356338821070000008242438038277913228_);}
	.st126{clip-path:url(#SVGID_00000163784691509798669640000008342308771587404180_);}
	.st127{fill:none;stroke:#000000;stroke-width:3;stroke-miterlimit:10;}
	.st128{clip-path:url(#SVGID_00000072971465025678575200000010375762253792378259_);}
	.st129{clip-path:url(#SVGID_00000106139393054984006820000015377933024206283699_);}
	.st130{clip-path:url(#SVGID_00000047026939211986724970000011681307105497649311_);}
	.st131{clip-path:url(#SVGID_00000031184668405024566370000002336419899356697994_);}
	.st132{fill:#040606;}
	.st133{clip-path:url(#SVGID_00000010302356260402677910000009556216278230311855_);}
	.st134{clip-path:url(#SVGID_00000013193281610457385760000016291087314034286486_);}
	.st135{clip-path:url(#SVGID_00000016796308921828413370000013155543592803819415_);}
	.st136{clip-path:url(#SVGID_00000113343749350009750560000002158581216619845539_);}
	.st137{clip-path:url(#SVGID_00000004505193854128354770000017489932146776258472_);}
	.st138{clip-path:url(#SVGID_00000021837145662178520020000008194361838763023530_);}
	.st139{clip-path:url(#SVGID_00000134940096461799595670000013943071023940581782_);}
	.st140{fill:#FFFFFF;stroke:#000000;stroke-width:1.5;stroke-miterlimit:10;}
	.st141{clip-path:url(#SVGID_00000010999099414490275200000005124922760864661437_);}
	.st142{fill:#BDBCBC;}
	.st143{clip-path:url(#SVGID_00000032636150103149467740000012814081093000763533_);}
	.st144{fill:#2E2A2B;}
	.st145{clip-path:url(#SVGID_00000163056128352066507320000013435002280817945241_);}
	.st146{clip-path:url(#SVGID_00000115488449888245962660000009115837860283624378_);}
	.st147{clip-path:url(#SVGID_00000032619443478385408220000003294909628156492474_);}
	.st148{clip-path:url(#SVGID_00000125590328528184598650000013484395997967787908_);}
	.st149{clip-path:url(#SVGID_00000013892472247427533920000004871388412433687192_);}
	.st150{fill:#272324;}
	.st151{clip-path:url(#SVGID_00000044166256256970166790000015544557802383305105_);}
	.st152{clip-path:url(#SVGID_00000172428741604912512820000000252826907738652594_);}
	.st153{clip-path:url(#SVGID_00000127755902262671065810000008673046205035808939_);}
	.st154{clip-path:url(#SVGID_00000127750426148209531750000005276766922260435840_);}
	.st155{clip-path:url(#SVGID_00000088116186348478516970000009796039369542701190_);}
	.st156{clip-path:url(#SVGID_00000152957403764224708710000016449354293929661573_);}
	.st157{fill:none;stroke:#000000;stroke-width:0.8735;stroke-linecap:round;stroke-linejoin:round;stroke-miterlimit:10;}
	.st158{clip-path:url(#SVGID_00000011739994726495056270000014886791989986021294_);}
	.st159{clip-path:url(#SVGID_00000086674089249407821070000007569087884771485846_);}
	.st160{clip-path:url(#SVGID_00000062175230545470049040000007395848299804457650_);}
	.st161{clip-path:url(#SVGID_00000118361730492236267570000016301450142937512124_);}
	.st162{clip-path:url(#SVGID_00000016757521032674307930000005188626812691403668_);}
	.st163{clip-path:url(#SVGID_00000005976151448170124020000004383270578043132308_);}
	.st164{clip-path:url(#SVGID_00000160876933958511378920000014061497028430741408_);}
	.st165{clip-path:url(#SVGID_00000154420304618530778840000008594477676320965261_);}
	.st166{clip-path:url(#SVGID_00000088099424194056317910000015958214105808925861_);}
	.st167{clip-path:url(#SVGID_00000134233748093407047550000002125157336520427663_);}
	.st168{clip-path:url(#SVGID_00000159439445962868841150000006734185796140442795_);}
	.st169{clip-path:url(#SVGID_00000132804804210539872430000008960762602232722823_);}
	.st170{clip-path:url(#SVGID_00000060752318349464282420000011103211648757612710_);}
	.st171{clip-path:url(#SVGID_00000016060638300304343090000007640043363517063309_);}
	.st172{clip-path:url(#SVGID_00000178890174054231933790000009400920803981276833_);}
	.st173{clip-path:url(#SVGID_00000151522916487561628430000009881526234347574178_);}
	.st174{clip-path:url(#SVGID_00000181800318634319468520000005051544100994237094_);}
	.st175{clip-path:url(#SVGID_00000149373514847797364730000001808972218480329885_);}
	.st176{clip-path:url(#SVGID_00000013911447399774217780000012827963053671477153_);}
	.st177{clip-path:url(#SVGID_00000142144143181590676770000005535520233258893246_);}
	.st178{clip-path:url(#SVGID_00000046327726982194239770000000093516616339623073_);}
	.st179{clip-path:url(#SVGID_00000120558524603262241680000001132665225811680183_);}
	.st180{clip-path:url(#SVGID_00000085961925713829270650000018439452351569574025_);}
	.st181{clip-path:url(#SVGID_00000149371195447462094540000010206201505592986252_);}
	.st182{clip-path:url(#SVGID_00000143618485983591460280000009284201079250321315_);}
	.st183{clip-path:url(#SVGID_00000089542230149125281840000000645781532400504745_);}
	.st184{clip-path:url(#SVGID_00000098917499135141164740000005401314681875088019_);}
	.st185{clip-path:url(#SVGID_00000076573601247220795710000013431444475622333348_);}
	.st186{clip-path:url(#SVGID_00000124873508870243642100000003239698190515095169_);}
	.st187{clip-path:url(#SVGID_00000054260793986610799110000005799833965217455490_);}
	.st188{clip-path:url(#SVGID_00000075876154514431502300000002049779663065877946_);}
	.st189{clip-path:url(#SVGID_00000180367560718096609270000003998894573908260241_);}
	.st190{clip-path:url(#SVGID_00000019676233613654251220000015125576114049491885_);}
	.st191{clip-path:url(#SVGID_00000147220549726590604720000013467410441176163254_);}
	.st192{clip-path:url(#SVGID_00000129904768584649978260000006423790680029286299_);}
	.st193{clip-path:url(#SVGID_00000170265916164950228460000011878520713297681301_);}
	.st194{clip-path:url(#SVGID_00000093161533287494477310000011485408193329353641_);}
	.st195{clip-path:url(#SVGID_00000027572201162973340210000004229946805564807834_);}
	.st196{fill:#E5E5E5;}
	.st197{fill:#1D1D1B;}
	.st198{fill:none;stroke:#000000;stroke-miterlimit:10;}
	.st199{fill:#FEFEFE;stroke:#000000;stroke-miterlimit:10;}
	.st200{clip-path:url(#SVGID_00000180330575728648451730000012174991948197375123_);}
	.st201{clip-path:url(#SVGID_00000088836657252356546150000008424361417115446692_);}
	.st202{clip-path:url(#SVGID_00000067215427462165417360000005381232715518134197_);}
	.st203{fill:#231F1F;}
	.st204{fill:#020000;}
	.st205{clip-path:url(#SVGID_00000121249515797661972740000017960755300525603476_);}
	.st206{clip-path:url(#SVGID_00000149343549392265039430000007216982076456373126_);}
	.st207{clip-path:url(#SVGID_00000022552180019635743040000010826956800086552751_);}
	.st208{clip-path:url(#SVGID_00000039827999003131613440000001890676693513339311_);}
	.st209{fill:#050000;}
	.st210{clip-path:url(#SVGID_00000097468528839660649070000015478091599543982752_);}
	.st211{clip-path:url(#SVGID_00000096049887489446849460000002239809634553389714_);}
	.st212{clip-path:url(#SVGID_00000067227464482845011300000011860329697969676416_);}
	.st213{clip-path:url(#SVGID_00000129168990935893205180000005858367275737790080_);}
	.st214{clip-path:url(#SVGID_00000165229197037959503710000014819200372133802678_);}
	.st215{clip-path:url(#SVGID_00000061464290005677626730000016806398866006482078_);}
	.st216{fill:#12100F;}
	.st217{clip-path:url(#SVGID_00000039093736709292882680000014176977350657613468_);}
	.st218{clip-path:url(#SVGID_00000024705429612068016720000008887910806617365944_);}
	.st219{fill:none;stroke:#000000;stroke-width:0.5;stroke-miterlimit:10;}
	.st220{clip-path:url(#SVGID_00000167369970132753466050000006831301715229075600_);}
	.st221{clip-path:url(#SVGID_00000083063238654729829590000009205856206808078527_);}
	.st222{clip-path:url(#SVGID_00000125565952119617611280000008398707202561884818_);}
	.st223{clip-path:url(#SVGID_00000075122744896102769470000011500092119199144618_);}
	.st224{fill:none;stroke:#000000;stroke-width:0.25;stroke-miterlimit:10;}
	.st225{clip-path:url(#SVGID_00000083782565279801712630000016152406402408221100_);}
	.st226{clip-path:url(#SVGID_00000033344844250648288310000002158053558978074557_);}
	.st227{clip-path:url(#SVGID_00000055699217785111932540000015086083160400519575_);}
</style>
<g>
	<path d="M29.32,33.68l-0.96-1.26l-1.77-2.29l-0.19-0.26l-0.81-1.03l-0.19-0.26l-1.99-2.55l-0.89-1.15l-0.11-0.15l-1.33-1.7
		l-8.78-11.39c-0.26-0.33-0.74-0.41-1.07-0.15c-0.33,0.26-0.41,0.74-0.15,1.07l7.86,10.17l1.18,1.55l1.03,1.33l0.41,0.52l0.78,1
		l0.22,0.26l1.99,2.55l0.37,0.48l0.63,0.82l2.14,2.77l7.9,10.28c0.15,0.19,0.37,0.3,0.63,0.3c0.15,0,0.33-0.03,0.48-0.15
		c0.33-0.26,0.41-0.74,0.15-1.07L29.32,33.68z"/>
	<g>
		<defs>
			<rect id="SVGID_00000018239161344601806020000013083927412251725700_" x="22.78" y="21.91" width="17.36" height="12.35"/>
		</defs>
		<clipPath id="SVGID_00000059988889892475759900000015591072066889677964_">
			<use xlink:href="#SVGID_00000018239161344601806020000013083927412251725700_"  style="overflow:visible;"/>
		</clipPath>
		<g style="clip-path:url(#SVGID_00000059988889892475759900000015591072066889677964_);">
			<path d="M39.84,22.33c-0.18-0.19-0.48-0.26-0.78-0.19c-1.48,0.44-3.25,0.81-5.24,1.11c-0.15-0.19-0.33-0.33-0.55-0.48
				c-1.41-0.93-3.32-0.55-4.25,0.85l-0.66,1.07c-0.07-0.15-0.11-0.3-0.22-0.44c-0.22-0.44-0.59-0.78-1-1.07
				c-1.37-0.89-3.18-0.59-4.14,0.7l1,1.25l0.18-0.26c0.3-0.44,0.78-0.7,1.29-0.7c0.3,0,0.59,0.08,0.85,0.26
				c0.22,0.14,0.37,0.33,0.48,0.52c0.11,0.22,0.19,0.48,0.19,0.74c0,0.3-0.08,0.59-0.26,0.85L26,27.69l0.19,0.26L27,28.98l0.18,0.26
				l3.14-4.73c0.3-0.44,0.78-0.7,1.29-0.7c0.3,0,0.59,0.08,0.85,0.26c0.18,0.11,0.33,0.26,0.44,0.44c0.19,0.26,0.26,0.55,0.26,0.85
				c0,0.3-0.07,0.59-0.26,0.85l-3.32,5.03c0,0,0,0.03-0.04,0.03l-0.37,0.55l0.96,1.26c0.11-0.11,0.22-0.26,0.29-0.41l0.11-0.19
				c3.25,0.26,6.2,0.78,8.49,1.41c0.08,0.04,0.15,0.04,0.22,0.04c0.18,0,0.41-0.07,0.55-0.22c0.19-0.19,0.26-0.48,0.19-0.74
				c-0.41-1.41-0.63-3.07-0.63-4.88s0.22-3.59,0.66-4.99C40.14,22.81,40.06,22.51,39.84,22.33z M38.22,32.09
				c-1.96-0.48-4.21-0.81-6.72-1.07l2.66-3.99c0.33-0.52,0.52-1.07,0.52-1.7c0-0.07,0-0.15,0-0.22c0-0.04,0-0.04,0-0.08
				c0-0.03,0-0.11,0-0.15c0-0.03,0-0.03,0-0.07c0-0.08-0.04-0.11-0.04-0.19c0,0,0,0,0-0.04c1.33-0.22,2.55-0.44,3.65-0.74
				c-0.26,1.26-0.41,2.66-0.41,4.1C37.85,29.5,38,30.83,38.22,32.09z"/>
		</g>
	</g>
	<g>
		<defs>
			<rect id="SVGID_00000077325972431202592310000005609508566266248632_" x="8.39" y="21.91" width="17.03" height="12.35"/>
		</defs>
		<clipPath id="SVGID_00000066503953556261718730000016619936833414044586_">
			<use xlink:href="#SVGID_00000077325972431202592310000005609508566266248632_"  style="overflow:visible;"/>
		</clipPath>
		<g style="clip-path:url(#SVGID_00000066503953556261718730000016619936833414044586_);">
			<path d="M23.56,31.38c-0.22,0.33-0.55,0.59-0.96,0.67c-0.41,0.07-0.81,0-1.15-0.22c-0.22-0.15-0.4-0.37-0.52-0.59
				c-0.26-0.48-0.22-1.07,0.11-1.52l0.92-1.4l-0.18-0.26l-0.81-1.03l-0.19-0.26l-2.95,4.47l-0.07,0.14
				c-0.22,0.33-0.55,0.59-0.96,0.67c-0.41,0.07-0.81,0-1.14-0.22c-0.11-0.07-0.22-0.15-0.3-0.26c-0.07-0.11-0.15-0.22-0.22-0.33
				c-0.26-0.48-0.22-1.04,0.04-1.48c0-0.04,0.03-0.04,0.03-0.07l3.18-4.81c0,0,0-0.03,0.04-0.03c0.15-0.22,0.33-0.37,0.55-0.48
				l-0.96-1.22c-0.22,0.15-0.41,0.3-0.55,0.48c-3.06-0.29-5.87-0.74-8.05-1.37c-0.26-0.07-0.55,0-0.74,0.19
				c-0.19,0.19-0.26,0.48-0.19,0.74c0.41,1.4,0.63,3.07,0.63,4.88s-0.22,3.59-0.66,4.99c-0.07,0.26,0,0.55,0.19,0.78
				c0.04,0.11,0.22,0.22,0.41,0.22c0.07,0,0.15,0,0.22-0.03c1.48-0.44,3.21-0.82,5.17-1.11c0.08,0.07,0.19,0.14,0.26,0.22
				c0.52,0.33,1.11,0.52,1.7,0.52c1,0,1.96-0.48,2.55-1.37l0.44-0.66c0.04,0.11,0.08,0.22,0.15,0.33c0.22,0.48,0.59,0.89,1.07,1.22
				c0.52,0.33,1.11,0.52,1.7,0.52c1,0,1.96-0.48,2.55-1.37l0.08-0.11l-1-1.3L23.56,31.38z M10.13,32.16
				c0.26-1.26,0.41-2.66,0.41-4.11c0-1.4-0.11-2.77-0.37-4.03c1.81,0.44,3.91,0.78,6.2,1l-2.51,3.81c-0.04,0.07-0.08,0.15-0.11,0.18
				l-0.04,0.04c-0.04,0.08-0.07,0.11-0.07,0.19c0,0,0,0,0,0.04c-0.04,0.07-0.08,0.15-0.08,0.22c0,0,0,0.04-0.04,0.04
				c-0.03,0.07-0.03,0.11-0.03,0.18v0.04c0,0.08-0.04,0.15-0.04,0.22v0.03c0,0.08,0,0.11-0.04,0.19v0.04c0,0.07,0,0.15,0,0.22v0.04
				c0,0.07,0,0.11,0,0.19v0.03c0,0.08,0,0.15,0.04,0.22v0.03c0,0.08,0.04,0.11,0.04,0.19v0.04c0,0.07,0.03,0.11,0.03,0.18
				c0,0,0,0,0,0.04C12.27,31.68,11.16,31.9,10.13,32.16z"/>
		</g>
	</g>
	<path d="M16.85,39.15l-1.99-3.55c-0.15-0.22-0.41-0.41-0.66-0.41s-0.52,0.15-0.66,0.41l-1.99,3.55c-0.04,0.03-0.04,0.11-0.08,0.14
		c-0.07,0.26-0.15,0.55-0.15,0.85c0,0.08,0,0.11,0,0.19c0.08,1.52,1.33,2.7,2.88,2.7s2.77-1.18,2.88-2.7c0-0.07,0-0.11,0-0.19
		c0-0.3-0.04-0.59-0.15-0.85C16.89,39.26,16.85,39.18,16.85,39.15z M15.48,40.22c-0.03,0.7-0.63,1.26-1.33,1.26
		c-0.7,0-1.3-0.55-1.33-1.26c0-0.04,0-0.04,0-0.08c0-0.11,0-0.22,0.03-0.33l1.3-2.29l1.29,2.29c0.03,0.11,0.03,0.22,0.03,0.33
		C15.48,40.18,15.48,40.22,15.48,40.22z"/>
	<g>
		<defs>
			<rect id="SVGID_00000085942869172049724390000010604651741710485923_" x="17.48" y="36.9" width="7.05" height="8.65"/>
		</defs>
		<clipPath id="SVGID_00000069388309278832951550000002281974696719398311_">
			<use xlink:href="#SVGID_00000085942869172049724390000010604651741710485923_"  style="overflow:visible;"/>
		</clipPath>
		<g style="clip-path:url(#SVGID_00000069388309278832951550000002281974696719398311_);">
			<path d="M23.86,41.59l-1.99-3.55c-0.15-0.22-0.41-0.41-0.66-0.41c-0.26,0-0.52,0.15-0.66,0.41l-1.99,3.55
				c-0.04,0.04-0.04,0.11-0.08,0.15c-0.07,0.26-0.14,0.55-0.14,0.85c0,0.07,0,0.11,0,0.18c0.07,1.52,1.33,2.7,2.88,2.7
				c1.55,0,2.77-1.18,2.88-2.7c0-0.07,0-0.11,0-0.18c0-0.3-0.03-0.59-0.15-0.85C23.9,41.66,23.9,41.63,23.86,41.59z M22.53,42.66
				c-0.04,0.7-0.63,1.26-1.33,1.26c-0.7,0-1.29-0.55-1.33-1.26c0-0.04,0-0.04,0-0.07c0-0.11,0-0.22,0.03-0.33l1.29-2.29l1.29,2.29
				c0.04,0.11,0.04,0.22,0.04,0.33C22.53,42.62,22.53,42.62,22.53,42.66z"/>
		</g>
	</g>
</g>
</svg>
