<?xml version="1.0" encoding="utf-8"?>
<!-- Generator: Adobe Illustrator 27.3.1, SVG Export Plug-In . SVG Version: 6.00 Build 0)  -->
<svg version="1.1" id="Layer_1" xmlns="http://www.w3.org/2000/svg" xmlns:xlink="http://www.w3.org/1999/xlink" x="0px" y="0px"
	 viewBox="0 0 50 50" style="enable-background:new 0 0 50 50;" xml:space="preserve">
<style type="text/css">
	.st0{fill:none;}
	.st1{stroke:#000000;stroke-miterlimit:10;}
	.st2{stroke:#000000;stroke-width:0.75;stroke-miterlimit:10;}
	.st3{clip-path:url(#SVGID_00000035497864474964196940000016463659416991476611_);}
	.st4{clip-path:url(#SVGID_00000082342034772081280500000005878567759678209970_);}
	.st5{fill:#FFFFFF;}
	.st6{clip-path:url(#SVGID_00000023240852904504669350000018060714341032316802_);}
	.st7{fill:#231F20;}
	.st8{clip-path:url(#SVGID_00000096049742894395175300000014527814436685430173_);}
	.st9{clip-path:url(#SVGID_00000075851171932603228700000000217619029117916845_);}
	.st10{clip-path:url(#SVGID_00000098909035785568770600000016159233347286342323_);}
	.st11{clip-path:url(#SVGID_00000067948704046050536210000016998008782708419253_);}
	.st12{clip-path:url(#SVGID_00000083804770446120321660000011902650294323968950_);}
	.st13{clip-path:url(#SVGID_00000143611776170353171290000017294859804594532777_);}
	.st14{clip-path:url(#SVGID_00000170254246489544206230000017148319300875450020_);}
	.st15{clip-path:url(#SVGID_00000156580985158170380410000001619472724619888528_);}
	.st16{clip-path:url(#SVGID_00000026156972400760263250000014864557422178606733_);}
	.st17{clip-path:url(#SVGID_00000034082225348282809960000017226371681998465164_);}
	.st18{clip-path:url(#SVGID_00000137814523570221802040000002385610410430871200_);}
	.st19{clip-path:url(#SVGID_00000028312360336889990580000004828334682835682944_);}
	.st20{clip-path:url(#SVGID_00000134929727757211549480000002678026028296881082_);}
	.st21{clip-path:url(#SVGID_00000140712421838382288360000016905268820723758261_);}
	.st22{clip-path:url(#SVGID_00000155146847966952608390000000943844214992164796_);}
	.st23{clip-path:url(#SVGID_00000145756456027736920080000017769413707932346497_);}
	.st24{clip-path:url(#SVGID_00000034055527576579957420000018239892091280205203_);}
	.st25{clip-path:url(#SVGID_00000072273713215352683460000016852588372608676540_);}
	.st26{clip-path:url(#SVGID_00000069364872936127984990000000846380066820287872_);}
	.st27{clip-path:url(#SVGID_00000048458862141123194930000000107743293628179131_);}
	.st28{clip-path:url(#SVGID_00000094608844823883685780000004132143154999135367_);}
	.st29{clip-path:url(#SVGID_00000079481887333165349910000006027106719396495020_);}
	.st30{clip-path:url(#SVGID_00000047059448511244430540000010167070661868711558_);}
	.st31{fill-rule:evenodd;clip-rule:evenodd;}
	.st32{clip-path:url(#SVGID_00000101094400190905184620000000806357245933084594_);}
	.st33{clip-path:url(#SVGID_00000088114229736199588270000000873856963995544733_);}
	.st34{stroke:#000000;stroke-width:0.5;stroke-miterlimit:10;}
	.st35{clip-path:url(#SVGID_00000087404415888990621490000004804851386862204291_);}
	.st36{clip-path:url(#SVGID_00000053515328722397325340000009175793047554077600_);}
	.st37{clip-path:url(#SVGID_00000023986993916434090730000007087940411327743152_);}
	.st38{fill:#1A1A1A;}
	.st39{clip-path:url(#SVGID_00000070116759708734992870000012330236527515755932_);}
	.st40{clip-path:url(#SVGID_00000050662380540832545130000006588035426607577237_);}
	.st41{clip-path:url(#SVGID_00000120560387273179171430000000493809833371322772_);}
	.st42{clip-path:url(#SVGID_00000148659972360769217590000002843367523362375101_);}
	.st43{clip-path:url(#SVGID_00000026152938154729324150000005630997753342552240_);}
	.st44{clip-path:url(#SVGID_00000039829926306972142830000004382610195647068346_);}
	.st45{clip-path:url(#SVGID_00000000181655788144240010000010268061363492051133_);}
	.st46{clip-path:url(#SVGID_00000148619403611741167600000001584151172392470400_);}
	.st47{clip-path:url(#SVGID_00000119083480218875417430000004650345527702305678_);}
	.st48{fill:#F1F1F1;}
	.st49{fill:#E8E8E8;}
	.st50{fill:#FEFEFE;}
	.st51{fill:#CCCCCC;}
	.st52{fill:#B3B3B3;}
	.st53{fill:#E6E6E6;}
	.st54{fill:#EBEBEB;}
	.st55{fill:#EEEEEE;}
	.st56{fill:#F8F8F8;}
	.st57{fill:#FBFBFB;}
	.st58{fill:#383838;}
	.st59{fill:#232323;}
	.st60{fill:#F6F6F6;}
	.st61{fill:#535353;}
	.st62{fill:#0A0A0A;}
	.st63{fill:#F5F5F5;}
	.st64{fill:#818181;}
	.st65{fill:#4A4A4A;}
	.st66{fill:#999999;}
	.st67{fill:url(#SVGID_00000052804153971064722940000005726811925951790266_);}
	.st68{fill:url(#SVGID_00000049181191917235171470000001024952502051493046_);}
	.st69{fill:#0E0E0D;}
	.st70{fill:#333333;}
	.st71{fill:#808080;}
	.st72{fill:url(#SVGID_00000106832753443101800840000010882767379824185485_);}
	.st73{fill:#666666;}
	.st74{fill:url(#SVGID_00000057105975003409260920000011838847305404533419_);}
	.st75{fill:url(#SVGID_00000178910436606247842170000018142560130432825997_);}
	.st76{fill:url(#SVGID_00000034776330336587877250000013610794512491010694_);}
	.st77{fill:url(#SVGID_00000123421826201924084800000014703120450529512091_);}
	.st78{fill:url(#SVGID_00000157303763679514694190000014428530853648654505_);}
	.st79{clip-path:url(#SVGID_00000075141909288982040190000002687631645139270531_);}
	.st80{clip-path:url(#SVGID_00000076599396497464825840000010877654833071082936_);}
	.st81{clip-path:url(#SVGID_00000089568568502482546890000001363185867936741507_);}
	.st82{clip-path:url(#SVGID_00000100344040674676571740000008306468803464226442_);}
	.st83{clip-path:url(#SVGID_00000070101984409263126650000012281802263850753176_);}
	.st84{fill:#241F20;stroke:#000000;stroke-width:0.5;stroke-miterlimit:10;}
	.st85{clip-path:url(#SVGID_00000160177069480810701330000015515555542342480285_);}
	.st86{clip-path:url(#SVGID_00000058578608888104997690000015295804314020736664_);}
	.st87{clip-path:url(#SVGID_00000080892196369290801080000009849523230057232275_);}
	.st88{clip-path:url(#SVGID_00000101824072577497905120000018076393487514267021_);}
	.st89{clip-path:url(#SVGID_00000150086351004072662510000004012685146460394131_);}
	.st90{clip-path:url(#SVGID_00000176029186206833264190000001293612975833382319_);}
	.st91{clip-path:url(#SVGID_00000041275221379351444190000004551543799226106000_);}
	.st92{clip-path:url(#SVGID_00000086688405910923161450000001774097227060869294_);}
	.st93{clip-path:url(#SVGID_00000085961149820395931650000006363266435792865962_);}
	.st94{clip-path:url(#SVGID_00000150073031964638259030000006898146764930931371_);}
	.st95{clip-path:url(#SVGID_00000152249667043616091990000013670056093837008315_);}
	.st96{clip-path:url(#SVGID_00000150090276758510337430000002717609753063319441_);}
	.st97{clip-path:url(#SVGID_00000139278243949454365750000006596981082049130116_);}
	.st98{clip-path:url(#SVGID_00000045617578796577510970000007645338118418194561_);}
	.st99{clip-path:url(#SVGID_00000045593153140675220210000006436297570336362907_);}
	.st100{clip-path:url(#SVGID_00000107562615045316602360000013415837852571740562_);}
	.st101{clip-path:url(#SVGID_00000138570650555211941980000012569872233728699809_);}
	.st102{clip-path:url(#SVGID_00000050631554992266129020000014360438953871111848_);}
	.st103{clip-path:url(#SVGID_00000082345176190572177710000004488621977449282750_);}
	.st104{clip-path:url(#SVGID_00000090266272104232157370000007606319304191507866_);}
	.st105{clip-path:url(#SVGID_00000079486624185636206670000005207473749740150685_);}
	.st106{clip-path:url(#SVGID_00000045608258363853067510000009778073985873628844_);}
	.st107{clip-path:url(#SVGID_00000102540285858587821990000018216727503098042005_);}
	.st108{clip-path:url(#SVGID_00000130638991664370348650000011789439329522456454_);}
	.st109{clip-path:url(#SVGID_00000046300533495336391710000007731861675809521832_);}
	.st110{clip-path:url(#SVGID_00000134233329757948169240000010702036557195953033_);}
	.st111{clip-path:url(#SVGID_00000101060998001090088600000007431155074963514811_);}
	.st112{clip-path:url(#SVGID_00000179617667058219797930000018383039175580003002_);}
	.st113{clip-path:url(#SVGID_00000108284339259904032030000000149570325873911426_);}
	.st114{clip-path:url(#SVGID_00000098204460351703775680000010413155484203691186_);}
	.st115{fill:#FFFFFF;stroke:#000000;stroke-miterlimit:10;}
	.st116{clip-path:url(#SVGID_00000083052935176666260720000014136466911103215749_);}
	.st117{clip-path:url(#SVGID_00000018236411434941152860000013872629426491320453_);}
	.st118{fill:none;stroke:#010101;stroke-miterlimit:10;}
	.st119{fill:#010101;stroke:#000000;stroke-miterlimit:10;}
	.st120{clip-path:url(#SVGID_00000090284198704503564480000014081170735014801318_);}
	.st121{fill:#010101;stroke:#010101;stroke-miterlimit:10;}
	.st122{clip-path:url(#SVGID_00000104673498323996256180000012663141018773108617_);}
	.st123{clip-path:url(#SVGID_00000133525559140788328090000017833545251589695400_);}
	.st124{clip-path:url(#SVGID_00000148657690276087396730000005112795065122861967_);}
	.st125{clip-path:url(#SVGID_00000170992528732631772940000012652048587797820568_);}
	.st126{clip-path:url(#SVGID_00000151527625871258865650000014324154223409900986_);}
	.st127{fill:none;stroke:#000000;stroke-width:3;stroke-miterlimit:10;}
	.st128{clip-path:url(#SVGID_00000163045527322033361410000007806771516861004465_);}
	.st129{clip-path:url(#SVGID_00000136412681466036035470000015873267833923877511_);}
	.st130{clip-path:url(#SVGID_00000181788289194336050580000011682861621169218698_);}
	.st131{clip-path:url(#SVGID_00000058586742216142440480000000086134245819905944_);}
	.st132{fill:#040606;}
	.st133{clip-path:url(#SVGID_00000098220437517625887920000014766766867876506534_);}
	.st134{clip-path:url(#SVGID_00000153699753598543689270000014608056430507053983_);}
	.st135{clip-path:url(#SVGID_00000016764149697812366750000004386261880011849875_);}
	.st136{clip-path:url(#SVGID_00000134941858790587232770000003690615552391271570_);}
	.st137{clip-path:url(#SVGID_00000018239541870458344060000018232192527456547505_);}
	.st138{clip-path:url(#SVGID_00000160191905779774861290000008654236839846803351_);}
	.st139{clip-path:url(#SVGID_00000074419784691852490520000009505406007139040669_);}
	.st140{fill:#FFFFFF;stroke:#000000;stroke-width:1.5;stroke-miterlimit:10;}
	.st141{clip-path:url(#SVGID_00000065038589969698592290000013944660528230074514_);}
	.st142{fill:#BDBCBC;}
	.st143{clip-path:url(#SVGID_00000091728925256893901120000017100929651203905196_);}
	.st144{fill:#2E2A2B;}
	.st145{clip-path:url(#SVGID_00000003795631190719970510000003618112315915084468_);}
	.st146{clip-path:url(#SVGID_00000032615376258290349040000005722406320530095791_);}
	.st147{clip-path:url(#SVGID_00000132052564981717539360000018191955150433756083_);}
	.st148{clip-path:url(#SVGID_00000085961059539425855860000005836682514386249123_);}
	.st149{clip-path:url(#SVGID_00000148639722221895274060000006948368731975970445_);}
	.st150{fill:#272324;}
	.st151{clip-path:url(#SVGID_00000007398964573506527840000012864262543927894924_);}
	.st152{clip-path:url(#SVGID_00000078764766403083336480000016544481714673543559_);}
	.st153{clip-path:url(#SVGID_00000122701510654548806660000015237636782000301221_);}
	.st154{clip-path:url(#SVGID_00000027564198120004939680000011395456248459930540_);}
	.st155{clip-path:url(#SVGID_00000032626584019278190240000001336676090983467963_);}
	.st156{clip-path:url(#SVGID_00000119111375109406130560000014729220579734000521_);}
	.st157{fill:none;stroke:#000000;stroke-width:0.8735;stroke-linecap:round;stroke-linejoin:round;stroke-miterlimit:10;}
	.st158{clip-path:url(#SVGID_00000024697377728879591150000012682749745751002008_);}
	.st159{clip-path:url(#SVGID_00000000194710864419497790000014517684689288279736_);}
	.st160{clip-path:url(#SVGID_00000154413883827756753010000006579898287979002508_);}
	.st161{clip-path:url(#SVGID_00000048496011994562140870000017917026070769061533_);}
	.st162{clip-path:url(#SVGID_00000082361962611257621970000001555538153164844714_);}
	.st163{clip-path:url(#SVGID_00000031915202753786833890000005702854264128319643_);}
	.st164{clip-path:url(#SVGID_00000178195012583416922140000012113297289996883617_);}
	.st165{clip-path:url(#SVGID_00000039828317469469601890000007090786571585062024_);}
	.st166{clip-path:url(#SVGID_00000103267189904745753190000002029638958497104543_);}
	.st167{clip-path:url(#SVGID_00000111903568902679172130000013882232475904747180_);}
	.st168{clip-path:url(#SVGID_00000147199402983657215860000001166905649574427534_);}
	.st169{clip-path:url(#SVGID_00000112590082964250655350000009596924949265473675_);}
	.st170{clip-path:url(#SVGID_00000147911338220944949060000005187618253220774582_);}
	.st171{clip-path:url(#SVGID_00000062152930138495113110000006189765066463497374_);}
	.st172{clip-path:url(#SVGID_00000023263677315065228110000012416450781948455582_);}
	.st173{clip-path:url(#SVGID_00000119825866600041204760000006582364136389635252_);}
	.st174{clip-path:url(#SVGID_00000014616094156462488290000004865899744557389989_);}
	.st175{clip-path:url(#SVGID_00000073002284069838653690000016261477525080758969_);}
	.st176{clip-path:url(#SVGID_00000025418631233822849400000014504058309065235127_);}
	.st177{clip-path:url(#SVGID_00000148627266056273401430000010637975392096096186_);}
	.st178{clip-path:url(#SVGID_00000065065795302741179520000007673929605183048579_);}
	.st179{clip-path:url(#SVGID_00000165951730197168452120000011075404896158144650_);}
	.st180{clip-path:url(#SVGID_00000010268646951987929070000009045877790476196269_);}
	.st181{clip-path:url(#SVGID_00000031184427864758239440000008568938079913196934_);}
	.st182{clip-path:url(#SVGID_00000093876693345498683280000005606755143204944063_);}
	.st183{clip-path:url(#SVGID_00000044151836730487597630000008190888291524912563_);}
	.st184{clip-path:url(#SVGID_00000067917997205934468080000008163819892576799387_);}
	.st185{clip-path:url(#SVGID_00000053525909756013938620000011283988266344093571_);}
	.st186{clip-path:url(#SVGID_00000083788482096770899190000001389970093101539227_);}
	.st187{clip-path:url(#SVGID_00000131341552769175240600000003754464705153766799_);}
	.st188{clip-path:url(#SVGID_00000041268368609512352210000001218471688430472098_);}
	.st189{clip-path:url(#SVGID_00000019663604601076557890000014596921668821520031_);}
	.st190{clip-path:url(#SVGID_00000012469442269014555230000010366922606994505877_);}
	.st191{clip-path:url(#SVGID_00000168099614997439161800000002825267430812008110_);}
	.st192{clip-path:url(#SVGID_00000144320293328963215490000005478290401246648996_);}
	.st193{clip-path:url(#SVGID_00000178900550211705498400000000422102190950547603_);}
	.st194{clip-path:url(#SVGID_00000127010079643700451930000017580957346258193036_);}
	.st195{clip-path:url(#SVGID_00000071533592663010969690000009509651408721276060_);}
	.st196{fill:#E5E5E5;}
	.st197{fill:#1D1D1B;}
	.st198{fill:none;stroke:#000000;stroke-miterlimit:10;}
	.st199{fill:#FEFEFE;stroke:#000000;stroke-miterlimit:10;}
	.st200{clip-path:url(#SVGID_00000139995070445689428010000010954327691832027826_);}
	.st201{clip-path:url(#SVGID_00000049908780826893653210000003118040909035348869_);}
	.st202{clip-path:url(#SVGID_00000087397339205049093640000010064656328263556025_);}
	.st203{fill:#231F1F;}
	.st204{fill:#020000;}
	.st205{clip-path:url(#SVGID_00000094602364357884953580000012410161047532983712_);}
	.st206{clip-path:url(#SVGID_00000022539660934494501520000014553037191994034066_);}
	.st207{clip-path:url(#SVGID_00000174571040482738463460000016910412744704760213_);}
	.st208{clip-path:url(#SVGID_00000003821271262489089970000005307068814669502139_);}
	.st209{fill:#050000;}
	.st210{clip-path:url(#SVGID_00000004512705071484281090000000469287338167646394_);}
	.st211{clip-path:url(#SVGID_00000101795593921059101960000003244391424303570051_);}
	.st212{clip-path:url(#SVGID_00000182497941436191083090000017702461182286488486_);}
	.st213{clip-path:url(#SVGID_00000116223676703571869930000001751023738565395586_);}
	.st214{clip-path:url(#SVGID_00000102506893058845479780000002204334668139584698_);}
	.st215{clip-path:url(#SVGID_00000002361075627630136460000007449988683705100973_);}
	.st216{fill:#12100F;}
	.st217{clip-path:url(#SVGID_00000036931778389368730630000017876213137728183462_);}
	.st218{clip-path:url(#SVGID_00000171689660296750189140000017276286169724960680_);}
	.st219{fill:none;stroke:#000000;stroke-width:0.5;stroke-miterlimit:10;}
	.st220{clip-path:url(#SVGID_00000110467958215825714180000013817342186679120573_);}
	.st221{clip-path:url(#SVGID_00000053542512296175670310000004841395222618482081_);}
	.st222{clip-path:url(#SVGID_00000172429459714059263850000002540292515965712535_);}
	.st223{clip-path:url(#SVGID_00000075137572327175830130000006618282741667732379_);}
	.st224{fill:none;stroke:#000000;stroke-width:0.25;stroke-miterlimit:10;}
	.st225{clip-path:url(#SVGID_00000029023584878472876210000002735432088728333700_);}
	.st226{clip-path:url(#SVGID_00000026853477156943709820000008828877871899943063_);}
	.st227{clip-path:url(#SVGID_00000171705398807166498290000010189792785138480784_);}
</style>
<g>
	<g>
		<rect x="38.15" y="26.37" class="st0" width="15.56" height="0.39"/>
		<g>
			<path d="M38.2,24.79v0.37l15.5-0.19L38.2,24.79z"/>
		</g>
		<path d="M37.22,25.59v0.37l14.28-0.19L37.22,25.59z"/>
		<path d="M37.65,27.18v0.37l12.95-0.18L37.65,27.18z"/>
		<rect x="36.76" y="28.78" class="st0" width="12" height="0.38"/>
		<g>
			<path d="M36.76,27.98v0.37l12-0.18L36.76,27.98z"/>
		</g>
		<path d="M38.49,29.58v0.36l10.93-0.18L38.49,29.58z"/>
		<rect x="37.44" y="33.55" class="st0" width="6" height="0.4"/>
		<g>
			<path d="M37.53,32.79v0.34l5.88-0.17L37.53,32.79z"/>
		</g>
		<path d="M37.78,31.98v0.34l6.88-0.17L37.78,31.98z"/>
		<path d="M37.22,31.18v0.35l8.45-0.18L37.22,31.18z"/>
		<path d="M37.51,30.38v0.36l9.72-0.18L37.51,30.38z"/>
	</g>
	<g>
		<g>
			
				<rect x="8.18" y="15.25" transform="matrix(0.0949 -0.9955 0.9955 0.0949 -9.1361 48.3479)" class="st0" width="27.67" height="27.89"/>
		</g>
		<g>
			<g>
				<path d="M20.52,43.14c-3.72-0.35-7.08-2.14-9.46-5.03c-2.38-2.89-3.49-6.53-3.14-10.26c0.36-3.73,2.14-7.1,5.02-9.48
					c2.88-2.39,6.52-3.5,10.24-3.15c5.69,0.54,10.54,4.59,12.12,10.09l1.31,0.12l-0.97,10.21l-1.31-0.12
					C31.74,40.63,26.21,43.68,20.52,43.14z M23.14,15.66c-3.6-0.34-7.13,0.74-9.92,3.05c-2.79,2.31-4.52,5.57-4.86,9.19
					c-0.34,3.61,0.74,7.14,3.04,9.94c2.3,2.8,5.56,4.53,9.16,4.87c5.56,0.53,10.97-2.49,13.44-7.51l0.07-0.13l1.17,0.11l0.89-9.35
					l-1.17-0.11l-0.04-0.14C33.43,20.17,28.7,16.19,23.14,15.66z M20.7,41.24c-3.21-0.31-6.12-1.85-8.17-4.34
					c-2.06-2.49-3.02-5.64-2.71-8.86c0.31-3.22,1.85-6.13,4.34-8.19c2.49-2.06,5.63-3.03,8.85-2.72c3.21,0.31,6.12,1.85,8.17,4.34
					c2.06,2.49,3.02,5.64,2.71,8.86s-1.85,6.13-4.34,8.19C27.05,40.58,23.91,41.55,20.7,41.24z M22.96,17.56
					c-3.1-0.3-6.13,0.64-8.53,2.62c-2.4,1.99-3.89,4.79-4.18,7.9s0.63,6.14,2.61,8.54c1.98,2.4,4.78,3.89,7.88,4.19
					c3.1,0.3,6.13-0.64,8.53-2.62c2.4-1.99,3.89-4.79,4.18-7.9c0.3-3.11-0.63-6.14-2.61-8.54C28.85,19.34,26.05,17.85,22.96,17.56z
					 M20.78,40.53c-4.98-0.47-9.25-4.24-10.14-9.4l-0.09-0.54l0.44,0.33c2.91,2.19,4.93,1.62,7.22-0.05l-0.54-2.06l-1.77,1.88
					l-1.96-2.37l3.08-3.86l1.84-0.59l0.09,0.06c0.61,0.44,1.36,0.61,2.1,0.49c0.74-0.13,1.39-0.53,1.82-1.15l0.06-0.09l1.94-0.04
					l4.17,2.64l-0.25,0.67c1.34,0.27,2.78,0.86,4.29,1.75l0.1,0.06l0.01,0.11c0.42,5.89-3.65,11.07-9.46,12.05
					C22.74,40.59,21.74,40.63,20.78,40.53z M11.18,31.6c1.26,5.63,6.75,9.36,12.48,8.4c5.55-0.94,9.44-5.86,9.1-11.48
					c-1.46-0.85-2.84-1.4-4.12-1.65l-0.67,1.8l-2.29-1.2l0.52,6.77l-6.82,1.15l-1.06-4.06C16.11,32.91,14,33.52,11.18,31.6z
					 M18.7,31.05l1,3.85l6.04-1.02l-0.53-6.92l-0.15,0.05l0-0.04c-0.08,0.02-0.16,0.04-0.23,0.07l0,0l-0.12,0.04l0,0
					c-0.12,0.04-0.25,0.08-0.37,0.13c-0.04,0.02-0.07,0.03-0.09,0.04l-0.05,0.02c-0.05,0.02-0.09,0.04-0.14,0.06l-0.05,0.02
					c-0.06,0.03-0.13,0.06-0.19,0.08l0,0l-0.03,0.02l0,0c-1.42,0.65-2.64,1.64-3.83,2.61C19.53,30.4,19.11,30.73,18.7,31.05z
					 M17.89,27.95l0.69,2.65c0.36-0.28,0.73-0.58,1.11-0.88c1.26-1.03,2.57-2.09,4.13-2.76c0.04-0.02,0.07-0.03,0.08-0.04
					c0.44-0.18,0.9-0.33,1.35-0.44l0.53-0.17l-0.13,0.08c0.42-0.07,0.85-0.11,1.28-0.12l0.13,0.01c0.03,0,0.07,0,0.11,0
					c0.05,0,0.09,0,0.14,0l0.04,0l0-0.02l0.05,0.01l0.01,0.02c0.04,0,0.08,0,0.13,0c0.06,0,0.11,0,0.17,0.01l0.46,0.04
					c0.07,0.01,0.13,0.02,0.2,0.03l0.15-0.41l-3.76-2.38l-1.59,0.04c-0.5,0.66-1.22,1.1-2.04,1.24c-0.82,0.14-1.64-0.04-2.33-0.5
					l-1.51,0.49l-2.78,3.48l1.42,1.71L17.89,27.95z M25.48,26.87l2.25,1.18l0.47-1.26c-0.03,0-0.06-0.01-0.08-0.01l-0.46-0.04
					c-0.04,0-0.09,0-0.13,0c-0.06,0-0.11,0-0.17-0.01l-0.1-0.01c-0.03,0-0.06,0-0.09,0c-0.05,0-0.11,0-0.16,0l-0.09-0.01
					c-0.44,0.01-0.88,0.05-1.3,0.13C25.57,26.85,25.53,26.86,25.48,26.87z M24.01,27.34L24.01,27.34
					C24.01,27.34,24.01,27.34,24.01,27.34z M13.67,23.82c-0.27-0.03-0.5-0.21-0.61-0.45c-0.1-0.25-0.06-0.54,0.1-0.75
					c1.68-2.23,4.12-3.72,6.87-4.19c0.06-0.02,0.11-0.02,0.16-0.01l0.02,0c0.01,0,0.02,0,0.02,0l0.02,0l0,0c0,0,0,0,0,0
					c0.37,0.04,0.67,0.35,0.68,0.72c0.01,0.38-0.26,0.71-0.63,0.77c-2.37,0.4-4.48,1.68-5.93,3.61
					C14.2,23.74,13.94,23.85,13.67,23.82z M20.16,18.85c-0.01,0-0.01,0-0.01,0l-0.03,0.01c-2.65,0.45-4.99,1.88-6.61,4.02
					c-0.07,0.09-0.08,0.21-0.04,0.32c0.04,0.1,0.14,0.17,0.25,0.19c0.11,0.01,0.22-0.04,0.29-0.12c1.52-2.02,3.72-3.36,6.21-3.78
					c0.16-0.03,0.27-0.16,0.27-0.32c-0.01-0.16-0.13-0.29-0.29-0.3L20.16,18.85z M22.06,19.85c-0.21-0.02-0.39-0.12-0.53-0.28
					c-0.13-0.16-0.19-0.36-0.17-0.57c0.02-0.21,0.12-0.39,0.28-0.53c0.16-0.13,0.37-0.19,0.57-0.18c0.21,0.02,0.39,0.12,0.52,0.28
					c0.13,0.16,0.19,0.36,0.17,0.57c-0.02,0.21-0.12,0.39-0.28,0.53C22.47,19.8,22.26,19.87,22.06,19.85z M22.17,18.73
					c-0.09-0.01-0.18,0.02-0.25,0.08c-0.07,0.06-0.11,0.14-0.12,0.23c-0.01,0.09,0.02,0.18,0.08,0.25c0.11,0.14,0.34,0.16,0.48,0.05
					c0.07-0.06,0.11-0.14,0.12-0.23s-0.02-0.18-0.08-0.25C22.34,18.78,22.26,18.74,22.17,18.73z"/>
			</g>
		</g>
	</g>
</g>
</svg>
