<?xml version="1.0" encoding="utf-8"?>
<!-- Generator: Adobe Illustrator 27.3.1, SVG Export Plug-In . SVG Version: 6.00 Build 0)  -->
<svg version="1.1" id="Layer_1" xmlns="http://www.w3.org/2000/svg" xmlns:xlink="http://www.w3.org/1999/xlink" x="0px" y="0px"
	 viewBox="0 0 50 50" style="enable-background:new 0 0 50 50;" xml:space="preserve">
<style type="text/css">
	.st0{fill:none;}
	.st1{stroke:#000000;stroke-miterlimit:10;}
	.st2{stroke:#000000;stroke-width:0.75;stroke-miterlimit:10;}
	.st3{clip-path:url(#SVGID_00000155142339521534827960000018249304427532882874_);}
	.st4{clip-path:url(#SVGID_00000056418793742095867520000010502584954397838526_);}
	.st5{fill:#FFFFFF;}
	.st6{clip-path:url(#SVGID_00000147923504697557358670000011345221033271916675_);}
	.st7{fill:#231F20;}
	.st8{clip-path:url(#SVGID_00000150818684090739258190000009645512221990083731_);}
	.st9{clip-path:url(#SVGID_00000076606063641013781290000010115551450943141035_);}
	.st10{clip-path:url(#SVGID_00000140007142509816872210000007059173341925707147_);}
	.st11{clip-path:url(#SVGID_00000173877597920702873310000005986546589547707015_);}
	.st12{clip-path:url(#SVGID_00000141447366953901726070000002156053093903783554_);}
	.st13{clip-path:url(#SVGID_00000116946771208989052030000005682288026114867077_);}
	.st14{clip-path:url(#SVGID_00000066498842166973617170000007776120240385494662_);}
	.st15{clip-path:url(#SVGID_00000153688918761363639730000006506805369083785133_);}
	.st16{clip-path:url(#SVGID_00000108995089610441318360000009497733923429760176_);}
	.st17{clip-path:url(#SVGID_00000012437886392911308420000005925345991467472571_);}
	.st18{clip-path:url(#SVGID_00000075852770915053966020000000278772072803273397_);}
	.st19{clip-path:url(#SVGID_00000046304583793412639710000015799362140955644083_);}
	.st20{clip-path:url(#SVGID_00000096752177745587599810000015450275521021383825_);}
	.st21{clip-path:url(#SVGID_00000076604525727803401820000007512183962426195384_);}
	.st22{clip-path:url(#SVGID_00000181083264872323700240000011561873660419924913_);}
	.st23{clip-path:url(#SVGID_00000085952008140963766270000002084524867277089970_);}
	.st24{clip-path:url(#SVGID_00000108274318905293885110000000162882443831367826_);}
	.st25{clip-path:url(#SVGID_00000166634462978081921700000011298341075581748358_);}
	.st26{clip-path:url(#SVGID_00000134236570399198263530000013595937400738052765_);}
	.st27{clip-path:url(#SVGID_00000087375014783228866840000002447800461491909566_);}
	.st28{clip-path:url(#SVGID_00000029753143526095147390000002439270281724394919_);}
	.st29{clip-path:url(#SVGID_00000042713079248263730770000004540956865070678923_);}
	.st30{clip-path:url(#SVGID_00000073685083178392641000000001938501082757840514_);}
	.st31{fill-rule:evenodd;clip-rule:evenodd;}
	.st32{clip-path:url(#SVGID_00000091729568168871073600000002216074366325663362_);}
	.st33{clip-path:url(#SVGID_00000007402210958138172330000001689304846401702296_);}
	.st34{stroke:#000000;stroke-width:0.5;stroke-miterlimit:10;}
	.st35{clip-path:url(#SVGID_00000155147147810571477820000000744531025974856882_);}
	.st36{clip-path:url(#SVGID_00000004546823872814729740000006954558880537067678_);}
	.st37{clip-path:url(#SVGID_00000145778407011293171250000007489505583936056458_);}
	.st38{fill:#1A1A1A;}
	.st39{clip-path:url(#SVGID_00000068638571157987997160000000865737236904478397_);}
	.st40{clip-path:url(#SVGID_00000103228607727431867920000014837997448560934076_);}
	.st41{clip-path:url(#SVGID_00000083079313352181875060000016555102265628252082_);}
	.st42{clip-path:url(#SVGID_00000004546203632864226580000012643754137838153627_);}
	.st43{clip-path:url(#SVGID_00000162335301168038257840000017213360588779968165_);}
	.st44{clip-path:url(#SVGID_00000115490740567384035130000011956845658892045709_);}
	.st45{clip-path:url(#SVGID_00000065790199462016231380000013342126309373393319_);}
	.st46{clip-path:url(#SVGID_00000006683997231812153350000018237828993172041121_);}
	.st47{clip-path:url(#SVGID_00000076595399104198034330000008825780346393277627_);}
	.st48{fill:#F1F1F1;}
	.st49{fill:#E8E8E8;}
	.st50{fill:#FEFEFE;}
	.st51{fill:#CCCCCC;}
	.st52{fill:#B3B3B3;}
	.st53{fill:#E6E6E6;}
	.st54{fill:#EBEBEB;}
	.st55{fill:#EEEEEE;}
	.st56{fill:#F8F8F8;}
	.st57{fill:#FBFBFB;}
	.st58{fill:#383838;}
	.st59{fill:#232323;}
	.st60{fill:#F6F6F6;}
	.st61{fill:#535353;}
	.st62{fill:#0A0A0A;}
	.st63{fill:#F5F5F5;}
	.st64{fill:#818181;}
	.st65{fill:#4A4A4A;}
	.st66{fill:#999999;}
	.st67{fill:url(#SVGID_00000140011723768927461830000002123647689854521518_);}
	.st68{fill:url(#SVGID_00000183964831730218622730000016747023623079684005_);}
	.st69{fill:#0E0E0D;}
	.st70{fill:#333333;}
	.st71{fill:#808080;}
	.st72{fill:url(#SVGID_00000042703872314246132220000007793439995179648397_);}
	.st73{fill:#666666;}
	.st74{fill:url(#SVGID_00000158023562780406703040000011078286630027504814_);}
	.st75{fill:url(#SVGID_00000075139724529030973530000004446423356279392959_);}
	.st76{fill:url(#SVGID_00000118374394139408868400000010807668924972181929_);}
	.st77{fill:url(#SVGID_00000098900487611702922310000010945130542430996137_);}
	.st78{fill:url(#SVGID_00000021093256609937794350000012828443634186521475_);}
	.st79{clip-path:url(#SVGID_00000006665938965139752270000012187475721431416726_);}
	.st80{clip-path:url(#SVGID_00000039095564007083820150000008970081870648482999_);}
	.st81{clip-path:url(#SVGID_00000088814211753268549260000004641991919408941230_);}
	.st82{clip-path:url(#SVGID_00000103971363579644544360000003215937203823408040_);}
	.st83{clip-path:url(#SVGID_00000064321875890373229990000002688024013567293615_);}
	.st84{fill:#241F20;stroke:#000000;stroke-width:0.5;stroke-miterlimit:10;}
	.st85{clip-path:url(#SVGID_00000070090084512052564810000005913456213330841747_);}
	.st86{clip-path:url(#SVGID_00000002380093856833721520000016587019772925329033_);}
	.st87{clip-path:url(#SVGID_00000001656544761967244040000007162771918146739644_);}
	.st88{clip-path:url(#SVGID_00000183942242730096285110000008326266279325552543_);}
	.st89{clip-path:url(#SVGID_00000014610331027587291060000010130974018251292834_);}
	.st90{clip-path:url(#SVGID_00000083772142897729701830000001854233538362375100_);}
	.st91{clip-path:url(#SVGID_00000101798395328943316210000016745057642019508098_);}
	.st92{clip-path:url(#SVGID_00000063603225208923083120000011695131224644564381_);}
	.st93{clip-path:url(#SVGID_00000132090290021212067660000002182899295385735317_);}
	.st94{clip-path:url(#SVGID_00000039823328497333801030000006946703604809914021_);}
	.st95{clip-path:url(#SVGID_00000157303118947922877530000013449556399734509959_);}
	.st96{clip-path:url(#SVGID_00000075141742734919484800000013054407488338080915_);}
	.st97{clip-path:url(#SVGID_00000052809363551127418470000017162579110615214220_);}
	.st98{clip-path:url(#SVGID_00000024698714442594151680000008433784450335439294_);}
	.st99{clip-path:url(#SVGID_00000033338412699891016450000004262537403773331130_);}
	.st100{clip-path:url(#SVGID_00000109738626263055513660000010803178898512853683_);}
	.st101{clip-path:url(#SVGID_00000037680939557506308430000004623491623328410028_);}
	.st102{clip-path:url(#SVGID_00000045577535919324583080000001021082410195410061_);}
	.st103{clip-path:url(#SVGID_00000068652892805123057430000011159351730624469904_);}
	.st104{clip-path:url(#SVGID_00000103965799264889823710000012269911428303886261_);}
	.st105{clip-path:url(#SVGID_00000042707447083835565710000014666122116122180540_);}
	.st106{clip-path:url(#SVGID_00000168823883243497548930000003161836241516449971_);}
	.st107{clip-path:url(#SVGID_00000042708530051088287880000004720907384570281373_);}
	.st108{clip-path:url(#SVGID_00000146494104153663908500000006267675507548177335_);}
	.st109{clip-path:url(#SVGID_00000151528923803637758030000002472306815136318619_);}
	.st110{clip-path:url(#SVGID_00000082367885246799641480000018149868485888756629_);}
	.st111{clip-path:url(#SVGID_00000017496597949360788310000015240784200023811770_);}
	.st112{clip-path:url(#SVGID_00000103979954608002960170000015218675909693945018_);}
	.st113{clip-path:url(#SVGID_00000182500125889055312130000002668539432598344611_);}
	.st114{clip-path:url(#SVGID_00000138557183603792800710000007613722421418643842_);}
	.st115{fill:#FFFFFF;stroke:#000000;stroke-miterlimit:10;}
	.st116{clip-path:url(#SVGID_00000061431985415061977900000012548484839679160501_);}
	.st117{clip-path:url(#SVGID_00000063607934494739461570000000890385878512367036_);}
	.st118{fill:none;stroke:#010101;stroke-miterlimit:10;}
	.st119{fill:#010101;stroke:#000000;stroke-miterlimit:10;}
	.st120{clip-path:url(#SVGID_00000144318433682637195570000017742406706749544853_);}
	.st121{fill:#010101;stroke:#010101;stroke-miterlimit:10;}
	.st122{clip-path:url(#SVGID_00000156586371429702183940000008020876689595597229_);}
	.st123{clip-path:url(#SVGID_00000123414160161324365690000002410084960379789243_);}
	.st124{clip-path:url(#SVGID_00000173863362993401836480000005762581602475445157_);}
	.st125{clip-path:url(#SVGID_00000136405764022610059960000010548480911840375687_);}
	.st126{clip-path:url(#SVGID_00000082354981025311339350000006818416927438557864_);}
	.st127{fill:none;stroke:#000000;stroke-width:3;stroke-miterlimit:10;}
	.st128{clip-path:url(#SVGID_00000170982124890750557080000006538350894469034378_);}
	.st129{clip-path:url(#SVGID_00000100367821790043583640000016952913996436831119_);}
	.st130{clip-path:url(#SVGID_00000018915902167279566100000013820328251603797140_);}
	.st131{clip-path:url(#SVGID_00000171717489037685006840000002209042344208439465_);}
	.st132{fill:#040606;}
	.st133{clip-path:url(#SVGID_00000056426254595153149190000012283007573335297717_);}
	.st134{clip-path:url(#SVGID_00000181795427173999058190000018345538273284262034_);}
	.st135{clip-path:url(#SVGID_00000070104084546941816410000011295309231710709155_);}
	.st136{clip-path:url(#SVGID_00000150083424933289758660000009777500501152773253_);}
	.st137{clip-path:url(#SVGID_00000044138696726307048540000002129151666043370923_);}
	.st138{clip-path:url(#SVGID_00000114786101009776019070000010618527497313116034_);}
	.st139{clip-path:url(#SVGID_00000106863083126761430050000012367709457639118976_);}
	.st140{fill:#FFFFFF;stroke:#000000;stroke-width:1.5;stroke-miterlimit:10;}
	.st141{clip-path:url(#SVGID_00000151521154382565516670000004473624313599656345_);}
	.st142{fill:#BDBCBC;}
	.st143{clip-path:url(#SVGID_00000116924765845110991240000009426172297884478112_);}
	.st144{fill:#2E2A2B;}
	.st145{clip-path:url(#SVGID_00000148657806022213371910000014469095235872245429_);}
	.st146{clip-path:url(#SVGID_00000020392384802360739380000015254692176728456868_);}
	.st147{clip-path:url(#SVGID_00000121272691201245525350000014364692191895763339_);}
	.st148{clip-path:url(#SVGID_00000070829167565902536330000000152253151736770732_);}
	.st149{clip-path:url(#SVGID_00000157281461232929421870000004048403606815073171_);}
	.st150{fill:#272324;}
	.st151{clip-path:url(#SVGID_00000016056715630794054150000003458250981083386752_);}
	.st152{clip-path:url(#SVGID_00000119798709004493458110000017524044785826269093_);}
	.st153{clip-path:url(#SVGID_00000171714820950250596910000012487166193151219898_);}
	.st154{clip-path:url(#SVGID_00000132047648112666663350000001718070757489094807_);}
	.st155{clip-path:url(#SVGID_00000178203095950775339400000004002838354028262040_);}
	.st156{clip-path:url(#SVGID_00000064341464599757519810000015445589744489346732_);}
	.st157{fill:none;stroke:#000000;stroke-width:0.8735;stroke-linecap:round;stroke-linejoin:round;stroke-miterlimit:10;}
	.st158{clip-path:url(#SVGID_00000049899997627757031380000006920804234476564895_);}
	.st159{clip-path:url(#SVGID_00000168802118280133044340000012842617318014022796_);}
	.st160{clip-path:url(#SVGID_00000160179307058843466600000000912008597979460014_);}
	.st161{clip-path:url(#SVGID_00000149344716238926502370000017280251714140282544_);}
	.st162{clip-path:url(#SVGID_00000178897366163316314500000002379608665421564069_);}
	.st163{clip-path:url(#SVGID_00000053504106071410795840000008843658890740239803_);}
	.st164{clip-path:url(#SVGID_00000101083044181094525090000016492399257509725076_);}
	.st165{clip-path:url(#SVGID_00000074430028649942048130000005730373547013986705_);}
	.st166{clip-path:url(#SVGID_00000058554014809760727260000006877926091771134114_);}
	.st167{clip-path:url(#SVGID_00000132063080929374113030000004491356143866982557_);}
	.st168{clip-path:url(#SVGID_00000173144935213702769190000000737626467260140988_);}
	.st169{clip-path:url(#SVGID_00000121969103040545104230000007603653089703340166_);}
	.st170{clip-path:url(#SVGID_00000115506475583725015430000010542325999032187319_);}
	.st171{clip-path:url(#SVGID_00000170281083466624850320000004317580710633465240_);}
	.st172{clip-path:url(#SVGID_00000177449145801531895850000017425381270580728745_);}
	.st173{clip-path:url(#SVGID_00000070822323585942362660000009840844301312221346_);}
	.st174{clip-path:url(#SVGID_00000103946137222707683350000018034445883936635053_);}
	.st175{clip-path:url(#SVGID_00000157265985533192678230000008217719363143312269_);}
	.st176{clip-path:url(#SVGID_00000103948358398385450980000012214655630713454217_);}
	.st177{clip-path:url(#SVGID_00000058556970422934034350000008066301685364200072_);}
	.st178{clip-path:url(#SVGID_00000064330731221943423960000014204909412564016259_);}
	.st179{clip-path:url(#SVGID_00000177480705866188677770000003931469595306422708_);}
	.st180{clip-path:url(#SVGID_00000023281199105250049260000008227906926499700398_);}
	.st181{clip-path:url(#SVGID_00000035520300010320455600000015260070322325372826_);}
	.st182{clip-path:url(#SVGID_00000066496768977589963940000011524137889698064045_);}
	.st183{clip-path:url(#SVGID_00000004509149439650647170000000977377754126379930_);}
	.st184{clip-path:url(#SVGID_00000142874239239463326460000016869864149446181251_);}
	.st185{clip-path:url(#SVGID_00000152978482405965658620000002715107909683026050_);}
	.st186{clip-path:url(#SVGID_00000002349739442426937180000017613859693742136201_);}
	.st187{clip-path:url(#SVGID_00000003794165688828402770000013289966239679031734_);}
	.st188{clip-path:url(#SVGID_00000049213787390919528700000010502940763282887330_);}
	.st189{clip-path:url(#SVGID_00000155844578101398335290000002120715009813936558_);}
	.st190{clip-path:url(#SVGID_00000064356099476225636470000011381705974556173464_);}
	.st191{clip-path:url(#SVGID_00000125587668493046907120000001035431849032095920_);}
	.st192{clip-path:url(#SVGID_00000153663894489771782610000018238155754883430844_);}
	.st193{clip-path:url(#SVGID_00000007411428242142326450000008039953592037613185_);}
	.st194{clip-path:url(#SVGID_00000018199630799522209400000003263145775967727779_);}
	.st195{clip-path:url(#SVGID_00000142873716820129640920000007144065835501326732_);}
	.st196{fill:#E5E5E5;}
	.st197{fill:#1D1D1B;}
	.st198{fill:none;stroke:#000000;stroke-miterlimit:10;}
	.st199{fill:#FEFEFE;stroke:#000000;stroke-miterlimit:10;}
	.st200{clip-path:url(#SVGID_00000030451519133387814100000010948508106046897078_);}
	.st201{clip-path:url(#SVGID_00000042700862608519174810000004149692823106199190_);}
	.st202{clip-path:url(#SVGID_00000029029493034715445370000012521664599769680770_);}
	.st203{fill:#231F1F;}
	.st204{fill:#020000;}
	.st205{clip-path:url(#SVGID_00000060732837165748855830000011947289363465435018_);}
	.st206{clip-path:url(#SVGID_00000026147623120731068000000005620990758681869502_);}
	.st207{clip-path:url(#SVGID_00000181069763892467063580000008772202254478510981_);}
	.st208{clip-path:url(#SVGID_00000003793954805758314420000003715487138821053622_);}
	.st209{fill:#050000;}
	.st210{clip-path:url(#SVGID_00000013153574916821122070000015679524673531788419_);}
	.st211{clip-path:url(#SVGID_00000162337507750732682970000002711578206543169981_);}
	.st212{clip-path:url(#SVGID_00000084514136623279963420000001252824673971313537_);}
	.st213{clip-path:url(#SVGID_00000114056121249890500060000009919165472650653085_);}
	.st214{clip-path:url(#SVGID_00000050638560470671312990000001922896907918911660_);}
	.st215{clip-path:url(#SVGID_00000005233556078416629620000006156637779809931447_);}
	.st216{fill:#12100F;}
	.st217{clip-path:url(#SVGID_00000029763722294281853950000017754434120974237884_);}
	.st218{clip-path:url(#SVGID_00000149350132159496354000000009117750309214697879_);}
	.st219{fill:none;stroke:#000000;stroke-width:0.5;stroke-miterlimit:10;}
	.st220{clip-path:url(#SVGID_00000031208812160882728010000004201263980171319713_);}
	.st221{clip-path:url(#SVGID_00000177458473469120396550000016789593312168789400_);}
	.st222{clip-path:url(#SVGID_00000000195691746878307370000012617417754645951628_);}
	.st223{clip-path:url(#SVGID_00000166669413900081083790000004462070270183408276_);}
	.st224{fill:none;stroke:#000000;stroke-width:0.25;stroke-miterlimit:10;}
	.st225{clip-path:url(#SVGID_00000147927685431944696350000009337461033145928121_);}
	.st226{clip-path:url(#SVGID_00000071560497550043720320000016602018160091544243_);}
	.st227{clip-path:url(#SVGID_00000053518621295900719850000014285088645108055476_);}
</style>
<g>
	<g>
		<path d="M29.65,26.52c0.49,0,0.88-0.39,0.88-0.87c0-0.48-0.39-0.88-0.88-0.88c-0.48,0-0.88,0.39-0.88,0.88
			C28.77,26.12,29.16,26.52,29.65,26.52z M29.65,25.2c0.25,0,0.45,0.2,0.45,0.44c0,0.24-0.2,0.44-0.45,0.44
			c-0.24,0-0.44-0.2-0.44-0.44C29.2,25.4,29.4,25.2,29.65,25.2z"/>
		<path d="M43.2,39.54l-4.35-16.32c0.1-0.04,0.18-0.12,0.24-0.21c0.11-0.17,0.14-0.38,0.07-0.56l-1.29-3.32
			c-0.12-0.3-0.36-0.55-0.66-0.67l-5.67-2.37c-1.2-0.5-2.58-0.5-3.77,0l-5.67,2.37c-0.3,0.12-0.54,0.37-0.66,0.67l-1.29,3.32
			c-0.07,0.19-0.05,0.4,0.06,0.56c0.06,0.09,0.15,0.16,0.24,0.21l-4.35,16.32c-0.13,0.5,0.06,1.03,0.48,1.32l2.91,2.04
			c0.21,0.15,0.46,0.22,0.72,0.22h18.89c0.26,0,0.51-0.08,0.72-0.22l2.91-2.04C43.14,40.57,43.33,40.04,43.2,39.54z M20.54,22.61
			l1.29-3.32c0.07-0.19,0.22-0.35,0.42-0.43l5.67-2.37c0.55-0.23,1.13-0.34,1.72-0.34c0.59,0,1.17,0.11,1.72,0.34l5.67,2.37
			c0.19,0.08,0.35,0.23,0.42,0.43l1.29,3.32c0.02,0.06,0.01,0.12-0.02,0.16c-0.03,0.05-0.09,0.08-0.15,0.08H20.71
			c-0.06,0-0.12-0.03-0.15-0.08C20.53,22.73,20.52,22.67,20.54,22.61z M25.26,23.29h2.37v9.5c0,0.12,0.1,0.22,0.22,0.22
			c0.12,0,0.22-0.1,0.22-0.22v-9.5h5.97c0.02,4.7,0.48,10.36,1.42,17.3H23.84C24.78,33.65,25.25,27.99,25.26,23.29z M24.62,28.91
			l-2.68-0.37c-0.16-0.02-0.29-0.1-0.38-0.23c-0.09-0.12-0.12-0.27-0.08-0.42l0.99-4.6h2.36C24.82,25.03,24.75,26.9,24.62,28.91z
			 M34.47,23.29h2.36l0.99,4.6c0.03,0.15,0,0.3-0.09,0.42c-0.09,0.13-0.22,0.21-0.38,0.23l-2.68,0.37
			C34.54,26.9,34.47,25.03,34.47,23.29z M42.46,40.51l-2.91,2.04c-0.14,0.1-0.3,0.15-0.47,0.15H20.2c-0.17,0-0.33-0.05-0.46-0.15
			l-2.91-2.04c-0.27-0.19-0.4-0.54-0.32-0.85l4.36-16.37h1.14l-0.97,4.5c-0.06,0.27,0,0.54,0.16,0.76c0.16,0.22,0.4,0.37,0.67,0.41
			l2.71,0.38c-0.23,3.38-0.64,7.16-1.22,11.43c-0.01,0.06,0.01,0.12,0.05,0.17c0.04,0.05,0.1,0.07,0.16,0.07H35.7
			c0.06,0,0.12-0.03,0.16-0.07c0.04-0.05,0.06-0.11,0.05-0.17c-0.58-4.27-0.99-8.05-1.22-11.43l2.71-0.38
			c0.27-0.04,0.51-0.19,0.67-0.41c0.16-0.22,0.21-0.5,0.16-0.76l-0.97-4.5h1.14l4.36,16.37C42.86,39.98,42.74,40.32,42.46,40.51z"/>
		<path d="M20.18,34.66c-0.11-0.04-0.24,0.02-0.28,0.13l-1.79,4.87c-0.04,0.12,0.02,0.24,0.13,0.28c0.02,0.01,0.05,0.01,0.07,0.01
			c0.09,0,0.17-0.05,0.21-0.14l1.79-4.87C20.35,34.83,20.29,34.7,20.18,34.66z"/>
		<path d="M29.65,31.1c0.49,0,0.88-0.39,0.88-0.87c0-0.48-0.39-0.88-0.88-0.88c-0.48,0-0.88,0.39-0.88,0.88
			C28.77,30.71,29.16,31.1,29.65,31.1z M29.65,29.79c0.25,0,0.45,0.2,0.45,0.44c0,0.24-0.2,0.44-0.45,0.44
			c-0.24,0-0.44-0.2-0.44-0.44C29.2,29.99,29.4,29.79,29.65,29.79z"/>
		<path d="M20.64,38.32c-0.1-0.06-0.24-0.03-0.3,0.07l-1.11,1.8c-0.06,0.1-0.03,0.24,0.07,0.3c0.03,0.02,0.07,0.03,0.11,0.03
			c0.07,0,0.14-0.04,0.19-0.11l1.11-1.8C20.77,38.52,20.74,38.38,20.64,38.32z"/>
		<path d="M39.69,32.69c0.11-0.02,0.18-0.11,0.18-0.22c0-0.1-0.07-0.19-0.18-0.21c-0.91-0.17-1.42-0.75-1.54-1.8
			c-0.01-0.11-0.11-0.19-0.22-0.19c-0.11,0-0.2,0.08-0.22,0.19c-0.12,1.04-0.63,1.63-1.54,1.8c-0.1,0.02-0.18,0.11-0.18,0.21
			c0,0.11,0.07,0.2,0.18,0.22c0.91,0.17,1.42,0.75,1.54,1.79c0.02,0.11,0.11,0.19,0.22,0.19c0.11,0,0.2-0.08,0.22-0.19
			C38.27,33.44,38.78,32.85,39.69,32.69z M37.93,33.57c-0.21-0.51-0.55-0.87-1.01-1.1c0.46-0.22,0.8-0.59,1.01-1.09
			c0.21,0.51,0.55,0.87,1.01,1.09C38.47,32.7,38.14,33.06,37.93,33.57z"/>
		<path d="M43.59,23.72c0.11-0.02,0.18-0.11,0.18-0.22c0-0.1-0.07-0.19-0.18-0.21c-0.91-0.17-1.42-0.75-1.54-1.8
			c-0.01-0.11-0.11-0.19-0.22-0.19c-0.11,0-0.2,0.08-0.22,0.19c-0.12,1.04-0.63,1.63-1.54,1.8c-0.1,0.02-0.18,0.11-0.18,0.21
			c0,0.11,0.07,0.2,0.18,0.22c0.91,0.17,1.42,0.75,1.54,1.79c0.02,0.11,0.11,0.19,0.22,0.19c0.11,0,0.2-0.08,0.22-0.19
			C42.17,24.47,42.68,23.88,43.59,23.72z M41.83,24.6c-0.21-0.51-0.55-0.87-1.01-1.1c0.46-0.22,0.8-0.59,1.01-1.09
			c0.21,0.51,0.55,0.87,1.01,1.09C42.37,23.73,42.04,24.09,41.83,24.6z"/>
		<path d="M39.4,34.79c-0.04-0.12-0.17-0.17-0.28-0.13c-0.11,0.04-0.17,0.17-0.13,0.28l1.78,4.87c0.03,0.09,0.12,0.14,0.21,0.14
			c0.02,0,0.05,0,0.07-0.01c0.11-0.04,0.17-0.17,0.13-0.28L39.4,34.79z"/>
		<path d="M38.96,38.39c-0.06-0.1-0.2-0.13-0.3-0.07c-0.1,0.06-0.13,0.2-0.07,0.3l1.11,1.8c0.04,0.07,0.11,0.11,0.18,0.11
			c0.04,0,0.08-0.01,0.12-0.03c0.1-0.06,0.13-0.2,0.07-0.3L38.96,38.39z"/>
	</g>
	<g>
		<path class="st31" d="M19.96,21.45c0.02-0.01,0.04,0,0.05,0.03c0,0.01,0.01,0.03,0.01,0.03c-0.28,0.12-0.58,0.2-0.89,0.25
			c-0.3,0.05-0.6,0.08-0.92,0.09c-1.49,0.04-2.85-0.52-3.85-1.47c-1.01-0.97-1.63-2.32-1.66-3.83c-0.02-1.51,0.6-2.89,1.59-3.89
			c1-1,2.38-1.63,3.91-1.63c0.71,0,1.36,0.1,1.94,0.31c0.58,0.21,1.11,0.52,1.6,0.95c0.03,0.02,0.04,0.05,0.04,0.08
			c0,0.03-0.01,0.07-0.03,0.09c-0.08,0.08-0.19,0.2-0.27,0.29c-0.06,0.06-0.16,0.07-0.22,0.01c-0.41-0.35-0.86-0.62-1.35-0.8
			c-0.52-0.19-1.09-0.28-1.72-0.28c-1.35,0-2.58,0.54-3.47,1.42c-0.9,0.88-1.46,2.1-1.47,3.46c-0.02,1.36,0.52,2.6,1.41,3.52
			c0.9,0.93,2.14,1.54,3.54,1.58c0.31,0.01,0.61,0,0.9-0.03C19.39,21.58,19.68,21.53,19.96,21.45z"/>
		<path class="st31" d="M18.75,12.21c0.03-0.16,0.18-0.27,0.34-0.24s0.27,0.18,0.24,0.34l-0.12,0.7c-0.03,0.16-0.18,0.27-0.34,0.24
			c-0.16-0.03-0.27-0.18-0.24-0.34L18.75,12.21z"/>
		<path class="st31" d="M20.67,12.93c0.11-0.12,0.29-0.13,0.42-0.03s0.13,0.29,0.03,0.42l-0.47,0.53c-0.11,0.12-0.3,0.13-0.42,0.03
			c-0.12-0.11-0.13-0.29-0.03-0.42L20.67,12.93z"/>
		<path class="st31" d="M16.57,12.48c-0.05-0.15,0.04-0.32,0.2-0.37c0.16-0.05,0.32,0.04,0.37,0.2l0.21,0.68
			c0.05,0.15-0.04,0.32-0.2,0.37c-0.16,0.05-0.32-0.04-0.37-0.2L16.57,12.48z"/>
		<path class="st31" d="M14.6,14.11c-0.14-0.09-0.18-0.27-0.09-0.41c0.09-0.14,0.27-0.17,0.41-0.09l0.55,0.35
			c0.14,0.09,0.18,0.27,0.09,0.41c-0.09,0.14-0.27,0.18-0.41,0.09L14.6,14.11z"/>
		<path class="st31" d="M13.94,16.34c-0.16-0.01-0.29-0.15-0.28-0.31c0.01-0.16,0.15-0.29,0.31-0.28l0.71,0.04
			c0.16,0.01,0.29,0.15,0.28,0.31c-0.01,0.16-0.15,0.29-0.31,0.28L13.94,16.34z"/>
		<path class="st31" d="M14.39,18.3c-0.15,0.05-0.32-0.03-0.38-0.18c-0.06-0.15,0.03-0.32,0.18-0.38l0.67-0.24
			c0.15-0.06,0.32,0.03,0.38,0.18c0.06,0.15-0.03,0.32-0.18,0.38L14.39,18.3z"/>
		<path class="st31" d="M15.59,19.92c-0.12,0.11-0.31,0.1-0.42-0.02c-0.11-0.12-0.1-0.3,0.01-0.42L15.71,19
			c0.12-0.11,0.31-0.1,0.42,0.02s0.1,0.3-0.01,0.42L15.59,19.92z"/>
		<path class="st31" d="M17.55,20.97c-0.05,0.16-0.21,0.25-0.37,0.2c-0.16-0.04-0.25-0.21-0.2-0.37l0.22-0.77
			c0.05-0.16,0.21-0.25,0.37-0.2c0.16,0.04,0.25,0.21,0.2,0.37L17.55,20.97z"/>
		<path class="st31" d="M19.73,20.87c0.02,0.16-0.1,0.31-0.26,0.33s-0.31-0.1-0.33-0.26l-0.09-0.7c-0.02-0.16,0.1-0.31,0.26-0.33
			c0.16-0.02,0.31,0.1,0.33,0.26L19.73,20.87z"/>
		<path class="st31" d="M17.16,17.99c-0.08-0.07-0.12-0.17-0.12-0.27c0-0.1,0.04-0.2,0.12-0.27c0.92-0.86,3.77-3.5,4.42-4.11
			c0.01,0,0.01,0,0.01,0c0,0,0,0.01,0,0.01c-0.59,0.68-3.18,3.7-3.96,4.6c-0.06,0.07-0.14,0.11-0.23,0.12
			C17.31,18.08,17.22,18.05,17.16,17.99z"/>
		<path class="st31" d="M15.9,11.89c0,0-2.08-0.04-3.07-0.07c-0.02,0-0.04-0.02-0.04-0.04c0-0.02,0.01-0.04,0.03-0.04
			c1.19-0.15,4.01-0.51,4.01-0.51L15.9,11.89z"/>
		<path class="st31" d="M13.54,14.16c0,0-2.12-0.12-3.27-0.19c-0.03,0-0.06-0.03-0.05-0.06c0-0.03,0.02-0.06,0.05-0.06
			c1.27-0.13,3.75-0.38,3.75-0.38L13.54,14.16z"/>
		<g>
			<defs>
				<rect id="SVGID_00000137815980897260141360000002833230970397517235_" x="8.87" y="15.79" width="4.16" height="1.17"/>
			</defs>
			<clipPath id="SVGID_00000012435720694942971280000002792859451018370734_">
				<use xlink:href="#SVGID_00000137815980897260141360000002833230970397517235_"  style="overflow:visible;"/>
			</clipPath>
			<g style="clip-path:url(#SVGID_00000012435720694942971280000002792859451018370734_);">
				<path class="st31" d="M12.97,16.69c0,0-2.73-0.14-4.01-0.21c-0.03,0-0.05-0.02-0.05-0.05c0-0.03,0.02-0.05,0.05-0.05
					c1.28-0.14,4.02-0.43,4.02-0.43L12.97,16.69z"/>
			</g>
		</g>
		<path class="st31" d="M13.51,18.99c0,0-2.2-0.13-3.31-0.2c-0.03,0-0.06-0.03-0.06-0.06c0-0.03,0.02-0.06,0.05-0.06
			c1.07-0.14,3.11-0.41,3.11-0.41L13.51,18.99z"/>
		<path class="st31" d="M14.92,20.59c0,0-1.88-0.05-2.85-0.08c-0.03,0-0.04-0.02-0.05-0.04c0-0.03,0.02-0.05,0.04-0.05
			c0.86-0.12,2.4-0.34,2.4-0.34L14.92,20.59z"/>
		<path class="st31" d="M17.68,21.83c0,0-2.31-0.1-3.45-0.15c-0.02,0-0.04-0.02-0.04-0.04c0-0.02,0.01-0.04,0.03-0.04
			c0.86-0.07,2.32-0.18,2.32-0.18L17.68,21.83z"/>
		<path d="M18.84,16.82c0,0.09-0.02,0.17-0.05,0.25c-0.03,0.08-0.08,0.15-0.14,0.21c-0.06,0.06-0.13,0.11-0.21,0.14
			c-0.08,0.03-0.16,0.05-0.25,0.05c-0.08,0-0.17-0.02-0.25-0.05c-0.08-0.03-0.15-0.08-0.21-0.14c-0.06-0.06-0.11-0.13-0.14-0.21
			c-0.03-0.08-0.05-0.16-0.05-0.25c0-0.08,0.02-0.17,0.05-0.24c0.03-0.08,0.08-0.15,0.14-0.21c0.06-0.06,0.13-0.11,0.21-0.14
			c0.08-0.03,0.16-0.05,0.25-0.05c0.09,0,0.17,0.02,0.25,0.05c0.08,0.03,0.15,0.08,0.21,0.14c0.06,0.06,0.11,0.13,0.14,0.21
			C18.83,16.66,18.84,16.74,18.84,16.82z"/>
		<path class="st5" d="M18.59,16.83c0,0.05-0.01,0.1-0.03,0.15c-0.02,0.05-0.05,0.09-0.08,0.12c-0.04,0.04-0.08,0.07-0.13,0.08
			s-0.1,0.03-0.15,0.03c-0.05,0-0.1-0.01-0.15-0.03c-0.05-0.02-0.09-0.05-0.13-0.08c-0.04-0.04-0.06-0.08-0.08-0.12
			c-0.02-0.05-0.03-0.1-0.03-0.15c0-0.05,0.01-0.1,0.03-0.15c0.02-0.05,0.05-0.09,0.08-0.13c0.04-0.04,0.08-0.06,0.13-0.08
			c0.05-0.02,0.1-0.03,0.15-0.03c0.05,0,0.1,0.01,0.15,0.03c0.05,0.02,0.09,0.05,0.13,0.08c0.04,0.04,0.07,0.08,0.08,0.13
			C18.58,16.73,18.59,16.78,18.59,16.83z"/>
		<path class="st31" d="M19.57,9.98L19.57,9.98l0,0.27c0,0.08-0.01,0.15-0.05,0.22c-0.03,0.07-0.07,0.13-0.13,0.19
			c-0.05,0.05-0.12,0.1-0.19,0.13c-0.07,0.03-0.15,0.05-0.22,0.05l-1.67-0.01c-0.17,0-0.33-0.07-0.45-0.18
			c-0.12-0.12-0.19-0.27-0.19-0.45V9.97c0-0.16,0.07-0.31,0.17-0.42c0.11-0.1,0.26-0.17,0.42-0.17l1.69-0.01
			c0.08,0,0.16,0.02,0.24,0.05c0.07,0.03,0.14,0.08,0.2,0.13c0.06,0.06,0.1,0.12,0.13,0.2C19.56,9.82,19.57,9.9,19.57,9.98z
			 M19,9.98c0-0.01,0-0.02-0.01-0.03c-0.01-0.01-0.02-0.01-0.03-0.01h-1.69c-0.02,0-0.03,0.01-0.03,0.03v0.23
			c0,0.04,0.03,0.07,0.08,0.07h1.67c0.01,0,0.01,0,0.02-0.01c0,0,0.01-0.01,0.01-0.01V9.98z"/>
		<path class="st31" d="M18.81,10.84l0,0.2l-0.02,0.51l-0.89-0.03h-0.47l0-0.68v-0.46l0.85-0.06l0.52,0.04L18.81,10.84z
			 M17.91,10.84v0.21h0.06l0.1,0.1l0.1-0.1h0.12v-0.21l-0.09-0.17l-0.2,0.06L17.91,10.84z"/>
	</g>
</g>
</svg>
