<?xml version="1.0" encoding="utf-8"?>
<!-- Generator: Adobe Illustrator 27.3.1, SVG Export Plug-In . SVG Version: 6.00 Build 0)  -->
<svg version="1.1" id="Layer_1" xmlns="http://www.w3.org/2000/svg" xmlns:xlink="http://www.w3.org/1999/xlink" x="0px" y="0px"
	 viewBox="0 0 50 50" style="enable-background:new 0 0 50 50;" xml:space="preserve">
<style type="text/css">
	.st0{fill:none;}
	.st1{stroke:#000000;stroke-miterlimit:10;}
	.st2{stroke:#000000;stroke-width:0.75;stroke-miterlimit:10;}
	.st3{clip-path:url(#SVGID_00000164485541257203036780000008699306982877634433_);}
	.st4{clip-path:url(#SVGID_00000093167982289474066730000006637898236814086550_);}
	.st5{fill:#FFFFFF;}
	.st6{clip-path:url(#SVGID_00000134222431513811047700000008006364524820859526_);}
	.st7{fill:#231F20;}
	.st8{clip-path:url(#SVGID_00000160879232917806248030000002636935435310584757_);}
	.st9{clip-path:url(#SVGID_00000025439928203200278840000006160640993456498824_);}
	.st10{clip-path:url(#SVGID_00000117658376360953479460000003414540218609400508_);}
	.st11{clip-path:url(#SVGID_00000132773557743053568690000011807079240164971435_);}
	.st12{clip-path:url(#SVGID_00000101064622097927114620000017463088608382876546_);}
	.st13{clip-path:url(#SVGID_00000138550216897971452850000000552376214499009686_);}
	.st14{clip-path:url(#SVGID_00000016070926328445107450000003468766651294091661_);}
	.st15{clip-path:url(#SVGID_00000155847908081565939510000001848849231887094446_);}
	.st16{clip-path:url(#SVGID_00000103976638841817680860000014818297329159142836_);}
	.st17{clip-path:url(#SVGID_00000170969344808284192030000001473509989267955641_);}
	.st18{clip-path:url(#SVGID_00000013159792711200284350000001649458701176006048_);}
	.st19{clip-path:url(#SVGID_00000067949100184529638770000008893246527834207915_);}
	.st20{clip-path:url(#SVGID_00000132046765728077205340000017131210794350016913_);}
	.st21{clip-path:url(#SVGID_00000006701855770275283700000012743833806599812272_);}
	.st22{clip-path:url(#SVGID_00000059307987938541022600000006110837582813274515_);}
	.st23{clip-path:url(#SVGID_00000068640567142313950150000017361059587836775570_);}
	.st24{clip-path:url(#SVGID_00000057136088858525725690000001243371335962984359_);}
	.st25{clip-path:url(#SVGID_00000109710949485319480630000005807869370290835369_);}
	.st26{clip-path:url(#SVGID_00000054227546813013289250000010057525322282675636_);}
	.st27{clip-path:url(#SVGID_00000026879763924387193860000008250016151240970885_);}
	.st28{clip-path:url(#SVGID_00000157300418316532876390000006621401425734760075_);}
	.st29{clip-path:url(#SVGID_00000103232071104172286730000000504495026104241580_);}
	.st30{clip-path:url(#SVGID_00000118355923411515390840000008190018198983814583_);}
	.st31{fill-rule:evenodd;clip-rule:evenodd;}
	.st32{clip-path:url(#SVGID_00000118397638973333012840000017968360702040236432_);}
	.st33{clip-path:url(#SVGID_00000111191445266411962220000014996638777012675228_);}
	.st34{stroke:#000000;stroke-width:0.5;stroke-miterlimit:10;}
	.st35{clip-path:url(#SVGID_00000176027438573641864010000004733778588112686221_);}
	.st36{clip-path:url(#SVGID_00000125602826025273719280000010070679931361130905_);}
	.st37{clip-path:url(#SVGID_00000046314560857724491590000010563200843164170418_);}
	.st38{fill:#1A1A1A;}
	.st39{clip-path:url(#SVGID_00000088129630823462249760000009654805968597039261_);}
	.st40{clip-path:url(#SVGID_00000023277646024852742390000015201838757808495017_);}
	.st41{clip-path:url(#SVGID_00000075873646182310222730000004122046654465979780_);}
	.st42{clip-path:url(#SVGID_00000025432631322844564120000011496477456666698918_);}
	.st43{clip-path:url(#SVGID_00000038387361461379219060000009758012789862171780_);}
	.st44{clip-path:url(#SVGID_00000170960823603772542160000014861574632283292303_);}
	.st45{clip-path:url(#SVGID_00000109016919844591998640000007426706218985009299_);}
	.st46{clip-path:url(#SVGID_00000135662540198906752320000015397772106535212968_);}
	.st47{clip-path:url(#SVGID_00000101824656000015813810000008169840610593605549_);}
	.st48{fill:#F1F1F1;}
	.st49{fill:#E8E8E8;}
	.st50{fill:#FEFEFE;}
	.st51{fill:#CCCCCC;}
	.st52{fill:#B3B3B3;}
	.st53{fill:#E6E6E6;}
	.st54{fill:#EBEBEB;}
	.st55{fill:#EEEEEE;}
	.st56{fill:#F8F8F8;}
	.st57{fill:#FBFBFB;}
	.st58{fill:#383838;}
	.st59{fill:#232323;}
	.st60{fill:#F6F6F6;}
	.st61{fill:#535353;}
	.st62{fill:#0A0A0A;}
	.st63{fill:#F5F5F5;}
	.st64{fill:#818181;}
	.st65{fill:#4A4A4A;}
	.st66{fill:#999999;}
	.st67{fill:url(#SVGID_00000039850265013692535130000003588052983582303623_);}
	.st68{fill:url(#SVGID_00000018232020436946395600000002600561299541671299_);}
	.st69{fill:#0E0E0D;}
	.st70{fill:#333333;}
	.st71{fill:#808080;}
	.st72{fill:url(#SVGID_00000093163308697120598150000007690628264312606094_);}
	.st73{fill:#666666;}
	.st74{fill:url(#SVGID_00000021092229007254803150000011903468325984965807_);}
	.st75{fill:url(#SVGID_00000058584599881074855180000011218644515819510928_);}
	.st76{fill:url(#SVGID_00000009586467264703889610000000851286629911052434_);}
	.st77{fill:url(#SVGID_00000061437104904289676970000001575762210722596785_);}
	.st78{fill:url(#SVGID_00000070798778292419738650000011149412347171231369_);}
	.st79{clip-path:url(#SVGID_00000025408987971143269080000010660524021351942801_);}
	.st80{clip-path:url(#SVGID_00000126316342486834022130000007930068617819943343_);}
	.st81{clip-path:url(#SVGID_00000129885119994950344860000001082491973310236033_);}
	.st82{clip-path:url(#SVGID_00000059290665868273708480000007559395129215696526_);}
	.st83{clip-path:url(#SVGID_00000129924329260136870680000010359297970908962461_);}
	.st84{fill:#241F20;stroke:#000000;stroke-width:0.5;stroke-miterlimit:10;}
	.st85{clip-path:url(#SVGID_00000114755226366479558670000006339517190396844449_);}
	.st86{clip-path:url(#SVGID_00000043426853584271733320000001621982761985206423_);}
	.st87{clip-path:url(#SVGID_00000169556134007585204530000016618653935447247287_);}
	.st88{clip-path:url(#SVGID_00000083780821182202229230000012013713850805202355_);}
	.st89{clip-path:url(#SVGID_00000021829854140142732130000006416094530510998945_);}
	.st90{clip-path:url(#SVGID_00000044154358814570907430000011553209467756698244_);}
	.st91{clip-path:url(#SVGID_00000008143197933053588310000010112022079797637248_);}
	.st92{clip-path:url(#SVGID_00000026871424775071925670000012660548275847828904_);}
	.st93{clip-path:url(#SVGID_00000163781585175904211990000006073063897476039841_);}
	.st94{clip-path:url(#SVGID_00000044857927124170212500000001564362061251901593_);}
	.st95{clip-path:url(#SVGID_00000072976326799346529330000013317653378170293406_);}
	.st96{clip-path:url(#SVGID_00000175311122838508182290000017521622955256685236_);}
	.st97{clip-path:url(#SVGID_00000049184670797359863560000015371781308293648009_);}
	.st98{clip-path:url(#SVGID_00000160894897452341172340000014510319444164297883_);}
	.st99{clip-path:url(#SVGID_00000132069340759338965390000009179095878095934621_);}
	.st100{clip-path:url(#SVGID_00000074442077342833751230000008138964830126777732_);}
	.st101{clip-path:url(#SVGID_00000075848035501102209920000010781693401379979453_);}
	.st102{clip-path:url(#SVGID_00000017503687346316744150000004588609752177616775_);}
	.st103{clip-path:url(#SVGID_00000048476694288366688590000013017816081536406419_);}
	.st104{clip-path:url(#SVGID_00000173872548683005217360000002927432306844584871_);}
	.st105{clip-path:url(#SVGID_00000096769643443953989620000017416297163377333390_);}
	.st106{clip-path:url(#SVGID_00000133524331728188089220000012416069867088310714_);}
	.st107{clip-path:url(#SVGID_00000069369097989817061160000000759038005953598899_);}
	.st108{clip-path:url(#SVGID_00000062878541229669784800000002200070685483499147_);}
	.st109{clip-path:url(#SVGID_00000047747200692154428060000007337596758109773985_);}
	.st110{clip-path:url(#SVGID_00000058559406629447886290000003441945501296808116_);}
	.st111{clip-path:url(#SVGID_00000153690789290066075150000016577234239705773484_);}
	.st112{clip-path:url(#SVGID_00000018207506844288597440000011471798469615637677_);}
	.st113{clip-path:url(#SVGID_00000006679578176423366690000005649856507771267260_);}
	.st114{clip-path:url(#SVGID_00000124156104490362833410000007597593056508168325_);}
	.st115{fill:#FFFFFF;stroke:#000000;stroke-miterlimit:10;}
	.st116{clip-path:url(#SVGID_00000000917169904074592000000014811020616263918259_);}
	.st117{clip-path:url(#SVGID_00000128480191534447514780000014135986956055458970_);}
	.st118{fill:none;stroke:#010101;stroke-miterlimit:10;}
	.st119{fill:#010101;stroke:#000000;stroke-miterlimit:10;}
	.st120{clip-path:url(#SVGID_00000124160746191235409300000014719924367507462799_);}
	.st121{fill:#010101;stroke:#010101;stroke-miterlimit:10;}
	.st122{clip-path:url(#SVGID_00000167363771616360610410000000861797322319578273_);}
	.st123{clip-path:url(#SVGID_00000036968376227261343980000005183850100875426234_);}
	.st124{clip-path:url(#SVGID_00000003822134691755832390000017569555426704505233_);}
	.st125{clip-path:url(#SVGID_00000163788096732113197430000017086221767090524813_);}
	.st126{clip-path:url(#SVGID_00000045592004278041018940000004694435682469480867_);}
	.st127{fill:none;stroke:#000000;stroke-width:3;stroke-miterlimit:10;}
	.st128{clip-path:url(#SVGID_00000062888808470714535660000016436539063231765928_);}
	.st129{clip-path:url(#SVGID_00000067213938790818627380000017956008670058517668_);}
	.st130{clip-path:url(#SVGID_00000024692504696546043430000006411624567434312849_);}
	.st131{clip-path:url(#SVGID_00000182526819781095741110000016887608365514143158_);}
	.st132{fill:#040606;}
	.st133{clip-path:url(#SVGID_00000127749922578835509650000003500120964497633214_);}
	.st134{clip-path:url(#SVGID_00000045600251865735449020000012501914149056264635_);}
	.st135{clip-path:url(#SVGID_00000127027590348072498620000016998968318427459759_);}
	.st136{clip-path:url(#SVGID_00000170993308862418528330000012523039838164709042_);}
	.st137{clip-path:url(#SVGID_00000082342564227869927600000015106134604143068597_);}
	.st138{clip-path:url(#SVGID_00000007415111214055935210000016400303726089042614_);}
	.st139{clip-path:url(#SVGID_00000078739209318974198850000001379011870925582238_);}
	.st140{fill:#FFFFFF;stroke:#000000;stroke-width:1.5;stroke-miterlimit:10;}
	.st141{clip-path:url(#SVGID_00000034773454027100446010000000767769942761398416_);}
	.st142{fill:#BDBCBC;}
	.st143{clip-path:url(#SVGID_00000075874522506827558040000012782570719212395412_);}
	.st144{fill:#2E2A2B;}
	.st145{clip-path:url(#SVGID_00000066497577555583359770000002476721337250772148_);}
	.st146{clip-path:url(#SVGID_00000088108999121143665030000006429684006958030725_);}
	.st147{clip-path:url(#SVGID_00000181083958709982019680000000074988660813615527_);}
	.st148{clip-path:url(#SVGID_00000147218408195169049500000007164274230305064875_);}
	.st149{clip-path:url(#SVGID_00000080909834366542281690000016738869967387834295_);}
	.st150{fill:#272324;}
	.st151{clip-path:url(#SVGID_00000065795128550853892600000012753879207315784866_);}
	.st152{clip-path:url(#SVGID_00000033353531316368282210000008660119039177152954_);}
	.st153{clip-path:url(#SVGID_00000140701837648328216300000018379756562838503085_);}
	.st154{clip-path:url(#SVGID_00000140714685617639511280000012484092575525440640_);}
	.st155{clip-path:url(#SVGID_00000124866278031048671400000009504116528453200566_);}
	.st156{clip-path:url(#SVGID_00000130612540221732933520000013603257089648888486_);}
	.st157{fill:none;stroke:#000000;stroke-width:0.8735;stroke-linecap:round;stroke-linejoin:round;stroke-miterlimit:10;}
	.st158{clip-path:url(#SVGID_00000029023550320762839680000006287201132588651425_);}
	.st159{clip-path:url(#SVGID_00000101804797142884573780000012463035795196783038_);}
	.st160{clip-path:url(#SVGID_00000129900917082355761920000000352077763426867866_);}
	.st161{clip-path:url(#SVGID_00000070079602325243671300000004719224607334068667_);}
	.st162{clip-path:url(#SVGID_00000019672965544780686330000010687595000953036681_);}
	.st163{clip-path:url(#SVGID_00000147919990974865248700000013883059333951353986_);}
	.st164{clip-path:url(#SVGID_00000178188003102535401990000018380529738295381424_);}
	.st165{clip-path:url(#SVGID_00000029013378341592678200000009613861170300329886_);}
	.st166{clip-path:url(#SVGID_00000180363393045298161540000007686227719496096672_);}
	.st167{clip-path:url(#SVGID_00000153680624681203416090000005223063906417311902_);}
	.st168{clip-path:url(#SVGID_00000029761006293264058700000018101615970632070837_);}
	.st169{clip-path:url(#SVGID_00000096060241871665759950000012574444168589801603_);}
	.st170{clip-path:url(#SVGID_00000035510271149819813260000013785471778546066832_);}
	.st171{clip-path:url(#SVGID_00000166660763069251962680000017739032679494557609_);}
	.st172{clip-path:url(#SVGID_00000183209532367789260640000013079803904055449519_);}
	.st173{clip-path:url(#SVGID_00000138545212617031004920000007957139052188669094_);}
	.st174{clip-path:url(#SVGID_00000008127233415833455480000001743331570007513014_);}
	.st175{clip-path:url(#SVGID_00000013171466276936550570000017614221715520400003_);}
	.st176{clip-path:url(#SVGID_00000097490170685256673280000002530869763504016517_);}
	.st177{clip-path:url(#SVGID_00000000187246696576686170000006976519897337813649_);}
	.st178{clip-path:url(#SVGID_00000132807848417206521840000015261184652593627031_);}
	.st179{clip-path:url(#SVGID_00000010303623542486222240000010181789306279829132_);}
	.st180{clip-path:url(#SVGID_00000080904352876531620950000005740343797320809142_);}
	.st181{clip-path:url(#SVGID_00000041286552863070561300000004224920819307597755_);}
	.st182{clip-path:url(#SVGID_00000158723932037723899360000017795903633428943507_);}
	.st183{clip-path:url(#SVGID_00000029014547181212218890000011525572446263252664_);}
	.st184{clip-path:url(#SVGID_00000075861650954816372470000014950063963395068349_);}
	.st185{clip-path:url(#SVGID_00000053509167827805894280000012583410429870997694_);}
	.st186{clip-path:url(#SVGID_00000085935581541776035170000014622382812833366931_);}
	.st187{clip-path:url(#SVGID_00000114035543678969108240000011372792939136407201_);}
	.st188{clip-path:url(#SVGID_00000139987593241258245470000017636908984997936793_);}
	.st189{clip-path:url(#SVGID_00000104689800179500046030000009476512557292187532_);}
	.st190{clip-path:url(#SVGID_00000142886257645855140530000002500619186918238639_);}
	.st191{clip-path:url(#SVGID_00000085967618445834199110000011582332449788141236_);}
	.st192{clip-path:url(#SVGID_00000027573219934524120660000012042675303908485560_);}
	.st193{clip-path:url(#SVGID_00000000915579333079757300000006846831747732000693_);}
	.st194{clip-path:url(#SVGID_00000109719813049847467230000015289874969030367888_);}
	.st195{clip-path:url(#SVGID_00000021108911736066812140000004620995861480547768_);}
	.st196{fill:#E5E5E5;}
	.st197{fill:#1D1D1B;}
	.st198{fill:none;stroke:#000000;stroke-miterlimit:10;}
	.st199{fill:#FEFEFE;stroke:#000000;stroke-miterlimit:10;}
	.st200{clip-path:url(#SVGID_00000147922912022893350410000014212387479490248832_);}
	.st201{clip-path:url(#SVGID_00000055699022931151942210000002831292223208077218_);}
	.st202{clip-path:url(#SVGID_00000054234222385292018790000013307871056762393218_);}
	.st203{fill:#231F1F;}
	.st204{fill:#020000;}
	.st205{clip-path:url(#SVGID_00000083085494558553253150000003221674352470978479_);}
	.st206{clip-path:url(#SVGID_00000080929118155561739190000004352035824611161243_);}
	.st207{clip-path:url(#SVGID_00000101092075871769428970000007786473405810749618_);}
	.st208{clip-path:url(#SVGID_00000158015095420229017500000004002899978460551812_);}
	.st209{fill:#050000;}
	.st210{clip-path:url(#SVGID_00000127749606426960109850000014806220710636139427_);}
	.st211{clip-path:url(#SVGID_00000162324718478432790300000010251236996151503772_);}
	.st212{clip-path:url(#SVGID_00000011731724666673175720000001763151535100573836_);}
	.st213{clip-path:url(#SVGID_00000091001879391153558950000009958599332044685715_);}
	.st214{clip-path:url(#SVGID_00000054975413539886423710000002163224075746846099_);}
	.st215{clip-path:url(#SVGID_00000003084380748211601520000002913498295667186305_);}
	.st216{fill:#12100F;}
	.st217{clip-path:url(#SVGID_00000007417533907182699750000003437792825910378158_);}
	.st218{clip-path:url(#SVGID_00000092443282776405134670000009168366431185414558_);}
	.st219{fill:none;stroke:#000000;stroke-width:0.5;stroke-miterlimit:10;}
	.st220{clip-path:url(#SVGID_00000103968989293120759450000001583012566814285998_);}
	.st221{clip-path:url(#SVGID_00000153677864335937667000000014664885795929585286_);}
	.st222{clip-path:url(#SVGID_00000119805255327631617680000005320506251119274655_);}
	.st223{clip-path:url(#SVGID_00000027596227627859885490000006166105381127102125_);}
	.st224{fill:none;stroke:#000000;stroke-width:0.25;stroke-miterlimit:10;}
	.st225{clip-path:url(#SVGID_00000117664452771819481970000014599496033253432194_);}
	.st226{clip-path:url(#SVGID_00000012436325827769964640000012188326513143763343_);}
	.st227{clip-path:url(#SVGID_00000111906496477991289420000009037602179617460159_);}
</style>
<g>
	<g>
		<path d="M14.63,34.34h-0.05c-0.06,0-0.13-0.01-0.19-0.04c-0.06-0.02-0.11-0.06-0.16-0.11c-0.05-0.05-0.08-0.1-0.11-0.16
			c-0.03-0.06-0.04-0.12-0.04-0.19c0-0.06,0.01-0.13,0.04-0.19c0.02-0.06,0.06-0.11,0.11-0.16c0.05-0.05,0.1-0.08,0.16-0.11
			c0.06-0.02,0.12-0.04,0.19-0.04h0.05c0.06,0,0.13,0.01,0.19,0.04c0.06,0.02,0.11,0.06,0.16,0.11c0.05,0.05,0.08,0.1,0.11,0.16
			c0.02,0.06,0.04,0.12,0.04,0.19c0,0.06-0.01,0.13-0.04,0.19c-0.02,0.06-0.06,0.11-0.11,0.16c-0.05,0.05-0.1,0.08-0.16,0.11
			C14.76,34.33,14.7,34.34,14.63,34.34z"/>
		<path d="M16.8,34.34h-0.05c-0.06,0-0.13-0.01-0.19-0.04c-0.06-0.02-0.11-0.06-0.16-0.11c-0.05-0.05-0.08-0.1-0.11-0.16
			c-0.02-0.06-0.04-0.12-0.04-0.19c0-0.06,0.01-0.13,0.04-0.19s0.06-0.11,0.11-0.16c0.05-0.05,0.1-0.08,0.16-0.11
			c0.06-0.02,0.12-0.04,0.19-0.04h0.05c0.06,0,0.13,0.01,0.19,0.04s0.11,0.06,0.16,0.11c0.05,0.05,0.08,0.1,0.11,0.16
			c0.02,0.06,0.04,0.12,0.04,0.19c0,0.06-0.01,0.13-0.04,0.19c-0.03,0.06-0.06,0.11-0.11,0.16c-0.05,0.05-0.1,0.08-0.16,0.11
			S16.87,34.34,16.8,34.34z"/>
		<path d="M19.07,34.34h-0.05c-0.06,0-0.13-0.01-0.19-0.04c-0.06-0.02-0.11-0.06-0.16-0.11c-0.05-0.05-0.08-0.1-0.11-0.16
			c-0.02-0.06-0.04-0.12-0.04-0.19c0-0.06,0.01-0.13,0.04-0.19c0.02-0.06,0.06-0.11,0.11-0.16c0.05-0.05,0.1-0.08,0.16-0.11
			c0.06-0.02,0.12-0.04,0.19-0.04h0.05c0.06,0,0.13,0.01,0.19,0.04c0.06,0.02,0.11,0.06,0.16,0.11c0.05,0.05,0.08,0.1,0.11,0.16
			c0.03,0.06,0.04,0.12,0.04,0.19c0,0.06-0.01,0.13-0.04,0.19c-0.02,0.06-0.06,0.11-0.11,0.16c-0.05,0.05-0.1,0.08-0.16,0.11
			C19.19,34.33,19.13,34.34,19.07,34.34z"/>
		<rect x="3.83" y="17.47" class="st0" width="26.04" height="21.18"/>
		<g>
			<path d="M29.74,32.04l-1.56-6.14l-0.61-2.41c0-0.01,0-0.02-0.01-0.03c-0.1-0.31-0.26-0.58-0.49-0.81
				c-0.23-0.23-0.5-0.4-0.81-0.49c0.36-1.18,1.21-3.19,2.44-3.68c0.06-0.02,0.11-0.06,0.16-0.1c0.05-0.05,0.08-0.1,0.11-0.16
				S29,18.1,29,18.03c0-0.06-0.01-0.13-0.04-0.19c-0.02-0.06-0.06-0.11-0.1-0.16c-0.05-0.05-0.1-0.08-0.16-0.11
				s-0.12-0.04-0.19-0.04s-0.13,0.01-0.19,0.04c-1.81,0.72-2.77,3.47-3.06,4.49H9.17c-0.14,0-0.28,0.01-0.41,0.04
				c-0.14,0.03-0.27,0.07-0.39,0.13c-0.13,0.06-0.25,0.12-0.36,0.2c-0.11,0.08-0.22,0.17-0.31,0.27c-0.09,0.1-0.18,0.21-0.25,0.33
				c-0.07,0.12-0.13,0.24-0.17,0.37c-0.04,0.13-0.08,0.27-0.09,0.4c-0.02,0.14-0.02,0.27-0.01,0.41l0.02,0.23
				c0.01,0.12,0.03,0.25,0.06,0.37c0.03,0.12,0.08,0.24,0.13,0.35c0.06,0.11,0.12,0.22,0.19,0.32c0.07,0.1,0.16,0.19,0.25,0.28
				c0.09,0.08,0.19,0.16,0.3,0.22c0.11,0.07,0.22,0.12,0.33,0.17c0.12,0.04,0.24,0.08,0.36,0.1c0.12,0.02,0.25,0.03,0.37,0.03h8.66
				c0.39,0,0.76,0.06,1.13,0.17c0.37,0.11,0.72,0.27,1.04,0.48c0.32,0.21,0.61,0.47,0.85,0.76s0.45,0.62,0.6,0.97
				c0.12,0.29,0.25,0.58,0.37,0.87c-0.27-0.01-0.6-0.01-0.97-0.02c-0.05-0.21-0.14-0.41-0.26-0.6c-0.12-0.18-0.27-0.34-0.44-0.48
				c-0.17-0.14-0.36-0.24-0.57-0.31c-0.21-0.07-0.42-0.11-0.64-0.11h-2.63c-0.26,0-0.51,0.05-0.75,0.15
				c-0.24,0.1-0.45,0.24-0.64,0.43c-0.27,0.26-0.41,0.57-0.53,0.94c-0.1,0.01-0.19,0.01-0.28,0.02c-3.84,0.29-6.33,1.8-7.74,3.01
				c-1.77,1.52-2.57,3.2-2.58,4.19c0,0.01,0,0.02,0,0.02v1.38c0,0.06,0.01,0.13,0.04,0.19c0.02,0.06,0.06,0.11,0.11,0.16
				c0.05,0.04,0.1,0.08,0.16,0.11c0.06,0.02,0.12,0.04,0.19,0.04h23.44c0.06,0,0.13-0.01,0.19-0.04c0.06-0.03,0.11-0.06,0.16-0.11
				c0.05-0.05,0.08-0.1,0.11-0.16c0.03-0.06,0.04-0.12,0.04-0.19v-0.93c0.06-0.02,0.12-0.04,0.18-0.07c0.06-0.03,0.11-0.06,0.16-0.1
				c0.05-0.04,0.09-0.08,0.13-0.13s0.07-0.1,0.1-0.16c0.03-0.06,0.05-0.11,0.07-0.18c0.02-0.06,0.03-0.12,0.03-0.18
				c0-0.06,0-0.13-0.01-0.19s-0.03-0.12-0.05-0.18l-0.58-1.48c0.13-0.03,0.27-0.07,0.39-0.13c0.13-0.06,0.25-0.13,0.36-0.21
				c0.11-0.08,0.21-0.17,0.31-0.27c0.09-0.1,0.17-0.21,0.24-0.33c0.07-0.12,0.13-0.24,0.17-0.37c0.04-0.13,0.07-0.26,0.09-0.4
				c0.02-0.14,0.02-0.27,0.01-0.41C29.81,32.31,29.78,32.18,29.74,32.04L29.74,32.04z M22.38,23.04h3.26c0.11,0,0.22,0.02,0.32,0.05
				c0.1,0.03,0.2,0.08,0.29,0.15c0.09,0.06,0.17,0.14,0.23,0.23c0.06,0.09,0.11,0.18,0.15,0.29l0.45,1.78h-1.71
				c-1.65,0-2.99-1.03-2.99-2.29V23.04z M15.48,29.51c0.09-0.15,0.21-0.28,0.36-0.37c0.15-0.09,0.32-0.14,0.5-0.14h2.63
				c0.18,0,0.35,0.04,0.5,0.13s0.28,0.21,0.36,0.37H15.48z M27.27,37.68H4.81v-0.41h22.46V37.68z M28.65,33.23
				c-0.1,0.13-0.22,0.23-0.36,0.31c-0.15,0.07-0.3,0.11-0.47,0.11h-0.26c-0.04,0-0.08,0.01-0.12,0.01s-0.07,0.02-0.11,0.04
				c-0.04,0.02-0.07,0.04-0.1,0.07c-0.03,0.03-0.06,0.06-0.08,0.09c-0.02,0.03-0.04,0.07-0.05,0.1s-0.02,0.08-0.03,0.11
				c0,0.04,0,0.08,0,0.12c0.01,0.04,0.01,0.08,0.03,0.11l0.79,1.99h-23c0.21-0.73,0.86-1.87,2.16-3c1.31-1.13,3.6-2.51,7.18-2.78
				c0.18-0.01,0.39-0.02,0.64-0.03h0.02c1.45-0.06,3.81-0.03,5.55-0.01h0.01c1.22,0.02,2.13,0.04,2.14,0.04
				c0.08,0,0.16-0.01,0.24-0.05c0.07-0.04,0.13-0.09,0.18-0.16c0.05-0.07,0.07-0.14,0.08-0.22c0.01-0.08,0-0.16-0.04-0.24
				l-0.02-0.05c-0.21-0.5-0.43-1.02-0.65-1.52c-0.09-0.22-0.2-0.43-0.33-0.63c-0.13-0.2-0.27-0.4-0.42-0.58
				c-0.15-0.18-0.32-0.35-0.5-0.51c-0.18-0.16-0.37-0.3-0.57-0.43c-0.2-0.13-0.41-0.25-0.62-0.35c-0.22-0.1-0.44-0.19-0.67-0.25
				c-0.23-0.07-0.46-0.12-0.7-0.15s-0.48-0.05-0.71-0.05H9.19c-0.13,0-0.26-0.02-0.38-0.07c-0.12-0.05-0.23-0.11-0.33-0.2
				c-0.1-0.09-0.17-0.19-0.23-0.31c-0.06-0.12-0.09-0.24-0.1-0.37l-0.02-0.23c-0.01-0.07,0-0.14,0-0.21
				c0.01-0.07,0.03-0.14,0.05-0.21s0.05-0.13,0.09-0.19c0.04-0.06,0.08-0.12,0.13-0.17c0.05-0.05,0.1-0.1,0.16-0.14
				s0.12-0.08,0.19-0.11c0.07-0.03,0.13-0.05,0.2-0.06c0.07-0.01,0.14-0.02,0.21-0.02H21.4v0.21c0,1.8,1.78,3.26,3.96,3.26h1.96
				l1.47,5.79c0,0.01,0.01,0.02,0.01,0.02c0.05,0.16,0.06,0.32,0.03,0.48C28.81,32.96,28.75,33.1,28.65,33.23z"/>
		</g>
	</g>
	<g>
		<rect x="29.75" y="30.62" class="st0" width="17.07" height="6.52"/>
		<g>
			<path d="M30.48,35.67C30.48,35.67,30.47,35.67,30.48,35.67l0.31-0.64c0,0,0.01,0,0.01,0c7.94,0.02,14.25,0.36,14.25,0.36
				S38.45,35.69,30.48,35.67z M30.06,36.5c0.01,0,0.02,0,0.04,0c8.01,0.02,14.36,0.36,14.36,0.36s-6.65,0.3-14.68,0.28
				c-0.01,0-0.02,0-0.03,0L30.06,36.5z M31.2,34.2l0.32-0.64c7.88,0.02,14.12,0.36,14.12,0.36S39.1,34.22,31.2,34.2z M32.65,31.27
				l0.32-0.64c7.73,0.02,13.85,0.36,13.85,0.36S40.41,31.28,32.65,31.27z M46.23,32.45c0,0-6.19-0.34-13.99-0.36l-0.32,0.64
				C39.75,32.75,46.23,32.45,46.23,32.45"/>
		</g>
	</g>
</g>
</svg>
