<?xml version="1.0" encoding="utf-8"?>
<!-- Generator: Adobe Illustrator 27.3.1, SVG Export Plug-In . SVG Version: 6.00 Build 0)  -->
<svg version="1.1" id="Layer_1" xmlns="http://www.w3.org/2000/svg" xmlns:xlink="http://www.w3.org/1999/xlink" x="0px" y="0px"
	 viewBox="0 0 50 50" style="enable-background:new 0 0 50 50;" xml:space="preserve">
<style type="text/css">
	.st0{fill:none;}
	.st1{stroke:#000000;stroke-miterlimit:10;}
	.st2{stroke:#000000;stroke-width:0.75;stroke-miterlimit:10;}
	.st3{clip-path:url(#SVGID_00000035494121765509022030000007661920955753823676_);}
	.st4{clip-path:url(#SVGID_00000142162015369687185040000009160959817000816790_);}
	.st5{fill:#FFFFFF;}
	.st6{clip-path:url(#SVGID_00000002349795010536400910000015542209381858636420_);}
	.st7{fill:#231F20;}
	.st8{clip-path:url(#SVGID_00000104688756376620115380000002715142186410838925_);}
	.st9{clip-path:url(#SVGID_00000041277008770212515580000003465843903635325590_);}
	.st10{clip-path:url(#SVGID_00000121963387790373541100000015977923436576662433_);}
	.st11{clip-path:url(#SVGID_00000067948209364878594390000012457280159619084955_);}
	.st12{clip-path:url(#SVGID_00000157292608285878560180000011737243780417819834_);}
	.st13{clip-path:url(#SVGID_00000141457215460602171380000000101691066625013658_);}
	.st14{clip-path:url(#SVGID_00000115488010928566716680000016144373509605366667_);}
	.st15{clip-path:url(#SVGID_00000096769242525209800510000014001852742428759189_);}
	.st16{clip-path:url(#SVGID_00000052065189506730640600000000600850312397072300_);}
	.st17{clip-path:url(#SVGID_00000121246827607027180860000000463784954919369865_);}
	.st18{clip-path:url(#SVGID_00000182486397033055297830000013296620483552501932_);}
	.st19{clip-path:url(#SVGID_00000181067625168756782080000011622811450214031261_);}
	.st20{clip-path:url(#SVGID_00000001625506797428399610000008803581586241948809_);}
	.st21{clip-path:url(#SVGID_00000036940567087039225880000004043055405856131753_);}
	.st22{clip-path:url(#SVGID_00000040552665553806552030000001772327031815241349_);}
	.st23{clip-path:url(#SVGID_00000075875405314508037600000018309782084079670435_);}
	.st24{clip-path:url(#SVGID_00000124153880997787642120000002605717962027706280_);}
	.st25{clip-path:url(#SVGID_00000045590143994953938160000004943456857299629987_);}
	.st26{clip-path:url(#SVGID_00000091002771242444192900000004276503967004246717_);}
	.st27{clip-path:url(#SVGID_00000161624248643729604600000008631681690314355840_);}
	.st28{clip-path:url(#SVGID_00000104692269332816895560000016408032627930573742_);}
	.st29{clip-path:url(#SVGID_00000024700644310862487230000006952147921304843165_);}
	.st30{clip-path:url(#SVGID_00000008849669564991314460000003422036709549553057_);}
	.st31{fill-rule:evenodd;clip-rule:evenodd;}
	.st32{clip-path:url(#SVGID_00000036964111474684534480000012769500910366531490_);}
	.st33{clip-path:url(#SVGID_00000073686984667160161010000008361342756067160500_);}
	.st34{stroke:#000000;stroke-width:0.5;stroke-miterlimit:10;}
	.st35{clip-path:url(#SVGID_00000080891963822795132140000000959511102718108052_);}
	.st36{clip-path:url(#SVGID_00000016794074476779953860000016285542772615735701_);}
	.st37{clip-path:url(#SVGID_00000052815625325499609290000010559217259366708396_);}
	.st38{fill:#1A1A1A;}
	.st39{clip-path:url(#SVGID_00000031926154739255551530000003949681964024184219_);}
	.st40{clip-path:url(#SVGID_00000044886229759701909120000006605870235099763611_);}
	.st41{clip-path:url(#SVGID_00000091725734027864958250000003964955267993729413_);}
	.st42{clip-path:url(#SVGID_00000088092561607473134030000002875622679500806274_);}
	.st43{clip-path:url(#SVGID_00000109750252102629626080000014604044071198593168_);}
	.st44{clip-path:url(#SVGID_00000082344986669903874160000004531347919927667607_);}
	.st45{clip-path:url(#SVGID_00000117655565115175229590000003696404097819527314_);}
	.st46{clip-path:url(#SVGID_00000057126895171316430720000017944156811895778477_);}
	.st47{clip-path:url(#SVGID_00000014601641219014057770000013766054228698783914_);}
	.st48{fill:#F1F1F1;}
	.st49{fill:#E8E8E8;}
	.st50{fill:#FEFEFE;}
	.st51{fill:#CCCCCC;}
	.st52{fill:#B3B3B3;}
	.st53{fill:#E6E6E6;}
	.st54{fill:#EBEBEB;}
	.st55{fill:#EEEEEE;}
	.st56{fill:#F8F8F8;}
	.st57{fill:#FBFBFB;}
	.st58{fill:#383838;}
	.st59{fill:#232323;}
	.st60{fill:#F6F6F6;}
	.st61{fill:#535353;}
	.st62{fill:#0A0A0A;}
	.st63{fill:#F5F5F5;}
	.st64{fill:#818181;}
	.st65{fill:#4A4A4A;}
	.st66{fill:#999999;}
	.st67{fill:url(#SVGID_00000127736797984667483380000012812354322546885298_);}
	.st68{fill:url(#SVGID_00000069380589996766957910000013360064925022507434_);}
	.st69{fill:#0E0E0D;}
	.st70{fill:#333333;}
	.st71{fill:#808080;}
	.st72{fill:url(#SVGID_00000147209724252545335480000006230504101482773639_);}
	.st73{fill:#666666;}
	.st74{fill:url(#SVGID_00000088849259268729723930000003002732370668245410_);}
	.st75{fill:url(#SVGID_00000112609355660508143530000013834251051260136622_);}
	.st76{fill:url(#SVGID_00000029006416608655241890000001279490131625212053_);}
	.st77{fill:url(#SVGID_00000096779360967205390340000000024434288751292292_);}
	.st78{fill:url(#SVGID_00000022548665300462478010000008516902428879670673_);}
	.st79{clip-path:url(#SVGID_00000098189404269587866120000014382614094897068210_);}
	.st80{clip-path:url(#SVGID_00000072271670429715834930000007642955940784998334_);}
	.st81{clip-path:url(#SVGID_00000156559239556856490690000003334251874326543282_);}
	.st82{clip-path:url(#SVGID_00000031888001497699161100000013070698534719994252_);}
	.st83{clip-path:url(#SVGID_00000168096448941701039800000012338298916775263108_);}
	.st84{fill:#241F20;stroke:#000000;stroke-width:0.5;stroke-miterlimit:10;}
	.st85{clip-path:url(#SVGID_00000084524144078003199750000010042078519054952364_);}
	.st86{clip-path:url(#SVGID_00000024714316883314452360000008212172057401150893_);}
	.st87{clip-path:url(#SVGID_00000069378738913703771800000003466549150274848924_);}
	.st88{clip-path:url(#SVGID_00000050641633516994064570000009325271332451517339_);}
	.st89{clip-path:url(#SVGID_00000166639842893250840700000006174076153073404095_);}
	.st90{clip-path:url(#SVGID_00000012432377594579109850000006972692471463071130_);}
	.st91{clip-path:url(#SVGID_00000047027227600823968970000006967279071504184207_);}
	.st92{clip-path:url(#SVGID_00000065772634843821787460000007559420743388992695_);}
	.st93{clip-path:url(#SVGID_00000039814191717047865160000006369038050081330875_);}
	.st94{clip-path:url(#SVGID_00000028302000129180950670000015868337493962513572_);}
	.st95{clip-path:url(#SVGID_00000016754649139090005240000011912340156538228415_);}
	.st96{clip-path:url(#SVGID_00000167387719331189936970000016678243114177186212_);}
	.st97{clip-path:url(#SVGID_00000145026789713194204880000004860568275817162686_);}
	.st98{clip-path:url(#SVGID_00000115494978691706703270000005647930882074646405_);}
	.st99{clip-path:url(#SVGID_00000182502983232756278680000000176056718014978232_);}
	.st100{clip-path:url(#SVGID_00000053528924719571799240000011367131629762387347_);}
	.st101{clip-path:url(#SVGID_00000005252269155060803280000013111772647350782081_);}
	.st102{clip-path:url(#SVGID_00000146474232881591428530000005339118779974032819_);}
	.st103{clip-path:url(#SVGID_00000148634581362746779210000001328259816201711030_);}
	.st104{clip-path:url(#SVGID_00000078045434555205898040000003854729500248691382_);}
	.st105{clip-path:url(#SVGID_00000036958807509433617020000013781625253574686594_);}
	.st106{clip-path:url(#SVGID_00000046306541307779472610000006327505732113091724_);}
	.st107{clip-path:url(#SVGID_00000119800312986158189610000012596204115518477960_);}
	.st108{clip-path:url(#SVGID_00000093857962281478127860000003995828080414980540_);}
	.st109{clip-path:url(#SVGID_00000137103517995765579940000006007187498338964132_);}
	.st110{clip-path:url(#SVGID_00000010988801410253196670000015927057643507002257_);}
	.st111{clip-path:url(#SVGID_00000145037780253041754770000001007159266118800822_);}
	.st112{clip-path:url(#SVGID_00000075850829203090114370000013412394715868306312_);}
	.st113{clip-path:url(#SVGID_00000130608958321595023500000013287319003859432357_);}
	.st114{clip-path:url(#SVGID_00000062886576159606274690000009792317867463523737_);}
	.st115{fill:#FFFFFF;stroke:#000000;stroke-miterlimit:10;}
	.st116{clip-path:url(#SVGID_00000169526421969801508960000000768899260854422436_);}
	.st117{clip-path:url(#SVGID_00000119833706500910218040000000376851309555962259_);}
	.st118{fill:none;stroke:#010101;stroke-miterlimit:10;}
	.st119{fill:#010101;stroke:#000000;stroke-miterlimit:10;}
	.st120{clip-path:url(#SVGID_00000063633766168769310910000010601885362928651399_);}
	.st121{fill:#010101;stroke:#010101;stroke-miterlimit:10;}
	.st122{clip-path:url(#SVGID_00000042725406424884123560000000578326363925423246_);}
	.st123{clip-path:url(#SVGID_00000163056116649190514000000015551273841687046541_);}
	.st124{clip-path:url(#SVGID_00000026162791170661389850000017177225343529969794_);}
	.st125{clip-path:url(#SVGID_00000181070595740127367190000009526561425189520028_);}
	.st126{clip-path:url(#SVGID_00000054229255908158397290000011008820149963434129_);}
	.st127{fill:none;stroke:#000000;stroke-width:3;stroke-miterlimit:10;}
	.st128{clip-path:url(#SVGID_00000181784403584373194350000003727014973087419287_);}
	.st129{clip-path:url(#SVGID_00000114795309547359164340000003451987392932045977_);}
	.st130{clip-path:url(#SVGID_00000165236724577998365980000015095888934262330507_);}
	.st131{clip-path:url(#SVGID_00000134216153255908391060000007717251662161256100_);}
	.st132{fill:#040606;}
	.st133{clip-path:url(#SVGID_00000093153958499702026070000007847078269489301430_);}
	.st134{clip-path:url(#SVGID_00000107565875760197434720000013895041024361998269_);}
	.st135{clip-path:url(#SVGID_00000014615526076732806250000009036966107367633060_);}
	.st136{clip-path:url(#SVGID_00000169560279870219840710000004132130461837681073_);}
	.st137{clip-path:url(#SVGID_00000150786027579209897820000011650840112923691435_);}
	.st138{clip-path:url(#SVGID_00000174581559642534953490000004403971623022189700_);}
	.st139{clip-path:url(#SVGID_00000099664627827731810730000004282874166742081927_);}
	.st140{fill:#FFFFFF;stroke:#000000;stroke-width:1.5;stroke-miterlimit:10;}
	.st141{clip-path:url(#SVGID_00000043453488678648363760000003684205102817654934_);}
	.st142{fill:#BDBCBC;}
	.st143{clip-path:url(#SVGID_00000125573422299962541320000004316663753548286592_);}
	.st144{fill:#2E2A2B;}
	.st145{clip-path:url(#SVGID_00000160869774611876403250000005795519258700446601_);}
	.st146{clip-path:url(#SVGID_00000150060351181725456250000011203555033659250326_);}
	.st147{clip-path:url(#SVGID_00000101811278662157092630000004057121544196911531_);}
	.st148{clip-path:url(#SVGID_00000181072267978293060320000016313282215085832094_);}
	.st149{clip-path:url(#SVGID_00000083049441781107165040000008674593805407166101_);}
	.st150{fill:#272324;}
	.st151{clip-path:url(#SVGID_00000085933763182323554730000004787715541749544086_);}
	.st152{clip-path:url(#SVGID_00000064323167467517952280000007132757004947474593_);}
	.st153{clip-path:url(#SVGID_00000122689741102972902020000008571338726921286577_);}
	.st154{clip-path:url(#SVGID_00000000221687950409336860000001377952078892618931_);}
	.st155{clip-path:url(#SVGID_00000038372279164936910260000003351831350665660081_);}
	.st156{clip-path:url(#SVGID_00000062193003998696151550000011299969028603921592_);}
	.st157{fill:none;stroke:#000000;stroke-width:0.8735;stroke-linecap:round;stroke-linejoin:round;stroke-miterlimit:10;}
	.st158{clip-path:url(#SVGID_00000069394501530336050140000003341086156053310877_);}
	.st159{clip-path:url(#SVGID_00000029763027369892589920000013870659606511373470_);}
	.st160{clip-path:url(#SVGID_00000076594766650541473170000006880666926919781545_);}
	.st161{clip-path:url(#SVGID_00000141416126358566850950000004975965896543423365_);}
	.st162{clip-path:url(#SVGID_00000075148428751697356250000009511704874850032534_);}
	.st163{clip-path:url(#SVGID_00000155833110565815079590000004580385030299951754_);}
	.st164{clip-path:url(#SVGID_00000012458699270357300550000015430594633858597561_);}
	.st165{clip-path:url(#SVGID_00000049179874412303371290000013621789742502484404_);}
	.st166{clip-path:url(#SVGID_00000089544486076650985230000000552874462755412126_);}
	.st167{clip-path:url(#SVGID_00000032615887067643160360000005672363674748740495_);}
	.st168{clip-path:url(#SVGID_00000083793310228140209010000001314312935024221317_);}
	.st169{clip-path:url(#SVGID_00000045597857449703600980000016928246455436349855_);}
	.st170{clip-path:url(#SVGID_00000053536134864532116140000008858485106311544745_);}
	.st171{clip-path:url(#SVGID_00000127038547800621532270000010222160348286776219_);}
	.st172{clip-path:url(#SVGID_00000111880780077419183870000003841182222493755526_);}
	.st173{clip-path:url(#SVGID_00000016792969009085010990000007414843165492081570_);}
	.st174{clip-path:url(#SVGID_00000125571115314872491570000011882572001266321551_);}
	.st175{clip-path:url(#SVGID_00000071519563666452404400000006475103630540607664_);}
	.st176{clip-path:url(#SVGID_00000055700052142801825940000009492425245116838058_);}
	.st177{clip-path:url(#SVGID_00000053510381077462530580000009391298369224340137_);}
	.st178{clip-path:url(#SVGID_00000124154621134298122030000003999674262184416385_);}
	.st179{clip-path:url(#SVGID_00000039833729771424581940000014520684216034977713_);}
	.st180{clip-path:url(#SVGID_00000125582878907427545430000012193941746911145144_);}
	.st181{clip-path:url(#SVGID_00000039132409137687230350000016701281460237487758_);}
	.st182{clip-path:url(#SVGID_00000165212557831321307260000002915886050859591044_);}
	.st183{clip-path:url(#SVGID_00000059285971938227390310000004141457673644874159_);}
	.st184{clip-path:url(#SVGID_00000137107072838664326590000012813259313862776500_);}
	.st185{clip-path:url(#SVGID_00000109029143091846037360000002465241537573036731_);}
	.st186{clip-path:url(#SVGID_00000178193072197525181070000014802579441011815049_);}
	.st187{clip-path:url(#SVGID_00000150790982380575511710000005581739410764806820_);}
	.st188{clip-path:url(#SVGID_00000040562510277759673280000014922859733355289754_);}
	.st189{clip-path:url(#SVGID_00000076594703523015009220000004073438435854498705_);}
	.st190{clip-path:url(#SVGID_00000034075669966434207490000008581384529932529836_);}
	.st191{clip-path:url(#SVGID_00000047741658032265885480000015187742776959876500_);}
	.st192{clip-path:url(#SVGID_00000178195786086674303930000009720075184176852877_);}
	.st193{clip-path:url(#SVGID_00000173162313169720023760000012329141665615218847_);}
	.st194{clip-path:url(#SVGID_00000180350125524124076540000002336476509749047453_);}
	.st195{clip-path:url(#SVGID_00000139975973783718741980000007940202445791235220_);}
	.st196{fill:#E5E5E5;}
	.st197{fill:#1D1D1B;}
	.st198{fill:none;stroke:#000000;stroke-miterlimit:10;}
	.st199{fill:#FEFEFE;stroke:#000000;stroke-miterlimit:10;}
	.st200{clip-path:url(#SVGID_00000179645973878224898320000004925320284616998808_);}
	.st201{clip-path:url(#SVGID_00000018923850827209698430000011438732579167867795_);}
	.st202{clip-path:url(#SVGID_00000117644141825390540440000008262553362256030603_);}
	.st203{fill:#231F1F;}
	.st204{fill:#020000;}
	.st205{clip-path:url(#SVGID_00000057857551108479824630000002444694036655387581_);}
	.st206{clip-path:url(#SVGID_00000073714591201112240800000001358710857229933726_);}
	.st207{clip-path:url(#SVGID_00000057122052111576587820000013197753721188585348_);}
	.st208{clip-path:url(#SVGID_00000155138955612120864210000014183954402566680717_);}
	.st209{fill:#050000;}
	.st210{clip-path:url(#SVGID_00000079467620908418324610000016740855332562175407_);}
	.st211{clip-path:url(#SVGID_00000105397141389085668630000000676161486570752441_);}
	.st212{clip-path:url(#SVGID_00000155140379915909883140000002134665178091621019_);}
	.st213{clip-path:url(#SVGID_00000083050104684557140940000004885269178259318196_);}
	.st214{clip-path:url(#SVGID_00000076561612731915259010000007146589874770741182_);}
	.st215{clip-path:url(#SVGID_00000036251444199825897900000004395062716364200877_);}
	.st216{fill:#12100F;}
	.st217{clip-path:url(#SVGID_00000139280095087075457480000010319388000566922888_);}
	.st218{clip-path:url(#SVGID_00000067233420343525220170000005260839864591427232_);}
	.st219{fill:none;stroke:#000000;stroke-width:0.5;stroke-miterlimit:10;}
	.st220{clip-path:url(#SVGID_00000087369968116783940030000017980472961725271431_);}
	.st221{clip-path:url(#SVGID_00000140712437084572133910000005033452447833187502_);}
	.st222{clip-path:url(#SVGID_00000017484276029261160250000003813585839422368660_);}
	.st223{clip-path:url(#SVGID_00000007426349869069264130000009462759734818927262_);}
	.st224{fill:none;stroke:#000000;stroke-width:0.25;stroke-miterlimit:10;}
	.st225{clip-path:url(#SVGID_00000041297939271862505570000013168399360873872046_);}
	.st226{clip-path:url(#SVGID_00000172407633876863354880000014885281840911304088_);}
	.st227{clip-path:url(#SVGID_00000159428021474397354880000002306997590174289291_);}
</style>
<g>
	<path class="st31" d="M32.97,40.08c0.05-0.02,0.1,0.01,0.13,0.06c0.01,0.03,0.02,0.07,0.03,0.07c-0.66,0.28-1.36,0.47-2.08,0.59
		c-0.7,0.12-1.41,0.19-2.15,0.21c-3.47,0.1-6.67-1.22-9-3.43c-2.36-2.26-3.82-5.43-3.87-8.95c-0.04-3.54,1.39-6.76,3.71-9.1
		c2.33-2.35,5.56-3.8,9.14-3.81c1.66-0.01,3.17,0.23,4.54,0.71c1.36,0.49,2.6,1.21,3.74,2.22c0.06,0.05,0.1,0.12,0.1,0.2
		c0,0.07-0.02,0.15-0.07,0.21c-0.18,0.19-0.44,0.47-0.63,0.67c-0.13,0.14-0.36,0.15-0.51,0.02c-0.97-0.83-2.01-1.45-3.15-1.86
		c-1.22-0.43-2.55-0.65-4.01-0.65c-3.16-0.01-6.03,1.25-8.12,3.31c-2.1,2.06-3.41,4.92-3.43,8.08c-0.04,3.19,1.23,6.08,3.28,8.23
		c2.1,2.17,5,3.59,8.27,3.68c0.72,0.02,1.42,0.01,2.11-0.06C31.66,40.4,32.32,40.27,32.97,40.08z"/>
	<path class="st31" d="M30.15,18.48c0.06-0.37,0.43-0.62,0.8-0.56c0.37,0.06,0.62,0.42,0.56,0.8l-0.28,1.63
		c-0.06,0.37-0.43,0.62-0.8,0.56c-0.37-0.06-0.62-0.42-0.56-0.8L30.15,18.48z"/>
	<path class="st31" d="M34.63,20.17c0.25-0.29,0.69-0.31,0.98-0.06c0.29,0.25,0.31,0.69,0.06,0.97l-1.1,1.25
		c-0.25,0.29-0.69,0.31-0.98,0.06c-0.29-0.25-0.31-0.69-0.06-0.97L34.63,20.17z"/>
	<path class="st31" d="M25.06,19.1c-0.11-0.36,0.1-0.74,0.46-0.86c0.36-0.11,0.75,0.1,0.86,0.46l0.49,1.59
		c0.11,0.36-0.1,0.74-0.46,0.86c-0.36,0.11-0.75-0.1-0.86-0.46L25.06,19.1z"/>
	<path class="st31" d="M20.45,22.92c-0.32-0.21-0.41-0.64-0.21-0.96c0.2-0.32,0.63-0.41,0.95-0.2l1.3,0.83
		c0.32,0.21,0.41,0.64,0.21,0.95c-0.2,0.32-0.63,0.41-0.95,0.2L20.45,22.92z"/>
	<path class="st31" d="M18.91,28.13c-0.38-0.02-0.67-0.35-0.65-0.73c0.02-0.38,0.35-0.67,0.73-0.65l1.67,0.08
		c0.38,0.02,0.67,0.35,0.65,0.73c-0.02,0.38-0.35,0.67-0.73,0.65L18.91,28.13z"/>
	<path class="st31" d="M19.95,32.71c-0.35,0.13-0.75-0.06-0.88-0.42c-0.13-0.35,0.06-0.75,0.42-0.88l1.57-0.55
		c0.36-0.13,0.75,0.06,0.88,0.42c0.13,0.35-0.06,0.75-0.42,0.88L19.95,32.71z"/>
	<path class="st31" d="M22.76,36.5c-0.27,0.26-0.71,0.24-0.98-0.04c-0.26-0.27-0.24-0.71,0.03-0.97l1.22-1.14
		c0.27-0.26,0.71-0.24,0.98,0.04s0.24,0.71-0.03,0.97L22.76,36.5z"/>
	<path class="st31" d="M27.34,38.95c-0.11,0.37-0.49,0.58-0.86,0.46c-0.37-0.1-0.58-0.49-0.47-0.85l0.53-1.81
		c0.11-0.37,0.49-0.58,0.86-0.46c0.37,0.1,0.58,0.49,0.47,0.85L27.34,38.95z"/>
	<path class="st31" d="M32.43,38.73c0.05,0.37-0.23,0.71-0.61,0.76c-0.38,0.05-0.72-0.23-0.77-0.61l-0.2-1.65
		c-0.05-0.38,0.23-0.72,0.61-0.77c0.38-0.05,0.72,0.23,0.77,0.61L32.43,38.73z"/>
	<path class="st31" d="M26.43,31.98c-0.18-0.16-0.27-0.39-0.27-0.63c0-0.24,0.1-0.47,0.28-0.63c2.15-2.01,8.81-8.18,10.33-9.6
		c0.01-0.01,0.02-0.01,0.03,0c0.01,0.01,0.01,0.02,0,0.03c-1.37,1.6-7.42,8.64-9.25,10.76c-0.14,0.15-0.33,0.26-0.54,0.27
		C26.78,32.21,26.58,32.13,26.43,31.98z"/>
	<path class="st31" d="M23.5,17.74c0,0-4.86-0.1-7.18-0.16c-0.05,0-0.09-0.04-0.09-0.09c-0.01-0.05,0.03-0.08,0.08-0.09
		c2.77-0.35,9.38-1.2,9.38-1.2L23.5,17.74z"/>
	<path class="st31" d="M17.98,23.03c0,0-4.96-0.29-7.64-0.44c-0.07-0.01-0.13-0.06-0.13-0.13c0-0.07,0.05-0.13,0.12-0.13
		c2.96-0.31,8.77-0.9,8.77-0.9L17.98,23.03z"/>
	<g>
		<defs>
			<rect id="SVGID_00000077286060650008185750000017178958031028461994_" x="7.07" y="26.86" width="9.72" height="2.73"/>
		</defs>
		<clipPath id="SVGID_00000067916940212809306270000009027954222509182855_">
			<use xlink:href="#SVGID_00000077286060650008185750000017178958031028461994_"  style="overflow:visible;"/>
		</clipPath>
		<g style="clip-path:url(#SVGID_00000067916940212809306270000009027954222509182855_);">
			<path class="st31" d="M16.65,28.96c0,0-6.37-0.33-9.37-0.49c-0.07-0.01-0.11-0.05-0.12-0.12c0-0.06,0.05-0.12,0.11-0.12
				c3-0.32,9.39-1,9.39-1L16.65,28.96z"/>
		</g>
	</g>
	<path class="st31" d="M17.91,34.32c0,0-5.14-0.31-7.73-0.47c-0.07,0-0.13-0.06-0.13-0.14c0-0.07,0.05-0.13,0.13-0.15
		c2.49-0.33,7.28-0.95,7.28-0.95L17.91,34.32z"/>
	<path class="st31" d="M21.2,38.07c0,0-4.4-0.11-6.66-0.18c-0.06,0-0.1-0.04-0.11-0.1c0-0.06,0.04-0.11,0.1-0.11
		c2-0.29,5.61-0.8,5.61-0.8L21.2,38.07z"/>
	<path class="st31" d="M27.65,40.96c0,0-5.39-0.23-8.06-0.35c-0.05,0-0.08-0.05-0.08-0.08c-0.01-0.05,0.03-0.09,0.08-0.09
		c2.02-0.16,5.43-0.42,5.43-0.42L27.65,40.96z"/>
	<path d="M30.37,29.27c0,0.2-0.04,0.39-0.11,0.57c-0.08,0.18-0.18,0.34-0.33,0.49c-0.14,0.14-0.3,0.25-0.49,0.32
		c-0.18,0.08-0.38,0.11-0.58,0.11c-0.2,0-0.39-0.04-0.57-0.11c-0.18-0.07-0.35-0.18-0.49-0.32c-0.14-0.14-0.25-0.3-0.33-0.49
		c-0.07-0.18-0.11-0.37-0.11-0.57c0-0.2,0.04-0.39,0.11-0.57c0.08-0.18,0.18-0.34,0.33-0.49c0.14-0.14,0.3-0.25,0.49-0.32
		c0.18-0.08,0.38-0.11,0.57-0.11c0.2,0,0.39,0.04,0.58,0.11c0.18,0.07,0.35,0.18,0.49,0.32c0.14,0.14,0.25,0.3,0.33,0.49
		C30.33,28.88,30.37,29.07,30.37,29.27z"/>
	<path class="st5" d="M29.79,29.28c0,0.12-0.02,0.23-0.07,0.35c-0.05,0.11-0.11,0.21-0.2,0.29c-0.09,0.09-0.18,0.15-0.29,0.2
		c-0.11,0.05-0.23,0.07-0.35,0.07c-0.12,0-0.24-0.02-0.35-0.07c-0.11-0.05-0.21-0.11-0.3-0.2c-0.08-0.08-0.15-0.18-0.19-0.29
		c-0.05-0.11-0.07-0.23-0.07-0.35c0-0.12,0.02-0.23,0.07-0.34c0.05-0.11,0.11-0.21,0.19-0.29c0.09-0.09,0.18-0.15,0.3-0.2
		c0.11-0.05,0.23-0.07,0.35-0.07c0.12,0,0.23,0.02,0.35,0.07c0.11,0.05,0.21,0.11,0.29,0.2c0.09,0.08,0.15,0.18,0.2,0.29
		C29.76,29.05,29.79,29.16,29.79,29.28z"/>
	<path class="st31" d="M32.07,13.26L32.07,13.26l-0.01,0.63c0,0.18-0.03,0.36-0.11,0.52c-0.07,0.16-0.17,0.31-0.3,0.45
		c-0.13,0.13-0.28,0.23-0.44,0.3c-0.17,0.07-0.34,0.11-0.52,0.11l-3.9-0.02c-0.41,0-0.78-0.16-1.05-0.43
		c-0.27-0.27-0.43-0.64-0.43-1.05v-0.53c0-0.38,0.16-0.73,0.41-0.98c0.25-0.25,0.6-0.4,0.98-0.4l3.95-0.02
		c0.19,0,0.37,0.04,0.55,0.11c0.17,0.07,0.33,0.18,0.46,0.31c0.14,0.13,0.24,0.29,0.31,0.46C32.04,12.89,32.07,13.07,32.07,13.26z
		 M30.74,13.26c0-0.03-0.01-0.05-0.03-0.07c-0.02-0.02-0.04-0.03-0.07-0.03h-3.95c-0.04,0-0.08,0.03-0.08,0.08v0.53
		c0,0.09,0.08,0.17,0.18,0.17h3.9c0.02,0,0.03-0.01,0.04-0.02c0.01-0.01,0.01-0.02,0.01-0.03V13.26z"/>
	<path class="st31" d="M30.3,15.28l-0.01,0.46l-0.04,1.2l-2.07-0.08h-1.1l0.01-1.58v-1.09l1.98-0.15l1.22,0.1L30.3,15.28z
		 M28.18,15.28v0.48h0.14l0.23,0.23l0.23-0.23h0.29v-0.48l-0.22-0.39l-0.46,0.15L28.18,15.28z"/>
</g>
</svg>
