<?xml version="1.0" encoding="utf-8"?>
<!-- Generator: Adobe Illustrator 27.3.1, SVG Export Plug-In . SVG Version: 6.00 Build 0)  -->
<svg version="1.1" id="Layer_1" xmlns="http://www.w3.org/2000/svg" xmlns:xlink="http://www.w3.org/1999/xlink" x="0px" y="0px"
	 viewBox="0 0 50 50" style="enable-background:new 0 0 50 50;" xml:space="preserve">
<style type="text/css">
	.st0{fill:none;}
	.st1{stroke:#000000;stroke-miterlimit:10;}
	.st2{stroke:#000000;stroke-width:0.75;stroke-miterlimit:10;}
	.st3{clip-path:url(#SVGID_00000059308703810074187480000002344603536841848728_);}
	.st4{clip-path:url(#SVGID_00000137846156702583943990000000042038824162826911_);}
	.st5{fill:#FFFFFF;}
	.st6{clip-path:url(#SVGID_00000057838374859938977110000011649482670383477948_);}
	.st7{fill:#231F20;}
	.st8{clip-path:url(#SVGID_00000101098705292899990170000006728017931374597546_);}
	.st9{clip-path:url(#SVGID_00000024692544278370003200000010684640837833014186_);}
	.st10{clip-path:url(#SVGID_00000009583607931252796080000015113425262202792577_);}
	.st11{clip-path:url(#SVGID_00000080900879308297422050000002585356649106136994_);}
	.st12{clip-path:url(#SVGID_00000062913742076531239890000015959986343333582220_);}
	.st13{clip-path:url(#SVGID_00000061468796960731468210000016427790998547413167_);}
	.st14{clip-path:url(#SVGID_00000092416103273838296630000004989219681105277357_);}
	.st15{clip-path:url(#SVGID_00000060022991694100129330000016703803780391767440_);}
	.st16{clip-path:url(#SVGID_00000003794367022943217950000007529035923192089272_);}
	.st17{clip-path:url(#SVGID_00000167380719905299638160000000173619161797093013_);}
	.st18{clip-path:url(#SVGID_00000091011706929063690970000000930025661697587103_);}
	.st19{clip-path:url(#SVGID_00000146475831499861317730000008739843826769601698_);}
	.st20{clip-path:url(#SVGID_00000156589188022062256450000013126989124762557335_);}
	.st21{clip-path:url(#SVGID_00000030473636720359002870000005660117726530704025_);}
	.st22{clip-path:url(#SVGID_00000121978733694814992680000018337994730081004954_);}
	.st23{clip-path:url(#SVGID_00000041980276389986900340000004696278028262802360_);}
	.st24{clip-path:url(#SVGID_00000119838319607391252460000002345745447252254897_);}
	.st25{clip-path:url(#SVGID_00000159459659777926266030000016291117552932406697_);}
	.st26{clip-path:url(#SVGID_00000080167165301585455370000002364046112021239199_);}
	.st27{clip-path:url(#SVGID_00000166674116216182421180000014063262612901191867_);}
	.st28{clip-path:url(#SVGID_00000173869031431503898020000007607120075001143190_);}
	.st29{clip-path:url(#SVGID_00000072273842232241039100000017589100581583108499_);}
	.st30{clip-path:url(#SVGID_00000088126977646374798600000012459529315902084755_);}
	.st31{fill-rule:evenodd;clip-rule:evenodd;}
	.st32{clip-path:url(#SVGID_00000156557492423652378220000012082047856040850874_);}
	.st33{clip-path:url(#SVGID_00000102515856307602146660000007923237914315873928_);}
	.st34{stroke:#000000;stroke-width:0.5;stroke-miterlimit:10;}
	.st35{clip-path:url(#SVGID_00000027594475207785154420000013673892051153143485_);}
	.st36{clip-path:url(#SVGID_00000001660134904426833790000003076869888083255457_);}
	.st37{clip-path:url(#SVGID_00000042734354356458305520000010895509256891602072_);}
	.st38{fill:#1A1A1A;}
	.st39{clip-path:url(#SVGID_00000052800266717384118830000006171655412388699276_);}
	.st40{clip-path:url(#SVGID_00000013152360962778006550000017034888727697732745_);}
	.st41{clip-path:url(#SVGID_00000072240903479117687520000010564918116084048543_);}
	.st42{clip-path:url(#SVGID_00000121262338946861584970000000383743203743408009_);}
	.st43{clip-path:url(#SVGID_00000007409946964011805700000018041042300024629950_);}
	.st44{clip-path:url(#SVGID_00000138551989762079635760000001590111431901212079_);}
	.st45{clip-path:url(#SVGID_00000163039309306872010220000006452624857841534377_);}
	.st46{clip-path:url(#SVGID_00000183231097815269929470000008668294374512180109_);}
	.st47{clip-path:url(#SVGID_00000035508641049717156350000001615843138276000930_);}
	.st48{fill:#F1F1F1;}
	.st49{fill:#E8E8E8;}
	.st50{fill:#FEFEFE;}
	.st51{fill:#CCCCCC;}
	.st52{fill:#B3B3B3;}
	.st53{fill:#E6E6E6;}
	.st54{fill:#EBEBEB;}
	.st55{fill:#EEEEEE;}
	.st56{fill:#F8F8F8;}
	.st57{fill:#FBFBFB;}
	.st58{fill:#383838;}
	.st59{fill:#232323;}
	.st60{fill:#F6F6F6;}
	.st61{fill:#535353;}
	.st62{fill:#0A0A0A;}
	.st63{fill:#F5F5F5;}
	.st64{fill:#818181;}
	.st65{fill:#4A4A4A;}
	.st66{fill:#999999;}
	.st67{fill:url(#SVGID_00000072972156597592042510000000071659823830678198_);}
	.st68{fill:url(#SVGID_00000138575566968594758270000002657359246712293537_);}
	.st69{fill:#0E0E0D;}
	.st70{fill:#333333;}
	.st71{fill:#808080;}
	.st72{fill:url(#SVGID_00000016069155418386518170000016484839157305082786_);}
	.st73{fill:#666666;}
	.st74{fill:url(#SVGID_00000175296015413145251590000008295839831512452238_);}
	.st75{fill:url(#SVGID_00000041992319574121849150000007142033972579131049_);}
	.st76{fill:url(#SVGID_00000010272971353363521810000007956123660482301590_);}
	.st77{fill:url(#SVGID_00000095322386459006857400000015579268715305525124_);}
	.st78{fill:url(#SVGID_00000134233887121185232230000004741083421723961005_);}
	.st79{clip-path:url(#SVGID_00000073685072487810900390000011981410982715929516_);}
	.st80{clip-path:url(#SVGID_00000071524999691351230540000001658357296354219430_);}
	.st81{clip-path:url(#SVGID_00000067958971009467174820000008793923145591530116_);}
	.st82{clip-path:url(#SVGID_00000171694702199125973430000004108846713792575406_);}
	.st83{clip-path:url(#SVGID_00000087406236700748240810000012807117000032246174_);}
	.st84{fill:#241F20;stroke:#000000;stroke-width:0.5;stroke-miterlimit:10;}
	.st85{clip-path:url(#SVGID_00000057108342225898842360000002824002108907907485_);}
	.st86{clip-path:url(#SVGID_00000134236510986931279200000002515732086835670199_);}
	.st87{clip-path:url(#SVGID_00000097459470309111147670000000219770980249556614_);}
	.st88{clip-path:url(#SVGID_00000080202640972904402390000016880864740134445993_);}
	.st89{clip-path:url(#SVGID_00000165943462266710419290000015885614600422508220_);}
	.st90{clip-path:url(#SVGID_00000031911449588508774170000015352205003464836793_);}
	.st91{clip-path:url(#SVGID_00000131360331833017931810000007674226191892436401_);}
	.st92{clip-path:url(#SVGID_00000178893512532006486860000017386150533109198761_);}
	.st93{clip-path:url(#SVGID_00000004508465877460257710000010523687636673810586_);}
	.st94{clip-path:url(#SVGID_00000115473489300258180960000005173686684197717130_);}
	.st95{clip-path:url(#SVGID_00000002378537889174196530000003557480649444695217_);}
	.st96{clip-path:url(#SVGID_00000182516716731007773800000015866032884699846579_);}
	.st97{clip-path:url(#SVGID_00000152233913191960287100000012748242135405229960_);}
	.st98{clip-path:url(#SVGID_00000152235398287404521650000000223852935803431611_);}
	.st99{clip-path:url(#SVGID_00000073723473490719495570000007683285753140569486_);}
	.st100{clip-path:url(#SVGID_00000059308859508227547200000015831662643148911273_);}
	.st101{clip-path:url(#SVGID_00000070111287980803148510000005698539747458499764_);}
	.st102{clip-path:url(#SVGID_00000049207608448919941880000016892278928828969620_);}
	.st103{clip-path:url(#SVGID_00000139291249012967732730000005843198017785414585_);}
	.st104{clip-path:url(#SVGID_00000119799434730295583750000003388226763737220013_);}
	.st105{clip-path:url(#SVGID_00000047041368452700021250000004184854048287540392_);}
	.st106{clip-path:url(#SVGID_00000111905697318449118730000012535339693431304843_);}
	.st107{clip-path:url(#SVGID_00000006680697800611893230000002981400518127296398_);}
	.st108{clip-path:url(#SVGID_00000134930133743272482930000017165591241376057777_);}
	.st109{clip-path:url(#SVGID_00000134249679253854482170000009911830026610593682_);}
	.st110{clip-path:url(#SVGID_00000020358383822723923180000002526969424565132984_);}
	.st111{clip-path:url(#SVGID_00000067938433878758220730000013357144338953301424_);}
	.st112{clip-path:url(#SVGID_00000007408050042101946980000015664144617384208556_);}
	.st113{clip-path:url(#SVGID_00000104704930542423292330000000930639978452277394_);}
	.st114{clip-path:url(#SVGID_00000011731220953886996760000001186645331343918483_);}
	.st115{fill:#FFFFFF;stroke:#000000;stroke-miterlimit:10;}
	.st116{clip-path:url(#SVGID_00000067216498098008862950000008133073753436306819_);}
	.st117{clip-path:url(#SVGID_00000135663632632817098190000001889339233699999894_);}
	.st118{fill:none;stroke:#010101;stroke-miterlimit:10;}
	.st119{fill:#010101;stroke:#000000;stroke-miterlimit:10;}
	.st120{clip-path:url(#SVGID_00000009590891018823818160000003766437157320638629_);}
	.st121{fill:#010101;stroke:#010101;stroke-miterlimit:10;}
	.st122{clip-path:url(#SVGID_00000015347764443027467250000016208643862564520631_);}
	.st123{clip-path:url(#SVGID_00000091696886906776472860000008519160177506261674_);}
	.st124{clip-path:url(#SVGID_00000127040613876701248980000007257303603565574574_);}
	.st125{clip-path:url(#SVGID_00000158002784857236108810000006552454083063239573_);}
	.st126{clip-path:url(#SVGID_00000072983666450718918060000001894468285798588826_);}
	.st127{fill:none;stroke:#000000;stroke-width:3;stroke-miterlimit:10;}
	.st128{clip-path:url(#SVGID_00000107564930452591123390000012776943853687711392_);}
	.st129{clip-path:url(#SVGID_00000031887959567567559520000014184082262256136105_);}
	.st130{clip-path:url(#SVGID_00000005987032887162506720000001636293843090728583_);}
	.st131{clip-path:url(#SVGID_00000173136923852079887350000010290301779826600371_);}
	.st132{fill:#040606;}
	.st133{clip-path:url(#SVGID_00000121240490112030308740000013934102315138390670_);}
	.st134{clip-path:url(#SVGID_00000080177497235827876000000009785045016383532431_);}
	.st135{clip-path:url(#SVGID_00000096768495637535426770000013043130551272874900_);}
	.st136{clip-path:url(#SVGID_00000067228898261001454500000012968838711756368809_);}
	.st137{clip-path:url(#SVGID_00000060008454619382784710000016087200193458629779_);}
	.st138{clip-path:url(#SVGID_00000068664259329876266220000012188878843836868543_);}
	.st139{clip-path:url(#SVGID_00000056386488126013004830000013711429954248548235_);}
	.st140{fill:#FFFFFF;stroke:#000000;stroke-width:1.5;stroke-miterlimit:10;}
	.st141{clip-path:url(#SVGID_00000110457408130632532190000003111647943220364734_);}
	.st142{fill:#BDBCBC;}
	.st143{clip-path:url(#SVGID_00000097499768183665743170000001928058150104354712_);}
	.st144{fill:#2E2A2B;}
	.st145{clip-path:url(#SVGID_00000165937225020423396610000014228651919930553006_);}
	.st146{clip-path:url(#SVGID_00000133516345760134508700000016010328843025005998_);}
	.st147{clip-path:url(#SVGID_00000176726400720141114890000011825383982534677659_);}
	.st148{clip-path:url(#SVGID_00000121270856495062540160000011727729332875680187_);}
	.st149{clip-path:url(#SVGID_00000101086579235873263870000000574066305253241762_);}
	.st150{fill:#272324;}
	.st151{clip-path:url(#SVGID_00000019664184545935508240000008905039841792326312_);}
	.st152{clip-path:url(#SVGID_00000076569606273824074420000006134061273897239197_);}
	.st153{clip-path:url(#SVGID_00000064329049543531933770000010973047351738109313_);}
	.st154{clip-path:url(#SVGID_00000049917395311880581120000000125218121492031629_);}
	.st155{clip-path:url(#SVGID_00000083790630563890563830000017834151258224178087_);}
	.st156{clip-path:url(#SVGID_00000083801720647058727360000013732395112782395326_);}
	.st157{fill:none;stroke:#000000;stroke-width:0.8735;stroke-linecap:round;stroke-linejoin:round;stroke-miterlimit:10;}
	.st158{clip-path:url(#SVGID_00000155828717650164142060000011033674396449044642_);}
	.st159{clip-path:url(#SVGID_00000065038832350000607410000015678401746095107472_);}
	.st160{clip-path:url(#SVGID_00000054967306400430765090000015357879863484273046_);}
	.st161{clip-path:url(#SVGID_00000055707695965873661530000003829450146116563330_);}
	.st162{clip-path:url(#SVGID_00000102520329949933011390000001667151117227444149_);}
	.st163{clip-path:url(#SVGID_00000103984338744472255280000011615621922503916718_);}
	.st164{clip-path:url(#SVGID_00000173152119117537388640000010277749787229128875_);}
	.st165{clip-path:url(#SVGID_00000087399696497617583920000010597714981471957922_);}
	.st166{clip-path:url(#SVGID_00000124128798530165052530000004840052273680273029_);}
	.st167{clip-path:url(#SVGID_00000067922487105882473830000004827594787797939098_);}
	.st168{clip-path:url(#SVGID_00000130610211156484665620000009243220693234674312_);}
	.st169{clip-path:url(#SVGID_00000182516872264875013960000010814413289638012560_);}
	.st170{clip-path:url(#SVGID_00000119113883112364138760000010472087721568428686_);}
	.st171{clip-path:url(#SVGID_00000103973919670080490110000005973660938003209661_);}
	.st172{clip-path:url(#SVGID_00000058591385277953021710000008159144259366631566_);}
	.st173{clip-path:url(#SVGID_00000008126291987488688910000013461284420803430577_);}
	.st174{clip-path:url(#SVGID_00000014618116508072278720000013063522379178386844_);}
	.st175{clip-path:url(#SVGID_00000163060855131151484320000003869263713661826951_);}
	.st176{clip-path:url(#SVGID_00000034794909677074246390000006170477656405875380_);}
	.st177{clip-path:url(#SVGID_00000005237735777719770480000008373820840311695289_);}
	.st178{clip-path:url(#SVGID_00000065045187274568597610000018120717702904771477_);}
	.st179{clip-path:url(#SVGID_00000146478123989816391240000004502081666371618433_);}
	.st180{clip-path:url(#SVGID_00000141432636829497986060000006286144605920047528_);}
	.st181{clip-path:url(#SVGID_00000039107548370412104700000002260109728736287908_);}
	.st182{clip-path:url(#SVGID_00000153682645577274884430000001507122057260708016_);}
	.st183{clip-path:url(#SVGID_00000071552733355986298420000004112503592047866527_);}
	.st184{clip-path:url(#SVGID_00000102505927470686652730000016139720122338965665_);}
	.st185{clip-path:url(#SVGID_00000152241210963829134350000001173419644542828687_);}
	.st186{clip-path:url(#SVGID_00000080897231003239039150000000378943296234079383_);}
	.st187{clip-path:url(#SVGID_00000021800768919054531060000008750224336056526478_);}
	.st188{clip-path:url(#SVGID_00000176019386503108774080000015406422381180029068_);}
	.st189{clip-path:url(#SVGID_00000175295785332583675640000005881124970791096984_);}
	.st190{clip-path:url(#SVGID_00000088105058648991935140000008382982094133754509_);}
	.st191{clip-path:url(#SVGID_00000059305081810268690540000015220132652564529599_);}
	.st192{clip-path:url(#SVGID_00000079453690413087721800000015969149080341810877_);}
	.st193{clip-path:url(#SVGID_00000132089385868042456790000018246990310570537863_);}
	.st194{clip-path:url(#SVGID_00000082340173395453830060000012314774843487297168_);}
	.st195{clip-path:url(#SVGID_00000046316359246421521060000003235748402960129172_);}
	.st196{fill:#E5E5E5;}
	.st197{fill:#1D1D1B;}
	.st198{fill:none;stroke:#000000;stroke-miterlimit:10;}
	.st199{fill:#FEFEFE;stroke:#000000;stroke-miterlimit:10;}
	.st200{clip-path:url(#SVGID_00000111884464713597156740000016935062905255199873_);}
	.st201{clip-path:url(#SVGID_00000132774243838964587130000015785461452794467222_);}
	.st202{clip-path:url(#SVGID_00000000922982559806875960000015580366425792912015_);}
	.st203{fill:#231F1F;}
	.st204{fill:#020000;}
	.st205{clip-path:url(#SVGID_00000078765463928855128290000015580790743357368496_);}
	.st206{clip-path:url(#SVGID_00000088839212533345774270000003289467486453804697_);}
	.st207{clip-path:url(#SVGID_00000026145174373373868140000007778276892857426569_);}
	.st208{clip-path:url(#SVGID_00000086680860627097823520000002049276769826367395_);}
	.st209{fill:#050000;}
	.st210{clip-path:url(#SVGID_00000124848650876876360050000010302509026044128434_);}
	.st211{clip-path:url(#SVGID_00000171699931747811947610000010070084107071092908_);}
	.st212{clip-path:url(#SVGID_00000018916368566636107100000011751909703437698485_);}
	.st213{clip-path:url(#SVGID_00000175292138327068054720000011014738892614471558_);}
	.st214{clip-path:url(#SVGID_00000142135097226633633970000004468185267723602363_);}
	.st215{clip-path:url(#SVGID_00000023979833508593111440000010681261073303528358_);}
	.st216{fill:#12100F;}
	.st217{clip-path:url(#SVGID_00000088816916668693081840000009157558585959006365_);}
	.st218{clip-path:url(#SVGID_00000183959812191153579670000011136784812313011850_);}
	.st219{fill:none;stroke:#000000;stroke-width:0.5;stroke-miterlimit:10;}
	.st220{clip-path:url(#SVGID_00000147910338576396152110000012375576270787389862_);}
	.st221{clip-path:url(#SVGID_00000146472451656705320720000005856123014765563028_);}
	.st222{clip-path:url(#SVGID_00000154389131088446998730000005606514942255365760_);}
	.st223{clip-path:url(#SVGID_00000125581657413987943720000006404773930546383769_);}
	.st224{fill:none;stroke:#000000;stroke-width:0.25;stroke-miterlimit:10;}
	.st225{clip-path:url(#SVGID_00000045587765385233307220000008835003494254998202_);}
	.st226{clip-path:url(#SVGID_00000127753055412163487950000011201613009068905626_);}
	.st227{clip-path:url(#SVGID_00000029732874127338548910000012824275085858891707_);}
</style>
<g>
	<path class="st118" d="M15.47,37.96l-0.13-0.03c0.46-2.12,0.95-4.26,1.45-6.38c0.2-0.83,0.36-1.52,0.51-2.13
		c0.54-2.24,0.76-3.17,0.96-4.72c0.27-2.18,0.55-4.43-0.05-7.13c-0.4-1.8-1.12-3.53-2.13-5.13l-0.02-0.04l0.03-0.04
		c0.3-0.37,0.66-0.67,1.08-0.89c0.23-0.13,0.48-0.22,0.74-0.29l0.03,0.13c-0.25,0.06-0.49,0.16-0.72,0.27
		c-0.39,0.2-0.73,0.48-1,0.82c1,1.6,1.72,3.33,2.12,5.13c0.6,2.71,0.32,4.98,0.05,7.18c-0.19,1.56-0.41,2.49-0.96,4.74
		c-0.15,0.61-0.31,1.29-0.51,2.13C16.42,33.71,15.93,35.85,15.47,37.96z"/>
	<path class="st118" d="M16.61,28.19l1.84-9.2l0.13,0.02l-1.84,9.2L16.61,28.19z"/>
	<path class="st118" d="M13.4,27.48l2.67-15.08l0.13,0.02l-2.67,15.08L13.4,27.48z"/>
	<g>
		<path class="st119" d="M15.18,31.02c-0.04,0-0.08-0.01-0.13-0.02c-0.23-0.06-0.32-0.22-0.41-0.37c-0.08-0.14-0.17-0.28-0.37-0.35
			c-0.15-0.05-0.26-0.02-0.38,0.01c-0.13,0.04-0.29,0.08-0.52,0.02c-0.31-0.09-0.69-0.35-0.76-0.69c-0.02-0.13,0-0.2,0.01-0.29
			c0.02-0.09,0.05-0.17,0.02-0.31s-0.06-0.21-0.1-0.28c-0.05-0.07-0.08-0.14-0.08-0.26c0.01-0.23,0.19-0.39,0.54-0.71
			c0.1-0.09,0.23-0.21,0.42-0.33c0.24-0.15,0.38-0.24,0.58-0.24c0.17-0.01,0.26,0.06,0.35,0.13c0.08,0.05,0.17,0.12,0.31,0.15
			c0.18,0.05,0.29,0.03,0.4,0.01c0.12-0.02,0.25-0.05,0.44,0.02c0.15,0.06,0.22,0.12,0.3,0.19c0.06,0.06,0.13,0.14,0.29,0.23
			c0.23,0.13,0.39,0.16,0.52,0.19c0.14,0.02,0.26,0.05,0.35,0.18c0.1,0.15,0.05,0.3-0.02,0.48c-0.05,0.15-0.13,0.35-0.12,0.62
			c0,0.25,0.07,0.43,0.12,0.57c0.06,0.17,0.11,0.31,0.02,0.46c-0.08,0.12-0.18,0.14-0.41,0.19c-0.11,0.02-0.24,0.06-0.42,0.1
			c-0.32,0.08-0.51,0.15-0.65,0.21C15.35,30.98,15.28,31.02,15.18,31.02z M14.1,30.12c0.06,0,0.13,0.01,0.21,0.04
			c0.24,0.09,0.35,0.25,0.44,0.4c0.09,0.14,0.17,0.26,0.33,0.31c0.11,0.03,0.17,0.01,0.35-0.06c0.13-0.05,0.33-0.12,0.66-0.22
			c0.19-0.05,0.33-0.08,0.43-0.1c0.22-0.05,0.27-0.06,0.32-0.13c0.06-0.1,0.03-0.18-0.03-0.35c-0.05-0.15-0.12-0.34-0.12-0.62
			c-0.01-0.3,0.07-0.51,0.13-0.67c0.06-0.17,0.1-0.26,0.03-0.35c-0.05-0.08-0.11-0.09-0.25-0.12c-0.14-0.02-0.33-0.06-0.57-0.21
			c-0.17-0.1-0.25-0.19-0.31-0.25c-0.07-0.07-0.12-0.12-0.24-0.16c-0.15-0.06-0.26-0.04-0.37-0.02c-0.12,0.02-0.26,0.05-0.47-0.01
			c-0.17-0.05-0.27-0.12-0.36-0.17c-0.08-0.06-0.15-0.1-0.27-0.1c-0.16,0.01-0.28,0.09-0.51,0.23c-0.18,0.12-0.31,0.23-0.4,0.32
			c-0.33,0.3-0.49,0.45-0.5,0.62c-0.01,0.08,0.02,0.13,0.05,0.19c0.04,0.07,0.1,0.17,0.12,0.33c0.02,0.17,0,0.28-0.02,0.37
			c-0.02,0.08-0.04,0.13-0.02,0.23c0.06,0.28,0.38,0.51,0.67,0.58c0.19,0.06,0.32,0.02,0.45-0.01
			C13.93,30.14,14.01,30.12,14.1,30.12z"/>
	</g>
	<path class="st118" d="M31.23,37.96c-0.45-2.08-0.94-4.23-1.45-6.37c-0.2-0.83-0.36-1.51-0.51-2.12c-0.55-2.25-0.76-3.18-0.96-4.74
		c-0.27-2.19-0.55-4.45,0.05-7.18c0.4-1.8,1.12-3.53,2.12-5.13c-0.25-0.3-0.54-0.55-0.87-0.74l0.07-0.12
		c0.36,0.21,0.67,0.48,0.94,0.81l0.03,0.04l-0.02,0.04c-1.01,1.6-1.73,3.33-2.13,5.13c-0.59,2.7-0.32,4.95-0.05,7.13
		c0.19,1.55,0.41,2.48,0.96,4.73c0.15,0.61,0.31,1.3,0.51,2.12c0.51,2.14,1,4.29,1.45,6.38L31.23,37.96z"/>
	<path class="st118" d="M28.12,19.01l0.13-0.02l1.84,9.2l-0.13,0.02L28.12,19.01z"/>
	<path class="st118" d="M30.49,12.43l0.13-0.02l2.67,15.08l-0.13,0.02L30.49,12.43z"/>
	<g>
		<path class="st119" d="M31.51,31.02c-0.1,0-0.18-0.03-0.31-0.08c-0.14-0.06-0.33-0.13-0.65-0.21c-0.18-0.05-0.31-0.08-0.42-0.1
			c-0.23-0.05-0.33-0.07-0.4-0.19c-0.1-0.15-0.05-0.3,0.01-0.46c0.06-0.14,0.12-0.32,0.12-0.57c0-0.27-0.07-0.47-0.12-0.63
			c-0.06-0.17-0.12-0.32-0.02-0.48c0.09-0.13,0.2-0.15,0.35-0.18c0.13-0.02,0.3-0.06,0.52-0.19c0.16-0.1,0.23-0.17,0.29-0.23
			c0.07-0.08,0.14-0.14,0.3-0.2c0.19-0.07,0.32-0.05,0.44-0.02c0.12,0.02,0.23,0.04,0.41-0.01c0.15-0.04,0.24-0.1,0.31-0.15
			c0.1-0.06,0.19-0.13,0.35-0.12c0.19,0.01,0.33,0.09,0.58,0.24c0.19,0.12,0.32,0.24,0.42,0.34c0.35,0.32,0.53,0.48,0.54,0.71
			c0.01,0.13-0.03,0.19-0.08,0.26c-0.04,0.06-0.08,0.14-0.1,0.28c-0.02,0.15,0,0.24,0.02,0.31c0.02,0.08,0.05,0.16,0.01,0.29
			c-0.07,0.35-0.44,0.61-0.76,0.69c-0.23,0.06-0.39,0.02-0.52-0.02c-0.12-0.03-0.23-0.06-0.38-0.01c-0.19,0.07-0.28,0.2-0.37,0.35
			c-0.09,0.15-0.19,0.3-0.41,0.37C31.6,31.02,31.55,31.02,31.51,31.02z M31.42,27.59c-0.06,0-0.12,0.01-0.2,0.04
			c-0.12,0.05-0.17,0.09-0.24,0.16c-0.06,0.07-0.15,0.15-0.31,0.25c-0.24,0.15-0.43,0.18-0.57,0.21c-0.14,0.02-0.2,0.04-0.25,0.12
			c-0.06,0.1-0.03,0.18,0.03,0.35c0.06,0.16,0.14,0.37,0.13,0.67c0,0.27-0.07,0.46-0.12,0.62c-0.06,0.17-0.09,0.25-0.03,0.35
			c0.05,0.07,0.1,0.08,0.32,0.13c0.1,0.02,0.24,0.06,0.43,0.1c0.33,0.09,0.53,0.17,0.67,0.22c0.18,0.07,0.24,0.1,0.35,0.06
			c0.17-0.06,0.25-0.17,0.34-0.31c0.09-0.15,0.19-0.32,0.44-0.4c0.19-0.06,0.33-0.03,0.46,0.01c0.13,0.04,0.26,0.07,0.45,0.01
			c0.29-0.08,0.61-0.3,0.66-0.58c0.02-0.1,0-0.15-0.01-0.23c-0.02-0.1-0.06-0.2-0.02-0.38c0.02-0.16,0.08-0.26,0.12-0.33
			c0.04-0.06,0.06-0.11,0.06-0.19c-0.01-0.17-0.17-0.32-0.5-0.62c-0.1-0.09-0.22-0.2-0.4-0.32c-0.23-0.14-0.35-0.22-0.51-0.23
			c-0.13-0.01-0.18,0.04-0.27,0.1c-0.08,0.05-0.18,0.12-0.36,0.17c-0.21,0.05-0.35,0.03-0.47,0.01
			C31.53,27.6,31.48,27.59,31.42,27.59z"/>
	</g>
	<g>
		<defs>
			<rect id="SVGID_00000027577486308405163970000000143828944719475116_" x="13.33" y="7.6" width="19.83" height="36.1"/>
		</defs>
		<clipPath id="SVGID_00000105384432354192000700000000270996306771418808_">
			<use xlink:href="#SVGID_00000027577486308405163970000000143828944719475116_"  style="overflow:visible;"/>
		</clipPath>
		<g style="clip-path:url(#SVGID_00000105384432354192000700000000270996306771418808_);">
			<path class="st121" d="M28.37,43.32c-0.61,0-1.11-0.3-1.84-0.75c-0.47-0.29-0.9-0.56-1.26-1.1c-0.19-0.29-0.23-0.48-0.39-1.18
				c-0.02-0.1-0.05-0.2-0.07-0.33c-0.16-0.68-0.27-1.16-0.37-1.55c-0.22-0.88-0.28-1.15-0.25-1.68c0.01-0.08,0.01-0.15,0.01-0.24
				c0.02-0.2,0.04-0.45,0.05-0.83c0.01-0.58-0.02-1.01-0.03-1.23V34.4c0-0.01-0.08-1.26-0.03-2.7c0.03-1.01,0.13-1.49,0.2-1.85
				c0.08-0.37,0.13-0.62,0.06-1.19c-0.01-0.08-0.02-0.17-0.03-0.26c-0.05-0.44-0.12-0.94,0-1.61c0.06-0.29,0.11-0.43,0.17-0.56
				c0.05-0.12,0.09-0.23,0.13-0.45c0.07-0.4,0.02-0.63-0.09-1.23c-0.06-0.26-0.12-0.59-0.2-1.05c-0.19-1.14-0.19-1.51-0.19-1.63
				c0-0.33,0.02-0.5,0.05-0.7c0.02-0.15,0.04-0.31,0.06-0.56c0.03-0.61-0.02-0.9-0.07-1.19c-0.04-0.26-0.09-0.49-0.06-0.91
				c0.03-0.62,0.17-0.95,0.28-1.24c0.12-0.29,0.22-0.53,0.18-1.02c-0.03-0.37-0.12-0.58-0.2-0.8c-0.09-0.26-0.19-0.49-0.16-0.93
				c0.02-0.35,0.1-0.51,0.2-0.74c0.08-0.18,0.18-0.4,0.29-0.76c0.17-0.56,0.54-1.88,0.02-2.33c-0.06-0.05-0.1-0.05-0.46-0.1
				c-0.18-0.01-0.42-0.04-0.77-0.08c-0.14-0.01-0.26-0.03-0.37-0.05c-0.54-0.07-0.65-0.08-0.74,0c-0.07,0.05-0.22,0.17-0.07,1.43
				c0.1,0.82,0.26,1.65,0.49,2.46c0.1,0.37,0.16,0.54,0.21,0.7c0.05,0.15,0.1,0.29,0.17,0.56c0.15,0.52,0.46,1.62,0.55,2.8
				c0.06,0.73,0,1.08-0.05,1.45c-0.06,0.37-0.12,0.76-0.07,1.57c0.03,0.47,0.07,0.74,0.12,1.02c0.06,0.32,0.11,0.64,0.14,1.28
				c0.03,0.54,0.07,1.29-0.03,2.21c-0.08,0.76-0.2,1.23-0.3,1.6c-0.13,0.48-0.21,0.77-0.08,1.3c0.03,0.15,0.08,0.27,0.12,0.4
				c0.09,0.28,0.18,0.55,0.14,0.95c-0.03,0.35-0.12,0.52-0.2,0.68c-0.08,0.15-0.14,0.26-0.12,0.51c0.01,0.2,0.07,0.38,0.13,0.56
				c0.1,0.28,0.2,0.6,0.17,1.08c0,0.02,0,0.05-0.01,0.09c-0.05,0.48-0.2,0.77-0.33,1.04c-0.09,0.19-0.18,0.37-0.23,0.6
				c-0.04,0.22-0.01,0.31,0.02,0.42c0.04,0.11,0.08,0.24,0.04,0.49c-0.06,0.4-0.24,0.6-0.44,0.81c-0.17,0.18-0.33,0.36-0.44,0.69
				c-0.11,0.33-0.08,0.55-0.06,0.75c0.03,0.22,0.06,0.44-0.08,0.78c-0.15,0.34-0.33,0.47-0.51,0.6c-0.17,0.12-0.33,0.23-0.46,0.51
				c-0.19,0.38-0.14,0.71-0.1,1s0.08,0.57-0.13,0.83c-0.2,0.24-0.43,0.26-0.71,0.27c-0.26,0.01-0.57,0.04-0.97,0.23
				c-0.44,0.22-0.65,0.48-0.85,0.72c-0.2,0.25-0.37,0.46-0.73,0.48c-0.31,0.02-0.48-0.12-0.67-0.27c-0.18-0.15-0.39-0.32-0.77-0.41
				c-0.47-0.11-0.88-0.01-1.21,0.06c-0.35,0.08-0.63,0.13-0.81-0.07c-0.09-0.11-0.09-0.21-0.09-0.33s0-0.26-0.08-0.47
				c-0.09-0.23-0.19-0.33-0.31-0.44c-0.1-0.1-0.21-0.2-0.31-0.39c-0.3-0.59-0.08-1.26,0-1.45c0.14-0.36,0.38-0.58,0.86-1.03
				c0.42-0.39,0.76-0.6,1.01-0.62l0.01,0.07l-0.01-0.07c0.12-0.01,0.18,0.01,0.35,0.05c0.08,0.02,0.19,0.06,0.36,0.1
				c0.67,0.16,1.05,0.21,1.15,0.14c0.08-0.06,0.1-0.13,0.1-0.27c0.01-0.12,0.01-0.29,0.14-0.46c0.15-0.22,0.35-0.26,0.6-0.32
				c0.2-0.05,0.43-0.1,0.73-0.26c0.24-0.12,0.62-0.33,0.81-0.71c0.12-0.24,0.1-0.41,0.06-0.65c-0.03-0.19-0.06-0.42-0.04-0.75
				c0.05-0.56,0.26-1.05,0.69-2c0.06-0.13,0.1-0.23,0.15-0.32c0.16-0.33,0.24-0.51,0.27-0.82c0.02-0.23-0.01-0.34-0.04-0.5
				c-0.02-0.13-0.06-0.28-0.06-0.53c-0.01-0.35,0.04-0.51,0.1-0.73c0.05-0.18,0.11-0.39,0.15-0.77c0.05-0.42,0.03-0.65,0.02-0.84
				c-0.02-0.22-0.02-0.37,0.08-0.66c0.07-0.19,0.15-0.33,0.23-0.48c0.12-0.22,0.19-0.35,0.13-0.44c-0.04-0.07-0.12-0.09-0.21-0.1
				c-0.1-0.02-0.22-0.05-0.27-0.15c-0.08-0.17,0.06-0.35,0.23-0.57c0.1-0.12,0.21-0.27,0.3-0.44c0.15-0.31,0.12-0.52,0.05-0.87
				c-0.05-0.26-0.12-0.58-0.12-1.08c-0.01-0.52,0.05-0.91,0.1-1.22c0.07-0.45,0.12-0.75-0.09-1.11c-0.1-0.17-0.17-0.21-0.26-0.27
				c-0.1-0.06-0.2-0.14-0.33-0.34c-0.27-0.42-0.27-0.79-0.27-1.14c0-0.31,0.01-0.61-0.19-0.94c-0.15-0.26-0.31-0.33-0.48-0.4
				c-0.17-0.08-0.37-0.17-0.56-0.47c-0.24-0.38-0.24-0.69-0.23-1.01c0.01-0.32,0.02-0.65-0.2-1.1c-0.13-0.27-0.25-0.4-0.37-0.51
				c-0.13-0.13-0.26-0.26-0.38-0.56c-0.13-0.35-0.12-0.56-0.08-0.88c0.02-0.23,0.05-0.51,0.02-0.96c-0.02-0.47-0.09-0.79-0.14-1.05
				c-0.08-0.38-0.13-0.62,0.05-0.94c0.11-0.19,0.24-0.3,0.35-0.39c0.12-0.11,0.23-0.19,0.3-0.41c0.08-0.27,0.02-0.48-0.03-0.66
				c-0.05-0.17-0.1-0.34,0.01-0.49c0.14-0.19,0.39-0.16,0.71-0.12c0.33,0.05,0.73,0.1,1.2-0.04c0.35-0.11,0.51-0.25,0.65-0.39
				c0.16-0.15,0.31-0.29,0.65-0.35c0.39-0.07,0.65,0.02,0.94,0.13c0.28,0.11,0.58,0.22,1.05,0.15c0.23-0.03,0.33-0.07,0.45-0.12
				c0.13-0.06,0.27-0.12,0.58-0.17c0.59-0.08,1.13-0.04,1.62,0.13c0.42,0.15,0.6,0.32,0.79,0.49c0.18,0.16,0.35,0.32,0.73,0.45
				c0.3,0.1,0.55,0.13,0.75,0.14c0.26,0.02,0.47,0.05,0.58,0.24c0.1,0.17,0.05,0.33-0.01,0.5c-0.06,0.17-0.13,0.36-0.08,0.63
				c0.04,0.24,0.13,0.37,0.24,0.51c0.11,0.14,0.22,0.29,0.28,0.56c0.04,0.19-0.03,0.52-0.19,1.26c-0.14,0.65-0.23,1.01-0.39,1.47
				c-0.09,0.23-0.13,0.33-0.18,0.43c-0.04,0.08-0.07,0.15-0.12,0.28c-0.16,0.47-0.16,0.78-0.17,1.11c0,0.19,0,0.37-0.03,0.59
				c-0.08,0.68-0.41,1.18-1.05,2.17c-0.19,0.3-0.35,0.51-0.48,0.69c-0.26,0.34-0.4,0.53-0.45,0.9c-0.01,0.06-0.02,0.14-0.02,0.22
				c-0.02,0.21-0.05,0.47-0.14,0.83c-0.08,0.33-0.18,0.55-0.23,0.69c-0.01,0.02-0.02,0.05-0.02,0.06c-0.21,0.53-0.1,1.05,0.1,2
				l0.04,0.17c0.58,2.77,0.53,3.19,0.38,3.51c-0.06,0.15-0.13,0.26-0.2,0.37c-0.13,0.21-0.24,0.38-0.27,0.71
				c-0.04,0.31,0.02,0.49,0.12,0.76c0.06,0.15,0.12,0.35,0.18,0.62c0.13,0.59,0.1,0.96,0.08,1.27c-0.03,0.33-0.06,0.62,0.12,1.08
				c0.08,0.25,0.16,0.37,0.25,0.49c0.09,0.14,0.2,0.3,0.33,0.68c0.12,0.36,0.16,0.57,0.19,0.76c0.03,0.21,0.06,0.38,0.19,0.65
				c0.11,0.23,0.23,0.39,0.32,0.53c0.17,0.23,0.27,0.4,0.2,0.62c-0.06,0.17-0.19,0.25-0.29,0.32s-0.17,0.11-0.17,0.18
				c0,0.09,0.1,0.17,0.32,0.31c0.08,0.06,0.17,0.11,0.27,0.18c0.36,0.27,0.51,0.44,0.61,0.56c0.09,0.11,0.14,0.17,0.29,0.24
				c0.39,0.17,0.79,0.02,1.14-0.12c0.34-0.13,0.66-0.26,0.91-0.05c0.13,0.1,0.15,0.23,0.19,0.37c0.03,0.15,0.06,0.33,0.23,0.57
				c0.13,0.2,0.25,0.28,0.38,0.37c0.1,0.08,0.21,0.15,0.33,0.3c0.38,0.47,0.62,1.28,0.3,1.86c-0.21,0.38-0.59,0.56-1.01,0.74
				c-0.34,0.15-0.56,0.19-0.82,0.24c-0.13,0.02-0.26,0.05-0.42,0.08c-0.62,0.15-0.91,0.36-1.17,0.54c-0.24,0.17-0.44,0.31-0.85,0.33
				C28.44,43.32,28.41,43.32,28.37,43.32z M22.65,10.27c0.12,0,0.3,0.02,0.57,0.05c0.11,0.02,0.23,0.03,0.37,0.05
				c0.35,0.04,0.59,0.06,0.76,0.09c0.38,0.04,0.44,0.05,0.54,0.12c0.58,0.51,0.19,1.88,0.02,2.47c-0.11,0.38-0.21,0.61-0.3,0.79
				c-0.1,0.23-0.17,0.38-0.19,0.69c-0.02,0.41,0.06,0.62,0.15,0.87c0.08,0.21,0.17,0.45,0.2,0.84c0.05,0.52-0.06,0.79-0.19,1.08
				c-0.11,0.27-0.24,0.6-0.27,1.19c-0.01,0.4,0.02,0.64,0.06,0.88c0.05,0.3,0.1,0.6,0.07,1.22c-0.02,0.26-0.03,0.42-0.06,0.57
				c-0.02,0.2-0.05,0.37-0.05,0.69c0,0.12,0,0.48,0.19,1.61c0.08,0.45,0.14,0.78,0.2,1.04c0.12,0.6,0.17,0.85,0.1,1.29
				c-0.04,0.24-0.09,0.36-0.14,0.48c-0.05,0.12-0.1,0.25-0.16,0.52c-0.12,0.64-0.05,1.13,0,1.57c0.02,0.09,0.02,0.18,0.03,0.26
				c0.07,0.6,0.02,0.87-0.06,1.23c-0.07,0.35-0.17,0.83-0.2,1.82c-0.05,1.43,0.03,2.68,0.03,2.68v0.03
				c0.01,0.21,0.04,0.65,0.03,1.24c-0.01,0.38-0.03,0.64-0.05,0.85c-0.01,0.08-0.01,0.15-0.01,0.23c-0.03,0.51,0.03,0.76,0.24,1.64
				c0.09,0.39,0.22,0.87,0.37,1.56c0.02,0.12,0.05,0.23,0.07,0.33c0.15,0.7,0.19,0.87,0.37,1.15c0.33,0.51,0.76,0.77,1.21,1.05
				c0.76,0.47,1.26,0.77,1.87,0.73c0.37-0.02,0.55-0.15,0.78-0.31c0.25-0.18,0.57-0.4,1.21-0.56c0.17-0.04,0.3-0.06,0.43-0.08
				c0.25-0.05,0.47-0.09,0.8-0.24c0.4-0.18,0.75-0.33,0.94-0.69c0.29-0.53,0.07-1.27-0.29-1.71c-0.12-0.14-0.21-0.21-0.31-0.28
				c-0.12-0.08-0.26-0.18-0.4-0.4c-0.18-0.26-0.22-0.47-0.25-0.62c-0.02-0.13-0.04-0.22-0.13-0.29c-0.2-0.15-0.47-0.05-0.78,0.08
				c-0.37,0.14-0.8,0.31-1.24,0.11c-0.17-0.08-0.25-0.16-0.33-0.28c-0.1-0.13-0.24-0.29-0.58-0.54c-0.1-0.07-0.18-0.13-0.26-0.18
				c-0.23-0.15-0.39-0.26-0.38-0.43c0-0.15,0.12-0.22,0.23-0.29c0.1-0.06,0.2-0.13,0.24-0.25c0.05-0.15-0.02-0.26-0.19-0.51
				c-0.09-0.14-0.22-0.32-0.33-0.55c-0.15-0.3-0.17-0.48-0.21-0.69c-0.03-0.19-0.06-0.39-0.19-0.74c-0.13-0.36-0.23-0.51-0.32-0.65
				c-0.09-0.13-0.17-0.25-0.27-0.52c-0.18-0.5-0.15-0.81-0.12-1.14c0.02-0.31,0.05-0.66-0.07-1.23c-0.06-0.26-0.12-0.44-0.17-0.6
				c-0.09-0.27-0.16-0.48-0.12-0.82c0.05-0.35,0.16-0.56,0.3-0.76c0.06-0.11,0.13-0.22,0.2-0.36c0.13-0.29,0.18-0.7-0.39-3.43
				l-0.04-0.17c-0.2-0.97-0.32-1.51-0.1-2.08c0.01-0.01,0.02-0.04,0.03-0.07c0.05-0.13,0.15-0.36,0.23-0.67
				c0.1-0.35,0.12-0.61,0.13-0.81c0.01-0.08,0.01-0.15,0.02-0.22c0.06-0.4,0.22-0.62,0.48-0.96c0.12-0.17,0.29-0.39,0.48-0.68
				c0.62-0.98,0.94-1.46,1.03-2.11c0.03-0.21,0.03-0.4,0.03-0.58c0-0.33,0-0.67,0.17-1.15c0.05-0.14,0.08-0.21,0.12-0.3
				c0.04-0.1,0.1-0.2,0.17-0.42c0.15-0.44,0.23-0.76,0.39-1.45c0.14-0.65,0.23-1.04,0.19-1.2c-0.05-0.24-0.15-0.37-0.25-0.51
				c-0.11-0.14-0.23-0.29-0.26-0.57c-0.05-0.3,0.02-0.52,0.08-0.69c0.06-0.16,0.1-0.26,0.02-0.38c-0.08-0.13-0.21-0.15-0.48-0.18
				C28.48,9.02,28.22,9,27.9,8.9c-0.41-0.14-0.6-0.31-0.79-0.49c-0.18-0.16-0.35-0.32-0.74-0.46c-0.47-0.17-0.99-0.21-1.56-0.13
				c-0.29,0.04-0.42,0.1-0.55,0.16c-0.13,0.05-0.24,0.11-0.49,0.14c-0.5,0.06-0.83-0.06-1.11-0.16c-0.27-0.1-0.51-0.19-0.87-0.13
				c-0.31,0.06-0.43,0.18-0.58,0.32c-0.16,0.15-0.33,0.31-0.71,0.42c-0.5,0.15-0.94,0.08-1.26,0.05c-0.32-0.05-0.49-0.06-0.58,0.06
				c-0.06,0.1-0.04,0.19,0.01,0.37c0.06,0.19,0.13,0.44,0.03,0.75c-0.08,0.25-0.22,0.37-0.34,0.48c-0.1,0.08-0.21,0.18-0.31,0.35
				c-0.15,0.27-0.11,0.48-0.04,0.84c0.06,0.26,0.12,0.58,0.14,1.07c0.02,0.45,0,0.75-0.02,0.98c-0.02,0.31-0.05,0.49,0.08,0.81
				c0.11,0.28,0.22,0.39,0.34,0.51c0.12,0.12,0.26,0.25,0.4,0.55c0.23,0.48,0.22,0.84,0.21,1.16c-0.01,0.32-0.02,0.6,0.2,0.94
				c0.17,0.26,0.33,0.33,0.5,0.41c0.18,0.08,0.36,0.17,0.54,0.46c0.22,0.36,0.21,0.69,0.21,1.01c0,0.35-0.01,0.68,0.24,1.06
				c0.12,0.18,0.2,0.24,0.29,0.3c0.1,0.06,0.19,0.13,0.3,0.31c0.24,0.4,0.19,0.73,0.11,1.2c-0.05,0.31-0.11,0.69-0.1,1.2
				c0.01,0.48,0.07,0.8,0.12,1.05c0.07,0.37,0.12,0.6-0.06,0.95c-0.08,0.17-0.2,0.32-0.31,0.45c-0.14,0.18-0.26,0.33-0.21,0.42
				c0.02,0.05,0.08,0.07,0.19,0.08c0.1,0.02,0.24,0.05,0.3,0.17c0.1,0.16,0,0.34-0.13,0.58c-0.07,0.13-0.15,0.28-0.22,0.45
				c-0.1,0.26-0.09,0.39-0.07,0.61c0.01,0.19,0.03,0.44-0.02,0.87c-0.05,0.39-0.11,0.62-0.16,0.79c-0.06,0.21-0.1,0.37-0.1,0.69
				c0.01,0.23,0.03,0.38,0.06,0.51c0.03,0.15,0.06,0.3,0.04,0.54c-0.03,0.33-0.12,0.52-0.28,0.87c-0.05,0.09-0.1,0.19-0.15,0.32
				c-0.42,0.94-0.63,1.41-0.68,1.96c-0.02,0.31,0.01,0.53,0.04,0.71c0.04,0.25,0.07,0.45-0.08,0.74c-0.22,0.42-0.62,0.64-0.87,0.77
				c-0.3,0.16-0.55,0.22-0.76,0.26c-0.23,0.06-0.39,0.09-0.51,0.27c-0.1,0.14-0.11,0.26-0.12,0.39c-0.01,0.13-0.02,0.27-0.16,0.38
				c-0.07,0.05-0.19,0.15-1.25-0.12c-0.17-0.04-0.28-0.07-0.37-0.09c-0.17-0.05-0.21-0.06-0.31-0.05c-0.22,0.01-0.54,0.22-0.93,0.58
				c-0.47,0.43-0.7,0.65-0.83,0.98c-0.07,0.18-0.27,0.8,0,1.34c0.08,0.17,0.18,0.26,0.27,0.35c0.12,0.12,0.24,0.24,0.35,0.49
				c0.09,0.23,0.09,0.4,0.09,0.52c0,0.11,0,0.17,0.06,0.24c0.13,0.14,0.33,0.11,0.68,0.03c0.34-0.08,0.76-0.17,1.26-0.06
				c0.41,0.1,0.65,0.28,0.82,0.44c0.19,0.15,0.32,0.26,0.58,0.24c0.3-0.02,0.44-0.19,0.63-0.44c0.19-0.23,0.43-0.52,0.9-0.76
				c0.42-0.21,0.75-0.23,1.02-0.24c0.27-0.02,0.45-0.03,0.61-0.23c0.17-0.21,0.14-0.44,0.1-0.73c-0.04-0.31-0.09-0.65,0.12-1.07
				c0.15-0.31,0.33-0.44,0.51-0.56c0.17-0.12,0.33-0.24,0.46-0.54c0.13-0.3,0.1-0.48,0.07-0.7c-0.03-0.21-0.07-0.45,0.06-0.81
				c0.12-0.36,0.31-0.56,0.48-0.74c0.19-0.2,0.35-0.37,0.4-0.74c0.03-0.22,0-0.31-0.03-0.42c-0.04-0.12-0.08-0.23-0.03-0.49
				c0.05-0.25,0.14-0.43,0.24-0.62c0.13-0.26,0.26-0.53,0.31-0.99c0-0.03,0.01-0.06,0.01-0.08c0.03-0.47-0.06-0.76-0.16-1.03
				c-0.06-0.19-0.12-0.37-0.14-0.59c-0.01-0.29,0.06-0.44,0.14-0.58c0.08-0.14,0.16-0.3,0.19-0.62c0.03-0.38-0.05-0.62-0.14-0.9
				c-0.04-0.13-0.09-0.26-0.12-0.41c-0.13-0.56-0.05-0.88,0.09-1.37c0.1-0.37,0.23-0.83,0.3-1.58c0.1-0.92,0.06-1.65,0.03-2.19
				c-0.03-0.63-0.08-0.95-0.14-1.26c-0.05-0.29-0.1-0.55-0.12-1.04c-0.05-0.82,0.01-1.21,0.07-1.6c0.05-0.37,0.11-0.71,0.05-1.42
				c-0.1-1.17-0.4-2.25-0.55-2.77c-0.08-0.27-0.12-0.42-0.17-0.56c-0.05-0.16-0.11-0.33-0.22-0.71c-0.23-0.81-0.39-1.65-0.49-2.48
				c-0.15-1.23-0.02-1.44,0.12-1.55C22.45,10.29,22.52,10.27,22.65,10.27z"/>
		</g>
	</g>
	<g>
		<path class="st119" d="M24.1,43.92c-0.33,0-0.6-0.06-0.74-0.1c-0.29-0.06-0.42-0.13-0.52-0.19c-0.1-0.05-0.18-0.09-0.37-0.12
			c-0.36-0.05-0.58,0.03-0.8,0.11c-0.22,0.08-0.43,0.15-0.74,0.08c-0.25-0.06-0.37-0.18-0.48-0.29c-0.12-0.12-0.23-0.22-0.5-0.27
			c-0.14-0.03-0.24-0.02-0.38-0.02c-0.13,0.01-0.3,0.01-0.55-0.02c-0.23-0.02-0.45-0.07-0.68-0.13l0.04-0.13
			c0.21,0.06,0.44,0.11,0.66,0.13c0.25,0.03,0.4,0.02,0.53,0.02c0.13-0.01,0.24-0.01,0.4,0.02c0.31,0.06,0.45,0.19,0.57,0.31
			c0.11,0.1,0.2,0.2,0.42,0.25c0.26,0.07,0.45,0,0.65-0.08c0.22-0.08,0.47-0.17,0.86-0.12c0.21,0.03,0.31,0.08,0.42,0.14
			c0.1,0.05,0.22,0.12,0.49,0.18c0.23,0.05,0.74,0.16,1.32,0.01c0.25-0.07,0.37-0.15,0.49-0.22c0.13-0.08,0.24-0.15,0.49-0.18
			c0.26-0.03,0.44,0.03,0.61,0.08c0.16,0.06,0.3,0.1,0.52,0.1c0.32-0.01,0.65-0.13,0.98-0.37l0.08,0.11
			c-0.35,0.26-0.7,0.39-1.05,0.4c-0.24,0.01-0.41-0.05-0.56-0.1c-0.16-0.05-0.31-0.11-0.55-0.08c-0.21,0.02-0.3,0.08-0.42,0.16
			c-0.12,0.08-0.26,0.17-0.53,0.24C24.51,43.89,24.29,43.92,24.1,43.92z"/>
	</g>
</g>
</svg>
