<?xml version="1.0" encoding="utf-8"?>
<!-- Generator: Adobe Illustrator 27.3.1, SVG Export Plug-In . SVG Version: 6.00 Build 0)  -->
<svg version="1.1" id="Layer_1" xmlns="http://www.w3.org/2000/svg" xmlns:xlink="http://www.w3.org/1999/xlink" x="0px" y="0px"
	 viewBox="0 0 50 50" style="enable-background:new 0 0 50 50;" xml:space="preserve">
<style type="text/css">
	.st0{fill:none;}
	.st1{stroke:#000000;stroke-miterlimit:10;}
	.st2{stroke:#000000;stroke-width:0.75;stroke-miterlimit:10;}
	.st3{clip-path:url(#SVGID_00000011032759783283226330000014228600669909474963_);}
	.st4{clip-path:url(#SVGID_00000166668879429088185180000003732811829539551115_);}
	.st5{fill:#FFFFFF;}
	.st6{clip-path:url(#SVGID_00000117671915995357235370000002976958458626118806_);}
	.st7{fill:#231F20;}
	.st8{clip-path:url(#SVGID_00000025414298634106064930000018348541264588887200_);}
	.st9{clip-path:url(#SVGID_00000039092280679462664830000013611879636578746295_);}
	.st10{clip-path:url(#SVGID_00000044143820236712530350000018187387547119417486_);}
	.st11{clip-path:url(#SVGID_00000076583964591912600610000015954521831561244832_);}
	.st12{clip-path:url(#SVGID_00000108302260950970172330000015293512982711872695_);}
	.st13{clip-path:url(#SVGID_00000176001324815006231320000009361400470048066475_);}
	.st14{clip-path:url(#SVGID_00000134251359469139895980000011224106082813268880_);}
	.st15{clip-path:url(#SVGID_00000008846840370088439960000014934257316554001027_);}
	.st16{clip-path:url(#SVGID_00000093141843337601711300000008929831447784240286_);}
	.st17{clip-path:url(#SVGID_00000114756916055374538730000016361169444166481049_);}
	.st18{clip-path:url(#SVGID_00000077293042644130401450000007498402553287651765_);}
	.st19{clip-path:url(#SVGID_00000162353691921240970900000013781249901228481212_);}
	.st20{clip-path:url(#SVGID_00000106129898729591855380000012283940960734390919_);}
	.st21{clip-path:url(#SVGID_00000173846602341845553070000013160502403738786689_);}
	.st22{clip-path:url(#SVGID_00000041279690385835935780000017708826238820364931_);}
	.st23{clip-path:url(#SVGID_00000051346084044756647580000003033605011436696244_);}
	.st24{clip-path:url(#SVGID_00000053529859853656846390000016533429931414496682_);}
	.st25{clip-path:url(#SVGID_00000012467498015367779570000004210033299099417535_);}
	.st26{clip-path:url(#SVGID_00000080168208700204793240000006293704406571312317_);}
	.st27{clip-path:url(#SVGID_00000154426605057770679620000004824457245292444596_);}
	.st28{clip-path:url(#SVGID_00000001648534522854606600000007024771973709464242_);}
	.st29{clip-path:url(#SVGID_00000145030262016023423420000014858583934996488607_);}
	.st30{clip-path:url(#SVGID_00000126318535905191480900000017636012770819095485_);}
	.st31{fill-rule:evenodd;clip-rule:evenodd;}
	.st32{clip-path:url(#SVGID_00000065037007630564547730000010733105477811233958_);}
	.st33{clip-path:url(#SVGID_00000124143562818124935100000005864878597705129147_);}
	.st34{stroke:#000000;stroke-width:0.5;stroke-miterlimit:10;}
	.st35{clip-path:url(#SVGID_00000088826028973272432720000004363130594072416898_);}
	.st36{clip-path:url(#SVGID_00000165954142738303571800000016991830684444860572_);}
	.st37{clip-path:url(#SVGID_00000142152059588260090560000016201331230462067366_);}
	.st38{fill:#1A1A1A;}
	.st39{clip-path:url(#SVGID_00000137814278919641917760000011725257636668722847_);}
	.st40{clip-path:url(#SVGID_00000178179660570352461390000016546850160872534425_);}
	.st41{clip-path:url(#SVGID_00000134965261814196934880000006254155273445575562_);}
	.st42{clip-path:url(#SVGID_00000093894886855606447830000016854021192619910281_);}
	.st43{clip-path:url(#SVGID_00000034071611202133308540000018215550013819597758_);}
	.st44{clip-path:url(#SVGID_00000177458038953203978920000005531710203441424044_);}
	.st45{clip-path:url(#SVGID_00000106845392958645246870000002615479826425489572_);}
	.st46{clip-path:url(#SVGID_00000132061799146086128460000010716977704488383109_);}
	.st47{clip-path:url(#SVGID_00000181771090767842386110000013389835972781679024_);}
	.st48{fill:#F1F1F1;}
	.st49{fill:#E8E8E8;}
	.st50{fill:#FEFEFE;}
	.st51{fill:#CCCCCC;}
	.st52{fill:#B3B3B3;}
	.st53{fill:#E6E6E6;}
	.st54{fill:#EBEBEB;}
	.st55{fill:#EEEEEE;}
	.st56{fill:#F8F8F8;}
	.st57{fill:#FBFBFB;}
	.st58{fill:#383838;}
	.st59{fill:#232323;}
	.st60{fill:#F6F6F6;}
	.st61{fill:#535353;}
	.st62{fill:#0A0A0A;}
	.st63{fill:#F5F5F5;}
	.st64{fill:#818181;}
	.st65{fill:#4A4A4A;}
	.st66{fill:#999999;}
	.st67{fill:url(#SVGID_00000142887691972484028910000009922794684943787943_);}
	.st68{fill:url(#SVGID_00000115500701553434125360000000660326135700457120_);}
	.st69{fill:#0E0E0D;}
	.st70{fill:#333333;}
	.st71{fill:#808080;}
	.st72{fill:url(#SVGID_00000049212804008230376170000008435087985221036943_);}
	.st73{fill:#666666;}
	.st74{fill:url(#SVGID_00000134212209380414840930000011908458515870532023_);}
	.st75{fill:url(#SVGID_00000042006936765362326270000014628315788002100919_);}
	.st76{fill:url(#SVGID_00000157295465673766987650000001989798378551413425_);}
	.st77{fill:url(#SVGID_00000105419762764898629260000013348551546751610770_);}
	.st78{fill:url(#SVGID_00000099658735042627239740000016808661248355820434_);}
	.st79{clip-path:url(#SVGID_00000160884331268656368060000012286940997608134317_);}
	.st80{clip-path:url(#SVGID_00000135676437589468580670000017552337613696766377_);}
	.st81{clip-path:url(#SVGID_00000077316387890854503600000014504331841693663149_);}
	.st82{clip-path:url(#SVGID_00000001627245179948689850000014559895247137471156_);}
	.st83{clip-path:url(#SVGID_00000142177334687584290810000004652371172509013661_);}
	.st84{fill:#241F20;stroke:#000000;stroke-width:0.5;stroke-miterlimit:10;}
	.st85{clip-path:url(#SVGID_00000111188761003194101180000000988748785903429000_);}
	.st86{clip-path:url(#SVGID_00000083785360621669543770000014878765920206362528_);}
	.st87{clip-path:url(#SVGID_00000175313129980152202590000012482090943876654767_);}
	.st88{clip-path:url(#SVGID_00000180359481926370487310000006086662924552619423_);}
	.st89{clip-path:url(#SVGID_00000007389251062490703240000017896567826008553372_);}
	.st90{clip-path:url(#SVGID_00000078022708088974467440000013480498279830087861_);}
	.st91{clip-path:url(#SVGID_00000021803476408922529340000018308939826454044326_);}
	.st92{clip-path:url(#SVGID_00000015350495371756148510000002234936631889919656_);}
	.st93{clip-path:url(#SVGID_00000017487403455482684050000004743775335900743072_);}
	.st94{clip-path:url(#SVGID_00000036233613252365478180000007618213633839173810_);}
	.st95{clip-path:url(#SVGID_00000078010712203021719740000016249852032830969224_);}
	.st96{clip-path:url(#SVGID_00000165934902015818769670000004209248892721552799_);}
	.st97{clip-path:url(#SVGID_00000152955253276307600400000015820971600527221950_);}
	.st98{clip-path:url(#SVGID_00000073702563290776441650000003061786558658783901_);}
	.st99{clip-path:url(#SVGID_00000147918522290333153910000015355285074408093871_);}
	.st100{clip-path:url(#SVGID_00000044153421324760230770000003686753636314779060_);}
	.st101{clip-path:url(#SVGID_00000170241286463026781840000015610323156444562866_);}
	.st102{clip-path:url(#SVGID_00000167388390878098771040000015528716608054782626_);}
	.st103{clip-path:url(#SVGID_00000158010642276031840590000002564552969994921376_);}
	.st104{clip-path:url(#SVGID_00000000186102189024333340000014234212352088075399_);}
	.st105{clip-path:url(#SVGID_00000107580085958120379990000015952872853641398947_);}
	.st106{clip-path:url(#SVGID_00000029764006620643442410000016838981595105165220_);}
	.st107{clip-path:url(#SVGID_00000074401968945826262600000000549754754122306482_);}
	.st108{clip-path:url(#SVGID_00000087393382072036382800000013939235716479801015_);}
	.st109{clip-path:url(#SVGID_00000021833078524513262080000003679375642284430757_);}
	.st110{clip-path:url(#SVGID_00000051357589800960347810000000088344034241060495_);}
	.st111{clip-path:url(#SVGID_00000048467281754032032290000010382798398342007729_);}
	.st112{clip-path:url(#SVGID_00000014611164135632017020000008788891222993324681_);}
	.st113{clip-path:url(#SVGID_00000154389882333481883670000006958677683881597584_);}
	.st114{clip-path:url(#SVGID_00000170993455640807681190000017565400107237635218_);}
	.st115{fill:#FFFFFF;stroke:#000000;stroke-miterlimit:10;}
	.st116{clip-path:url(#SVGID_00000085231413218446655570000000052679914754500798_);}
	.st117{clip-path:url(#SVGID_00000000942090146030525940000013561128764664435356_);}
	.st118{fill:none;stroke:#010101;stroke-miterlimit:10;}
	.st119{fill:#010101;stroke:#000000;stroke-miterlimit:10;}
	.st120{clip-path:url(#SVGID_00000152958336727981592120000017535305722670351513_);}
	.st121{fill:#010101;stroke:#010101;stroke-miterlimit:10;}
	.st122{clip-path:url(#SVGID_00000027583907668241652380000003340489759744528534_);}
	.st123{clip-path:url(#SVGID_00000181780815885248147900000008385056576140701316_);}
	.st124{clip-path:url(#SVGID_00000038408642191535934830000012707463909752938905_);}
	.st125{clip-path:url(#SVGID_00000110434923130249642410000017492597750432278939_);}
	.st126{clip-path:url(#SVGID_00000016761902953880095670000011426398254502193055_);}
	.st127{fill:none;stroke:#000000;stroke-width:3;stroke-miterlimit:10;}
	.st128{clip-path:url(#SVGID_00000049936385324360721330000013749986352987348393_);}
	.st129{clip-path:url(#SVGID_00000173120600971159366630000005234494334725944749_);}
	.st130{clip-path:url(#SVGID_00000136393092505159491690000018347533355946337688_);}
	.st131{clip-path:url(#SVGID_00000178168706176528860350000016688035787841898380_);}
	.st132{fill:#040606;}
	.st133{clip-path:url(#SVGID_00000044885837691645498880000003095694366888033442_);}
	.st134{clip-path:url(#SVGID_00000071537766242999779960000005964718613643773600_);}
	.st135{clip-path:url(#SVGID_00000088113560556218805290000000834448845464793761_);}
	.st136{clip-path:url(#SVGID_00000065784594437367110350000007212633699162074550_);}
	.st137{clip-path:url(#SVGID_00000174576785907293973970000018193820505116374408_);}
	.st138{clip-path:url(#SVGID_00000178162548942511348700000006948296763758011577_);}
	.st139{clip-path:url(#SVGID_00000111158282515537511110000009753777175817829555_);}
	.st140{fill:#FFFFFF;stroke:#000000;stroke-width:1.5;stroke-miterlimit:10;}
	.st141{clip-path:url(#SVGID_00000183932563165472276780000001349672518990519715_);}
	.st142{fill:#BDBCBC;}
	.st143{clip-path:url(#SVGID_00000155838023129568675610000011709150665742973321_);}
	.st144{fill:#2E2A2B;}
	.st145{clip-path:url(#SVGID_00000061429638148501948340000009970604429150366597_);}
	.st146{clip-path:url(#SVGID_00000077284355605864009340000016052445082029847478_);}
	.st147{clip-path:url(#SVGID_00000005956262102854319900000015504834491324042115_);}
	.st148{clip-path:url(#SVGID_00000152254990406728070910000005988563317859884436_);}
	.st149{clip-path:url(#SVGID_00000000936655713574926430000001631200552261199790_);}
	.st150{fill:#272324;}
	.st151{clip-path:url(#SVGID_00000142161382385191903430000010598043996294606227_);}
	.st152{clip-path:url(#SVGID_00000144313212877422809980000001147846867210730369_);}
	.st153{clip-path:url(#SVGID_00000132079915596609655190000017725772784926580644_);}
	.st154{clip-path:url(#SVGID_00000166661894159595607670000004991539715199556014_);}
	.st155{clip-path:url(#SVGID_00000073696508462980630320000011446983635751067030_);}
	.st156{clip-path:url(#SVGID_00000103265826271695242140000011981434822468657032_);}
	.st157{fill:none;stroke:#000000;stroke-width:0.8735;stroke-linecap:round;stroke-linejoin:round;stroke-miterlimit:10;}
	.st158{clip-path:url(#SVGID_00000093152440538696337740000005025004414551689137_);}
	.st159{clip-path:url(#SVGID_00000016063954213369263100000014441425290291123890_);}
	.st160{clip-path:url(#SVGID_00000005954686341911575530000007224035492195992997_);}
	.st161{clip-path:url(#SVGID_00000101074312678872465720000004309221979204873635_);}
	.st162{clip-path:url(#SVGID_00000183212796719785914370000009166838046889148320_);}
	.st163{clip-path:url(#SVGID_00000154412311283264583010000007572637762303938184_);}
	.st164{clip-path:url(#SVGID_00000107564667624663213450000007822075203514900884_);}
	.st165{clip-path:url(#SVGID_00000182493751406604979230000016979651049256806291_);}
	.st166{clip-path:url(#SVGID_00000046336199144192625690000008358855617915573154_);}
	.st167{clip-path:url(#SVGID_00000159459032186316105780000008480882535140660641_);}
	.st168{clip-path:url(#SVGID_00000078723181857087886780000011913800290437017005_);}
	.st169{clip-path:url(#SVGID_00000052098805573412545510000007135858459052624051_);}
	.st170{clip-path:url(#SVGID_00000181806480242583750830000008884490322400809630_);}
	.st171{clip-path:url(#SVGID_00000034810943079963286160000017954202626027729321_);}
	.st172{clip-path:url(#SVGID_00000106865568744589649150000007801918032783220660_);}
	.st173{clip-path:url(#SVGID_00000153699142489571179590000013675024611795033533_);}
	.st174{clip-path:url(#SVGID_00000001633771708611072480000014777750573722548130_);}
	.st175{clip-path:url(#SVGID_00000073721549749848075450000014072436387974819505_);}
	.st176{clip-path:url(#SVGID_00000172431220626539377060000011376673487499301023_);}
	.st177{clip-path:url(#SVGID_00000093160827372611765320000014444538722845222545_);}
	.st178{clip-path:url(#SVGID_00000088127399968009814290000011415042799886018177_);}
	.st179{clip-path:url(#SVGID_00000082368673432184394800000007645881886441622410_);}
	.st180{clip-path:url(#SVGID_00000083074603677733409470000001857388204920901302_);}
	.st181{clip-path:url(#SVGID_00000007430844962502986720000012544021475468549298_);}
	.st182{clip-path:url(#SVGID_00000147213212508271586560000017199844232430354599_);}
	.st183{clip-path:url(#SVGID_00000161597480537426971550000006778310480506389157_);}
	.st184{clip-path:url(#SVGID_00000158025032637959912600000006293015657233579401_);}
	.st185{clip-path:url(#SVGID_00000016766942797068421790000005813988655765997734_);}
	.st186{clip-path:url(#SVGID_00000154397065335773830390000001392231202166626699_);}
	.st187{clip-path:url(#SVGID_00000145747120731606794460000016304291071341902012_);}
	.st188{clip-path:url(#SVGID_00000122718320921055870470000002229341986060065449_);}
	.st189{clip-path:url(#SVGID_00000029765879873026946450000002504302461868302986_);}
	.st190{clip-path:url(#SVGID_00000071540223302116198550000005170718173390757798_);}
	.st191{clip-path:url(#SVGID_00000119075555943125690540000013800373345222449851_);}
	.st192{clip-path:url(#SVGID_00000062891578723473339360000010025178457517629827_);}
	.st193{clip-path:url(#SVGID_00000136373728979432554890000006803316042284941991_);}
	.st194{clip-path:url(#SVGID_00000163775906439080834790000007820104745262208439_);}
	.st195{clip-path:url(#SVGID_00000156574821197139333190000012349822378668022155_);}
	.st196{fill:#E5E5E5;}
	.st197{fill:#1D1D1B;}
	.st198{fill:none;stroke:#000000;stroke-miterlimit:10;}
	.st199{fill:#FEFEFE;stroke:#000000;stroke-miterlimit:10;}
	.st200{clip-path:url(#SVGID_00000082348697070405912700000008501787337943724707_);}
	.st201{clip-path:url(#SVGID_00000148656787374203365490000006389352394880081081_);}
	.st202{clip-path:url(#SVGID_00000124849208168053930500000002375403624715189916_);}
	.st203{fill:#231F1F;}
	.st204{fill:#020000;}
	.st205{clip-path:url(#SVGID_00000088820059668748801370000007457928782316804786_);}
	.st206{clip-path:url(#SVGID_00000038412178552667105570000000466143501875162293_);}
	.st207{clip-path:url(#SVGID_00000169529111955527551840000007583065030451784366_);}
	.st208{clip-path:url(#SVGID_00000026876064879984467980000002307647327040991677_);}
	.st209{fill:#050000;}
	.st210{clip-path:url(#SVGID_00000174575268037546125180000008134224740274477244_);}
	.st211{clip-path:url(#SVGID_00000144329636386017951940000015147373551859988655_);}
	.st212{clip-path:url(#SVGID_00000145769191454607862180000016767395647045174157_);}
	.st213{clip-path:url(#SVGID_00000032637811625661575350000005356641629531949747_);}
	.st214{clip-path:url(#SVGID_00000123441137021535103480000007592468250089696152_);}
	.st215{clip-path:url(#SVGID_00000147903143407935129050000006625527286564132543_);}
	.st216{fill:#12100F;}
	.st217{clip-path:url(#SVGID_00000023967237429634455460000013975882967471134135_);}
	.st218{clip-path:url(#SVGID_00000132065157079905826110000016727150812658673086_);}
	.st219{fill:none;stroke:#000000;stroke-width:0.5;stroke-miterlimit:10;}
	.st220{clip-path:url(#SVGID_00000151515318703225304520000002118529751292029603_);}
	.st221{clip-path:url(#SVGID_00000008128741258852112590000000584593594520987039_);}
	.st222{clip-path:url(#SVGID_00000054974007111788231170000001759382347908076433_);}
	.st223{clip-path:url(#SVGID_00000178884599859696496080000010420592705420919191_);}
	.st224{fill:none;stroke:#000000;stroke-width:0.25;stroke-miterlimit:10;}
	.st225{clip-path:url(#SVGID_00000084489690802657418810000008327906071221621642_);}
	.st226{clip-path:url(#SVGID_00000150789138410558645820000015873347936552257675_);}
	.st227{clip-path:url(#SVGID_00000097473454321305366550000006575206412652951225_);}
</style>
<path d="M40.95,39.64c-0.07-0.68-0.45-1.94-0.47-2.02c-0.35-1.28-0.54-2.6-0.54-3.93c0-1.26,0.17-1.98,0.34-2.74
	c0.18-0.77,0.36-1.56,0.36-2.92c-0.02-3.9-1.55-6.82-2.13-7.91c-0.76-1.44-1.71-2.76-2.84-3.95c0.01-0.03,0.02-0.05,0.03-0.08
	c0-0.01,0-0.02,0.01-0.03c0.13-0.67-0.1-1.37-0.61-1.88c0.35-0.67,0.31-1.42-0.11-1.9c-0.25-0.29-0.58-0.39-0.8-0.43
	C32.74,10.76,29.77,9,25.69,9h-0.01c-4.08,0-7.05,1.76-8.49,2.85c-0.21,0.04-0.55,0.15-0.8,0.43c-0.42,0.47-0.46,1.23-0.11,1.9
	c-0.51,0.51-0.75,1.21-0.61,1.88c0,0.01,0,0.02,0.01,0.03c0.01,0.03,0.02,0.06,0.03,0.08c-1.12,1.18-2.08,2.5-2.83,3.94
	c-0.58,1.1-2.11,4.01-2.13,7.91c-0.01,1.36,0.18,2.15,0.35,2.92c0.18,0.76,0.34,1.48,0.34,2.74c0,1.88-0.27,4.05-1.23,5.7
	c-0.25,0.43-0.56,0.83-0.81,1.26c-0.6,1.06-0.82,2.28-1.03,3.48c-0.03,0.15-0.03,0.35,0.11,0.42c0.18,0.09,0.35-0.13,0.42-0.32
	c0.48-1.32,0.39-2.93,1.38-3.92c0.98-0.98,2.67-0.98,3.58-2.02c0.71-0.81,0.72-2.02,0.51-3.07s-0.6-2.09-0.56-3.17
	c0.05-1.44,0.85-2.75,1.83-3.8c1.01-1.08,3.19-2.14,3.35-3.71c0-0.04,0.01-0.08,0.01-0.12c0.06-0.44,0.18-1.45-0.63-2.69
	c-0.01-0.01-0.02-0.02-0.03-0.04c-0.1-0.11-0.17-0.23-0.21-0.35c-0.03-0.05-0.06-0.11-0.09-0.18c0.01,0-0.08-0.24-0.09-0.29
	c-0.02-0.07-0.07-0.28-0.08-0.27c-0.06-0.33-0.04-0.64,0.07-0.93c0.25-0.7,0.97-1.13,1.53-1.23c0.69-0.12,2.67,1.49,2.75,1.56
	c0.99,1,2.02,2.04,3.46,1.94c0.72-0.05,1.14-0.36,1.55-0.66c0.41-0.3,0.84-0.61,1.64-0.72c0.64-0.09,1.32-0.03,2.01,0.2
	c0.85,0.28,1,0.99,1.15,1.75c0.15,0.73,0.79,1.63,0.72,2.37c-0.05,0.64-0.69,1.12-0.73,1.75c-0.08,1.32,1.77,2.03,2.65,2.63
	c1.49,1.01,1.97,2.49,2.58,4.13c0,0,0.02,0.06,0.02,0.06c0.55,1.51,0.81,3.1,0.78,4.73c0,0,0.16,0.69,0.16,0.69l2.03,0.87
	c0.17,0.07,0.34,0.17,0.51,0.29C40.94,40.15,40.98,39.96,40.95,39.64z M25.68,9.57L25.68,9.57c3.37,0,5.95,1.25,7.48,2.26H18.21
	C19.75,10.82,22.32,9.57,25.68,9.57z M17.74,13.95h15.52c0.16,0,0.29,0.13,0.29,0.29c0,0.16-0.13,0.29-0.29,0.29H17.74
	c-0.16,0-0.29-0.13-0.29-0.29C17.46,14.08,17.58,13.95,17.74,13.95z M38.64,38.42c0.05-1.78-0.22-3.51-0.81-5.16l-0.02-0.06
	c-0.68-1.91-1.28-3.55-2.87-4.67c-0.15-0.1-0.3-0.2-0.45-0.29c-0.01,0-0.01-0.01-0.02-0.01c-0.26-0.15-0.52-0.28-0.75-0.39
	c-0.5-0.25-0.9-0.44-1.04-0.74c0,0-0.01-0.01-0.01-0.01c0,0,0-0.01,0-0.01c-0.02-0.05-0.04-0.1-0.05-0.15
	c-0.06-0.31,0.09-0.56,0.28-0.89c0.23-0.39,0.53-0.88,0.41-1.58c-0.06-0.41-0.23-0.67-0.38-0.91c-0.15-0.25-0.29-0.46-0.32-0.84
	c0-0.05-0.01-0.1,0-0.16c0.02-1.09-0.6-2.02-1.55-2.32c-0.77-0.25-1.53-0.32-2.27-0.22c-0.94,0.13-1.45,0.5-1.9,0.83
	c-0.39,0.29-0.7,0.51-1.25,0.55c-1.2,0.08-2.12-0.86-3.02-1.77c-0.11-0.11-0.23-0.23-0.34-0.34c-0.83-0.82-1.73-1.6-2.92-1.38
	c-0.74,0.13-1.63,0.68-1.96,1.6c-0.19,0.52-0.18,1.09,0.02,1.66c0.14,0.4,0.33,0.68,0.37,0.73c0.83,1.15,0.72,2.05,0.66,2.49
	c-0.01,0.06-0.01,0.11-0.02,0.15c-0.01,0.12-0.03,0.22-0.06,0.32c-0.15,0.51-0.6,0.84-1.21,1.29c-0.34,0.25-0.72,0.53-1.12,0.9
	c-0.53,0.48-0.99,1-1.4,1.6c-0.66,0.96-1.37,2.11-1.45,3.68c-0.04,0.85,0.15,1.33,0.34,1.84c0.15,0.38,0.3,0.78,0.36,1.38l0.01,0.11
	c0.03,0.27,0.06,0.57,0.04,0.94c-0.02,0.51-0.12,0.99-0.29,1.48c-0.88,0.38-1.77,0.76-2.65,1.14c0.67-1.8,1.01-3.64,1.01-5.47
	c0-1.33-0.18-2.11-0.36-2.87c-0.18-0.77-0.35-1.5-0.34-2.79c0.02-3.76,1.5-6.59,2.06-7.65c0.7-1.33,1.57-2.56,2.6-3.66
	c0.16,0.2,0.36,0.36,0.6,0.47c-0.26,0.5-0.46,1.03-0.59,1.58c-0.21,0.92-0.16,1.66-0.11,2.3c0.05,0.71,0.09,1.26-0.21,1.88
	c-0.24,0.51-0.67,0.94-1.28,1.29c-0.14,0.08-0.18,0.25-0.1,0.39c0.05,0.09,0.15,0.14,0.25,0.14c0.05,0,0.1-0.01,0.14-0.04
	c0.71-0.41,1.21-0.93,1.51-1.54c0.37-0.75,0.32-1.44,0.27-2.17c-0.04-0.64-0.09-1.3,0.1-2.14c0.12-0.55,0.33-1.07,0.6-1.56
	c0.05,0,0.1,0.01,0.15,0.01h7.14c0.16,0.38,0.38,0.73,0.64,1.03c0.27,0.31,0.58,0.58,0.92,0.79c0.05,0.03,0.1,0.04,0.15,0.04
	c0.1,0,0.19-0.05,0.24-0.14c0.08-0.13,0.04-0.31-0.09-0.39c-0.29-0.18-0.56-0.41-0.79-0.68c-0.17-0.2-0.32-0.42-0.44-0.66h6.53
	c0.98,0.25,1.75,0.69,2.26,1.31c0.58,0.7,0.74,1.44,0.92,2.31c0.19,0.89,0.4,1.91,1.16,2.98c0.4,0.56,0.89,1.05,1.46,1.48
	c0.05,0.04,0.11,0.06,0.17,0.06c0.09,0,0.17-0.04,0.23-0.12c0.09-0.13,0.07-0.3-0.06-0.4c-0.52-0.39-0.97-0.84-1.33-1.35
	c-0.69-0.97-0.88-1.89-1.07-2.77c-0.19-0.9-0.37-1.75-1.04-2.56c-0.31-0.37-0.7-0.69-1.15-0.95h0.95c0.52,0,1.01-0.25,1.32-0.64
	c1.03,1.11,1.9,2.34,2.6,3.67c0.56,1.06,2.04,3.89,2.06,7.65c0.01,1.29-0.16,2.02-0.34,2.79c-0.18,0.76-0.36,1.54-0.36,2.87
	c0,1.83,0.34,3.67,1.01,5.47L38.64,38.42z"/>
</svg>
