<?xml version="1.0" encoding="utf-8"?>
<!-- Generator: Adobe Illustrator 27.3.1, SVG Export Plug-In . SVG Version: 6.00 Build 0)  -->
<svg version="1.1" id="Layer_1" xmlns="http://www.w3.org/2000/svg" xmlns:xlink="http://www.w3.org/1999/xlink" x="0px" y="0px"
	 viewBox="0 0 50 50" style="enable-background:new 0 0 50 50;" xml:space="preserve">
<style type="text/css">
	.st0{fill:none;}
	.st1{stroke:#000000;stroke-miterlimit:10;}
	.st2{stroke:#000000;stroke-width:0.75;stroke-miterlimit:10;}
	.st3{clip-path:url(#SVGID_00000153664182272440105710000001574089644267620247_);}
	.st4{clip-path:url(#SVGID_00000113321812597426986310000011469807291023495050_);}
	.st5{fill:#FFFFFF;}
	.st6{clip-path:url(#SVGID_00000124162150975343606220000010769242523660043908_);}
	.st7{fill:#231F20;}
	.st8{clip-path:url(#SVGID_00000104695124812539113830000002224936473814210231_);}
	.st9{clip-path:url(#SVGID_00000034792273081979664420000002076677044782808746_);}
	.st10{clip-path:url(#SVGID_00000101080265194072280900000001345454366671323565_);}
	.st11{clip-path:url(#SVGID_00000178906856537043837440000011209973860438703237_);}
	.st12{clip-path:url(#SVGID_00000044138875035446663430000002255136019599320502_);}
	.st13{clip-path:url(#SVGID_00000010271368518496093520000002512646301712361143_);}
	.st14{clip-path:url(#SVGID_00000070109018682100421730000013890370459151548313_);}
	.st15{clip-path:url(#SVGID_00000100359652452999891010000006394704210990424985_);}
	.st16{clip-path:url(#SVGID_00000026874692349751444610000017302248220728139960_);}
	.st17{clip-path:url(#SVGID_00000098193780505418440840000014296182230824365478_);}
	.st18{clip-path:url(#SVGID_00000078733304970013193600000013872466792067331732_);}
	.st19{clip-path:url(#SVGID_00000021819810803184874230000002056298641877206401_);}
	.st20{clip-path:url(#SVGID_00000182509189212253788460000005533659988412737929_);}
	.st21{clip-path:url(#SVGID_00000029011146306550244080000013415539700665878956_);}
	.st22{clip-path:url(#SVGID_00000093861509071629220430000003927479007715872689_);}
	.st23{clip-path:url(#SVGID_00000027598999525630672120000007706467481885758354_);}
	.st24{clip-path:url(#SVGID_00000089538357852818264710000007995695671566658438_);}
	.st25{clip-path:url(#SVGID_00000018201262673545671710000001583053387265061267_);}
	.st26{clip-path:url(#SVGID_00000137818903901575113050000017190438514032886169_);}
	.st27{clip-path:url(#SVGID_00000163751498471317618900000012690567710825847475_);}
	.st28{clip-path:url(#SVGID_00000013877301812298720830000015350936347618415798_);}
	.st29{clip-path:url(#SVGID_00000181781497537059908570000014885221516218249389_);}
	.st30{clip-path:url(#SVGID_00000162329558039778482010000009019785124750164396_);}
	.st31{fill-rule:evenodd;clip-rule:evenodd;}
	.st32{clip-path:url(#SVGID_00000034783762616753461570000001213765167527931578_);}
	.st33{clip-path:url(#SVGID_00000107565326664273533240000005606391566952862888_);}
	.st34{stroke:#000000;stroke-width:0.5;stroke-miterlimit:10;}
	.st35{clip-path:url(#SVGID_00000183248183984153365370000013626072092912280462_);}
	.st36{clip-path:url(#SVGID_00000098937917952641724020000017892321246129578624_);}
	.st37{clip-path:url(#SVGID_00000034086034763789303720000014130666002458932923_);}
	.st38{fill:#1A1A1A;}
	.st39{clip-path:url(#SVGID_00000093890668206988535880000016360530170801113480_);}
	.st40{clip-path:url(#SVGID_00000101061306158463000880000015392683342899700900_);}
	.st41{clip-path:url(#SVGID_00000153679300762988394800000002434420942191889309_);}
	.st42{clip-path:url(#SVGID_00000114756735540507568010000003973287405829984692_);}
	.st43{clip-path:url(#SVGID_00000095306187887675834580000012704593033609480849_);}
	.st44{clip-path:url(#SVGID_00000025432698708692110060000001169709041806554277_);}
	.st45{clip-path:url(#SVGID_00000052810924582690492230000007737859059483608236_);}
	.st46{clip-path:url(#SVGID_00000096046248681006776220000008558586398783869364_);}
	.st47{clip-path:url(#SVGID_00000121965778967998764420000001713199530619803276_);}
	.st48{fill:#F1F1F1;}
	.st49{fill:#E8E8E8;}
	.st50{fill:#FEFEFE;}
	.st51{fill:#CCCCCC;}
	.st52{fill:#B3B3B3;}
	.st53{fill:#E6E6E6;}
	.st54{fill:#EBEBEB;}
	.st55{fill:#EEEEEE;}
	.st56{fill:#F8F8F8;}
	.st57{fill:#FBFBFB;}
	.st58{fill:#383838;}
	.st59{fill:#232323;}
	.st60{fill:#F6F6F6;}
	.st61{fill:#535353;}
	.st62{fill:#0A0A0A;}
	.st63{fill:#F5F5F5;}
	.st64{fill:#818181;}
	.st65{fill:#4A4A4A;}
	.st66{fill:#999999;}
	.st67{fill:url(#SVGID_00000061467020384358732810000016676271168649490597_);}
	.st68{fill:url(#SVGID_00000133504059611019448180000014753905308451390387_);}
	.st69{fill:#0E0E0D;}
	.st70{fill:#333333;}
	.st71{fill:#808080;}
	.st72{fill:url(#SVGID_00000034803438527975713320000003687739231093933244_);}
	.st73{fill:#666666;}
	.st74{fill:url(#SVGID_00000025432159399410016870000004243523333833390238_);}
	.st75{fill:url(#SVGID_00000083057960535248066070000012240881877252022679_);}
	.st76{fill:url(#SVGID_00000031912492101027586860000013079123859707120040_);}
	.st77{fill:url(#SVGID_00000077290605207258346050000012068288320612921479_);}
	.st78{fill:url(#SVGID_00000162329215081301892390000011901278700255994778_);}
	.st79{clip-path:url(#SVGID_00000045616000031011938250000017395503163896486332_);}
	.st80{clip-path:url(#SVGID_00000012434857391211566390000002609286559423868043_);}
	.st81{clip-path:url(#SVGID_00000061442588416978483120000002952162582063085442_);}
	.st82{clip-path:url(#SVGID_00000183213121099908624740000006451338875108675766_);}
	.st83{clip-path:url(#SVGID_00000017513556353419602420000016001526128218063489_);}
	.st84{fill:#241F20;stroke:#000000;stroke-width:0.5;stroke-miterlimit:10;}
	.st85{clip-path:url(#SVGID_00000027598853133339057790000009442090162077770420_);}
	.st86{clip-path:url(#SVGID_00000181085849480947956000000006327812168888621704_);}
	.st87{clip-path:url(#SVGID_00000013157871930049243380000011929066586573297039_);}
	.st88{clip-path:url(#SVGID_00000057126824573140471050000006081564069549246606_);}
	.st89{clip-path:url(#SVGID_00000013150664229041218510000009523505086658067080_);}
	.st90{clip-path:url(#SVGID_00000000912288485281585720000003672429419128809136_);}
	.st91{clip-path:url(#SVGID_00000178893717197916131560000000866965779366112693_);}
	.st92{clip-path:url(#SVGID_00000165211231868386131850000003712826633273687209_);}
	.st93{clip-path:url(#SVGID_00000139976387778551526440000014810091010522969226_);}
	.st94{clip-path:url(#SVGID_00000033358860373443987630000011546078018712827298_);}
	.st95{clip-path:url(#SVGID_00000115483593171806094220000007232566325344714678_);}
	.st96{clip-path:url(#SVGID_00000149340167520528111280000014777115654854542748_);}
	.st97{clip-path:url(#SVGID_00000101095881111090515830000014617406455386061486_);}
	.st98{clip-path:url(#SVGID_00000051380557723097050030000017097454526801803426_);}
	.st99{clip-path:url(#SVGID_00000007388196285839813870000008581060506733939896_);}
	.st100{clip-path:url(#SVGID_00000034793253129336016380000011964605883107200937_);}
	.st101{clip-path:url(#SVGID_00000176033278029558375780000012296580407539717025_);}
	.st102{clip-path:url(#SVGID_00000097482187341946345400000005857660702612862377_);}
	.st103{clip-path:url(#SVGID_00000151542339750368938230000003181630774196540607_);}
	.st104{clip-path:url(#SVGID_00000154403161200874520460000004980664544825146757_);}
	.st105{clip-path:url(#SVGID_00000145764400199146490560000011964609029804487328_);}
	.st106{clip-path:url(#SVGID_00000000218067004117426770000010095601198145979559_);}
	.st107{clip-path:url(#SVGID_00000066473509749411157720000015798760694333503146_);}
	.st108{clip-path:url(#SVGID_00000137833375225724813840000018420296549619582095_);}
	.st109{clip-path:url(#SVGID_00000173129789802100310680000015993886621364437135_);}
	.st110{clip-path:url(#SVGID_00000098200097663534644760000000949404414766483119_);}
	.st111{clip-path:url(#SVGID_00000013902430938106353650000018181404008101646994_);}
	.st112{clip-path:url(#SVGID_00000065050622389929941390000003934092115809857949_);}
	.st113{clip-path:url(#SVGID_00000039113063714435335650000017113876009220182190_);}
	.st114{clip-path:url(#SVGID_00000095297639065276820650000014022801091835263882_);}
	.st115{fill:#FFFFFF;stroke:#000000;stroke-miterlimit:10;}
	.st116{clip-path:url(#SVGID_00000031202568817669972190000014370815224453203131_);}
	.st117{clip-path:url(#SVGID_00000165913520419894434190000011790797303033754242_);}
	.st118{fill:none;stroke:#010101;stroke-miterlimit:10;}
	.st119{fill:#010101;stroke:#000000;stroke-miterlimit:10;}
	.st120{clip-path:url(#SVGID_00000042713815562282193940000012770246780047369860_);}
	.st121{fill:#010101;stroke:#010101;stroke-miterlimit:10;}
	.st122{clip-path:url(#SVGID_00000155115590212994056210000009361732041489339316_);}
	.st123{clip-path:url(#SVGID_00000036237429940981024400000013964265660132491199_);}
	.st124{clip-path:url(#SVGID_00000148650202914911646740000009107390825062520251_);}
	.st125{clip-path:url(#SVGID_00000029006389704365642030000001175218980395892399_);}
	.st126{clip-path:url(#SVGID_00000057835142476315049760000014526432876334493858_);}
	.st127{fill:none;stroke:#000000;stroke-width:3;stroke-miterlimit:10;}
	.st128{clip-path:url(#SVGID_00000008830652941082636190000001666172991597978256_);}
	.st129{clip-path:url(#SVGID_00000119079433420677046450000009725654637049042598_);}
	.st130{clip-path:url(#SVGID_00000182507334711072852590000017045492821041123484_);}
	.st131{clip-path:url(#SVGID_00000078729496579336954890000014119094639098174138_);}
	.st132{fill:#040606;}
	.st133{clip-path:url(#SVGID_00000158010660232793085740000013738757356839881657_);}
	.st134{clip-path:url(#SVGID_00000008855679040735578690000005969857027796718519_);}
	.st135{clip-path:url(#SVGID_00000177464748420604100740000009077304415577411713_);}
	.st136{clip-path:url(#SVGID_00000085238702955429349220000006612761420680175541_);}
	.st137{clip-path:url(#SVGID_00000007415013672291663760000005621246367139600566_);}
	.st138{clip-path:url(#SVGID_00000067219961855168720620000003865914034677905073_);}
	.st139{clip-path:url(#SVGID_00000054967160926818325720000004089182510730089608_);}
	.st140{fill:#FFFFFF;stroke:#000000;stroke-width:1.5;stroke-miterlimit:10;}
	.st141{clip-path:url(#SVGID_00000068639814146120660920000003778793657711806090_);}
	.st142{fill:#BDBCBC;}
	.st143{clip-path:url(#SVGID_00000114059967394949485110000017132884040086185657_);}
	.st144{fill:#2E2A2B;}
	.st145{clip-path:url(#SVGID_00000093872508322072183110000001251129092139313039_);}
	.st146{clip-path:url(#SVGID_00000101076443418841315700000016530447463510459833_);}
	.st147{clip-path:url(#SVGID_00000050642213764403437580000000174946588336191362_);}
	.st148{clip-path:url(#SVGID_00000132778354424317625980000000341963107176323221_);}
	.st149{clip-path:url(#SVGID_00000129175013630403066090000015060870804426442658_);}
	.st150{fill:#272324;}
	.st151{clip-path:url(#SVGID_00000173866690092071342430000002881717932541304199_);}
	.st152{clip-path:url(#SVGID_00000000195335549942739530000016518602847389720211_);}
	.st153{clip-path:url(#SVGID_00000122712825850473541230000002118358065339618704_);}
	.st154{clip-path:url(#SVGID_00000057109041273910239020000015658649396853512070_);}
	.st155{clip-path:url(#SVGID_00000121276241007737826870000004038832383663953027_);}
	.st156{clip-path:url(#SVGID_00000072238701865603594550000014292116452283676338_);}
	.st157{fill:none;stroke:#000000;stroke-width:0.8735;stroke-linecap:round;stroke-linejoin:round;stroke-miterlimit:10;}
	.st158{clip-path:url(#SVGID_00000000220036408698140480000009862995075168124337_);}
	.st159{clip-path:url(#SVGID_00000075872498516968880540000017400394144938620339_);}
	.st160{clip-path:url(#SVGID_00000132773051515317181530000006564898070807043975_);}
	.st161{clip-path:url(#SVGID_00000163780346017357590100000012057117075662096823_);}
	.st162{clip-path:url(#SVGID_00000137826664598380622830000001429816794793906587_);}
	.st163{clip-path:url(#SVGID_00000002386353673737777150000001260803171287243442_);}
	.st164{clip-path:url(#SVGID_00000144329535318426476490000017330345571165323933_);}
	.st165{clip-path:url(#SVGID_00000070832286892382606630000006180572426276393888_);}
	.st166{clip-path:url(#SVGID_00000049193184708681668370000015384096382075721345_);}
	.st167{clip-path:url(#SVGID_00000023252079381763650690000001236763079194717876_);}
	.st168{clip-path:url(#SVGID_00000062903121107092379000000005695628978312928180_);}
	.st169{clip-path:url(#SVGID_00000003075181934241250980000013410557807368561816_);}
	.st170{clip-path:url(#SVGID_00000083065160475158695780000013996343209798955909_);}
	.st171{clip-path:url(#SVGID_00000098185880357105870870000011100817876217355419_);}
	.st172{clip-path:url(#SVGID_00000155858672868821798620000012927839175435925896_);}
	.st173{clip-path:url(#SVGID_00000157282437321261857840000007269015634800814979_);}
	.st174{clip-path:url(#SVGID_00000160907148209674582140000015699202827188196508_);}
	.st175{clip-path:url(#SVGID_00000111872664945758395500000015514083378882586302_);}
	.st176{clip-path:url(#SVGID_00000107583833588972431530000009083722290522793888_);}
	.st177{clip-path:url(#SVGID_00000068668631388627650160000009858964530337846408_);}
	.st178{clip-path:url(#SVGID_00000060019914831795588470000018025943412207874735_);}
	.st179{clip-path:url(#SVGID_00000014627258874585428000000014721480645604556477_);}
	.st180{clip-path:url(#SVGID_00000147942972870722490900000003754181677612800954_);}
	.st181{clip-path:url(#SVGID_00000125577395039349229370000009428109644785950138_);}
	.st182{clip-path:url(#SVGID_00000001643429781248257150000003474827187206537861_);}
	.st183{clip-path:url(#SVGID_00000137116846851687914140000002751719484333786243_);}
	.st184{clip-path:url(#SVGID_00000033368007836683735730000001032498531886239166_);}
	.st185{clip-path:url(#SVGID_00000021090921512908244700000009110567428775257267_);}
	.st186{clip-path:url(#SVGID_00000063602361446577614460000005943207479991852682_);}
	.st187{clip-path:url(#SVGID_00000171688422233822894080000011023896930176796350_);}
	.st188{clip-path:url(#SVGID_00000025413860358605933120000006298443045910415510_);}
	.st189{clip-path:url(#SVGID_00000170271311782976954920000003795179332186622132_);}
	.st190{clip-path:url(#SVGID_00000062150152506704637040000015464689112308252607_);}
	.st191{clip-path:url(#SVGID_00000006702729715058465440000010225605917135198624_);}
	.st192{clip-path:url(#SVGID_00000018951371842880067530000013271806073869671087_);}
	.st193{clip-path:url(#SVGID_00000065775726298427873730000000783710787798392494_);}
	.st194{clip-path:url(#SVGID_00000181088507664197460250000009725941812416809879_);}
	.st195{clip-path:url(#SVGID_00000166643436648000880710000000838308844455585688_);}
	.st196{fill:#E5E5E5;}
	.st197{fill:#1D1D1B;}
	.st198{fill:none;stroke:#000000;stroke-miterlimit:10;}
	.st199{fill:#FEFEFE;stroke:#000000;stroke-miterlimit:10;}
	.st200{clip-path:url(#SVGID_00000041997201024952488020000016912149851777780894_);}
	.st201{clip-path:url(#SVGID_00000113329940622741130500000018222375553562014632_);}
	.st202{clip-path:url(#SVGID_00000112590037042491660210000002777125308643117953_);}
	.st203{fill:#231F1F;}
	.st204{fill:#020000;}
	.st205{clip-path:url(#SVGID_00000127021741240956616440000009553434684633980828_);}
	.st206{clip-path:url(#SVGID_00000086665083264697904530000008688685894693508269_);}
	.st207{clip-path:url(#SVGID_00000090273424143797416850000004538158131029010312_);}
	.st208{clip-path:url(#SVGID_00000047770383069895356480000002484358000057436043_);}
	.st209{fill:#050000;}
	.st210{clip-path:url(#SVGID_00000140729296964130281830000010010340593263409792_);}
	.st211{clip-path:url(#SVGID_00000067949395476243165460000017810620073302496157_);}
	.st212{clip-path:url(#SVGID_00000161619112026339337910000009978147623955743924_);}
	.st213{clip-path:url(#SVGID_00000000907610201659204350000016330964540906811272_);}
	.st214{clip-path:url(#SVGID_00000039107173827560751090000010646811151799836819_);}
	.st215{clip-path:url(#SVGID_00000011004418367908285480000015321882765932104633_);}
	.st216{fill:#12100F;}
	.st217{clip-path:url(#SVGID_00000039091782708927846600000018319366362389106346_);}
	.st218{clip-path:url(#SVGID_00000049179891429739749370000011101315924953521335_);}
	.st219{fill:none;stroke:#000000;stroke-width:0.5;stroke-miterlimit:10;}
	.st220{clip-path:url(#SVGID_00000093859243982088210070000011292453253947660728_);}
	.st221{clip-path:url(#SVGID_00000119108926070152322860000011490280703837365672_);}
	.st222{clip-path:url(#SVGID_00000095327914856601287550000013369423692815910550_);}
	.st223{clip-path:url(#SVGID_00000142137110933110160550000004665459305118336669_);}
	.st224{fill:none;stroke:#000000;stroke-width:0.25;stroke-miterlimit:10;}
	.st225{clip-path:url(#SVGID_00000080918817504074939140000017345069682545777073_);}
	.st226{clip-path:url(#SVGID_00000031178192483241536610000009966504782067940777_);}
	.st227{clip-path:url(#SVGID_00000005260193543291399840000010698310138539856318_);}
</style>
<g>
	<g>
		<defs>
			<rect id="SVGID_00000051361326843153579650000004410965874637229993_" x="11.09" y="14.93" width="33.65" height="30.03"/>
		</defs>
		<clipPath id="SVGID_00000078758902037058070570000008955403016094127518_">
			<use xlink:href="#SVGID_00000051361326843153579650000004410965874637229993_"  style="overflow:visible;"/>
		</clipPath>
		<g style="clip-path:url(#SVGID_00000078758902037058070570000008955403016094127518_);">
			<path d="M44.56,31.27c-0.08-0.93-0.57-1.76-1.34-2.3c-2.77-1.93-5.15-4.31-7.07-7.07c-0.54-0.77-1.37-1.26-2.3-1.34
				c-0.29-0.02-0.58,0-0.85,0.05c-0.15-0.14-0.31-0.29-0.45-0.44c-0.01-0.01-0.02-0.02-0.03-0.03c-0.58-0.57-1.16-1.2-1.72-1.87
				c-0.01-0.01-0.01-0.02-0.02-0.03c0,0-0.01,0-0.01-0.01c-0.5-0.61-1-1.26-1.46-1.92c-0.03-0.05-0.06-0.09-0.08-0.11
				c-0.59-0.79-1.52-1.26-2.5-1.26c-0.82,0-1.59,0.32-2.18,0.91c-0.74,0.74-1.05,1.78-0.85,2.78c-0.47,0.07-1.02,0.14-1.63,0.19
				c-0.22,0.01-0.46,0.02-0.74,0.02c-2.34-0.04-7.96,0.1-9.64,2.3c-0.49,0.65-0.62,1.41-0.36,2.27c0.44,1.49,1.91,2.3,4.37,2.39
				c-0.76,0.75-2.21,2.41-2.83,4.54c0,0,0,0,0,0s0,0,0,0.01c-0.76,2.63,0.05,5.17,2.37,7.32c1.19,1.11,2.61,1.67,4.22,1.67
				c0.05,0,0.11,0,0.17-0.01c0.33,1.4,1.16,2.73,2.47,3.95c1.2,1.12,2.61,1.68,4.21,1.68c0.83,0,1.71-0.15,2.64-0.45c0,0,0,0,0,0
				c0,0,0,0,0,0c0,0,0,0,0,0c5.25-1.7,10.64-7.92,11.42-9.98l0.02-0.06c0.34,0.12,0.7,0.19,1.06,0.19c0.8,0,1.6-0.31,2.21-0.91
				C44.32,33.08,44.64,32.18,44.56,31.27z M25.07,16.37c0.44-0.44,1.03-0.69,1.65-0.69c0.63,0,1.24,0.26,1.69,0.72l-1.59,1.59
				c-0.15,0.15-0.15,0.38,0,0.53c0.07,0.07,0.17,0.11,0.26,0.11s0.19-0.04,0.26-0.11l1.53-1.52C29.24,17.5,29.62,18,30,18.47
				l-1.82,1.82c-0.15,0.14-0.15,0.38,0,0.53c0.07,0.07,0.17,0.11,0.26,0.11s0.19-0.04,0.26-0.11l1.77-1.77
				c0.41,0.47,0.82,0.93,1.24,1.35l-1.98,1.98c-0.14,0.14-0.14,0.38,0,0.53c0.07,0.07,0.17,0.11,0.27,0.11
				c0.1,0,0.19-0.04,0.26-0.11l0.46-0.46c-0.23,0.56-0.3,1.19-0.18,1.79c-0.46,0.08-0.9,0.13-1.31,0.16
				c-1.54-1.5-3.01-3.15-4.37-4.92c-0.15-0.2-0.28-0.43-0.36-0.68C24.22,17.94,24.43,17.01,25.07,16.37z M17.05,25.29
				c-0.06-0.15-0.18-0.26-0.37-0.25c-2.69,0.09-4.25-0.54-4.64-1.86c-0.18-0.63-0.11-1.15,0.24-1.61c1.2-1.57,5.45-2.07,9.03-2
				c0.3,0,0.56,0,0.81-0.02c0.69-0.06,1.29-0.13,1.81-0.22c0.1,0.22,0.21,0.42,0.35,0.6c1.23,1.6,2.56,3.1,3.94,4.5
				c-0.01,0-0.03,0-0.05,0c-0.93-0.02-2.78,0-4.62,0.24c-1.2,0.16-2.15,0.39-2.98,0.7c-1.98,0.76-2.85,2.07-2.39,3.62
				c0.33,1.14,1.37,1.93,2.92,2.24c0.45,0.09,0.91,0.14,1.45,0.16c-0.6,0.6-1.58,1.71-2.28,3.14c-1.58-2.06-3.79-3.52-6.57-4.35
				c0.85-2.48,2.92-4.25,2.93-4.26c0.09-0.08,0.19-0.15,0.28-0.22C17.05,25.62,17.1,25.45,17.05,25.29z M15.75,37.11
				c-2.01-1.87-2.77-3.96-2.25-6.2c2.77,0.84,4.94,2.32,6.44,4.43c-0.42,1.1-0.57,2.19-0.45,3.24
				C18.06,38.58,16.8,38.09,15.75,37.11z M22.6,42.72c-1.29-1.2-2.07-2.49-2.32-3.85c-0.14-0.76-0.12-1.55,0.07-2.35
				c1.26,0.38,2.39,0.88,3.36,1.51c2.12,1.35,3.67,3.33,4.62,5.88C26.05,44.53,24.12,44.14,22.6,42.72z M39.67,34.25
				c-0.65,1.72-5.64,7.62-10.63,9.42c-1-2.72-2.66-4.83-4.93-6.28c-1.03-0.66-2.24-1.19-3.56-1.59c0.04-0.13,0.09-0.26,0.14-0.39
				c0.77-1.91,2.22-3.34,2.65-3.73c0.08-0.07,0.19-0.21,0.29-0.28c0.17-0.04,0.3-0.2,0.29-0.38c-0.01-0.2-0.17-0.36-0.37-0.36
				c0,0-0.01,0-0.01,0c-0.94,0.02-1.65-0.02-2.29-0.15c-0.89-0.18-2.03-0.62-2.35-1.71c-0.45-1.54,1.02-2.36,1.94-2.71
				c0.78-0.29,1.67-0.5,2.82-0.65c1.8-0.24,3.59-0.26,4.51-0.24c0.78,0.01,1.64-0.07,2.61-0.23c0.1,0.21,0.21,0.41,0.36,0.6
				c2.49,3.24,5.33,6.08,8.43,8.46c0.05,0.04,0.11,0.06,0.16,0.1L39.67,34.25z M43.13,33.21c-0.83,0.83-2.17,0.92-3.1,0.2
				c-3.05-2.33-5.84-5.13-8.29-8.32c-0.72-0.94-0.64-2.28,0.19-3.11c0.44-0.44,1.03-0.68,1.65-0.68c0.07,0,0.14,0,0.21,0.01
				c0.56,0.05,1.09,0.3,1.48,0.7l-1.59,1.59c-0.14,0.14-0.14,0.38,0,0.53c0.07,0.07,0.17,0.11,0.27,0.11c0.1,0,0.19-0.04,0.26-0.11
				l1.53-1.53c0.36,0.51,0.74,1,1.13,1.48l-1.82,1.82c-0.15,0.15-0.15,0.38,0,0.53c0.07,0.07,0.17,0.11,0.26,0.11
				c0.1,0,0.19-0.04,0.26-0.11l1.77-1.77c0.4,0.46,0.81,0.92,1.24,1.35l-1.98,1.98c-0.15,0.15-0.15,0.38,0,0.53
				c0.07,0.07,0.17,0.11,0.27,0.11c0.1,0,0.19-0.04,0.26-0.11l1.98-1.98c0.45,0.43,0.91,0.86,1.38,1.26l-1.77,1.77
				c-0.15,0.15-0.15,0.38,0,0.53c0.07,0.07,0.17,0.11,0.26,0.11c0.1,0,0.19-0.04,0.26-0.11l1.82-1.82c0.48,0.39,0.97,0.77,1.48,1.13
				l-1.53,1.53c-0.15,0.15-0.15,0.38,0,0.53c0.07,0.07,0.17,0.11,0.26,0.11c0.1,0,0.19-0.04,0.27-0.11l1.59-1.59
				c0.39,0.39,0.63,0.91,0.68,1.46C43.88,32.03,43.63,32.7,43.13,33.21z"/>
		</g>
	</g>
	<path d="M34.84,34.2h-0.62l0.39-0.52c0.12-0.16,0.09-0.4-0.07-0.52c-0.16-0.13-0.4-0.1-0.52,0.07l-0.74,0.97h-1.73
		c-0.04-0.18-0.11-0.34-0.21-0.49l1.22-1.22l1.2,0.16c0.02,0,0.03,0,0.05,0c0.19,0,0.34-0.14,0.37-0.33
		c0.03-0.2-0.11-0.39-0.32-0.42l-0.65-0.09l0.44-0.44c0.14-0.15,0.14-0.38,0-0.53c-0.15-0.14-0.38-0.14-0.53,0l-0.44,0.44
		l-0.09-0.65c-0.03-0.21-0.22-0.35-0.42-0.32c-0.21,0.03-0.35,0.22-0.32,0.42l0.16,1.2l-1.22,1.22c-0.15-0.1-0.32-0.16-0.49-0.21
		v-1.73l0.97-0.74c0.17-0.12,0.2-0.36,0.07-0.53c-0.12-0.16-0.36-0.2-0.53-0.07l-0.52,0.39v-0.62c0-0.21-0.17-0.37-0.37-0.37
		c-0.21,0-0.37,0.17-0.37,0.37v0.62l-0.52-0.39c-0.17-0.12-0.4-0.09-0.53,0.07c-0.12,0.16-0.09,0.4,0.07,0.53l0.97,0.74v1.73
		c-0.17,0.04-0.34,0.11-0.49,0.21l-1.22-1.22l0.17-1.21c0.03-0.21-0.11-0.39-0.32-0.42c-0.21-0.02-0.39,0.12-0.42,0.32l-0.09,0.65
		l-0.44-0.44c-0.15-0.15-0.38-0.15-0.53,0c-0.14,0.15-0.14,0.38,0,0.53l0.44,0.44l-0.64,0.09c-0.21,0.03-0.35,0.22-0.32,0.42
		c0.03,0.19,0.19,0.32,0.37,0.32c0.01,0,0.03,0,0.05,0l1.2-0.16l1.22,1.22c-0.1,0.15-0.16,0.32-0.21,0.49h-1.73l-0.74-0.97
		c-0.12-0.16-0.36-0.2-0.52-0.07c-0.16,0.12-0.2,0.36-0.07,0.52l0.39,0.52h-0.62c-0.21,0-0.37,0.17-0.37,0.37
		c0,0.21,0.17,0.37,0.37,0.37h0.62l-0.39,0.52c-0.12,0.16-0.09,0.4,0.07,0.52c0.07,0.05,0.15,0.08,0.23,0.08
		c0.11,0,0.22-0.05,0.3-0.15l0.74-0.97h1.73c0.04,0.17,0.11,0.34,0.21,0.49l-1.22,1.22l-1.21-0.17c-0.21-0.02-0.39,0.11-0.42,0.32
		c-0.03,0.21,0.11,0.39,0.32,0.42l0.65,0.09l-0.44,0.44c-0.15,0.14-0.15,0.38,0,0.53c0.07,0.07,0.17,0.11,0.26,0.11
		s0.19-0.04,0.26-0.11l0.44-0.44l0.09,0.64c0.03,0.19,0.19,0.32,0.37,0.32c0.02,0,0.03,0,0.05,0c0.2-0.03,0.35-0.22,0.32-0.42
		l-0.17-1.21l1.22-1.22c0.15,0.1,0.32,0.16,0.49,0.2v1.73l-0.97,0.74c-0.16,0.12-0.2,0.36-0.07,0.52c0.12,0.17,0.36,0.2,0.52,0.07
		l0.52-0.39v0.62c0,0.21,0.17,0.37,0.37,0.37s0.37-0.17,0.37-0.37v-0.62l0.52,0.39c0.07,0.05,0.15,0.08,0.22,0.08
		c0.11,0,0.22-0.05,0.3-0.15c0.13-0.16,0.09-0.4-0.07-0.52l-0.97-0.74v-1.73c0.18-0.04,0.34-0.11,0.49-0.2l1.22,1.22l-0.17,1.21
		c-0.03,0.21,0.12,0.39,0.32,0.42c0.02,0,0.03,0,0.05,0c0.19,0,0.34-0.14,0.37-0.33l0.09-0.64l0.44,0.44
		c0.07,0.07,0.17,0.11,0.26,0.11c0.1,0,0.19-0.04,0.26-0.11c0.15-0.15,0.15-0.38,0-0.53l-0.44-0.44l0.65-0.09
		c0.2-0.03,0.35-0.22,0.32-0.42c-0.03-0.21-0.22-0.35-0.42-0.32l-1.21,0.17l-1.22-1.22c0.1-0.15,0.16-0.32,0.21-0.49h1.73l0.74,0.97
		c0.07,0.1,0.19,0.15,0.3,0.15c0.08,0,0.16-0.02,0.23-0.08c0.16-0.12,0.2-0.36,0.07-0.52l-0.39-0.52h0.62
		c0.21,0,0.37-0.17,0.37-0.37C35.21,34.36,35.04,34.2,34.84,34.2z M29.31,35.21c-0.17-0.17-0.26-0.4-0.26-0.64
		c0-0.24,0.1-0.47,0.26-0.64c0.17-0.17,0.4-0.26,0.64-0.26c0.24,0,0.47,0.09,0.64,0.26c0.17,0.17,0.26,0.39,0.26,0.64
		c0,0.24-0.09,0.47-0.26,0.64C30.25,35.55,29.65,35.55,29.31,35.21z"/>
</g>
</svg>
