<?xml version="1.0" encoding="utf-8"?>
<!-- Generator: Adobe Illustrator 27.3.1, SVG Export Plug-In . SVG Version: 6.00 Build 0)  -->
<svg version="1.1" id="Layer_1" xmlns="http://www.w3.org/2000/svg" xmlns:xlink="http://www.w3.org/1999/xlink" x="0px" y="0px"
	 viewBox="0 0 50 50" style="enable-background:new 0 0 50 50;" xml:space="preserve">
<style type="text/css">
	.st0{fill:none;}
	.st1{stroke:#000000;stroke-miterlimit:10;}
	.st2{stroke:#000000;stroke-width:0.75;stroke-miterlimit:10;}
	.st3{clip-path:url(#SVGID_00000120534050029870742430000016557290515605557137_);}
	.st4{clip-path:url(#SVGID_00000103259050467883512490000009392653405744935582_);}
	.st5{fill:#FFFFFF;}
	.st6{clip-path:url(#SVGID_00000116216747616016034050000006000350792278842551_);}
	.st7{fill:#231F20;}
	.st8{clip-path:url(#SVGID_00000175286449308779709900000012752194619594246836_);}
	.st9{clip-path:url(#SVGID_00000160891095149404472210000015074310772655861920_);}
	.st10{clip-path:url(#SVGID_00000003106404814031204430000012958220449606225837_);}
	.st11{clip-path:url(#SVGID_00000155834633535980261880000001488145086124583831_);}
	.st12{clip-path:url(#SVGID_00000020376803996941045230000003087130343454058941_);}
	.st13{clip-path:url(#SVGID_00000004522118079763210820000002049199290437842594_);}
	.st14{clip-path:url(#SVGID_00000116222335410163497840000004188572337769366657_);}
	.st15{clip-path:url(#SVGID_00000167378023719185993170000012621036695185342872_);}
	.st16{clip-path:url(#SVGID_00000173149632353814423760000013586228432860862112_);}
	.st17{clip-path:url(#SVGID_00000155852441334011077500000011611320950024172942_);}
	.st18{clip-path:url(#SVGID_00000014634755849393888320000017837147627593590947_);}
	.st19{clip-path:url(#SVGID_00000183945032426975104250000013052682248156028599_);}
	.st20{clip-path:url(#SVGID_00000121979883620998737770000016218586594727666354_);}
	.st21{clip-path:url(#SVGID_00000111899430551705940860000011148978948787832455_);}
	.st22{clip-path:url(#SVGID_00000089575306186770077620000007397368454540194233_);}
	.st23{clip-path:url(#SVGID_00000030448117507812970000000016679834793125245598_);}
	.st24{clip-path:url(#SVGID_00000155827434428450306300000002701923054437869478_);}
	.st25{clip-path:url(#SVGID_00000008129251289103685420000006734770978012832921_);}
	.st26{clip-path:url(#SVGID_00000075884525552597176660000003266317039496255655_);}
	.st27{clip-path:url(#SVGID_00000034795082730763632040000008113889130842557867_);}
	.st28{clip-path:url(#SVGID_00000105385249163149744960000018403449202038423689_);}
	.st29{clip-path:url(#SVGID_00000035526547076620861480000006522232417446767238_);}
	.st30{clip-path:url(#SVGID_00000096745252199758037590000011966847528123374249_);}
	.st31{fill-rule:evenodd;clip-rule:evenodd;}
	.st32{clip-path:url(#SVGID_00000064334508322350272480000014680984734583115684_);}
	.st33{clip-path:url(#SVGID_00000050625720879995499120000005685170225053945524_);}
	.st34{stroke:#000000;stroke-width:0.5;stroke-miterlimit:10;}
	.st35{clip-path:url(#SVGID_00000106149073437140025310000015815488999394563483_);}
	.st36{clip-path:url(#SVGID_00000072242272357206035330000002933933926782266545_);}
	.st37{clip-path:url(#SVGID_00000085226389699936659360000014358445983304086195_);}
	.st38{fill:#1A1A1A;}
	.st39{clip-path:url(#SVGID_00000162314575420684668700000015667943516606866073_);}
	.st40{clip-path:url(#SVGID_00000036955525605288037900000011978757076675665820_);}
	.st41{clip-path:url(#SVGID_00000059301087383385546740000018323390404554042278_);}
	.st42{clip-path:url(#SVGID_00000067954905871346798670000012247853747557254803_);}
	.st43{clip-path:url(#SVGID_00000058560817540628783340000001416950346301131918_);}
	.st44{clip-path:url(#SVGID_00000102536963413790330520000011167639241967170204_);}
	.st45{clip-path:url(#SVGID_00000163067633497951004290000010857588239864237957_);}
	.st46{clip-path:url(#SVGID_00000047748613578238407000000015897584473222590606_);}
	.st47{clip-path:url(#SVGID_00000013171687584398352060000007588227745546955430_);}
	.st48{fill:#F1F1F1;}
	.st49{fill:#E8E8E8;}
	.st50{fill:#FEFEFE;}
	.st51{fill:#CCCCCC;}
	.st52{fill:#B3B3B3;}
	.st53{fill:#E6E6E6;}
	.st54{fill:#EBEBEB;}
	.st55{fill:#EEEEEE;}
	.st56{fill:#F8F8F8;}
	.st57{fill:#FBFBFB;}
	.st58{fill:#383838;}
	.st59{fill:#232323;}
	.st60{fill:#F6F6F6;}
	.st61{fill:#535353;}
	.st62{fill:#0A0A0A;}
	.st63{fill:#F5F5F5;}
	.st64{fill:#818181;}
	.st65{fill:#4A4A4A;}
	.st66{fill:#999999;}
	.st67{fill:url(#SVGID_00000124141418934809030220000002621944729273356207_);}
	.st68{fill:url(#SVGID_00000000943040212223886080000012156609775214748575_);}
	.st69{fill:#0E0E0D;}
	.st70{fill:#333333;}
	.st71{fill:#808080;}
	.st72{fill:url(#SVGID_00000108296305131360820380000013850870377414376853_);}
	.st73{fill:#666666;}
	.st74{fill:url(#SVGID_00000145060405149482405650000012901451263133985949_);}
	.st75{fill:url(#SVGID_00000085213973230769174470000002398946698272102335_);}
	.st76{fill:url(#SVGID_00000102506556510192027090000008981096259541929639_);}
	.st77{fill:url(#SVGID_00000161623365426571651820000008031482566139113637_);}
	.st78{fill:url(#SVGID_00000062885581444329075490000018034262177894072460_);}
	.st79{clip-path:url(#SVGID_00000026875515254262065530000007864970388135341455_);}
	.st80{clip-path:url(#SVGID_00000043445604265955706240000009035995308946998173_);}
	.st81{clip-path:url(#SVGID_00000051369514157614893210000017825003941686264715_);}
	.st82{clip-path:url(#SVGID_00000039819382779122508400000002954191140065540527_);}
	.st83{clip-path:url(#SVGID_00000050634896804821279840000012598758897253386917_);}
	.st84{fill:#241F20;stroke:#000000;stroke-width:0.5;stroke-miterlimit:10;}
	.st85{clip-path:url(#SVGID_00000054258587815495735830000000625594293507055760_);}
	.st86{clip-path:url(#SVGID_00000183210823921673421000000001149778748370594741_);}
	.st87{clip-path:url(#SVGID_00000165199567275607839810000000010257414378715042_);}
	.st88{clip-path:url(#SVGID_00000088109226705476478750000015002661836757864339_);}
	.st89{clip-path:url(#SVGID_00000026139401814566987850000011175986345740538506_);}
	.st90{clip-path:url(#SVGID_00000144300812324955969440000011325532116133972646_);}
	.st91{clip-path:url(#SVGID_00000027594772427774880620000011370164649909829782_);}
	.st92{clip-path:url(#SVGID_00000026846271263103664530000009260673105003216780_);}
	.st93{clip-path:url(#SVGID_00000156588898089429307270000007045623911372904838_);}
	.st94{clip-path:url(#SVGID_00000058582108714177624100000014515393165429291711_);}
	.st95{clip-path:url(#SVGID_00000129923147730971725760000000508436556889921937_);}
	.st96{clip-path:url(#SVGID_00000136388962632074969230000001945086406866270141_);}
	.st97{clip-path:url(#SVGID_00000103235441935524010450000015704119742455278998_);}
	.st98{clip-path:url(#SVGID_00000058561469460654016410000002775400855334313652_);}
	.st99{clip-path:url(#SVGID_00000045582697006033158950000006660717073242982280_);}
	.st100{clip-path:url(#SVGID_00000009590329404060951870000013623229682255557762_);}
	.st101{clip-path:url(#SVGID_00000006696976578486376600000009369499118609547937_);}
	.st102{clip-path:url(#SVGID_00000137104932835276784690000000338868220391014825_);}
	.st103{clip-path:url(#SVGID_00000060007453298156616770000000808835175638640787_);}
	.st104{clip-path:url(#SVGID_00000080176780621944643400000008326505254234475672_);}
	.st105{clip-path:url(#SVGID_00000023259437581323808290000012127514668204941493_);}
	.st106{clip-path:url(#SVGID_00000145035654682881485960000016829278063706132393_);}
	.st107{clip-path:url(#SVGID_00000066496841686820653470000016423986854276535689_);}
	.st108{clip-path:url(#SVGID_00000053543911324773104220000008290364719710069397_);}
	.st109{clip-path:url(#SVGID_00000070082071385443468180000008370085664345176462_);}
	.st110{clip-path:url(#SVGID_00000054951377540169616900000002847381246002944922_);}
	.st111{clip-path:url(#SVGID_00000027589567724787119370000006641081667691420072_);}
	.st112{clip-path:url(#SVGID_00000090281014524091797030000013741737167260395939_);}
	.st113{clip-path:url(#SVGID_00000043449811317896854620000013858227219826138247_);}
	.st114{clip-path:url(#SVGID_00000070096698115229818940000000514741273623721126_);}
	.st115{fill:#FFFFFF;stroke:#000000;stroke-miterlimit:10;}
	.st116{clip-path:url(#SVGID_00000023973623807657525570000013272191768546904979_);}
	.st117{clip-path:url(#SVGID_00000036971937248512951540000008149375902560987834_);}
	.st118{fill:none;stroke:#010101;stroke-miterlimit:10;}
	.st119{fill:#010101;stroke:#000000;stroke-miterlimit:10;}
	.st120{clip-path:url(#SVGID_00000082341600880406251360000017823765559040698045_);}
	.st121{fill:#010101;stroke:#010101;stroke-miterlimit:10;}
	.st122{clip-path:url(#SVGID_00000183236686074781665660000001493198641530737816_);}
	.st123{clip-path:url(#SVGID_00000142889464570833165020000013538054874857673370_);}
	.st124{clip-path:url(#SVGID_00000009581814616950172150000011212128520244265132_);}
	.st125{clip-path:url(#SVGID_00000138575558729262574590000006639129160735159185_);}
	.st126{clip-path:url(#SVGID_00000128475394106563676110000007739709582792554937_);}
	.st127{fill:none;stroke:#000000;stroke-width:3;stroke-miterlimit:10;}
	.st128{clip-path:url(#SVGID_00000080920991940244179660000018424541318570569364_);}
	.st129{clip-path:url(#SVGID_00000068661776190551304530000015955642154655974836_);}
	.st130{clip-path:url(#SVGID_00000126290488564193630510000016303637280058237326_);}
	.st131{clip-path:url(#SVGID_00000003818621762005948970000018184622709791666817_);}
	.st132{fill:#040606;}
	.st133{clip-path:url(#SVGID_00000064347202415266208820000005883965941182207650_);}
	.st134{clip-path:url(#SVGID_00000176755485839341657230000000344781576571581848_);}
	.st135{clip-path:url(#SVGID_00000061468374334119771080000013836122302668347018_);}
	.st136{clip-path:url(#SVGID_00000048470008368252508420000007151094091211165870_);}
	.st137{clip-path:url(#SVGID_00000175318041175804329600000015331404873670858884_);}
	.st138{clip-path:url(#SVGID_00000023264938881255179350000013223864592009777030_);}
	.st139{clip-path:url(#SVGID_00000163766341800296846420000003479170049193283464_);}
	.st140{fill:#FFFFFF;stroke:#000000;stroke-width:1.5;stroke-miterlimit:10;}
	.st141{clip-path:url(#SVGID_00000106834399488019462890000003824411562223659939_);}
	.st142{fill:#BDBCBC;}
	.st143{clip-path:url(#SVGID_00000139985884682774076960000003592545013664872335_);}
	.st144{fill:#2E2A2B;}
	.st145{clip-path:url(#SVGID_00000080929289428115804610000016093010232439955349_);}
	.st146{clip-path:url(#SVGID_00000124848510643287087210000013442573752319612550_);}
	.st147{clip-path:url(#SVGID_00000134952436695047218110000014862486560639967129_);}
	.st148{clip-path:url(#SVGID_00000113316945765411577080000001838948792962098618_);}
	.st149{clip-path:url(#SVGID_00000038401523462613852200000013876996258422493868_);}
	.st150{fill:#272324;}
	.st151{clip-path:url(#SVGID_00000040574836663249473480000011684498654304458114_);}
	.st152{clip-path:url(#SVGID_00000132086400996361217680000011647500569405713070_);}
	.st153{clip-path:url(#SVGID_00000121976005900139468000000006668333618392149695_);}
	.st154{clip-path:url(#SVGID_00000065755665344420667530000004580635109683246483_);}
	.st155{clip-path:url(#SVGID_00000173123232796923739920000010457252316971324066_);}
	.st156{clip-path:url(#SVGID_00000000925486790971338230000014370619962771490961_);}
	.st157{fill:none;stroke:#000000;stroke-width:0.8735;stroke-linecap:round;stroke-linejoin:round;stroke-miterlimit:10;}
	.st158{clip-path:url(#SVGID_00000121242553350328826400000014817008027977878418_);}
	.st159{clip-path:url(#SVGID_00000101795731799299404920000017461698091327653776_);}
	.st160{clip-path:url(#SVGID_00000052817397823455514930000009162227590298158466_);}
	.st161{clip-path:url(#SVGID_00000142168294761653343880000005014050806406806661_);}
	.st162{clip-path:url(#SVGID_00000051366594696706307880000009621001246687332992_);}
	.st163{clip-path:url(#SVGID_00000031188956267123260110000012498186575849855382_);}
	.st164{clip-path:url(#SVGID_00000162314213367864320650000008219492282437859003_);}
	.st165{clip-path:url(#SVGID_00000134243886434317634030000001801675489527119488_);}
	.st166{clip-path:url(#SVGID_00000008109575056919925330000007659514370521109143_);}
	.st167{clip-path:url(#SVGID_00000162351901623918728310000005815730231876569012_);}
	.st168{clip-path:url(#SVGID_00000058583093287093311540000009074270774124428223_);}
	.st169{clip-path:url(#SVGID_00000122000212160804985670000015625689090998228369_);}
	.st170{clip-path:url(#SVGID_00000044883297907829449630000001964343652547545483_);}
	.st171{clip-path:url(#SVGID_00000036931390299444888710000011550732343506713226_);}
	.st172{clip-path:url(#SVGID_00000041263228453679970600000010084734525221261734_);}
	.st173{clip-path:url(#SVGID_00000094597336643056998020000017994843916811493510_);}
	.st174{clip-path:url(#SVGID_00000037666099101683877050000001754283269053438611_);}
	.st175{clip-path:url(#SVGID_00000063610201496601185550000008046415361966255754_);}
	.st176{clip-path:url(#SVGID_00000031181859472107716490000002909865295748040633_);}
	.st177{clip-path:url(#SVGID_00000171694189346788088370000005767684632327266212_);}
	.st178{clip-path:url(#SVGID_00000121244735899698296970000016866250134704743328_);}
	.st179{clip-path:url(#SVGID_00000126285979029045750050000009474902573867837614_);}
	.st180{clip-path:url(#SVGID_00000011002586214336787130000017620500876010387128_);}
	.st181{clip-path:url(#SVGID_00000040558464104794252830000012626360029140131474_);}
	.st182{clip-path:url(#SVGID_00000120545897058715731530000002114966848603117699_);}
	.st183{clip-path:url(#SVGID_00000093871776535860687700000018044351314421735335_);}
	.st184{clip-path:url(#SVGID_00000165928687918993908940000016328739888261998510_);}
	.st185{clip-path:url(#SVGID_00000092445249593394492270000011111633992104746685_);}
	.st186{clip-path:url(#SVGID_00000086669058895976083950000006844226246091088791_);}
	.st187{clip-path:url(#SVGID_00000145739131235726779680000006849097781646489522_);}
	.st188{clip-path:url(#SVGID_00000139286253293420723920000002673444696738737309_);}
	.st189{clip-path:url(#SVGID_00000005255303802394225110000010349697742373934746_);}
	.st190{clip-path:url(#SVGID_00000163069011179377758460000017033304226397180800_);}
	.st191{clip-path:url(#SVGID_00000034782836988847006330000012562094150997171885_);}
	.st192{clip-path:url(#SVGID_00000076574549147072559430000011316977728233363642_);}
	.st193{clip-path:url(#SVGID_00000054970165840369936000000002096585084013539985_);}
	.st194{clip-path:url(#SVGID_00000114784507159445538850000016012237092011995308_);}
	.st195{clip-path:url(#SVGID_00000163039356640091755120000011291598183792008579_);}
	.st196{fill:#E5E5E5;}
	.st197{fill:#1D1D1B;}
	.st198{fill:none;stroke:#000000;stroke-miterlimit:10;}
	.st199{fill:#FEFEFE;stroke:#000000;stroke-miterlimit:10;}
	.st200{clip-path:url(#SVGID_00000143600203338995233120000012368911645403069335_);}
	.st201{clip-path:url(#SVGID_00000152949518457390411700000012454546941462251415_);}
	.st202{clip-path:url(#SVGID_00000050638539333289311140000004274791372899802303_);}
	.st203{fill:#231F1F;}
	.st204{fill:#020000;}
	.st205{clip-path:url(#SVGID_00000123414984475174021460000017733715352694862227_);}
	.st206{clip-path:url(#SVGID_00000108269656954294583760000008440625063760845707_);}
	.st207{clip-path:url(#SVGID_00000044159329566164919290000017927967232944476344_);}
	.st208{clip-path:url(#SVGID_00000163763356546668143820000012461751837796731314_);}
	.st209{fill:#050000;}
	.st210{clip-path:url(#SVGID_00000015313883849192230360000000647917426324351632_);}
	.st211{clip-path:url(#SVGID_00000108998737038548963270000013207294259638488762_);}
	.st212{clip-path:url(#SVGID_00000039844794929122580490000015248890606384678537_);}
	.st213{clip-path:url(#SVGID_00000054244102645762571390000000993639856870441350_);}
	.st214{clip-path:url(#SVGID_00000129917215916133851450000017182301461944541082_);}
	.st215{clip-path:url(#SVGID_00000130644158648477685920000000523917901350209441_);}
	.st216{fill:#12100F;}
	.st217{clip-path:url(#SVGID_00000006691564100129813760000015076543974264168083_);}
	.st218{clip-path:url(#SVGID_00000117650028757456407790000007379063779840425104_);}
	.st219{fill:none;stroke:#000000;stroke-width:0.5;stroke-miterlimit:10;}
	.st220{clip-path:url(#SVGID_00000062183216197513164010000003061433683935054514_);}
	.st221{clip-path:url(#SVGID_00000127028511003616137470000003110893053668869306_);}
	.st222{clip-path:url(#SVGID_00000143601753388972235870000011178848062835242666_);}
	.st223{clip-path:url(#SVGID_00000038409683315250881370000001210382011098560647_);}
	.st224{fill:none;stroke:#000000;stroke-width:0.25;stroke-miterlimit:10;}
	.st225{clip-path:url(#SVGID_00000113355546049693715720000004128615355175693745_);}
	.st226{clip-path:url(#SVGID_00000109738663679905393110000008466380798685402784_);}
	.st227{clip-path:url(#SVGID_00000047030665332583654100000013859583461901214635_);}
</style>
<g>
	<rect x="17.85" y="11.72" class="st0" width="16.58" height="28.28"/>
	<g>
		<path d="M31.63,40h-9.75c-0.56,0-1.01-0.43-1.04-0.98c-0.09-1.87-0.92-3.26-1.65-3.77c-0.35-0.24-0.51-0.67-0.41-1.09l1.65-6.6
			l1.01,0.25l-1.65,6.59c0.89,0.61,1.98,2.18,2.09,4.56l9.75-0.01c0.79-2.46,1.21-5.25,1.21-8.06c0-6.74-3.18-15.07-10.17-17.42
			l-3.1,13.12l-1.02-0.24l3.12-13.12c0.06-0.28,0.25-0.53,0.51-0.67c0.25-0.14,0.56-0.17,0.83-0.08c7.48,2.51,10.88,11.3,10.88,18.4
			c0,2.92-0.44,5.82-1.26,8.38C32.49,39.71,32.09,40,31.63,40z"/>
	</g>
	<path d="M20.75,26.27l0.22-0.9l1.01,0.25l-0.22,0.9L20.75,26.27z"/>
	<path d="M21.26,24.25l0.24-0.95l1.01,0.25l-0.24,0.95L21.26,24.25z"/>
	<path d="M21.78,22.15l2.16-8.61l1.01,0.25l-2.16,8.61L21.78,22.15z"/>
	<path d="M28.67,35.32H27.5c-1.07,0-2.02-0.63-2.35-1.57c-0.16-0.44-0.18-0.92-0.07-1.38l2.42-9.64c0.14-0.55,0.63-0.93,1.2-0.93
		c0.51,0,0.98,0.32,1.15,0.79c0.94,2.46,1.42,5.35,1.42,8.57v1.56C31.27,34.15,30.1,35.32,28.67,35.32L28.67,35.32z M28.7,22.84
		c-0.09,0-0.16,0.06-0.19,0.14l-2.42,9.64c-0.06,0.26-0.05,0.53,0.04,0.77c0.19,0.52,0.75,0.88,1.37,0.88h1.16
		c0.86,0,1.57-0.7,1.57-1.56v-1.56c0-3.1-0.45-5.86-1.35-8.21C28.85,22.89,28.78,22.84,28.7,22.84z"/>
	<path d="M31.15,20.95l-0.47-0.93l1.64-0.82l-0.53-1.04l-1.75,0.88l-0.47-0.93l1.77-0.88c0.53-0.26,1.13-0.03,1.38,0.45l0.53,1.06
		c0.08,0.16,0.11,0.31,0.11,0.46c0,0.38-0.22,0.74-0.57,0.92L31.15,20.95z"/>
	<path d="M27.56,32.2c-0.11,0-0.21-0.02-0.32-0.05l-1.49-0.46l0.31-0.99l1.49,0.46l0.58-2.32l-1.54-0.48l0.31-0.99l1.55,0.48
		c0.53,0.16,0.83,0.71,0.7,1.24l-0.58,2.32c-0.07,0.28-0.25,0.51-0.5,0.66C27.91,32.16,27.74,32.2,27.56,32.2z"/>
	<rect x="7.77" y="22.44" class="st0" width="10.08" height="8.78"/>
	<g>
		<path d="M11.7,30.64c-1.3,0-2.35-1.05-2.35-2.34c0-0.02,0-0.04,0-0.06c-0.95-0.48-1.57-1.46-1.57-2.54c0-1.58,1.29-2.86,2.87-2.86
			c0.61,0,1.2,0.2,1.69,0.56c0.14-0.03,0.27-0.04,0.4-0.04c1.3,0,2.35,1.05,2.35,2.34c0,0.18-0.02,0.36-0.06,0.53l2.24,1.21
			l-0.5,0.91l-3.06-1.65l0.21-0.45c0.09-0.18,0.13-0.37,0.13-0.55c0-0.72-0.58-1.3-1.3-1.3c-0.11,0-0.23,0.02-0.37,0.06l-0.28,0.09
			l-0.22-0.2c-0.34-0.3-0.77-0.47-1.22-0.47c-1.01,0-1.83,0.82-1.83,1.82c0,0.78,0.51,1.47,1.25,1.72l0.45,0.15l-0.1,0.46
			c-0.02,0.1-0.03,0.19-0.03,0.27c0,0.72,0.59,1.3,1.31,1.3c0.63,0,1.17-0.45,1.28-1.08l0.13-0.71l3.16,1.7l-0.5,0.91l-1.98-1.06
			C13.4,30.13,12.6,30.64,11.7,30.64z"/>
	</g>
	<path d="M10.24,32.53l0.5-0.91l0.83,0.45l-0.5,0.91L10.24,32.53z"/>
	<path d="M8.18,31.42l0.5-0.91l0.8,0.43l-0.5,0.91L8.18,31.42z"/>
	<path d="M12.82,21.08l0.5-0.91l0.85,0.46l-0.5,0.91L12.82,21.08z"/>
	<path d="M10.79,19.98l0.5-0.91l0.78,0.42l-0.5,0.91L10.79,19.98z"/>
	<path d="M19.64,12.77l0.5-0.91l0.82,0.44l-0.5,0.91L19.64,12.77z"/>
	<rect x="16.88" y="10.74" class="st0" width="1.95" height="1.95"/>
	<g>
		<path d="M17.57,11.66l0.5-0.91l0.75,0.41l-0.5,0.91L17.57,11.66z"/>
	</g>
	<path d="M15.88,20.24c-0.83,0-1.58-0.44-2.01-1.13c-1.4-0.32-2.43-1.58-2.43-3.03c0-1.72,1.41-3.12,3.13-3.12
		c0.7,0,1.36,0.23,1.9,0.65c0.23-0.08,0.47-0.13,0.7-0.13c1.15,0,2.09,0.93,2.09,2.08c0,0.28-0.05,0.55-0.16,0.8l0.95,0.51
		l-0.49,0.92l-2-1.07l0.42-0.49c0.16-0.19,0.25-0.42,0.25-0.67c0-0.58-0.47-1.04-1.04-1.04c-0.18,0-0.36,0.05-0.53,0.14l-0.34,0.21
		l-0.29-0.28C15.63,14.21,15.12,14,14.57,14c-1.15,0-2.09,0.93-2.09,2.08c0,1.02,0.77,1.9,1.8,2.05l0.29,0.04l0.12,0.26
		c0.21,0.47,0.68,0.77,1.19,0.77s0.93-0.27,1.15-0.71l0.24-0.48l2.32,1.27l-0.5,0.91l-1.44-0.78
		C17.22,19.94,16.57,20.24,15.88,20.24z"/>
	<rect x="15.9" y="38.05" class="st0" width="19.5" height="1.95"/>
	<g>
		<path d="M16.66,38.96h18.27V40H16.66V38.96z"/>
	</g>
	<rect x="35.41" y="38.05" class="st0" width="1.62" height="1.95"/>
	<g>
		<path d="M35.97,38.96h1.04V40h-1.04V38.96z"/>
	</g>
	<path d="M19.43,33.62l-1.49-0.41c-0.54-0.15-0.87-0.69-0.74-1.24l1.46-6.13l1.02,0.24l-1.46,6.13l1.49,0.41L19.43,33.62z"/>
</g>
</svg>
