<?xml version="1.0" encoding="utf-8"?>
<!-- Generator: Adobe Illustrator 27.3.1, SVG Export Plug-In . SVG Version: 6.00 Build 0)  -->
<svg version="1.1" id="Layer_1" xmlns="http://www.w3.org/2000/svg" xmlns:xlink="http://www.w3.org/1999/xlink" x="0px" y="0px"
	 viewBox="0 0 50 50" style="enable-background:new 0 0 50 50;" xml:space="preserve">
<style type="text/css">
	.st0{fill:none;}
	.st1{stroke:#000000;stroke-miterlimit:10;}
	.st2{stroke:#000000;stroke-width:0.75;stroke-miterlimit:10;}
	.st3{clip-path:url(#SVGID_00000070827486662297664100000007124286900672774804_);}
	.st4{clip-path:url(#SVGID_00000095307910542159528710000010749458686356959143_);}
	.st5{fill:#FFFFFF;}
	.st6{clip-path:url(#SVGID_00000145775734014178308650000007091877813635929485_);}
	.st7{fill:#231F20;}
	.st8{clip-path:url(#SVGID_00000111188900503498910190000010180078906752961191_);}
	.st9{clip-path:url(#SVGID_00000029032091062078186060000001508089063038841787_);}
	.st10{clip-path:url(#SVGID_00000085243238517249964710000008644327447098582416_);}
	.st11{clip-path:url(#SVGID_00000038396871198043807190000003932552710751972780_);}
	.st12{clip-path:url(#SVGID_00000047765401133325976150000006801433636351111558_);}
	.st13{clip-path:url(#SVGID_00000098197212072386829370000001800221014924386193_);}
	.st14{clip-path:url(#SVGID_00000124840067796132094710000011582275537730422411_);}
	.st15{clip-path:url(#SVGID_00000138554371469274813130000009490474087406303918_);}
	.st16{clip-path:url(#SVGID_00000153666709282300687320000016749083312307629709_);}
	.st17{clip-path:url(#SVGID_00000141419439179330942520000010136728586337861027_);}
	.st18{clip-path:url(#SVGID_00000070820884920214091950000012747308259518835901_);}
	.st19{clip-path:url(#SVGID_00000000923068566083343250000012584550635716611775_);}
	.st20{clip-path:url(#SVGID_00000021800524002572248320000007118259569397903279_);}
	.st21{clip-path:url(#SVGID_00000039840716827330781940000003140920447953048248_);}
	.st22{clip-path:url(#SVGID_00000132807599571451485180000000141426466556675205_);}
	.st23{clip-path:url(#SVGID_00000132768755631196562640000015225619968378593938_);}
	.st24{clip-path:url(#SVGID_00000169547838342558122450000017949529974474300087_);}
	.st25{clip-path:url(#SVGID_00000129187277671640664790000011377720379155133574_);}
	.st26{clip-path:url(#SVGID_00000182502510252350185490000012216407201830931354_);}
	.st27{clip-path:url(#SVGID_00000005241820500068738540000004618696848008773785_);}
	.st28{clip-path:url(#SVGID_00000063616861340206226260000014780071332543121044_);}
	.st29{clip-path:url(#SVGID_00000152260012826172588180000014108134333825124740_);}
	.st30{clip-path:url(#SVGID_00000039097293759649612450000006782537121067274429_);}
	.st31{fill-rule:evenodd;clip-rule:evenodd;}
	.st32{clip-path:url(#SVGID_00000018204508312726853510000010924172564892575920_);}
	.st33{clip-path:url(#SVGID_00000048467492630123595940000003246260873597835421_);}
	.st34{stroke:#000000;stroke-width:0.5;stroke-miterlimit:10;}
	.st35{clip-path:url(#SVGID_00000021118075505723141390000007701137567773957517_);}
	.st36{clip-path:url(#SVGID_00000054236075649455623390000013366596960207751065_);}
	.st37{clip-path:url(#SVGID_00000016056424464413586240000007292077838583184007_);}
	.st38{fill:#1A1A1A;}
	.st39{clip-path:url(#SVGID_00000050661295375984422950000002080923328982652049_);}
	.st40{clip-path:url(#SVGID_00000112620754263279927380000003625161692930561179_);}
	.st41{clip-path:url(#SVGID_00000106121501277888634300000017592486497306209716_);}
	.st42{clip-path:url(#SVGID_00000145761273941545674060000006530337217020440471_);}
	.st43{clip-path:url(#SVGID_00000062150205973546528340000010961697377637213576_);}
	.st44{clip-path:url(#SVGID_00000174590366026892023500000018010164836218011288_);}
	.st45{clip-path:url(#SVGID_00000009571811567799615710000000228732550403186604_);}
	.st46{clip-path:url(#SVGID_00000097458857219808752350000015372009134675527303_);}
	.st47{clip-path:url(#SVGID_00000113331314815286838100000001071034170667484603_);}
	.st48{fill:#F1F1F1;}
	.st49{fill:#E8E8E8;}
	.st50{fill:#FEFEFE;}
	.st51{fill:#CCCCCC;}
	.st52{fill:#B3B3B3;}
	.st53{fill:#E6E6E6;}
	.st54{fill:#EBEBEB;}
	.st55{fill:#EEEEEE;}
	.st56{fill:#F8F8F8;}
	.st57{fill:#FBFBFB;}
	.st58{fill:#383838;}
	.st59{fill:#232323;}
	.st60{fill:#F6F6F6;}
	.st61{fill:#535353;}
	.st62{fill:#0A0A0A;}
	.st63{fill:#F5F5F5;}
	.st64{fill:#818181;}
	.st65{fill:#4A4A4A;}
	.st66{fill:#999999;}
	.st67{fill:url(#SVGID_00000168836832448160708450000005272801982763484862_);}
	.st68{fill:url(#SVGID_00000085961209275213203650000002124052625851091872_);}
	.st69{fill:#0E0E0D;}
	.st70{fill:#333333;}
	.st71{fill:#808080;}
	.st72{fill:url(#SVGID_00000071519213143565947550000017140471262498694315_);}
	.st73{fill:#666666;}
	.st74{fill:url(#SVGID_00000062172015482949936110000010738651249263527099_);}
	.st75{fill:url(#SVGID_00000098182778468494019070000012289231938029676959_);}
	.st76{fill:url(#SVGID_00000017480639074741213780000004332750848728441735_);}
	.st77{fill:url(#SVGID_00000064323787162531585550000004690993908395574433_);}
	.st78{fill:url(#SVGID_00000016753557435905804640000014029083461268752008_);}
	.st79{clip-path:url(#SVGID_00000176005291405623296230000002496279222737081774_);}
	.st80{clip-path:url(#SVGID_00000067915369073591311810000009600541538433413256_);}
	.st81{clip-path:url(#SVGID_00000089550329908917244180000008535047595510977451_);}
	.st82{clip-path:url(#SVGID_00000134956830882258073480000015503661122388284580_);}
	.st83{clip-path:url(#SVGID_00000131364018797012207020000016470771003200360126_);}
	.st84{fill:#241F20;stroke:#000000;stroke-width:0.5;stroke-miterlimit:10;}
	.st85{clip-path:url(#SVGID_00000114047649522127799500000006996741960333857182_);}
	.st86{clip-path:url(#SVGID_00000110443465148321641520000008670820468595636877_);}
	.st87{clip-path:url(#SVGID_00000003783651319004409110000006120837763102812346_);}
	.st88{clip-path:url(#SVGID_00000022554351853549075700000006786970733435459974_);}
	.st89{clip-path:url(#SVGID_00000113342341438796723750000012200836383908153258_);}
	.st90{clip-path:url(#SVGID_00000031199675085733165140000006487083118848363913_);}
	.st91{clip-path:url(#SVGID_00000118372412790047499240000005737773604788163984_);}
	.st92{clip-path:url(#SVGID_00000011020636690790011500000004159986558203409816_);}
	.st93{clip-path:url(#SVGID_00000003070040570298034720000017946151783753521586_);}
	.st94{clip-path:url(#SVGID_00000037668634001289128190000018280083900097822612_);}
	.st95{clip-path:url(#SVGID_00000132061548779041432590000008957498659815443881_);}
	.st96{clip-path:url(#SVGID_00000070827821761219385170000003080757961249403010_);}
	.st97{clip-path:url(#SVGID_00000058576099514212572920000011896271784608575644_);}
	.st98{clip-path:url(#SVGID_00000029037193413039055270000000963629573668883104_);}
	.st99{clip-path:url(#SVGID_00000181065272180405308110000016493775690511995326_);}
	.st100{clip-path:url(#SVGID_00000018926763601229375720000014355022567341522844_);}
	.st101{clip-path:url(#SVGID_00000179637230126151713560000012574579988388566194_);}
	.st102{clip-path:url(#SVGID_00000142166536373449270330000009809739015045933220_);}
	.st103{clip-path:url(#SVGID_00000176721876839671405980000010563815768498214060_);}
	.st104{clip-path:url(#SVGID_00000084487731873688747820000011915308666740710041_);}
	.st105{clip-path:url(#SVGID_00000139276163362314693370000012876995022496511652_);}
	.st106{clip-path:url(#SVGID_00000016791766043350755080000008231725840876029328_);}
	.st107{clip-path:url(#SVGID_00000017503428523761074470000016643662820474913447_);}
	.st108{clip-path:url(#SVGID_00000036227131976782620670000015472927520458540433_);}
	.st109{clip-path:url(#SVGID_00000018225984560192018930000012033296584360346016_);}
	.st110{clip-path:url(#SVGID_00000039134629947744395840000007682074416473113247_);}
	.st111{clip-path:url(#SVGID_00000160878753089321436760000007416028889759985072_);}
	.st112{clip-path:url(#SVGID_00000176761635734284002570000007043453188393511808_);}
	.st113{clip-path:url(#SVGID_00000131333724851055003640000010679348424124418446_);}
	.st114{clip-path:url(#SVGID_00000120523088016031686850000009673845265646286768_);}
	.st115{fill:#FFFFFF;stroke:#000000;stroke-miterlimit:10;}
	.st116{clip-path:url(#SVGID_00000114039422455312008720000002605991848273338014_);}
	.st117{clip-path:url(#SVGID_00000054948883235147272950000003522870160586876843_);}
	.st118{fill:none;stroke:#010101;stroke-miterlimit:10;}
	.st119{fill:#010101;stroke:#000000;stroke-miterlimit:10;}
	.st120{clip-path:url(#SVGID_00000152249507185373392970000004834870512099454085_);}
	.st121{fill:#010101;stroke:#010101;stroke-miterlimit:10;}
	.st122{clip-path:url(#SVGID_00000121961374436507890990000013358342198359155842_);}
	.st123{clip-path:url(#SVGID_00000117652250416887478720000015759433127224340659_);}
	.st124{clip-path:url(#SVGID_00000112625915301723627500000017013510269084073884_);}
	.st125{clip-path:url(#SVGID_00000101079309962148894240000005581685384476523174_);}
	.st126{clip-path:url(#SVGID_00000010304372457602013300000005314327669071168914_);}
	.st127{fill:none;stroke:#000000;stroke-width:3;stroke-miterlimit:10;}
	.st128{clip-path:url(#SVGID_00000106852176774849591220000002432209029770009010_);}
	.st129{clip-path:url(#SVGID_00000183248605095826937170000010256317700283777459_);}
	.st130{clip-path:url(#SVGID_00000046334075183585032010000005254339341260027820_);}
	.st131{clip-path:url(#SVGID_00000024702946698293984210000015945345121989028022_);}
	.st132{fill:#040606;}
	.st133{clip-path:url(#SVGID_00000029732005263323633230000018309710794524995987_);}
	.st134{clip-path:url(#SVGID_00000101093170518167991700000012002777976229363118_);}
	.st135{clip-path:url(#SVGID_00000115510724781919527780000012288458840974396831_);}
	.st136{clip-path:url(#SVGID_00000017486300008496391370000015243933961144144005_);}
	.st137{clip-path:url(#SVGID_00000131329904302386668730000007575291734601942946_);}
	.st138{clip-path:url(#SVGID_00000165227074113689804350000007403028327437514899_);}
	.st139{clip-path:url(#SVGID_00000152965295086428977810000003159993289971209407_);}
	.st140{fill:#FFFFFF;stroke:#000000;stroke-width:1.5;stroke-miterlimit:10;}
	.st141{clip-path:url(#SVGID_00000003063877557777835770000010495561857472627099_);}
	.st142{fill:#BDBCBC;}
	.st143{clip-path:url(#SVGID_00000001662106955958893440000012397228988728374935_);}
	.st144{fill:#2E2A2B;}
	.st145{clip-path:url(#SVGID_00000021797760876979054030000010468330233547843209_);}
	.st146{clip-path:url(#SVGID_00000083067337740132285630000001154774565654544552_);}
	.st147{clip-path:url(#SVGID_00000177469980129597118120000004748727205715463047_);}
	.st148{clip-path:url(#SVGID_00000123411220993479934300000018279356134066133677_);}
	.st149{clip-path:url(#SVGID_00000142157577871583458780000002468196572127401349_);}
	.st150{fill:#272324;}
	.st151{clip-path:url(#SVGID_00000086672645158093356690000013093825058618885025_);}
	.st152{clip-path:url(#SVGID_00000000220623665504815430000001488540665799259789_);}
	.st153{clip-path:url(#SVGID_00000145027839840448170110000004773936650130686641_);}
	.st154{clip-path:url(#SVGID_00000075126959484558657050000002633101264434617767_);}
	.st155{clip-path:url(#SVGID_00000079452939825026514560000007835940823549175961_);}
	.st156{clip-path:url(#SVGID_00000133525672815029145740000015823411882478649265_);}
	.st157{fill:none;stroke:#000000;stroke-width:0.8735;stroke-linecap:round;stroke-linejoin:round;stroke-miterlimit:10;}
	.st158{clip-path:url(#SVGID_00000070098294938206732170000014579271595958559923_);}
	.st159{clip-path:url(#SVGID_00000129901459122953587470000018431129758488422043_);}
	.st160{clip-path:url(#SVGID_00000042708243980334948460000015596895909240871313_);}
	.st161{clip-path:url(#SVGID_00000134939263751476588070000008656154023473954698_);}
	.st162{clip-path:url(#SVGID_00000037667542301601632280000014914773544300677772_);}
	.st163{clip-path:url(#SVGID_00000076570483308825797560000010609386425173748153_);}
	.st164{clip-path:url(#SVGID_00000038387251905837170770000012869362525233574048_);}
	.st165{clip-path:url(#SVGID_00000047768665804777657190000003563314783745977747_);}
	.st166{clip-path:url(#SVGID_00000125573515115924483700000016549558025384035714_);}
	.st167{clip-path:url(#SVGID_00000029749695174832830830000000304403334778116538_);}
	.st168{clip-path:url(#SVGID_00000008147988510499476790000014930980484040156056_);}
	.st169{clip-path:url(#SVGID_00000040540188387314989780000000485860713147056523_);}
	.st170{clip-path:url(#SVGID_00000010277662566553540670000000206803892667603386_);}
	.st171{clip-path:url(#SVGID_00000011032193949275343890000018072361138066965415_);}
	.st172{clip-path:url(#SVGID_00000016048328366879109260000003762485847239323058_);}
	.st173{clip-path:url(#SVGID_00000071541681502044290120000010202213838262460296_);}
	.st174{clip-path:url(#SVGID_00000006691447717664852070000014212255721188002723_);}
	.st175{clip-path:url(#SVGID_00000001656071655268406170000008237015913730011043_);}
	.st176{clip-path:url(#SVGID_00000149381411257308349160000004101957858950379669_);}
	.st177{clip-path:url(#SVGID_00000146488416288603311570000007216600617379933623_);}
	.st178{clip-path:url(#SVGID_00000153691077328511367000000001744276128878493070_);}
	.st179{clip-path:url(#SVGID_00000000945712641498504540000016421515853384935082_);}
	.st180{clip-path:url(#SVGID_00000109747710432421623320000003323680662604369587_);}
	.st181{clip-path:url(#SVGID_00000063611681300624057300000005912176295328463535_);}
	.st182{clip-path:url(#SVGID_00000121263227063408147260000003506833344489667262_);}
	.st183{clip-path:url(#SVGID_00000029731090110070802560000012705458998916544682_);}
	.st184{clip-path:url(#SVGID_00000118378435410804145690000009904155652150887088_);}
	.st185{clip-path:url(#SVGID_00000162326965840402647240000005691020454374323856_);}
	.st186{clip-path:url(#SVGID_00000131363778859441445120000017854384807697563060_);}
	.st187{clip-path:url(#SVGID_00000074434186171888553910000012358231500066757263_);}
	.st188{clip-path:url(#SVGID_00000018233334069951571110000003735040226248979375_);}
	.st189{clip-path:url(#SVGID_00000093875218695142026280000008397824958399836858_);}
	.st190{clip-path:url(#SVGID_00000054957696643219821460000007738940918688922784_);}
	.st191{clip-path:url(#SVGID_00000116923814679003267490000004354188206141405313_);}
	.st192{clip-path:url(#SVGID_00000097501899953778572650000005894939765972497062_);}
	.st193{clip-path:url(#SVGID_00000113328507073777925300000002318449045550564268_);}
	.st194{clip-path:url(#SVGID_00000072269414588470702420000018178775606425190788_);}
	.st195{clip-path:url(#SVGID_00000123419542732470606050000007474041809831975867_);}
	.st196{fill:#E5E5E5;}
	.st197{fill:#1D1D1B;}
	.st198{fill:none;stroke:#000000;stroke-miterlimit:10;}
	.st199{fill:#FEFEFE;stroke:#000000;stroke-miterlimit:10;}
	.st200{clip-path:url(#SVGID_00000054258015356904696410000014254671605228863119_);}
	.st201{clip-path:url(#SVGID_00000049209608896235405890000005815754318023453832_);}
	.st202{clip-path:url(#SVGID_00000070826427931124637330000003838623715448416398_);}
	.st203{fill:#231F1F;}
	.st204{fill:#020000;}
	.st205{clip-path:url(#SVGID_00000035492689641808769070000013000510763493431727_);}
	.st206{clip-path:url(#SVGID_00000099650429683417677270000002518762154552985764_);}
	.st207{clip-path:url(#SVGID_00000129908813272371906070000011361037364565837727_);}
	.st208{clip-path:url(#SVGID_00000132049978623868242240000002917417344854897855_);}
	.st209{fill:#050000;}
	.st210{clip-path:url(#SVGID_00000098218998933403292210000009828021446448548788_);}
	.st211{clip-path:url(#SVGID_00000058557396707826659960000011482947607142024840_);}
	.st212{clip-path:url(#SVGID_00000183941719910571328770000011248113834509227681_);}
	.st213{clip-path:url(#SVGID_00000172412833946124215680000001905089921508134793_);}
	.st214{clip-path:url(#SVGID_00000177479133112936553600000000518163375695828637_);}
	.st215{clip-path:url(#SVGID_00000012444082626100894290000004097961328078666369_);}
	.st216{fill:#12100F;}
	.st217{clip-path:url(#SVGID_00000156558970693927673850000008488098937394325426_);}
	.st218{clip-path:url(#SVGID_00000059299437236388806960000003296313562314521780_);}
	.st219{fill:none;stroke:#000000;stroke-width:0.5;stroke-miterlimit:10;}
	.st220{clip-path:url(#SVGID_00000121239381741564843080000004784182821954961037_);}
	.st221{clip-path:url(#SVGID_00000104685342613609299550000010085382213361978502_);}
	.st222{clip-path:url(#SVGID_00000019653175549111376170000016510517656246081973_);}
	.st223{clip-path:url(#SVGID_00000124121784257929753250000012112194448508206221_);}
	.st224{fill:none;stroke:#000000;stroke-width:0.25;stroke-miterlimit:10;}
	.st225{clip-path:url(#SVGID_00000026161222235853947990000006034424844265323432_);}
	.st226{clip-path:url(#SVGID_00000016759087398135184110000011741815270801862582_);}
	.st227{clip-path:url(#SVGID_00000005244138339713254950000009148116058233787821_);}
</style>
<g>
	<path d="M13.61,42.85c0.17-0.62,0.33-1.24,0.49-1.87c-1.11-0.1-2.21-0.33-3.27-0.67c-0.11,0.57-0.22,1.14-0.32,1.71
		c0.51,0.12,0.99,0.26,1.46,0.4C12.49,42.57,13.03,42.72,13.61,42.85z M16.7,27.52c0.09-0.48,0.19-0.97,0.14-1.37
		c-0.1-0.91-0.37-1.81-0.77-2.64c-0.92,1.83-1.76,3.91-2.55,6.37c-1.07,3.3-1.96,6.69-2.63,10.1c1.07,0.35,2.17,0.58,3.29,0.67
		c1.11-4.5,1.86-8.97,2.42-12.59C16.62,27.9,16.66,27.71,16.7,27.52z M20.82,40.16c0.12-1.56,0.09-3.06,0.05-4.65l0-0.24l-1.96-0.24
		c-0.97-0.12-1.97-0.24-2.95-0.15c-0.45,2.35-0.98,4.82-1.63,7.28c1.53,0.07,3.13,0.14,4.67-0.06c0.51-0.07,1.07-0.19,1.41-0.57
		C20.71,41.16,20.78,40.63,20.82,40.16z M21.45,24.76c-0.01,0-0.01,0-0.02-0.01c-0.05-0.03-0.09-0.05-0.14-0.06
		c-0.1-0.03-0.25-0.07-0.38-0.25c-0.12-0.17-0.4-0.22-0.65-0.27c-1.28-0.24-2.52-0.65-3.68-1.22c-0.07-0.04-0.15-0.07-0.23-0.12
		c0,0.03,0,0.06,0,0.09c0.54,0.97,0.88,2.06,1.01,3.16c0,0.03,0,0.06,0,0.08c1.16-0.14,2.33-0.21,3.49-0.2
		C21.1,25.63,21.29,25.2,21.45,24.76z M21.54,16.23c0.12-1.36,0.15-2.74,0.12-4.1c-0.18,0.18-0.36,0.36-0.51,0.54
		c-1.49,1.62-2.76,3.42-3.99,5.31c1.16-0.65,2.42-1.14,3.75-1.45c0.22-0.05,0.43-0.09,0.65-0.13
		C21.54,16.36,21.53,16.31,21.54,16.23z M21.9,23.51c0.01-0.03,0.03-0.06,0.05-0.08c-0.12-0.21-0.23-0.41-0.34-0.62
		c-0.16-0.33-0.38-0.69-0.71-0.87c-0.29-0.16-0.65-0.17-1-0.18l-0.09,0c-0.89-0.03-1.79-0.16-2.66-0.39
		c-0.3-0.08-0.65-0.19-0.89-0.45c-0.22-0.24-0.3-0.55-0.32-0.86c-0.17,0.2-0.31,0.43-0.4,0.68c-0.02,0.08-0.04,0.16-0.05,0.25
		c-0.01,0.07-0.01,0.14-0.01,0.22c0,0.01,0.01,0.02,0.01,0.03c0.07,0.33,0.3,0.58,0.47,0.73c0.24,0.22,0.55,0.37,0.84,0.51
		c1.13,0.55,2.32,0.95,3.55,1.18c0.32,0.06,0.73,0.14,0.97,0.47c0.03,0.04,0.04,0.05,0.11,0.07c0.05,0.01,0.11,0.03,0.19,0.07
		c0.01-0.02,0.01-0.04,0.02-0.07C21.73,23.96,21.81,23.73,21.9,23.51z M25.2,29c-0.29-0.58-0.58-1.16-0.9-1.73
		c-0.05-0.04-0.09-0.11-0.09-0.17c-0.15-0.29-0.31-0.57-0.47-0.85c-0.28-0.48-0.59-0.95-0.9-1.42c-0.19-0.29-0.38-0.58-0.56-0.87
		c-0.05,0.13-0.09,0.27-0.14,0.4c-0.25,0.73-0.53,1.55-1.04,2.14C22.51,27.26,23.88,28.1,25.2,29z M25.34,30.35
		c0.1-0.14,0.13-0.39,0.07-0.58c-0.06-0.04-0.12-0.09-0.19-0.14c-0.08-0.06-0.17-0.11-0.25-0.17c-0.07-0.01-0.15-0.02-0.22-0.02
		c-0.14,0-0.27,0.02-0.36,0.07c-0.09,0.06-0.17,0.18-0.19,0.32c-0.04,0.29,0.12,0.6,0.38,0.71C24.84,30.67,25.18,30.58,25.34,30.35z
		 M26.54,25.84c0.07-0.14,0.08-0.33-0.07-0.48c-0.07-0.07-0.18-0.11-0.28-0.11c-0.08,0-0.16,0.02-0.23,0.07
		c-0.15,0.11-0.18,0.31-0.15,0.46c0.01,0.06,0.08,0.27,0.31,0.3C26.33,26.12,26.47,25.98,26.54,25.84z M26.89,45.95
		c0.16-0.35,0.17-0.8,0.15-1.24l-0.06-2.6c-0.02-0.72-0.04-1.45-0.07-2.18c-0.08-2-0.24-3.62-0.51-5.13
		c-0.09-0.49-0.07-0.92-0.04-1.37c0-0.11,0.01-0.22,0.01-0.33c0.02-0.55-0.1-1.12-0.22-1.68c-0.04-0.2-0.08-0.38-0.12-0.58
		c-0.04-0.2-0.07-0.4-0.16-0.57c-0.03-0.06-0.07-0.12-0.12-0.18c-0.01,0.16-0.07,0.32-0.15,0.44c-0.17,0.26-0.48,0.41-0.8,0.41
		c-0.13,0-0.26-0.03-0.38-0.08c-0.39-0.17-0.64-0.64-0.57-1.07c0.04-0.24,0.17-0.44,0.35-0.56c0.07-0.04,0.17-0.07,0.27-0.09
		c-1.26-0.85-2.58-1.64-3.93-2.34c-0.07-0.04-0.13-0.11-0.14-0.2s0.02-0.17,0.09-0.22c0.02-0.02,0.04-0.05,0.07-0.07
		c-1.07,0-2.14,0.06-3.2,0.2c-0.02,0.37-0.09,0.76-0.16,1.11c-0.04,0.18-0.07,0.36-0.1,0.53c-0.3,1.93-0.65,4.1-1.09,6.39
		c0.99-0.08,1.97,0.04,2.93,0.15l2.1,0.26c0.08,0.01,0.14,0.08,0.15,0.16l0.01,0.39c0.04,1.6,0.07,3.11-0.05,4.69
		c-0.04,0.52-0.12,1.12-0.5,1.55c-0.41,0.46-1.04,0.61-1.61,0.68c-0.78,0.11-1.57,0.14-2.36,0.14c-0.81,0-1.62-0.04-2.41-0.07
		c-0.01,0-0.02,0-0.03-0.01c-0.07,0.25-0.14,0.5-0.21,0.74c0.01,0.06,0,0.11-0.02,0.16c-0.07,0.2-0.12,0.42-0.18,0.65
		c-0.03,0.11-0.05,0.22-0.08,0.34c3.65,1,7.4,1.55,11.17,1.67C25.58,46.02,26.23,46,26.89,45.95z M27.97,16.34
		c0.01-0.03,0.01-0.04,0.01-0.08c-0.13-1.47-0.16-2.96-0.11-4.44c-0.29-0.26-0.6-0.5-0.93-0.71c-0.43-0.27-1.07-0.56-1.79-0.58
		c-0.04,0.01-0.07,0.01-0.11,0.01c-0.04-0.01-0.07,0-0.1,0c-0.04,0-0.07,0-0.11,0c-0.04,0-0.07,0-0.11-0.01
		c-0.72,0.02-1.36,0.32-1.79,0.58c-0.33,0.21-0.65,0.45-0.93,0.71c0.05,1.48,0.01,2.97-0.11,4.44c0,0.05,0,0.06,0,0.09
		c0,0,0,0.01,0,0.01c0.82-0.11,1.64-0.13,2.46-0.12C25.54,16.11,26.76,16.15,27.97,16.34z M28.3,16.4c1.54,0.29,3.04,0.81,4.39,1.57
		c-1.22-1.88-2.49-3.69-3.98-5.31c-0.16-0.17-0.33-0.36-0.52-0.54c-0.03,1.37,0,2.75,0.12,4.1C28.31,16.31,28.31,16.36,28.3,16.4z
		 M33.5,22.93c-0.01-0.03-0.01-0.06-0.01-0.09c-0.07,0.04-0.15,0.08-0.22,0.12c-2.27,1.11-5,1.65-7.9,1.59
		c-0.11,0.53-0.24,1.06-0.38,1.59c0.21,0,0.41,0,0.6,0c-0.06-0.08-0.1-0.16-0.12-0.26c-0.08-0.32,0.03-0.65,0.28-0.81c0,0,0,0,0,0
		c0.28-0.19,0.69-0.16,0.94,0.07c0.23,0.22,0.29,0.56,0.14,0.87c-0.01,0.03-0.03,0.06-0.05,0.09c0.12-0.01,0.23-0.01,0.35-0.02
		c0.54-0.03,1.1-0.07,1.7-0.08c1.21-0.02,2.44,0.05,3.64,0.2c0-0.03,0-0.06,0-0.08C32.62,24.98,32.97,23.9,33.5,22.93z M33.33,20.7
		c0.22-0.24,0.25-0.59,0.23-0.97c-0.05-0.04-0.11-0.09-0.16-0.13c-0.71-0.5-1.62-0.7-2.42-0.88c-1.88-0.42-3.8-0.85-5.75-0.9
		c-0.12,0-0.21,0-0.3,0c-0.14,0-0.28,0-0.51,0c-1.87,0.08-3.74,0.5-5.55,0.9c-0.8,0.18-1.72,0.38-2.42,0.88
		c-0.06,0.04-0.11,0.08-0.16,0.13c-0.02,0.37,0.01,0.73,0.23,0.97c0.18,0.2,0.47,0.29,0.73,0.35c0.85,0.22,1.71,0.35,2.59,0.38
		l0.08,0c0.39,0.01,0.79,0.03,1.15,0.22c0.41,0.22,0.65,0.63,0.84,1.01c0.35,0.69,0.79,1.36,1.21,2c0.31,0.47,0.62,0.94,0.91,1.43
		c0.1,0.18,0.2,0.36,0.3,0.54c0.22-0.79,0.42-1.6,0.58-2.41c0.03-0.12,0.14-0.21,0.26-0.21c0.52,0.02,1.04,0.01,1.55-0.01
		c0.31-0.15,0.6-0.39,0.85-0.73c0.13-0.17,0.22-0.36,0.33-0.56c0.21-0.4,0.43-0.82,0.88-1.07c0.36-0.19,0.76-0.21,1.15-0.22l0.08,0
		c0.87-0.03,1.74-0.16,2.59-0.38C32.86,20.98,33.15,20.89,33.33,20.7z M35.52,42.16c-0.64-2.46-1.17-4.92-1.62-7.28
		c-0.98-0.09-1.98,0.03-2.95,0.15l-1.96,0.24l-0.01,0.23c-0.03,1.59-0.07,3.1,0.06,4.66c0.04,0.49,0.1,1,0.41,1.36
		c0.34,0.38,0.9,0.5,1.41,0.57C32.39,42.3,33.98,42.23,35.52,42.16z M34.35,21.24c0-0.01,0.01-0.02,0.01-0.03
		c0-0.07,0-0.15-0.01-0.22c-0.01-0.08-0.03-0.16-0.05-0.25c-0.09-0.25-0.23-0.48-0.4-0.68c-0.02,0.32-0.1,0.62-0.32,0.86
		c-0.24,0.26-0.58,0.37-0.89,0.45c-0.87,0.22-1.76,0.35-2.66,0.39l-0.09,0c-0.35,0.01-0.71,0.02-1,0.18
		c-0.36,0.2-0.55,0.55-0.75,0.93c-0.1,0.2-0.21,0.41-0.36,0.6c-0.14,0.19-0.29,0.35-0.45,0.49c2.06-0.17,3.99-0.67,5.65-1.48
		c0.29-0.14,0.59-0.3,0.83-0.51C34.06,21.82,34.28,21.57,34.35,21.24z M36.09,44.38c-0.03-0.11-0.06-0.22-0.08-0.34
		c-0.05-0.23-0.11-0.45-0.18-0.65c-0.02-0.05-0.03-0.11-0.02-0.16c-0.07-0.25-0.14-0.5-0.2-0.74c-0.01,0-0.02,0-0.03,0.01
		c-0.8,0.04-1.6,0.07-2.41,0.07c-0.79,0-1.57-0.03-2.36-0.14c-0.57-0.08-1.21-0.22-1.62-0.68c-0.38-0.43-0.45-1.03-0.49-1.55
		c-0.13-1.58-0.09-3.1-0.06-4.7l0.01-0.38c0-0.08,0.06-0.15,0.14-0.16l2.1-0.26c0.96-0.12,1.94-0.24,2.93-0.15
		c-0.43-2.29-0.79-4.47-1.09-6.39c-0.03-0.16-0.06-0.34-0.1-0.53c-0.07-0.35-0.15-0.74-0.16-1.11c-1.2-0.15-2.42-0.22-3.63-0.2
		c-0.59,0.01-1.15,0.04-1.69,0.08c-0.75,0.04-1.46,0.08-2.26,0.07c-0.06,0.23-0.12,0.46-0.19,0.69c-0.01,0.03-0.03,0.07-0.05,0.09
		c0.38,0.71,0.75,1.43,1.09,2.15c0.24,0.18,0.45,0.38,0.58,0.65c0.12,0.23,0.17,0.49,0.21,0.71c0.03,0.19,0.07,0.37,0.11,0.56
		c0.13,0.59,0.26,1.2,0.23,1.81c-0.01,0.11-0.01,0.22-0.02,0.33c-0.02,0.42-0.05,0.82,0.03,1.25c0.27,1.53,0.43,3.18,0.51,5.2
		c0.03,0.73,0.05,1.46,0.07,2.19l0.07,2.59c0.01,0.41,0,0.83-0.11,1.21C30.36,45.66,33.25,45.15,36.09,44.38z M38.96,39.98
		c-0.67-3.41-1.55-6.8-2.63-10.1c-0.8-2.46-1.64-4.54-2.55-6.37c-0.41,0.83-0.67,1.73-0.78,2.64c-0.05,0.4,0.05,0.9,0.15,1.37
		c0.04,0.19,0.07,0.37,0.1,0.55c0.56,3.61,1.31,8.08,2.42,12.59C36.79,40.56,37.89,40.33,38.96,39.98z M39.34,42.02
		c-0.1-0.57-0.21-1.14-0.31-1.71c-1.06,0.34-2.16,0.57-3.28,0.67c0.15,0.62,0.32,1.24,0.49,1.87c0.58-0.13,1.12-0.29,1.65-0.43
		C38.35,42.28,38.83,42.14,39.34,42.02z M40.16,42.25c0.04,0.2-0.09,0.4-0.29,0.44c-0.63,0.14-1.21,0.3-1.77,0.47
		c-0.45,0.13-0.92,0.26-1.41,0.38c0.03,0.11,0.05,0.22,0.08,0.32c0.05,0.23,0.1,0.45,0.18,0.65c0.04,0.1,0.03,0.21-0.02,0.31
		c-0.05,0.1-0.14,0.17-0.24,0.2c-3.39,0.95-6.86,1.53-10.35,1.74c-0.07,0.05-0.15,0.09-0.24,0.09c0,0,0,0,0,0
		c-0.39,0-0.77-0.01-1.16-0.02c-0.39,0.01-0.78,0.02-1.16,0.02h0c-0.09,0-0.18-0.04-0.24-0.09c-3.49-0.21-6.96-0.79-10.35-1.74
		c-0.1-0.03-0.19-0.1-0.24-0.2c-0.05-0.1-0.06-0.21-0.02-0.31c0.07-0.2,0.12-0.42,0.18-0.65c0.02-0.11,0.05-0.22,0.08-0.32
		c-0.5-0.12-0.96-0.25-1.41-0.38c-0.57-0.16-1.15-0.33-1.78-0.47c-0.2-0.05-0.33-0.24-0.29-0.44c0.72-4.26,1.76-8.5,3.1-12.61
		c0.85-2.62,1.75-4.84,2.75-6.77c0-0.02-0.01-0.04-0.01-0.06c-0.66-0.42-0.87-1.27-0.78-1.92c0.1-0.72,0.5-1.34,0.82-1.84
		c1.55-2.45,3.1-4.81,5.02-6.9c0.52-0.57,1.16-1.22,1.94-1.69c0.56-0.34,1.43-0.73,2.42-0.69c0.99-0.04,1.85,0.35,2.41,0.69
		c0.77,0.47,1.41,1.12,1.94,1.69c1.92,2.09,3.48,4.45,5.02,6.9c0.32,0.5,0.72,1.13,0.82,1.84c0.09,0.66-0.12,1.51-0.78,1.93
		c0,0.02-0.01,0.04-0.01,0.06c1,1.93,1.89,4.15,2.75,6.77C38.4,33.75,39.44,37.99,40.16,42.25z M33.33,18.96
		c-0.07-0.12-0.15-0.24-0.22-0.36c-0.4-0.63-2.1-1.09-2.77-1.33c-0.94-0.32-2.01-0.66-3.01-0.69c-2.04-0.06-4.34-0.21-6.36,0.26
		c-1.52,0.35-2.94,0.94-4.23,1.75c-0.07,0.12-0.15,0.24-0.23,0.36c0.71-0.39,1.52-0.58,2.24-0.74c1.77-0.39,3.59-0.8,5.43-0.9
		c0.02-0.01,0.05-0.01,0.07-0.01c0.22-0.01,0.44-0.01,0.66-0.01c0.22,0,0.44,0,0.67,0.01c0.02,0,0.05,0,0.07,0.01
		c1.85,0.1,3.66,0.51,5.43,0.9C31.81,18.39,32.62,18.57,33.33,18.96"/>
</g>
</svg>
