<?xml version="1.0" encoding="utf-8"?>
<!-- Generator: Adobe Illustrator 27.3.1, SVG Export Plug-In . SVG Version: 6.00 Build 0)  -->
<svg version="1.1" id="Layer_1" xmlns="http://www.w3.org/2000/svg" xmlns:xlink="http://www.w3.org/1999/xlink" x="0px" y="0px"
	 viewBox="0 0 50 50" style="enable-background:new 0 0 50 50;" xml:space="preserve">
<style type="text/css">
	.st0{fill:none;}
	.st1{stroke:#000000;stroke-miterlimit:10;}
	.st2{stroke:#000000;stroke-width:0.75;stroke-miterlimit:10;}
	.st3{clip-path:url(#SVGID_00000182498530509003334860000015591707440920165272_);}
	.st4{clip-path:url(#SVGID_00000038371130315082167910000003900877357404900766_);}
	.st5{fill:#FFFFFF;}
	.st6{clip-path:url(#SVGID_00000063605317191377321680000017169298184845640347_);}
	.st7{fill:#231F20;}
	.st8{clip-path:url(#SVGID_00000038401911883519077230000004734084677502103691_);}
	.st9{clip-path:url(#SVGID_00000178899598906205688360000001749732772540455848_);}
	.st10{clip-path:url(#SVGID_00000034064877636919396830000015710668507710927277_);}
	.st11{clip-path:url(#SVGID_00000089572556358324365830000004131295244015139232_);}
	.st12{clip-path:url(#SVGID_00000069367840974828080540000016764280626098183826_);}
	.st13{clip-path:url(#SVGID_00000125570986834712450110000007146217151419107752_);}
	.st14{clip-path:url(#SVGID_00000062886481492255385340000011457733192796443068_);}
	.st15{clip-path:url(#SVGID_00000098192918743328924400000015233383990994619292_);}
	.st16{clip-path:url(#SVGID_00000170959867518542419650000001013430639857473161_);}
	.st17{clip-path:url(#SVGID_00000112601055550690093710000014763689875617138109_);}
	.st18{clip-path:url(#SVGID_00000080905094448997808880000009867200822046267565_);}
	.st19{clip-path:url(#SVGID_00000019637132779312964930000010957510178029703810_);}
	.st20{clip-path:url(#SVGID_00000058567054304895592300000005450793509597407662_);}
	.st21{clip-path:url(#SVGID_00000118355336816545557370000018121151543883770000_);}
	.st22{clip-path:url(#SVGID_00000050641612921276346380000004701721353910791609_);}
	.st23{clip-path:url(#SVGID_00000066511453691975145320000006957125889818570656_);}
	.st24{clip-path:url(#SVGID_00000057142400211476891630000015392825878873295492_);}
	.st25{clip-path:url(#SVGID_00000152261225002730785030000012977609242884388794_);}
	.st26{clip-path:url(#SVGID_00000144300911136259372300000006867892738779036848_);}
	.st27{clip-path:url(#SVGID_00000138530886247508465850000003260212628629459591_);}
	.st28{clip-path:url(#SVGID_00000030474541504311129910000014964579827031069068_);}
	.st29{clip-path:url(#SVGID_00000065070664378452953120000000108559288853044906_);}
	.st30{clip-path:url(#SVGID_00000073684120954692327440000011406099301294814628_);}
	.st31{fill-rule:evenodd;clip-rule:evenodd;}
	.st32{clip-path:url(#SVGID_00000163045590088846891750000012323196118454799295_);}
	.st33{clip-path:url(#SVGID_00000056424240877875475410000003554397184944513694_);}
	.st34{stroke:#000000;stroke-width:0.5;stroke-miterlimit:10;}
	.st35{clip-path:url(#SVGID_00000103247267627788972440000011492003533587123108_);}
	.st36{clip-path:url(#SVGID_00000145750148714521228090000002295341136396445355_);}
	.st37{clip-path:url(#SVGID_00000130605456666798951090000010235581050229432464_);}
	.st38{fill:#1A1A1A;}
	.st39{clip-path:url(#SVGID_00000079470442857278391530000007523703486923788426_);}
	.st40{clip-path:url(#SVGID_00000106138319645627092250000001137868668250785201_);}
	.st41{clip-path:url(#SVGID_00000080919540751621650090000005068023247951515051_);}
	.st42{clip-path:url(#SVGID_00000021104106290640700670000002060896094698295445_);}
	.st43{clip-path:url(#SVGID_00000152946959953532509860000002512658812173544087_);}
	.st44{clip-path:url(#SVGID_00000076564199679860155200000013245090960795088528_);}
	.st45{clip-path:url(#SVGID_00000034780859652428922840000015938799699333356416_);}
	.st46{clip-path:url(#SVGID_00000049219860720172997360000004362477850935150489_);}
	.st47{clip-path:url(#SVGID_00000153683788938733654860000004738557629894372762_);}
	.st48{fill:#F1F1F1;}
	.st49{fill:#E8E8E8;}
	.st50{fill:#FEFEFE;}
	.st51{fill:#CCCCCC;}
	.st52{fill:#B3B3B3;}
	.st53{fill:#E6E6E6;}
	.st54{fill:#EBEBEB;}
	.st55{fill:#EEEEEE;}
	.st56{fill:#F8F8F8;}
	.st57{fill:#FBFBFB;}
	.st58{fill:#383838;}
	.st59{fill:#232323;}
	.st60{fill:#F6F6F6;}
	.st61{fill:#535353;}
	.st62{fill:#0A0A0A;}
	.st63{fill:#F5F5F5;}
	.st64{fill:#818181;}
	.st65{fill:#4A4A4A;}
	.st66{fill:#999999;}
	.st67{fill:url(#SVGID_00000175291311538675532140000001117251320931828126_);}
	.st68{fill:url(#SVGID_00000089543883886235778760000005725906311802695823_);}
	.st69{fill:#0E0E0D;}
	.st70{fill:#333333;}
	.st71{fill:#808080;}
	.st72{fill:url(#SVGID_00000158721230803216482040000002050694154246120593_);}
	.st73{fill:#666666;}
	.st74{fill:url(#SVGID_00000064327272182659205770000001430440748461334715_);}
	.st75{fill:url(#SVGID_00000068635089310725793490000004389535882429208452_);}
	.st76{fill:url(#SVGID_00000024685432981560506150000008122995800663558288_);}
	.st77{fill:url(#SVGID_00000029759067544544186230000017619672317907667079_);}
	.st78{fill:url(#SVGID_00000039127274425679840580000002327871853226687364_);}
	.st79{clip-path:url(#SVGID_00000051344163198655646360000018395015953240354738_);}
	.st80{clip-path:url(#SVGID_00000019678421207954042180000001264118577123106215_);}
	.st81{clip-path:url(#SVGID_00000103243589408039841940000005647150011236740496_);}
	.st82{clip-path:url(#SVGID_00000064328805016253587970000015994832064311108533_);}
	.st83{clip-path:url(#SVGID_00000127030817059999088010000010742965205634002618_);}
	.st84{fill:#241F20;stroke:#000000;stroke-width:0.5;stroke-miterlimit:10;}
	.st85{clip-path:url(#SVGID_00000034800519279582614080000003187873021724958907_);}
	.st86{clip-path:url(#SVGID_00000027596623583996837790000006701422835000650134_);}
	.st87{clip-path:url(#SVGID_00000160190024111553012140000015914103124472721297_);}
	.st88{clip-path:url(#SVGID_00000124121338140759016510000012270809264813278376_);}
	.st89{clip-path:url(#SVGID_00000053542290160213846630000003229691440943645076_);}
	.st90{clip-path:url(#SVGID_00000032639672308744368920000014355834242355906748_);}
	.st91{clip-path:url(#SVGID_00000003069363301438391750000016025765683275839674_);}
	.st92{clip-path:url(#SVGID_00000057833236511177890710000011246466160958694308_);}
	.st93{clip-path:url(#SVGID_00000121987766944548412950000009382865091875363257_);}
	.st94{clip-path:url(#SVGID_00000064353917967102421020000009374406239971883394_);}
	.st95{clip-path:url(#SVGID_00000158708486697360838570000005068497048713545130_);}
	.st96{clip-path:url(#SVGID_00000024692481782312323860000009753313021021328256_);}
	.st97{clip-path:url(#SVGID_00000166640386436650070500000009967654918487375011_);}
	.st98{clip-path:url(#SVGID_00000011746785470419506970000003708156563456281734_);}
	.st99{clip-path:url(#SVGID_00000012430621452082520060000000336114668772048769_);}
	.st100{clip-path:url(#SVGID_00000058579744063125499090000009628312903916292777_);}
	.st101{clip-path:url(#SVGID_00000109725850321549400810000011819109874146592657_);}
	.st102{clip-path:url(#SVGID_00000092441398980096771140000005794907962171347389_);}
	.st103{clip-path:url(#SVGID_00000090288548242537464080000017158145638777298056_);}
	.st104{clip-path:url(#SVGID_00000167389158069550740080000013629162694123701136_);}
	.st105{clip-path:url(#SVGID_00000139989900294911427330000010002022569581570955_);}
	.st106{clip-path:url(#SVGID_00000002345694968139450600000014254800363574667911_);}
	.st107{clip-path:url(#SVGID_00000078765856547725552190000009824366480164667299_);}
	.st108{clip-path:url(#SVGID_00000077290585053007415410000006957959724654452923_);}
	.st109{clip-path:url(#SVGID_00000040541939739405976090000002549570486916472246_);}
	.st110{clip-path:url(#SVGID_00000004537138444291810600000010845364323643758014_);}
	.st111{clip-path:url(#SVGID_00000172437190568935689660000016952949122472227503_);}
	.st112{clip-path:url(#SVGID_00000110446339427682180660000014516178760281507772_);}
	.st113{clip-path:url(#SVGID_00000075132324498499340020000012169349813850299822_);}
	.st114{clip-path:url(#SVGID_00000171685482430130584980000003010079972457214642_);}
	.st115{fill:#FFFFFF;stroke:#000000;stroke-miterlimit:10;}
	.st116{clip-path:url(#SVGID_00000179610578795147524330000018255096432552369308_);}
	.st117{clip-path:url(#SVGID_00000170971780071729881100000010630948656643980933_);}
	.st118{fill:none;stroke:#010101;stroke-miterlimit:10;}
	.st119{fill:#010101;stroke:#000000;stroke-miterlimit:10;}
	.st120{clip-path:url(#SVGID_00000148640402609779198580000012599854429893765283_);}
	.st121{fill:#010101;stroke:#010101;stroke-miterlimit:10;}
	.st122{clip-path:url(#SVGID_00000108994172121891115140000008041897389652793789_);}
	.st123{clip-path:url(#SVGID_00000153678351003237710900000007472966609436620178_);}
	.st124{clip-path:url(#SVGID_00000008843197020730622590000016591451178463532952_);}
	.st125{clip-path:url(#SVGID_00000062885233839589966700000005144659963723504565_);}
	.st126{clip-path:url(#SVGID_00000089561689266841942810000010882853143496090300_);}
	.st127{fill:none;stroke:#000000;stroke-width:3;stroke-miterlimit:10;}
	.st128{clip-path:url(#SVGID_00000011722472082226676300000003703232476638784944_);}
	.st129{clip-path:url(#SVGID_00000036969414985603232970000006205055059351896994_);}
	.st130{clip-path:url(#SVGID_00000124848023425923720210000006120554365753412244_);}
	.st131{clip-path:url(#SVGID_00000115513657016747835350000018278994320614993075_);}
	.st132{fill:#040606;}
	.st133{clip-path:url(#SVGID_00000035515464528573641360000016335457864634585267_);}
	.st134{clip-path:url(#SVGID_00000127742529377953516630000005669543731376101520_);}
	.st135{clip-path:url(#SVGID_00000094597814739862877250000015367768568958420655_);}
	.st136{clip-path:url(#SVGID_00000137830464660671643120000003186872358732650401_);}
	.st137{clip-path:url(#SVGID_00000164494999969975050920000008475544494327876028_);}
	.st138{clip-path:url(#SVGID_00000181772098849453114760000017044859011906971801_);}
	.st139{clip-path:url(#SVGID_00000024691840190421806770000014665895674661419429_);}
	.st140{fill:#FFFFFF;stroke:#000000;stroke-width:1.5;stroke-miterlimit:10;}
	.st141{clip-path:url(#SVGID_00000162341825275980534080000002916797083104753551_);}
	.st142{fill:#BDBCBC;}
	.st143{clip-path:url(#SVGID_00000032630156579535775310000006464025285955247270_);}
	.st144{fill:#2E2A2B;}
	.st145{clip-path:url(#SVGID_00000088101033850547096670000008586446977206543505_);}
	.st146{clip-path:url(#SVGID_00000029725088006127280700000001039134057570558399_);}
	.st147{clip-path:url(#SVGID_00000122000003630149485730000000060044180745567638_);}
	.st148{clip-path:url(#SVGID_00000080185836484052668480000007093474055655090332_);}
	.st149{clip-path:url(#SVGID_00000146492668316839087560000018091611358367374214_);}
	.st150{fill:#272324;}
	.st151{clip-path:url(#SVGID_00000155831548346176045250000002076519469708961666_);}
	.st152{clip-path:url(#SVGID_00000160870592795890663160000003470853193673411240_);}
	.st153{clip-path:url(#SVGID_00000075876074378667606250000010694465528517312898_);}
	.st154{clip-path:url(#SVGID_00000116929184113544915060000006060860997666259614_);}
	.st155{clip-path:url(#SVGID_00000072981895284770460410000005133395298456064416_);}
	.st156{clip-path:url(#SVGID_00000010304764686499322620000001324453932612155008_);}
	.st157{fill:none;stroke:#000000;stroke-width:0.8735;stroke-linecap:round;stroke-linejoin:round;stroke-miterlimit:10;}
	.st158{clip-path:url(#SVGID_00000076586051789064769740000014677409623118167724_);}
	.st159{clip-path:url(#SVGID_00000050658127302930368600000017746947554949955238_);}
	.st160{clip-path:url(#SVGID_00000124873030699057534930000007352433007320481194_);}
	.st161{clip-path:url(#SVGID_00000172425921260499562300000002616845103016123266_);}
	.st162{clip-path:url(#SVGID_00000098903028707152798540000004353820490673245855_);}
	.st163{clip-path:url(#SVGID_00000106840923237029114020000011150394395394043051_);}
	.st164{clip-path:url(#SVGID_00000069371270472800054940000006190605576145078203_);}
	.st165{clip-path:url(#SVGID_00000150094562538091396260000008788924097328518530_);}
	.st166{clip-path:url(#SVGID_00000106851351022282478050000012737490378436045234_);}
	.st167{clip-path:url(#SVGID_00000122721929885668882750000017482932389003881860_);}
	.st168{clip-path:url(#SVGID_00000177466699743624122220000002082102146452073367_);}
	.st169{clip-path:url(#SVGID_00000003827714009202574000000018260958019186762422_);}
	.st170{clip-path:url(#SVGID_00000140692556566759356860000000275596950322691507_);}
	.st171{clip-path:url(#SVGID_00000034047934686047867190000015530383007049874610_);}
	.st172{clip-path:url(#SVGID_00000070796633104789015590000003362289777679935419_);}
	.st173{clip-path:url(#SVGID_00000124860259593674503500000017759609045928170173_);}
	.st174{clip-path:url(#SVGID_00000042732583339850452150000006833428550463454628_);}
	.st175{clip-path:url(#SVGID_00000080196690668671353130000003484514089208485040_);}
	.st176{clip-path:url(#SVGID_00000072279916369768410560000004949613019855888271_);}
	.st177{clip-path:url(#SVGID_00000158026065315330528950000013510641782029437339_);}
	.st178{clip-path:url(#SVGID_00000011724378728075892320000004862149008750647443_);}
	.st179{clip-path:url(#SVGID_00000139283154956716856080000003697875566636910495_);}
	.st180{clip-path:url(#SVGID_00000171677346129042165160000002448975268454405538_);}
	.st181{clip-path:url(#SVGID_00000160182083687297936070000006127496065120330116_);}
	.st182{clip-path:url(#SVGID_00000085226995788821006580000015659635791402040255_);}
	.st183{clip-path:url(#SVGID_00000076565273218952857090000006912894331873654407_);}
	.st184{clip-path:url(#SVGID_00000056417087984613331280000007285555098465093289_);}
	.st185{clip-path:url(#SVGID_00000141455714608768769120000006674284952419434130_);}
	.st186{clip-path:url(#SVGID_00000053508490639998575680000016358436432722770590_);}
	.st187{clip-path:url(#SVGID_00000046303182497857668760000016696347523375706790_);}
	.st188{clip-path:url(#SVGID_00000183240866182676016960000010100623311971737247_);}
	.st189{clip-path:url(#SVGID_00000134217128679379095430000013652995587497834886_);}
	.st190{clip-path:url(#SVGID_00000046335672280919331230000017082831362396441760_);}
	.st191{clip-path:url(#SVGID_00000017499800096148427610000000298510728417508796_);}
	.st192{clip-path:url(#SVGID_00000018940281030338137730000011963571754343752847_);}
	.st193{clip-path:url(#SVGID_00000116931868113100850200000006299540568640664449_);}
	.st194{clip-path:url(#SVGID_00000098928864623653341130000000575288633486766778_);}
	.st195{clip-path:url(#SVGID_00000054978795907972191760000003784949246717427083_);}
	.st196{fill:#E5E5E5;}
	.st197{fill:#1D1D1B;}
	.st198{fill:none;stroke:#000000;stroke-miterlimit:10;}
	.st199{fill:#FEFEFE;stroke:#000000;stroke-miterlimit:10;}
	.st200{clip-path:url(#SVGID_00000062152237269867976380000001389981013858699179_);}
	.st201{clip-path:url(#SVGID_00000004531305674210840040000011918986868351718278_);}
	.st202{clip-path:url(#SVGID_00000034061676126760232840000017548133138370897293_);}
	.st203{fill:#231F1F;}
	.st204{fill:#020000;}
	.st205{clip-path:url(#SVGID_00000149363279836535454110000002470462096755022722_);}
	.st206{clip-path:url(#SVGID_00000062152953706987292850000016894998464689991296_);}
	.st207{clip-path:url(#SVGID_00000109006593807008821300000017847930448834187191_);}
	.st208{clip-path:url(#SVGID_00000131326472206304748600000003918535884188510126_);}
	.st209{fill:#050000;}
	.st210{clip-path:url(#SVGID_00000177454909863012644110000016348431730036096660_);}
	.st211{clip-path:url(#SVGID_00000162320858193895577450000016269741118748509058_);}
	.st212{clip-path:url(#SVGID_00000031898930853668743000000013332288043194514616_);}
	.st213{clip-path:url(#SVGID_00000054973189327078812810000013647022027654364067_);}
	.st214{clip-path:url(#SVGID_00000001661493629961119880000008716875696943553197_);}
	.st215{clip-path:url(#SVGID_00000124842979708857735830000002088949357326974911_);}
	.st216{fill:#12100F;}
	.st217{clip-path:url(#SVGID_00000043442565334467474790000014105630344953686680_);}
	.st218{clip-path:url(#SVGID_00000101067715896082468270000004207799332651774393_);}
	.st219{fill:none;stroke:#000000;stroke-width:0.5;stroke-miterlimit:10;}
	.st220{clip-path:url(#SVGID_00000048471855164411195600000016333658344214055356_);}
	.st221{clip-path:url(#SVGID_00000055681834852028677950000000506176167013698954_);}
	.st222{clip-path:url(#SVGID_00000091007081308471463590000010102522068832124849_);}
	.st223{clip-path:url(#SVGID_00000068656406752140363600000004774526555670633096_);}
	.st224{fill:none;stroke:#000000;stroke-width:0.25;stroke-miterlimit:10;}
	.st225{clip-path:url(#SVGID_00000132778625188984328530000001254388874920009637_);}
	.st226{clip-path:url(#SVGID_00000055666140628821361120000003519862964875707543_);}
	.st227{clip-path:url(#SVGID_00000046318042076033228610000009669754153083608707_);}
</style>
<g>
	<path d="M31.98,29.62c0-0.02-0.02-0.02-0.04-0.02l-1.12,0.32c-0.02,0-0.04,0.02-0.02,0.03c0.14,0.77,0.29,1.55,0.42,2.31
		c0.09,0.49,0.2,0.91,0.32,1.27c0.36,1.01,0.75,2.01,1.1,3c0,0,0,0.02,0.02,0l1.15-0.36c0.02,0,0.02-0.02,0.02-0.03L31.98,29.62z"/>
	<path d="M18.23,29.93l-1.12-0.31c-0.02,0-0.03,0-0.03,0.02l-1.87,6.54c0,0.02,0,0.03,0.03,0.05l1.16,0.36h0.02
		c0.02-0.03,0.02-0.07,0.03-0.1c0.32-0.91,0.65-1.81,0.99-2.71c0.17-0.49,0.32-1.01,0.42-1.58c0.14-0.72,0.27-1.47,0.41-2.19
		C18.27,29.96,18.25,29.95,18.23,29.93z"/>
	<path d="M44.2,42.17c-0.04-0.14-0.09-0.28-0.15-0.43c-0.06-0.17-0.12-0.34-0.17-0.51c0.18-0.14,0.3-0.31,0.35-0.51
		c0.04-0.14,0.04-0.35,0.01-0.66c-0.17-1.52-0.39-3.06-0.66-4.58c-0.15-0.87-0.35-1.7-0.57-2.66l-0.16-0.68
		c-0.85-3.71-2.09-7.4-3.68-10.96c-0.61-1.35-1.22-2.65-2.04-3.7c-0.73-0.91-1.65-1.62-2.81-2.17c-0.86-0.41-1.78-0.81-2.74-1.17
		c-0.35-0.14-0.72-0.27-1.21-0.42c-0.65-1.53-2.21-2.58-4.07-2.73c-0.22-0.02-0.41-0.03-0.57-0.04c-0.1,0-0.2-0.01-0.29-0.02
		c-0.55-0.01-1.74-0.02-2.68,0.05c-1.85,0.13-3.41,1.17-4.08,2.7c-0.74,0.24-1.48,0.54-2.12,0.81c-0.77,0.33-1.5,0.67-2.22,1.03
		c-1.39,0.73-2.49,1.82-3.26,3.26c-0.51,0.92-1,1.91-1.43,2.93c-1.1,2.5-2.04,5.18-2.79,7.97c-0.48,1.83-0.87,3.48-1.19,5.05
		c-0.38,1.88-0.63,3.84-0.84,5.53c-0.05,0.41,0.08,0.73,0.38,0.95c-0.05,0.14-0.1,0.29-0.14,0.43c-0.05,0.16-0.11,0.32-0.16,0.49
		c-0.06,0.19-0.19,0.59,0.15,0.88c0.09,0.09,0.25,0.15,0.53,0.21c0.43,0.1,0.87,0.2,1.3,0.3c0.82,0.19,1.67,0.39,2.5,0.56
		c0.34,0.08,0.64-0.02,0.8-0.26c0.05-0.08,0.09-0.21,0.13-0.38l0.29-1.28c0.51-0.15,0.87-0.62,0.94-1.22l0.02-0.21
		c0.08-0.77,0.15-1.53,0.25-2.3c0.12-1.05,0.29-1.95,0.47-2.91c0.05-0.25,0.09-0.5,0.14-0.75c0.22-1.21,0.57-2.58,0.93-3.92
		c-0.02,1.06-0.01,2.12-0.01,3.15l0,0.92c0,0.52-0.01,1.04-0.02,1.56c-0.01,0.53-0.02,1.06-0.02,1.59c0,0.52,0.24,1.07,0.72,1.22
		c0.03,0.37,0.06,0.73,0.09,1.11c0.02,0.19,0.04,0.31,0.08,0.39c0.13,0.31,0.42,0.5,0.76,0.5h5.68c0.06,0,0.12-0.01,0.18-0.03
		c0.05-0.01,0.1-0.02,0.15-0.02h7.18c0.06,0,0.11,0.01,0.16,0.02c0.07,0.01,0.14,0.03,0.21,0.03h5.53c0.37,0,0.65-0.15,0.8-0.43
		c0.06-0.11,0.1-0.26,0.13-0.48c0.03-0.35,0.06-0.71,0.09-1.09c0.52-0.13,0.77-0.67,0.79-1.15c0.01-0.42,0-0.96-0.01-1.52
		c-0.01-0.37-0.01-0.74-0.01-1.08c0-1.96,0-3.33-0.03-4.8c0.48,1.76,0.83,3.31,1.13,4.98l0.02,0.12c0.11,0.62,0.22,1.21,0.3,1.83
		c0.14,1.12,0.26,2.24,0.36,3.35c0.04,0.53,0.4,0.98,0.89,1.15c0.12,0.48,0.23,0.91,0.32,1.35c0.1,0.49,0.42,0.59,0.71,0.59
		c0.15,0,0.29-0.03,0.4-0.05c1.04-0.23,2.08-0.47,3.11-0.71l0.59-0.14c0.28-0.07,0.57-0.19,0.64-0.58
		C44.29,42.52,44.27,42.35,44.2,42.17z M43.92,42.58c-0.03,0.16-0.12,0.23-0.37,0.29l-0.59,0.14c-1.04,0.24-2.07,0.48-3.11,0.71
		c-0.52,0.1-0.63,0-0.69-0.27c-0.1-0.47-0.21-0.93-0.34-1.44l0-0.03l-0.11-0.14h-0.07c-0.38-0.12-0.65-0.45-0.68-0.85
		c-0.1-1.11-0.22-2.24-0.36-3.36c-0.08-0.62-0.19-1.22-0.3-1.84l-0.02-0.12c-0.37-2.09-0.82-3.98-1.51-6.33
		c-0.05-0.15-0.14-0.17-0.21-0.16c-0.07,0.01-0.15,0.06-0.15,0.22c0.07,2.05,0.07,3.6,0.07,6.15c0,0.34,0.01,0.71,0.01,1.08
		c0.01,0.56,0.02,1.1,0.01,1.51c-0.01,0.36-0.2,0.77-0.56,0.82c-0.12,0-0.22,0.1-0.22,0.2c-0.03,0.4-0.07,0.81-0.1,1.19
		c-0.02,0.2-0.05,0.29-0.08,0.34c-0.09,0.16-0.25,0.24-0.49,0.24H28.5c-0.05,0-0.09-0.01-0.14-0.02c-0.07-0.01-0.15-0.03-0.23-0.03
		h-7.18c-0.08,0-0.16,0.02-0.23,0.03c-0.04,0.01-0.08,0.02-0.1,0.02h-5.68c-0.19,0-0.36-0.1-0.44-0.29
		c-0.02-0.05-0.04-0.21-0.05-0.27c-0.04-0.4-0.07-0.81-0.1-1.2L14.34,39l-0.16-0.02c-0.39-0.05-0.54-0.58-0.54-0.9
		c0-0.53,0.01-1.06,0.02-1.59c0.01-0.52,0.02-1.05,0.02-1.57l0-0.92c0-1.52,0-3.09,0.05-4.63c0-0.16-0.08-0.21-0.15-0.22
		c-0.07-0.01-0.16,0.01-0.22,0.17c-0.09,0.35-0.18,0.7-0.28,1.06c-0.39,1.47-0.79,2.98-1.03,4.32c-0.05,0.25-0.09,0.5-0.14,0.75
		c-0.18,0.96-0.35,1.88-0.47,2.94c-0.09,0.77-0.17,1.53-0.25,2.31l-0.02,0.21c-0.04,0.36-0.26,0.81-0.74,0.92l-0.04,0l-0.14,0.11
		l-0.3,1.43c-0.04,0.18-0.07,0.25-0.07,0.26c-0.11,0.16-0.35,0.12-0.42,0.11c-0.84-0.17-1.68-0.36-2.5-0.56
		c-0.43-0.1-0.87-0.2-1.3-0.3c-0.28-0.06-0.34-0.11-0.36-0.13c-0.12-0.1-0.13-0.23-0.05-0.5c0.06-0.17,0.11-0.33,0.17-0.49
		c0.05-0.17,0.11-0.33,0.17-0.5c0.04-0.07,0.04-0.17-0.05-0.26l-0.03-0.02c-0.26-0.17-0.35-0.37-0.31-0.67
		c0.2-1.68,0.45-3.63,0.83-5.5c0.31-1.56,0.7-3.21,1.18-5.03c0.75-2.77,1.68-5.43,2.78-7.92c0.43-1.02,0.91-1.99,1.42-2.9
		c0.74-1.38,1.79-2.42,3.11-3.11c0.72-0.36,1.43-0.7,2.19-1.02c0.64-0.26,1.38-0.56,2.15-0.82c0.07-0.03,0.11-0.08,0.15-0.16
		c0.62-1.43,2.07-2.39,3.78-2.51c0.93-0.07,2.1-0.06,2.64-0.05c0.08,0.01,0.18,0.01,0.29,0.02c0.16,0.01,0.34,0.01,0.56,0.03
		c1.73,0.14,3.18,1.1,3.76,2.49c0.03,0.08,0.09,0.18,0.23,0.21c0.47,0.15,0.83,0.28,1.18,0.42c0.95,0.36,1.86,0.75,2.72,1.16
		c1.11,0.53,1.99,1.21,2.68,2.07c0.8,1.02,1.4,2.29,2,3.62c1.58,3.54,2.81,7.21,3.66,10.9l0.16,0.68c0.22,0.96,0.42,1.79,0.57,2.65
		c0.27,1.52,0.49,3.05,0.66,4.56c0.03,0.26,0.03,0.43,0,0.52c-0.04,0.14-0.13,0.27-0.27,0.36l-0.1,0l-0.03,0.14
		c-0.01,0.05,0,0.12,0.05,0.17c0.05,0.19,0.12,0.38,0.19,0.56c0.05,0.14,0.1,0.28,0.15,0.43C43.91,42.43,43.92,42.54,43.92,42.58z"
		/>
	<path d="M24.54,40.32c-0.61-0.36-0.78-0.56-0.79-0.61V23.23c0-0.37,0-0.66,0.03-0.83c0.07-0.41,0.19-0.77,0.36-1.11
		c0.02-0.04,0.04-0.1,0.02-0.17c0,0-2.07-2.71-2.2-3.03c-0.07-0.13-0.12-0.27-0.15-0.42c-0.13,0.11-0.24,0.2-0.25,0.21l-0.06-0.02
		l-0.08,0.06c-0.65,0.48-1.33,0.88-2.07,1.21c-0.27,0.12-0.57,0.14-0.79,0.05c-0.17-0.07-0.3-0.2-0.37-0.39
		c-0.06-0.17-0.06-0.46-0.04-0.67c0.1-1.18,0.29-2.29,0.57-3.4l0.01-0.02l-0.02-0.22H18.5l-0.06,0.01
		c-0.65,0.23-1.29,0.48-1.91,0.75c-1.01,0.44-1.93,0.91-2.72,1.4l-0.06,0.06h-0.03l-0.41,0.34c-0.05,0.03-0.09,0.09-0.1,0.15l0,0.12
		l0.01,0.01h-0.16l-0.14,0.17c-0.38,0.47-0.72,0.88-1.1,1.52c-0.37,0.59-0.76,1.34-1.16,2.23c-1.08,2.33-1.98,4.7-2.74,7.24
		c-0.79,2.59-1.39,5.38-1.8,8.29l-0.35,2.63c-0.02,0.05-0.02,0.11-0.02,0.16L5.7,39.6l-0.1,0.77c0,0.14,0.08,0.25,0.23,0.3
		c1.46,0.3,2.92,0.61,4.36,0.91c0.03,0.01,0.05,0.01,0.08,0.01c0.07,0,0.14-0.02,0.2-0.07c0.21-0.16,0.29-0.57,0.32-0.86l0.02-0.16
		c0.42-3.72,0.88-6.81,1.78-9.84c0.41-1.39,0.7-2.29,0.91-2.91l0.09-0.25c0.29-0.81,0.6-1.65,0.8-2.47c0.28-1.2,0.3-2.51,0.05-3.9
		c-0.22-1.23-0.57-2.4-1.03-3.48c0.53,0.95,0.9,1.8,1.16,2.64c0.52,1.63,0.59,3.34,0.2,4.96c-0.18,0.73-0.42,1.41-0.67,2.14
		l-0.03,0.08c-0.02,0.06-0.04,0.12-0.04,0.2v10.89l0.02,0.2h6.34c0.19,0,0.26,0.08,0.31,0.18c0,0,0.03,0.05,0.03,0.26
		c0,0.21,0,0.42-0.01,0.64c-0.01,0.22-0.01,0.43-0.01,0.65l0.02,0.2l0.18,0c1.14-0.02,2.29-0.02,3.45,0
		c0.27,0.05,0.31-0.09,0.32-0.15C24.71,40.44,24.65,40.36,24.54,40.32z M10.26,41.22c-1.43-0.3-2.87-0.6-4.29-0.89l0.05-0.4
		c0.34,0.08,0.69,0.22,1.04,0.35c0.3,0.11,0.61,0.23,0.89,0.31c0.72,0.2,1.49,0.26,2.46,0.18C10.37,41.01,10.3,41.18,10.26,41.22z
		 M7.37,40c0.04,0.01,0.08,0.02,0.12,0.02c0.43,0.09,0.74,0.2,1.09,0.32c-0.18-0.03-0.35-0.07-0.52-0.12
		C7.83,40.17,7.6,40.09,7.37,40z M14.09,21.19c0.23,1.34,0.22,2.61-0.05,3.75c-0.2,0.8-0.5,1.63-0.79,2.43l-0.09,0.25l0,0
		c-0.22,0.62-0.5,1.52-0.92,2.92c-0.89,3.01-1.36,6.08-1.77,9.76c-0.39,0-0.78-0.01-1.15-0.1c-0.13-0.04-0.3-0.09-0.51-0.16
		c-0.4-0.15-0.75-0.27-1.25-0.38c-0.44-0.08-0.92-0.14-1.45-0.18l0.35-2.65c0.41-2.9,1.01-5.67,1.79-8.24
		c0.76-2.53,1.65-4.88,2.72-7.2c0.4-0.88,0.79-1.61,1.14-2.19c0.34-0.57,0.63-0.94,0.98-1.36C13.55,18.88,13.88,20.01,14.09,21.19z
		 M22.27,19.31c0.34,0.42,0.7,0.82,1.07,1.18c-0.19-0.15-0.37-0.31-0.55-0.47c-0.31-0.28-0.56-0.62-0.75-1.03
		C22.1,19.1,22.18,19.2,22.27,19.31z M13.61,17.27l0.13-0.11c0.06,0.13,0.12,0.25,0.17,0.36l0.05,0.12c0.35,0.83,0.7,1.68,0.95,2.54
		C14.63,19.25,14.21,18.33,13.61,17.27z M21.08,40.32c0-0.16,0.01-0.31,0.01-0.47c0-0.22,0.01-0.43,0.01-0.64
		c0-0.23-0.03-0.38-0.09-0.45c-0.08-0.16-0.26-0.35-0.62-0.35h-6V27.67c0-0.02,0.01-0.05,0.02-0.1l0.02-0.07
		c0.25-0.74,0.5-1.43,0.68-2.17c0.21-0.86,0.29-1.74,0.25-2.63c0,0-0.6-4.85-1.23-5.83c0.75-0.45,1.6-0.88,2.53-1.29
		c0.52-0.22,1.05-0.43,1.6-0.63c-0.25,1.03-0.41,2.06-0.51,3.15c-0.01,0.15-0.03,0.54,0.06,0.82c0.11,0.28,0.31,0.49,0.57,0.6
		c0.32,0.13,0.71,0.11,1.08-0.06c0.69-0.31,1.32-0.67,1.93-1.11c0.23,0.81,0.61,1.46,1.13,1.93c0.37,0.34,0.78,0.66,1.21,0.95
		c-0.16,0.33-0.27,0.69-0.33,1.09c-0.04,0.2-0.04,0.49-0.04,0.89v16.48c0,0.08,0,0.25,0.49,0.61C22.94,40.31,22,40.31,21.08,40.32z"
		/>
	<path d="M30.45,18.26c-0.11-1.04-0.27-2.05-0.48-2.98c-0.05-0.29-0.13-0.6-0.24-0.93c-0.35-1.02-1.07-1.74-2.26-2.25l-0.1-0.09
		l-0.12,0.09c0,0,0.54,0.57,0.52,0.54c0.84,0.45,1.35,1.03,1.62,1.83c0.11,0.31,0.19,0.6,0.23,0.88c0.21,0.93,0.37,1.92,0.47,2.95
		c0.01,0.06,0,0.09,0,0.1c-0.03,0-0.12-0.01-0.36-0.14c-0.58-0.34-1.96-1.09-2.17-1.09c-0.01,0-0.03,0-0.04,0
		c0.61,0.47,1.3,0.98,2.04,1.4c0.18,0.1,0.37,0.18,0.53,0.18c0.07,0,0.14-0.02,0.21-0.06C30.42,18.61,30.47,18.46,30.45,18.26z"/>
	<path d="M43.37,39.76c0-0.03,0-0.05-0.01-0.07l0-0.03c-0.18-1.69-0.4-3.26-0.65-4.68c-0.89-5-2.46-9.86-4.68-14.45
		c-0.59-1.22-1.23-2.22-1.95-3.06l-0.01-0.12l-0.28,0.01V17.3c0-0.05,0-0.13-0.08-0.21l-0.35-0.28c-0.02-0.02-0.04-0.03-0.07-0.04
		c-0.02-0.04-0.05-0.07-0.09-0.11c-1.25-0.78-2.59-1.35-3.62-1.75l-0.22-0.09c-0.26-0.11-0.52-0.21-0.79-0.3l-0.06,0.17l-0.18,0
		v0.13l0.03,0.01c0.25,1.01,0.43,2.03,0.55,3.1l0.01,0.11c0.03,0.33,0.06,0.67-0.1,0.9c-0.27,0.38-0.72,0.42-1.32,0.13
		c-0.61-0.3-1.22-0.66-1.82-1.08c-0.05-0.05-0.11-0.07-0.17-0.06c-0.01-0.02-0.03-0.05-0.06-0.07l-0.56-0.44l-0.11-0.1l-0.23,0.1
		v0.08c-0.02,0.04-0.04,0.08-0.06,0.12c-0.03,0.06-0.06,0.12-0.09,0.16c-0.44,0.84-0.89,1.6-1.39,2.33c-0.1,0.16-0.2,0.31-0.31,0.47
		c-0.1,0.14-0.19,0.28-0.28,0.42c-0.12,0.18-0.24,0.38-0.38,0.64c-0.05,0.09-0.04,0.15-0.03,0.2c-0.11,0.35-0.16,0.7-0.16,1.1v16.58
		c0,0.16,0.06,0.28,0.19,0.38c0.41,0.29,0.81,0.54,1.2,0.74c0.06,0.04,0.14,0.04,0.16,0.04h2.75l0.2-0.02v-1.23
		c0-0.36,0.02-0.48,0.03-0.5c0.01-0.05,0.04-0.18,0.35-0.18h6.07l0.19-0.02l0.01-0.17c0.02-0.26,0.02-0.42,0.02-0.48
		c0-3.37,0-6.85-0.02-10.21c0-0.2-0.01-0.35-0.1-0.57c-0.3-0.87-0.6-1.8-0.76-2.67c-0.5-2.79,0.55-5.39,1.55-7.12
		c-0.62,1.41-1.01,2.87-1.17,4.33c-0.17,1.41-0.02,2.82,0.45,4.2c0.11,0.31,0.21,0.61,0.32,0.91l0.14,0.39
		c0.98,2.72,1.65,5.12,2.04,7.34c0.3,1.64,0.56,3.54,0.79,5.8c0,0.02,0.01,0.04,0.02,0.07v0.05c0,0.25,0.04,0.7,0.32,0.93
		c0.07,0.06,0.14,0.06,0.17,0.06h0.02l4.48-0.93l0.04-0.02c0.12-0.06,0.18-0.19,0.15-0.29L43.37,39.76z M24.99,20.77
		c0.11-0.16,0.22-0.32,0.31-0.48c0.5-0.74,0.96-1.51,1.41-2.36c0.02-0.05,0.05-0.09,0.07-0.14l0.36,0.28
		c-0.11,0.35-0.37,0.7-0.64,1.04c-0.45,0.58-0.98,1.17-1.57,1.75C24.95,20.83,24.97,20.8,24.99,20.77z M26.96,19.11
		c-0.02,0.04-0.05,0.09-0.07,0.13c-0.22,0.4-0.55,0.74-0.91,1.05c0.29-0.32,0.57-0.65,0.81-0.97C26.85,19.26,26.9,19.19,26.96,19.11
		z M33.38,22.6l0.29,0c-0.04,0.68-0.01,1.38,0.12,2.1c0.16,0.89,0.47,1.84,0.77,2.73c0.06,0.16,0.07,0.25,0.07,0.45
		c0.02,3.36,0.02,6.84,0.02,10.21c0,0.05,0,0.15-0.01,0.31h-5.92c-0.51,0-0.66,0.29-0.7,0.46c-0.02,0.1-0.04,0.31-0.04,0.58v0.88
		H25.4c-0.38-0.19-0.77-0.43-1.15-0.71c-0.04-0.03-0.05-0.05-0.05-0.09V22.93c0-0.37,0.05-0.69,0.15-1.01c0,0,0,0,0,0l0.04-0.02
		c0.43-0.27,0.77-0.49,1-0.67c0.06-0.04,0.11-0.08,0.15-0.11c0.02-0.02,0.04-0.03,0.07-0.05c0.57-0.45,1.22-0.97,1.59-1.64
		c0.19-0.33,0.33-0.67,0.44-1.04c0.58,0.4,1.14,0.72,1.7,1c0.76,0.37,1.39,0.28,1.77-0.24c0.24-0.34,0.2-0.77,0.16-1.14l-0.01-0.11
		c-0.11-1.01-0.27-1.96-0.5-2.92c0.15,0.06,0.3,0.12,0.45,0.18l0.23,0.09c0.99,0.39,2.27,0.93,3.45,1.65
		C34.53,17.41,34.24,18,34,18.67C33.51,20.07,33.31,21.32,33.38,22.6z M34.19,19.95c0.1-0.31,0.21-0.64,0.35-0.99
		c0.21-0.55,0.44-1.12,0.71-1.73c0.01-0.01,0.01-0.03,0.02-0.04l0.13,0.11C34.97,18.04,34.52,18.94,34.19,19.95z M37.82,34.62
		c-0.4-2.24-1.07-4.66-2.06-7.4l-0.14-0.39c-0.11-0.3-0.21-0.6-0.32-0.91c-0.45-1.32-0.6-2.68-0.43-4.04
		c0.15-1.36,0.51-2.71,1.06-4.03c0.65,0.78,1.23,1.71,1.77,2.83c2.2,4.56,3.77,9.39,4.65,14.36c0.24,1.37,0.45,2.88,0.63,4.49
		c-0.35,0.02-0.67,0.05-0.98,0.09c-0.56,0.07-1.14,0.23-1.74,0.46c-0.43,0.16-0.94,0.23-1.66,0.24
		C38.37,38.1,38.11,36.24,37.82,34.62z M41.67,40.04c-0.24,0.09-0.47,0.16-0.7,0.23c-0.14,0.04-0.28,0.07-0.42,0.09
		C40.94,40.21,41.31,40.11,41.67,40.04z M38.8,41.23c-0.08-0.09-0.13-0.25-0.15-0.45c0.99,0.07,1.74,0.01,2.42-0.17
		c0.31-0.08,0.61-0.19,0.93-0.31c0.34-0.12,0.69-0.25,1.04-0.34l0.05,0.37L38.8,41.23z"/>
	<path d="M19.09,18.35c-0.04,0.02-0.11,0.03-0.12,0.04c0,0,0-0.01,0-0.05l0,0c0.08-0.89,0.23-1.84,0.44-2.85
		c0.08-0.4,0.18-0.76,0.3-1.11c0.26-0.77,0.8-1.37,1.59-1.78c-0.03,0.06,0.24-0.03,0.45-0.07c0,0,0,0,0,0
		c0.03-0.06,0.07-0.12,0.1-0.18c0.07-0.13,0.01-0.21-0.02-0.24l-0.16-0.06l-0.15,0.06c-1.1,0.45-1.82,1.18-2.16,2.17
		c-0.13,0.36-0.23,0.74-0.31,1.15c-0.21,1.01-0.36,1.99-0.44,2.89c-0.02,0.22,0.09,0.33,0.15,0.38c0.07,0.04,0.14,0.06,0.22,0.06
		c0.11,0,0.22-0.04,0.28-0.07c0.85-0.46,1.59-0.99,2.21-1.46c-0.21-0.02-0.41-0.06-0.58-0.14C20.92,17.09,19.8,17.97,19.09,18.35z"
		/>
	<polygon points="38.48,42.13 38.48,42.13 38.48,42.13 	"/>
	<path d="M34.97,39.31c-0.01,0-0.02,0-0.03,0C34.95,39.32,34.96,39.32,34.97,39.31z"/>
	<path d="M35.06,39.17c0,0.01,0,0.02,0,0.03C35.06,39.19,35.06,39.18,35.06,39.17z"/>
	<path d="M24.34,21.93L24.34,21.93C24.33,21.94,24.33,21.94,24.34,21.93C24.34,21.93,24.34,21.93,24.34,21.93z"/>
	<polygon points="10.26,41.22 10.23,41.4 10.27,41.22 	"/>
	<path d="M22.18,17.62C22.19,17.62,22.19,17.63,22.18,17.62L22.18,17.62z"/>
	<rect x="4.92" y="11.09" class="st0" width="39.22" height="32.89"/>
	<path d="M25.48,23.37c0,0.13-0.05,0.24-0.14,0.33s-0.2,0.14-0.34,0.14c-0.13,0-0.24-0.05-0.34-0.14s-0.14-0.2-0.14-0.33
		c0-0.13,0.05-0.24,0.14-0.33s0.2-0.14,0.34-0.14c0.13,0,0.24,0.05,0.34,0.14S25.48,23.24,25.48,23.37z"/>
	<path d="M25.48,28.68c0,0.13-0.05,0.24-0.14,0.33s-0.2,0.14-0.34,0.14c-0.13,0-0.24-0.05-0.34-0.14s-0.14-0.2-0.14-0.33
		c0-0.13,0.05-0.24,0.14-0.34s0.2-0.14,0.34-0.14c0.13,0,0.24,0.05,0.34,0.14S25.48,28.55,25.48,28.68z"/>
	<path d="M25.48,34c0,0.13-0.05,0.24-0.14,0.33s-0.2,0.14-0.34,0.14c-0.13,0-0.24-0.05-0.34-0.14s-0.14-0.2-0.14-0.33
		c0-0.13,0.05-0.24,0.14-0.34s0.2-0.14,0.34-0.14c0.13,0,0.24,0.05,0.34,0.14S25.48,33.86,25.48,34z"/>
	<path d="M25.48,39.02c0,0.13-0.05,0.24-0.14,0.34s-0.2,0.14-0.34,0.14c-0.13,0-0.24-0.05-0.34-0.14s-0.14-0.2-0.14-0.34
		c0-0.13,0.05-0.24,0.14-0.33s0.2-0.14,0.34-0.14c0.13,0,0.24,0.05,0.34,0.14S25.48,38.89,25.48,39.02z"/>
</g>
</svg>
