<?xml version="1.0" encoding="utf-8"?>
<!-- Generator: Adobe Illustrator 27.3.1, SVG Export Plug-In . SVG Version: 6.00 Build 0)  -->
<svg version="1.1" id="Layer_1" xmlns="http://www.w3.org/2000/svg" xmlns:xlink="http://www.w3.org/1999/xlink" x="0px" y="0px"
	 viewBox="0 0 50 50" style="enable-background:new 0 0 50 50;" xml:space="preserve">
<style type="text/css">
	.st0{fill:none;}
	.st1{stroke:#000000;stroke-miterlimit:10;}
	.st2{stroke:#000000;stroke-width:0.75;stroke-miterlimit:10;}
	.st3{clip-path:url(#SVGID_00000098188421568955218170000009517245782413694120_);}
	.st4{clip-path:url(#SVGID_00000083779275968992951110000009376225473352359853_);}
	.st5{fill:#FFFFFF;}
	.st6{clip-path:url(#SVGID_00000054980411597618435310000002233315864660344448_);}
	.st7{fill:#231F20;}
	.st8{clip-path:url(#SVGID_00000097468555157084169110000007827867901952601751_);}
	.st9{clip-path:url(#SVGID_00000116937320278632247510000001535012521135827344_);}
	.st10{clip-path:url(#SVGID_00000031193419146107885640000018050740290598585004_);}
	.st11{clip-path:url(#SVGID_00000072999372823414246750000008025132833174901678_);}
	.st12{clip-path:url(#SVGID_00000056422751921235338780000015320890085950116009_);}
	.st13{clip-path:url(#SVGID_00000025438259284173863200000000609623207948758198_);}
	.st14{clip-path:url(#SVGID_00000024687089535269838460000008869690096024476856_);}
	.st15{clip-path:url(#SVGID_00000060017760033478589160000009590978709288017582_);}
	.st16{clip-path:url(#SVGID_00000163045079026134880330000015646121201665165446_);}
	.st17{clip-path:url(#SVGID_00000113343680383553092250000000280356629733986708_);}
	.st18{clip-path:url(#SVGID_00000020391694181732193180000008490794674690482081_);}
	.st19{clip-path:url(#SVGID_00000070808437951879186650000008346503142186208680_);}
	.st20{clip-path:url(#SVGID_00000090286428164725019400000011046956347355244424_);}
	.st21{clip-path:url(#SVGID_00000092430051892551995720000009891533740995268774_);}
	.st22{clip-path:url(#SVGID_00000054977993578841361910000017511075494788703165_);}
	.st23{clip-path:url(#SVGID_00000127040220823710436020000010082084277425978541_);}
	.st24{clip-path:url(#SVGID_00000085233985699460398190000008319749639963242629_);}
	.st25{clip-path:url(#SVGID_00000165211171035100503550000005887063488962768313_);}
	.st26{clip-path:url(#SVGID_00000039096310529964568090000012597516137732923572_);}
	.st27{clip-path:url(#SVGID_00000052068672742348680560000016304803620033414550_);}
	.st28{clip-path:url(#SVGID_00000145025729329948079050000014490231089510232193_);}
	.st29{clip-path:url(#SVGID_00000025409810644993402200000018171617424780578221_);}
	.st30{clip-path:url(#SVGID_00000153687622902300250940000008694204159882534034_);}
	.st31{fill-rule:evenodd;clip-rule:evenodd;}
	.st32{clip-path:url(#SVGID_00000100379355394900939420000007923159470183716795_);}
	.st33{clip-path:url(#SVGID_00000172424788039130103710000014012215070685051054_);}
	.st34{stroke:#000000;stroke-width:0.5;stroke-miterlimit:10;}
	.st35{clip-path:url(#SVGID_00000049905733321170790320000001260901032938627996_);}
	.st36{clip-path:url(#SVGID_00000110470729598878316230000011283292031974989473_);}
	.st37{clip-path:url(#SVGID_00000106836222166021202240000017276973487356690571_);}
	.st38{fill:#1A1A1A;}
	.st39{clip-path:url(#SVGID_00000021823795833695435880000012309912317106688187_);}
	.st40{clip-path:url(#SVGID_00000057130192561222499650000007620207493166093746_);}
	.st41{clip-path:url(#SVGID_00000036957948646548509410000002211828787279131554_);}
	.st42{clip-path:url(#SVGID_00000130607612939861821040000015423110331194202772_);}
	.st43{clip-path:url(#SVGID_00000016077250062642012670000015817053181586661533_);}
	.st44{clip-path:url(#SVGID_00000069386487010596406790000014415787665731988643_);}
	.st45{clip-path:url(#SVGID_00000065774861620720278210000011137224022459352458_);}
	.st46{clip-path:url(#SVGID_00000164499865079957580880000012044755369292408989_);}
	.st47{clip-path:url(#SVGID_00000008139848155430870470000000773254145676972216_);}
	.st48{fill:#F1F1F1;}
	.st49{fill:#E8E8E8;}
	.st50{fill:#FEFEFE;}
	.st51{fill:#CCCCCC;}
	.st52{fill:#B3B3B3;}
	.st53{fill:#E6E6E6;}
	.st54{fill:#EBEBEB;}
	.st55{fill:#EEEEEE;}
	.st56{fill:#F8F8F8;}
	.st57{fill:#FBFBFB;}
	.st58{fill:#383838;}
	.st59{fill:#232323;}
	.st60{fill:#F6F6F6;}
	.st61{fill:#535353;}
	.st62{fill:#0A0A0A;}
	.st63{fill:#F5F5F5;}
	.st64{fill:#818181;}
	.st65{fill:#4A4A4A;}
	.st66{fill:#999999;}
	.st67{fill:url(#SVGID_00000056400998106033305330000010146320964100523685_);}
	.st68{fill:url(#SVGID_00000179647333650988830750000000127051208369338262_);}
	.st69{fill:#0E0E0D;}
	.st70{fill:#333333;}
	.st71{fill:#808080;}
	.st72{fill:url(#SVGID_00000004523750459174390850000014106529086796686232_);}
	.st73{fill:#666666;}
	.st74{fill:url(#SVGID_00000011729185426286796300000000084974467364803262_);}
	.st75{fill:url(#SVGID_00000143579328312831057980000014492914754501835947_);}
	.st76{fill:url(#SVGID_00000178193226484836799300000012839225503878375050_);}
	.st77{fill:url(#SVGID_00000126320742005597272190000006297641951964197031_);}
	.st78{fill:url(#SVGID_00000175313026670927436430000000212432924717871797_);}
	.st79{clip-path:url(#SVGID_00000093146239750871991220000011462412843024029064_);}
	.st80{clip-path:url(#SVGID_00000138536044689602119990000004849678909419990713_);}
	.st81{clip-path:url(#SVGID_00000149355153015076573360000016999804372816457871_);}
	.st82{clip-path:url(#SVGID_00000068642549983044187500000015769617617279344535_);}
	.st83{clip-path:url(#SVGID_00000080178744288510660200000008770872890732190366_);}
	.st84{fill:#241F20;stroke:#000000;stroke-width:0.5;stroke-miterlimit:10;}
	.st85{clip-path:url(#SVGID_00000152975658366070981910000009167171220594861219_);}
	.st86{clip-path:url(#SVGID_00000098184892285180391850000010347603147764940698_);}
	.st87{clip-path:url(#SVGID_00000134236790464258179500000008449220263899986084_);}
	.st88{clip-path:url(#SVGID_00000057119922135443544250000007154246318138528405_);}
	.st89{clip-path:url(#SVGID_00000055699038333893328010000013571293842755509899_);}
	.st90{clip-path:url(#SVGID_00000081616649014747775750000010764684242911635628_);}
	.st91{clip-path:url(#SVGID_00000117676562816459458430000012371010012264617895_);}
	.st92{clip-path:url(#SVGID_00000037679282608243252250000015312358303847100082_);}
	.st93{clip-path:url(#SVGID_00000003064627258235075140000007054854933092573335_);}
	.st94{clip-path:url(#SVGID_00000047756760145967528910000004131901927055175837_);}
	.st95{clip-path:url(#SVGID_00000074444196683755666880000009738731092056016548_);}
	.st96{clip-path:url(#SVGID_00000121248773425039311680000001794038048727240619_);}
	.st97{clip-path:url(#SVGID_00000177480774527405727780000009922751343610221986_);}
	.st98{clip-path:url(#SVGID_00000037669225451861989080000009604481805847944857_);}
	.st99{clip-path:url(#SVGID_00000098903777018997303850000008886545228103095444_);}
	.st100{clip-path:url(#SVGID_00000003089750589460837950000009405718254326933151_);}
	.st101{clip-path:url(#SVGID_00000129926752847273091390000005548075108923146390_);}
	.st102{clip-path:url(#SVGID_00000052082987080035074090000016313716825737624714_);}
	.st103{clip-path:url(#SVGID_00000076577423954152762200000002623755384213809083_);}
	.st104{clip-path:url(#SVGID_00000130618041402191192950000013735669517777687973_);}
	.st105{clip-path:url(#SVGID_00000108998239539201659930000008506058097574496669_);}
	.st106{clip-path:url(#SVGID_00000005246861415545664820000013664589195722890659_);}
	.st107{clip-path:url(#SVGID_00000052073481932114518680000000115843794586118832_);}
	.st108{clip-path:url(#SVGID_00000055698268317473565350000002519299270765522618_);}
	.st109{clip-path:url(#SVGID_00000160909214026837923210000003249427902659044504_);}
	.st110{clip-path:url(#SVGID_00000143598031676167948680000012982811985037678472_);}
	.st111{clip-path:url(#SVGID_00000036953201616614238350000008786063550356618928_);}
	.st112{clip-path:url(#SVGID_00000036248550042417959650000000965242895148849343_);}
	.st113{clip-path:url(#SVGID_00000178911324660844885340000018089641603189703579_);}
	.st114{clip-path:url(#SVGID_00000027582563294618810900000003572043814916569988_);}
	.st115{fill:#FFFFFF;stroke:#000000;stroke-miterlimit:10;}
	.st116{clip-path:url(#SVGID_00000065792641189530028170000003639301631274735035_);}
	.st117{clip-path:url(#SVGID_00000122695860674949517470000010843631461175682187_);}
	.st118{fill:none;stroke:#010101;stroke-miterlimit:10;}
	.st119{fill:#010101;stroke:#000000;stroke-miterlimit:10;}
	.st120{clip-path:url(#SVGID_00000062891271631736381070000001670150238349748397_);}
	.st121{fill:#010101;stroke:#010101;stroke-miterlimit:10;}
	.st122{clip-path:url(#SVGID_00000129202973899691742990000008474862455259222430_);}
	.st123{clip-path:url(#SVGID_00000126316166997892259220000009995571447573487533_);}
	.st124{clip-path:url(#SVGID_00000129197867403730149130000011774610380300815751_);}
	.st125{clip-path:url(#SVGID_00000094612818000678027710000005532955478071321017_);}
	.st126{clip-path:url(#SVGID_00000114063160676992141190000006268843175675568571_);}
	.st127{fill:none;stroke:#000000;stroke-width:3;stroke-miterlimit:10;}
	.st128{clip-path:url(#SVGID_00000153665592329784274300000008648685128069026490_);}
	.st129{clip-path:url(#SVGID_00000145045422593791302430000012646469363967705742_);}
	.st130{clip-path:url(#SVGID_00000070095183033563119950000007761313085110218129_);}
	.st131{clip-path:url(#SVGID_00000121274521579100508960000004888378338001914043_);}
	.st132{fill:#040606;}
	.st133{clip-path:url(#SVGID_00000163046819733013650060000010056360612950102177_);}
	.st134{clip-path:url(#SVGID_00000104705210230986795660000013163763313353167792_);}
	.st135{clip-path:url(#SVGID_00000063630923135290205920000015095529717737215928_);}
	.st136{clip-path:url(#SVGID_00000093879722707729980510000010140211861259951803_);}
	.st137{clip-path:url(#SVGID_00000074418821871284648870000003162110049600581036_);}
	.st138{clip-path:url(#SVGID_00000173869282236697818380000012844402935045198498_);}
	.st139{clip-path:url(#SVGID_00000053534080641091985150000002746889987374387367_);}
	.st140{fill:#FFFFFF;stroke:#000000;stroke-width:1.5;stroke-miterlimit:10;}
	.st141{clip-path:url(#SVGID_00000164484606683701183570000010341668208923335323_);}
	.st142{fill:#BDBCBC;}
	.st143{clip-path:url(#SVGID_00000053530907575447641230000016664997835608483991_);}
	.st144{fill:#2E2A2B;}
	.st145{clip-path:url(#SVGID_00000090261149040346126450000005564281223727158463_);}
	.st146{clip-path:url(#SVGID_00000093894059326887950560000017502418899651291819_);}
	.st147{clip-path:url(#SVGID_00000115487804662787737830000006543275690649874877_);}
	.st148{clip-path:url(#SVGID_00000015334529341901124820000002183559397599151272_);}
	.st149{clip-path:url(#SVGID_00000030473230561830651000000000985750427734876825_);}
	.st150{fill:#272324;}
	.st151{clip-path:url(#SVGID_00000163042355673986212370000000489436573702403200_);}
	.st152{clip-path:url(#SVGID_00000105427855324544231120000009327160984831348891_);}
	.st153{clip-path:url(#SVGID_00000167382021785056785610000004194581013721360534_);}
	.st154{clip-path:url(#SVGID_00000177443607557193971560000013972637022233480895_);}
	.st155{clip-path:url(#SVGID_00000052106073717855935080000010193236982830252979_);}
	.st156{clip-path:url(#SVGID_00000160151426565678280140000015247159838492034747_);}
	.st157{fill:none;stroke:#000000;stroke-width:0.8735;stroke-linecap:round;stroke-linejoin:round;stroke-miterlimit:10;}
	.st158{clip-path:url(#SVGID_00000017493992940500908280000015743798460632206767_);}
	.st159{clip-path:url(#SVGID_00000148631558340753867550000002349503912041149629_);}
	.st160{clip-path:url(#SVGID_00000073712547437379850020000003225295581363519105_);}
	.st161{clip-path:url(#SVGID_00000076601669530494996520000008353861116483274933_);}
	.st162{clip-path:url(#SVGID_00000162337014746976035300000015992003999053652624_);}
	.st163{clip-path:url(#SVGID_00000055679649468823197110000004030006495989081000_);}
	.st164{clip-path:url(#SVGID_00000029747641299804367210000003259795406113154702_);}
	.st165{clip-path:url(#SVGID_00000118393365143425309660000008569657633627112843_);}
	.st166{clip-path:url(#SVGID_00000177451691883981468690000017240253492711864756_);}
	.st167{clip-path:url(#SVGID_00000060734731643432073210000006908627835962281891_);}
	.st168{clip-path:url(#SVGID_00000024685001702114502360000012704885283758432946_);}
	.st169{clip-path:url(#SVGID_00000105416753922217681920000000643100424210568857_);}
	.st170{clip-path:url(#SVGID_00000180363203568073938890000013981595695052253616_);}
	.st171{clip-path:url(#SVGID_00000183948661701528333890000000381371132234372498_);}
	.st172{clip-path:url(#SVGID_00000067200450299789696250000014954769404502841494_);}
	.st173{clip-path:url(#SVGID_00000071518477019985709710000002835779589487963324_);}
	.st174{clip-path:url(#SVGID_00000021084975084094089930000007097915607240506018_);}
	.st175{clip-path:url(#SVGID_00000095337757370790996910000003005981049111769259_);}
	.st176{clip-path:url(#SVGID_00000116222591914473891940000014603954419056187046_);}
	.st177{clip-path:url(#SVGID_00000153690170703070422440000005802538217516388234_);}
	.st178{clip-path:url(#SVGID_00000120526847105098666490000007030457470459330228_);}
	.st179{clip-path:url(#SVGID_00000072259875430782877630000003938775651901346197_);}
	.st180{clip-path:url(#SVGID_00000043437001488623974010000012508921505567956113_);}
	.st181{clip-path:url(#SVGID_00000170245595184001549740000004652142136251344026_);}
	.st182{clip-path:url(#SVGID_00000059305145329410155130000003768319707279755169_);}
	.st183{clip-path:url(#SVGID_00000014601135273677634990000002817126101917309319_);}
	.st184{clip-path:url(#SVGID_00000021080138222742148770000005203575942253986703_);}
	.st185{clip-path:url(#SVGID_00000144300485585670143850000016605991586740887200_);}
	.st186{clip-path:url(#SVGID_00000133503897743804722720000006378627702407014532_);}
	.st187{clip-path:url(#SVGID_00000015328499333936146110000011618191306708307372_);}
	.st188{clip-path:url(#SVGID_00000043434521173345650230000018269330985838000029_);}
	.st189{clip-path:url(#SVGID_00000044872455043558116300000010800797831569245100_);}
	.st190{clip-path:url(#SVGID_00000181080419507536970150000001994747500715463845_);}
	.st191{clip-path:url(#SVGID_00000051368746860002666730000010821720102605589914_);}
	.st192{clip-path:url(#SVGID_00000007426098699471218510000014989546944908810915_);}
	.st193{clip-path:url(#SVGID_00000072267983128822155660000003390161117626898328_);}
	.st194{clip-path:url(#SVGID_00000106829336479591708020000001394654054515235505_);}
	.st195{clip-path:url(#SVGID_00000040572528091175235550000015023709661455319426_);}
	.st196{fill:#E5E5E5;}
	.st197{fill:#1D1D1B;}
	.st198{fill:none;stroke:#000000;stroke-miterlimit:10;}
	.st199{fill:#FEFEFE;stroke:#000000;stroke-miterlimit:10;}
	.st200{clip-path:url(#SVGID_00000157272623984324409710000015406033718137297327_);}
	.st201{clip-path:url(#SVGID_00000011010130603852106030000016431407041824543918_);}
	.st202{clip-path:url(#SVGID_00000162310034091833092440000016982276763286863493_);}
	.st203{fill:#231F1F;}
	.st204{fill:#020000;}
	.st205{clip-path:url(#SVGID_00000037669670645902319840000010899953368728189070_);}
	.st206{clip-path:url(#SVGID_00000060725600481835833290000010043056934057427601_);}
	.st207{clip-path:url(#SVGID_00000005948606108383775310000015065177015783170967_);}
	.st208{clip-path:url(#SVGID_00000101065991445300880030000001636378137894583475_);}
	.st209{fill:#050000;}
	.st210{clip-path:url(#SVGID_00000055705387126140803990000016988511857547824053_);}
	.st211{clip-path:url(#SVGID_00000072965282292338174860000008518041069419483541_);}
	.st212{clip-path:url(#SVGID_00000157287235770217696440000011138116538170853281_);}
	.st213{clip-path:url(#SVGID_00000021812646268588149700000003463779111482660788_);}
	.st214{clip-path:url(#SVGID_00000024688390390632210150000003967741138664108949_);}
	.st215{clip-path:url(#SVGID_00000062899895554135589360000011147283214057302428_);}
	.st216{fill:#12100F;}
	.st217{clip-path:url(#SVGID_00000181799754805048474310000009454986493090637748_);}
	.st218{clip-path:url(#SVGID_00000029724142331296407930000002105968775183262903_);}
	.st219{fill:none;stroke:#000000;stroke-width:0.5;stroke-miterlimit:10;}
	.st220{clip-path:url(#SVGID_00000098188431849850897890000009296784627886230917_);}
	.st221{clip-path:url(#SVGID_00000044876432435760646420000009917720813732292489_);}
	.st222{clip-path:url(#SVGID_00000133493363372764259680000010691134426241527953_);}
	.st223{clip-path:url(#SVGID_00000145743389559704044960000008796543282070699150_);}
	.st224{fill:none;stroke:#000000;stroke-width:0.25;stroke-miterlimit:10;}
	.st225{clip-path:url(#SVGID_00000161632021791712228060000012778542888671638155_);}
	.st226{clip-path:url(#SVGID_00000114047948265929762540000016924357876885981885_);}
	.st227{clip-path:url(#SVGID_00000023267838319880404410000001700813156484973733_);}
</style>
<g>
	<g>
		<defs>
			<rect id="SVGID_00000013181498678316616430000015719832901622706342_" x="17.57" y="5.01" width="14.82" height="2.87"/>
		</defs>
		<clipPath id="SVGID_00000150084506284463277290000006542763145360437647_">
			<use xlink:href="#SVGID_00000013181498678316616430000015719832901622706342_"  style="overflow:visible;"/>
		</clipPath>
		<g style="clip-path:url(#SVGID_00000150084506284463277290000006542763145360437647_);">
			<path class="st38" d="M31.79,5.12c-0.1-0.08-1.02-0.09-11.87,0.51c-1.04,0.06-1.79,0.1-1.84,0.1c-0.07,0-0.14,0.03-0.19,0.09
				c-0.2,0.21-0.2,0.79-0.19,1.12c0.02,0.52,0.27,0.82,0.28,0.83C18,7.79,18.03,7.8,18.06,7.81c0.02,0,0.07,0.01,0.14,0.01
				c0.73,0,4.04-0.12,6.81-0.24c6.74-0.29,6.85-0.4,6.91-0.46c0.15-0.15,0.16-0.63,0.13-1C32.03,5.86,31.97,5.25,31.79,5.12z
				 M31.74,6.91c-0.26,0.07-2.19,0.21-6.86,0.41c-3.26,0.14-6.27,0.24-6.73,0.23c-0.06-0.09-0.18-0.31-0.19-0.63
				c-0.03-0.6,0.07-0.91,0.12-0.93c0.05,0,0.64-0.03,1.85-0.1C23.27,5.7,31,5.27,31.64,5.34C31.78,5.56,31.86,6.71,31.74,6.91z"/>
		</g>
	</g>
	<g>
		<defs>
			<rect id="SVGID_00000003083518500612835550000016592177344880885669_" x="16.43" y="6.59" width="17.4" height="37.37"/>
		</defs>
		<clipPath id="SVGID_00000039831496669907112770000000399758153379462077_">
			<use xlink:href="#SVGID_00000003083518500612835550000016592177344880885669_"  style="overflow:visible;"/>
		</clipPath>
		<g style="clip-path:url(#SVGID_00000039831496669907112770000000399758153379462077_);">
			<path class="st38" d="M31.95,6.99c-0.01-0.07-0.08-0.12-0.15-0.1c-0.07,0.01-0.12,0.08-0.1,0.15c0.01,0.02,0.43,2.29,0.54,2.83
				c0.09,0.49,0.91,21.81,1.33,33.1c-2.19,0.8-4.84,0.47-5.38,0.39l-2.53-29.26c-0.01-0.07-0.06-0.12-0.13-0.12
				s-0.12,0.05-0.13,0.12l-2.75,29.35c-3.05,0.24-5.45-0.38-5.95-0.52c0.08-2.28,1.1-31.04,1.06-31.63
				c-0.04-0.57,0.45-3.56,0.45-3.59c0.01-0.07-0.04-0.14-0.11-0.15c-0.07-0.01-0.14,0.04-0.15,0.11c-0.02,0.13-0.5,3.05-0.45,3.65
				c0.04,0.58-1.05,31.39-1.06,31.7c0,0.06,0.04,0.11,0.09,0.13c0.02,0.01,1.99,0.61,4.73,0.61c0.48,0,0.99-0.02,1.52-0.06
				c0.06-0.01,0.11-0.06,0.12-0.12l2.63-28.03l2.41,27.94c0.01,0.06,0.05,0.11,0.11,0.12c0.03,0.01,3.19,0.54,5.7-0.42
				c0.05-0.02,0.09-0.07,0.08-0.13c-0.05-1.33-1.22-32.69-1.34-33.23C32.38,9.27,31.96,7.02,31.95,6.99z"/>
		</g>
	</g>
	<path class="st38" d="M25.74,7.39c-0.07,0.01-0.12,0.08-0.11,0.15c0.22,1.71,0.41,3.63,0.33,3.87c-0.11,0.13-0.48,0.49-0.76,0.74
		c-0.04-0.95-0.19-3.96-0.45-4.74c-0.02-0.07-0.1-0.1-0.16-0.08c-0.07,0.03-0.1,0.1-0.08,0.17c0.3,0.86,0.45,4.9,0.45,4.94
		c0,0.05,0.03,0.1,0.08,0.12c0.02,0.01,0.03,0.01,0.05,0.01c0.03,0,0.06-0.01,0.09-0.04c0.03-0.03,0.84-0.76,1-0.97
		c0.16-0.2-0.07-2.32-0.29-4.06C25.87,7.43,25.81,7.38,25.74,7.39z"/>
	<path class="st38" d="M25.58,12.71c-0.07,0-0.13,0.05-0.13,0.13l-0.05,1.25c0,0.07,0.05,0.13,0.12,0.14c0,0,0,0,0.01,0
		c0.07,0,0.13-0.06,0.13-0.13l0.05-1.25C25.7,12.78,25.65,12.72,25.58,12.71z"/>
	<path class="st38" d="M20.47,7.55c-0.07-0.02-0.14,0.02-0.16,0.09c-0.78,2.82-2.68,3.29-2.71,3.29c-0.07,0.02-0.11,0.09-0.1,0.16
		c0.01,0.06,0.07,0.1,0.13,0.1c0.01,0,0.02,0,0.03,0c0.09-0.02,2.08-0.5,2.9-3.48C20.58,7.64,20.54,7.57,20.47,7.55z"/>
	<path class="st38" d="M19.78,9.12h-1.2c-0.07,0-0.12,0.05-0.13,0.11l-0.21,1.48c-0.01,0.07,0.04,0.14,0.11,0.15
		c0.01,0,0.01,0,0.02,0c0.06,0,0.12-0.05,0.13-0.11l0.19-1.37h1.09c0.07,0,0.13-0.06,0.13-0.13C19.91,9.18,19.85,9.12,19.78,9.12z"
		/>
	<path class="st38" d="M32.45,10.6c-2.83-0.67-3.19-3.27-3.2-3.39c-0.01-0.07-0.07-0.12-0.15-0.11c-0.07,0.01-0.12,0.08-0.11,0.15
		c0,0.03,0.39,2.89,3.4,3.61c0.01,0,0.02,0,0.03,0c0.06,0,0.11-0.04,0.13-0.1C32.56,10.69,32.52,10.62,32.45,10.6z"/>
	<path class="st38" d="M31.27,8.55c-0.01-0.07-0.06-0.12-0.13-0.12h-1.42c-0.07,0-0.13,0.06-0.13,0.13c0,0.07,0.06,0.13,0.13,0.13
		h1.31l0.17,1.64c0.01,0.07,0.06,0.12,0.13,0.12c0.01,0,0.01,0,0.02,0c0.07-0.01,0.12-0.07,0.11-0.14L31.27,8.55z"/>
	<g>
		<defs>
			<rect id="SVGID_00000149361503943050354820000011472450648118150566_" x="28.52" y="5.01" width="0.64" height="2.87"/>
		</defs>
		<clipPath id="SVGID_00000129192965913071646370000003906985028828816570_">
			<use xlink:href="#SVGID_00000149361503943050354820000011472450648118150566_"  style="overflow:visible;"/>
		</clipPath>
		<g style="clip-path:url(#SVGID_00000129192965913071646370000003906985028828816570_);">
			<path class="st38" d="M28.74,5.26c-0.07,0.01-0.12,0.08-0.11,0.15c0,0.01,0.17,1.2,0,1.79c-0.02,0.07,0.02,0.14,0.09,0.16
				c0.01,0.01,0.03,0.01,0.04,0.01c0.06,0,0.11-0.04,0.12-0.09c0.18-0.65,0.01-1.85,0-1.9C28.88,5.3,28.81,5.25,28.74,5.26z"/>
		</g>
	</g>
	<g>
		<defs>
			<rect id="SVGID_00000047756542366421786530000018317909163403825809_" x="29.16" y="5.01" width="0.64" height="2.87"/>
		</defs>
		<clipPath id="SVGID_00000057141670171107670580000015069081254769804937_">
			<use xlink:href="#SVGID_00000047756542366421786530000018317909163403825809_"  style="overflow:visible;"/>
		</clipPath>
		<g style="clip-path:url(#SVGID_00000057141670171107670580000015069081254769804937_);">
			<path class="st38" d="M29.31,5.16c-0.07,0.01-0.12,0.08-0.1,0.15c0.07,0.38,0.21,1.46,0.06,1.86c-0.03,0.07,0.01,0.14,0.07,0.17
				c0.02,0.01,0.03,0.01,0.05,0.01c0.05,0,0.1-0.03,0.12-0.08c0.22-0.55-0.03-1.94-0.04-2C29.45,5.19,29.38,5.14,29.31,5.16z"/>
		</g>
	</g>
	<path class="st38" d="M20.9,5.7l-0.13,0.01l0.1,0.09l-0.2-0.17c-0.04,0.04-0.03,0.08-0.03,0.15c0.14,1.21,0.05,1.59,0.01,1.69
		c-0.03,0.07,0,0.14,0.07,0.17c0.02,0.01,0.03,0.01,0.05,0.01c0.05,0,0.1-0.03,0.12-0.08c0.11-0.27,0.12-0.89,0.02-1.82L20.9,5.7z"
		/>
	<path class="st38" d="M21.43,5.58c-0.07,0.01-0.12,0.08-0.11,0.15c0,0.01,0.2,1.24,0.01,1.79c-0.03,0.07,0.01,0.14,0.08,0.17
		c0.01,0.01,0.03,0.01,0.04,0.01c0.06,0,0.11-0.03,0.12-0.09c0.21-0.61,0.01-1.86,0.01-1.92C21.57,5.62,21.5,5.57,21.43,5.58z"/>
	<path class="st38" d="M25.24,5.84c-0.34,0-0.62,0.28-0.62,0.62c0,0.34,0.28,0.62,0.62,0.62c0.34,0,0.62-0.28,0.62-0.62
		C25.86,6.12,25.58,5.84,25.24,5.84z M25.24,6.83c-0.2,0-0.36-0.16-0.36-0.36c0-0.2,0.16-0.36,0.36-0.36c0.2,0,0.36,0.16,0.36,0.36
		C25.6,6.66,25.44,6.83,25.24,6.83z"/>
	<g>
		<defs>
			<rect id="SVGID_00000096030158749152646750000008434373406100361149_" x="16.43" y="41.38" width="6.93" height="1.29"/>
		</defs>
		<clipPath id="SVGID_00000160886102608704888980000010535558917627019966_">
			<use xlink:href="#SVGID_00000096030158749152646750000008434373406100361149_"  style="overflow:visible;"/>
		</clipPath>
		<g style="clip-path:url(#SVGID_00000160886102608704888980000010535558917627019966_);">
			<path class="st38" d="M22.86,42.29c-3.2,0.27-6.07-0.74-6.1-0.75c-0.07-0.03-0.14,0.01-0.16,0.08c-0.03,0.07,0.01,0.14,0.08,0.17
				c0.03,0.01,2.29,0.81,5.06,0.81c0.37,0,0.76-0.02,1.14-0.05c0.07-0.01,0.13-0.07,0.12-0.14C22.99,42.34,22.93,42.29,22.86,42.29z
				"/>
		</g>
	</g>
	<g>
		<defs>
			<rect id="SVGID_00000021086592420728449890000013603204289506039183_" x="27.23" y="41.38" width="6.6" height="1.29"/>
		</defs>
		<clipPath id="SVGID_00000109714793155364153580000013042613440451458739_">
			<use xlink:href="#SVGID_00000021086592420728449890000013603204289506039183_"  style="overflow:visible;"/>
		</clipPath>
		<g style="clip-path:url(#SVGID_00000109714793155364153580000013042613440451458739_);">
			<path class="st38" d="M33.59,41.78c-1.33,0.75-5.57,0.47-5.62,0.47c-0.07,0-0.13,0.05-0.14,0.12c-0.01,0.07,0.05,0.13,0.12,0.14
				c0.08,0.01,0.85,0.06,1.84,0.06c1.36,0,3.11-0.1,3.92-0.55c0.06-0.04,0.08-0.11,0.05-0.18C33.73,41.77,33.65,41.74,33.59,41.78z"
				/>
		</g>
	</g>
	<path class="st38" d="M33.11,39.99c-0.07,0-0.13,0.06-0.13,0.13v0.36c0,0.07,0.06,0.13,0.13,0.13c0.07,0,0.13-0.06,0.13-0.13v-0.36
		C33.24,40.05,33.18,39.99,33.11,39.99z"/>
	<path class="st38" d="M33.11,40.99c-0.07,0-0.13,0.06-0.13,0.13v0.34c0,0.07,0.06,0.13,0.13,0.13c0.07,0,0.13-0.06,0.13-0.13v-0.34
		C33.24,41.05,33.18,40.99,33.11,40.99z"/>
	<path class="st38" d="M32.52,40.6c-0.07,0-0.13,0.06-0.13,0.13v0.41c0,0.07,0.06,0.13,0.13,0.13c0.07,0,0.13-0.06,0.13-0.13v-0.41
		C32.65,40.66,32.59,40.6,32.52,40.6z"/>
	<path class="st38" d="M17.6,32.48c-0.07,0.01-0.12,0.08-0.1,0.15c0.06,0.29,0.03,0.62,0,0.85c-0.01,0.07,0.04,0.14,0.11,0.15
		c0.01,0,0.01,0,0.02,0c0.06,0,0.12-0.05,0.13-0.11c0.03-0.25,0.06-0.61,0-0.93C17.74,32.51,17.67,32.46,17.6,32.48z"/>
	<path class="st38" d="M17.98,11.54c-0.07,0.02-0.11,0.09-0.09,0.16c0.04,0.14,0.06,0.3,0.04,0.5c-0.01,0.07,0.05,0.13,0.12,0.14
		c0,0,0.01,0,0.01,0c0.07,0,0.12-0.05,0.13-0.12c0.02-0.23,0-0.42-0.05-0.59C18.11,11.56,18.04,11.52,17.98,11.54z"/>
	<path class="st38" d="M18.01,12.62c-0.07,0-0.13,0.06-0.13,0.13v0.23c0,0.07,0.06,0.13,0.13,0.13c0.07,0,0.13-0.06,0.13-0.13v-0.23
		C18.14,12.68,18.08,12.62,18.01,12.62z"/>
	<path class="st38" d="M31.91,11.12c-0.07,0-0.13,0.06-0.13,0.13v0.5c0,0.07,0.06,0.13,0.13,0.13c0.07,0,0.13-0.06,0.13-0.13v-0.5
		C32.04,11.18,31.98,11.12,31.91,11.12z"/>
	<path class="st38" d="M31.77,12.22c-0.07,0.03-0.1,0.1-0.07,0.17c0.02,0.06,0.02,0.14,0,0.2c-0.03,0.07,0.01,0.14,0.07,0.17
		c0.02,0.01,0.03,0.01,0.05,0.01c0.05,0,0.1-0.03,0.12-0.08c0.05-0.12,0.05-0.27,0-0.39C31.91,12.23,31.84,12.2,31.77,12.22z"/>
	<path class="st38" d="M31.32,11.5c-0.07,0.03-0.1,0.1-0.07,0.17c0.04,0.09,0.05,0.23,0.04,0.42c0,0.07,0.05,0.13,0.12,0.14
		c0,0,0.01,0,0.01,0c0.07,0,0.13-0.05,0.13-0.12c0.01-0.24,0-0.41-0.06-0.54C31.46,11.5,31.38,11.47,31.32,11.5L31.32,11.5z"/>
	<path class="st38" d="M21.07,21.64h-1.42c-0.07,0-0.13,0.06-0.13,0.13c0,0.07,0.06,0.13,0.13,0.13h1.42c0.07,0,0.13-0.06,0.13-0.13
		C21.2,21.7,21.14,21.64,21.07,21.64z"/>
	<path class="st38" d="M21.96,22.19c-1.05-0.1-2.11-0.1-3.02-0.09c-0.07,0-0.13,0.06-0.13,0.13c0,0.07,0.06,0.13,0.13,0.13
		c0.91-0.01,1.96,0,3,0.09c0,0,0.01,0,0.01,0c0.07,0,0.12-0.05,0.13-0.12C22.09,22.26,22.03,22.19,21.96,22.19z"/>
	<path class="st38" d="M21.18,22.57c-0.23,0-0.47,0.01-0.69,0.02c-0.44,0.02-0.89,0.04-1.33-0.02c-0.07-0.01-0.14,0.04-0.14,0.11
		s0.04,0.14,0.11,0.15c0.23,0.03,0.46,0.04,0.68,0.04c0.23,0,0.46-0.01,0.68-0.02c0.23-0.01,0.46-0.02,0.68-0.02
		c0.07,0,0.13-0.06,0.13-0.13C21.31,22.63,21.25,22.57,21.18,22.57z"/>
	<path class="st38" d="M20.64,23.07h-1.2c-0.07,0-0.13,0.06-0.13,0.13c0,0.07,0.06,0.13,0.13,0.13h1.2c0.07,0,0.13-0.06,0.13-0.13
		C20.77,23.13,20.71,23.07,20.64,23.07z"/>
	<path class="st38" d="M31,25.78c-0.27,0.05-0.61,0.01-0.91-0.03l-0.13-0.02c-0.07-0.01-0.14,0.04-0.15,0.11
		c-0.01,0.07,0.04,0.14,0.11,0.15l0.13,0.02c0.21,0.03,0.44,0.06,0.65,0.06c0.12,0,0.23-0.01,0.34-0.03
		c0.07-0.01,0.12-0.08,0.1-0.15C31.14,25.82,31.07,25.77,31,25.78z"/>
	<path class="st38" d="M31.94,26.19c-1.06,0.11-2.08,0.11-2.96,0c-0.07-0.01-0.14,0.04-0.14,0.11c-0.01,0.07,0.04,0.14,0.11,0.15
		c0.45,0.06,0.93,0.09,1.44,0.09s1.04-0.03,1.58-0.09c0.07-0.01,0.12-0.07,0.12-0.14C32.08,26.24,32.01,26.19,31.94,26.19z"/>
	<path class="st38" d="M31.09,26.74c-0.18,0-0.36,0-0.54,0.01c-0.52,0.01-1.05,0.02-1.56-0.03c-0.07-0.01-0.13,0.05-0.14,0.12
		c-0.01,0.07,0.05,0.13,0.12,0.14c0.31,0.03,0.63,0.04,0.95,0.04c0.21,0,0.43,0,0.64-0.01c0.18,0,0.35-0.01,0.53-0.01
		c0.07,0,0.13-0.06,0.13-0.13C31.22,26.8,31.17,26.74,31.09,26.74z"/>
	<path class="st38" d="M30.32,27.47h-0.79c-0.07,0-0.13,0.06-0.13,0.13s0.06,0.13,0.13,0.13h0.79c0.07,0,0.13-0.06,0.13-0.13
		S30.4,27.47,30.32,27.47z"/>
	<path class="st38" d="M20.69,37.94c-0.21-0.05-0.43-0.06-0.63-0.07c-0.25-0.01-0.49-0.02-0.71-0.11c-0.07-0.02-0.14,0.01-0.17,0.08
		c-0.03,0.07,0.01,0.14,0.08,0.17c0.26,0.1,0.53,0.11,0.79,0.12c0.21,0.01,0.4,0.02,0.58,0.07c0.01,0,0.02,0.01,0.03,0.01
		c0.06,0,0.11-0.04,0.13-0.1C20.81,38.03,20.76,37.96,20.69,37.94L20.69,37.94z"/>
	<path class="st38" d="M21.16,38.44c-0.5-0.07-1-0.09-1.49-0.11c-0.46-0.02-0.94-0.03-1.41-0.1c-0.07-0.01-0.14,0.04-0.15,0.11
		c-0.01,0.07,0.04,0.14,0.11,0.15c0.48,0.07,0.97,0.09,1.44,0.1c0.48,0.02,0.98,0.03,1.46,0.11c0.01,0,0.01,0,0.02,0
		c0.06,0,0.12-0.05,0.13-0.11C21.28,38.52,21.23,38.45,21.16,38.44z"/>
	<path class="st38" d="M20.25,39.03h-1.61c-0.07,0-0.13,0.06-0.13,0.13c0,0.07,0.06,0.13,0.13,0.13h1.61c0.07,0,0.13-0.06,0.13-0.13
		C20.38,39.09,20.32,39.03,20.25,39.03z"/>
	<path class="st38" d="M19.93,39.6c-0.18-0.03-0.36-0.02-0.54-0.02c-0.17,0.01-0.32,0.02-0.48-0.01c-0.07-0.01-0.14,0.04-0.15,0.11
		c-0.01,0.07,0.04,0.14,0.11,0.15c0.18,0.03,0.36,0.02,0.53,0.01c0.17-0.01,0.33-0.02,0.49,0.01c0.01,0,0.02,0,0.02,0
		c0.06,0,0.12-0.04,0.13-0.11C20.06,39.68,20.01,39.61,19.93,39.6L19.93,39.6z"/>
	<path class="st38" d="M22.35,40.58c-0.07,0.01-0.12,0.07-0.12,0.14c0.01,0.13,0,0.27-0.02,0.4c-0.02,0.07,0.03,0.14,0.1,0.15
		c0.01,0,0.02,0,0.02,0c0.06,0,0.12-0.04,0.13-0.11c0.03-0.15,0.04-0.31,0.02-0.47C22.48,40.63,22.42,40.57,22.35,40.58z"/>
	<path class="st38" d="M22.21,41.49c-0.07,0.01-0.12,0.07-0.12,0.14c0.01,0.1,0,0.21-0.02,0.3c-0.02,0.07,0.03,0.14,0.1,0.16
		c0.01,0,0.02,0.01,0.03,0.01c0.06,0,0.11-0.04,0.13-0.1c0.03-0.12,0.04-0.25,0.03-0.38C22.35,41.54,22.28,41.48,22.21,41.49z"/>
	<path class="st38" d="M21.86,41.09c-0.07-0.03-0.14,0.01-0.16,0.08c-0.05,0.12-0.08,0.27-0.1,0.42c-0.01,0.07,0.04,0.14,0.11,0.15
		c0.01,0,0.01,0,0.02,0c0.07,0,0.12-0.05,0.13-0.11c0.02-0.12,0.05-0.25,0.09-0.36C21.96,41.19,21.93,41.11,21.86,41.09z"/>
	<path class="st38" d="M30.47,39.88c-0.13,0.04-0.27,0.04-0.42,0.05c-0.08,0-0.17,0.01-0.26,0.02c-0.07,0.01-0.12,0.07-0.12,0.14
		c0.01,0.07,0.06,0.12,0.13,0.12c0.01,0,0.01,0,0.02,0c0.08-0.01,0.16-0.01,0.24-0.02c0.16-0.01,0.32-0.01,0.48-0.06
		c0.07-0.02,0.11-0.09,0.09-0.16C30.61,39.9,30.54,39.86,30.47,39.88z"/>
	<path class="st38" d="M31.1,40.31c-0.61,0.07-1.21,0.13-1.8,0.14c-0.07,0-0.13,0.06-0.13,0.13c0,0.07,0.06,0.13,0.13,0.13
		c0.6,0,1.21-0.07,1.82-0.14c0.07-0.01,0.12-0.07,0.11-0.15C31.24,40.35,31.18,40.3,31.1,40.31z"/>
</g>
</svg>
