<?xml version="1.0" encoding="utf-8"?>
<!-- Generator: Adobe Illustrator 27.3.1, SVG Export Plug-In . SVG Version: 6.00 Build 0)  -->
<svg version="1.1" id="Layer_1" xmlns="http://www.w3.org/2000/svg" xmlns:xlink="http://www.w3.org/1999/xlink" x="0px" y="0px"
	 viewBox="0 0 50 50" style="enable-background:new 0 0 50 50;" xml:space="preserve">
<style type="text/css">
	.st0{fill:none;}
	.st1{stroke:#000000;stroke-miterlimit:10;}
	.st2{stroke:#000000;stroke-width:0.75;stroke-miterlimit:10;}
	.st3{clip-path:url(#SVGID_00000083803376000819741950000006857808853819153031_);}
	.st4{clip-path:url(#SVGID_00000095336638173839498120000016694873902443139466_);}
	.st5{fill:#FFFFFF;}
	.st6{clip-path:url(#SVGID_00000182505819041634827880000013198563645822856601_);}
	.st7{fill:#231F20;}
	.st8{clip-path:url(#SVGID_00000022538443984120951140000016890711319101983670_);}
	.st9{clip-path:url(#SVGID_00000045610539265752579530000003851563745695369865_);}
	.st10{clip-path:url(#SVGID_00000138546373075946274680000004454397042617189515_);}
	.st11{clip-path:url(#SVGID_00000130613182041696371590000016855129612904942749_);}
	.st12{clip-path:url(#SVGID_00000152232372979924805160000010737985405657885621_);}
	.st13{clip-path:url(#SVGID_00000076590642450708284830000000891455201868770193_);}
	.st14{clip-path:url(#SVGID_00000032630596826649517830000016921174778523163022_);}
	.st15{clip-path:url(#SVGID_00000023262788558965302470000005792631848984316557_);}
	.st16{clip-path:url(#SVGID_00000121279315722998297700000010902693539325776552_);}
	.st17{clip-path:url(#SVGID_00000139280180189408526340000006709258810069889977_);}
	.st18{clip-path:url(#SVGID_00000073687540526492875190000007505822031665424268_);}
	.st19{clip-path:url(#SVGID_00000123439598842170213780000018006383449533461394_);}
	.st20{clip-path:url(#SVGID_00000153694424368748731660000006593310689706885250_);}
	.st21{clip-path:url(#SVGID_00000003093580422287084180000002348962163998245558_);}
	.st22{clip-path:url(#SVGID_00000039854847235105035860000004440654632549563556_);}
	.st23{clip-path:url(#SVGID_00000174568948509899795830000007003918148111147174_);}
	.st24{clip-path:url(#SVGID_00000173858077785234139340000002399569745808857231_);}
	.st25{clip-path:url(#SVGID_00000021818776719955672530000001897289588830414507_);}
	.st26{clip-path:url(#SVGID_00000066505876611125344490000005789804877893603004_);}
	.st27{clip-path:url(#SVGID_00000088100707912012994780000001899396686891105451_);}
	.st28{clip-path:url(#SVGID_00000129187405161810344870000003933735734196863402_);}
	.st29{clip-path:url(#SVGID_00000164488357806640754340000003026446812190029207_);}
	.st30{clip-path:url(#SVGID_00000015335570256405567460000016820780608550952358_);}
	.st31{fill-rule:evenodd;clip-rule:evenodd;}
	.st32{clip-path:url(#SVGID_00000002368355882373610170000001153955073383674276_);}
	.st33{clip-path:url(#SVGID_00000006679159581594529410000005852258411702755515_);}
	.st34{stroke:#000000;stroke-width:0.5;stroke-miterlimit:10;}
	.st35{clip-path:url(#SVGID_00000168110669637010674570000008501070846018844035_);}
	.st36{clip-path:url(#SVGID_00000049220190269686357160000009808184831972018866_);}
	.st37{clip-path:url(#SVGID_00000066493596291614225310000015320361613087708569_);}
	.st38{fill:#1A1A1A;}
	.st39{clip-path:url(#SVGID_00000029007188576569753700000018283958057673484199_);}
	.st40{clip-path:url(#SVGID_00000075870188219045074730000018323505874563821755_);}
	.st41{clip-path:url(#SVGID_00000092414745208406220250000003502217421873777561_);}
	.st42{clip-path:url(#SVGID_00000049936970842270852340000010162517711331528071_);}
	.st43{clip-path:url(#SVGID_00000159450227894452897390000017102862494754290860_);}
	.st44{clip-path:url(#SVGID_00000026865387202142747520000015035825220653420182_);}
	.st45{clip-path:url(#SVGID_00000132800590568547111700000003654043675277781937_);}
	.st46{clip-path:url(#SVGID_00000045578068043507546140000002760577795399070342_);}
	.st47{clip-path:url(#SVGID_00000050636634205743553900000015169444666606190767_);}
	.st48{fill:#F1F1F1;}
	.st49{fill:#E8E8E8;}
	.st50{fill:#FEFEFE;}
	.st51{fill:#CCCCCC;}
	.st52{fill:#B3B3B3;}
	.st53{fill:#E6E6E6;}
	.st54{fill:#EBEBEB;}
	.st55{fill:#EEEEEE;}
	.st56{fill:#F8F8F8;}
	.st57{fill:#FBFBFB;}
	.st58{fill:#383838;}
	.st59{fill:#232323;}
	.st60{fill:#F6F6F6;}
	.st61{fill:#535353;}
	.st62{fill:#0A0A0A;}
	.st63{fill:#F5F5F5;}
	.st64{fill:#818181;}
	.st65{fill:#4A4A4A;}
	.st66{fill:#999999;}
	.st67{fill:url(#SVGID_00000034052758066973951910000007067580930689894568_);}
	.st68{fill:url(#SVGID_00000072273726561379978420000004635839026999521972_);}
	.st69{fill:#0E0E0D;}
	.st70{fill:#333333;}
	.st71{fill:#808080;}
	.st72{fill:url(#SVGID_00000146495700585893069360000011856602501948923272_);}
	.st73{fill:#666666;}
	.st74{fill:url(#SVGID_00000073717214242545322170000001044222861644185783_);}
	.st75{fill:url(#SVGID_00000173864738672057500690000014545413843960280488_);}
	.st76{fill:url(#SVGID_00000130630129753213201070000010940931521710618300_);}
	.st77{fill:url(#SVGID_00000048477919261625260320000010133047819073528999_);}
	.st78{fill:url(#SVGID_00000112620991302086263290000007103530073601530240_);}
	.st79{clip-path:url(#SVGID_00000066485793489382485560000004548320004280184241_);}
	.st80{clip-path:url(#SVGID_00000023240045673311015030000018025785104510362551_);}
	.st81{clip-path:url(#SVGID_00000040534645137622439120000007071355616470580864_);}
	.st82{clip-path:url(#SVGID_00000150817502546995667880000006696172454105963907_);}
	.st83{clip-path:url(#SVGID_00000140006473564317440210000010502655465563626664_);}
	.st84{fill:#241F20;stroke:#000000;stroke-width:0.5;stroke-miterlimit:10;}
	.st85{clip-path:url(#SVGID_00000163785447121295545160000014488505295284452228_);}
	.st86{clip-path:url(#SVGID_00000150077058855083019380000003624206336710931329_);}
	.st87{clip-path:url(#SVGID_00000083063367342892839740000011250030977619477677_);}
	.st88{clip-path:url(#SVGID_00000178897227921305327140000002706706490273903033_);}
	.st89{clip-path:url(#SVGID_00000006697790190654089450000016494817844292436621_);}
	.st90{clip-path:url(#SVGID_00000181063435031364803920000014139982180787396994_);}
	.st91{clip-path:url(#SVGID_00000036967815496882125570000017610356890139362458_);}
	.st92{clip-path:url(#SVGID_00000129207449967508121390000009784104232714979483_);}
	.st93{clip-path:url(#SVGID_00000078728191981117236510000000744260590235158684_);}
	.st94{clip-path:url(#SVGID_00000033351790231888111270000012261088851050043803_);}
	.st95{clip-path:url(#SVGID_00000105402861771825661170000001112523349646914994_);}
	.st96{clip-path:url(#SVGID_00000095311528496355754840000005888542183459050150_);}
	.st97{clip-path:url(#SVGID_00000082334904573762315440000000294545946244391846_);}
	.st98{clip-path:url(#SVGID_00000161616033088525360640000003786189129752243366_);}
	.st99{clip-path:url(#SVGID_00000002375768341151355930000018061457692142003122_);}
	.st100{clip-path:url(#SVGID_00000111170138561341374950000017059111355363063454_);}
	.st101{clip-path:url(#SVGID_00000098211509663109791800000009566322436621138853_);}
	.st102{clip-path:url(#SVGID_00000062168257729541337130000011461481220526406542_);}
	.st103{clip-path:url(#SVGID_00000013165381222824667120000003152289545882944391_);}
	.st104{clip-path:url(#SVGID_00000048469606500771236420000016285714034796732854_);}
	.st105{clip-path:url(#SVGID_00000072248222429548215400000014952638409788841862_);}
	.st106{clip-path:url(#SVGID_00000135666210283015975160000010576748589497523840_);}
	.st107{clip-path:url(#SVGID_00000037688778321524839510000003893760992780730761_);}
	.st108{clip-path:url(#SVGID_00000132796359937801913440000014278857044541136541_);}
	.st109{clip-path:url(#SVGID_00000049192579095145673980000002527740071946893707_);}
	.st110{clip-path:url(#SVGID_00000048464565000100903460000015401314946537460120_);}
	.st111{clip-path:url(#SVGID_00000070104711351356211130000015557028939635111336_);}
	.st112{clip-path:url(#SVGID_00000154412075427021097770000003837681659918446722_);}
	.st113{clip-path:url(#SVGID_00000170252952464574328360000011095347343543851415_);}
	.st114{clip-path:url(#SVGID_00000167359001637889628690000013371134106756178619_);}
	.st115{fill:#FFFFFF;stroke:#000000;stroke-miterlimit:10;}
	.st116{clip-path:url(#SVGID_00000031195935411375503620000013793134289438575022_);}
	.st117{clip-path:url(#SVGID_00000169522828063367583200000006684214249054072717_);}
	.st118{fill:none;stroke:#010101;stroke-miterlimit:10;}
	.st119{fill:#010101;stroke:#000000;stroke-miterlimit:10;}
	.st120{clip-path:url(#SVGID_00000010291463341509542550000017826390858582125958_);}
	.st121{fill:#010101;stroke:#010101;stroke-miterlimit:10;}
	.st122{clip-path:url(#SVGID_00000114767366001126216020000008834130506750196626_);}
	.st123{clip-path:url(#SVGID_00000116199834841944375000000009212722374229405604_);}
	.st124{clip-path:url(#SVGID_00000001623029788524004920000004760739469428594338_);}
	.st125{clip-path:url(#SVGID_00000183956014226877150000000017503414238503261607_);}
	.st126{clip-path:url(#SVGID_00000096045359831425066090000016334170412081384334_);}
	.st127{fill:none;stroke:#000000;stroke-width:3;stroke-miterlimit:10;}
	.st128{clip-path:url(#SVGID_00000027562731772426871460000004917507273112567700_);}
	.st129{clip-path:url(#SVGID_00000024003752252574154060000016338959224053161871_);}
	.st130{clip-path:url(#SVGID_00000087406662134534817570000002749474206825075890_);}
	.st131{clip-path:url(#SVGID_00000114758204769524708330000001592234654409114252_);}
	.st132{fill:#040606;}
	.st133{clip-path:url(#SVGID_00000079461234942116912300000016406107276150575005_);}
	.st134{clip-path:url(#SVGID_00000028285035394339308800000006193432943916873088_);}
	.st135{clip-path:url(#SVGID_00000075151341627694108110000016657674955959253898_);}
	.st136{clip-path:url(#SVGID_00000168080705695567828510000011741115632748572832_);}
	.st137{clip-path:url(#SVGID_00000087401780412237836430000015590171335036090527_);}
	.st138{clip-path:url(#SVGID_00000051342634696994574940000008866323631975383465_);}
	.st139{clip-path:url(#SVGID_00000129901612365500139270000012986406462388139917_);}
	.st140{fill:#FFFFFF;stroke:#000000;stroke-width:1.5;stroke-miterlimit:10;}
	.st141{clip-path:url(#SVGID_00000054957849238193551620000016761515608306667406_);}
	.st142{fill:#BDBCBC;}
	.st143{clip-path:url(#SVGID_00000002372955598393682240000003120992002704207014_);}
	.st144{fill:#2E2A2B;}
	.st145{clip-path:url(#SVGID_00000134968024711255334780000013532048264160351895_);}
	.st146{clip-path:url(#SVGID_00000005250136330188572710000017355132422815292806_);}
	.st147{clip-path:url(#SVGID_00000132802560212619199410000011596237578081559176_);}
	.st148{clip-path:url(#SVGID_00000085221004754475342980000007081938331442088104_);}
	.st149{clip-path:url(#SVGID_00000124139746056239492180000004455368008069767070_);}
	.st150{fill:#272324;}
	.st151{clip-path:url(#SVGID_00000051363566388189761930000014247615218029014677_);}
	.st152{clip-path:url(#SVGID_00000156566153421649337650000007847775428465892014_);}
	.st153{clip-path:url(#SVGID_00000114059043114836958330000010515071264266200713_);}
	.st154{clip-path:url(#SVGID_00000132775494312358634540000009482711699676039063_);}
	.st155{clip-path:url(#SVGID_00000029025185984348565860000014442504802609016720_);}
	.st156{clip-path:url(#SVGID_00000176035692727586659320000013454467890590069394_);}
	.st157{fill:none;stroke:#000000;stroke-width:0.8735;stroke-linecap:round;stroke-linejoin:round;stroke-miterlimit:10;}
	.st158{clip-path:url(#SVGID_00000143615840046192805980000017523237422210550663_);}
	.st159{clip-path:url(#SVGID_00000163053805935161770710000013300654485847743112_);}
	.st160{clip-path:url(#SVGID_00000009562958916032181890000013692324305286725535_);}
	.st161{clip-path:url(#SVGID_00000147212235281097304270000018284404079116563643_);}
	.st162{clip-path:url(#SVGID_00000125579464826547202880000011876588047325435314_);}
	.st163{clip-path:url(#SVGID_00000081640203453122459640000000839102707375815827_);}
	.st164{clip-path:url(#SVGID_00000004526066026197110500000007506746603579923351_);}
	.st165{clip-path:url(#SVGID_00000027575227813325543080000004946384992120051369_);}
	.st166{clip-path:url(#SVGID_00000127041140959713822330000015303166873672636344_);}
	.st167{clip-path:url(#SVGID_00000115478125949880341720000017003134490032455341_);}
	.st168{clip-path:url(#SVGID_00000135657460712045082260000008282674101122096567_);}
	.st169{clip-path:url(#SVGID_00000121254586961486782550000014063619749505320348_);}
	.st170{clip-path:url(#SVGID_00000071548525708299538260000017858764473481099696_);}
	.st171{clip-path:url(#SVGID_00000128478276797423083400000009169190527367252927_);}
	.st172{clip-path:url(#SVGID_00000160151628815037830000000017955092380823864990_);}
	.st173{clip-path:url(#SVGID_00000040538418696663800570000003870737396632889493_);}
	.st174{clip-path:url(#SVGID_00000071530679900216611230000016092194013201513607_);}
	.st175{clip-path:url(#SVGID_00000066504655609226600710000017221016496687287726_);}
	.st176{clip-path:url(#SVGID_00000072985931025857837760000017167821939349143222_);}
	.st177{clip-path:url(#SVGID_00000075154149148821965250000010585111211040873647_);}
	.st178{clip-path:url(#SVGID_00000167380198819226755590000017225361264203719596_);}
	.st179{clip-path:url(#SVGID_00000040557857788228320620000009055009838159286699_);}
	.st180{clip-path:url(#SVGID_00000116207686954037784630000003836939711553686457_);}
	.st181{clip-path:url(#SVGID_00000096774391148927908110000003372150103456845748_);}
	.st182{clip-path:url(#SVGID_00000010997192879502237890000010441905977249372057_);}
	.st183{clip-path:url(#SVGID_00000065787991017888872460000006883735282713617560_);}
	.st184{clip-path:url(#SVGID_00000067215036686334404160000007506067902008627604_);}
	.st185{clip-path:url(#SVGID_00000168115673909026457740000003125570140516206727_);}
	.st186{clip-path:url(#SVGID_00000082328082972913642480000017673697626678591418_);}
	.st187{clip-path:url(#SVGID_00000181800914622338638170000014649563324085043087_);}
	.st188{clip-path:url(#SVGID_00000149376157963523863510000010549708489563155880_);}
	.st189{clip-path:url(#SVGID_00000026163429115472512840000007330656027865573036_);}
	.st190{clip-path:url(#SVGID_00000112593538146061048310000014862224953865231279_);}
	.st191{clip-path:url(#SVGID_00000147936561672891238950000002394580434424990105_);}
	.st192{clip-path:url(#SVGID_00000183962529548832179480000005553515263107988108_);}
	.st193{clip-path:url(#SVGID_00000134965864169304492240000008086866345063677116_);}
	.st194{clip-path:url(#SVGID_00000028319533659940929540000010761251585148035748_);}
	.st195{clip-path:url(#SVGID_00000030450589253171135990000004261498459757210558_);}
	.st196{fill:#E5E5E5;}
	.st197{fill:#1D1D1B;}
	.st198{fill:none;stroke:#000000;stroke-miterlimit:10;}
	.st199{fill:#FEFEFE;stroke:#000000;stroke-miterlimit:10;}
	.st200{clip-path:url(#SVGID_00000013180202445195881800000010397733577161418923_);}
	.st201{clip-path:url(#SVGID_00000179609862667648369900000011215332016051670459_);}
	.st202{clip-path:url(#SVGID_00000147930707776152170310000015037719202684196787_);}
	.st203{fill:#231F1F;}
	.st204{fill:#020000;}
	.st205{clip-path:url(#SVGID_00000080195421339898424100000018160977118855881611_);}
	.st206{clip-path:url(#SVGID_00000145050027651208416850000002787474964253705641_);}
	.st207{clip-path:url(#SVGID_00000047043949083638392680000000566576059202271897_);}
	.st208{clip-path:url(#SVGID_00000025402371773876696470000018011987627258818955_);}
	.st209{fill:#050000;}
	.st210{clip-path:url(#SVGID_00000114777030458544235710000011389699425454608543_);}
	.st211{clip-path:url(#SVGID_00000161630951503175170860000007177022419945252760_);}
	.st212{clip-path:url(#SVGID_00000044148315209620298880000007477236111784738705_);}
	.st213{clip-path:url(#SVGID_00000176730198773707570470000009583494652011775920_);}
	.st214{clip-path:url(#SVGID_00000060020964181073643060000001630448352775522954_);}
	.st215{clip-path:url(#SVGID_00000151524995496927304760000002690017522627897791_);}
	.st216{fill:#12100F;}
	.st217{clip-path:url(#SVGID_00000107577153604091275420000007271357393237662111_);}
	.st218{clip-path:url(#SVGID_00000060719222815898017560000004936829410755935403_);}
	.st219{fill:none;stroke:#000000;stroke-width:0.5;stroke-miterlimit:10;}
	.st220{clip-path:url(#SVGID_00000044146101529323702690000011072005991499934639_);}
	.st221{clip-path:url(#SVGID_00000030481686012331103740000011137370341539262107_);}
	.st222{clip-path:url(#SVGID_00000080178522567333105100000004185814796410772401_);}
	.st223{clip-path:url(#SVGID_00000093896221128652733200000003009815220811968150_);}
	.st224{fill:none;stroke:#000000;stroke-width:0.25;stroke-miterlimit:10;}
	.st225{clip-path:url(#SVGID_00000111872908668612728890000000557343291982864553_);}
	.st226{clip-path:url(#SVGID_00000127024778147200437590000008445138588821706911_);}
	.st227{clip-path:url(#SVGID_00000078724473387187102500000012054377494407913125_);}
</style>
<g>
	<path d="M26.5,22.99c-0.16,0-0.29-0.12-0.29-0.28c0-0.15,0.12-0.27,0.28-0.27h0.01c0.16,0,0.28,0.12,0.28,0.27
		C26.78,22.87,26.65,22.99,26.5,22.99z"/>
	<path d="M26.5,27.4c-0.16,0-0.29-0.12-0.29-0.28c0-0.15,0.12-0.27,0.28-0.27h0.01c0.16,0,0.28,0.12,0.28,0.27
		C26.78,27.28,26.65,27.4,26.5,27.4z"/>
	<path d="M26.5,31.81c-0.16,0-0.29-0.12-0.29-0.28c0-0.15,0.12-0.27,0.28-0.27h0.01c0.16,0,0.28,0.12,0.28,0.27
		C26.78,31.69,26.65,31.81,26.5,31.81z"/>
	<path d="M23.09,31.81c-0.16,0-0.29-0.12-0.29-0.28c0-0.15,0.12-0.27,0.28-0.27h0c0.16,0,0.28,0.12,0.28,0.27
		C23.37,31.69,23.25,31.81,23.09,31.81z"/>
	<path d="M23.09,27.4c-0.16,0-0.29-0.12-0.29-0.28c0-0.15,0.12-0.27,0.28-0.27h0c0.16,0,0.28,0.12,0.28,0.27
		C23.37,27.28,23.25,27.4,23.09,27.4z"/>
	<g>
		<defs>
			<rect id="SVGID_00000006680038268576873630000010449916181457001397_" x="33.34" y="36.51" width="1.95" height="1.09"/>
		</defs>
		<clipPath id="SVGID_00000028292994389964734900000012616705582256248471_">
			<use xlink:href="#SVGID_00000006680038268576873630000010449916181457001397_"  style="overflow:visible;"/>
		</clipPath>
		<g style="clip-path:url(#SVGID_00000028292994389964734900000012616705582256248471_);">
			<path d="M34.44,37.33c-0.16,0-0.29-0.12-0.29-0.28c0-0.15,0.12-0.27,0.28-0.27h0.01c0.16,0,0.28,0.12,0.28,0.27
				C34.73,37.2,34.6,37.33,34.44,37.33z"/>
		</g>
	</g>
	<path d="M14,37.33c-0.15,0-0.29-0.12-0.29-0.28c0-0.15,0.12-0.27,0.28-0.27h0c0.16,0,0.29,0.12,0.29,0.27
		C14.29,37.2,14.16,37.33,14,37.33z"/>
	<path d="M25.91,11.96H22.5c-0.15,0-0.28-0.12-0.28-0.28c0-0.15,0.13-0.27,0.28-0.27h3.41c0.16,0,0.28,0.12,0.28,0.27
		C26.19,11.84,26.07,11.96,25.91,11.96z"/>
	<path d="M21.94,25.2c-0.03,0-0.06,0-0.08-0.01c-0.15-0.04-0.24-0.19-0.19-0.34l3.97-13.24c0.04-0.15,0.2-0.23,0.35-0.19
		c0.15,0.04,0.24,0.2,0.19,0.34L22.21,25C22.17,25.12,22.06,25.2,21.94,25.2z"/>
	<path d="M23.76,16.18c-0.12,0-0.24-0.08-0.27-0.2l-1.27-4.23c-0.04-0.15,0.04-0.3,0.19-0.34c0.15-0.04,0.31,0.04,0.35,0.19
		l1.27,4.22c0.05,0.15-0.04,0.3-0.19,0.34C23.81,16.18,23.78,16.18,23.76,16.18z"/>
	<g>
		<defs>
			<rect id="SVGID_00000003824104940727808030000014014714806756595624_" x="18.01" y="9.75" width="4.38" height="3.77"/>
		</defs>
		<clipPath id="SVGID_00000014607700325761213200000010305687811704989625_">
			<use xlink:href="#SVGID_00000003824104940727808030000014014714806756595624_"  style="overflow:visible;"/>
		</clipPath>
		<g style="clip-path:url(#SVGID_00000014607700325761213200000010305687811704989625_);">
			<path d="M19.1,13.06c-0.06,0-0.12-0.02-0.18-0.06c-0.12-0.1-0.14-0.27-0.04-0.39c0.88-1.07,2.45-2.86,3.06-2.86
				c0.15,0,0.28,0.12,0.28,0.27s-0.12,0.27-0.27,0.28c-0.33,0.08-1.62,1.43-2.63,2.65C19.26,13.03,19.18,13.06,19.1,13.06z"/>
		</g>
	</g>
	<path d="M19.66,13.61c-0.07,0-0.15-0.03-0.2-0.08l-0.56-0.55c-0.11-0.11-0.11-0.28,0-0.39c0.11-0.11,0.29-0.11,0.4,0l0.57,0.55
		c0.11,0.11,0.11,0.28,0,0.39C19.81,13.59,19.74,13.61,19.66,13.61z"/>
	<g>
		<defs>
			<rect id="SVGID_00000010279311650523157770000017282683792241929882_" x="25.67" y="9.75" width="4.38" height="3.77"/>
		</defs>
		<clipPath id="SVGID_00000155115761112780080090000008277182780450250931_">
			<use xlink:href="#SVGID_00000010279311650523157770000017282683792241929882_"  style="overflow:visible;"/>
		</clipPath>
		<g style="clip-path:url(#SVGID_00000155115761112780080090000008277182780450250931_);">
			<path d="M29.32,13.06c-0.09,0-0.17-0.03-0.22-0.1c-1.01-1.23-2.3-2.59-2.63-2.65c-0.16,0-0.28-0.12-0.28-0.28
				c0-0.15,0.13-0.27,0.29-0.27c0.61,0,2.18,1.79,3.06,2.86c0.09,0.12,0.08,0.29-0.05,0.39C29.44,13.04,29.38,13.06,29.32,13.06z"/>
		</g>
	</g>
	<path d="M28.75,13.61c-0.07,0-0.15-0.03-0.2-0.08c-0.11-0.11-0.11-0.28,0-0.39l0.57-0.55c0.11-0.11,0.29-0.11,0.4,0
		c0.11,0.11,0.11,0.28,0,0.39l-0.57,0.55C28.89,13.59,28.82,13.61,28.75,13.61z"/>
	<path d="M22.49,25.75c-0.05,0-0.1-0.01-0.14-0.04c-0.14-0.07-0.18-0.24-0.11-0.38l6.83-11.58c0.08-0.13,0.25-0.18,0.39-0.1
		c0.14,0.08,0.18,0.25,0.1,0.38l-6.83,11.59C22.68,25.7,22.58,25.75,22.49,25.75z"/>
	<path d="M22.58,20.09c-0.1,0-0.19-0.05-0.24-0.14l-3.5-5.93c-0.08-0.13-0.03-0.3,0.1-0.38c0.14-0.07,0.31-0.03,0.39,0.1l3.5,5.93
		c0.08,0.13,0.03,0.3-0.11,0.38C22.68,20.08,22.63,20.09,22.58,20.09z"/>
	<g>
		<defs>
			<rect id="SVGID_00000148640334459721901600000016294665336640841919_" x="21.3" y="24.47" width="1.09" height="20.58"/>
		</defs>
		<clipPath id="SVGID_00000068677183295568239040000005551787894089477010_">
			<use xlink:href="#SVGID_00000148640334459721901600000016294665336640841919_"  style="overflow:visible;"/>
		</clipPath>
		<g style="clip-path:url(#SVGID_00000068677183295568239040000005551787894089477010_);">
			<path d="M21.94,44.5c-0.16,0-0.29-0.12-0.29-0.28v-19.3c0-0.15,0.13-0.27,0.29-0.27c0.15,0,0.28,0.12,0.28,0.27v19.3
				C22.22,44.37,22.09,44.5,21.94,44.5z"/>
		</g>
	</g>
	<g>
		<defs>
			<rect id="SVGID_00000055704338970387329330000000030601801479954848_" x="31.15" y="13.52" width="4.14" height="4.38"/>
		</defs>
		<clipPath id="SVGID_00000065787244648766121570000014755736200880727437_">
			<use xlink:href="#SVGID_00000055704338970387329330000000030601801479954848_"  style="overflow:visible;"/>
		</clipPath>
		<g style="clip-path:url(#SVGID_00000065787244648766121570000014755736200880727437_);">
			<path d="M34.99,16.92c-0.16,0-0.29-0.12-0.29-0.28c0-1.37-1.15-2.48-2.55-2.48c-0.16,0-0.29-0.12-0.29-0.28
				c0-0.15,0.13-0.27,0.29-0.27c1.72,0,3.12,1.36,3.12,3.03C35.28,16.8,35.15,16.92,34.99,16.92z"/>
		</g>
	</g>
	<g>
		<defs>
			<rect id="SVGID_00000081622221577269665910000009446068170123831468_" x="34.43" y="15.71" width="0.86" height="22.98"/>
		</defs>
		<clipPath id="SVGID_00000060026151052248369350000004159507948766126251_">
			<use xlink:href="#SVGID_00000081622221577269665910000009446068170123831468_"  style="overflow:visible;"/>
		</clipPath>
		<g style="clip-path:url(#SVGID_00000060026151052248369350000004159507948766126251_);">
			<path d="M34.99,38.43c-0.16,0-0.29-0.12-0.29-0.28V16.64c0-0.15,0.13-0.27,0.29-0.27c0.15,0,0.28,0.12,0.28,0.27v21.51
				C35.28,38.31,35.15,38.43,34.99,38.43z"/>
		</g>
	</g>
	<g>
		<defs>
			<rect id="SVGID_00000131333000421100956000000013374009067225601675_" x="32.24" y="37.6" width="3.04" height="1.09"/>
		</defs>
		<clipPath id="SVGID_00000139279157528280012700000011079956542455307141_">
			<use xlink:href="#SVGID_00000131333000421100956000000013374009067225601675_"  style="overflow:visible;"/>
		</clipPath>
		<g style="clip-path:url(#SVGID_00000139279157528280012700000011079956542455307141_);">
			<path d="M34.99,38.43h-2.27c-0.16,0-0.29-0.12-0.29-0.28c0-0.15,0.13-0.27,0.29-0.27h2.27c0.15,0,0.28,0.12,0.28,0.27
				C35.28,38.31,35.15,38.43,34.99,38.43z"/>
		</g>
	</g>
	<g>
		<defs>
			<rect id="SVGID_00000152958835779043772790000011896092329557922690_" x="31.15" y="17.9" width="2.19" height="27.14"/>
		</defs>
		<clipPath id="SVGID_00000140698442199424211170000001881521086887015600_">
			<use xlink:href="#SVGID_00000152958835779043772790000011896092329557922690_"  style="overflow:visible;"/>
		</clipPath>
		<g style="clip-path:url(#SVGID_00000140698442199424211170000001881521086887015600_);">
			<path d="M32.16,45.05c-0.16,0-0.29-0.12-0.29-0.27V18.85c0-0.15,0.13-0.27,0.29-0.27c0.15,0,0.28,0.12,0.28,0.27v25.92
				C32.44,44.92,32.31,45.05,32.16,45.05z"/>
		</g>
	</g>
	<g>
		<defs>
			<rect id="SVGID_00000036220359665557633700000016698508805420811932_" x="15.82" y="17.9" width="2.19" height="27.14"/>
		</defs>
		<clipPath id="SVGID_00000008114489789187015190000016724710517835266447_">
			<use xlink:href="#SVGID_00000036220359665557633700000016698508805420811932_"  style="overflow:visible;"/>
		</clipPath>
		<g style="clip-path:url(#SVGID_00000008114489789187015190000016724710517835266447_);">
			<path d="M16.83,45.05c-0.15,0-0.28-0.12-0.28-0.27V18.85c0-0.15,0.13-0.27,0.28-0.27c0.16,0,0.29,0.12,0.29,0.27v25.92
				C17.11,44.92,16.98,45.05,16.83,45.05z"/>
		</g>
	</g>
	<path d="M32.16,14.17h-1.71c-0.15,0-0.28-0.12-0.28-0.28c0-0.15,0.13-0.27,0.28-0.27h1.71c0.15,0,0.28,0.12,0.28,0.27
		C32.44,14.04,32.31,14.17,32.16,14.17z"/>
	<g>
		<defs>
			<rect id="SVGID_00000029754608833883445600000010614020483578765216_" x="13.12" y="13.52" width="3.8" height="4.38"/>
		</defs>
		<clipPath id="SVGID_00000088130574961179354440000001805510339650215842_">
			<use xlink:href="#SVGID_00000029754608833883445600000010614020483578765216_"  style="overflow:visible;"/>
		</clipPath>
		<g style="clip-path:url(#SVGID_00000088130574961179354440000001805510339650215842_);">
			<path d="M13.42,16.92c-0.16,0-0.29-0.12-0.29-0.28c0-1.67,1.4-3.03,3.13-3.03c0.15,0,0.28,0.12,0.28,0.27
				c0,0.15-0.13,0.28-0.28,0.28c-1.41,0-2.56,1.11-2.56,2.48C13.7,16.8,13.58,16.92,13.42,16.92z"/>
		</g>
	</g>
	<g>
		<defs>
			<rect id="SVGID_00000043459599178216738810000011136804842091400610_" x="13.12" y="15.71" width="1.61" height="22.98"/>
		</defs>
		<clipPath id="SVGID_00000146468449567439400000000014415246650587196559_">
			<use xlink:href="#SVGID_00000043459599178216738810000011136804842091400610_"  style="overflow:visible;"/>
		</clipPath>
		<g style="clip-path:url(#SVGID_00000146468449567439400000000014415246650587196559_);">
			<path d="M13.42,38.43c-0.16,0-0.29-0.12-0.29-0.28V16.64c0-0.15,0.13-0.27,0.29-0.27c0.15,0,0.28,0.12,0.28,0.27v21.51
				C13.7,38.31,13.58,38.43,13.42,38.43z"/>
		</g>
	</g>
	<g>
		<defs>
			<rect id="SVGID_00000129898979503310434550000008724143444250499236_" x="13.12" y="37.6" width="3.8" height="1.09"/>
		</defs>
		<clipPath id="SVGID_00000131360580308005370440000004425972524022634676_">
			<use xlink:href="#SVGID_00000129898979503310434550000008724143444250499236_"  style="overflow:visible;"/>
		</clipPath>
		<g style="clip-path:url(#SVGID_00000131360580308005370440000004425972524022634676_);">
			<path d="M15.69,38.43h-2.27c-0.16,0-0.29-0.12-0.29-0.28c0-0.15,0.13-0.27,0.29-0.27h2.27c0.16,0,0.28,0.12,0.28,0.27
				C15.97,38.31,15.85,38.43,15.69,38.43z"/>
		</g>
	</g>
	<path d="M17.96,14.17h-1.7c-0.16,0-0.29-0.12-0.29-0.28c0-0.15,0.13-0.27,0.29-0.27h1.7c0.16,0,0.28,0.12,0.28,0.27
		C18.24,14.04,18.12,14.17,17.96,14.17z"/>
	<g>
		<defs>
			<rect id="SVGID_00000110430198816811501240000017609996392423121849_" x="15.82" y="44.17" width="17.51" height="0.88"/>
		</defs>
		<clipPath id="SVGID_00000176760382317571300420000000667859399168706468_">
			<use xlink:href="#SVGID_00000110430198816811501240000017609996392423121849_"  style="overflow:visible;"/>
		</clipPath>
		<g style="clip-path:url(#SVGID_00000176760382317571300420000000667859399168706468_);">
			<path d="M32.16,45.05H16.83c-0.15,0-0.28-0.12-0.28-0.27c0-0.15,0.13-0.28,0.28-0.28h15.33c0.15,0,0.28,0.12,0.28,0.28
				C32.44,44.92,32.31,45.05,32.16,45.05z"/>
		</g>
	</g>
	<g>
		<defs>
			<rect id="SVGID_00000162346801948287151170000008853848495613398956_" x="33.34" y="35.41" width="1.95" height="1.09"/>
		</defs>
		<clipPath id="SVGID_00000150810130525196798210000012737216193914561969_">
			<use xlink:href="#SVGID_00000162346801948287151170000008853848495613398956_"  style="overflow:visible;"/>
		</clipPath>
		<g style="clip-path:url(#SVGID_00000150810130525196798210000012737216193914561969_);">
			<path d="M34.99,36.22h-1.14c-0.16,0-0.28-0.12-0.28-0.28c0-0.15,0.12-0.27,0.28-0.27h1.14c0.15,0,0.28,0.12,0.28,0.27
				C35.28,36.1,35.15,36.22,34.99,36.22z"/>
		</g>
	</g>
	<g>
		<defs>
			<rect id="SVGID_00000062882012416250871160000002019488871282285976_" x="13.12" y="35.41" width="2.7" height="1.09"/>
		</defs>
		<clipPath id="SVGID_00000024719538325903453530000013540635038495922099_">
			<use xlink:href="#SVGID_00000062882012416250871160000002019488871282285976_"  style="overflow:visible;"/>
		</clipPath>
		<g style="clip-path:url(#SVGID_00000024719538325903453530000013540635038495922099_);">
			<path d="M14.55,36.22h-1.13c-0.16,0-0.29-0.12-0.29-0.28c0-0.15,0.13-0.27,0.29-0.27h1.13c0.16,0,0.29,0.12,0.29,0.27
				C14.84,36.1,14.71,36.22,14.55,36.22z"/>
		</g>
	</g>
</g>
</svg>
