<?xml version="1.0" encoding="utf-8"?>
<!-- Generator: Adobe Illustrator 27.3.1, SVG Export Plug-In . SVG Version: 6.00 Build 0)  -->
<svg version="1.1" id="Layer_1" xmlns="http://www.w3.org/2000/svg" xmlns:xlink="http://www.w3.org/1999/xlink" x="0px" y="0px"
	 viewBox="0 0 50 50" style="enable-background:new 0 0 50 50;" xml:space="preserve">
<style type="text/css">
	.st0{fill:none;}
	.st1{stroke:#000000;stroke-miterlimit:10;}
	.st2{stroke:#000000;stroke-width:0.75;stroke-miterlimit:10;}
	.st3{clip-path:url(#SVGID_00000101803328859086351040000008768081482223643047_);}
	.st4{clip-path:url(#SVGID_00000127046317999966058890000003742586338205259913_);}
	.st5{fill:#FFFFFF;}
	.st6{clip-path:url(#SVGID_00000178197413012859612340000005423392937477190568_);}
	.st7{fill:#231F20;}
	.st8{clip-path:url(#SVGID_00000119080638412091320240000003022864260172091801_);}
	.st9{clip-path:url(#SVGID_00000014611696341316847220000018177919812440076712_);}
	.st10{clip-path:url(#SVGID_00000011727032877303189830000002409313525463173273_);}
	.st11{clip-path:url(#SVGID_00000045615813126813312200000004227424963132014731_);}
	.st12{clip-path:url(#SVGID_00000144335494153671799880000013460931325403177600_);}
	.st13{clip-path:url(#SVGID_00000024719840093769656130000009150066136744373664_);}
	.st14{clip-path:url(#SVGID_00000056385766825425048520000015328410238704311201_);}
	.st15{clip-path:url(#SVGID_00000042712226827239715640000009041004539580404356_);}
	.st16{clip-path:url(#SVGID_00000147185952046671208260000016770246844302945434_);}
	.st17{clip-path:url(#SVGID_00000170243543353469829940000013285556054253644429_);}
	.st18{clip-path:url(#SVGID_00000041282461758171107120000008720715564333348501_);}
	.st19{clip-path:url(#SVGID_00000044143682584577777080000008998292238550291332_);}
	.st20{clip-path:url(#SVGID_00000123428881104446339140000017048278239381572737_);}
	.st21{clip-path:url(#SVGID_00000121251355744371144410000000034309825347934628_);}
	.st22{clip-path:url(#SVGID_00000041255244426509183920000011297125625874621847_);}
	.st23{clip-path:url(#SVGID_00000099642631932086789790000009002571401843496322_);}
	.st24{clip-path:url(#SVGID_00000026860850279013946200000018132513623145073055_);}
	.st25{clip-path:url(#SVGID_00000001634273920199140560000013510105106273776022_);}
	.st26{clip-path:url(#SVGID_00000004524147923898968710000012203203515163856058_);}
	.st27{clip-path:url(#SVGID_00000066512883236416554340000004238198044564120487_);}
	.st28{clip-path:url(#SVGID_00000074418159383416453690000000063871573002545083_);}
	.st29{clip-path:url(#SVGID_00000133489431820221105100000008859185539510874270_);}
	.st30{clip-path:url(#SVGID_00000154412064141219660990000009441776693485887104_);}
	.st31{fill-rule:evenodd;clip-rule:evenodd;}
	.st32{clip-path:url(#SVGID_00000066515431601109178020000005241760174410116238_);}
	.st33{clip-path:url(#SVGID_00000011717385500568959660000014523938015770137518_);}
	.st34{stroke:#000000;stroke-width:0.5;stroke-miterlimit:10;}
	.st35{clip-path:url(#SVGID_00000084507970399705550150000006517533042967895938_);}
	.st36{clip-path:url(#SVGID_00000065049493709925344260000012478836003555164327_);}
	.st37{clip-path:url(#SVGID_00000064342002928651792180000002122118936667769479_);}
	.st38{fill:#1A1A1A;}
	.st39{clip-path:url(#SVGID_00000134212579724744522510000006628334046511872700_);}
	.st40{clip-path:url(#SVGID_00000115512480674305662950000010998284289391742599_);}
	.st41{clip-path:url(#SVGID_00000046307100757734495110000015523340538723002499_);}
	.st42{clip-path:url(#SVGID_00000178890389572477459430000001676483377924264880_);}
	.st43{clip-path:url(#SVGID_00000000199343435108261870000002161715393207299242_);}
	.st44{clip-path:url(#SVGID_00000026842105238764637660000007382996196179843968_);}
	.st45{clip-path:url(#SVGID_00000027593338637463521970000000739912370298287799_);}
	.st46{clip-path:url(#SVGID_00000172440775479922547310000015863588432381428390_);}
	.st47{clip-path:url(#SVGID_00000032626677057722147640000016470727178752996745_);}
	.st48{fill:#F1F1F1;}
	.st49{fill:#E8E8E8;}
	.st50{fill:#FEFEFE;}
	.st51{fill:#CCCCCC;}
	.st52{fill:#B3B3B3;}
	.st53{fill:#E6E6E6;}
	.st54{fill:#EBEBEB;}
	.st55{fill:#EEEEEE;}
	.st56{fill:#F8F8F8;}
	.st57{fill:#FBFBFB;}
	.st58{fill:#383838;}
	.st59{fill:#232323;}
	.st60{fill:#F6F6F6;}
	.st61{fill:#535353;}
	.st62{fill:#0A0A0A;}
	.st63{fill:#F5F5F5;}
	.st64{fill:#818181;}
	.st65{fill:#4A4A4A;}
	.st66{fill:#999999;}
	.st67{fill:url(#SVGID_00000121239475458393130000000014989053931225653175_);}
	.st68{fill:url(#SVGID_00000118371443590151661490000014870193402169848254_);}
	.st69{fill:#0E0E0D;}
	.st70{fill:#333333;}
	.st71{fill:#808080;}
	.st72{fill:url(#SVGID_00000026157410986142077020000006442700348431217845_);}
	.st73{fill:#666666;}
	.st74{fill:url(#SVGID_00000016772371739989734580000010513389794345105816_);}
	.st75{fill:url(#SVGID_00000176762212377745722810000015945357066205147039_);}
	.st76{fill:url(#SVGID_00000019672050318871160170000005059582708267227551_);}
	.st77{fill:url(#SVGID_00000052818850511608683250000010429285237266565310_);}
	.st78{fill:url(#SVGID_00000101805505684200423270000002488261186436090284_);}
	.st79{clip-path:url(#SVGID_00000065795512410244139290000013170134640649567624_);}
	.st80{clip-path:url(#SVGID_00000038400120003466635860000014313641526115937682_);}
	.st81{clip-path:url(#SVGID_00000114032003871116652480000000540973048965986995_);}
	.st82{clip-path:url(#SVGID_00000045604812265532305400000017967495621196112793_);}
	.st83{clip-path:url(#SVGID_00000092417495108131624420000009738209703236460417_);}
	.st84{fill:#241F20;stroke:#000000;stroke-width:0.5;stroke-miterlimit:10;}
	.st85{clip-path:url(#SVGID_00000077293873999126301050000000340698942018436999_);}
	.st86{clip-path:url(#SVGID_00000151524301380991509230000013360593525285775493_);}
	.st87{clip-path:url(#SVGID_00000169560324142283269580000017624705386829632418_);}
	.st88{clip-path:url(#SVGID_00000124130405099577443040000005410563577858290308_);}
	.st89{clip-path:url(#SVGID_00000124153353569231872730000003106114338059040409_);}
	.st90{clip-path:url(#SVGID_00000029036266533569633530000003627902253230277009_);}
	.st91{clip-path:url(#SVGID_00000146458325833522627850000007124073780506633914_);}
	.st92{clip-path:url(#SVGID_00000103239080947623019610000015389660216206067895_);}
	.st93{clip-path:url(#SVGID_00000121278880132383356350000007696544513191639686_);}
	.st94{clip-path:url(#SVGID_00000060712183867893294380000009517882655107548837_);}
	.st95{clip-path:url(#SVGID_00000078746709960129096160000007400296044382658455_);}
	.st96{clip-path:url(#SVGID_00000095330128062552330400000009364494875311793850_);}
	.st97{clip-path:url(#SVGID_00000177474907557412101080000011325776356437337762_);}
	.st98{clip-path:url(#SVGID_00000115510628334292791180000002830361850879260330_);}
	.st99{clip-path:url(#SVGID_00000132772060076281664950000000695469519672350364_);}
	.st100{clip-path:url(#SVGID_00000112632204572424820180000005102577511347249562_);}
	.st101{clip-path:url(#SVGID_00000075854516063522962760000000799736963824840576_);}
	.st102{clip-path:url(#SVGID_00000045609325616146892650000017343414310295864510_);}
	.st103{clip-path:url(#SVGID_00000121982296471827650470000004126486769602432179_);}
	.st104{clip-path:url(#SVGID_00000154393349323855385420000013670559419902824378_);}
	.st105{clip-path:url(#SVGID_00000137123846500264938030000015122211986207330959_);}
	.st106{clip-path:url(#SVGID_00000067194843132752497400000015410761724585864337_);}
	.st107{clip-path:url(#SVGID_00000067234886567935682980000012098872781027895938_);}
	.st108{clip-path:url(#SVGID_00000034062580259885954610000014036996913353410463_);}
	.st109{clip-path:url(#SVGID_00000013900633786943230020000012809992695255893633_);}
	.st110{clip-path:url(#SVGID_00000143587017746800610050000010959592736571712681_);}
	.st111{clip-path:url(#SVGID_00000164479611784722520000000015653891102652386964_);}
	.st112{clip-path:url(#SVGID_00000000220391163777290810000017365694983832747657_);}
	.st113{clip-path:url(#SVGID_00000155129154149784146400000012066021437886458007_);}
	.st114{clip-path:url(#SVGID_00000021107964462777112720000003940430004685575330_);}
	.st115{fill:#FFFFFF;stroke:#000000;stroke-miterlimit:10;}
	.st116{clip-path:url(#SVGID_00000119102188791935227690000001335594620452034987_);}
	.st117{clip-path:url(#SVGID_00000117662477267715587120000017581125566633135514_);}
	.st118{fill:none;stroke:#010101;stroke-miterlimit:10;}
	.st119{fill:#010101;stroke:#000000;stroke-miterlimit:10;}
	.st120{clip-path:url(#SVGID_00000159444562725115661390000011370523642152532359_);}
	.st121{fill:#010101;stroke:#010101;stroke-miterlimit:10;}
	.st122{clip-path:url(#SVGID_00000064335595102964219470000017995202597888582335_);}
	.st123{clip-path:url(#SVGID_00000163072525732781958600000017574105709355009676_);}
	.st124{clip-path:url(#SVGID_00000049205529752996625230000003253705773172996796_);}
	.st125{clip-path:url(#SVGID_00000000933909208946054110000013641729043296888496_);}
	.st126{clip-path:url(#SVGID_00000075142843910478824060000013811992482180019361_);}
	.st127{fill:none;stroke:#000000;stroke-width:3;stroke-miterlimit:10;}
	.st128{clip-path:url(#SVGID_00000127033150656682817110000000842263480253838253_);}
	.st129{clip-path:url(#SVGID_00000038393104056632499100000015302196657817797563_);}
	.st130{clip-path:url(#SVGID_00000080908164880223745810000015323596081026836614_);}
	.st131{clip-path:url(#SVGID_00000057833182020149340370000007293391688973648812_);}
	.st132{fill:#040606;}
	.st133{clip-path:url(#SVGID_00000112618458840375086420000012381441165238725251_);}
	.st134{clip-path:url(#SVGID_00000009547953532414406310000017187758993633603748_);}
	.st135{clip-path:url(#SVGID_00000052076696351967262220000017718298848955774633_);}
	.st136{clip-path:url(#SVGID_00000057870071122782325860000008175808376236425885_);}
	.st137{clip-path:url(#SVGID_00000031920996286775656790000002150803135366481545_);}
	.st138{clip-path:url(#SVGID_00000021835446331246308930000011431143217372979623_);}
	.st139{clip-path:url(#SVGID_00000034069342953862518940000011080683241760069773_);}
	.st140{fill:#FFFFFF;stroke:#000000;stroke-width:1.5;stroke-miterlimit:10;}
	.st141{clip-path:url(#SVGID_00000044893544792172434760000014959086508035338639_);}
	.st142{fill:#BDBCBC;}
	.st143{clip-path:url(#SVGID_00000124879712695932747840000005872592253812491923_);}
	.st144{fill:#2E2A2B;}
	.st145{clip-path:url(#SVGID_00000120518405935402511040000008178115967035554238_);}
	.st146{clip-path:url(#SVGID_00000059267544330604752880000014300949740347238843_);}
	.st147{clip-path:url(#SVGID_00000020399143803223058000000014670142881842985912_);}
	.st148{clip-path:url(#SVGID_00000142143341749110124610000006657005411133277862_);}
	.st149{clip-path:url(#SVGID_00000039096718069464567340000005686694563544670609_);}
	.st150{fill:#272324;}
	.st151{clip-path:url(#SVGID_00000119839540019406172970000007268724218110763930_);}
	.st152{clip-path:url(#SVGID_00000148654355338868830530000016565172026703069096_);}
	.st153{clip-path:url(#SVGID_00000144319075540866080370000003815303276151605410_);}
	.st154{clip-path:url(#SVGID_00000101785603829703673380000000553372062380487297_);}
	.st155{clip-path:url(#SVGID_00000032627721364054343490000016428064456866773693_);}
	.st156{clip-path:url(#SVGID_00000170273718190712402310000010343158433067986603_);}
	.st157{fill:none;stroke:#000000;stroke-width:0.8735;stroke-linecap:round;stroke-linejoin:round;stroke-miterlimit:10;}
	.st158{clip-path:url(#SVGID_00000005261669549821860040000007993954352271215532_);}
	.st159{clip-path:url(#SVGID_00000039832596459741173930000004989709516743357060_);}
	.st160{clip-path:url(#SVGID_00000079464236255486495610000004451639799422742696_);}
	.st161{clip-path:url(#SVGID_00000086684262215148652720000013807720421446430888_);}
	.st162{clip-path:url(#SVGID_00000075871585798056163170000016864935758381620130_);}
	.st163{clip-path:url(#SVGID_00000067232539274724429080000008873556771614525862_);}
	.st164{clip-path:url(#SVGID_00000088831466582704430280000011091300509943276204_);}
	.st165{clip-path:url(#SVGID_00000156569453854089623970000002742842059855543434_);}
	.st166{clip-path:url(#SVGID_00000111157986397551633750000007451997085837071004_);}
	.st167{clip-path:url(#SVGID_00000022530798738145361720000009067526407826139779_);}
	.st168{clip-path:url(#SVGID_00000179640801632049151050000010323240739430124210_);}
	.st169{clip-path:url(#SVGID_00000057837305585567878060000000035294278429021591_);}
	.st170{clip-path:url(#SVGID_00000128448870156220632200000014372727351896865186_);}
	.st171{clip-path:url(#SVGID_00000096033662285605247720000004778388574831681693_);}
	.st172{clip-path:url(#SVGID_00000132792632728097998830000009404533176987152817_);}
	.st173{clip-path:url(#SVGID_00000056392592137804925430000006920646152441658542_);}
	.st174{clip-path:url(#SVGID_00000168095456840714494130000018192193386557988248_);}
	.st175{clip-path:url(#SVGID_00000095320639188139024110000007867450824512802200_);}
	.st176{clip-path:url(#SVGID_00000065076999006638886000000015486837543306238346_);}
	.st177{clip-path:url(#SVGID_00000012433421650560247480000011884273999400171650_);}
	.st178{clip-path:url(#SVGID_00000048487454068885944830000015373828994473927065_);}
	.st179{clip-path:url(#SVGID_00000106125747877842067940000010024046559653136278_);}
	.st180{clip-path:url(#SVGID_00000063591999537584699290000011433325265561946296_);}
	.st181{clip-path:url(#SVGID_00000018945362110329507850000017514870380427551669_);}
	.st182{clip-path:url(#SVGID_00000175295130233117185620000017398212227893543584_);}
	.st183{clip-path:url(#SVGID_00000063620102848356031000000008890720333405170863_);}
	.st184{clip-path:url(#SVGID_00000145754287617924452290000017688575813994815910_);}
	.st185{clip-path:url(#SVGID_00000069388414962041544860000013586803146713283983_);}
	.st186{clip-path:url(#SVGID_00000018920488744506701840000016354127471049059004_);}
	.st187{clip-path:url(#SVGID_00000152255602900517045370000014306361724734411911_);}
	.st188{clip-path:url(#SVGID_00000016048633260262865780000012144458072144756657_);}
	.st189{clip-path:url(#SVGID_00000131328843419292910030000011799854460660397186_);}
	.st190{clip-path:url(#SVGID_00000022525507733373641730000004768750459867037073_);}
	.st191{clip-path:url(#SVGID_00000125568587043853207510000014965319707818154131_);}
	.st192{clip-path:url(#SVGID_00000138548450238695670140000013201876484603249327_);}
	.st193{clip-path:url(#SVGID_00000051376579404056637740000010310073224748875181_);}
	.st194{clip-path:url(#SVGID_00000111910429829579858010000005097086135977140613_);}
	.st195{clip-path:url(#SVGID_00000100348577601992891190000009636126315983266486_);}
	.st196{fill:#E5E5E5;}
	.st197{fill:#1D1D1B;}
	.st198{fill:none;stroke:#000000;stroke-miterlimit:10;}
	.st199{fill:#FEFEFE;stroke:#000000;stroke-miterlimit:10;}
	.st200{clip-path:url(#SVGID_00000172405668039929286020000008328991548202770363_);}
	.st201{clip-path:url(#SVGID_00000093896992682417076910000005464412815828750769_);}
	.st202{clip-path:url(#SVGID_00000083054066284232739450000012315328518278406554_);}
	.st203{fill:#231F1F;}
	.st204{fill:#020000;}
	.st205{clip-path:url(#SVGID_00000182499064454302687030000001297013247951806377_);}
	.st206{clip-path:url(#SVGID_00000155842053876495117830000000737377065442342016_);}
	.st207{clip-path:url(#SVGID_00000039108753584392908910000003543898314328966542_);}
	.st208{clip-path:url(#SVGID_00000080207970989129801230000015322097716054471815_);}
	.st209{fill:#050000;}
	.st210{clip-path:url(#SVGID_00000112596605129167803500000004863160045558172043_);}
	.st211{clip-path:url(#SVGID_00000010274718648811025490000018393598359273811116_);}
	.st212{clip-path:url(#SVGID_00000104670599383171473920000011710618850711672752_);}
	.st213{clip-path:url(#SVGID_00000080900943933033416570000007967820875894174911_);}
	.st214{clip-path:url(#SVGID_00000150084341379904639190000004524614170949834890_);}
	.st215{clip-path:url(#SVGID_00000089544059690730461280000012474523349066008992_);}
	.st216{fill:#12100F;}
	.st217{clip-path:url(#SVGID_00000179635292279842362400000007525466896092461976_);}
	.st218{clip-path:url(#SVGID_00000147203471276087941480000005176991473426801584_);}
	.st219{fill:none;stroke:#000000;stroke-width:0.5;stroke-miterlimit:10;}
	.st220{clip-path:url(#SVGID_00000178913478833340946640000005303840809859296161_);}
	.st221{clip-path:url(#SVGID_00000062895304691197148350000013122057220140214167_);}
	.st222{clip-path:url(#SVGID_00000063630103166773019710000000764885274083173281_);}
	.st223{clip-path:url(#SVGID_00000067952833290436608880000002859810071926668936_);}
	.st224{fill:none;stroke:#000000;stroke-width:0.25;stroke-miterlimit:10;}
	.st225{clip-path:url(#SVGID_00000082336867033764575110000011669561172292082105_);}
	.st226{clip-path:url(#SVGID_00000084509435367134440570000009725775000797172868_);}
	.st227{clip-path:url(#SVGID_00000124154529748240164120000005532895975267364764_);}
</style>
<g>
	<g>
		<defs>
			<rect id="SVGID_00000151514666826227953830000002315726753798963644_" x="14.74" y="12.78" width="23.26" height="30.83"/>
		</defs>
		<clipPath id="SVGID_00000152963047896283004240000004487439631513304236_">
			<use xlink:href="#SVGID_00000151514666826227953830000002315726753798963644_"  style="overflow:visible;"/>
		</clipPath>
		<g style="clip-path:url(#SVGID_00000152963047896283004240000004487439631513304236_);">
			<path d="M35.05,43.46H17.68c-0.39,0-0.77-0.08-1.13-0.22c-0.36-0.15-0.68-0.36-0.96-0.64c-0.28-0.28-0.49-0.59-0.64-0.95
				c-0.15-0.36-0.23-0.74-0.22-1.13V25.49c0-3.39,0.54-6.69,1.62-9.9l0.09-0.28c0.1-0.29,0.24-0.57,0.42-0.82
				c0.19-0.25,0.4-0.46,0.65-0.65c0.25-0.18,0.53-0.32,0.82-0.42c0.3-0.09,0.6-0.14,0.91-0.14h10.47c0.44,0,0.85,0.09,1.25,0.28
				c0.4,0.19,0.74,0.45,1.02,0.78l1.93,2.28c1.32,1.56,2.32,3.29,3.02,5.2c0.7,1.91,1.05,3.89,1.05,5.92v12.76
				c0,0.39-0.08,0.76-0.22,1.12c-0.15,0.36-0.36,0.67-0.64,0.95c-0.28,0.28-0.59,0.49-0.95,0.64
				C35.82,43.38,35.45,43.46,35.05,43.46z M19.26,14.04c-0.48,0-0.91,0.14-1.3,0.42c-0.39,0.28-0.66,0.64-0.81,1.09l-0.09,0.28
				c-1.05,3.14-1.58,6.36-1.58,9.67v15.02c0,0.29,0.06,0.57,0.17,0.84c0.11,0.27,0.27,0.51,0.48,0.71c0.21,0.21,0.45,0.37,0.71,0.47
				c0.27,0.11,0.55,0.17,0.84,0.17h17.37c0.29,0,0.58-0.06,0.84-0.17c0.27-0.11,0.51-0.27,0.72-0.47c0.21-0.2,0.37-0.44,0.48-0.71
				c0.11-0.27,0.17-0.55,0.17-0.84V27.74c0-1.94-0.33-3.83-1.01-5.66c-0.67-1.83-1.63-3.48-2.89-4.97l-1.93-2.29
				c-0.45-0.52-1.02-0.79-1.71-0.79H19.26z"/>
		</g>
	</g>
	<path d="M16.97,25.86c-0.1,0-0.19-0.04-0.27-0.11c-0.07-0.07-0.11-0.16-0.11-0.26c0-3.19,0.5-6.29,1.52-9.31l0.09-0.28
		c0.08-0.22,0.21-0.4,0.4-0.53c0.19-0.14,0.41-0.21,0.64-0.21h4.51c0.1,0,0.19,0.04,0.26,0.11c0.08,0.07,0.11,0.16,0.11,0.26
		c0,0.1-0.04,0.19-0.11,0.26c-0.07,0.07-0.16,0.11-0.26,0.11h-4.51c-0.17,0.01-0.28,0.09-0.34,0.24l-0.09,0.28
		c-0.99,2.94-1.49,5.97-1.49,9.08c0,0.1-0.04,0.19-0.11,0.26C17.15,25.83,17.07,25.86,16.97,25.86z"/>
	<path d="M29.8,14.04H18.96c-0.1,0-0.19-0.04-0.27-0.11c-0.07-0.07-0.11-0.16-0.11-0.26v-1.75c0-0.12,0.02-0.24,0.07-0.35
		c0.05-0.11,0.11-0.21,0.2-0.29c0.09-0.09,0.19-0.15,0.3-0.2c0.11-0.05,0.23-0.07,0.35-0.07h9.74c0.12,0,0.24,0.02,0.35,0.07
		c0.11,0.05,0.21,0.11,0.3,0.2c0.09,0.09,0.15,0.18,0.2,0.29c0.05,0.11,0.07,0.23,0.07,0.35v1.75c0,0.1-0.04,0.19-0.11,0.26
		C29.99,14,29.9,14.04,29.8,14.04z M19.33,13.3h10.09v-1.38c0-0.11-0.06-0.17-0.17-0.17h-9.74c-0.11,0-0.17,0.06-0.18,0.17V13.3z"/>
	<g>
		<defs>
			<rect id="SVGID_00000006667700953357425740000007556408517779810980_" x="19.32" y="7.77" width="10.06" height="4.17"/>
		</defs>
		<clipPath id="SVGID_00000137851882840515445760000017776961719437986230_">
			<use xlink:href="#SVGID_00000006667700953357425740000007556408517779810980_"  style="overflow:visible;"/>
		</clipPath>
		<g style="clip-path:url(#SVGID_00000137851882840515445760000017776961719437986230_);">
			<path d="M28.67,11.75H20.1c-0.1,0-0.19-0.04-0.27-0.11c-0.07-0.07-0.11-0.16-0.11-0.26V9.41c0-0.2,0.04-0.39,0.11-0.57
				c0.08-0.18,0.18-0.34,0.32-0.48c0.14-0.14,0.3-0.25,0.48-0.32c0.18-0.08,0.37-0.11,0.57-0.11h6.34c0.2,0,0.39,0.04,0.57,0.11
				c0.18,0.08,0.34,0.18,0.48,0.32c0.14,0.14,0.25,0.3,0.32,0.48c0.08,0.18,0.11,0.37,0.11,0.57v1.96c0,0.1-0.04,0.19-0.11,0.26
				C28.86,11.71,28.77,11.75,28.67,11.75z M20.47,11h7.83V9.41c0-0.2-0.07-0.38-0.22-0.52c-0.15-0.14-0.32-0.22-0.53-0.22h-6.34
				c-0.21,0-0.38,0.07-0.53,0.22c-0.14,0.14-0.22,0.32-0.22,0.52V11z"/>
		</g>
	</g>
	<path d="M34.14,27.93c-0.43,0-1.04-0.25-1.87-1.09c-0.97-1.03-1.77-2.17-2.41-3.43c-1.41-2.68-2.18-5.74-0.94-6.38
		c1.24-0.65,3.32,1.73,4.73,4.41c1.41,2.68,2.18,5.73,0.93,6.38C34.45,27.9,34.3,27.93,34.14,27.93z M29.4,17.65
		c-0.05,0-0.09,0.01-0.13,0.03c-0.43,0.23-0.37,2.28,1.26,5.39c0.6,1.19,1.36,2.28,2.28,3.26c0.82,0.84,1.3,0.92,1.45,0.84
		c0.49-0.26,0.24-2.53-1.26-5.38C31.61,19.14,30.01,17.65,29.4,17.65z"/>
	<path d="M26.37,40.01c-0.86,0-1.36-1.25-1.63-2.49c-1.08,0.68-2.32,1.22-2.93,0.61c-0.61-0.61-0.07-1.85,0.62-2.91
		c-1.25-0.27-2.51-0.76-2.51-1.62c0-0.86,1.26-1.35,2.5-1.62c-0.68-1.07-1.22-2.31-0.62-2.91c0.61-0.61,1.87-0.07,2.93,0.61
		c0.28-1.24,0.77-2.49,1.63-2.49s1.36,1.25,1.63,2.49c1.08-0.69,2.31-1.22,2.93-0.62c0.61,0.61,0.07,1.85-0.62,2.91
		c1.25,0.27,2.5,0.77,2.5,1.62c0,0.85-1.26,1.35-2.5,1.62c0.69,1.07,1.23,2.31,0.62,2.91c-0.61,0.61-1.86,0.07-2.93-0.62
		C27.73,38.76,27.23,40.01,26.37,40.01z M25,36.53c0.09,0,0.17,0.03,0.24,0.09c0.07,0.06,0.11,0.13,0.13,0.22
		c0.33,1.85,0.82,2.43,1.01,2.43s0.68-0.59,1.01-2.43c0.02-0.13,0.1-0.23,0.22-0.28c0.13-0.06,0.26-0.05,0.37,0.04
		c1.54,1.07,2.31,1.14,2.44,1.01c0.13-0.13,0.06-0.9-1.01-2.43c-0.09-0.12-0.1-0.24-0.04-0.37c0.05-0.12,0.15-0.2,0.28-0.22
		c1.86-0.33,2.45-0.82,2.45-1.01s-0.6-0.68-2.45-1.01c-0.14-0.02-0.24-0.09-0.3-0.22c-0.06-0.13-0.05-0.26,0.04-0.37
		c1.08-1.48,1.14-2.27,1.01-2.4c-0.13-0.13-0.91-0.06-2.44,1.01c-0.12,0.09-0.24,0.1-0.37,0.04c-0.12-0.05-0.2-0.14-0.22-0.28
		c-0.33-1.85-0.82-2.44-1.01-2.44s-0.68,0.6-1.01,2.43c-0.02,0.13-0.1,0.23-0.23,0.28c-0.13,0.06-0.26,0.05-0.37-0.04
		c-1.54-1.07-2.31-1.14-2.44-1.01c-0.13,0.13-0.04,0.92,1.05,2.43c0.09,0.12,0.09,0.24,0.04,0.37c-0.05,0.12-0.14,0.2-0.28,0.22
		c-1.86,0.33-2.45,0.82-2.45,1.01s0.6,0.68,2.45,1.01c0.06,0.01,0.12,0.04,0.17,0.08c0.05,0.04,0.09,0.09,0.11,0.15
		c0.02,0.06,0.03,0.12,0.03,0.18c-0.01,0.06-0.03,0.12-0.07,0.17c-1.08,1.53-1.15,2.29-1.02,2.43c0.13,0.13,0.91,0.06,2.44-1.01
		C24.84,36.57,24.91,36.54,25,36.53z"/>
	<path d="M26.37,35.44c-0.25,0-0.48-0.05-0.71-0.14c-0.23-0.09-0.43-0.23-0.6-0.4c-0.17-0.17-0.31-0.37-0.4-0.59
		c-0.09-0.23-0.14-0.46-0.14-0.7c0-0.25,0.05-0.48,0.14-0.7c0.09-0.23,0.23-0.42,0.4-0.6c0.17-0.17,0.37-0.3,0.6-0.4
		c0.23-0.09,0.46-0.14,0.71-0.14s0.48,0.05,0.71,0.14c0.23,0.09,0.43,0.23,0.6,0.4c0.17,0.17,0.3,0.37,0.4,0.6
		c0.09,0.23,0.14,0.46,0.14,0.7c0,0.24-0.05,0.47-0.14,0.7c-0.09,0.22-0.23,0.42-0.4,0.59c-0.17,0.17-0.37,0.3-0.6,0.4
		C26.85,35.38,26.61,35.43,26.37,35.44z M26.37,32.51c-0.15,0-0.28,0.03-0.42,0.08c-0.14,0.06-0.26,0.13-0.36,0.24
		c-0.1,0.1-0.18,0.22-0.24,0.35c-0.06,0.13-0.09,0.27-0.09,0.42s0.03,0.28,0.08,0.42c0.06,0.13,0.13,0.25,0.24,0.35
		c0.1,0.1,0.22,0.18,0.35,0.24c0.13,0.06,0.27,0.09,0.42,0.09c0.14,0,0.28-0.03,0.42-0.08c0.13-0.05,0.26-0.13,0.36-0.23
		c0.1-0.1,0.18-0.22,0.24-0.35c0.06-0.13,0.09-0.27,0.09-0.42c0-0.14-0.03-0.28-0.08-0.42c-0.06-0.14-0.13-0.26-0.24-0.36
		c-0.1-0.1-0.22-0.19-0.36-0.24C26.66,32.54,26.52,32.51,26.37,32.51z"/>
</g>
</svg>
