<?xml version="1.0" encoding="utf-8"?>
<!-- Generator: Adobe Illustrator 27.3.1, SVG Export Plug-In . SVG Version: 6.00 Build 0)  -->
<svg version="1.1" id="Layer_1" xmlns="http://www.w3.org/2000/svg" xmlns:xlink="http://www.w3.org/1999/xlink" x="0px" y="0px"
	 viewBox="0 0 50 50" style="enable-background:new 0 0 50 50;" xml:space="preserve">
<style type="text/css">
	.st0{fill:none;}
	.st1{stroke:#000000;stroke-miterlimit:10;}
	.st2{stroke:#000000;stroke-width:0.75;stroke-miterlimit:10;}
	.st3{clip-path:url(#SVGID_00000085934328175684457200000012465501321401634461_);}
	.st4{clip-path:url(#SVGID_00000024001608339782146200000002398103699232241298_);}
	.st5{fill:#FFFFFF;}
	.st6{clip-path:url(#SVGID_00000119082961045427021990000008745486131157949063_);}
	.st7{fill:#231F20;}
	.st8{clip-path:url(#SVGID_00000036946595615400574200000014254565210297888679_);}
	.st9{clip-path:url(#SVGID_00000065774323191234134780000005494594485856857258_);}
	.st10{clip-path:url(#SVGID_00000061466878691804310010000003689235565316693171_);}
	.st11{clip-path:url(#SVGID_00000147901742485841444780000006184921941186664856_);}
	.st12{clip-path:url(#SVGID_00000004516554902866571280000012284529566119102871_);}
	.st13{clip-path:url(#SVGID_00000138557853209930330870000009967487097777555645_);}
	.st14{clip-path:url(#SVGID_00000129195655307305177860000014805116131811985834_);}
	.st15{clip-path:url(#SVGID_00000152248907173309941790000000964717843919651759_);}
	.st16{clip-path:url(#SVGID_00000057857566110906261410000007544618955733267592_);}
	.st17{clip-path:url(#SVGID_00000031924812716699347610000007608186236573213083_);}
	.st18{clip-path:url(#SVGID_00000064337877532774184540000003624682616100967085_);}
	.st19{clip-path:url(#SVGID_00000086680270708165736150000013769058479566078087_);}
	.st20{clip-path:url(#SVGID_00000150067214593164625280000010241537544989189017_);}
	.st21{clip-path:url(#SVGID_00000113348208744372169240000000771104767531990437_);}
	.st22{clip-path:url(#SVGID_00000117644995824562999980000018355268680754880670_);}
	.st23{clip-path:url(#SVGID_00000165920030491290802670000001514000825976303239_);}
	.st24{clip-path:url(#SVGID_00000157305847361880221610000011088787049198567555_);}
	.st25{clip-path:url(#SVGID_00000016772912691509566410000017443998741298218628_);}
	.st26{clip-path:url(#SVGID_00000152254094813998408810000008053633498428121230_);}
	.st27{clip-path:url(#SVGID_00000127733070268876415710000009277481867208143761_);}
	.st28{clip-path:url(#SVGID_00000034794396626326928190000014498520183258318754_);}
	.st29{clip-path:url(#SVGID_00000124875788209382257940000003849408784898528165_);}
	.st30{clip-path:url(#SVGID_00000165933656341290283660000000542100711411358337_);}
	.st31{fill-rule:evenodd;clip-rule:evenodd;}
	.st32{clip-path:url(#SVGID_00000089549842907049723010000017226808272980056737_);}
	.st33{clip-path:url(#SVGID_00000150076939996980158900000004656059309565379513_);}
	.st34{stroke:#000000;stroke-width:0.5;stroke-miterlimit:10;}
	.st35{clip-path:url(#SVGID_00000116918768677397003130000003186842684355543466_);}
	.st36{clip-path:url(#SVGID_00000002384142397573265930000005149478790212022713_);}
	.st37{clip-path:url(#SVGID_00000138557880874549351130000006228222064342195891_);}
	.st38{fill:#1A1A1A;}
	.st39{clip-path:url(#SVGID_00000144327638475722758220000004237190291764977034_);}
	.st40{clip-path:url(#SVGID_00000026165413540484183540000009181054504682346386_);}
	.st41{clip-path:url(#SVGID_00000013172553434802244320000012842355229590396584_);}
	.st42{clip-path:url(#SVGID_00000165211201195743200360000007217225588338109885_);}
	.st43{clip-path:url(#SVGID_00000089563779031125953440000001653734161407437470_);}
	.st44{clip-path:url(#SVGID_00000098216548958359004590000005902791071630649256_);}
	.st45{clip-path:url(#SVGID_00000008868436288872722880000012139024589371449480_);}
	.st46{clip-path:url(#SVGID_00000127011772365334427690000017597946047305665182_);}
	.st47{clip-path:url(#SVGID_00000065033140486990728190000011690062643603478661_);}
	.st48{fill:#F1F1F1;}
	.st49{fill:#E8E8E8;}
	.st50{fill:#FEFEFE;}
	.st51{fill:#CCCCCC;}
	.st52{fill:#B3B3B3;}
	.st53{fill:#E6E6E6;}
	.st54{fill:#EBEBEB;}
	.st55{fill:#EEEEEE;}
	.st56{fill:#F8F8F8;}
	.st57{fill:#FBFBFB;}
	.st58{fill:#383838;}
	.st59{fill:#232323;}
	.st60{fill:#F6F6F6;}
	.st61{fill:#535353;}
	.st62{fill:#0A0A0A;}
	.st63{fill:#F5F5F5;}
	.st64{fill:#818181;}
	.st65{fill:#4A4A4A;}
	.st66{fill:#999999;}
	.st67{fill:url(#SVGID_00000121989197949964125170000007322113637073839783_);}
	.st68{fill:url(#SVGID_00000150783397584258218510000009854448638786334897_);}
	.st69{fill:#0E0E0D;}
	.st70{fill:#333333;}
	.st71{fill:#808080;}
	.st72{fill:url(#SVGID_00000127042407196152245440000001599547863359686548_);}
	.st73{fill:#666666;}
	.st74{fill:url(#SVGID_00000131334695568585222270000008960910848512718491_);}
	.st75{fill:url(#SVGID_00000092445407724490444350000013953198493205790626_);}
	.st76{fill:url(#SVGID_00000114791813739239794910000003511209024058058145_);}
	.st77{fill:url(#SVGID_00000101818953594018102810000011715802530058400154_);}
	.st78{fill:url(#SVGID_00000074400064179428254570000017324409135473222806_);}
	.st79{clip-path:url(#SVGID_00000044869148111948879190000016465980001180775077_);}
	.st80{clip-path:url(#SVGID_00000091014058322047721390000013460446539728545425_);}
	.st81{clip-path:url(#SVGID_00000049217813634207289500000013869106813023597188_);}
	.st82{clip-path:url(#SVGID_00000167362141826889201470000007492683257260988334_);}
	.st83{clip-path:url(#SVGID_00000117641247048047156560000006777754719490764693_);}
	.st84{fill:#241F20;stroke:#000000;stroke-width:0.5;stroke-miterlimit:10;}
	.st85{clip-path:url(#SVGID_00000097480911892679413130000000712301135608549783_);}
	.st86{clip-path:url(#SVGID_00000034061126596881371030000005785617779964016812_);}
	.st87{clip-path:url(#SVGID_00000112624905700295045940000013196755685926085018_);}
	.st88{clip-path:url(#SVGID_00000137096624512371299370000012088812866379375499_);}
	.st89{clip-path:url(#SVGID_00000029023884760640789380000002821701798079589810_);}
	.st90{clip-path:url(#SVGID_00000176741044962428432670000016479896979240567732_);}
	.st91{clip-path:url(#SVGID_00000010998292099105605250000012451669646985840007_);}
	.st92{clip-path:url(#SVGID_00000117646872094347332760000014133083587477863050_);}
	.st93{clip-path:url(#SVGID_00000001665581211728967480000011777075194772447381_);}
	.st94{clip-path:url(#SVGID_00000173875529672357701690000015868266097052000648_);}
	.st95{clip-path:url(#SVGID_00000155127824959806000430000017185997556388850605_);}
	.st96{clip-path:url(#SVGID_00000003807935377692518570000013833601459348561572_);}
	.st97{clip-path:url(#SVGID_00000054241731594837625130000011196084829315955877_);}
	.st98{clip-path:url(#SVGID_00000137131845317357131260000013066106645653081779_);}
	.st99{clip-path:url(#SVGID_00000021100670840167389570000017589476335627012021_);}
	.st100{clip-path:url(#SVGID_00000059288570039884639270000008235691689544259987_);}
	.st101{clip-path:url(#SVGID_00000091733025245168982380000013758978935715797944_);}
	.st102{clip-path:url(#SVGID_00000175296493283225975440000000405074285261512354_);}
	.st103{clip-path:url(#SVGID_00000052827154655386956180000018087072037797985419_);}
	.st104{clip-path:url(#SVGID_00000134942744410964437000000014709150024326276527_);}
	.st105{clip-path:url(#SVGID_00000035530506657530449610000006331573020604322214_);}
	.st106{clip-path:url(#SVGID_00000163067014321622189300000012937321316411161216_);}
	.st107{clip-path:url(#SVGID_00000113344906934453613000000017396682537704642738_);}
	.st108{clip-path:url(#SVGID_00000044166455188697254710000015424160857307257754_);}
	.st109{clip-path:url(#SVGID_00000111880720624637205160000012722768978416660116_);}
	.st110{clip-path:url(#SVGID_00000119116012846578981180000008895862959458638483_);}
	.st111{clip-path:url(#SVGID_00000175289559107767766990000014842955614001365686_);}
	.st112{clip-path:url(#SVGID_00000108991358961155827070000016252478329151468167_);}
	.st113{clip-path:url(#SVGID_00000176749702242539263670000007874332240442866862_);}
	.st114{clip-path:url(#SVGID_00000114040864491926138660000011416064624095393724_);}
	.st115{fill:#FFFFFF;stroke:#000000;stroke-miterlimit:10;}
	.st116{clip-path:url(#SVGID_00000085933413932917402180000007242321843564942992_);}
	.st117{clip-path:url(#SVGID_00000122717970295624173890000006624789123752845482_);}
	.st118{fill:none;stroke:#010101;stroke-miterlimit:10;}
	.st119{fill:#010101;stroke:#000000;stroke-miterlimit:10;}
	.st120{clip-path:url(#SVGID_00000097483431153101621250000014637762666692433057_);}
	.st121{fill:#010101;stroke:#010101;stroke-miterlimit:10;}
	.st122{clip-path:url(#SVGID_00000142897554432182714850000009014898665775162802_);}
	.st123{clip-path:url(#SVGID_00000136399407203138271000000012200667427922244011_);}
	.st124{clip-path:url(#SVGID_00000128468405296052473500000002585639768459529358_);}
	.st125{clip-path:url(#SVGID_00000127018389536754748060000009645833050950481849_);}
	.st126{clip-path:url(#SVGID_00000080186451968707484930000006208863464594244751_);}
	.st127{fill:none;stroke:#000000;stroke-width:3;stroke-miterlimit:10;}
	.st128{clip-path:url(#SVGID_00000163783712283909376010000011748222110676183959_);}
	.st129{clip-path:url(#SVGID_00000123427807875849287190000003113266728669079226_);}
	.st130{clip-path:url(#SVGID_00000096770004489362019500000007243221337526407302_);}
	.st131{clip-path:url(#SVGID_00000027584032559515583290000002066367960743848893_);}
	.st132{fill:#040606;}
	.st133{clip-path:url(#SVGID_00000010308692460835124810000002484255106800606376_);}
	.st134{clip-path:url(#SVGID_00000131359415774388445290000015704688061859193251_);}
	.st135{clip-path:url(#SVGID_00000182499767468426653010000011764764078649735052_);}
	.st136{clip-path:url(#SVGID_00000084521232271134004940000012773669201288232371_);}
	.st137{clip-path:url(#SVGID_00000033351150775113171560000007965833960770622342_);}
	.st138{clip-path:url(#SVGID_00000008868602808436430250000003145379078936397237_);}
	.st139{clip-path:url(#SVGID_00000038393829590437671940000009566635822633249972_);}
	.st140{fill:#FFFFFF;stroke:#000000;stroke-width:1.5;stroke-miterlimit:10;}
	.st141{clip-path:url(#SVGID_00000040538168944037723500000003005912623024553903_);}
	.st142{fill:#BDBCBC;}
	.st143{clip-path:url(#SVGID_00000067917014812853365950000017914828784490936202_);}
	.st144{fill:#2E2A2B;}
	.st145{clip-path:url(#SVGID_00000003090220769357975700000011206639958938962603_);}
	.st146{clip-path:url(#SVGID_00000003823359007621035800000006008887670528711820_);}
	.st147{clip-path:url(#SVGID_00000058582779576149702850000009568984163608393108_);}
	.st148{clip-path:url(#SVGID_00000100348195514818561850000017493530006042734227_);}
	.st149{clip-path:url(#SVGID_00000054247672718072134710000000028156795970991549_);}
	.st150{fill:#272324;}
	.st151{clip-path:url(#SVGID_00000086660947378041512610000001525276612504241321_);}
	.st152{clip-path:url(#SVGID_00000176734980165170778760000005591190437047545776_);}
	.st153{clip-path:url(#SVGID_00000016073490264599631660000007280545413296914565_);}
	.st154{clip-path:url(#SVGID_00000173160513402462064740000003355105776681433773_);}
	.st155{clip-path:url(#SVGID_00000172442315454971358600000004650457745904738482_);}
	.st156{clip-path:url(#SVGID_00000181804026073309504980000010943208359149003161_);}
	.st157{fill:none;stroke:#000000;stroke-width:0.8735;stroke-linecap:round;stroke-linejoin:round;stroke-miterlimit:10;}
	.st158{clip-path:url(#SVGID_00000100350526896096403610000001784714890358912909_);}
	.st159{clip-path:url(#SVGID_00000101077395150728182280000008609046596790791333_);}
	.st160{clip-path:url(#SVGID_00000030482977205173544470000012123266650270893716_);}
	.st161{clip-path:url(#SVGID_00000078007028989249033320000012690029516677710259_);}
	.st162{clip-path:url(#SVGID_00000133500152075645005360000010064316594547292568_);}
	.st163{clip-path:url(#SVGID_00000111889376113882699690000010498888649228280493_);}
	.st164{clip-path:url(#SVGID_00000169528501679045310190000001474296444464680363_);}
	.st165{clip-path:url(#SVGID_00000171683845060718085940000016816995261114066084_);}
	.st166{clip-path:url(#SVGID_00000165913407029976123690000015145896194690980274_);}
	.st167{clip-path:url(#SVGID_00000160895102801598108370000011025283089661504422_);}
	.st168{clip-path:url(#SVGID_00000036961120109957530350000004108883611146782612_);}
	.st169{clip-path:url(#SVGID_00000086687569557533747860000000129197312207203236_);}
	.st170{clip-path:url(#SVGID_00000009586765117128978710000017059824211661069461_);}
	.st171{clip-path:url(#SVGID_00000013158813829154236220000003936271913505664700_);}
	.st172{clip-path:url(#SVGID_00000156574692656911697950000010075967713566606250_);}
	.st173{clip-path:url(#SVGID_00000168110487954426215060000011043385107997896628_);}
	.st174{clip-path:url(#SVGID_00000027565127334187487180000014160335257612746388_);}
	.st175{clip-path:url(#SVGID_00000124840752688382060570000015806813829633036208_);}
	.st176{clip-path:url(#SVGID_00000031203514332859627460000000636288045867175596_);}
	.st177{clip-path:url(#SVGID_00000022536474333445197330000008239768148573163698_);}
	.st178{clip-path:url(#SVGID_00000173144341510936336640000009739426607724672405_);}
	.st179{clip-path:url(#SVGID_00000182510687463030747300000001909650907467271565_);}
	.st180{clip-path:url(#SVGID_00000174580694542651579910000011171452154133657535_);}
	.st181{clip-path:url(#SVGID_00000122719269775999781900000013773863552318059423_);}
	.st182{clip-path:url(#SVGID_00000094592836255066321100000016933260409002270857_);}
	.st183{clip-path:url(#SVGID_00000125568910517040486760000002266743999788970419_);}
	.st184{clip-path:url(#SVGID_00000091719065494632982610000012844920012795411353_);}
	.st185{clip-path:url(#SVGID_00000138539798256992778700000008857348020074540425_);}
	.st186{clip-path:url(#SVGID_00000124128602325639129100000002564706297588876684_);}
	.st187{clip-path:url(#SVGID_00000116955885889743703670000012604779444715541902_);}
	.st188{clip-path:url(#SVGID_00000080174533148004208610000005581256470678521534_);}
	.st189{clip-path:url(#SVGID_00000039842305882846250520000018358373417806793130_);}
	.st190{clip-path:url(#SVGID_00000001625804467359802260000000329676422743890818_);}
	.st191{clip-path:url(#SVGID_00000136410466086754752280000001659955549977771162_);}
	.st192{clip-path:url(#SVGID_00000111166970831105992470000006148551072221169309_);}
	.st193{clip-path:url(#SVGID_00000163762194100213306170000005595685339477844617_);}
	.st194{clip-path:url(#SVGID_00000164500886554068156260000002935923240685800334_);}
	.st195{clip-path:url(#SVGID_00000075874125471388398130000012356692810102878593_);}
	.st196{fill:#E5E5E5;}
	.st197{fill:#1D1D1B;}
	.st198{fill:none;stroke:#000000;stroke-miterlimit:10;}
	.st199{fill:#FEFEFE;stroke:#000000;stroke-miterlimit:10;}
	.st200{clip-path:url(#SVGID_00000069392455200183445320000008073908316303010454_);}
	.st201{clip-path:url(#SVGID_00000139973643960370497400000015769739515008332990_);}
	.st202{clip-path:url(#SVGID_00000112627444470503339910000010707722074062287496_);}
	.st203{fill:#231F1F;}
	.st204{fill:#020000;}
	.st205{clip-path:url(#SVGID_00000103946215638886266350000016371452171890566536_);}
	.st206{clip-path:url(#SVGID_00000124856290210650656630000008771085078173516722_);}
	.st207{clip-path:url(#SVGID_00000047056484685179314160000016379571706105788033_);}
	.st208{clip-path:url(#SVGID_00000178894249587795436260000012044595399495737740_);}
	.st209{fill:#050000;}
	.st210{clip-path:url(#SVGID_00000017510596608616507600000007093399547336181893_);}
	.st211{clip-path:url(#SVGID_00000093896942144049698810000010767500625315002246_);}
	.st212{clip-path:url(#SVGID_00000179634298620107562860000013918547350391241897_);}
	.st213{clip-path:url(#SVGID_00000003789005709323458500000012499359077458053281_);}
	.st214{clip-path:url(#SVGID_00000146477269419820985560000012794370776453781145_);}
	.st215{clip-path:url(#SVGID_00000134955713575681024450000014407681523652501950_);}
	.st216{fill:#12100F;}
	.st217{clip-path:url(#SVGID_00000116952296291374762540000012207055353392894617_);}
	.st218{clip-path:url(#SVGID_00000101082094224202084540000012341851795322977945_);}
	.st219{fill:none;stroke:#000000;stroke-width:0.5;stroke-miterlimit:10;}
	.st220{clip-path:url(#SVGID_00000051384640503816631050000002156682036991224985_);}
	.st221{clip-path:url(#SVGID_00000139258456349080978300000000801954791095594405_);}
	.st222{clip-path:url(#SVGID_00000003090241688343796170000011233396073213646721_);}
	.st223{clip-path:url(#SVGID_00000098931997600359564070000000122918539943084980_);}
	.st224{fill:none;stroke:#000000;stroke-width:0.25;stroke-miterlimit:10;}
	.st225{clip-path:url(#SVGID_00000073693996894751978840000018062949373474475942_);}
	.st226{clip-path:url(#SVGID_00000001632782424939091100000000930259590078667945_);}
	.st227{clip-path:url(#SVGID_00000070810146327446485890000012761962313667203767_);}
</style>
<g>
	<path d="M38.89,39.63l-0.62-2.98l-0.57-2.73l-0.61-2.93l-0.42-2.05l-0.32-1.55l-0.33-1.59c-0.14-0.69-0.52-1.21-1.12-1.58
		l-4.89-2.82v0c-0.13-0.72-0.33-1.48-0.63-2.12c-0.01-0.03-0.03-0.06-0.05-0.09c-0.02-0.02-0.04-0.05-0.06-0.06c0,0,0,0-0.01-0.01
		c-0.03-0.02-0.06-0.04-0.09-0.05c-0.03-0.01-0.06-0.02-0.09-0.02c-0.03,0-0.05-0.01-0.08-0.01c-2.41-0.38-4.82-0.37-7.24,0.01
		c-0.07,0.01-0.13,0.03-0.18,0.08c-0.02,0.02-0.04,0.03-0.05,0.05c-0.02,0.02-0.03,0.04-0.04,0.05c-0.01,0.01-0.01,0.01-0.01,0.02
		c0,0.01-0.01,0.02-0.01,0.02c0,0,0,0.01-0.01,0.01v0c0,0,0,0.01,0,0.01c-0.01,0.02-0.02,0.04-0.02,0.05
		c-0.06,0.17-0.25,0.83-0.38,1.81l-1.81,1.08c-0.02,0.01-0.03,0.02-0.05,0.02l-2.47,1.48c-0.01,0-0.01,0.01-0.02,0.02h0
		c-0.02,0.01-0.03,0.01-0.05,0.02l-0.73,0.44c-0.6,0.36-0.97,0.89-1.11,1.57l-0.33,1.55l-0.32,1.55l-0.61,2.9l-0.53,2.57l-0.3,1.47
		c0,0,0,0.01,0,0.01v0l-0.6,2.86l-0.42,2.04c-0.02,0.12,0,0.23,0.08,0.32c0.08,0.09,0.17,0.14,0.3,0.14c0.09,0,0.17-0.03,0.24-0.08
		c0.07-0.06,0.11-0.13,0.13-0.22l0.35-1.67c0.16,0.02,0.32,0.04,0.48,0.04c0.15,0,0.3-0.01,0.45-0.03c0.28-0.04,0.52-0.14,0.74-0.31
		c0.22-0.17,0.38-0.39,0.47-0.65c0.11-0.29,0.25-0.56,0.43-0.8c0.23-0.31,0.29-0.66,0.18-1.03c-0.1-0.37-0.33-0.63-0.69-0.77
		c-0.44-0.18-0.89-0.21-1.28-0.19l0.15-0.71c0.69-0.11,1.34,0.05,1.77,0.22c0.28,0.11,0.53,0.28,0.74,0.5
		c0.09,0.1,0.19,0.19,0.29,0.27c0.08,0.07,0.17,0.1,0.27,0.09c0.11-0.01,0.19-0.05,0.26-0.13c0.07-0.08,0.1-0.17,0.09-0.28
		c-0.01-0.1-0.05-0.19-0.13-0.26c-0.08-0.07-0.16-0.14-0.24-0.23c-0.29-0.3-0.63-0.53-1.02-0.68c-0.6-0.24-1.23-0.33-1.87-0.29
		l0.23-1.11c0.33,0.33,0.73,0.55,1.18,0.64c0.33,0.07,0.66,0.05,0.99-0.03c0.33-0.09,0.62-0.24,0.87-0.47
		c0.03-0.03,0.06-0.05,0.09-0.08c0.34-0.33,0.92-0.11,1.24,0.06l-0.8,3.05l0.74,0.19l0.88-3.33c0.02-0.1,0.02-0.18-0.02-0.26
		c0.02-0.01,0.03-0.02,0.04-0.03c0.07-0.08,0.11-0.16,0.11-0.27v-2.92c0-0.11-0.04-0.19-0.11-0.27c-0.08-0.08-0.17-0.11-0.27-0.11
		s-0.2,0.04-0.27,0.11c-0.08,0.08-0.11,0.16-0.11,0.27v2.8c-0.59-0.27-1.38-0.39-1.95,0.16c-0.02,0.02-0.04,0.04-0.06,0.06
		c-0.35,0.3-0.75,0.41-1.21,0.32c-0.49-0.09-0.84-0.36-1.06-0.81c-0.02-0.04-0.04-0.08-0.05-0.12l0.5-2.41l1.12,0.23
		c0.08,0.02,0.17,0.03,0.25,0.03c0.29,0,0.55-0.1,0.77-0.27c0.22-0.18,0.37-0.41,0.43-0.7l0.16-0.71c0.02-0.1,0.01-0.2-0.05-0.29
		c-0.06-0.09-0.14-0.14-0.24-0.16l-1.96-0.42l0.25-1.18c0.1-0.47,0.35-0.83,0.76-1.08l0.65-0.39c0.31,0.09,0.68,0.25,0.96,0.52
		c0.28,0.28,0.63,0.42,1.02,0.43c0.15,0,0.3-0.03,0.45-0.08c0.64-0.23,0.96-0.78,0.88-1.51c-0.02-0.11-0.06-0.19-0.14-0.26
		c-0.08-0.06-0.17-0.09-0.28-0.08c-0.11,0.01-0.19,0.06-0.25,0.14c-0.07,0.08-0.09,0.17-0.08,0.28c0.06,0.49-0.16,0.63-0.38,0.71
		c-0.27,0.08-0.5,0.02-0.69-0.18c-0.2-0.19-0.42-0.34-0.67-0.46l1.79-1.07l1.37-0.82c-0.04,0.61-0.05,1.3-0.01,2.04
		c0.01,0.11,0.05,0.2,0.13,0.26c0.08,0.07,0.17,0.1,0.28,0.09c0.02,0,2.48-0.19,3.75,1.42c0.08,0.1,0.18,0.14,0.3,0.14
		c0.11,0,0.2-0.04,0.27-0.11c0.07-0.07,0.11-0.16,0.11-0.27v-1.43l-0.08,0.1c-0.08,0.1-0.18,0.15-0.3,0.15
		c-0.12,0-0.22-0.05-0.3-0.15l-0.08-0.1v0.53c-1.17-0.91-2.64-1.04-3.34-1.05c-0.06-1.48,0.14-2.72,0.29-3.45l3.05,3.97v-0.13
		c0-0.1,0.04-0.19,0.11-0.27c0.08-0.08,0.16-0.11,0.27-0.11c0.11,0,0.2,0.04,0.27,0.11c0.07,0.07,0.11,0.16,0.11,0.27v0.13
		l3.12-4.06c0.4,1.2,0.52,2.65,0.55,3.33c-1.01,0.07-1.96,0.35-2.85,0.86c-0.08,0.04-0.13,0.1-0.17,0.18
		c-0.03,0.08-0.04,0.16-0.02,0.24c0.02,0.08,0.06,0.15,0.13,0.2c0.07,0.05,0.15,0.08,0.23,0.08c0.06,0,0.12-0.02,0.18-0.05
		c0.96-0.53,1.93-0.79,2.87-0.77c0.11,0,0.2-0.04,0.28-0.11c0.08-0.08,0.11-0.17,0.11-0.27c0-0.05-0.01-0.69-0.1-1.52l4.37,2.52
		c0.41,0.25,0.67,0.61,0.76,1.08l0.25,1.21l-1.82,0.39c-0.11,0.02-0.18,0.08-0.24,0.17c-0.06,0.09-0.07,0.18-0.05,0.29l0.16,0.71
		c0.06,0.28,0.21,0.52,0.44,0.7c0.23,0.18,0.48,0.27,0.77,0.27c0.08,0,0.17-0.01,0.25-0.03l0.97-0.2l0.24,1.19
		c-0.82,0.01-1.39,0.4-1.57,1.1c-0.11,0.41-0.05,0.8,0.18,1.17c0.36,0.6,1.15,1.1,2.15,1.38l0.39,1.88
		c-0.12-0.02-0.25-0.04-0.37-0.05c-0.53-0.02-0.97,0.17-1.32,0.57c-0.36,0.41-0.49,0.89-0.39,1.43c0,0.01,0,0.01,0,0.01
		c0.05,0.25,0.17,0.46,0.36,0.62c0.2,0.17,0.42,0.25,0.68,0.26h0.07c0.11,0,0.21,0.05,0.27,0.14c0.23,0.35,0.73,0.79,1.78,0.91
		c0.02,0,0.03,0,0.05,0c0.12,0,0.22-0.05,0.3-0.14C38.89,39.86,38.91,39.75,38.89,39.63z M14.59,36.38
		c0.13,0.05,0.21,0.15,0.25,0.28c0.04,0.14,0.02,0.27-0.06,0.38c-0.23,0.3-0.4,0.63-0.53,0.99c-0.11,0.28-0.31,0.44-0.6,0.48
		c-0.22,0.03-0.45,0.03-0.67,0l0.47-2.24C13.83,36.21,14.22,36.24,14.59,36.38z M16.76,28.23l-0.08,0.33
		c-0.03,0.13-0.1,0.23-0.21,0.3c-0.11,0.07-0.23,0.09-0.36,0.07l-1.12-0.23l0.17-0.8L16.76,28.23z M25.42,23.51l-2.91-3.79
		c1.94-0.25,3.88-0.25,5.81,0L25.42,23.51z M34.88,28.93c-0.13,0.03-0.25,0-0.36-0.07c-0.11-0.07-0.18-0.17-0.21-0.3l-0.07-0.33
		l1.44-0.3l0.17,0.8L34.88,28.93z M35.5,32.53c-0.11-0.18-0.15-0.38-0.09-0.58c0.11-0.41,0.48-0.53,0.86-0.53c0.05,0,0.09,0,0.14,0
		l0.42,2.03C36.21,33.21,35.71,32.88,35.5,32.53z M37.33,38.76c-0.21-0.31-0.51-0.48-0.89-0.48l-0.07,0
		c-0.17-0.01-0.28-0.09-0.31-0.26v-0.01c-0.06-0.3,0.02-0.57,0.22-0.8c0.19-0.22,0.43-0.32,0.72-0.31c0.2,0.01,0.39,0.05,0.57,0.12
		l0.46,2.21C37.61,39.09,37.42,38.89,37.33,38.76z"/>
	<path d="M20.12,14.6c-0.1,0-0.2-0.04-0.27-0.11c-0.07-0.07-0.11-0.16-0.11-0.27v-1.68c0-0.1,0.04-0.2,0.11-0.27
		c0.07-0.07,0.17-0.11,0.27-0.11s0.19,0.04,0.27,0.11c0.07,0.07,0.11,0.17,0.11,0.27v1.68c0,0.1-0.04,0.19-0.11,0.27
		C20.31,14.56,20.22,14.6,20.12,14.6z"/>
	<path d="M24.57,16.99h-1.79c-0.11,0-0.2-0.04-0.27-0.11c-0.07-0.07-0.11-0.17-0.11-0.27s0.04-0.19,0.11-0.27
		c0.07-0.07,0.16-0.11,0.27-0.11h1.79c0.1,0,0.2,0.04,0.27,0.11c0.07,0.07,0.11,0.16,0.11,0.27s-0.04,0.2-0.11,0.27
		C24.76,16.95,24.67,16.99,24.57,16.99z"/>
	<g>
		<path d="M30.42,14.75c-0.09,0-0.18-0.03-0.25-0.09c-0.07-0.06-0.12-0.14-0.13-0.23c-0.21-1.24-0.49-2.47-0.83-3.69
			c-0.03-0.11-0.09-0.2-0.19-0.28c-0.09-0.07-0.2-0.11-0.32-0.11h-4.38c-0.11,0-0.2-0.04-0.27-0.11c-0.07-0.07-0.11-0.17-0.11-0.27
			c0-0.1,0.04-0.19,0.11-0.27c0.07-0.07,0.16-0.11,0.27-0.11h4.38c0.29,0,0.55,0.09,0.78,0.26c0.23,0.17,0.38,0.4,0.46,0.68
			c0.35,1.24,0.63,2.49,0.85,3.76c0.02,0.12-0.01,0.22-0.09,0.31C30.64,14.71,30.54,14.75,30.42,14.75z"/>
	</g>
	<rect x="23.54" y="9.6" class="st0" width="7.76" height="5.17"/>
	<g>
		<defs>
			<rect id="SVGID_00000099646597462505981590000016690418662989165207_" x="37.65" y="38.76" width="2.06" height="3.53"/>
		</defs>
		<clipPath id="SVGID_00000109001296161651069310000007785974405056036522_">
			<use xlink:href="#SVGID_00000099646597462505981590000016690418662989165207_"  style="overflow:visible;"/>
		</clipPath>
		<g style="clip-path:url(#SVGID_00000109001296161651069310000007785974405056036522_);">
			<path d="M38.9,41.91c-0.09,0-0.17-0.03-0.24-0.09c-0.07-0.06-0.11-0.13-0.13-0.22l-0.38-1.82c-0.02-0.1,0-0.2,0.06-0.28
				s0.14-0.14,0.24-0.16c0.1-0.02,0.2-0.01,0.29,0.05c0.09,0.06,0.14,0.14,0.16,0.24l0.38,1.82c0.02,0.12,0,0.22-0.08,0.32
				C39.12,41.86,39.02,41.91,38.9,41.91z"/>
		</g>
	</g>
	<path d="M31.42,32.46H31.4v-0.1C31.4,32.39,31.4,32.43,31.42,32.46z"/>
	<g>
		<defs>
			<rect id="SVGID_00000029763547671139176090000008901028184991001788_" x="24.95" y="43.7" width="3.53" height="1.35"/>
		</defs>
		<clipPath id="SVGID_00000082329280696830119440000016059477227033682363_">
			<use xlink:href="#SVGID_00000029763547671139176090000008901028184991001788_"  style="overflow:visible;"/>
		</clipPath>
		<g style="clip-path:url(#SVGID_00000082329280696830119440000016059477227033682363_);">
			<path d="M27.66,45.05h-2.24c-0.1,0-0.19-0.04-0.27-0.11c-0.07-0.07-0.11-0.16-0.11-0.27c0-0.1,0.04-0.2,0.11-0.27
				c0.07-0.07,0.16-0.11,0.27-0.11h2.24c0.1,0,0.19,0.04,0.27,0.11c0.07,0.07,0.11,0.16,0.11,0.27c0,0.1-0.04,0.19-0.11,0.27
				S27.77,45.05,27.66,45.05z"/>
		</g>
	</g>
	<g>
		<path d="M22.28,45.05h-3.21c-0.1,0-0.2-0.04-0.27-0.11c-0.07-0.07-0.11-0.16-0.11-0.27v-4.82c0-0.02,0-0.04,0.01-0.06
			c0.16-1,0.16-2.01,0-3.01c0-0.02-0.01-0.04-0.01-0.06v-3.63c-0.11-0.1-0.15-0.23-0.11-0.37l0.12-0.46
			c0.02-0.09,0.08-0.17,0.16-0.22c0.08-0.05,0.17-0.07,0.26-0.06c0.1,0.01,0.17,0.06,0.24,0.13c0.06,0.07,0.1,0.15,0.1,0.25v4.34
			c0.16,1.06,0.16,2.12,0,3.19v4.41h2.83c0.1,0,0.19,0.04,0.27,0.11s0.11,0.16,0.11,0.27c0,0.1-0.04,0.2-0.11,0.27
			C22.47,45.01,22.38,45.05,22.28,45.05z"/>
	</g>
	<rect x="17.9" y="31.71" class="st0" width="4.94" height="13.35"/>
	<g>
		<path d="M15.83,45.05c-0.04,0-0.08-0.01-0.11-0.02l-1.77-0.55c-0.1-0.03-0.18-0.09-0.22-0.18c-0.05-0.09-0.06-0.19-0.03-0.29
			c0.03-0.1,0.09-0.18,0.18-0.22c0.09-0.05,0.19-0.06,0.29-0.03l1.4,0.43l2.14-8.15c0.03-0.1,0.09-0.18,0.18-0.23
			s0.19-0.07,0.29-0.04c0.1,0.02,0.18,0.09,0.23,0.17c0.05,0.09,0.07,0.19,0.04,0.29l-2.24,8.53
			C16.15,44.96,16.03,45.05,15.83,45.05z"/>
	</g>
	<rect x="13.67" y="35.23" class="st0" width="4.94" height="9.82"/>
	<path d="M25.8,24.13v0.13l-0.08,0.1c-0.08,0.1-0.18,0.15-0.3,0.15c-0.12,0-0.22-0.05-0.3-0.15l-0.08-0.1v-0.13
		c0-0.1,0.04-0.19,0.11-0.27c0.08-0.08,0.16-0.11,0.27-0.11c0.11,0,0.2,0.04,0.27,0.11C25.77,23.93,25.8,24.02,25.8,24.13z"/>
	<path d="M29.17,19.08c-0.03-0.01-0.06-0.02-0.09-0.02c-0.03,0-0.05-0.01-0.08-0.01c0.05,0,0.1,0,0.15,0.02
		C29.16,19.08,29.17,19.08,29.17,19.08z"/>
	<path d="M25.69,23.86c-0.08-0.08-0.17-0.11-0.27-0.11c-0.11,0-0.19,0.04-0.27,0.11c-0.07,0.07-0.11,0.16-0.11,0.27v0.13l0.08,0.1
		c0.08,0.1,0.18,0.15,0.3,0.15c0.13,0,0.23-0.05,0.3-0.15l0.08-0.1v-0.13C25.8,24.02,25.77,23.93,25.69,23.86z"/>
	<path d="M23.92,30.51h-3.26c-0.1,0-0.19-0.04-0.27-0.11c-0.07-0.07-0.11-0.16-0.11-0.27v-1.39c0-0.1,0.04-0.2,0.11-0.27
		c0.07-0.07,0.16-0.11,0.27-0.11h3.26c0.1,0,0.2,0.04,0.27,0.11c0.07,0.07,0.11,0.16,0.11,0.27v1.39c0,0.1-0.04,0.2-0.11,0.27
		C24.12,30.47,24.03,30.51,23.92,30.51z M21.04,29.75h2.5v-0.63h-2.5V29.75z"/>
	<path d="M30.19,30.51h-3.26c-0.1,0-0.2-0.04-0.27-0.11c-0.07-0.07-0.11-0.16-0.11-0.27v-1.39c0-0.1,0.04-0.2,0.11-0.27
		c0.07-0.07,0.17-0.11,0.27-0.11h3.26c0.1,0,0.19,0.04,0.27,0.11c0.07,0.07,0.11,0.16,0.11,0.27v1.39c0,0.1-0.04,0.2-0.11,0.27
		C30.38,30.47,30.29,30.51,30.19,30.51z M27.31,29.75h2.5v-0.63h-2.5V29.75z"/>
	<path d="M21.82,27.56c-0.19,0-0.38-0.01-0.56-0.04c-0.24-0.03-0.44-0.14-0.61-0.31c-0.17-0.17-0.27-0.37-0.29-0.61
		c-0.03-0.24,0.01-0.46,0.13-0.68c0.12-0.21,0.29-0.36,0.51-0.46c0.6-0.28,1.19-0.29,1.8-0.02c0.21,0.09,0.37,0.24,0.49,0.44
		c0.12,0.2,0.17,0.41,0.15,0.64c-0.02,0.23-0.11,0.43-0.26,0.61c-0.15,0.17-0.34,0.29-0.56,0.34
		C22.35,27.53,22.09,27.56,21.82,27.56z M21.97,26.03c-0.23,0-0.45,0.05-0.67,0.14c-0.15,0.06-0.22,0.17-0.19,0.34
		c0.02,0.16,0.1,0.25,0.26,0.26c0.15,0.02,0.3,0.03,0.45,0.03c0.21,0,0.42-0.02,0.62-0.07c0.15-0.03,0.23-0.12,0.24-0.28
		c0.02-0.15-0.04-0.26-0.19-0.32c-0.14-0.06-0.28-0.09-0.42-0.11h0C22.03,26.03,22,26.03,21.97,26.03z"/>
	<path d="M31.54,27.45c-0.22,0-0.43-0.01-0.65-0.04c-0.26-0.04-0.49-0.15-0.67-0.34c-0.19-0.19-0.29-0.42-0.33-0.68
		c-0.04-0.26,0.01-0.51,0.14-0.75c0.13-0.23,0.32-0.4,0.57-0.51c0.42-0.18,0.87-0.26,1.33-0.22c0.25,0.03,0.49,0.09,0.71,0.19
		c0.23,0.1,0.42,0.26,0.55,0.48c0.13,0.22,0.18,0.46,0.16,0.71c-0.02,0.25-0.12,0.48-0.28,0.67c-0.17,0.19-0.37,0.32-0.62,0.38
		C32.15,27.42,31.85,27.45,31.54,27.45z M31.71,25.66c-0.28,0-0.55,0.06-0.8,0.17c-0.09,0.04-0.16,0.1-0.21,0.18
		c-0.05,0.09-0.06,0.18-0.05,0.28c0.01,0.09,0.05,0.17,0.12,0.24s0.15,0.11,0.24,0.12c0.18,0.02,0.36,0.04,0.54,0.04
		c0.25,0,0.49-0.02,0.74-0.08c0.2-0.04,0.31-0.17,0.32-0.38c0.02-0.21-0.06-0.35-0.26-0.43c-0.16-0.07-0.33-0.11-0.51-0.14h0
		C31.79,25.67,31.75,25.66,31.71,25.66z"/>
	<path d="M19.12,40.23c-0.02,0-0.04,0-0.06,0c-0.1,0-0.19-0.04-0.26-0.11c-0.07-0.07-0.11-0.16-0.11-0.27v-3.13
		c0-0.1,0.03-0.18,0.1-0.26c0.07-0.07,0.15-0.11,0.25-0.12c0.51-0.04,1.21-0.01,1.69,0.41c0.28,0.21,0.57,0.38,0.9,0.5
		c0.19,0.08,0.35,0.21,0.46,0.38c0.11,0.17,0.17,0.37,0.17,0.57c0,0.21-0.06,0.41-0.18,0.58c-0.12,0.17-0.28,0.3-0.48,0.37
		c-0.02,0.01-0.05,0.02-0.08,0.03c-0.17,0.06-0.32,0.16-0.45,0.29C20.79,39.76,20.17,40.23,19.12,40.23z M19.45,37.09v2.36
		c0.42-0.04,0.77-0.2,1.07-0.5c0.21-0.22,0.45-0.37,0.74-0.48c0.02-0.01,0.04-0.01,0.07-0.02c0.12-0.04,0.18-0.13,0.18-0.25
		c0.01-0.12-0.05-0.2-0.16-0.25c-0.4-0.15-0.76-0.36-1.1-0.63C20.03,37.15,19.72,37.1,19.45,37.09z"/>
	<g>
		<path d="M14.05,44.51c-0.04,0-0.07-0.01-0.11-0.02l-2.49-0.76c-0.09-0.03-0.17-0.09-0.22-0.17c-0.05-0.08-0.06-0.17-0.04-0.27
			l0.52-2.51c0.02-0.09,0.06-0.16,0.13-0.22c0.07-0.06,0.15-0.09,0.24-0.09h0.01c0.93,0.02,1.6,0.46,1.87,1.25
			c0.14,0.45,0.23,0.9,0.27,1.37c0.02,0.31,0.08,0.61,0.17,0.91c0.02,0.06,0.03,0.12,0.02,0.18c-0.01,0.06-0.03,0.12-0.07,0.17
			c-0.04,0.05-0.08,0.09-0.14,0.12C14.18,44.49,14.12,44.51,14.05,44.51z M12.01,43.1l1.53,0.47c-0.02-0.13-0.03-0.26-0.05-0.4
			c-0.03-0.41-0.11-0.81-0.23-1.21c-0.06-0.19-0.17-0.35-0.33-0.48c-0.16-0.13-0.33-0.2-0.53-0.23L12.01,43.1z"/>
	</g>
	<rect x="11.14" y="40.17" class="st0" width="3.94" height="4.88"/>
	<path d="M25.8,32.56v3.19c0,0.11-0.04,0.19-0.11,0.27l-0.23,0.09l-0.04,0.02c-1.04,0-1.69-0.41-2.06-0.76
		c-0.25-0.24-0.54-0.36-0.89-0.37c-0.12,0-0.24-0.01-0.35-0.02c-0.23-0.02-0.42-0.12-0.58-0.29c-0.16-0.17-0.24-0.36-0.26-0.59
		c-0.02-0.23,0.05-0.44,0.18-0.62c0.14-0.19,0.32-0.31,0.54-0.36c0.16-0.04,0.32-0.09,0.47-0.16c0.1-0.04,0.19-0.1,0.27-0.16
		c0.34-0.29,0.73-0.49,1.17-0.6c0.1-0.03,0.2-0.01,0.29,0.04c0.09,0.06,0.15,0.13,0.17,0.23c0.03,0.1,0.01,0.2-0.04,0.29
		c-0.06,0.09-0.13,0.15-0.24,0.17c-0.32,0.08-0.61,0.23-0.86,0.44c-0.14,0.11-0.28,0.2-0.44,0.27c-0.19,0.09-0.39,0.16-0.59,0.2
		c-0.1,0.02-0.15,0.09-0.15,0.19c0,0.11,0.06,0.18,0.17,0.19c0.09,0.01,0.19,0.02,0.29,0.02c0.53,0.02,0.99,0.21,1.38,0.58
		c0.33,0.3,0.71,0.48,1.16,0.53v-2.78c0-0.11,0.04-0.2,0.11-0.27c0.08-0.07,0.16-0.11,0.27-0.11c0.11,0,0.2,0.04,0.27,0.11
		C25.77,32.36,25.8,32.45,25.8,32.56z"/>
	<g>
		<path d="M25.42,45.05h-3.14c-0.12,0-0.21-0.04-0.29-0.13c-0.08-0.09-0.11-0.19-0.09-0.3c0.05-0.31,0.17-0.59,0.36-0.84
			c0.19-0.25,0.44-0.44,0.73-0.56c0.22-0.1,0.37-0.27,0.45-0.5c0.52-1.34,1.85-1.62,1.91-1.63c0.12-0.02,0.22,0,0.31,0.08
			c0.09,0.07,0.14,0.17,0.14,0.29v3.22c0,0.1-0.04,0.19-0.11,0.27C25.62,45.01,25.53,45.05,25.42,45.05z M22.82,44.29h2.22V42
			c-0.42,0.22-0.72,0.55-0.9,0.99c-0.15,0.42-0.44,0.73-0.84,0.92C23.11,43.99,22.95,44.12,22.82,44.29z"/>
	</g>
	<rect x="21.43" y="40.88" class="st0" width="4.94" height="4.18"/>
	<path d="M27.79,33.81c-0.6,0-1.03-0.15-1.26-0.45c-0.14-0.18-0.28-0.5-0.13-1.01c0.09-0.31,0.25-0.57,0.49-0.78
		c0.23-0.21,0.51-0.35,0.82-0.41c0.25-0.06,0.49-0.05,0.73,0.04c0.24,0.09,0.44,0.23,0.6,0.42c0.16,0.2,0.26,0.43,0.29,0.68
		c0.03,0.25-0.01,0.5-0.13,0.73c-0.01,0.02-0.02,0.05-0.04,0.07c-0.11,0.2-0.26,0.37-0.45,0.49c-0.19,0.13-0.4,0.2-0.63,0.21
		C27.98,33.81,27.88,33.81,27.79,33.81z M28.01,31.88c-0.04,0-0.09,0.01-0.13,0.02c-0.18,0.03-0.34,0.11-0.48,0.23
		c-0.14,0.12-0.23,0.28-0.28,0.45c-0.03,0.09-0.06,0.24-0.01,0.31c0.08,0.09,0.36,0.19,0.91,0.15c0.21-0.02,0.36-0.11,0.45-0.3
		c0.01-0.02,0.02-0.03,0.03-0.05c0.11-0.22,0.09-0.42-0.07-0.61C28.33,31.95,28.19,31.88,28.01,31.88z"/>
	<g>
		<path d="M31.78,45.05h-4.12c-0.06,0-0.12-0.02-0.18-0.05c-0.06-0.03-0.1-0.07-0.14-0.12c-0.03-0.05-0.06-0.11-0.06-0.17
			c-0.01-0.06,0-0.12,0.03-0.18c0.71-1.73,1.89-2.19,2.52-2.31c0.26-0.05,0.48-0.17,0.66-0.35c0.33-0.33,0.71-0.57,1.15-0.72
			c0.06-0.02,0.12-0.03,0.18-0.02c0.06,0.01,0.12,0.03,0.17,0.07c0.05,0.04,0.09,0.08,0.12,0.14c0.03,0.06,0.04,0.11,0.04,0.18v3.18
			c0,0.1-0.04,0.19-0.11,0.27C31.97,45.01,31.89,45.05,31.78,45.05z M28.27,44.29h3.13V42.1c-0.13,0.08-0.25,0.18-0.36,0.29
			c-0.29,0.31-0.65,0.5-1.07,0.57C29.47,43.06,28.8,43.38,28.27,44.29z"/>
	</g>
	<rect x="27.07" y="40.88" class="st0" width="5.64" height="4.18"/>
	<path d="M28.18,41.87c-0.45,0.02-0.87-0.1-1.26-0.34c-0.28-0.19-0.41-0.44-0.42-0.77c0-0.34,0.13-0.6,0.41-0.79
		c0.36-0.25,0.77-0.37,1.21-0.37c0.43-0.01,0.83,0.08,1.22,0.26c0.32,0.15,0.49,0.41,0.53,0.76c0.04,0.34-0.08,0.62-0.35,0.84
		C29.13,41.75,28.68,41.89,28.18,41.87z M28.13,40.35c-0.28-0.01-0.54,0.07-0.77,0.23c-0.06,0.04-0.09,0.09-0.08,0.16
		c0,0.07,0.02,0.12,0.08,0.15c0.26,0.16,0.53,0.23,0.83,0.21c0.32,0.01,0.61-0.08,0.87-0.27c0.05-0.04,0.07-0.09,0.07-0.16
		c-0.01-0.07-0.04-0.12-0.11-0.15C28.74,40.41,28.44,40.35,28.13,40.35z"/>
	<g>
		<path d="M35.02,45.05c-0.2,0-0.32-0.1-0.37-0.28l-0.72-2.73c-0.02-0.09-0.01-0.18,0.03-0.26c0.04-0.09,0.11-0.15,0.2-0.18
			c0.42-0.18,1.29-0.38,2.42,0.2c0.64,0.33,1.5-0.13,2.1-0.56c0.05-0.04,0.11-0.06,0.17-0.07c0.06-0.01,0.13,0,0.19,0.02
			c0.06,0.02,0.11,0.06,0.15,0.11c0.04,0.05,0.07,0.1,0.08,0.17l0.38,1.83c0.02,0.1,0.01,0.19-0.04,0.27
			c-0.05,0.09-0.12,0.14-0.22,0.17l-4.26,1.31C35.09,45.05,35.05,45.05,35.02,45.05z M34.76,42.19l0.53,2l3.55-1.09l-0.2-0.95
			c-0.92,0.54-1.75,0.64-2.41,0.31C35.61,42.15,35.12,42.12,34.76,42.19z"/>
	</g>
	<rect x="33.42" y="40.88" class="st0" width="6.29" height="4.18"/>
	<g>
		<path d="M20.12,12.91c-0.1,0-0.2-0.04-0.27-0.11c-0.07-0.07-0.11-0.16-0.11-0.27v-1.65c0-0.17,0.03-0.33,0.1-0.49
			c0.07-0.16,0.16-0.29,0.28-0.42c0.12-0.12,0.26-0.21,0.42-0.28c0.16-0.06,0.32-0.1,0.49-0.1h3.31c0.1,0,0.18,0.03,0.26,0.1
			c0.07,0.07,0.11,0.15,0.12,0.24c0.11,1.06-0.04,1.79-0.48,2.24c-0.6,0.62-1.55,0.56-2.46,0.49c-0.2-0.01-0.4-0.03-0.59-0.03
			c-0.36-0.01-0.63,0.06-0.83,0.2C20.27,12.89,20.2,12.91,20.12,12.91z M21.2,11.88c0.21,0.01,0.42,0.02,0.62,0.04
			c0.77,0.05,1.5,0.1,1.86-0.26c0.23-0.23,0.33-0.67,0.3-1.3h-2.96c-0.15,0-0.27,0.05-0.37,0.15c-0.1,0.1-0.15,0.23-0.15,0.37v1.07
			C20.73,11.89,20.96,11.87,21.2,11.88z"/>
	</g>
	<rect x="19.31" y="9.6" class="st0" width="5.64" height="3.76"/>
	<path d="M22.78,16.99h-1.86c-0.16,0-0.31-0.03-0.45-0.09c-0.14-0.06-0.27-0.14-0.38-0.25c-0.11-0.11-0.2-0.24-0.25-0.38
		c-0.06-0.15-0.09-0.29-0.09-0.45v-1.59c0-0.11,0.04-0.2,0.12-0.27c0.07-0.07,0.17-0.11,0.28-0.11c1.86,0.05,2.96,1.06,3.03,2.75
		c0.01,0.11-0.03,0.2-0.1,0.28C22.98,16.95,22.88,16.99,22.78,16.99L22.78,16.99z M20.5,14.63v1.18c0,0.12,0.04,0.21,0.12,0.3
		c0.08,0.08,0.18,0.12,0.3,0.12h1.44C22.16,15.12,21.32,14.73,20.5,14.63z"/>
	<path d="M27.88,16.99h-3.31c-0.12,0-0.21-0.04-0.29-0.13c-0.07-0.09-0.1-0.19-0.09-0.3l0.22-1.65c0.04-0.3,0.15-0.56,0.34-0.8
		c0.18-0.24,0.41-0.42,0.69-0.53l0.14-0.06c0.17-0.07,0.31-0.18,0.41-0.33l0.16-0.23c0.11-0.16,0.24-0.29,0.4-0.41
		c0.16-0.12,0.33-0.2,0.51-0.25s0.37-0.08,0.56-0.07c0.19,0.01,0.38,0.05,0.56,0.13c0.16,0.07,0.31,0.16,0.46,0.26
		c0.09,0.06,0.14,0.15,0.15,0.25c0.01,0.1-0.01,0.2-0.07,0.28c-0.07,0.09-0.15,0.14-0.25,0.15c-0.1,0.01-0.2-0.01-0.28-0.08
		c-0.09-0.07-0.19-0.12-0.3-0.17c-0.2-0.08-0.41-0.09-0.61-0.03c-0.21,0.06-0.37,0.18-0.49,0.36l-0.16,0.23
		c-0.19,0.27-0.44,0.47-0.74,0.6l-0.14,0.06c-0.33,0.14-0.52,0.38-0.56,0.73L25,16.23h2.87c0.1,0,0.2,0.04,0.27,0.11
		c0.07,0.07,0.11,0.16,0.11,0.27s-0.04,0.19-0.11,0.27C28.07,16.95,27.98,16.99,27.88,16.99z"/>
	<path d="M32.58,16.99h-4.7c-0.1,0-0.2-0.04-0.27-0.11c-0.07-0.07-0.11-0.17-0.11-0.27v-1.5c0-0.15,0.03-0.29,0.09-0.42
		c0.06-0.14,0.14-0.26,0.24-0.36c0.1-0.1,0.23-0.18,0.36-0.24c0.14-0.06,0.28-0.08,0.43-0.08h3.66c0.31,0,0.6,0.09,0.85,0.28
		c0.25,0.19,0.42,0.43,0.51,0.74c0.06,0.2,0.1,0.41,0.13,0.62c0.05,0.36-0.04,0.67-0.28,0.94C33.25,16.85,32.94,16.99,32.58,16.99z
		 M28.26,16.23h4.32c0.14,0,0.25-0.05,0.33-0.15c0.08-0.1,0.12-0.21,0.1-0.33c-0.02-0.18-0.06-0.35-0.11-0.52
		c-0.04-0.14-0.12-0.25-0.23-0.34c-0.12-0.09-0.25-0.13-0.39-0.13h-3.66c-0.1,0-0.18,0.04-0.25,0.1s-0.1,0.15-0.1,0.25V16.23z"/>
	<g>
		<path d="M25.42,45.05c-0.1,0-0.19-0.04-0.27-0.11c-0.07-0.07-0.11-0.16-0.11-0.27V25.69c0-0.1,0.04-0.19,0.11-0.27
			c0.07-0.07,0.16-0.11,0.27-0.11c0.11,0,0.2,0.04,0.27,0.11c0.07,0.07,0.11,0.16,0.11,0.27v18.98c0,0.1-0.04,0.19-0.11,0.27
			C25.62,45.01,25.53,45.05,25.42,45.05z"/>
	</g>
	<rect x="24.95" y="24.65" class="st0" width="1.41" height="20.4"/>
	<path d="M34.44,37.25c0.37-0.51,0.32-1.15,0.25-1.49c-0.02-0.07,0-0.14,0.04-0.2c0.16-0.26,0.2-0.53,0.12-0.82
		c-0.07-0.28-0.24-0.5-0.5-0.64c-0.75-0.42-1.4-0.45-1.82-0.38l-0.37-1.41v-2.88c0-0.11-0.04-0.19-0.11-0.27
		c-0.08-0.08-0.16-0.11-0.27-0.11c-0.11,0-0.2,0.04-0.27,0.11c-0.07,0.08-0.11,0.16-0.11,0.27v2.92c0,0.04,0,0.07,0.02,0.1H31.4
		c-0.61-0.04-1.41,0.13-1.79,0.96c-0.13,0.26-0.18,0.53-0.16,0.82c0.02,0.29,0.11,0.55,0.28,0.78c0.35,0.52,0.98,0.87,1.67,0.95
		v0.68c-0.31-0.03-0.75-0.01-1.28,0.2c-0.26,0.1-0.52,0.15-0.8,0.16c-0.11,0-0.26,0.01-0.42,0.02c-0.19,0.01-0.36,0.08-0.5,0.2
		c-0.14,0.12-0.24,0.27-0.28,0.46c-0.04,0.18-0.03,0.36,0.04,0.53c0.08,0.17,0.19,0.3,0.35,0.4c0.14,0.08,0.26,0.16,0.37,0.27
		c0.38,0.37,0.83,0.63,1.34,0.77c0.1,0.03,0.2,0.02,0.29-0.04c0.09-0.05,0.15-0.13,0.18-0.23c0.03-0.1,0.02-0.2-0.04-0.29
		c-0.05-0.09-0.13-0.15-0.23-0.18c-0.39-0.11-0.73-0.3-1.02-0.58c-0.16-0.14-0.33-0.27-0.51-0.37c-0.04-0.02-0.05-0.05-0.04-0.1
		c0.01-0.05,0.04-0.08,0.09-0.08c0.14-0.01,0.28-0.01,0.38-0.01c0.36,0,0.72-0.07,1.06-0.21c0.32-0.14,0.66-0.18,1.01-0.14v4.09
		c0,0.1,0.04,0.19,0.11,0.27c0.08,0.08,0.17,0.11,0.27,0.11c0.11,0,0.19-0.04,0.27-0.11c0.07-0.07,0.11-0.16,0.11-0.27V35.3
		l0.61,2.31l1.16,4.42c0.05,0.19,0.17,0.28,0.37,0.28c0.06,0,0.11-0.01,0.17-0.04c0.05-0.02,0.1-0.06,0.13-0.11
		c0.04-0.05,0.06-0.1,0.07-0.16c0.01-0.06,0.01-0.11-0.01-0.17l-1.06-4.03C33.97,37.71,34.24,37.52,34.44,37.25z M31.4,35.2
		c-0.44-0.07-0.83-0.3-1.04-0.61c-0.19-0.27-0.21-0.56-0.06-0.86c0.2-0.43,0.61-0.53,0.93-0.53c0.06,0,0.12,0,0.18,0.01V35.2z
		 M34.08,35.17c-0.14,0.23-0.19,0.48-0.14,0.75c0.05,0.22,0.08,0.62-0.11,0.89c-0.11,0.14-0.24,0.23-0.41,0.27l-0.69-2.61
		c0.45-0.04,0.87,0.06,1.26,0.3c0.06,0.04,0.11,0.1,0.13,0.17C34.13,35.02,34.12,35.09,34.08,35.17z"/>
	<path d="M16.58,31.24c0,0.11-0.04,0.2-0.12,0.28c-0.08,0.08-0.17,0.12-0.28,0.12c-0.11,0-0.2-0.04-0.28-0.12
		c-0.08-0.08-0.12-0.17-0.12-0.28c0-0.11,0.04-0.2,0.12-0.28c0.08-0.08,0.17-0.12,0.28-0.12c0.11,0,0.2,0.04,0.28,0.12
		C16.54,31.03,16.58,31.13,16.58,31.24z"/>
	<path d="M15.23,40.11c0,0.11-0.04,0.2-0.12,0.28c-0.08,0.08-0.17,0.12-0.28,0.12c-0.11,0-0.2-0.04-0.28-0.12
		c-0.08-0.08-0.12-0.17-0.12-0.28c0-0.11,0.04-0.2,0.12-0.28c0.08-0.08,0.17-0.12,0.28-0.12c0.11,0,0.2,0.04,0.28,0.12
		C15.2,39.91,15.23,40,15.23,40.11z"/>
	<path d="M21.82,40.9c0,0.11-0.04,0.2-0.12,0.28c-0.08,0.08-0.17,0.12-0.28,0.12s-0.2-0.04-0.28-0.12
		c-0.08-0.08-0.12-0.17-0.12-0.28c0-0.11,0.04-0.2,0.12-0.28c0.08-0.08,0.17-0.12,0.28-0.12s0.2,0.04,0.28,0.12
		C21.78,40.7,21.82,40.79,21.82,40.9z"/>
	<path d="M22.58,36.23c0,0.11-0.04,0.2-0.12,0.28c-0.08,0.08-0.17,0.12-0.28,0.12c-0.11,0-0.2-0.04-0.28-0.12
		c-0.08-0.08-0.12-0.17-0.12-0.28c0-0.11,0.04-0.2,0.12-0.28c0.08-0.08,0.17-0.12,0.28-0.12c0.11,0,0.2,0.04,0.28,0.12
		C22.54,36.02,22.58,36.12,22.58,36.23z"/>
	<path d="M21.42,32.03c0,0.11-0.04,0.2-0.12,0.28c-0.08,0.08-0.17,0.12-0.28,0.12c-0.11,0-0.2-0.04-0.28-0.12
		c-0.08-0.08-0.12-0.17-0.12-0.28c0-0.11,0.04-0.2,0.12-0.28c0.08-0.08,0.17-0.12,0.28-0.12c0.11,0,0.2,0.04,0.28,0.12
		C21.39,31.83,21.42,31.92,21.42,32.03z"/>
	<path d="M27.92,36c0,0.11-0.04,0.2-0.12,0.28c-0.08,0.08-0.17,0.12-0.28,0.12s-0.2-0.04-0.28-0.12c-0.08-0.08-0.12-0.17-0.12-0.28
		c0-0.11,0.04-0.2,0.12-0.28c0.08-0.08,0.17-0.12,0.28-0.12s0.2,0.04,0.28,0.12C27.88,35.8,27.92,35.89,27.92,36z"/>
	<path d="M27.92,26.57c0,0.11-0.04,0.2-0.12,0.28c-0.08,0.08-0.17,0.12-0.28,0.12s-0.2-0.04-0.28-0.12
		c-0.08-0.08-0.12-0.17-0.12-0.28s0.04-0.2,0.12-0.28c0.08-0.08,0.17-0.12,0.28-0.12s0.2,0.04,0.28,0.12
		C27.88,26.37,27.92,26.46,27.92,26.57z"/>
	<path d="M33.62,31.79c0,0.11-0.04,0.2-0.12,0.28c-0.08,0.08-0.17,0.12-0.28,0.12c-0.11,0-0.2-0.04-0.28-0.12
		c-0.08-0.08-0.12-0.17-0.12-0.28c0-0.11,0.04-0.2,0.12-0.28c0.08-0.08,0.17-0.12,0.28-0.12c0.11,0,0.2,0.04,0.28,0.12
		C33.58,31.59,33.62,31.68,33.62,31.79z"/>
	<path d="M36.17,40.25c0,0.11-0.04,0.2-0.12,0.28c-0.08,0.08-0.17,0.12-0.28,0.12c-0.11,0-0.2-0.04-0.28-0.12s-0.12-0.17-0.12-0.28
		c0-0.11,0.04-0.2,0.12-0.28c0.08-0.08,0.17-0.12,0.28-0.12c0.11,0,0.2,0.04,0.28,0.12C36.13,40.05,36.17,40.14,36.17,40.25z"/>
	<path d="M23.77,13.69c0,0.11-0.04,0.2-0.12,0.28c-0.08,0.08-0.17,0.12-0.28,0.12s-0.2-0.04-0.28-0.12
		c-0.08-0.08-0.12-0.17-0.12-0.28c0-0.11,0.04-0.2,0.12-0.28c0.08-0.08,0.17-0.12,0.28-0.12s0.2,0.04,0.28,0.12
		C23.73,13.49,23.77,13.58,23.77,13.69z"/>
</g>
</svg>
