<?xml version="1.0" encoding="utf-8"?>
<!-- Generator: Adobe Illustrator 27.3.1, SVG Export Plug-In . SVG Version: 6.00 Build 0)  -->
<svg version="1.1" id="Layer_1" xmlns="http://www.w3.org/2000/svg" xmlns:xlink="http://www.w3.org/1999/xlink" x="0px" y="0px"
	 viewBox="0 0 50 50" style="enable-background:new 0 0 50 50;" xml:space="preserve">
<style type="text/css">
	.st0{fill:none;}
	.st1{stroke:#000000;stroke-miterlimit:10;}
	.st2{stroke:#000000;stroke-width:0.75;stroke-miterlimit:10;}
	.st3{clip-path:url(#SVGID_00000101826310290119397460000004374352711956899756_);}
	.st4{clip-path:url(#SVGID_00000116226635513421107670000003028784242274577287_);}
	.st5{fill:#FFFFFF;}
	.st6{clip-path:url(#SVGID_00000159430944998023864280000018344858735112973214_);}
	.st7{fill:#231F20;}
	.st8{clip-path:url(#SVGID_00000102541900856322538780000005053217415331878050_);}
	.st9{clip-path:url(#SVGID_00000032634996751777649170000017209930603743314322_);}
	.st10{clip-path:url(#SVGID_00000124154813517968923770000012089193812345119410_);}
	.st11{clip-path:url(#SVGID_00000034050800372515690830000008078291175731079055_);}
	.st12{clip-path:url(#SVGID_00000124150696425048218760000010482940095693541001_);}
	.st13{clip-path:url(#SVGID_00000021838660809322703690000005082208047107131270_);}
	.st14{clip-path:url(#SVGID_00000108281981642199987990000011052159142888025770_);}
	.st15{clip-path:url(#SVGID_00000164497356037418885300000003559066800721253012_);}
	.st16{clip-path:url(#SVGID_00000158025226219297043490000013344426428614921613_);}
	.st17{clip-path:url(#SVGID_00000072976755626863052400000001295728067343102103_);}
	.st18{clip-path:url(#SVGID_00000014621839678383259270000013469208386778928271_);}
	.st19{clip-path:url(#SVGID_00000116944702636591608880000011841535768879033774_);}
	.st20{clip-path:url(#SVGID_00000039824945183752936330000010121375883785618346_);}
	.st21{clip-path:url(#SVGID_00000160156411262264812180000001383597946719861167_);}
	.st22{clip-path:url(#SVGID_00000103251148073792077510000012112148477781162665_);}
	.st23{clip-path:url(#SVGID_00000139278869097615286900000018400053219156959373_);}
	.st24{clip-path:url(#SVGID_00000183950042692414268750000008414673771937195908_);}
	.st25{clip-path:url(#SVGID_00000062876450879168989530000001270178094550517941_);}
	.st26{clip-path:url(#SVGID_00000080909662852146179220000003703075405581829767_);}
	.st27{clip-path:url(#SVGID_00000049215438173894001840000007921865322248349621_);}
	.st28{clip-path:url(#SVGID_00000000918025446957111950000012803788324239783072_);}
	.st29{clip-path:url(#SVGID_00000181086626393966229000000004144499077384081340_);}
	.st30{clip-path:url(#SVGID_00000137854814737845569720000005412180128989800890_);}
	.st31{fill-rule:evenodd;clip-rule:evenodd;}
	.st32{clip-path:url(#SVGID_00000183206694968426133150000011718772703105879219_);}
	.st33{clip-path:url(#SVGID_00000076598459320418777230000011987778291516588202_);}
	.st34{stroke:#000000;stroke-width:0.5;stroke-miterlimit:10;}
	.st35{clip-path:url(#SVGID_00000163073757005870115240000012056442030167657136_);}
	.st36{clip-path:url(#SVGID_00000039100580687884027890000003701029761521554604_);}
	.st37{clip-path:url(#SVGID_00000060720507967156259450000011291087321873756564_);}
	.st38{fill:#1A1A1A;}
	.st39{clip-path:url(#SVGID_00000054973105401982363410000011315687450109531530_);}
	.st40{clip-path:url(#SVGID_00000111171632203349199400000002948561283092545442_);}
	.st41{clip-path:url(#SVGID_00000078749603511913200680000011286739140598105244_);}
	.st42{clip-path:url(#SVGID_00000114044801137800967400000007961667735533453757_);}
	.st43{clip-path:url(#SVGID_00000030468137072514331210000008659546383868596665_);}
	.st44{clip-path:url(#SVGID_00000042722036898758279580000016741757162628110468_);}
	.st45{clip-path:url(#SVGID_00000054240510823376385610000003033914374096820132_);}
	.st46{clip-path:url(#SVGID_00000152221861270095855560000000735071145170693272_);}
	.st47{clip-path:url(#SVGID_00000115493128670983797970000013072442427836428221_);}
	.st48{fill:#F1F1F1;}
	.st49{fill:#E8E8E8;}
	.st50{fill:#FEFEFE;}
	.st51{fill:#CCCCCC;}
	.st52{fill:#B3B3B3;}
	.st53{fill:#E6E6E6;}
	.st54{fill:#EBEBEB;}
	.st55{fill:#EEEEEE;}
	.st56{fill:#F8F8F8;}
	.st57{fill:#FBFBFB;}
	.st58{fill:#383838;}
	.st59{fill:#232323;}
	.st60{fill:#F6F6F6;}
	.st61{fill:#535353;}
	.st62{fill:#0A0A0A;}
	.st63{fill:#F5F5F5;}
	.st64{fill:#818181;}
	.st65{fill:#4A4A4A;}
	.st66{fill:#999999;}
	.st67{fill:url(#SVGID_00000103982365550368918810000014094516654434498221_);}
	.st68{fill:url(#SVGID_00000028288978448239943780000011849477884044804788_);}
	.st69{fill:#0E0E0D;}
	.st70{fill:#333333;}
	.st71{fill:#808080;}
	.st72{fill:url(#SVGID_00000023279691423585083770000004226530034566641084_);}
	.st73{fill:#666666;}
	.st74{fill:url(#SVGID_00000124160530428846539070000002781264773956613791_);}
	.st75{fill:url(#SVGID_00000043429997317159024810000013993291411730933950_);}
	.st76{fill:url(#SVGID_00000045620660149860828880000014516755467718342805_);}
	.st77{fill:url(#SVGID_00000048496857783006050720000015314698836814530727_);}
	.st78{fill:url(#SVGID_00000118394879927460277950000017130947386543105703_);}
	.st79{clip-path:url(#SVGID_00000029005002395229124750000018216459633885226920_);}
	.st80{clip-path:url(#SVGID_00000175291797631098741120000010211359787765844358_);}
	.st81{clip-path:url(#SVGID_00000096037775262423085680000015651124277906239384_);}
	.st82{clip-path:url(#SVGID_00000078007426607821124820000001414405129210322596_);}
	.st83{clip-path:url(#SVGID_00000113321725186758868000000003618002224719309954_);}
	.st84{fill:#241F20;stroke:#000000;stroke-width:0.5;stroke-miterlimit:10;}
	.st85{clip-path:url(#SVGID_00000134958229916186841020000013432679731164660148_);}
	.st86{clip-path:url(#SVGID_00000025434577107781811340000008734627715087396282_);}
	.st87{clip-path:url(#SVGID_00000153662931806784833230000007479863976774135997_);}
	.st88{clip-path:url(#SVGID_00000117634612770009645210000005342969802395163276_);}
	.st89{clip-path:url(#SVGID_00000182505117704070223910000012067021678883571628_);}
	.st90{clip-path:url(#SVGID_00000165208814166768795190000001833274850268591498_);}
	.st91{clip-path:url(#SVGID_00000023993516819145516070000001753403608669741990_);}
	.st92{clip-path:url(#SVGID_00000176020203506668575960000008927753115176680612_);}
	.st93{clip-path:url(#SVGID_00000145750208108128505060000002471777468302438540_);}
	.st94{clip-path:url(#SVGID_00000063590985001461207970000009508204704353353092_);}
	.st95{clip-path:url(#SVGID_00000034069940416273276350000000161574359967137191_);}
	.st96{clip-path:url(#SVGID_00000078017257287710537750000008883304871420929160_);}
	.st97{clip-path:url(#SVGID_00000164513134065518471130000005038717567285960098_);}
	.st98{clip-path:url(#SVGID_00000120548228827092441240000001330309784254176190_);}
	.st99{clip-path:url(#SVGID_00000127734443712306305980000017661708726925925297_);}
	.st100{clip-path:url(#SVGID_00000001649044925250454070000000454304201391933073_);}
	.st101{clip-path:url(#SVGID_00000000938582208544239460000007702958528372818823_);}
	.st102{clip-path:url(#SVGID_00000106862500665256354310000001169915283002858645_);}
	.st103{clip-path:url(#SVGID_00000155849526826513382580000000534605248650265508_);}
	.st104{clip-path:url(#SVGID_00000109751356168723465340000015185556951158611328_);}
	.st105{clip-path:url(#SVGID_00000138536352381431694320000002138398221362817692_);}
	.st106{clip-path:url(#SVGID_00000028319259752009307990000013131467808879484072_);}
	.st107{clip-path:url(#SVGID_00000127741953659087420090000011977240662554169990_);}
	.st108{clip-path:url(#SVGID_00000167377858211501441750000010102884534260924564_);}
	.st109{clip-path:url(#SVGID_00000125596039973112082660000000862174350873187718_);}
	.st110{clip-path:url(#SVGID_00000008842934378572796620000016905955803077749431_);}
	.st111{clip-path:url(#SVGID_00000112613359541278203110000008766267607528611734_);}
	.st112{clip-path:url(#SVGID_00000072245588365670713970000012873471230884083377_);}
	.st113{clip-path:url(#SVGID_00000068675554294316568310000015103535533274353066_);}
	.st114{clip-path:url(#SVGID_00000126288013457292873310000002274851029503356300_);}
	.st115{fill:#FFFFFF;stroke:#000000;stroke-miterlimit:10;}
	.st116{clip-path:url(#SVGID_00000050622224257462460060000016730735690541015993_);}
	.st117{clip-path:url(#SVGID_00000049213017833570771380000007123818140610984832_);}
	.st118{fill:none;stroke:#010101;stroke-miterlimit:10;}
	.st119{fill:#010101;stroke:#000000;stroke-miterlimit:10;}
	.st120{clip-path:url(#SVGID_00000117678783570905240360000008758594058703279033_);}
	.st121{fill:#010101;stroke:#010101;stroke-miterlimit:10;}
	.st122{clip-path:url(#SVGID_00000023990580317817455550000008243588669735811731_);}
	.st123{clip-path:url(#SVGID_00000176034487451877368670000002201114006794081175_);}
	.st124{clip-path:url(#SVGID_00000142135126417489858980000012895337602789447583_);}
	.st125{clip-path:url(#SVGID_00000103232691224416897860000010019268113178291110_);}
	.st126{clip-path:url(#SVGID_00000062159848523250717270000011063340555580941719_);}
	.st127{fill:none;stroke:#000000;stroke-width:3;stroke-miterlimit:10;}
	.st128{clip-path:url(#SVGID_00000073691077050087797050000000628292437693838504_);}
	.st129{clip-path:url(#SVGID_00000175309165695922786790000000424726847729932476_);}
	.st130{clip-path:url(#SVGID_00000016793590220815732830000015089868108425741200_);}
	.st131{clip-path:url(#SVGID_00000178183466063125851180000015757833994486955967_);}
	.st132{fill:#040606;}
	.st133{clip-path:url(#SVGID_00000156589992093942081700000015660246317763208123_);}
	.st134{clip-path:url(#SVGID_00000176722547395360799760000011338327234268622519_);}
	.st135{clip-path:url(#SVGID_00000174589705308865925740000004099317958327769484_);}
	.st136{clip-path:url(#SVGID_00000149351160094931399350000012458159963273954190_);}
	.st137{clip-path:url(#SVGID_00000171687018023738198620000016654129874307678352_);}
	.st138{clip-path:url(#SVGID_00000084505661748418520190000016263628777672323741_);}
	.st139{clip-path:url(#SVGID_00000016759626598696640150000007106782376195360168_);}
	.st140{fill:#FFFFFF;stroke:#000000;stroke-width:1.5;stroke-miterlimit:10;}
	.st141{clip-path:url(#SVGID_00000150805330028642641850000011019697062333334430_);}
	.st142{fill:#BDBCBC;}
	.st143{clip-path:url(#SVGID_00000118380572900946338520000013899728339182396291_);}
	.st144{fill:#2E2A2B;}
	.st145{clip-path:url(#SVGID_00000131359109348645343740000014921071993997280389_);}
	.st146{clip-path:url(#SVGID_00000112627665199423692210000003013618267936433590_);}
	.st147{clip-path:url(#SVGID_00000033340676279464749510000003637704112947492766_);}
	.st148{clip-path:url(#SVGID_00000136390144533795845520000001149562907679155389_);}
	.st149{clip-path:url(#SVGID_00000111872541700975830520000013106446821870867869_);}
	.st150{fill:#272324;}
	.st151{clip-path:url(#SVGID_00000096764609025888441730000016466162163700834967_);}
	.st152{clip-path:url(#SVGID_00000123409970992521035770000005203020456154508464_);}
	.st153{clip-path:url(#SVGID_00000078035620778976136970000017629596643700432003_);}
	.st154{clip-path:url(#SVGID_00000179647765604068702630000001089933282008958099_);}
	.st155{clip-path:url(#SVGID_00000072270538852502202330000001353369944634228869_);}
	.st156{clip-path:url(#SVGID_00000038372491096458111780000006276298877974138771_);}
	.st157{fill:none;stroke:#000000;stroke-width:0.8735;stroke-linecap:round;stroke-linejoin:round;stroke-miterlimit:10;}
	.st158{clip-path:url(#SVGID_00000114058764277317125760000018259307961621568174_);}
	.st159{clip-path:url(#SVGID_00000152975772028135063580000006912690692708473502_);}
	.st160{clip-path:url(#SVGID_00000036946500588424625060000014860488639421924761_);}
	.st161{clip-path:url(#SVGID_00000052786360534752547640000013968797356868281758_);}
	.st162{clip-path:url(#SVGID_00000180363717120291501160000001431696689478134449_);}
	.st163{clip-path:url(#SVGID_00000086679610642685079230000001435453041452265359_);}
	.st164{clip-path:url(#SVGID_00000021804553482515544510000016677376455899914134_);}
	.st165{clip-path:url(#SVGID_00000027574675697374890030000016381732129291639187_);}
	.st166{clip-path:url(#SVGID_00000116922199262549534670000010247958004495389313_);}
	.st167{clip-path:url(#SVGID_00000162324601986937303750000009532852011566940312_);}
	.st168{clip-path:url(#SVGID_00000023980372930784340330000003655979777399366528_);}
	.st169{clip-path:url(#SVGID_00000011024511711212545340000013281209603176893603_);}
	.st170{clip-path:url(#SVGID_00000116954182064817796020000010360642227110111361_);}
	.st171{clip-path:url(#SVGID_00000124866446486238484230000004143009852140983176_);}
	.st172{clip-path:url(#SVGID_00000045580917055422284670000018398191638091202474_);}
	.st173{clip-path:url(#SVGID_00000021084600336248369000000006080196446184217223_);}
	.st174{clip-path:url(#SVGID_00000104704839007167228390000000400429737598865547_);}
	.st175{clip-path:url(#SVGID_00000181055133583230145250000011556739872333641360_);}
	.st176{clip-path:url(#SVGID_00000068678781612565334870000014296471837102542497_);}
	.st177{clip-path:url(#SVGID_00000018928085362158338720000007893777681254261146_);}
	.st178{clip-path:url(#SVGID_00000097465136866336545860000004876947607228752770_);}
	.st179{clip-path:url(#SVGID_00000105417065852398570850000018345418897021110165_);}
	.st180{clip-path:url(#SVGID_00000062877306930315657800000006726393513376702137_);}
	.st181{clip-path:url(#SVGID_00000026136635852428699720000010722026102679549069_);}
	.st182{clip-path:url(#SVGID_00000105397376953483515710000003384225486667761304_);}
	.st183{clip-path:url(#SVGID_00000073680391270589597850000003744453448120754878_);}
	.st184{clip-path:url(#SVGID_00000178190255223157563020000000219523198383001749_);}
	.st185{clip-path:url(#SVGID_00000109012472809589540450000004919449876466375553_);}
	.st186{clip-path:url(#SVGID_00000101071009207512019670000014332283758466573465_);}
	.st187{clip-path:url(#SVGID_00000097459333407335512650000015012668714940801179_);}
	.st188{clip-path:url(#SVGID_00000124144155352903605890000011302386335136771216_);}
	.st189{clip-path:url(#SVGID_00000021103665424665709320000015676287478359614141_);}
	.st190{clip-path:url(#SVGID_00000176727133984480837970000015251547643857969050_);}
	.st191{clip-path:url(#SVGID_00000055690080090202376790000009528129366327591562_);}
	.st192{clip-path:url(#SVGID_00000139990999416873747040000009680840259357082764_);}
	.st193{clip-path:url(#SVGID_00000068650442567024415250000000725055765124679827_);}
	.st194{clip-path:url(#SVGID_00000165194791420571992860000009616257884730973569_);}
	.st195{clip-path:url(#SVGID_00000122708711221079902150000017099105390882497408_);}
	.st196{fill:#E5E5E5;}
	.st197{fill:#1D1D1B;}
	.st198{fill:none;stroke:#000000;stroke-miterlimit:10;}
	.st199{fill:#FEFEFE;stroke:#000000;stroke-miterlimit:10;}
	.st200{clip-path:url(#SVGID_00000118360684354205020270000007088621495747406783_);}
	.st201{clip-path:url(#SVGID_00000168096427243059490020000017150679711193474717_);}
	.st202{clip-path:url(#SVGID_00000160173309674143714000000007727677909927009964_);}
	.st203{fill:#231F1F;}
	.st204{fill:#020000;}
	.st205{clip-path:url(#SVGID_00000165913329248747011230000013922250180963944364_);}
	.st206{clip-path:url(#SVGID_00000083065283599301007810000017826988916197275799_);}
	.st207{clip-path:url(#SVGID_00000044893672367046568960000002954267575023789210_);}
	.st208{clip-path:url(#SVGID_00000081626290563167833280000008806267446688850609_);}
	.st209{fill:#050000;}
	.st210{clip-path:url(#SVGID_00000156574429129769712040000013696485731843345312_);}
	.st211{clip-path:url(#SVGID_00000129176807428247651570000016385639567428853174_);}
	.st212{clip-path:url(#SVGID_00000048493205416834044340000000411013819200767670_);}
	.st213{clip-path:url(#SVGID_00000044172503947169917890000000076899431948554669_);}
	.st214{clip-path:url(#SVGID_00000023281522401268481840000004479493315357039787_);}
	.st215{clip-path:url(#SVGID_00000159433466443715837770000004468043971291621795_);}
	.st216{fill:#12100F;}
	.st217{clip-path:url(#SVGID_00000076589946312252449320000015959176703571900046_);}
	.st218{clip-path:url(#SVGID_00000181087908633246392960000013403217055572728759_);}
	.st219{fill:none;stroke:#000000;stroke-width:0.5;stroke-miterlimit:10;}
	.st220{clip-path:url(#SVGID_00000153703310950953665640000006803858981456910771_);}
	.st221{clip-path:url(#SVGID_00000147205432507498481990000015023434403381890707_);}
	.st222{clip-path:url(#SVGID_00000073720325488666770510000008297677083237564549_);}
	.st223{clip-path:url(#SVGID_00000065054472127170609870000001370668109891847084_);}
	.st224{fill:none;stroke:#000000;stroke-width:0.25;stroke-miterlimit:10;}
	.st225{clip-path:url(#SVGID_00000014629993759472110000000001664738273048086956_);}
	.st226{clip-path:url(#SVGID_00000051375939244071079480000008145733537362103487_);}
	.st227{clip-path:url(#SVGID_00000094596963934534362270000003727430472622967693_);}
</style>
<path class="st115" d="M33.81,39.73c0-0.05,0.01-0.1-0.01-0.13c-0.02-0.03-0.08-0.04-0.11-0.05c-0.01,0.01-0.01,0.01-0.02,0.02
	c-0.29-0.6-0.59-1.19-0.88-1.79c-1.02-2.17-1.97-4.36-2.85-6.6c-0.59-1.5-1-3.04-1.3-4.61c-0.22-1.14-0.37-2.3-0.48-3.44
	c-0.1-1.13-0.14-2.25-0.18-3.39c-0.01-0.58,0.05-1.16,0.13-1.73c0.09-0.64,0.2-1.28,0.29-1.92c0.01-0.05-0.02-0.06-0.06-0.08
	c-0.98-0.54-1.76-1.28-2.25-2.3c-0.17-0.33-0.22-0.69-0.24-1.05c-0.01-0.22-0.03-0.44-0.05-0.67c0.03,0,0.07-0.01,0.11-0.01
	c0.06-0.01,0.12-0.02,0.19-0.04c0.14-0.05,0.2-0.18,0.14-0.32c-0.07-0.19-0.21-0.3-0.38-0.37c-0.07-0.03-0.08-0.05-0.07-0.13
	c0.11-0.73,0.28-1.45,0.5-2.16c0.02-0.07,0.04-0.14-0.02-0.21c-0.08-0.1-0.2-0.09-0.25,0.03c-0.06,0.16-0.12,0.31-0.17,0.48
	c-0.18,0.61-0.28,1.23-0.33,1.87c0,0.02,0,0.04-0.01,0.06c-0.04,0.01-0.08,0.01-0.12,0.02c-0.21,0.05-0.29,0.23-0.2,0.42
	c0.05,0.11,0.14,0.2,0.25,0.26c0.02,0.01,0.04,0.02,0.06,0.04c-0.26,0.58-0.49,1.18-0.77,1.74c-0.34,0.69-0.85,1.25-1.51,1.65
	c-0.55,0.33-1.15,0.49-1.79,0.48c-0.03,0-0.06,0-0.08,0c-0.02-0.05-0.01-0.07,0.04-0.09c0.06-0.03,0.12-0.06,0.19-0.11
	c0.19-0.14,0.34-0.33,0.47-0.53c0.07-0.1,0.1-0.23,0.08-0.36c-0.03-0.12-0.11-0.21-0.25-0.22c-0.19-0.01-0.33,0.07-0.45,0.21
	c-0.16,0.18-0.21,0.4-0.23,0.63c0,0.03,0,0.05,0,0.07c-0.1-0.18-0.21-0.36-0.32-0.54c-0.03-0.05-0.07-0.11-0.11-0.16
	c-0.03-0.04-0.07-0.07-0.12-0.1c-0.19-0.11-0.38-0.01-0.4,0.21c-0.01,0.22,0.05,0.4,0.17,0.58c0.06,0.09,0.13,0.19,0.22,0.29
	c-0.18-0.06-0.34-0.11-0.49-0.19c-1.18-0.55-1.88-1.47-2.1-2.75c-0.05-0.29-0.04-0.59-0.06-0.89c-0.01-0.09-0.02-0.19-0.03-0.28
	c0.05-0.01,0.11-0.02,0.17-0.04c0.11-0.04,0.18-0.12,0.19-0.25c0.01-0.11-0.04-0.2-0.13-0.25c-0.1-0.06-0.22-0.11-0.34-0.18
	c0.04-0.16,0.09-0.33,0.12-0.52c0.11-0.58,0.22-1.15,0.32-1.73c0.01-0.08-0.03-0.11-0.09-0.16c-0.03,0-0.05,0-0.08,0
	C18,8.47,17.97,8.53,17.95,8.63c-0.09,0.54-0.19,1.06-0.28,1.59c-0.03,0.2-0.04,0.4-0.07,0.6c0,0.02-0.03,0.06-0.05,0.06
	c-0.13,0.03-0.21,0.12-0.23,0.26c-0.02,0.13,0.07,0.21,0.17,0.27c0.01,0.01,0.02,0.01,0.03,0.02c0,0,0,0,0.01,0.01
	c-0.13,0.26-0.11,0.57-0.2,0.85c-0.25,0.92-0.65,1.77-1.29,2.48c-0.22,0.24-0.45,0.43-0.74,0.57c-0.3,0.14-0.62,0.2-0.95,0.12
	c-0.02,0-0.06,0.02-0.06,0.04c-0.01,0.05-0.02,0.1-0.02,0.16c0.02,0.33,0.03,0.67,0.06,1c0.06,0.7,0.14,1.42,0.19,2.12
	c0.02,0.34-0.02,0.68-0.04,1.02c-0.03,0.53-0.07,1.05-0.12,1.58c-0.06,0.72-0.12,1.44-0.19,2.16c-0.05,0.58-0.1,1.15-0.14,1.73
	c-0.06,0.78-0.12,1.55-0.19,2.33c-0.04,0.59-0.09,1.19-0.11,1.78c-0.05,1.06-0.08,2.12-0.12,3.18c0,0.02-0.01,0.05-0.01,0.07
	c0,0.53,0,1.05,0,1.58c0,0.03,0.01,0.05,0.01,0.08c0.04,0.86,0.06,1.72,0.12,2.57c0.11,1.6,0.35,3.17,0.8,4.73
	c0.11,0.41,0.26,0.81,0.39,1.21c0.03,0.09,0.07,0.18,0.11,0.27c-0.04-0.03-0.07-0.07-0.12-0.08c-0.07-0.02-0.07,0.05-0.08,0.1
	c-0.12,0.03-0.18,0.07-0.18,0.18c0,0.08,0.04,0.16,0.11,0.19c0.09,0.03,0.17-0.01,0.23-0.11c0.1,0.08,0.21,0.17,0.3,0.25
	c-0.13,0.04-0.2,0.14-0.17,0.25c0.03,0.1,0.13,0.17,0.25,0.12c0.11-0.03,0.16-0.14,0.11-0.27c0.17,0.04,0.32,0.08,0.49,0.13
	c-0.16,0.13-0.19,0.22-0.11,0.31c0.06,0.09,0.19,0.11,0.28,0.06c0.1-0.06,0.13-0.17,0.06-0.31c0.16,0.03,0.3,0.05,0.43,0.08
	c-0.04,0.05-0.09,0.11-0.11,0.18c-0.01,0.03,0,0.09,0.02,0.12c0.05,0.09,0.19,0.11,0.28,0.05c0.1-0.06,0.11-0.16,0.03-0.32
	c0.18,0.02,0.35,0.03,0.54,0.05c-0.11,0.13-0.12,0.24-0.02,0.32c0.02,0.02,0.06,0.03,0.09,0.05c0.04,0,0.07,0,0.11,0
	c0.03-0.02,0.06-0.04,0.08-0.06c0.07-0.07,0.07-0.18-0.01-0.29c0.14,0,0.29,0,0.42,0c-0.01,0.07-0.03,0.13-0.03,0.21
	c0,0.03,0.04,0.07,0.07,0.1c0.06,0.05,0.18,0.04,0.24-0.02c0.08-0.07,0.08-0.17,0-0.29c0.18-0.01,0.35-0.01,0.52-0.02
	c-0.07,0.16-0.06,0.25,0.03,0.32c0.07,0.05,0.19,0.04,0.25-0.03c0.07-0.08,0.07-0.19-0.01-0.31c0.16-0.01,0.31-0.02,0.47-0.04
	c-0.05,0.17-0.04,0.24,0.05,0.3c0.07,0.04,0.18,0.03,0.24-0.03c0.08-0.07,0.08-0.18,0.01-0.3c0.18-0.01,0.35-0.03,0.52-0.04
	c-0.01,0.06-0.05,0.12-0.04,0.18c0.01,0.05,0.04,0.1,0.08,0.14c0.07,0.06,0.2,0.04,0.26-0.03c0.07-0.08,0.06-0.18-0.04-0.3
	c0.19-0.01,0.36-0.02,0.55-0.03c-0.05,0.11-0.05,0.23,0.07,0.29c0.07,0.04,0.16,0.03,0.22-0.03c0.07-0.06,0.08-0.14,0.02-0.28
	c0.17,0,0.33,0,0.5,0c-0.05,0.14-0.03,0.23,0.04,0.28s0.17,0.05,0.23,0c0.08-0.06,0.1-0.14,0.04-0.29c0.01,0,0.02,0,0.03,0
	c0.16,0,0.32,0,0.48,0c-0.03,0.06-0.07,0.1-0.07,0.16c0,0.05,0.03,0.11,0.06,0.16c0.06,0.07,0.18,0.06,0.25,0
	c0.08-0.07,0.08-0.17-0.01-0.29c0.22,0,0.42,0,0.66,0c-0.08,0.06-0.13,0.11-0.11,0.21c0.01,0.04,0.03,0.09,0.06,0.12
	c0.07,0.07,0.19,0.06,0.25-0.01c0.08-0.08,0.06-0.2-0.05-0.3c0.25,0,0.49,0,0.71,0c-0.02,0.05-0.06,0.11-0.07,0.17
	c-0.01,0.07,0.02,0.13,0.08,0.18c0.08,0.06,0.21,0.05,0.27-0.03c0.07-0.09,0.06-0.2-0.06-0.31c0.24-0.01,0.48-0.02,0.69-0.03
	c-0.02,0.06-0.06,0.11-0.05,0.18c0,0.05,0.04,0.11,0.08,0.16c0.07,0.06,0.19,0.04,0.25-0.03c0.07-0.09,0.06-0.2-0.05-0.3
	c0.26-0.03,0.5-0.05,0.73-0.08c-0.01,0.06-0.05,0.12-0.04,0.19c0.01,0.06,0.06,0.11,0.1,0.16c0.07,0.05,0.2,0.01,0.25-0.06
	c0.06-0.1,0.03-0.21-0.09-0.3c0.25-0.05,0.49-0.1,0.72-0.16c0,0.06-0.02,0.12,0,0.18c0.02,0.05,0.07,0.1,0.12,0.12
	c0.07,0.04,0.19-0.01,0.23-0.08c0.05-0.09,0.02-0.2-0.1-0.28c0.21-0.06,0.41-0.13,0.62-0.2c-0.08,0.13-0.06,0.25,0.04,0.3
	c0.09,0.05,0.21,0.01,0.26-0.07c0.06-0.11,0.01-0.21-0.16-0.28c0.22-0.08,0.42-0.18,0.63-0.26c0,0.05-0.02,0.12,0,0.17
	c0.02,0.05,0.07,0.09,0.12,0.11c0.08,0.04,0.2-0.03,0.22-0.12c0.03-0.11-0.02-0.2-0.17-0.25c0.16-0.07,0.31-0.14,0.47-0.23
	c-0.05,0.16-0.01,0.26,0.1,0.29c0.1,0.03,0.21-0.02,0.24-0.11c0.04-0.11-0.03-0.21-0.19-0.25c0.09-0.05,0.19-0.1,0.28-0.16
	c0.09-0.05,0.18-0.09,0.25-0.13c0.01,0.06,0,0.13,0.03,0.2c0.01,0.04,0.07,0.06,0.11,0.08c0.09,0.03,0.19-0.03,0.22-0.11
	c0.04-0.11-0.02-0.2-0.19-0.26c0.14-0.09,0.3-0.19,0.43-0.27c0.01,0.05,0.02,0.11,0.05,0.16c0.03,0.04,0.09,0.07,0.14,0.08
	c0.08,0.01,0.16-0.05,0.19-0.13c0.02-0.1-0.02-0.18-0.16-0.24c0.17-0.11,0.33-0.22,0.5-0.33c0.01,0.16,0.06,0.24,0.17,0.25
	c0.09,0.01,0.18-0.05,0.2-0.14c0.02-0.1-0.03-0.19-0.18-0.24c0.18-0.12,0.34-0.25,0.5-0.36c0.01,0.05,0.01,0.11,0.04,0.16
	c0.03,0.04,0.08,0.07,0.13,0.08c0.1,0.02,0.19-0.06,0.21-0.16c0.01-0.11-0.06-0.19-0.21-0.22c0.16-0.13,0.31-0.26,0.45-0.37
	c0.03,0.05,0.04,0.1,0.08,0.13c0.04,0.03,0.09,0.05,0.14,0.05c0.09,0,0.17-0.08,0.18-0.17c0.01-0.11-0.04-0.18-0.14-0.21
	c0.09-0.1,0.19-0.22,0.29-0.32c0.01,0.01,0.02,0.01,0.02,0.01c0.02,0.09,0.08,0.16,0.19,0.17c0.09,0,0.16-0.04,0.2-0.17
	c0-0.02,0-0.03,0-0.05C33.94,39.81,33.9,39.74,33.81,39.73z"/>
</svg>
