<?xml version="1.0" encoding="utf-8"?>
<!-- Generator: Adobe Illustrator 27.3.1, SVG Export Plug-In . SVG Version: 6.00 Build 0)  -->
<svg version="1.1" id="Layer_1" xmlns="http://www.w3.org/2000/svg" xmlns:xlink="http://www.w3.org/1999/xlink" x="0px" y="0px"
	 viewBox="0 0 50 50" style="enable-background:new 0 0 50 50;" xml:space="preserve">
<style type="text/css">
	.st0{fill:none;}
	.st1{stroke:#000000;stroke-miterlimit:10;}
	.st2{stroke:#000000;stroke-width:0.75;stroke-miterlimit:10;}
	.st3{clip-path:url(#SVGID_00000052069364586879281140000018047538480807350969_);}
	.st4{clip-path:url(#SVGID_00000091004647417807446700000016708024875360170424_);}
	.st5{fill:#FFFFFF;}
	.st6{clip-path:url(#SVGID_00000049209428296808037850000002932079252358073274_);}
	.st7{fill:#231F20;}
	.st8{clip-path:url(#SVGID_00000165215292534697146060000001118473754663945100_);}
	.st9{clip-path:url(#SVGID_00000040533584913014556860000001765667649719880078_);}
	.st10{clip-path:url(#SVGID_00000112634291061216251230000004216367780267668872_);}
	.st11{clip-path:url(#SVGID_00000153689809113276167580000009925991524532849549_);}
	.st12{clip-path:url(#SVGID_00000028319539950724507120000007293705680539184280_);}
	.st13{clip-path:url(#SVGID_00000173848235913544875840000012278208838589649340_);}
	.st14{clip-path:url(#SVGID_00000147914111749810127570000011942766616343169189_);}
	.st15{clip-path:url(#SVGID_00000029042073579462932650000013846574216709404828_);}
	.st16{clip-path:url(#SVGID_00000105395590179865458740000013755583799560988323_);}
	.st17{clip-path:url(#SVGID_00000003819744816587018420000001745549734065935015_);}
	.st18{clip-path:url(#SVGID_00000115478730077743481650000008463539402198890409_);}
	.st19{clip-path:url(#SVGID_00000134221347661053968250000006627273790178897849_);}
	.st20{clip-path:url(#SVGID_00000102543816748286723730000013380921945145624459_);}
	.st21{clip-path:url(#SVGID_00000111175148884660415600000002905468904078132909_);}
	.st22{clip-path:url(#SVGID_00000016797303163802848600000013001550293290974108_);}
	.st23{clip-path:url(#SVGID_00000098919699017011528600000009376027644586939296_);}
	.st24{clip-path:url(#SVGID_00000147918964752281649600000010048869571604478602_);}
	.st25{clip-path:url(#SVGID_00000008851272037916830180000006049375259261369995_);}
	.st26{clip-path:url(#SVGID_00000159458822344360459480000017710210136234181307_);}
	.st27{clip-path:url(#SVGID_00000123416600936768566970000005165542153813654687_);}
	.st28{clip-path:url(#SVGID_00000024002406787384771810000014037340547571914687_);}
	.st29{clip-path:url(#SVGID_00000041258931582505345060000004752108838423658396_);}
	.st30{clip-path:url(#SVGID_00000176747536085637249620000010320786274422321575_);}
	.st31{fill-rule:evenodd;clip-rule:evenodd;}
	.st32{clip-path:url(#SVGID_00000163055189502040814660000018018830008954541734_);}
	.st33{clip-path:url(#SVGID_00000012442215633177788670000015409965247176866744_);}
	.st34{stroke:#000000;stroke-width:0.5;stroke-miterlimit:10;}
	.st35{clip-path:url(#SVGID_00000171719302668048025620000005086681701214506397_);}
	.st36{clip-path:url(#SVGID_00000079478456359301679810000014883951026987348369_);}
	.st37{clip-path:url(#SVGID_00000088841554795346320580000002327152324049064576_);}
	.st38{fill:#1A1A1A;}
	.st39{clip-path:url(#SVGID_00000161596589753328451430000005323362100188546200_);}
	.st40{clip-path:url(#SVGID_00000181073803990695622930000008021892460147458968_);}
	.st41{clip-path:url(#SVGID_00000023247336152528624360000013902478065079269279_);}
	.st42{clip-path:url(#SVGID_00000099624623958408150500000015733493398865050504_);}
	.st43{clip-path:url(#SVGID_00000093171998948275455850000013696239280457417612_);}
	.st44{clip-path:url(#SVGID_00000021798743211699572930000000149002807448725644_);}
	.st45{clip-path:url(#SVGID_00000021815004302063281600000004448985431253488556_);}
	.st46{clip-path:url(#SVGID_00000003803130427892608410000004179851283504810659_);}
	.st47{clip-path:url(#SVGID_00000136399831107999494730000000081408785079712167_);}
	.st48{fill:#F1F1F1;}
	.st49{fill:#E8E8E8;}
	.st50{fill:#FEFEFE;}
	.st51{fill:#CCCCCC;}
	.st52{fill:#B3B3B3;}
	.st53{fill:#E6E6E6;}
	.st54{fill:#EBEBEB;}
	.st55{fill:#EEEEEE;}
	.st56{fill:#F8F8F8;}
	.st57{fill:#FBFBFB;}
	.st58{fill:#383838;}
	.st59{fill:#232323;}
	.st60{fill:#F6F6F6;}
	.st61{fill:#535353;}
	.st62{fill:#0A0A0A;}
	.st63{fill:#F5F5F5;}
	.st64{fill:#818181;}
	.st65{fill:#4A4A4A;}
	.st66{fill:#999999;}
	.st67{fill:url(#SVGID_00000085219436110756409880000017962881670871522445_);}
	.st68{fill:url(#SVGID_00000050634764934229717860000016924995736559731111_);}
	.st69{fill:#0E0E0D;}
	.st70{fill:#333333;}
	.st71{fill:#808080;}
	.st72{fill:url(#SVGID_00000098908359565850386560000002398973969824963973_);}
	.st73{fill:#666666;}
	.st74{fill:url(#SVGID_00000090263080752165259610000001302990168519776934_);}
	.st75{fill:url(#SVGID_00000166672893535307493880000007620040956346806656_);}
	.st76{fill:url(#SVGID_00000176733917891981680440000012903664240282682292_);}
	.st77{fill:url(#SVGID_00000173858294313823433140000007517333932511025538_);}
	.st78{fill:url(#SVGID_00000094581878764292953800000017816758642695772342_);}
	.st79{clip-path:url(#SVGID_00000052096337485567295690000006372030373546281139_);}
	.st80{clip-path:url(#SVGID_00000041275723340745660890000003751859877961561507_);}
	.st81{clip-path:url(#SVGID_00000013897137480687374660000016048584796959049638_);}
	.st82{clip-path:url(#SVGID_00000083052699252259462040000016873812318080285362_);}
	.st83{clip-path:url(#SVGID_00000163046243815583384390000008700086327728792221_);}
	.st84{fill:#241F20;stroke:#000000;stroke-width:0.5;stroke-miterlimit:10;}
	.st85{clip-path:url(#SVGID_00000151525444435476990300000005979977386537221551_);}
	.st86{clip-path:url(#SVGID_00000077323882779250362850000004976913958803442591_);}
	.st87{clip-path:url(#SVGID_00000010283033793162829740000013429974595640653451_);}
	.st88{clip-path:url(#SVGID_00000012440868600417447690000011969544797256807610_);}
	.st89{clip-path:url(#SVGID_00000033340866970300347310000001896625907374549145_);}
	.st90{clip-path:url(#SVGID_00000121971232250928863210000012908676716859695539_);}
	.st91{clip-path:url(#SVGID_00000180342161146956430910000008961979552429923247_);}
	.st92{clip-path:url(#SVGID_00000088854466996951721010000005922559638535999872_);}
	.st93{clip-path:url(#SVGID_00000018953401868710648110000008326861658122019715_);}
	.st94{clip-path:url(#SVGID_00000123435147481960904330000015079390607958096543_);}
	.st95{clip-path:url(#SVGID_00000060012225617606919030000009937259216489301905_);}
	.st96{clip-path:url(#SVGID_00000139254578880869448090000008351710060217251991_);}
	.st97{clip-path:url(#SVGID_00000169532759627979705340000000170068000208819864_);}
	.st98{clip-path:url(#SVGID_00000035500822674852521190000015794907105422487723_);}
	.st99{clip-path:url(#SVGID_00000103956869914496119550000001662607552894134181_);}
	.st100{clip-path:url(#SVGID_00000090984933025472125850000009396434145501136555_);}
	.st101{clip-path:url(#SVGID_00000089549338927909525480000015424247881261023107_);}
	.st102{clip-path:url(#SVGID_00000165206890208937150670000005579763226938475700_);}
	.st103{clip-path:url(#SVGID_00000127731648333212008080000007463673585286631612_);}
	.st104{clip-path:url(#SVGID_00000081635418485898652570000016229366808685128348_);}
	.st105{clip-path:url(#SVGID_00000116938578681022718060000017869830273409499019_);}
	.st106{clip-path:url(#SVGID_00000036946286390181073160000012772224149875863709_);}
	.st107{clip-path:url(#SVGID_00000090264744804847077220000006253317987226060453_);}
	.st108{clip-path:url(#SVGID_00000029014779239643941900000014176541165451489670_);}
	.st109{clip-path:url(#SVGID_00000030457589381436867580000012991907740408962447_);}
	.st110{clip-path:url(#SVGID_00000076599991115331072530000006400351040377837223_);}
	.st111{clip-path:url(#SVGID_00000134234512884094846810000001343814725510557865_);}
	.st112{clip-path:url(#SVGID_00000132057610895253132170000001085052973935091126_);}
	.st113{clip-path:url(#SVGID_00000029764163693647945490000000781658408407736714_);}
	.st114{clip-path:url(#SVGID_00000169529122757962245520000001807164770025527999_);}
	.st115{fill:#FFFFFF;stroke:#000000;stroke-miterlimit:10;}
	.st116{clip-path:url(#SVGID_00000147918427130058826500000016448907203032239755_);}
	.st117{clip-path:url(#SVGID_00000089555866618709279260000009431093114423592090_);}
	.st118{fill:none;stroke:#010101;stroke-miterlimit:10;}
	.st119{fill:#010101;stroke:#000000;stroke-miterlimit:10;}
	.st120{clip-path:url(#SVGID_00000100365603238314122790000007037876360666374290_);}
	.st121{fill:#010101;stroke:#010101;stroke-miterlimit:10;}
	.st122{clip-path:url(#SVGID_00000023972090203476976070000004459359061233113249_);}
	.st123{clip-path:url(#SVGID_00000172417343120950076620000012188822508429979783_);}
	.st124{clip-path:url(#SVGID_00000000916220604928586070000009939080801485790900_);}
	.st125{clip-path:url(#SVGID_00000009561075821289689280000006126732026994155172_);}
	.st126{clip-path:url(#SVGID_00000080926769965610383780000009320955158671709115_);}
	.st127{fill:none;stroke:#000000;stroke-width:3;stroke-miterlimit:10;}
	.st128{clip-path:url(#SVGID_00000017508633288828336550000002118179156000472459_);}
	.st129{clip-path:url(#SVGID_00000104704631220752807370000003335902555523414967_);}
	.st130{clip-path:url(#SVGID_00000121256672081091939960000003968247803851803836_);}
	.st131{clip-path:url(#SVGID_00000086653713922901278480000016386603542866959289_);}
	.st132{fill:#040606;}
	.st133{clip-path:url(#SVGID_00000007399391633981799700000013566993486558502066_);}
	.st134{clip-path:url(#SVGID_00000013876550076967385140000012822476450604676488_);}
	.st135{clip-path:url(#SVGID_00000006675461559349567200000004782098099656369855_);}
	.st136{clip-path:url(#SVGID_00000031186552920280661760000001999230822999611030_);}
	.st137{clip-path:url(#SVGID_00000018222311247914776170000007542354730437750685_);}
	.st138{clip-path:url(#SVGID_00000060024342545698187220000014273297693096712365_);}
	.st139{clip-path:url(#SVGID_00000001664110344427117650000001963466513437337238_);}
	.st140{fill:#FFFFFF;stroke:#000000;stroke-width:1.5;stroke-miterlimit:10;}
	.st141{clip-path:url(#SVGID_00000011018438933476764590000001516131116436699833_);}
	.st142{fill:#BDBCBC;}
	.st143{clip-path:url(#SVGID_00000018236327872526670440000014464255518893724557_);}
	.st144{fill:#2E2A2B;}
	.st145{clip-path:url(#SVGID_00000078744639121902090820000006911475284225416576_);}
	.st146{clip-path:url(#SVGID_00000116918990517093143090000005991905310727515839_);}
	.st147{clip-path:url(#SVGID_00000011003891088911963390000003381387571334666370_);}
	.st148{clip-path:url(#SVGID_00000149378396195963373850000016546729093469571978_);}
	.st149{clip-path:url(#SVGID_00000005987899161330926110000001297126252245460655_);}
	.st150{fill:#272324;}
	.st151{clip-path:url(#SVGID_00000143595380831333919870000007311891117653745577_);}
	.st152{clip-path:url(#SVGID_00000171001105091721485970000010276666733251316608_);}
	.st153{clip-path:url(#SVGID_00000114773036496641318300000008842634646426229909_);}
	.st154{clip-path:url(#SVGID_00000013913052957144534180000011466510667461172103_);}
	.st155{clip-path:url(#SVGID_00000175281751271007894730000007122133343780369069_);}
	.st156{clip-path:url(#SVGID_00000002372196620592993710000000462303546699386300_);}
	.st157{fill:none;stroke:#000000;stroke-width:0.8735;stroke-linecap:round;stroke-linejoin:round;stroke-miterlimit:10;}
	.st158{clip-path:url(#SVGID_00000079466895175223511890000000867611150780402054_);}
	.st159{clip-path:url(#SVGID_00000021104823609416442420000007454667106861633155_);}
	.st160{clip-path:url(#SVGID_00000021801665935500195090000015752887698959922308_);}
	.st161{clip-path:url(#SVGID_00000119100329230942700810000006482885394272566921_);}
	.st162{clip-path:url(#SVGID_00000138557705507821751380000011863875762801555111_);}
	.st163{clip-path:url(#SVGID_00000053532213634234929320000015584014846493753233_);}
	.st164{clip-path:url(#SVGID_00000059995031443988486000000002685651603888271754_);}
	.st165{clip-path:url(#SVGID_00000080196361220291931370000004712747543195203971_);}
	.st166{clip-path:url(#SVGID_00000106146924076011198240000007245301433721685926_);}
	.st167{clip-path:url(#SVGID_00000088094950169278834750000017636755487789940671_);}
	.st168{clip-path:url(#SVGID_00000044863519977725256870000012016228702666262947_);}
	.st169{clip-path:url(#SVGID_00000005262037372922980170000004884727592449583793_);}
	.st170{clip-path:url(#SVGID_00000100353102881975604540000016249412001183992235_);}
	.st171{clip-path:url(#SVGID_00000109031359104031589260000008787085750693236140_);}
	.st172{clip-path:url(#SVGID_00000039837486990543392300000001837762047552694195_);}
	.st173{clip-path:url(#SVGID_00000036230461539017916500000009919015639812935041_);}
	.st174{clip-path:url(#SVGID_00000096060906685041571410000016182102389924258991_);}
	.st175{clip-path:url(#SVGID_00000008829420295556716290000015383959132820843963_);}
	.st176{clip-path:url(#SVGID_00000162336924061354837580000006462252194972845221_);}
	.st177{clip-path:url(#SVGID_00000098215488391907206560000015705774718700525723_);}
	.st178{clip-path:url(#SVGID_00000041285434540724122430000006464603973853567160_);}
	.st179{clip-path:url(#SVGID_00000082355387466381575710000002112871694248123271_);}
	.st180{clip-path:url(#SVGID_00000129902001468239366870000016875030118888626348_);}
	.st181{clip-path:url(#SVGID_00000151530612603337241340000002240398887464305815_);}
	.st182{clip-path:url(#SVGID_00000049921031760116854820000008224268824702865301_);}
	.st183{clip-path:url(#SVGID_00000140723086864125619840000017332785951392057767_);}
	.st184{clip-path:url(#SVGID_00000106856966526338405700000013415178209478099391_);}
	.st185{clip-path:url(#SVGID_00000016797369489730849790000014547240339667351685_);}
	.st186{clip-path:url(#SVGID_00000182488951341803319600000002893478978078391174_);}
	.st187{clip-path:url(#SVGID_00000125588853447815941980000015504454386361332393_);}
	.st188{clip-path:url(#SVGID_00000110458788832444954470000008284199963162711974_);}
	.st189{clip-path:url(#SVGID_00000020376849943348807420000010122869109124613549_);}
	.st190{clip-path:url(#SVGID_00000083087326555187164480000008987930637203038080_);}
	.st191{clip-path:url(#SVGID_00000016048141741223716510000000560635052406462601_);}
	.st192{clip-path:url(#SVGID_00000067941795658250471300000008715100588648508315_);}
	.st193{clip-path:url(#SVGID_00000036221594893334346580000009263120255307709580_);}
	.st194{clip-path:url(#SVGID_00000029043958549462653830000009684412122505523621_);}
	.st195{clip-path:url(#SVGID_00000090261912368421036670000003420913497351305091_);}
	.st196{fill:#E5E5E5;}
	.st197{fill:#1D1D1B;}
	.st198{fill:none;stroke:#000000;stroke-miterlimit:10;}
	.st199{fill:#FEFEFE;stroke:#000000;stroke-miterlimit:10;}
	.st200{clip-path:url(#SVGID_00000181775256535236109070000013632265511539005835_);}
	.st201{clip-path:url(#SVGID_00000109737744097922584170000015736549493438407334_);}
	.st202{clip-path:url(#SVGID_00000089565238945574119890000001506358886450728338_);}
	.st203{fill:#231F1F;}
	.st204{fill:#020000;}
	.st205{clip-path:url(#SVGID_00000133493745372245656800000009370030355043004847_);}
	.st206{clip-path:url(#SVGID_00000016796269017312312090000002324213049843317901_);}
	.st207{clip-path:url(#SVGID_00000098927965372974645740000008920593453984486044_);}
	.st208{clip-path:url(#SVGID_00000024680388815767287330000009608705907079980943_);}
	.st209{fill:#050000;}
	.st210{clip-path:url(#SVGID_00000073722984597710784240000017349181318989711021_);}
	.st211{clip-path:url(#SVGID_00000127025596001646174230000009673208211643022214_);}
	.st212{clip-path:url(#SVGID_00000183217005089729808280000007245125002755657626_);}
	.st213{clip-path:url(#SVGID_00000101090567016282951390000012897068369746209436_);}
	.st214{clip-path:url(#SVGID_00000166655097285736755070000003413459142989283770_);}
	.st215{clip-path:url(#SVGID_00000152229431874709423190000008623826943757630108_);}
	.st216{fill:#12100F;}
	.st217{clip-path:url(#SVGID_00000028306470016625580210000015085254787350819514_);}
	.st218{clip-path:url(#SVGID_00000113334474768489032280000014859298073315069318_);}
	.st219{fill:none;stroke:#000000;stroke-width:0.5;stroke-miterlimit:10;}
	.st220{clip-path:url(#SVGID_00000088828631752435191330000009420126355739875762_);}
	.st221{clip-path:url(#SVGID_00000112596892585869240740000009405944514381339570_);}
	.st222{clip-path:url(#SVGID_00000016781238650194946670000018187055117990212250_);}
	.st223{clip-path:url(#SVGID_00000035492133369641020480000015751737572895389329_);}
	.st224{fill:none;stroke:#000000;stroke-width:0.25;stroke-miterlimit:10;}
	.st225{clip-path:url(#SVGID_00000155144155282887682320000006043467137386786487_);}
	.st226{clip-path:url(#SVGID_00000084527937445026758390000009432152266642127028_);}
	.st227{clip-path:url(#SVGID_00000179642422000624491940000003569827236198435741_);}
</style>
<g>
	<path d="M40.14,26.35c0.54-0.36,0.82-0.99,0.72-1.63c-0.08-0.52-0.37-0.95-0.81-1.21c1.26-0.73,1.01-2.69-0.39-3.07l-2.15-0.61
		l-0.22-1.83c-0.01-0.06-0.04-0.11-0.09-0.15c-0.1-0.08-8.29-2.43-8.39-2.48c-0.05-0.02-0.1-0.01-0.15,0.01l-2.69,1.19l-2.5-0.71
		c-0.48-0.14-1-0.06-1.42,0.22L9.18,24.58c-1.04,0.63-0.99,2.28,0.06,2.86c-1.05,0.59-1.09,2.19-0.08,2.83
		c-1.02,0.64-0.95,2.27,0.09,2.84c-1.27,0.74-1.01,2.7,0.41,3.08c0.02,0.01,10.83,3.07,10.85,3.07l5.32,1.51
		c0.48,0.13,1,0.06,1.42-0.22l12.88-8.5c1.04-0.63,0.99-2.28-0.07-2.85C41.12,28.59,41.15,27,40.14,26.35z M39.88,25.99L27,34.49
		c-0.28,0.18-0.61,0.25-0.95,0.18c-0.04-0.01-0.07-0.01-0.1-0.02l-5.31-1.5c-0.05-0.01-0.09-0.03-0.14-0.05
		c-0.91-0.33-1.06-1.67-0.22-2.18l0.32-0.22l5.23,1.48c0.23,0.06,0.46,0.08,0.7,0.04c0.26-0.03,0.5-0.13,0.72-0.27l12.37-8.17
		C40.56,24.11,40.73,25.48,39.88,25.99z M19.5,35.59l-3.29-0.92c-1.14-0.34-1.22-1.82-0.16-2.35l3.86,1.09
		c-0.04,0.03-0.08,0.06-0.11,0.1C19.21,34.02,19.11,34.94,19.5,35.59z M19.5,29.92l-3.29-0.93c-1.01-0.26-1.24-1.67-0.35-2.22
		l10.46-6.9l3.26-0.4l0.54,1.51l-10.09,6.67C19.28,28.11,19.04,29.17,19.5,29.92z M15.86,29.67l0.32-0.21
		c0.94,0.27,2.92,0.83,3.85,1.09c-0.76,0.47-0.98,1.52-0.52,2.27l-3.29-0.93C15.21,31.63,14.96,30.22,15.86,29.67z M37.32,20.25
		l2.22,0.63c0.48,0.14,0.81,0.53,0.88,1.01c0.07,0.48-0.13,0.93-0.55,1.21L27,31.59c-0.31,0.2-0.69,0.26-1.06,0.17l-5.32-1.51
		c-1-0.25-1.25-1.67-0.36-2.22l10-6.6l0.46,1.31c0.03,0.09,0.12,0.15,0.21,0.15c0.03,0,0.06-0.01,0.09-0.02L37.32,20.25z
		 M37.06,19.86l-5.97,2.49l-1.05-2.95l6.84-1.11L37.06,19.86z M36.06,17.97l-6.16,1c-0.19-0.71-0.63-2.33-0.83-3.05L36.06,17.97z
		 M26.14,16.98l2.45-1.08l0.06,0.23l0.79,2.9l-0.09,0.01l-4.58,0.55L26.14,16.98z M8.88,26.17c-0.08-0.48,0.13-0.94,0.55-1.21
		l12.87-8.5c0.31-0.2,0.69-0.26,1.05-0.16l2.31,0.65l-1.47,2.82c-0.09,0.15,0.05,0.35,0.23,0.33l0.9-0.11l-9.7,6.41
		c-0.76,0.48-0.98,1.53-0.51,2.29l-5.32-1.51C9.3,27.04,8.95,26.65,8.88,26.17z M8.87,29.01c-0.05-0.47,0.15-0.9,0.55-1.16
		l0.32-0.21c0.49,0.14,5.23,1.48,5.85,1.65c-0.74,0.48-0.98,1.54-0.5,2.28l-5.33-1.51C9.29,29.93,8.93,29.52,8.87,29.01z
		 M8.88,31.85c-0.1-0.58,0.24-1.07,0.74-1.35c0.02,0.01,5.83,1.65,5.86,1.66c-0.66,0.51-0.83,1.5-0.39,2.2
		c-0.96-0.27-4.3-1.21-5.31-1.51C9.3,32.72,8.95,32.33,8.88,31.85z M9.78,35.75c-1.01-0.26-1.25-1.67-0.36-2.22l0.32-0.21
		c1.46,0.41,4.41,1.25,5.85,1.65c-0.74,0.48-0.98,1.54-0.5,2.28L9.78,35.75z M16.21,37.56c-0.48-0.13-0.82-0.52-0.9-1.01
		c-0.08-0.47,0.14-0.96,0.55-1.21l0.32-0.21c0.77,0.22,3.12,0.88,3.85,1.09c-0.76,0.48-0.98,1.51-0.52,2.27L16.21,37.56z
		 M40.42,30.46c0.07,0.48-0.13,0.93-0.55,1.21L27,40.16c-0.31,0.2-0.69,0.26-1.06,0.17l-5.31-1.5c-1.01-0.24-1.26-1.67-0.36-2.22
		l0.32-0.22l5.23,1.48c0.16,0.04,0.32,0.06,0.48,0.06c0.34,0,0.66-0.1,0.94-0.28l12.37-8.17C40.05,29.63,40.35,30,40.42,30.46z
		 M39.88,28.77L27,37.26c-0.08,0.06-0.17,0.1-0.27,0.13c-0.25,0.09-0.53,0.1-0.78,0.03l-5.32-1.51c-1.14-0.35-1.22-1.83-0.15-2.35
		c0.03,0.01,5.33,1.51,5.36,1.51c0.23,0.06,0.46,0.08,0.7,0.04c0.26-0.03,0.5-0.13,0.72-0.27l12.47-8.23
		c0.39,0.18,0.65,0.55,0.7,0.98C40.48,28.08,40.28,28.5,39.88,28.77z"/>
</g>
</svg>
