<?xml version="1.0" encoding="utf-8"?>
<!-- Generator: Adobe Illustrator 27.3.1, SVG Export Plug-In . SVG Version: 6.00 Build 0)  -->
<svg version="1.1" id="Layer_1" xmlns="http://www.w3.org/2000/svg" xmlns:xlink="http://www.w3.org/1999/xlink" x="0px" y="0px"
	 viewBox="0 0 50 50" style="enable-background:new 0 0 50 50;" xml:space="preserve">
<style type="text/css">
	.st0{fill:none;}
	.st1{stroke:#000000;stroke-miterlimit:10;}
	.st2{stroke:#000000;stroke-width:0.75;stroke-miterlimit:10;}
	.st3{clip-path:url(#SVGID_00000025437620280866631490000016393468973472150167_);}
	.st4{clip-path:url(#SVGID_00000148632217924053349320000002852054059111226018_);}
	.st5{fill:#FFFFFF;}
	.st6{clip-path:url(#SVGID_00000059995642548888737430000018364382628645722793_);}
	.st7{fill:#231F20;}
	.st8{clip-path:url(#SVGID_00000137817506622021539560000002485121493789564589_);}
	.st9{clip-path:url(#SVGID_00000111176983577854034810000005494106696392617384_);}
	.st10{clip-path:url(#SVGID_00000071539529835656906890000015288826033175400886_);}
	.st11{clip-path:url(#SVGID_00000174603959508736622530000011160405360631230604_);}
	.st12{clip-path:url(#SVGID_00000025439606428447670660000001452772961759698079_);}
	.st13{clip-path:url(#SVGID_00000076581196674801917440000016880649112446472098_);}
	.st14{clip-path:url(#SVGID_00000147200368198612400940000009975717512986345904_);}
	.st15{clip-path:url(#SVGID_00000047762827780125558290000013432484093980687259_);}
	.st16{clip-path:url(#SVGID_00000142889207477249912090000011715296547009832869_);}
	.st17{clip-path:url(#SVGID_00000133506477961587779180000014826049276283775135_);}
	.st18{clip-path:url(#SVGID_00000129916386405226894760000002172468827256196030_);}
	.st19{clip-path:url(#SVGID_00000013186946621710539520000000399515581662633615_);}
	.st20{clip-path:url(#SVGID_00000023255126363185602000000000339764101113065380_);}
	.st21{clip-path:url(#SVGID_00000075159814601494369250000016321982978059192480_);}
	.st22{clip-path:url(#SVGID_00000090977537451790627610000016268424747298979489_);}
	.st23{clip-path:url(#SVGID_00000173129807565801523290000016054878764366695305_);}
	.st24{clip-path:url(#SVGID_00000010305019413928959460000001134122839635458211_);}
	.st25{clip-path:url(#SVGID_00000048467273487025877970000002930280111195142307_);}
	.st26{clip-path:url(#SVGID_00000034808034470493471400000007417172120849348010_);}
	.st27{clip-path:url(#SVGID_00000051378628374167876380000003577080644970136499_);}
	.st28{clip-path:url(#SVGID_00000005989420514616306660000016089819821848473774_);}
	.st29{clip-path:url(#SVGID_00000134949616300930067420000016095709839256791206_);}
	.st30{clip-path:url(#SVGID_00000154414505627991596620000015170560473929124790_);}
	.st31{fill-rule:evenodd;clip-rule:evenodd;}
	.st32{clip-path:url(#SVGID_00000059310733274906610360000003421985987091739524_);}
	.st33{clip-path:url(#SVGID_00000031917729372406840850000015813841022952298915_);}
	.st34{stroke:#000000;stroke-width:0.5;stroke-miterlimit:10;}
	.st35{clip-path:url(#SVGID_00000157992896667812831930000004867132450617634966_);}
	.st36{clip-path:url(#SVGID_00000127765722300784137930000016013417734781991556_);}
	.st37{clip-path:url(#SVGID_00000061464476760228069990000013775323724565829521_);}
	.st38{fill:#1A1A1A;}
	.st39{clip-path:url(#SVGID_00000063609628890816274900000012436792888482063506_);}
	.st40{clip-path:url(#SVGID_00000067200418932713357740000000132657267879245743_);}
	.st41{clip-path:url(#SVGID_00000008831215480629014230000011212378531863371410_);}
	.st42{clip-path:url(#SVGID_00000041263279662407306290000000073771151243536298_);}
	.st43{clip-path:url(#SVGID_00000176765945265591972010000000662934652025242258_);}
	.st44{clip-path:url(#SVGID_00000000925466360449301980000000122588709557329305_);}
	.st45{clip-path:url(#SVGID_00000153668986397497110300000012017740277685145269_);}
	.st46{clip-path:url(#SVGID_00000115481320488159993350000010268659979457928873_);}
	.st47{clip-path:url(#SVGID_00000029023645945407480120000007582777260073310911_);}
	.st48{fill:#F1F1F1;}
	.st49{fill:#E8E8E8;}
	.st50{fill:#FEFEFE;}
	.st51{fill:#CCCCCC;}
	.st52{fill:#B3B3B3;}
	.st53{fill:#E6E6E6;}
	.st54{fill:#EBEBEB;}
	.st55{fill:#EEEEEE;}
	.st56{fill:#F8F8F8;}
	.st57{fill:#FBFBFB;}
	.st58{fill:#383838;}
	.st59{fill:#232323;}
	.st60{fill:#F6F6F6;}
	.st61{fill:#535353;}
	.st62{fill:#0A0A0A;}
	.st63{fill:#F5F5F5;}
	.st64{fill:#818181;}
	.st65{fill:#4A4A4A;}
	.st66{fill:#999999;}
	.st67{fill:url(#SVGID_00000174562248186099560660000007128143474947839660_);}
	.st68{fill:url(#SVGID_00000005264241830293525540000003051788645989643423_);}
	.st69{fill:#0E0E0D;}
	.st70{fill:#333333;}
	.st71{fill:#808080;}
	.st72{fill:url(#SVGID_00000155838560148467012050000010903361108118792578_);}
	.st73{fill:#666666;}
	.st74{fill:url(#SVGID_00000044857699322876939870000008229740248075612329_);}
	.st75{fill:url(#SVGID_00000064335218149292834910000007020371236036515515_);}
	.st76{fill:url(#SVGID_00000158018352102423739580000003052626213137943467_);}
	.st77{fill:url(#SVGID_00000060733430586097157290000012807416490080805305_);}
	.st78{fill:url(#SVGID_00000003798986185064583430000011485536896928712351_);}
	.st79{clip-path:url(#SVGID_00000087414826526394333050000001847721292461672604_);}
	.st80{clip-path:url(#SVGID_00000142855217651974125990000015825448991163918727_);}
	.st81{clip-path:url(#SVGID_00000018196046505637431630000006027224365397515151_);}
	.st82{clip-path:url(#SVGID_00000059284981413291250690000010381746655186741393_);}
	.st83{clip-path:url(#SVGID_00000068666272919477792940000012219027199410773140_);}
	.st84{fill:#241F20;stroke:#000000;stroke-width:0.5;stroke-miterlimit:10;}
	.st85{clip-path:url(#SVGID_00000112614224156351323340000008860267966682842010_);}
	.st86{clip-path:url(#SVGID_00000075859127100896560370000007038721298015912881_);}
	.st87{clip-path:url(#SVGID_00000074425424876601425130000013216694998777166236_);}
	.st88{clip-path:url(#SVGID_00000027590507863583285480000013105298597587311244_);}
	.st89{clip-path:url(#SVGID_00000091005741938228844960000002363467378306239931_);}
	.st90{clip-path:url(#SVGID_00000155104125307286078350000011161504827008610463_);}
	.st91{clip-path:url(#SVGID_00000054224972165599454830000016914260946920958100_);}
	.st92{clip-path:url(#SVGID_00000039847020269595767040000009647541768801163417_);}
	.st93{clip-path:url(#SVGID_00000097461612718498953820000017550828729192574100_);}
	.st94{clip-path:url(#SVGID_00000119098327006826154460000014465117422828460436_);}
	.st95{clip-path:url(#SVGID_00000057856040239234452520000008480767270091794570_);}
	.st96{clip-path:url(#SVGID_00000116950272302150687210000013490124669408805046_);}
	.st97{clip-path:url(#SVGID_00000177456468075666553900000011166266160294165411_);}
	.st98{clip-path:url(#SVGID_00000028324540732193289540000001313260399221238931_);}
	.st99{clip-path:url(#SVGID_00000156573573141198024030000017654749378955797674_);}
	.st100{clip-path:url(#SVGID_00000009570559840526454300000006597508986219453354_);}
	.st101{clip-path:url(#SVGID_00000108269934371383946280000003717114987243702162_);}
	.st102{clip-path:url(#SVGID_00000063599417100648193840000008059858342329207208_);}
	.st103{clip-path:url(#SVGID_00000157290956641599712980000011457075631342436539_);}
	.st104{clip-path:url(#SVGID_00000001638405390612682230000009569586512998146192_);}
	.st105{clip-path:url(#SVGID_00000043454463418138985120000011022060236167932821_);}
	.st106{clip-path:url(#SVGID_00000053517520326879745880000010204440143419209349_);}
	.st107{clip-path:url(#SVGID_00000039856598226321792480000002802414016040098459_);}
	.st108{clip-path:url(#SVGID_00000026841751238373785490000013352894785574106791_);}
	.st109{clip-path:url(#SVGID_00000062158144914480686740000008808174588940178099_);}
	.st110{clip-path:url(#SVGID_00000050623331907255709620000013572709856912491696_);}
	.st111{clip-path:url(#SVGID_00000004539274263431041130000004509887443335699630_);}
	.st112{clip-path:url(#SVGID_00000114785153581071316150000013155726780999339941_);}
	.st113{clip-path:url(#SVGID_00000152250146760802804090000005660588806682802623_);}
	.st114{clip-path:url(#SVGID_00000146465058676499751790000012958904857768278446_);}
	.st115{fill:#FFFFFF;stroke:#000000;stroke-miterlimit:10;}
	.st116{clip-path:url(#SVGID_00000026140503581570290090000006164109326343090816_);}
	.st117{clip-path:url(#SVGID_00000102512606749775276910000002238428498328250022_);}
	.st118{fill:none;stroke:#010101;stroke-miterlimit:10;}
	.st119{fill:#010101;stroke:#000000;stroke-miterlimit:10;}
	.st120{clip-path:url(#SVGID_00000140736074357948998930000008713615554513273759_);}
	.st121{fill:#010101;stroke:#010101;stroke-miterlimit:10;}
	.st122{clip-path:url(#SVGID_00000054260876214186492300000006863987589495181198_);}
	.st123{clip-path:url(#SVGID_00000023959556529788860730000016717701318828417421_);}
	.st124{clip-path:url(#SVGID_00000097493102125957145340000005385106410570671039_);}
	.st125{clip-path:url(#SVGID_00000008107175335123060940000015253914367835689879_);}
	.st126{clip-path:url(#SVGID_00000091703378470002558630000013642490797738775438_);}
	.st127{fill:none;stroke:#000000;stroke-width:3;stroke-miterlimit:10;}
	.st128{clip-path:url(#SVGID_00000088821602425992155650000017349684030183028872_);}
	.st129{clip-path:url(#SVGID_00000040536071397468143220000000591743457582970556_);}
	.st130{clip-path:url(#SVGID_00000145020087255976872320000016230147186468661654_);}
	.st131{clip-path:url(#SVGID_00000095313603129199299610000003182653101700533919_);}
	.st132{fill:#040606;}
	.st133{clip-path:url(#SVGID_00000168109070894802708510000010386575616187143815_);}
	.st134{clip-path:url(#SVGID_00000041262584101973504470000006089133031869127352_);}
	.st135{clip-path:url(#SVGID_00000031179246688101019820000015414808304509577142_);}
	.st136{clip-path:url(#SVGID_00000032606524858915023900000010186625574609088651_);}
	.st137{clip-path:url(#SVGID_00000138560269671436497320000002669569783595159724_);}
	.st138{clip-path:url(#SVGID_00000102515529996456769000000001566854564196454581_);}
	.st139{clip-path:url(#SVGID_00000017487669928315549410000001194194391082006701_);}
	.st140{fill:#FFFFFF;stroke:#000000;stroke-width:1.5;stroke-miterlimit:10;}
	.st141{clip-path:url(#SVGID_00000142886421847052551390000012317652374343308179_);}
	.st142{fill:#BDBCBC;}
	.st143{clip-path:url(#SVGID_00000106144943144138839900000002547973427490916760_);}
	.st144{fill:#2E2A2B;}
	.st145{clip-path:url(#SVGID_00000182499940115350819650000001273927917471355806_);}
	.st146{clip-path:url(#SVGID_00000088855978874571930430000017019449690963341495_);}
	.st147{clip-path:url(#SVGID_00000175291608142664794640000001405158979750213273_);}
	.st148{clip-path:url(#SVGID_00000094618908399167599320000009080185340623479986_);}
	.st149{clip-path:url(#SVGID_00000108286027500561534910000002754941628450145451_);}
	.st150{fill:#272324;}
	.st151{clip-path:url(#SVGID_00000167371021529447922880000013139570100078199712_);}
	.st152{clip-path:url(#SVGID_00000044865512111526326020000018055338739547131567_);}
	.st153{clip-path:url(#SVGID_00000069390611997865193340000005149741227708490154_);}
	.st154{clip-path:url(#SVGID_00000169551006238602220950000007441831537402851725_);}
	.st155{clip-path:url(#SVGID_00000074427643961621534560000014171014886400414130_);}
	.st156{clip-path:url(#SVGID_00000023269183859549012580000017858338881797266613_);}
	.st157{fill:none;stroke:#000000;stroke-width:0.8735;stroke-linecap:round;stroke-linejoin:round;stroke-miterlimit:10;}
	.st158{clip-path:url(#SVGID_00000017506213389668750790000008281678732968909716_);}
	.st159{clip-path:url(#SVGID_00000087391339459721838890000008821761669091102082_);}
	.st160{clip-path:url(#SVGID_00000119109134144713288480000001546045548109745291_);}
	.st161{clip-path:url(#SVGID_00000044154128185508790480000018433676689068742324_);}
	.st162{clip-path:url(#SVGID_00000156558983140733034730000005360204674542758528_);}
	.st163{clip-path:url(#SVGID_00000033335052579553613760000009677115005139450539_);}
	.st164{clip-path:url(#SVGID_00000168817305940868663360000009356089794165857462_);}
	.st165{clip-path:url(#SVGID_00000126288011861925980490000004114962056232663732_);}
	.st166{clip-path:url(#SVGID_00000101805931209136309330000003656912304481666488_);}
	.st167{clip-path:url(#SVGID_00000171698758495859412390000009138127621133362358_);}
	.st168{clip-path:url(#SVGID_00000146495282009779482980000009133376898603578527_);}
	.st169{clip-path:url(#SVGID_00000183947580517145202260000014821486268742983325_);}
	.st170{clip-path:url(#SVGID_00000112605381356867830680000001059256528484812444_);}
	.st171{clip-path:url(#SVGID_00000159436641185095682430000006054713155945988787_);}
	.st172{clip-path:url(#SVGID_00000119826768821590140300000016475454625876166798_);}
	.st173{clip-path:url(#SVGID_00000014620968309652871420000006278795957908607668_);}
	.st174{clip-path:url(#SVGID_00000119835456536149090180000014488458179570032794_);}
	.st175{clip-path:url(#SVGID_00000040565827454816267930000016081114505849807516_);}
	.st176{clip-path:url(#SVGID_00000162322134137691976110000018195129453969337490_);}
	.st177{clip-path:url(#SVGID_00000133486784061140336550000007991285758718891657_);}
	.st178{clip-path:url(#SVGID_00000175288210304832498940000013243612461625141638_);}
	.st179{clip-path:url(#SVGID_00000044899362314366923180000011795542019900265643_);}
	.st180{clip-path:url(#SVGID_00000134207280358254009470000016843607150480157072_);}
	.st181{clip-path:url(#SVGID_00000155860954090497787700000018064805912360077714_);}
	.st182{clip-path:url(#SVGID_00000054266779002706626940000001302932921181666188_);}
	.st183{clip-path:url(#SVGID_00000142896224560688170050000017625455862691439548_);}
	.st184{clip-path:url(#SVGID_00000006700769849127484870000004731963083433690271_);}
	.st185{clip-path:url(#SVGID_00000055685631467917007400000012397014200787674275_);}
	.st186{clip-path:url(#SVGID_00000039849562152321057580000011744806558043667645_);}
	.st187{clip-path:url(#SVGID_00000018916048253296187190000008200730437036961194_);}
	.st188{clip-path:url(#SVGID_00000146498448800164608080000007738690014172993971_);}
	.st189{clip-path:url(#SVGID_00000085958413133480537520000003920927449285396106_);}
	.st190{clip-path:url(#SVGID_00000029758272397333615680000017952116835981010563_);}
	.st191{clip-path:url(#SVGID_00000103223717608249840570000016732980861433716659_);}
	.st192{clip-path:url(#SVGID_00000152248410975577267720000007027443858147754671_);}
	.st193{clip-path:url(#SVGID_00000009558208032745129860000017939555650554072704_);}
	.st194{clip-path:url(#SVGID_00000149345734221056116980000007374875961785165710_);}
	.st195{clip-path:url(#SVGID_00000026842022957632831380000005843373776606758284_);}
	.st196{fill:#E5E5E5;}
	.st197{fill:#1D1D1B;}
	.st198{fill:none;stroke:#000000;stroke-miterlimit:10;}
	.st199{fill:#FEFEFE;stroke:#000000;stroke-miterlimit:10;}
	.st200{clip-path:url(#SVGID_00000138548499897691791260000016937010125620435101_);}
	.st201{clip-path:url(#SVGID_00000164480031867844643480000010912413914907102356_);}
	.st202{clip-path:url(#SVGID_00000132787064474916370340000009198101224862120370_);}
	.st203{fill:#231F1F;}
	.st204{fill:#020000;}
	.st205{clip-path:url(#SVGID_00000001648601362485489860000003482532629232650658_);}
	.st206{clip-path:url(#SVGID_00000162338088652281464970000008930334320302872749_);}
	.st207{clip-path:url(#SVGID_00000004535644647482047810000007458309093194910854_);}
	.st208{clip-path:url(#SVGID_00000049923663362412781890000011059234352410760088_);}
	.st209{fill:#050000;}
	.st210{clip-path:url(#SVGID_00000070090112956272499710000004594014155535926973_);}
	.st211{clip-path:url(#SVGID_00000178896590563859226430000005446350141396480183_);}
	.st212{clip-path:url(#SVGID_00000077323538736479228910000012697903512842344892_);}
	.st213{clip-path:url(#SVGID_00000140737014476645002150000008698314760437162137_);}
	.st214{clip-path:url(#SVGID_00000031908764489594472750000003964936997545127084_);}
	.st215{clip-path:url(#SVGID_00000093878081721409335270000014173581828498461080_);}
	.st216{fill:#12100F;}
	.st217{clip-path:url(#SVGID_00000095317896731061394760000000476864015009787806_);}
	.st218{clip-path:url(#SVGID_00000016797629058021532930000016827166526455900290_);}
	.st219{fill:none;stroke:#000000;stroke-width:0.5;stroke-miterlimit:10;}
	.st220{clip-path:url(#SVGID_00000034811186507399170390000000721417829204232358_);}
	.st221{clip-path:url(#SVGID_00000137853189269758424920000012856361944858725025_);}
	.st222{clip-path:url(#SVGID_00000098919928860412601060000015007731295936707494_);}
	.st223{clip-path:url(#SVGID_00000111185432172668759370000004790900265319288742_);}
	.st224{fill:none;stroke:#000000;stroke-width:0.25;stroke-miterlimit:10;}
	.st225{clip-path:url(#SVGID_00000120557360221558167530000006957504096242866361_);}
	.st226{clip-path:url(#SVGID_00000170960478028210410820000006991302554991647420_);}
	.st227{clip-path:url(#SVGID_00000091717039254819081670000003481582227257017237_);}
</style>
<g>
	<g>
		<defs>
			<rect id="SVGID_00000078760362764547145260000008619474621072732345_" x="11.83" y="15.42" width="19.36" height="24.77"/>
		</defs>
		<clipPath id="SVGID_00000078029195254192517860000014906681120505081516_">
			<use xlink:href="#SVGID_00000078760362764547145260000008619474621072732345_"  style="overflow:visible;"/>
		</clipPath>
		<g style="clip-path:url(#SVGID_00000078029195254192517860000014906681120505081516_);">
			<path class="st5" d="M30.43,39.65H12.05V15.56h18.39V39.65"/>
		</g>
	</g>
	<g>
		<defs>
			<rect id="SVGID_00000093874565792826557930000014063257041733986470_" x="11.83" y="14.56" width="19.36" height="25.63"/>
		</defs>
		<clipPath id="SVGID_00000162324334917369503610000013696405798534421394_">
			<use xlink:href="#SVGID_00000093874565792826557930000014063257041733986470_"  style="overflow:visible;"/>
		</clipPath>
		<g style="clip-path:url(#SVGID_00000162324334917369503610000013696405798534421394_);">
			<path class="st7" d="M30.43,39.65v-0.21H12.25V15.77h17.97v23.89H30.43v-0.21V39.65h0.2V15.56c0-0.06-0.02-0.11-0.06-0.15
				c-0.04-0.04-0.09-0.06-0.14-0.06H12.05c-0.06,0-0.11,0.02-0.15,0.06c-0.04,0.04-0.06,0.09-0.06,0.15v24.09
				c0,0.05,0.02,0.11,0.06,0.15c0.04,0.04,0.09,0.06,0.15,0.06h18.39c0.05,0,0.11-0.02,0.14-0.06c0.04-0.04,0.06-0.09,0.06-0.15
				H30.43"/>
		</g>
	</g>
	<path class="st5" d="M30.43,39.65l2.95-3.51V12.05l-2.95,3.51V39.65"/>
	<g>
		<defs>
			<rect id="SVGID_00000172398971526681069280000013466914241403836313_" x="29.48" y="11.82" width="4.27" height="28.37"/>
		</defs>
		<clipPath id="SVGID_00000114753525811905714590000013189908678065884293_">
			<use xlink:href="#SVGID_00000172398971526681069280000013466914241403836313_"  style="overflow:visible;"/>
		</clipPath>
		<g style="clip-path:url(#SVGID_00000114753525811905714590000013189908678065884293_);">
			<path class="st7" d="M30.43,39.65l0.16,0.13l2.95-3.51c0.03-0.04,0.05-0.09,0.05-0.13V12.05c0-0.09-0.06-0.17-0.14-0.2
				c-0.08-0.03-0.17-0.01-0.23,0.06l-2.95,3.51c-0.03,0.04-0.05,0.08-0.05,0.13v24.09c0,0.09,0.05,0.16,0.14,0.19
				c0.08,0.03,0.17,0.01,0.23-0.06L30.43,39.65h0.2V15.64l2.54-3.02v23.45l-2.9,3.45L30.43,39.65h0.2H30.43"/>
		</g>
	</g>
	<g>
		<defs>
			<rect id="SVGID_00000033333655251344814220000017092191486348998055_" x="11.83" y="12" width="21.92" height="4.27"/>
		</defs>
		<clipPath id="SVGID_00000081618770833555686790000006715855906506893487_">
			<use xlink:href="#SVGID_00000033333655251344814220000017092191486348998055_"  style="overflow:visible;"/>
		</clipPath>
		<g style="clip-path:url(#SVGID_00000081618770833555686790000006715855906506893487_);">
			<path class="st5" d="M33.39,12.14h-17.3l-4.04,3.42h18.39L33.39,12.14"/>
		</g>
	</g>
	<g>
		<defs>
			<rect id="SVGID_00000134240612517673634680000006170824556942413724_" x="11.83" y="11.82" width="21.92" height="4.45"/>
		</defs>
		<clipPath id="SVGID_00000137854049023267479290000017337872948293286078_">
			<use xlink:href="#SVGID_00000134240612517673634680000006170824556942413724_"  style="overflow:visible;"/>
		</clipPath>
		<g style="clip-path:url(#SVGID_00000137854049023267479290000017337872948293286078_);">
			<path class="st7" d="M33.39,12.14v-0.21h-17.3c-0.05,0-0.1,0.02-0.13,0.05l-4.04,3.42c-0.07,0.06-0.09,0.15-0.06,0.23
				c0.03,0.08,0.11,0.14,0.19,0.14h18.39c0.06,0,0.12-0.03,0.15-0.07l2.95-3.42c0.05-0.06,0.07-0.15,0.03-0.22
				c-0.03-0.07-0.11-0.12-0.19-0.12V12.14L33.23,12l-2.89,3.35H12.61l3.55-3.01h17.22V12.14L33.23,12L33.39,12.14"/>
		</g>
	</g>
	<path class="st5" d="M33.39,12.14h-17.3L14,13.9h4.5l0.68,0.7h4.97l0.88-0.7h4.27L33.39,12.14"/>
	<g>
		<defs>
			<rect id="SVGID_00000018949986726002418490000014037306368151751570_" x="13.25" y="11.82" width="20.5" height="3.6"/>
		</defs>
		<clipPath id="SVGID_00000093177945597953502100000001209700773423104402_">
			<use xlink:href="#SVGID_00000018949986726002418490000014037306368151751570_"  style="overflow:visible;"/>
		</clipPath>
		<g style="clip-path:url(#SVGID_00000093177945597953502100000001209700773423104402_);">
			<path class="st7" d="M33.39,12.14v-0.21h-17.3c-0.05,0-0.1,0.02-0.13,0.05l-2.09,1.77c-0.07,0.06-0.09,0.15-0.06,0.23
				c0.03,0.08,0.11,0.14,0.19,0.14h4.42l0.62,0.63c0.04,0.04,0.09,0.06,0.15,0.06h4.97c0.04,0,0.09-0.02,0.13-0.05l0.82-0.65h4.2
				c0.03,0,0.06-0.01,0.08-0.02l4.09-1.77c0.09-0.04,0.14-0.14,0.12-0.23c-0.02-0.1-0.1-0.17-0.2-0.17V12.14l-0.08-0.19l-4.05,1.76
				h-4.23c-0.04,0-0.09,0.02-0.13,0.04l-0.82,0.65h-4.8l-0.62-0.63c-0.04-0.04-0.09-0.06-0.15-0.06h-3.94l1.6-1.35h17.22V12.14
				l-0.08-0.19L33.39,12.14"/>
		</g>
	</g>
	<g>
		<defs>
			<rect id="SVGID_00000008838147246569543790000004067074397814759062_" x="11.83" y="18.84" width="19.36" height="17.94"/>
		</defs>
		<clipPath id="SVGID_00000072991382160572561580000009979092515632268695_">
			<use xlink:href="#SVGID_00000008838147246569543790000004067074397814759062_"  style="overflow:visible;"/>
		</clipPath>
		<g style="clip-path:url(#SVGID_00000072991382160572561580000009979092515632268695_);">
			<path class="st5" d="M12.05,28.24v8.02l18.39-9.16v-8.02L12.05,28.24"/>
			<path class="st7" d="M12.05,28.24h-0.21v8.02c0,0.07,0.04,0.14,0.1,0.18c0.06,0.04,0.14,0.04,0.2,0.01l18.39-9.16
				c0.07-0.03,0.11-0.11,0.11-0.19v-8.02c0-0.07-0.04-0.14-0.1-0.18c-0.06-0.04-0.13-0.04-0.2-0.01l-18.39,9.16
				c-0.07,0.03-0.11,0.11-0.11,0.19H12.05l0.09,0.18l18.09-9.01v7.56l-17.97,8.95v-7.68H12.05l0.09,0.18L12.05,28.24"/>
		</g>
	</g>
	<path class="st5" d="M29.22,26.78c0,4.1-3.3,7.43-7.36,7.43c-4.07,0-7.36-3.33-7.36-7.43s3.29-7.43,7.36-7.43
		C25.92,19.35,29.22,22.67,29.22,26.78"/>
	<path class="st7" d="M29.22,26.78h-0.21c0,2-0.8,3.8-2.1,5.11C25.62,33.19,23.84,34,21.86,34c-1.98,0-3.76-0.81-5.06-2.12
		c-1.29-1.3-2.1-3.11-2.1-5.11s0.8-3.8,2.1-5.11c1.3-1.3,3.08-2.12,5.06-2.12c1.98,0,3.76,0.81,5.06,2.12
		c1.29,1.31,2.1,3.11,2.1,5.11h0.41c0-4.22-3.39-7.64-7.57-7.64c-4.18,0-7.57,3.42-7.57,7.64s3.39,7.64,7.57,7.64
		c4.18,0,7.56-3.42,7.57-7.64H29.22"/>
	<path class="st5" d="M27.68,26.78c0,3.24-2.61,5.88-5.82,5.88c-3.22,0-5.82-2.63-5.82-5.88s2.6-5.88,5.82-5.88
		C25.07,20.9,27.68,23.53,27.68,26.78"/>
	<path class="st7" d="M27.68,26.78h-0.2c0,1.56-0.63,2.98-1.65,4.01c-1.02,1.02-2.42,1.66-3.97,1.66c-1.55,0-2.95-0.64-3.97-1.66
		c-1.02-1.03-1.65-2.44-1.65-4.01s0.63-2.98,1.65-4.01c1.02-1.02,2.42-1.66,3.97-1.66c1.55,0,2.95,0.64,3.97,1.66
		c1.01,1.03,1.65,2.44,1.65,4.01h0.41c0-3.36-2.7-6.08-6.03-6.08c-3.33,0-6.03,2.72-6.03,6.08s2.7,6.08,6.03,6.08
		c3.33,0,6.03-2.72,6.03-6.08H27.68"/>
	<path class="st5" d="M30.05,25.35h6.21v-4.01h-6.21V25.35"/>
	<path class="st7" d="M30.05,25.35v0.21h6.21c0.05,0,0.11-0.02,0.14-0.06c0.04-0.04,0.06-0.09,0.06-0.15v-4.01
		c0-0.05-0.02-0.11-0.06-0.15c-0.04-0.04-0.09-0.06-0.14-0.06h-6.21c-0.05,0-0.11,0.02-0.15,0.06c-0.04,0.04-0.06,0.09-0.06,0.15
		v4.01c0,0.05,0.02,0.11,0.06,0.15c0.04,0.04,0.09,0.06,0.15,0.06V25.35h0.21v-3.8h5.8v3.59h-6.01V25.35h0.21H30.05"/>
	<path class="st5" d="M29.11,21.85c0,0,2.42-0.46,4.25-0.46c1.83,0,4.44,0.46,4.44,0.46v-2.38c0,0-1.17-0.46-4.43-0.46
		c-3.26,0-4.26,0.46-4.26,0.46V21.85"/>
	<path class="st7" d="M29.11,21.85l0.04,0.21c0,0,0.01,0,0.03-0.01c0.13-0.03,0.76-0.14,1.56-0.25c0.8-0.11,1.78-0.21,2.62-0.21
		c0.89,0,2,0.11,2.88,0.23c0.44,0.06,0.82,0.11,1.09,0.16c0.14,0.02,0.25,0.04,0.32,0.05c0.04,0.01,0.07,0.01,0.09,0.01
		c0.02,0,0.03,0.01,0.03,0.01c0.06,0.01,0.12-0.01,0.17-0.05s0.07-0.1,0.07-0.16v-2.38c0-0.08-0.05-0.16-0.13-0.19
		c-0.03-0.01-1.23-0.48-4.51-0.48c-3.28,0-4.3,0.47-4.34,0.48c-0.07,0.03-0.12,0.11-0.12,0.19v2.38c0,0.06,0.03,0.12,0.07,0.16
		c0.05,0.04,0.11,0.06,0.17,0.05L29.11,21.85h0.21v-2.38h-0.21l0.09,0.19l-0.05-0.11l0.05,0.11l-0.05-0.11l0.05,0.11h0
		c0.05-0.02,1.08-0.45,4.17-0.45c1.62,0,2.72,0.12,3.41,0.23c0.35,0.06,0.59,0.11,0.74,0.16c0.08,0.02,0.13,0.04,0.17,0.05
		c0.02,0,0.03,0.01,0.04,0.01h0.01l0.03-0.07l-0.03,0.07l0.03-0.07l-0.03,0.07l0.07-0.19h-0.2v2.38h0.2l0.04-0.2
		c0,0-0.66-0.12-1.55-0.23s-2.01-0.23-2.93-0.23c-0.93,0-2,0.12-2.84,0.23c-0.84,0.12-1.44,0.23-1.45,0.23L29.11,21.85h0.21H29.11"
		/>
	<path class="st5" d="M27.85,21.15l5.61,3.29l5.61-3.29c0,0,1.48,0.5,2.71,0.92c1.22,0.42,1.44,1.21,1.01,4.4
		c-0.42,3.19-2.04,13.26-2.16,14.06c-0.12,0.81-0.62,1.17-1.33,1.17c-0.71,0-12.41,0-13.12,0c-0.71,0-1.09-0.29-1.19-1.17
		c-0.1-0.88-1.38-12.19-1.59-14.74c-0.21-2.55,0.05-3.32,1.17-3.7C25.7,21.72,27.85,21.15,27.85,21.15"/>
	<g>
		<defs>
			<rect id="SVGID_00000003788233334089673130000003300524419315571364_" x="22.64" y="20.54" width="20.57" height="21.39"/>
		</defs>
		<clipPath id="SVGID_00000177472769397311758640000005084316300327489439_">
			<use xlink:href="#SVGID_00000003788233334089673130000003300524419315571364_"  style="overflow:visible;"/>
		</clipPath>
		<g style="clip-path:url(#SVGID_00000177472769397311758640000005084316300327489439_);">
			<path class="st7" d="M27.85,21.15l-0.1,0.18l5.61,3.29c0.07,0.04,0.14,0.04,0.21,0l5.61-3.29l-0.1-0.18L39,21.35
				c0,0,0.09,0.03,0.25,0.08c0.47,0.16,1.53,0.52,2.45,0.83c0.2,0.07,0.37,0.15,0.5,0.24c0.1,0.07,0.18,0.15,0.25,0.24
				c0.11,0.14,0.19,0.31,0.24,0.54c0.06,0.23,0.08,0.52,0.08,0.89c0,0.57-0.07,1.31-0.2,2.28c-0.21,1.59-0.72,4.9-1.19,7.92
				c-0.23,1.51-0.46,2.94-0.64,4.05c-0.17,1.11-0.3,1.89-0.33,2.09c-0.03,0.18-0.08,0.34-0.14,0.46c-0.09,0.19-0.22,0.31-0.38,0.4
				c-0.16,0.09-0.37,0.13-0.61,0.13c-0.71,0-12.41,0-13.12,0c-0.16,0-0.3-0.02-0.41-0.05c-0.08-0.02-0.15-0.06-0.21-0.1
				c-0.09-0.07-0.16-0.15-0.22-0.29c-0.06-0.13-0.11-0.31-0.13-0.55c-0.05-0.44-0.39-3.49-0.75-6.74c-0.36-3.26-0.73-6.72-0.84-7.99
				c-0.05-0.53-0.07-0.97-0.07-1.35c0-0.36,0.02-0.66,0.07-0.91c0.03-0.18,0.08-0.34,0.13-0.47c0.09-0.2,0.19-0.34,0.34-0.46
				c0.14-0.12,0.33-0.21,0.56-0.29c0.56-0.19,1.37-0.43,2.05-0.61c0.34-0.09,0.64-0.18,0.86-0.24c0.11-0.03,0.2-0.05,0.26-0.07
				c0.06-0.02,0.09-0.03,0.09-0.03L27.85,21.15l-0.1,0.18L27.85,21.15l-0.05-0.2c0,0-0.54,0.14-1.22,0.33
				c-0.68,0.19-1.5,0.43-2.07,0.62c-0.24,0.08-0.45,0.18-0.63,0.31c-0.14,0.1-0.25,0.22-0.35,0.36c-0.15,0.21-0.25,0.47-0.31,0.77
				c-0.06,0.31-0.09,0.66-0.09,1.09c0,0.4,0.02,0.86,0.07,1.39c0.11,1.28,0.48,4.74,0.84,8s0.7,6.31,0.75,6.74
				c0.03,0.23,0.07,0.43,0.14,0.61c0.05,0.13,0.12,0.25,0.2,0.34c0.12,0.15,0.28,0.25,0.46,0.32c0.18,0.06,0.37,0.09,0.59,0.09
				c0.71,0,12.41,0,13.12,0c0.19,0,0.38-0.02,0.55-0.08c0.26-0.08,0.49-0.23,0.66-0.44c0.17-0.22,0.28-0.49,0.33-0.83
				c0.03-0.2,0.15-0.98,0.33-2.09c0.26-1.66,0.64-4.06,0.99-6.34c0.35-2.28,0.68-4.44,0.84-5.65c0.13-0.97,0.2-1.73,0.2-2.33
				c0-0.34-0.02-0.64-0.07-0.89c-0.04-0.19-0.09-0.36-0.17-0.51c-0.11-0.23-0.26-0.41-0.45-0.55c-0.19-0.15-0.41-0.25-0.66-0.34
				c-1.23-0.42-2.71-0.92-2.71-0.92c-0.06-0.02-0.12-0.01-0.17,0.02l-5.51,3.23l-5.51-3.23c-0.05-0.03-0.1-0.04-0.15-0.02
				L27.85,21.15"/>
		</g>
	</g>
	<path class="st5" d="M32.52,26.74c0,0.19,0.15,0.35,0.34,0.35c0.19,0,0.35-0.16,0.35-0.35c0-0.19-0.16-0.35-0.35-0.35
		C32.68,26.39,32.52,26.55,32.52,26.74"/>
	<path class="st7" d="M32.52,26.74h-0.21c0,0.15,0.06,0.29,0.16,0.39c0.1,0.1,0.24,0.16,0.39,0.16c0.15,0,0.29-0.06,0.39-0.16
		s0.16-0.24,0.16-0.39s-0.06-0.29-0.16-0.39s-0.24-0.16-0.39-0.16c-0.15,0-0.29,0.06-0.39,0.16c-0.1,0.1-0.16,0.24-0.16,0.39h0.41
		c0-0.04,0.02-0.07,0.04-0.1c0.02-0.02,0.06-0.04,0.1-0.04c0.04,0,0.07,0.02,0.1,0.04c0.03,0.02,0.04,0.06,0.04,0.1
		c0,0.04-0.01,0.07-0.04,0.1c-0.03,0.03-0.06,0.04-0.1,0.04c-0.04,0-0.07-0.01-0.1-0.04c-0.03-0.03-0.04-0.06-0.04-0.1H32.52"/>
	<path class="st5" d="M32.52,28.81c0,0.19,0.15,0.35,0.34,0.35c0.19,0,0.35-0.15,0.35-0.35c0-0.19-0.16-0.35-0.35-0.35
		C32.68,28.46,32.52,28.61,32.52,28.81"/>
	<path class="st7" d="M32.52,28.81h-0.21c0,0.15,0.06,0.29,0.16,0.39c0.1,0.1,0.24,0.16,0.39,0.16c0.15,0,0.29-0.06,0.39-0.16
		s0.16-0.24,0.16-0.39c0-0.15-0.06-0.29-0.16-0.39c-0.1-0.1-0.24-0.16-0.39-0.16c-0.15,0-0.29,0.06-0.39,0.16
		c-0.1,0.1-0.16,0.24-0.16,0.39h0.41c0-0.04,0.02-0.07,0.04-0.1c0.03-0.03,0.06-0.04,0.1-0.04c0.04,0,0.07,0.01,0.1,0.04
		c0.03,0.03,0.04,0.06,0.04,0.1c0,0.04-0.01,0.07-0.04,0.1c-0.03,0.02-0.06,0.04-0.1,0.04c-0.04,0-0.07-0.02-0.1-0.04
		c-0.03-0.03-0.04-0.06-0.04-0.1H32.52"/>
	<path class="st5" d="M32.52,30.87c0,0.19,0.15,0.35,0.34,0.35c0.19,0,0.35-0.15,0.35-0.35c0-0.19-0.16-0.35-0.35-0.35
		C32.68,30.52,32.52,30.68,32.52,30.87"/>
	<path class="st7" d="M32.52,30.87h-0.21c0,0.15,0.06,0.29,0.16,0.39c0.1,0.1,0.24,0.16,0.39,0.16c0.15,0,0.29-0.06,0.39-0.16
		s0.16-0.24,0.16-0.39s-0.06-0.29-0.16-0.39s-0.24-0.16-0.39-0.16c-0.15,0-0.29,0.06-0.39,0.16c-0.1,0.1-0.16,0.24-0.16,0.39h0.41
		c0-0.04,0.02-0.07,0.04-0.1c0.03-0.03,0.06-0.04,0.1-0.04c0.04,0,0.07,0.02,0.1,0.04c0.03,0.03,0.04,0.06,0.04,0.1
		c0,0.04-0.01,0.07-0.04,0.1c-0.03,0.03-0.06,0.04-0.1,0.04c-0.04,0-0.07-0.02-0.1-0.04c-0.03-0.03-0.04-0.06-0.04-0.1H32.52"/>
	<path class="st5" d="M32.52,32.94c0,0.19,0.15,0.35,0.34,0.35c0.19,0,0.35-0.16,0.35-0.35c0-0.19-0.16-0.35-0.35-0.35
		C32.68,32.59,32.52,32.75,32.52,32.94"/>
	<path class="st7" d="M32.52,32.94h-0.21c0,0.15,0.06,0.29,0.16,0.39c0.1,0.1,0.24,0.16,0.39,0.16c0.15,0,0.29-0.06,0.39-0.16
		s0.16-0.24,0.16-0.39s-0.06-0.29-0.16-0.39s-0.24-0.16-0.39-0.16c-0.15,0-0.29,0.06-0.39,0.16c-0.1,0.1-0.16,0.24-0.16,0.39h0.41
		c0-0.04,0.02-0.08,0.04-0.1c0.03-0.03,0.06-0.04,0.1-0.04c0.04,0,0.07,0.02,0.1,0.04c0.03,0.03,0.04,0.06,0.04,0.1
		c0,0.04-0.01,0.07-0.04,0.1c-0.03,0.03-0.06,0.04-0.1,0.04c-0.04,0-0.07-0.02-0.1-0.04c-0.03-0.02-0.04-0.06-0.04-0.1H32.52"/>
	<path class="st5" d="M32.52,35.01c0,0.19,0.15,0.35,0.34,0.35c0.19,0,0.35-0.16,0.35-0.35c0-0.19-0.16-0.35-0.35-0.35
		C32.68,34.66,32.52,34.82,32.52,35.01"/>
	<path class="st7" d="M32.52,35.01h-0.21c0,0.15,0.06,0.29,0.16,0.39c0.1,0.1,0.24,0.16,0.39,0.16c0.15,0,0.29-0.06,0.39-0.16
		c0.1-0.1,0.16-0.24,0.16-0.39c0-0.16-0.06-0.3-0.16-0.4s-0.24-0.16-0.39-0.16c-0.15,0-0.29,0.06-0.39,0.17
		c-0.1,0.1-0.16,0.24-0.16,0.39h0.41c0-0.04,0.02-0.08,0.04-0.1c0.03-0.02,0.06-0.04,0.1-0.04c0.04,0,0.07,0.02,0.1,0.04
		c0.03,0.03,0.04,0.06,0.04,0.1c0,0.04-0.01,0.07-0.04,0.1c-0.03,0.03-0.06,0.04-0.1,0.04c-0.04,0-0.07-0.01-0.1-0.04
		c-0.03-0.03-0.04-0.06-0.04-0.1H32.52"/>
	<path class="st5" d="M32.52,37.08c0,0.19,0.15,0.35,0.34,0.35c0.19,0,0.35-0.15,0.35-0.35c0-0.19-0.16-0.35-0.35-0.35
		C32.68,36.73,32.52,36.89,32.52,37.08"/>
	<path class="st7" d="M32.52,37.08h-0.21c0,0.15,0.06,0.29,0.16,0.39c0.1,0.1,0.24,0.16,0.39,0.16c0.15,0,0.29-0.06,0.39-0.16
		s0.16-0.24,0.16-0.39s-0.06-0.29-0.16-0.39s-0.24-0.16-0.39-0.16c-0.15,0-0.29,0.06-0.39,0.16c-0.1,0.1-0.16,0.24-0.16,0.39h0.41
		c0-0.04,0.02-0.07,0.04-0.1c0.03-0.03,0.06-0.04,0.1-0.04c0.04,0,0.07,0.01,0.1,0.04c0.03,0.03,0.04,0.06,0.04,0.1
		c0,0.04-0.01,0.07-0.04,0.1c-0.03,0.02-0.06,0.04-0.1,0.04c-0.04,0-0.07-0.01-0.1-0.04c-0.03-0.03-0.04-0.06-0.04-0.1H32.52"/>
	<path class="st5" d="M32.52,39.15c0,0.19,0.15,0.35,0.34,0.35c0.19,0,0.35-0.15,0.35-0.35c0-0.19-0.16-0.35-0.35-0.35
		C32.68,38.8,32.52,38.95,32.52,39.15"/>
	<path class="st7" d="M32.52,39.15h-0.21c0,0.15,0.06,0.29,0.16,0.39c0.1,0.1,0.24,0.16,0.39,0.16c0.15,0,0.29-0.06,0.39-0.16
		c0.1-0.1,0.16-0.24,0.16-0.39c0-0.15-0.06-0.29-0.16-0.39s-0.24-0.16-0.39-0.16c-0.15,0-0.29,0.06-0.39,0.16
		c-0.1,0.1-0.16,0.24-0.16,0.39h0.41c0-0.04,0.02-0.07,0.04-0.1c0.02-0.03,0.06-0.04,0.1-0.04c0.04,0,0.07,0.01,0.1,0.04
		c0.03,0.03,0.04,0.06,0.04,0.1c0,0.04-0.01,0.07-0.04,0.1c-0.03,0.02-0.06,0.04-0.1,0.04c-0.04,0-0.07-0.02-0.1-0.04
		c-0.03-0.03-0.04-0.06-0.04-0.1H32.52"/>
	<path class="st5" d="M33.46,24.44l4.34-4.97l1.26,1.68l-2.65,4.71L33.46,24.44"/>
	<path class="st7" d="M33.46,24.44l0.16,0.14l4.18-4.78l1.03,1.37l-2.49,4.42l-2.78-1.34L33.46,24.44l0.16,0.14L33.46,24.44
		l-0.09,0.19l2.95,1.42c0.1,0.05,0.22,0.01,0.27-0.08l2.65-4.71c0.04-0.07,0.03-0.16-0.02-0.23l-1.26-1.68
		c-0.04-0.05-0.09-0.08-0.15-0.08c-0.06,0-0.12,0.02-0.16,0.07l-4.34,4.97c-0.04,0.05-0.06,0.11-0.05,0.18
		c0.01,0.06,0.05,0.12,0.11,0.14L33.46,24.44"/>
	<path class="st5" d="M33.46,24.44l-4.35-4.97l-1.26,1.68l2.65,4.71L33.46,24.44"/>
	<path class="st7" d="M33.46,24.44l0.16-0.14l-4.35-4.97c-0.04-0.05-0.1-0.07-0.16-0.07c-0.06,0-0.12,0.03-0.16,0.08l-1.26,1.68
		c-0.05,0.07-0.06,0.16-0.01,0.23l2.65,4.71c0.05,0.09,0.17,0.13,0.27,0.08l2.96-1.42c0.06-0.03,0.1-0.08,0.11-0.14
		c0.01-0.07-0.01-0.13-0.05-0.18L33.46,24.44l-0.09-0.19l-2.78,1.34l-2.49-4.42l1.03-1.37l4.18,4.78L33.46,24.44l-0.09-0.19
		L33.46,24.44"/>
	<path class="st7" d="M32.17,24.96v16.55c0,0.12,0.09,0.21,0.21,0.21c0.11,0,0.2-0.09,0.2-0.21V24.96c0-0.11-0.09-0.21-0.2-0.21
		C32.26,24.76,32.17,24.85,32.17,24.96"/>
	<path class="st7" d="M33.26,24.66v16.85c0,0.12,0.09,0.21,0.2,0.21s0.21-0.09,0.21-0.21V24.66c0-0.11-0.09-0.21-0.21-0.21
		S33.26,24.55,33.26,24.66"/>
	<path class="st5" d="M25.85,32.4h4.2v-0.97h-4.2V32.4"/>
	<path class="st7" d="M25.85,32.4v0.21h4.2c0.05,0,0.11-0.02,0.15-0.06c0.04-0.04,0.06-0.09,0.06-0.15v-0.97
		c0-0.05-0.02-0.11-0.06-0.15c-0.04-0.04-0.09-0.06-0.15-0.06h-4.2c-0.06,0-0.11,0.02-0.15,0.06c-0.04,0.04-0.06,0.09-0.06,0.15
		v0.97c0,0.05,0.02,0.11,0.06,0.15c0.04,0.04,0.09,0.06,0.15,0.06V32.4h0.2v-0.76h3.79v0.55h-4V32.4h0.2H25.85"/>
	<path class="st5" d="M27.58,30.15l1.49,1.28h-2.25L27.58,30.15z"/>
	<path class="st7" d="M27.58,30.15l-0.13,0.16l1.06,0.91h-1.32l0.57-0.97L27.58,30.15l-0.13,0.16L27.58,30.15l-0.18-0.11l-0.76,1.28
		c-0.04,0.06-0.04,0.14,0,0.21c0.04,0.06,0.11,0.1,0.18,0.1h2.25c0.09,0,0.16-0.05,0.19-0.14c0.03-0.08,0.01-0.17-0.06-0.23
		L27.72,30c-0.05-0.04-0.11-0.06-0.17-0.05c-0.06,0.01-0.11,0.05-0.14,0.1L27.58,30.15"/>
</g>
</svg>
