<?xml version="1.0" encoding="utf-8"?>
<!-- Generator: Adobe Illustrator 27.3.1, SVG Export Plug-In . SVG Version: 6.00 Build 0)  -->
<svg version="1.1" id="Layer_1" xmlns="http://www.w3.org/2000/svg" xmlns:xlink="http://www.w3.org/1999/xlink" x="0px" y="0px"
	 viewBox="0 0 50 50" style="enable-background:new 0 0 50 50;" xml:space="preserve">
<style type="text/css">
	.st0{fill:none;}
	.st1{stroke:#000000;stroke-miterlimit:10;}
	.st2{stroke:#000000;stroke-width:0.75;stroke-miterlimit:10;}
	.st3{clip-path:url(#SVGID_00000103979427189103955800000006376486396566220964_);}
	.st4{clip-path:url(#SVGID_00000088111911031887193960000002231265718139568265_);}
	.st5{fill:#FFFFFF;}
	.st6{clip-path:url(#SVGID_00000100367635182337400770000016018007279281266819_);}
	.st7{fill:#231F20;}
	.st8{clip-path:url(#SVGID_00000041261399248696739010000014109956643443704198_);}
	.st9{clip-path:url(#SVGID_00000021825464401845759870000007666183128165759121_);}
	.st10{clip-path:url(#SVGID_00000096740247989363195710000005669059673250605748_);}
	.st11{clip-path:url(#SVGID_00000123409592497936801250000008394798424459866263_);}
	.st12{clip-path:url(#SVGID_00000143611882798768927870000010652898777472219031_);}
	.st13{clip-path:url(#SVGID_00000004524977457417290140000008403835418382159759_);}
	.st14{clip-path:url(#SVGID_00000093867263272661380810000003790178379890712232_);}
	.st15{clip-path:url(#SVGID_00000004525329226768530630000014889834803061680789_);}
	.st16{clip-path:url(#SVGID_00000026124570002690334860000006116525650569758358_);}
	.st17{clip-path:url(#SVGID_00000176004690867225051940000003151925271904355210_);}
	.st18{clip-path:url(#SVGID_00000129920237304106152330000005811939434645354392_);}
	.st19{clip-path:url(#SVGID_00000106862970641290752330000012688887708129737114_);}
	.st20{clip-path:url(#SVGID_00000071550053724396474510000014534038840788908675_);}
	.st21{clip-path:url(#SVGID_00000155104355300928504630000009914855137382545821_);}
	.st22{clip-path:url(#SVGID_00000086683410958028582870000013113006090162450832_);}
	.st23{clip-path:url(#SVGID_00000029737124814431079620000012119507864840413366_);}
	.st24{clip-path:url(#SVGID_00000080910273362104969610000001302879307722401959_);}
	.st25{clip-path:url(#SVGID_00000099629949423578727640000014958281114794053047_);}
	.st26{clip-path:url(#SVGID_00000099627111050729854400000014489962383742914230_);}
	.st27{clip-path:url(#SVGID_00000006681912417075608700000004242908442122808754_);}
	.st28{clip-path:url(#SVGID_00000025420091210280341840000011477013306207662993_);}
	.st29{clip-path:url(#SVGID_00000018195494788571743190000018244134632301960121_);}
	.st30{clip-path:url(#SVGID_00000117646788224414463690000018295891211161339790_);}
	.st31{fill-rule:evenodd;clip-rule:evenodd;}
	.st32{clip-path:url(#SVGID_00000078043387196446588060000010878364792093797551_);}
	.st33{clip-path:url(#SVGID_00000095300558111861151930000004163660718142013327_);}
	.st34{stroke:#000000;stroke-width:0.5;stroke-miterlimit:10;}
	.st35{clip-path:url(#SVGID_00000127764126946561454550000009918869324157550240_);}
	.st36{clip-path:url(#SVGID_00000052788010718890961340000009486569725626400949_);}
	.st37{clip-path:url(#SVGID_00000017498225897652399830000005426147811866012060_);}
	.st38{fill:#1A1A1A;}
	.st39{clip-path:url(#SVGID_00000003811558577377451530000015368432987009984405_);}
	.st40{clip-path:url(#SVGID_00000168107777169536829220000012940210077978741136_);}
	.st41{clip-path:url(#SVGID_00000057140290352309729550000014537941616871437471_);}
	.st42{clip-path:url(#SVGID_00000089553262144546101950000002883000906419482247_);}
	.st43{clip-path:url(#SVGID_00000088839895601308914560000008885745131291018431_);}
	.st44{clip-path:url(#SVGID_00000133492399857377541630000013725753349788898432_);}
	.st45{clip-path:url(#SVGID_00000132802503204171667200000015014420455987010472_);}
	.st46{clip-path:url(#SVGID_00000084523836467826968810000004827738173576089017_);}
	.st47{clip-path:url(#SVGID_00000083787428215724492460000007566447932239871650_);}
	.st48{fill:#F1F1F1;}
	.st49{fill:#E8E8E8;}
	.st50{fill:#FEFEFE;}
	.st51{fill:#CCCCCC;}
	.st52{fill:#B3B3B3;}
	.st53{fill:#E6E6E6;}
	.st54{fill:#EBEBEB;}
	.st55{fill:#EEEEEE;}
	.st56{fill:#F8F8F8;}
	.st57{fill:#FBFBFB;}
	.st58{fill:#383838;}
	.st59{fill:#232323;}
	.st60{fill:#F6F6F6;}
	.st61{fill:#535353;}
	.st62{fill:#0A0A0A;}
	.st63{fill:#F5F5F5;}
	.st64{fill:#818181;}
	.st65{fill:#4A4A4A;}
	.st66{fill:#999999;}
	.st67{fill:url(#SVGID_00000071559558627652709640000018294332616156994190_);}
	.st68{fill:url(#SVGID_00000144331775201475305600000011883831036844309931_);}
	.st69{fill:#0E0E0D;}
	.st70{fill:#333333;}
	.st71{fill:#808080;}
	.st72{fill:url(#SVGID_00000097492410561117836420000010710813132573303452_);}
	.st73{fill:#666666;}
	.st74{fill:url(#SVGID_00000017482886258195317390000004288810361636849054_);}
	.st75{fill:url(#SVGID_00000084496337925257528460000000393839022240935094_);}
	.st76{fill:url(#SVGID_00000083061041059049926450000002915169822744677262_);}
	.st77{fill:url(#SVGID_00000103952046337294252950000015284664752983745945_);}
	.st78{fill:url(#SVGID_00000054958953342706598970000002292174540990047649_);}
	.st79{clip-path:url(#SVGID_00000117658723736862647350000015985434002807856284_);}
	.st80{clip-path:url(#SVGID_00000014612700423895171820000015493038125762709635_);}
	.st81{clip-path:url(#SVGID_00000181087536690506006720000000184505731218988219_);}
	.st82{clip-path:url(#SVGID_00000159448552979391015950000011298647297532055446_);}
	.st83{clip-path:url(#SVGID_00000181803026042287346430000014338989127448019382_);}
	.st84{fill:#241F20;stroke:#000000;stroke-width:0.5;stroke-miterlimit:10;}
	.st85{clip-path:url(#SVGID_00000057844802700599649700000017401166037686113444_);}
	.st86{clip-path:url(#SVGID_00000011740026923785474490000013592783260676360842_);}
	.st87{clip-path:url(#SVGID_00000137844664625674944710000009879839165677921717_);}
	.st88{clip-path:url(#SVGID_00000165926599777223929330000007623703250720839350_);}
	.st89{clip-path:url(#SVGID_00000153665154961740361140000000693676716382559635_);}
	.st90{clip-path:url(#SVGID_00000110448047748821251570000008462820362217984691_);}
	.st91{clip-path:url(#SVGID_00000058555774886685912400000015136200462590350211_);}
	.st92{clip-path:url(#SVGID_00000083075233822776090450000013628854924672029094_);}
	.st93{clip-path:url(#SVGID_00000117644249113802258380000000276004522073203350_);}
	.st94{clip-path:url(#SVGID_00000122719541146446270720000005622191343286677892_);}
	.st95{clip-path:url(#SVGID_00000168823406851531124180000003926321407392305813_);}
	.st96{clip-path:url(#SVGID_00000103977720749811101220000017633988435228238002_);}
	.st97{clip-path:url(#SVGID_00000102536145905247019920000012669121563361085581_);}
	.st98{clip-path:url(#SVGID_00000056396654839876445970000000444799916024732560_);}
	.st99{clip-path:url(#SVGID_00000085936708126575323090000001590493814716166562_);}
	.st100{clip-path:url(#SVGID_00000006683393795310132360000013162154631168739981_);}
	.st101{clip-path:url(#SVGID_00000150091998011965352620000013102384395092737686_);}
	.st102{clip-path:url(#SVGID_00000146483810672353508160000003443895661368107701_);}
	.st103{clip-path:url(#SVGID_00000073001728940831095760000014649023821027935156_);}
	.st104{clip-path:url(#SVGID_00000111162325966718253630000007310363324953753238_);}
	.st105{clip-path:url(#SVGID_00000178907228358353172410000012427084764930410886_);}
	.st106{clip-path:url(#SVGID_00000022543240725266167810000007072872220006695060_);}
	.st107{clip-path:url(#SVGID_00000036955274191024272440000008395987156666606499_);}
	.st108{clip-path:url(#SVGID_00000054957229654562161560000017231675086315191219_);}
	.st109{clip-path:url(#SVGID_00000010290187355110721610000008243857836832005263_);}
	.st110{clip-path:url(#SVGID_00000097499997809545003280000004805096943306409631_);}
	.st111{clip-path:url(#SVGID_00000008862455094728538160000001247969221580058795_);}
	.st112{clip-path:url(#SVGID_00000178885570271249476820000002401005011608629667_);}
	.st113{clip-path:url(#SVGID_00000118376481677063423460000004199271930021932167_);}
	.st114{clip-path:url(#SVGID_00000016040476776113490560000011248385898356478592_);}
	.st115{fill:#FFFFFF;stroke:#000000;stroke-miterlimit:10;}
	.st116{clip-path:url(#SVGID_00000004512601907536511080000013947313973009908866_);}
	.st117{clip-path:url(#SVGID_00000023271080311737978190000015663581444960659113_);}
	.st118{fill:none;stroke:#010101;stroke-miterlimit:10;}
	.st119{fill:#010101;stroke:#000000;stroke-miterlimit:10;}
	.st120{clip-path:url(#SVGID_00000023264455676426680150000013786569094938445498_);}
	.st121{fill:#010101;stroke:#010101;stroke-miterlimit:10;}
	.st122{clip-path:url(#SVGID_00000031890275505987003740000010658796721415449277_);}
	.st123{clip-path:url(#SVGID_00000147923884257251933010000012948983181310562738_);}
	.st124{clip-path:url(#SVGID_00000175316728732739769200000004441460562009058439_);}
	.st125{clip-path:url(#SVGID_00000090292073515211720320000017762246643528933519_);}
	.st126{clip-path:url(#SVGID_00000166672425229733819880000018234462615664618377_);}
	.st127{fill:none;stroke:#000000;stroke-width:3;stroke-miterlimit:10;}
	.st128{clip-path:url(#SVGID_00000052070483044520232300000006814844489575671211_);}
	.st129{clip-path:url(#SVGID_00000079464315710987888120000017423908990396113075_);}
	.st130{clip-path:url(#SVGID_00000141435656407916232380000007831704741776104125_);}
	.st131{clip-path:url(#SVGID_00000180336769096292471880000005368202912987709603_);}
	.st132{fill:#040606;}
	.st133{clip-path:url(#SVGID_00000159441789445320262260000008785316136497040823_);}
	.st134{clip-path:url(#SVGID_00000106121947408601559550000006692291934349163138_);}
	.st135{clip-path:url(#SVGID_00000127754866923594779180000003607574182139025077_);}
	.st136{clip-path:url(#SVGID_00000099621656309564009740000005571845097166009013_);}
	.st137{clip-path:url(#SVGID_00000110456542602351523100000017788254011435852683_);}
	.st138{clip-path:url(#SVGID_00000012442575981901498580000012042973386998392738_);}
	.st139{clip-path:url(#SVGID_00000029006864878601658230000001490830947251144104_);}
	.st140{fill:#FFFFFF;stroke:#000000;stroke-width:1.5;stroke-miterlimit:10;}
	.st141{clip-path:url(#SVGID_00000168117296169678599060000008273125766852928139_);}
	.st142{fill:#BDBCBC;}
	.st143{clip-path:url(#SVGID_00000054237922666174465120000017223770678375976092_);}
	.st144{fill:#2E2A2B;}
	.st145{clip-path:url(#SVGID_00000069371596819271794510000007676422613679012237_);}
	.st146{clip-path:url(#SVGID_00000016786398546872519830000007695856094453693855_);}
	.st147{clip-path:url(#SVGID_00000097474117640285913170000015479306171345157769_);}
	.st148{clip-path:url(#SVGID_00000061458835693431386140000013851973727342416258_);}
	.st149{clip-path:url(#SVGID_00000039850212372083431340000014685217458382288791_);}
	.st150{fill:#272324;}
	.st151{clip-path:url(#SVGID_00000052076813799289870380000013004305972646089405_);}
	.st152{clip-path:url(#SVGID_00000177486208379923530990000000363730558568979842_);}
	.st153{clip-path:url(#SVGID_00000133498010494491774980000006160388352408704671_);}
	.st154{clip-path:url(#SVGID_00000133491812853742834050000006454326101974444961_);}
	.st155{clip-path:url(#SVGID_00000104676186467823107810000013510039175176038570_);}
	.st156{clip-path:url(#SVGID_00000005962211583033803030000002908856620636599995_);}
	.st157{fill:none;stroke:#000000;stroke-width:0.8735;stroke-linecap:round;stroke-linejoin:round;stroke-miterlimit:10;}
	.st158{clip-path:url(#SVGID_00000005236726567813008770000008431499478391825286_);}
	.st159{clip-path:url(#SVGID_00000163070133979736123450000008609908431051550611_);}
	.st160{clip-path:url(#SVGID_00000102542468704276139780000012777638326303905185_);}
	.st161{clip-path:url(#SVGID_00000118383229753484556410000010762760573051187591_);}
	.st162{clip-path:url(#SVGID_00000172406877578701630250000007589456002732939670_);}
	.st163{clip-path:url(#SVGID_00000152247303056169544530000014215746458632714122_);}
	.st164{clip-path:url(#SVGID_00000016772517628049495170000014464985564745616260_);}
	.st165{clip-path:url(#SVGID_00000010991932381683414020000001610702070219552436_);}
	.st166{clip-path:url(#SVGID_00000160887776965947889690000010451682922310607495_);}
	.st167{clip-path:url(#SVGID_00000010304674540055546750000002809223766246605488_);}
	.st168{clip-path:url(#SVGID_00000062170455361262034300000010959539878575203218_);}
	.st169{clip-path:url(#SVGID_00000031922091107838174520000008376740221249224868_);}
	.st170{clip-path:url(#SVGID_00000070811658342519446210000009049937341773001869_);}
	.st171{clip-path:url(#SVGID_00000103952325455085641200000008217288621880454031_);}
	.st172{clip-path:url(#SVGID_00000028304982505980404180000006653277868511392915_);}
	.st173{clip-path:url(#SVGID_00000037688850987225162190000016082895582239570600_);}
	.st174{clip-path:url(#SVGID_00000139264384016126413770000014090528090467360162_);}
	.st175{clip-path:url(#SVGID_00000034086273813193685600000017574689358846723476_);}
	.st176{clip-path:url(#SVGID_00000021101986977159451020000004234029654089343367_);}
	.st177{clip-path:url(#SVGID_00000080908947090152374910000008067314650501048453_);}
	.st178{clip-path:url(#SVGID_00000076605725129464973940000001442648224762446236_);}
	.st179{clip-path:url(#SVGID_00000100374611499863132640000006091035209737838989_);}
	.st180{clip-path:url(#SVGID_00000130610104843888688830000006822092609115409301_);}
	.st181{clip-path:url(#SVGID_00000041984278225472109930000015823090372632967102_);}
	.st182{clip-path:url(#SVGID_00000029043116765973749100000004290478285927506571_);}
	.st183{clip-path:url(#SVGID_00000052092696438836712940000005204423892889236115_);}
	.st184{clip-path:url(#SVGID_00000099662865329671555200000002684018788334566803_);}
	.st185{clip-path:url(#SVGID_00000159467096452781572820000011809671007463249298_);}
	.st186{clip-path:url(#SVGID_00000144307668972903522750000014295816548041146804_);}
	.st187{clip-path:url(#SVGID_00000044858949464994968790000010804506099308307849_);}
	.st188{clip-path:url(#SVGID_00000111160031222915032020000009745504965617522360_);}
	.st189{clip-path:url(#SVGID_00000077304620108307963230000010826568869631803793_);}
	.st190{clip-path:url(#SVGID_00000005268630021047987050000012796696358538129568_);}
	.st191{clip-path:url(#SVGID_00000171001340390677157740000013038657157109584284_);}
	.st192{clip-path:url(#SVGID_00000170239003389693138700000010663373181998167487_);}
	.st193{clip-path:url(#SVGID_00000134231279365614657480000001183915759116568981_);}
	.st194{clip-path:url(#SVGID_00000142856974104151029150000010404436627939805061_);}
	.st195{clip-path:url(#SVGID_00000129898253152828420560000002518004419569583036_);}
	.st196{fill:#E5E5E5;}
	.st197{fill:#1D1D1B;}
	.st198{fill:none;stroke:#000000;stroke-miterlimit:10;}
	.st199{fill:#FEFEFE;stroke:#000000;stroke-miterlimit:10;}
	.st200{clip-path:url(#SVGID_00000118375018140614451880000002152990333877765288_);}
	.st201{clip-path:url(#SVGID_00000141445082639332662590000006635524914125844864_);}
	.st202{clip-path:url(#SVGID_00000181087986679266764600000013701832899034967482_);}
	.st203{fill:#231F1F;}
	.st204{fill:#020000;}
	.st205{clip-path:url(#SVGID_00000173849583377606680300000002613545998846191749_);}
	.st206{clip-path:url(#SVGID_00000130633219150907275120000008018104890892138624_);}
	.st207{clip-path:url(#SVGID_00000027600730672658865920000012442027412457057706_);}
	.st208{clip-path:url(#SVGID_00000173854570562776832860000000276153397373482153_);}
	.st209{fill:#050000;}
	.st210{clip-path:url(#SVGID_00000000188883549811189810000012552534817496612230_);}
	.st211{clip-path:url(#SVGID_00000157298216226916917790000005353110605790212745_);}
	.st212{clip-path:url(#SVGID_00000170993708401226027170000004991652794181849009_);}
	.st213{clip-path:url(#SVGID_00000127005916670900401840000014610801167995950727_);}
	.st214{clip-path:url(#SVGID_00000171716019679714148360000002283716197647681678_);}
	.st215{clip-path:url(#SVGID_00000163759979985508873810000001624814391324234422_);}
	.st216{fill:#12100F;}
	.st217{clip-path:url(#SVGID_00000166651641864181715110000014503233978697737380_);}
	.st218{clip-path:url(#SVGID_00000083068112955581440290000013981769804926541701_);}
	.st219{fill:none;stroke:#000000;stroke-width:0.5;stroke-miterlimit:10;}
	.st220{clip-path:url(#SVGID_00000104673538913613399450000016284041120927437223_);}
	.st221{clip-path:url(#SVGID_00000100382672750937805820000011927959396154759061_);}
	.st222{clip-path:url(#SVGID_00000101812265666766402600000014487106162105906584_);}
	.st223{clip-path:url(#SVGID_00000085219734070572869480000005283207042105479339_);}
	.st224{fill:none;stroke:#000000;stroke-width:0.25;stroke-miterlimit:10;}
	.st225{clip-path:url(#SVGID_00000132799007623052752150000016737740709898699966_);}
	.st226{clip-path:url(#SVGID_00000103969867733464495470000010041277726910125232_);}
	.st227{clip-path:url(#SVGID_00000079481722346285067470000017392080860488968378_);}
</style>
<g>
	<g>
		<defs>
			<rect id="SVGID_00000183236854514250122520000011947371749360673717_" x="10.6" y="20.06" width="26.43" height="25.26"/>
		</defs>
		<clipPath id="SVGID_00000047742576932417708920000008723404748540052662_">
			<use xlink:href="#SVGID_00000183236854514250122520000011947371749360673717_"  style="overflow:visible;"/>
		</clipPath>
		<g style="clip-path:url(#SVGID_00000047742576932417708920000008723404748540052662_);">
			<path class="st31" d="M19.4,21.27c-4.79,1.69-8,6.23-8,11.31c0,6.61,5.39,12,12,12s12-5.38,12-12c0-5.08-3.21-9.62-8-11.31H19.4z
				 M23.4,45.31c-7.03,0-12.74-5.71-12.74-12.73c0-5.41,3.44-10.25,8.55-12.03c0.04-0.01,0.08-0.02,0.12-0.02h8.12
				c0.04,0,0.08,0.01,0.12,0.02c5.12,1.78,8.56,6.61,8.56,12.03C36.14,39.6,30.42,45.31,23.4,45.31z"/>
		</g>
	</g>
	<path class="st31" d="M27.46,21.27c-0.2,0-0.37-0.16-0.37-0.37v-2.14c0-0.47-0.38-0.85-0.85-0.85h-5.68
		c-0.47,0-0.85,0.38-0.85,0.85v2.14c0,0.2-0.17,0.37-0.37,0.37c-0.2,0-0.37-0.16-0.37-0.37v-2.14c0-0.88,0.72-1.59,1.59-1.59h5.68
		c0.88,0,1.59,0.72,1.59,1.59v2.14C27.83,21.1,27.66,21.27,27.46,21.27z"/>
	<g>
		<defs>
			<rect id="SVGID_00000093162423545415139630000014020389711322169277_" x="19.62" y="11.53" width="7.17" height="6.49"/>
		</defs>
		<clipPath id="SVGID_00000034780123883648731750000002414932388690222728_">
			<use xlink:href="#SVGID_00000093162423545415139630000014020389711322169277_"  style="overflow:visible;"/>
		</clipPath>
		<g style="clip-path:url(#SVGID_00000034780123883648731750000002414932388690222728_);">
			<path class="st31" d="M26.24,17.9c-0.2,0-0.37-0.17-0.37-0.37v-4.55c0-0.4-0.32-0.73-0.73-0.73h-3.48c-0.4,0-0.73,0.33-0.73,0.73
				v4.55c0,0.2-0.16,0.37-0.37,0.37s-0.37-0.17-0.37-0.37v-4.55c0-0.81,0.66-1.46,1.46-1.46l3.48,0c0.81,0,1.47,0.66,1.47,1.47v4.55
				C26.61,17.74,26.44,17.9,26.24,17.9z"/>
		</g>
	</g>
	<path class="st31" d="M23.4,13.64c-0.5,0-0.91,0.41-0.91,0.91c0,0.5,0.41,0.91,0.91,0.91c0.5,0,0.91-0.41,0.91-0.91
		C24.31,14.05,23.9,13.64,23.4,13.64z M23.4,16.19c-0.91,0-1.65-0.74-1.65-1.64c0-0.91,0.74-1.65,1.65-1.65s1.65,0.74,1.65,1.65
		C25.05,15.46,24.31,16.19,23.4,16.19z"/>
	<path class="st31" d="M19.78,23.4c-3.74,1.47-6.25,5.15-6.25,9.18c0,5.44,4.43,9.86,9.87,9.86s9.87-4.43,9.87-9.86
		c0-4.03-2.51-7.71-6.25-9.18H19.78z M23.4,43.18c-5.85,0-10.61-4.76-10.61-10.6c0-2.15,0.64-4.23,1.86-6.01
		c1.22-1.77,2.92-3.11,4.93-3.88c0.04-0.02,0.09-0.02,0.13-0.02h7.37c0.04,0,0.09,0.01,0.13,0.02c2,0.77,3.7,2.12,4.92,3.88
		c1.22,1.78,1.87,3.85,1.87,6.01C34,38.42,29.24,43.18,23.4,43.18z"/>
	<path class="st31" d="M18.86,30.7c-1.53,0-3.07-0.46-4.55-0.9c-0.23-0.07-0.46-0.14-0.69-0.2c-0.2-0.06-0.31-0.26-0.25-0.46
		c0.06-0.2,0.26-0.31,0.46-0.25c0.23,0.07,0.46,0.14,0.7,0.2c1.43,0.42,2.91,0.86,4.34,0.86c1.43,0,2.91-0.44,4.34-0.86
		c1.48-0.44,3.02-0.89,4.55-0.89c1.54,0,3.07,0.45,4.55,0.89c0.34,0.1,0.69,0.2,1.03,0.3c0.2,0.05,0.31,0.26,0.26,0.45
		c-0.06,0.2-0.26,0.31-0.46,0.26c-0.35-0.1-0.7-0.2-1.04-0.3c-1.43-0.42-2.91-0.86-4.34-0.86c-1.43,0-2.91,0.44-4.34,0.86
		C21.93,30.25,20.39,30.7,18.86,30.7z"/>
	<path class="st31" d="M32.64,17.76c-0.07,0-0.13-0.02-0.19-0.05c-1.62-0.98-3.74-1.84-6.31-2.55c-0.2-0.06-0.31-0.26-0.26-0.46
		c0.05-0.2,0.26-0.31,0.45-0.26c2.63,0.74,4.81,1.62,6.49,2.63c0.18,0.1,0.23,0.33,0.13,0.5C32.88,17.7,32.76,17.76,32.64,17.76z"/>
	<g>
		<defs>
			<rect id="SVGID_00000153667514491674851120000012639922723173464726_" x="32.94" y="16.99" width="8.39" height="9.22"/>
		</defs>
		<clipPath id="SVGID_00000067922196061034678790000015963835211588732312_">
			<use xlink:href="#SVGID_00000153667514491674851120000012639922723173464726_"  style="overflow:visible;"/>
		</clipPath>
		<g style="clip-path:url(#SVGID_00000067922196061034678790000015963835211588732312_);">
			<path class="st31" d="M35.14,18.44c-0.42,0-0.77,0.12-1.01,0.36c-0.38,0.38-0.46,1.03-0.23,1.84c0.25,0.88,0.84,1.82,1.65,2.63
				c0.81,0.81,1.75,1.4,2.63,1.65c0.81,0.23,1.46,0.15,1.84-0.23c0.38-0.38,0.46-1.04,0.23-1.84c-0.25-0.88-0.84-1.82-1.65-2.63
				c-0.81-0.81-1.75-1.4-2.63-1.65C35.68,18.48,35.4,18.44,35.14,18.44z M39.03,25.79c-0.32,0-0.67-0.05-1.04-0.16
				c-1-0.28-2.05-0.94-2.96-1.84c-0.9-0.9-1.55-1.95-1.84-2.95c-0.31-1.08-0.16-1.99,0.42-2.57c0.58-0.58,1.49-0.72,2.56-0.42
				c1,0.28,2.05,0.94,2.96,1.84c0.9,0.9,1.55,1.95,1.84,2.95c0.3,1.08,0.16,1.99-0.42,2.56C40.18,25.59,39.65,25.79,39.03,25.79z"/>
		</g>
	</g>
	<path class="st31" d="M33.42,20.06c-0.1,0-0.19-0.04-0.26-0.11l-0.77-0.77c-0.56-0.56-0.56-1.48,0-2.04l0.09-0.09
		c0.56-0.56,1.48-0.56,2.04,0l0.77,0.77c0.14,0.14,0.14,0.38,0,0.52c-0.14,0.14-0.38,0.14-0.52,0L34,17.56c-0.28-0.28-0.72-0.28-1,0
		l-0.09,0.09c-0.28,0.28-0.28,0.72,0,1l0.77,0.77c0.14,0.15,0.14,0.38,0,0.52C33.6,20.02,33.51,20.06,33.42,20.06z"/>
</g>
</svg>
