<?xml version="1.0" encoding="utf-8"?>
<!-- Generator: Adobe Illustrator 27.3.1, SVG Export Plug-In . SVG Version: 6.00 Build 0)  -->
<svg version="1.1" id="Layer_1" xmlns="http://www.w3.org/2000/svg" xmlns:xlink="http://www.w3.org/1999/xlink" x="0px" y="0px"
	 viewBox="0 0 50 50" style="enable-background:new 0 0 50 50;" xml:space="preserve">
<style type="text/css">
	.st0{fill:none;}
	.st1{stroke:#000000;stroke-miterlimit:10;}
	.st2{stroke:#000000;stroke-width:0.75;stroke-miterlimit:10;}
	.st3{clip-path:url(#SVGID_00000083063643088826821070000013822494619828971404_);}
	.st4{clip-path:url(#SVGID_00000173841945816920570190000013062857155490903206_);}
	.st5{fill:#FFFFFF;}
	.st6{clip-path:url(#SVGID_00000039131544140515213810000011828181616338455963_);}
	.st7{fill:#231F20;}
	.st8{clip-path:url(#SVGID_00000152945203928260261980000008571138390931938691_);}
	.st9{clip-path:url(#SVGID_00000104672371604153411290000010712554849977252248_);}
	.st10{clip-path:url(#SVGID_00000052799107385857687690000014572838532660329137_);}
	.st11{clip-path:url(#SVGID_00000073698511708065446830000008056797038594217151_);}
	.st12{clip-path:url(#SVGID_00000049936455250573614570000015252047432226800524_);}
	.st13{clip-path:url(#SVGID_00000084512311908139272600000003830406891688642192_);}
	.st14{clip-path:url(#SVGID_00000122696425529085506080000000699563457264121753_);}
	.st15{clip-path:url(#SVGID_00000182488727329540936330000012738064214915168678_);}
	.st16{clip-path:url(#SVGID_00000158022196458001056190000014700420284288190861_);}
	.st17{clip-path:url(#SVGID_00000150815072404592496260000001600700034606953626_);}
	.st18{clip-path:url(#SVGID_00000153694509406557939460000003785354753270459815_);}
	.st19{clip-path:url(#SVGID_00000084499538009628975010000009224975329436139454_);}
	.st20{clip-path:url(#SVGID_00000084503783831405823540000006906231856755188392_);}
	.st21{clip-path:url(#SVGID_00000050650275134236475760000008426307869123480705_);}
	.st22{clip-path:url(#SVGID_00000060018680361772710260000014113015363425550472_);}
	.st23{clip-path:url(#SVGID_00000116203705020739557790000011396673612615995549_);}
	.st24{clip-path:url(#SVGID_00000157998055792043704140000016830825975723811244_);}
	.st25{clip-path:url(#SVGID_00000099656979251189317360000007447567320445397426_);}
	.st26{clip-path:url(#SVGID_00000119080425906648108390000006762566955574727607_);}
	.st27{clip-path:url(#SVGID_00000050664042800560724200000000181370919716236478_);}
	.st28{clip-path:url(#SVGID_00000026858358898801433170000001158101413621686154_);}
	.st29{clip-path:url(#SVGID_00000078752740541678828980000004115389837902459800_);}
	.st30{clip-path:url(#SVGID_00000109749727066524242980000010795600264633306788_);}
	.st31{fill-rule:evenodd;clip-rule:evenodd;}
	.st32{clip-path:url(#SVGID_00000113355450813152214040000005664646841361256616_);}
	.st33{clip-path:url(#SVGID_00000179637927293653962420000004722676469579999129_);}
	.st34{stroke:#000000;stroke-width:0.5;stroke-miterlimit:10;}
	.st35{clip-path:url(#SVGID_00000094593278038703815400000012326438716411044278_);}
	.st36{clip-path:url(#SVGID_00000139262675056724791150000002439009076791372468_);}
	.st37{clip-path:url(#SVGID_00000014631105518566908700000012575727783086563732_);}
	.st38{fill:#1A1A1A;}
	.st39{clip-path:url(#SVGID_00000123438158177530397940000010762265750848020127_);}
	.st40{clip-path:url(#SVGID_00000059274195525908578340000015676588549905143695_);}
	.st41{clip-path:url(#SVGID_00000062894193717073407440000008749275994876551813_);}
	.st42{clip-path:url(#SVGID_00000061459596793622076320000013044553608973444530_);}
	.st43{clip-path:url(#SVGID_00000012472696406734002210000015949051279250156733_);}
	.st44{clip-path:url(#SVGID_00000109713839129697070610000014359630183615422388_);}
	.st45{clip-path:url(#SVGID_00000096739982609379090410000001290304383605378730_);}
	.st46{clip-path:url(#SVGID_00000127045300114161989110000017144154796671314317_);}
	.st47{clip-path:url(#SVGID_00000117664528722062051540000018076201389234733967_);}
	.st48{fill:#F1F1F1;}
	.st49{fill:#E8E8E8;}
	.st50{fill:#FEFEFE;}
	.st51{fill:#CCCCCC;}
	.st52{fill:#B3B3B3;}
	.st53{fill:#E6E6E6;}
	.st54{fill:#EBEBEB;}
	.st55{fill:#EEEEEE;}
	.st56{fill:#F8F8F8;}
	.st57{fill:#FBFBFB;}
	.st58{fill:#383838;}
	.st59{fill:#232323;}
	.st60{fill:#F6F6F6;}
	.st61{fill:#535353;}
	.st62{fill:#0A0A0A;}
	.st63{fill:#F5F5F5;}
	.st64{fill:#818181;}
	.st65{fill:#4A4A4A;}
	.st66{fill:#999999;}
	.st67{fill:url(#SVGID_00000155843517003586169800000015602738594236657039_);}
	.st68{fill:url(#SVGID_00000060021440330875150020000003433538167282277802_);}
	.st69{fill:#0E0E0D;}
	.st70{fill:#333333;}
	.st71{fill:#808080;}
	.st72{fill:url(#SVGID_00000047044573104893680150000000901475880917956536_);}
	.st73{fill:#666666;}
	.st74{fill:url(#SVGID_00000153671520302846114660000005733210706861681565_);}
	.st75{fill:url(#SVGID_00000079458771511988680650000013215574011899620492_);}
	.st76{fill:url(#SVGID_00000044896210180231591850000013782999892343232913_);}
	.st77{fill:url(#SVGID_00000111875180386795117100000002491736246811153559_);}
	.st78{fill:url(#SVGID_00000090993551115004254490000011709029457370381699_);}
	.st79{clip-path:url(#SVGID_00000154405958874892073780000011371459061088704658_);}
	.st80{clip-path:url(#SVGID_00000167395667168100356580000007486750232792571530_);}
	.st81{clip-path:url(#SVGID_00000062910966638368531380000007449290039050474167_);}
	.st82{clip-path:url(#SVGID_00000058556254600146943400000007899886255083595696_);}
	.st83{clip-path:url(#SVGID_00000090977912153158581640000006603383939981315767_);}
	.st84{fill:#241F20;stroke:#000000;stroke-width:0.5;stroke-miterlimit:10;}
	.st85{clip-path:url(#SVGID_00000015329007049030795980000001355008573862708411_);}
	.st86{clip-path:url(#SVGID_00000057854214977096605850000001569479851096868736_);}
	.st87{clip-path:url(#SVGID_00000044138748469125520040000000845549237255597496_);}
	.st88{clip-path:url(#SVGID_00000002368022477584789340000003287514578987672715_);}
	.st89{clip-path:url(#SVGID_00000012458804894462235110000000830816082806628505_);}
	.st90{clip-path:url(#SVGID_00000014631410117575591720000006508145784494088066_);}
	.st91{clip-path:url(#SVGID_00000079461173474862263380000012962411018693090438_);}
	.st92{clip-path:url(#SVGID_00000067211325000207700040000018021574418787355572_);}
	.st93{clip-path:url(#SVGID_00000059992778802062280880000006131240325676985479_);}
	.st94{clip-path:url(#SVGID_00000075879698436133663750000009597061038231653551_);}
	.st95{clip-path:url(#SVGID_00000171703225004379157660000005280109680710697344_);}
	.st96{clip-path:url(#SVGID_00000023239314119312824830000015661162706319150217_);}
	.st97{clip-path:url(#SVGID_00000057146610814884712860000003934054075531462556_);}
	.st98{clip-path:url(#SVGID_00000077286637456480885030000013374459981622372020_);}
	.st99{clip-path:url(#SVGID_00000030467026113355836940000004190766369656238212_);}
	.st100{clip-path:url(#SVGID_00000091732644127201373740000011063405594638177214_);}
	.st101{clip-path:url(#SVGID_00000101076171043425580890000002825539356596164013_);}
	.st102{clip-path:url(#SVGID_00000147183948999833076060000001097908098416140968_);}
	.st103{clip-path:url(#SVGID_00000178921699611224303930000006602148121574309035_);}
	.st104{clip-path:url(#SVGID_00000011013334002318309000000001539110446835481491_);}
	.st105{clip-path:url(#SVGID_00000012472651128753442770000007266909604354141356_);}
	.st106{clip-path:url(#SVGID_00000167358957690356749990000014859151509446518175_);}
	.st107{clip-path:url(#SVGID_00000029047640217532873880000011958444853862024361_);}
	.st108{clip-path:url(#SVGID_00000165234753918343394750000006084674655933773222_);}
	.st109{clip-path:url(#SVGID_00000175284366475938576960000017160207409932351911_);}
	.st110{clip-path:url(#SVGID_00000070096749292298561030000002785963660030199173_);}
	.st111{clip-path:url(#SVGID_00000052095784297950681230000001788312389991842721_);}
	.st112{clip-path:url(#SVGID_00000153675081690452339220000001810919728792928151_);}
	.st113{clip-path:url(#SVGID_00000158025732704492366030000005793026562523929008_);}
	.st114{clip-path:url(#SVGID_00000116231610080535603900000015797169103798978455_);}
	.st115{fill:#FFFFFF;stroke:#000000;stroke-miterlimit:10;}
	.st116{clip-path:url(#SVGID_00000037692945590165665940000011298252033117682085_);}
	.st117{clip-path:url(#SVGID_00000149360787247268241650000002092535443929336219_);}
	.st118{fill:none;stroke:#010101;stroke-miterlimit:10;}
	.st119{fill:#010101;stroke:#000000;stroke-miterlimit:10;}
	.st120{clip-path:url(#SVGID_00000047778609255953574770000017981800316327663492_);}
	.st121{fill:#010101;stroke:#010101;stroke-miterlimit:10;}
	.st122{clip-path:url(#SVGID_00000047766836705317050040000012443615761286585530_);}
	.st123{clip-path:url(#SVGID_00000052080368765384853870000018030711301514143664_);}
	.st124{clip-path:url(#SVGID_00000117667248409435512910000008651487130193367698_);}
	.st125{clip-path:url(#SVGID_00000080903260167468375850000001094275126364019619_);}
	.st126{clip-path:url(#SVGID_00000172419672747707793340000003253729175613491877_);}
	.st127{fill:none;stroke:#000000;stroke-width:3;stroke-miterlimit:10;}
	.st128{clip-path:url(#SVGID_00000008861145028880862580000002675740141047142294_);}
	.st129{clip-path:url(#SVGID_00000116207173522787034580000002472996784318304696_);}
	.st130{clip-path:url(#SVGID_00000060728657095949578290000013937607527035784107_);}
	.st131{clip-path:url(#SVGID_00000054985080722209797980000018387495883374221742_);}
	.st132{fill:#040606;}
	.st133{clip-path:url(#SVGID_00000076585813120742148960000001430821972425179533_);}
	.st134{clip-path:url(#SVGID_00000014597184572846893500000007745111787107118994_);}
	.st135{clip-path:url(#SVGID_00000157298054221209657570000005935686219280082363_);}
	.st136{clip-path:url(#SVGID_00000150803995857126392300000014000213083248395422_);}
	.st137{clip-path:url(#SVGID_00000078758978121880390350000011811329314841043603_);}
	.st138{clip-path:url(#SVGID_00000001624956214631652890000011970529039003046830_);}
	.st139{clip-path:url(#SVGID_00000124126795213195905320000010005109567641752510_);}
	.st140{fill:#FFFFFF;stroke:#000000;stroke-width:1.5;stroke-miterlimit:10;}
	.st141{clip-path:url(#SVGID_00000067917381441094420560000013453856145465451687_);}
	.st142{fill:#BDBCBC;}
	.st143{clip-path:url(#SVGID_00000180339056867529312330000001749085540772869008_);}
	.st144{fill:#2E2A2B;}
	.st145{clip-path:url(#SVGID_00000017474586743082586140000000092185042486037401_);}
	.st146{clip-path:url(#SVGID_00000157267931803188334940000003425409994611394463_);}
	.st147{clip-path:url(#SVGID_00000080170040326839425540000009231743654585600179_);}
	.st148{clip-path:url(#SVGID_00000001649350710182306720000010508672566446778540_);}
	.st149{clip-path:url(#SVGID_00000020376485233015187280000009601804822642894482_);}
	.st150{fill:#272324;}
	.st151{clip-path:url(#SVGID_00000091706622941705851890000016908532641808450723_);}
	.st152{clip-path:url(#SVGID_00000092418415638094098380000012142064573019238032_);}
	.st153{clip-path:url(#SVGID_00000170251052662639048160000010552485711825593761_);}
	.st154{clip-path:url(#SVGID_00000095324400542298924490000007975610673350774172_);}
	.st155{clip-path:url(#SVGID_00000092424107793921462420000013501979197548664244_);}
	.st156{clip-path:url(#SVGID_00000176022131411323103020000000772330911524842171_);}
	.st157{fill:none;stroke:#000000;stroke-width:0.8735;stroke-linecap:round;stroke-linejoin:round;stroke-miterlimit:10;}
	.st158{clip-path:url(#SVGID_00000079457154671490671060000006046219694098522787_);}
	.st159{clip-path:url(#SVGID_00000062880664162805718230000017777744473857902995_);}
	.st160{clip-path:url(#SVGID_00000068660000996941359580000016914272634292289973_);}
	.st161{clip-path:url(#SVGID_00000029044380420625112130000016054427473366338194_);}
	.st162{clip-path:url(#SVGID_00000078023800448094175530000008021874529310260143_);}
	.st163{clip-path:url(#SVGID_00000155119085488622713470000009493405276585129405_);}
	.st164{clip-path:url(#SVGID_00000074426938044190506120000005449604405900185500_);}
	.st165{clip-path:url(#SVGID_00000160192084668956115630000013224440953230939833_);}
	.st166{clip-path:url(#SVGID_00000112599903377596752880000004925150784836460189_);}
	.st167{clip-path:url(#SVGID_00000073704422776168185640000005409945364196940451_);}
	.st168{clip-path:url(#SVGID_00000048470411841894436890000015654095707615386248_);}
	.st169{clip-path:url(#SVGID_00000173842378407887017950000018003324558400313995_);}
	.st170{clip-path:url(#SVGID_00000154390284882818273180000010128492934532624311_);}
	.st171{clip-path:url(#SVGID_00000056424165693480398730000012258586868691633297_);}
	.st172{clip-path:url(#SVGID_00000144340306056281168380000009737793442128379524_);}
	.st173{clip-path:url(#SVGID_00000143600005608579154560000010738928427727710115_);}
	.st174{clip-path:url(#SVGID_00000168798250341214516600000001595709992124623026_);}
	.st175{clip-path:url(#SVGID_00000158733955205087813150000000379364838559287985_);}
	.st176{clip-path:url(#SVGID_00000113327610660439480360000003193134512001380480_);}
	.st177{clip-path:url(#SVGID_00000170958029897747455420000005676524026109421230_);}
	.st178{clip-path:url(#SVGID_00000007399221923764381670000003675841829118263718_);}
	.st179{clip-path:url(#SVGID_00000165953191959379699450000000266989327473526950_);}
	.st180{clip-path:url(#SVGID_00000083089101599663243190000001941283538336999847_);}
	.st181{clip-path:url(#SVGID_00000088121693336407383120000009266612336797170879_);}
	.st182{clip-path:url(#SVGID_00000179624750788339751310000007106389420072379818_);}
	.st183{clip-path:url(#SVGID_00000115508352957990089740000002379943538782210442_);}
	.st184{clip-path:url(#SVGID_00000045589777869139705550000001870873515420193420_);}
	.st185{clip-path:url(#SVGID_00000077289015550792358180000008539438169896981131_);}
	.st186{clip-path:url(#SVGID_00000111875517557884483230000010908931392629069494_);}
	.st187{clip-path:url(#SVGID_00000164498150144964110940000008350632217833052582_);}
	.st188{clip-path:url(#SVGID_00000073001798078482574490000004172353385640083363_);}
	.st189{clip-path:url(#SVGID_00000008834008925951390990000010152759737634786983_);}
	.st190{clip-path:url(#SVGID_00000045578095167154632540000000674568588060932245_);}
	.st191{clip-path:url(#SVGID_00000059988986030829600290000004264121407439269041_);}
	.st192{clip-path:url(#SVGID_00000070801582411732432100000004312047778896096168_);}
	.st193{clip-path:url(#SVGID_00000084494190778702884020000013104314422355793537_);}
	.st194{clip-path:url(#SVGID_00000152953573295130542210000008392019216618202251_);}
	.st195{clip-path:url(#SVGID_00000111899087114493511170000000469010005827478940_);}
	.st196{fill:#E5E5E5;}
	.st197{fill:#1D1D1B;}
	.st198{fill:none;stroke:#000000;stroke-miterlimit:10;}
	.st199{fill:#FEFEFE;stroke:#000000;stroke-miterlimit:10;}
	.st200{clip-path:url(#SVGID_00000088130197204842334080000014541287500602024332_);}
	.st201{clip-path:url(#SVGID_00000181061617046990010960000007376097755807095173_);}
	.st202{clip-path:url(#SVGID_00000104681381384717831870000009682892326926978706_);}
	.st203{fill:#231F1F;}
	.st204{fill:#020000;}
	.st205{clip-path:url(#SVGID_00000179609651416043571640000010047375940394326658_);}
	.st206{clip-path:url(#SVGID_00000142861060132212410570000005983099730261826723_);}
	.st207{clip-path:url(#SVGID_00000042710419744290270900000002208420735884700082_);}
	.st208{clip-path:url(#SVGID_00000011001812410649185580000013363833663034396290_);}
	.st209{fill:#050000;}
	.st210{clip-path:url(#SVGID_00000114063589040891753780000005702991941693173645_);}
	.st211{clip-path:url(#SVGID_00000144339946554685377330000006230607423092693167_);}
	.st212{clip-path:url(#SVGID_00000165953294731561577380000012487147016757647024_);}
	.st213{clip-path:url(#SVGID_00000174593294469412987650000016559577688734787745_);}
	.st214{clip-path:url(#SVGID_00000076573044189071059450000006603297986295718565_);}
	.st215{clip-path:url(#SVGID_00000126299962344997964120000012336636381004140961_);}
	.st216{fill:#12100F;}
	.st217{clip-path:url(#SVGID_00000120552588459858173240000006520648797622325680_);}
	.st218{clip-path:url(#SVGID_00000064337012217154810350000017043223390936907161_);}
	.st219{fill:none;stroke:#000000;stroke-width:0.5;stroke-miterlimit:10;}
	.st220{clip-path:url(#SVGID_00000006699621466446143370000010058308130049406399_);}
	.st221{clip-path:url(#SVGID_00000098180235224726637440000008632618223596566441_);}
	.st222{clip-path:url(#SVGID_00000052086213972255326510000000536646695574128770_);}
	.st223{clip-path:url(#SVGID_00000132067658644224653450000006960335506338403240_);}
	.st224{fill:none;stroke:#000000;stroke-width:0.25;stroke-miterlimit:10;}
	.st225{clip-path:url(#SVGID_00000111873099875534214410000007259992363286675880_);}
	.st226{clip-path:url(#SVGID_00000152970518095199547230000002636239395145303681_);}
	.st227{clip-path:url(#SVGID_00000099645942674391425110000012391382499761150368_);}
</style>
<g>
	<defs>
		<rect id="SVGID_00000171696557741239847840000007409276397738883737_" x="5.93" y="12.76" width="37.07" height="26.03"/>
	</defs>
	<clipPath id="SVGID_00000068669593732274756150000002178289538239107507_">
		<use xlink:href="#SVGID_00000171696557741239847840000007409276397738883737_"  style="overflow:visible;"/>
	</clipPath>
	<g style="clip-path:url(#SVGID_00000068669593732274756150000002178289538239107507_);">
		<path class="st31" d="M40.63,32.99c0.03,0.03,0.06,0.06,0.09,0.09c0.41,0.43,0.65,0.92,0.66,1.45c0,0.36-0.11,0.74-0.39,1.13
			c-0.15,0.22-0.39,0.4-0.68,0.54c-0.37,0.17-0.85,0.28-1.39,0.36c-1.21,0.17-2.72,0.15-3.64,0.41c-0.88,0.25-1.42,0.62-1.94,0.93
			c-0.6,0.36-1.19,0.66-2.16,0.72c-2.31,0.16-4.49-0.9-6.7-1.23c-4.38-0.65-7.95,0-12.05-0.99c-1.83-0.44-4.33-1.04-5.35-1.8
			c-0.62-0.46-1.12-1.16-0.99-2.07c0.03-0.22,0.16-0.52,0.38-0.85c0.48-0.67,1.42-1.45,2.88-1.67c0.33-0.05,0.67-0.09,1.01-0.13
			c0.39-1.41,0.39-4.4,0.23-6.83c-0.11-1.64-0.28-3.03-0.47-3.48c-0.46-1.11-0.87-1.46-1.04-2.11c-0.14-0.55-0.07-1.01,0.14-1.38
			c0.3-0.53,0.91-0.88,1.64-0.97c0.35-0.05,0.77,0.04,1.22,0.18c0.58,0.18,1.25,0.46,1.99,0.58c2,0.32,6.02,0.21,10.57-0.21
			c0,0,0.01,0,0.01,0c4.31-0.25,10.03-1.11,12.17-1.75c0.72-0.22,1.35-0.58,1.9-0.83c0.44-0.2,0.84-0.34,1.19-0.34
			c0.74,0,1.38,0.26,1.75,0.75c0.25,0.33,0.39,0.78,0.32,1.35c-0.08,0.67-0.44,1.08-0.75,2.23c-0.24,0.89-0.07,4.43,0.22,7.37
			c0.19,1.93,0.43,3.6,0.66,4.07c0.41,0.8,0.7,1.47,0.81,2.02c0.08,0.44,0.05,0.83-0.12,1.18c-0.17,0.36-0.5,0.68-1.03,0.96
			C41.33,32.9,40.98,32.98,40.63,32.99z M11.22,29.83c2.58-0.16,5.14,0.08,7.01,0.31c-0.01-0.07-0.01-0.14,0-0.23
			c0.01-0.25,0.09-0.6,0.22-1.03c0.39-1.29,1.21-3.33,1.45-5.11c0.17-1.22-0.11-2.2-0.2-2.95c-0.08-0.66-0.02-1.17,0.34-1.54
			c0.66-0.69,1.41-0.71,2.19-0.53c0.61,0.14,1.22,0.44,1.79,0.47c1.15,0.06,3.41,0.16,5.6,0.55c2.37,0.33,4.75,1.17,5.96,1.53
			c0.54,0.16,1.22,0.09,1.84,0.15c0.79,0.08,1.49,0.35,1.89,1.22c0.22,0.46,0.11,0.97-0.19,1.56c-0.34,0.67-0.93,1.51-1.18,2.71
			c-0.3,1.42-0.3,3.13-0.33,4.44c0.37,0.1,0.87,0.28,1.38,0.52c0.04,0,0.07,0,0.12,0c0.92,0.18,1.44,0.48,2.29,0.04
			c0.39-0.2,0.62-0.41,0.7-0.68c0.09-0.28,0.03-0.61-0.1-1c-0.14-0.4-0.36-0.86-0.62-1.38c-0.25-0.5-0.54-2.28-0.74-4.35
			c-0.3-3.06-0.45-6.73-0.2-7.66c0.3-1.1,0.65-1.48,0.74-2.12c0.04-0.32-0.02-0.57-0.16-0.76c-0.23-0.3-0.64-0.42-1.09-0.42
			c-0.25,0-0.53,0.12-0.85,0.26c-0.58,0.27-1.24,0.64-2,0.87c-2.18,0.65-7.99,1.53-12.35,1.78c-4.64,0.44-8.74,0.53-10.78,0.21
			c-0.78-0.13-1.5-0.41-2.11-0.61c-0.33-0.1-0.62-0.18-0.87-0.15C10.5,16,10.11,16.17,9.92,16.5c-0.12,0.2-0.14,0.46-0.06,0.77
			c0.17,0.62,0.56,0.95,1.01,2c0.2,0.48,0.41,1.97,0.53,3.74C11.56,25.38,11.56,28.26,11.22,29.83z M18.88,31.04
			c-2.25-0.28-5.97-0.73-9.41-0.2c-1.01,0.15-1.73,0.63-2.15,1.11c-0.25,0.28-0.39,0.54-0.42,0.71c-0.09,0.58,0.27,1.01,0.66,1.29
			c0.97,0.71,3.33,1.24,5.06,1.66c4.08,0.98,7.63,0.33,11.98,0.97c2.15,0.32,4.27,1.38,6.52,1.23c0.81-0.06,1.29-0.31,1.79-0.61
			c0.58-0.35,1.16-0.74,2.13-1.02c0.93-0.27,2.44-0.27,3.67-0.43c0.02-0.01,0.04-0.02,0.06-0.04c0.09-0.05,0.18-0.2,0.23-0.35
			c0.03-0.12,0.04-0.25-0.08-0.34c-0.14-0.1-0.33-0.12-0.56-0.12c-0.31,0-0.7,0.06-1.17,0.12c-1.03,0.13-2.6,0.36-4,0.84
			c-0.64,0.22-0.91,0.7-1.2,1.01c-0.32,0.34-0.65,0.53-1.16,0.44c-0.93-0.17-1.44-1.35-0.58-2.39c0.55-0.66,1.34-1.06,2.2-1.29
			c0.46-0.13,0.95-0.2,1.42-0.25c-0.02,0-0.04-0.01-0.06-0.02c-1.04-0.37-2-0.43-3.01-0.44c-1.07-0.02-2.19,0.01-3.52-0.19
			c-0.04,0-0.08-0.02-0.12-0.03c-0.02,0-0.05-0.01-0.08-0.01c-1.11-0.27-1.98-0.66-2.86-0.98c-0.81-0.3-1.62-0.54-2.62-0.53
			c-0.68,0-1.49,0.17-2.12,0.07C19.26,31.21,19.05,31.14,18.88,31.04z M35.75,34.12c-0.77,0.01-1.98,0-3.07,0.3
			c-0.69,0.19-1.34,0.49-1.78,1.03c-0.38,0.44-0.31,0.98,0.09,1.06c0.15,0.03,0.25-0.04,0.34-0.13c0.07-0.07,0.14-0.15,0.22-0.24
			c0.32-0.37,0.69-0.82,1.38-1.06c1.47-0.5,3.11-0.75,4.18-0.88c0.62-0.08,1.11-0.14,1.5-0.11c0.32,0.02,0.59,0.11,0.82,0.27
			c0.43,0.3,0.51,0.74,0.41,1.16c0.21-0.08,0.39-0.18,0.49-0.32c0.16-0.23,0.24-0.46,0.24-0.67c0-0.33-0.18-0.62-0.43-0.89
			c-0.65-0.69-1.8-1.18-2.56-1.41c0,0,0,0.01,0,0.01c-0.02,0.45-0.06,0.81-0.13,1.05c-0.05,0.16-0.11,0.28-0.18,0.35
			c-0.41,0.48-0.91,0.58-1.46,0.48C35.78,34.13,35.76,34.12,35.75,34.12z M27.37,31.91c0.02,0,0.03,0,0.05,0
			c1.28,0.2,2.37,0.16,3.41,0.18c1.1,0.02,2.14,0.09,3.28,0.5c0.51,0.18,1.06,0.5,1.58,0.67c0.35,0.11,0.68,0.16,0.93-0.13
			c0-0.02,0.05-0.14,0.06-0.23c0.03-0.18,0.05-0.42,0.07-0.69c0.07-1.37-0.01-3.63,0.37-5.43c0.27-1.29,0.89-2.19,1.25-2.91
			c0.16-0.33,0.3-0.6,0.18-0.85c-0.25-0.55-0.72-0.69-1.22-0.75c-0.67-0.07-1.41-0.01-1.99-0.18c-1.18-0.35-3.52-1.18-5.85-1.5
			c0,0-0.01,0-0.02,0c-2.14-0.38-4.36-0.48-5.5-0.54c-0.61-0.03-1.28-0.33-1.94-0.49c-0.49-0.12-0.98-0.14-1.41,0.3
			c-0.2,0.2-0.16,0.5-0.12,0.86c0.1,0.8,0.38,1.85,0.2,3.16c-0.25,1.82-1.08,3.92-1.48,5.24c-0.07,0.26-0.14,0.48-0.17,0.67
			c-0.02,0.09-0.02,0.23-0.02,0.24c0.14,0.35,0.46,0.41,0.83,0.43c0.55,0.02,1.17-0.1,1.72-0.11c1.11,0,2,0.25,2.91,0.58
			c0.85,0.31,1.7,0.69,2.77,0.95C27.31,31.89,27.34,31.9,27.37,31.91z M8.78,32.67c-0.22-0.06-0.35-0.28-0.29-0.5
			c0.06-0.22,0.28-0.35,0.51-0.29c5.39,1.42,18.46,1.97,19.52,1.76c0.23-0.04,0.44,0.1,0.48,0.32c0.05,0.22-0.1,0.44-0.32,0.48
			C27.59,34.65,14.27,34.12,8.78,32.67z"/>
	</g>
</g>
</svg>
