<?xml version="1.0" encoding="utf-8"?>
<!-- Generator: Adobe Illustrator 27.3.1, SVG Export Plug-In . SVG Version: 6.00 Build 0)  -->
<svg version="1.1" id="Layer_1" xmlns="http://www.w3.org/2000/svg" xmlns:xlink="http://www.w3.org/1999/xlink" x="0px" y="0px"
	 viewBox="0 0 50 50" style="enable-background:new 0 0 50 50;" xml:space="preserve">
<style type="text/css">
	.st0{fill:none;}
	.st1{stroke:#000000;stroke-miterlimit:10;}
	.st2{stroke:#000000;stroke-width:0.75;stroke-miterlimit:10;}
	.st3{clip-path:url(#SVGID_00000086666556569925232580000014825667621779475842_);}
	.st4{clip-path:url(#SVGID_00000058574686752678368200000018213225648649563819_);}
	.st5{fill:#FFFFFF;}
	.st6{clip-path:url(#SVGID_00000132069969900533827220000008914874209966972840_);}
	.st7{fill:#231F20;}
	.st8{clip-path:url(#SVGID_00000151516154250162600470000006455933745968725419_);}
	.st9{clip-path:url(#SVGID_00000003824832197524858500000013520398995236939676_);}
	.st10{clip-path:url(#SVGID_00000119837483578651615590000003631087137444157830_);}
	.st11{clip-path:url(#SVGID_00000021817030163672954130000017982778786179627193_);}
	.st12{clip-path:url(#SVGID_00000044870683302493608980000011896753834703794613_);}
	.st13{clip-path:url(#SVGID_00000142153971961049710540000001172350494808921234_);}
	.st14{clip-path:url(#SVGID_00000054944756031519197900000014132861061510934974_);}
	.st15{clip-path:url(#SVGID_00000108989072432957519560000003012416561447926704_);}
	.st16{clip-path:url(#SVGID_00000037688185844162391870000002783491656347715976_);}
	.st17{clip-path:url(#SVGID_00000145776341814372946010000001595096586427068860_);}
	.st18{clip-path:url(#SVGID_00000011033582243812231030000015017567295276749963_);}
	.st19{clip-path:url(#SVGID_00000071560991627117992870000000588380838950755477_);}
	.st20{clip-path:url(#SVGID_00000127005392362940229880000003973006620052473014_);}
	.st21{clip-path:url(#SVGID_00000053546395848293702040000006350338521731419537_);}
	.st22{clip-path:url(#SVGID_00000127017998397895708110000011467665173374227359_);}
	.st23{clip-path:url(#SVGID_00000045607940784704046340000013395534812112525972_);}
	.st24{clip-path:url(#SVGID_00000145023686489886236300000002492134176599397025_);}
	.st25{clip-path:url(#SVGID_00000011725789655262542320000007049819923882566819_);}
	.st26{clip-path:url(#SVGID_00000177480785328520652100000016851225975583600272_);}
	.st27{clip-path:url(#SVGID_00000088843483288275964920000009011992130886095768_);}
	.st28{clip-path:url(#SVGID_00000132768936735746331660000011182747617682038407_);}
	.st29{clip-path:url(#SVGID_00000041297932036444364840000014850260343413963929_);}
	.st30{clip-path:url(#SVGID_00000011741050470137767040000002064499949465985409_);}
	.st31{fill-rule:evenodd;clip-rule:evenodd;}
	.st32{clip-path:url(#SVGID_00000117635324412321645860000003216859066825972374_);}
	.st33{clip-path:url(#SVGID_00000147902454255078929030000016182295734598213523_);}
	.st34{stroke:#000000;stroke-width:0.5;stroke-miterlimit:10;}
	.st35{clip-path:url(#SVGID_00000130647650508352061490000008082238491164625314_);}
	.st36{clip-path:url(#SVGID_00000087408738661648783650000007726731296885481621_);}
	.st37{clip-path:url(#SVGID_00000068675381856042578550000009931398047474689692_);}
	.st38{fill:#1A1A1A;}
	.st39{clip-path:url(#SVGID_00000157990902514976197430000016676435262112387975_);}
	.st40{clip-path:url(#SVGID_00000156573658984179382350000010635521605739494784_);}
	.st41{clip-path:url(#SVGID_00000103977655434699588950000008729954682629772450_);}
	.st42{clip-path:url(#SVGID_00000147186709809678876650000003001549067073504389_);}
	.st43{clip-path:url(#SVGID_00000082343485889650375820000008317637019325909385_);}
	.st44{clip-path:url(#SVGID_00000110469379531899439580000017117741842958412179_);}
	.st45{clip-path:url(#SVGID_00000114037754144924022760000009158202556462702260_);}
	.st46{clip-path:url(#SVGID_00000140002151374267228750000010320963053067337133_);}
	.st47{clip-path:url(#SVGID_00000055679762103083199320000016672573548752519047_);}
	.st48{fill:#F1F1F1;}
	.st49{fill:#E8E8E8;}
	.st50{fill:#FEFEFE;}
	.st51{fill:#CCCCCC;}
	.st52{fill:#B3B3B3;}
	.st53{fill:#E6E6E6;}
	.st54{fill:#EBEBEB;}
	.st55{fill:#EEEEEE;}
	.st56{fill:#F8F8F8;}
	.st57{fill:#FBFBFB;}
	.st58{fill:#383838;}
	.st59{fill:#232323;}
	.st60{fill:#F6F6F6;}
	.st61{fill:#535353;}
	.st62{fill:#0A0A0A;}
	.st63{fill:#F5F5F5;}
	.st64{fill:#818181;}
	.st65{fill:#4A4A4A;}
	.st66{fill:#999999;}
	.st67{fill:url(#SVGID_00000120528715272307114440000005206460175138219703_);}
	.st68{fill:url(#SVGID_00000170268364798884129660000000954065453541730188_);}
	.st69{fill:#0E0E0D;}
	.st70{fill:#333333;}
	.st71{fill:#808080;}
	.st72{fill:url(#SVGID_00000053519030653418911090000000701390019123756948_);}
	.st73{fill:#666666;}
	.st74{fill:url(#SVGID_00000109025258187474145390000007626766022214794158_);}
	.st75{fill:url(#SVGID_00000060009014712780961350000014882218718832539789_);}
	.st76{fill:url(#SVGID_00000085245447679485495760000001393247954172795832_);}
	.st77{fill:url(#SVGID_00000111912781010717779010000010100447723009435024_);}
	.st78{fill:url(#SVGID_00000067209522752017984730000006116720388116767140_);}
	.st79{clip-path:url(#SVGID_00000137831610261651996390000000960153432000546185_);}
	.st80{clip-path:url(#SVGID_00000133517794380465692280000008452190689101504701_);}
	.st81{clip-path:url(#SVGID_00000070836195718311963470000010442650038367354752_);}
	.st82{clip-path:url(#SVGID_00000138569115356333573010000014160990772716299394_);}
	.st83{clip-path:url(#SVGID_00000086651352999332445310000017182138176365454761_);}
	.st84{fill:#241F20;stroke:#000000;stroke-width:0.5;stroke-miterlimit:10;}
	.st85{clip-path:url(#SVGID_00000166641692403689899710000000419046365274078371_);}
	.st86{clip-path:url(#SVGID_00000022530789109518050410000011447347028882125969_);}
	.st87{clip-path:url(#SVGID_00000065052906160182208720000007023585170684466856_);}
	.st88{clip-path:url(#SVGID_00000176008687709015667650000006324240796218197638_);}
	.st89{clip-path:url(#SVGID_00000121999177586904277550000001394837985042592163_);}
	.st90{clip-path:url(#SVGID_00000065792773793345656220000013268656126867566989_);}
	.st91{clip-path:url(#SVGID_00000122719007847680694800000018320250301498362542_);}
	.st92{clip-path:url(#SVGID_00000050661806876660824390000009632346602408755589_);}
	.st93{clip-path:url(#SVGID_00000029737236339629229780000004607756888355720355_);}
	.st94{clip-path:url(#SVGID_00000112627158424400751430000010331549826144030600_);}
	.st95{clip-path:url(#SVGID_00000008123641852476191160000013192557690898604468_);}
	.st96{clip-path:url(#SVGID_00000021811054082459280300000008434263683995941046_);}
	.st97{clip-path:url(#SVGID_00000137851664413078296150000017431758556137502397_);}
	.st98{clip-path:url(#SVGID_00000063605070074571220250000016264535434353740943_);}
	.st99{clip-path:url(#SVGID_00000079473313932297925390000013183996347928431268_);}
	.st100{clip-path:url(#SVGID_00000079488442070205362160000015782519926768564156_);}
	.st101{clip-path:url(#SVGID_00000005238249990711345600000007611343293857416125_);}
	.st102{clip-path:url(#SVGID_00000085940247954860392530000013283256186880517553_);}
	.st103{clip-path:url(#SVGID_00000085230560302877912290000007335076075032997817_);}
	.st104{clip-path:url(#SVGID_00000110453341678038739630000016644354045067031957_);}
	.st105{clip-path:url(#SVGID_00000075159118541848684370000007616789700294456193_);}
	.st106{clip-path:url(#SVGID_00000181054796358279910120000002823327816599939971_);}
	.st107{clip-path:url(#SVGID_00000142881679177686508990000015182187684847943841_);}
	.st108{clip-path:url(#SVGID_00000121277927193525370130000016874499311474536123_);}
	.st109{clip-path:url(#SVGID_00000175315890715834045070000006883751490614837385_);}
	.st110{clip-path:url(#SVGID_00000015325297179364459690000015923273607003749267_);}
	.st111{clip-path:url(#SVGID_00000153666539206990964320000005207403177391076245_);}
	.st112{clip-path:url(#SVGID_00000183955817448012250560000001749945361796753849_);}
	.st113{clip-path:url(#SVGID_00000182507490584996841530000010591893362290043023_);}
	.st114{clip-path:url(#SVGID_00000072977412781536978170000014452046657164135852_);}
	.st115{fill:#FFFFFF;stroke:#000000;stroke-miterlimit:10;}
	.st116{clip-path:url(#SVGID_00000047739289979362540510000012320166419633388981_);}
	.st117{clip-path:url(#SVGID_00000088128643323859428930000002745196432110561972_);}
	.st118{fill:none;stroke:#010101;stroke-miterlimit:10;}
	.st119{fill:#010101;stroke:#000000;stroke-miterlimit:10;}
	.st120{clip-path:url(#SVGID_00000065032467924938555530000005599425774831155110_);}
	.st121{fill:#010101;stroke:#010101;stroke-miterlimit:10;}
	.st122{clip-path:url(#SVGID_00000105386236907202321710000009051901493222029492_);}
	.st123{clip-path:url(#SVGID_00000157267612142994352220000015838711308718062004_);}
	.st124{clip-path:url(#SVGID_00000044867423056504618310000003670347545284718470_);}
	.st125{clip-path:url(#SVGID_00000179634030628728319000000016134444288610156703_);}
	.st126{clip-path:url(#SVGID_00000093151869608201478500000003441924609829731465_);}
	.st127{fill:none;stroke:#000000;stroke-width:3;stroke-miterlimit:10;}
	.st128{clip-path:url(#SVGID_00000165203438467150477480000013562728160210838961_);}
	.st129{clip-path:url(#SVGID_00000182527813635445658530000011127817258603549621_);}
	.st130{clip-path:url(#SVGID_00000011710450176168155460000014308722373559320234_);}
	.st131{clip-path:url(#SVGID_00000140700212362644989680000009610544441705056640_);}
	.st132{fill:#040606;}
	.st133{clip-path:url(#SVGID_00000168834718787766879210000015056984838397704862_);}
	.st134{clip-path:url(#SVGID_00000049901854359520734260000006043998412471670171_);}
	.st135{clip-path:url(#SVGID_00000016062356246055560950000016339210629706668694_);}
	.st136{clip-path:url(#SVGID_00000160901089554398976470000008840430141316507808_);}
	.st137{clip-path:url(#SVGID_00000117642868661058277740000006225496896120808580_);}
	.st138{clip-path:url(#SVGID_00000034796597031727168890000008093065909485321381_);}
	.st139{clip-path:url(#SVGID_00000133488844332289560900000013756041587233588890_);}
	.st140{fill:#FFFFFF;stroke:#000000;stroke-width:1.5;stroke-miterlimit:10;}
	.st141{clip-path:url(#SVGID_00000097462838151560812070000012004025590918311065_);}
	.st142{fill:#BDBCBC;}
	.st143{clip-path:url(#SVGID_00000114766193650995672620000004020063464821521050_);}
	.st144{fill:#2E2A2B;}
	.st145{clip-path:url(#SVGID_00000173159961887261392470000005515147325595477420_);}
	.st146{clip-path:url(#SVGID_00000090982189455406405140000003581275071231433889_);}
	.st147{clip-path:url(#SVGID_00000171708579660229092740000005226830530390306469_);}
	.st148{clip-path:url(#SVGID_00000079458775213340200080000012856512412120150716_);}
	.st149{clip-path:url(#SVGID_00000016067888956053901160000004078013518714969996_);}
	.st150{fill:#272324;}
	.st151{clip-path:url(#SVGID_00000120540651171007669790000011639483939470189453_);}
	.st152{clip-path:url(#SVGID_00000160189594968993457660000009738667682290616227_);}
	.st153{clip-path:url(#SVGID_00000161617502892326196840000015982609540908718003_);}
	.st154{clip-path:url(#SVGID_00000155119048638755347760000018103105334212174225_);}
	.st155{clip-path:url(#SVGID_00000139292968975430194010000004469517630661939346_);}
	.st156{clip-path:url(#SVGID_00000021106497153046886940000017557895941430440096_);}
	.st157{fill:none;stroke:#000000;stroke-width:0.8735;stroke-linecap:round;stroke-linejoin:round;stroke-miterlimit:10;}
	.st158{clip-path:url(#SVGID_00000158009649577480849920000011381776255922878121_);}
	.st159{clip-path:url(#SVGID_00000153692530330790155920000013234510683447278510_);}
	.st160{clip-path:url(#SVGID_00000155847369110949110810000001690424768210429060_);}
	.st161{clip-path:url(#SVGID_00000079455610673055317240000006515408922735093139_);}
	.st162{clip-path:url(#SVGID_00000154418577002240738760000004465800013329405875_);}
	.st163{clip-path:url(#SVGID_00000152978106855021272180000007945191876722951590_);}
	.st164{clip-path:url(#SVGID_00000178883473800549822400000015857157113654192571_);}
	.st165{clip-path:url(#SVGID_00000181803004501379536230000013218763568709783989_);}
	.st166{clip-path:url(#SVGID_00000072274389194817631480000013834279442204096672_);}
	.st167{clip-path:url(#SVGID_00000142134224865555695720000010581507731945467782_);}
	.st168{clip-path:url(#SVGID_00000011722925748627138480000011787586667361164724_);}
	.st169{clip-path:url(#SVGID_00000096039353126907193350000002363154334378612643_);}
	.st170{clip-path:url(#SVGID_00000145761091925830776700000011589314774760526258_);}
	.st171{clip-path:url(#SVGID_00000178884399512538653470000017835919696638920334_);}
	.st172{clip-path:url(#SVGID_00000075128756850096787410000007823592576401330607_);}
	.st173{clip-path:url(#SVGID_00000026886430535290395760000001769556011594485180_);}
	.st174{clip-path:url(#SVGID_00000129913287904094398430000008823259333956835715_);}
	.st175{clip-path:url(#SVGID_00000075142571506504119590000003758609636198324917_);}
	.st176{clip-path:url(#SVGID_00000144312640133882882110000000800485118075151779_);}
	.st177{clip-path:url(#SVGID_00000075880301919272729550000016666878168599735714_);}
	.st178{clip-path:url(#SVGID_00000097461744972012233630000001136344312959725240_);}
	.st179{clip-path:url(#SVGID_00000155146928316654486500000013628942574616993698_);}
	.st180{clip-path:url(#SVGID_00000129925775404857142900000000511778617479492526_);}
	.st181{clip-path:url(#SVGID_00000039095887715110195060000000822843603407678355_);}
	.st182{clip-path:url(#SVGID_00000009591481233297934060000015761459089715982507_);}
	.st183{clip-path:url(#SVGID_00000001622107102554762680000006449296239822802608_);}
	.st184{clip-path:url(#SVGID_00000054982252940794135430000002269174520966585023_);}
	.st185{clip-path:url(#SVGID_00000044169888430461556190000009508662962261148351_);}
	.st186{clip-path:url(#SVGID_00000044154886356835273470000007685752570655007657_);}
	.st187{clip-path:url(#SVGID_00000106125914169455490940000005500149082581297586_);}
	.st188{clip-path:url(#SVGID_00000158004700999084448340000000447748975058679217_);}
	.st189{clip-path:url(#SVGID_00000022561960694073343520000007408726492324572802_);}
	.st190{clip-path:url(#SVGID_00000076577791087144137730000003264224928260461453_);}
	.st191{clip-path:url(#SVGID_00000147188637910520542120000002620733939359208844_);}
	.st192{clip-path:url(#SVGID_00000078012066991044723550000010884041517822315167_);}
	.st193{clip-path:url(#SVGID_00000180353471543619713360000012112859484160624525_);}
	.st194{clip-path:url(#SVGID_00000129887723359822913360000010348254659044374444_);}
	.st195{clip-path:url(#SVGID_00000008867686830439223370000000922892690384444852_);}
	.st196{fill:#E5E5E5;}
	.st197{fill:#1D1D1B;}
	.st198{fill:none;stroke:#000000;stroke-miterlimit:10;}
	.st199{fill:#FEFEFE;stroke:#000000;stroke-miterlimit:10;}
	.st200{clip-path:url(#SVGID_00000080906744699225934150000006107185995049497256_);}
	.st201{clip-path:url(#SVGID_00000096025271823430271480000012116827447542936199_);}
	.st202{clip-path:url(#SVGID_00000132078309355469311410000011874270990406358966_);}
	.st203{fill:#231F1F;}
	.st204{fill:#020000;}
	.st205{clip-path:url(#SVGID_00000000930842840416887350000014365357460908074680_);}
	.st206{clip-path:url(#SVGID_00000026859357145391550620000004610606952171754903_);}
	.st207{clip-path:url(#SVGID_00000039101792055980027020000000642718011042169017_);}
	.st208{clip-path:url(#SVGID_00000142153514357352371450000009307221658566559158_);}
	.st209{fill:#050000;}
	.st210{clip-path:url(#SVGID_00000056409848342817601890000016399974535462631349_);}
	.st211{clip-path:url(#SVGID_00000111155045667700395850000000752235693097003179_);}
	.st212{clip-path:url(#SVGID_00000105416203704554163100000007261682321180625848_);}
	.st213{clip-path:url(#SVGID_00000059268550022736588440000007813849687613605810_);}
	.st214{clip-path:url(#SVGID_00000037671615792404524810000003901673649500861100_);}
	.st215{clip-path:url(#SVGID_00000115472538002674539990000015527045603991178427_);}
	.st216{fill:#12100F;}
	.st217{clip-path:url(#SVGID_00000023270021354893014330000016856744104895215000_);}
	.st218{clip-path:url(#SVGID_00000146462370966698699280000016558010936878619819_);}
	.st219{fill:none;stroke:#000000;stroke-width:0.5;stroke-miterlimit:10;}
	.st220{clip-path:url(#SVGID_00000044160579609663029600000014520609101975541678_);}
	.st221{clip-path:url(#SVGID_00000169546461211910506380000014984698158163196317_);}
	.st222{clip-path:url(#SVGID_00000045590408293641613720000001735299977080003974_);}
	.st223{clip-path:url(#SVGID_00000005247117379110679690000000848184803790509502_);}
	.st224{fill:none;stroke:#000000;stroke-width:0.25;stroke-miterlimit:10;}
	.st225{clip-path:url(#SVGID_00000029729623742468943740000002309496930958569860_);}
	.st226{clip-path:url(#SVGID_00000171681262259837193060000005214035375978131895_);}
	.st227{clip-path:url(#SVGID_00000073711802365110567870000007729439838022248604_);}
</style>
<g>
	<path d="M22.8,19.27c-0.06-0.02-0.13-0.04-0.19-0.04h-5.67c-0.06,0-0.13,0.01-0.19,0.04c-0.12,0.05-0.22,0.15-0.27,0.27
		c-0.03,0.06-0.04,0.13-0.04,0.19v5.69c0,0.27,0.22,0.5,0.49,0.5h5.67c0.27,0,0.49-0.22,0.49-0.5v-5.69c0-0.06-0.01-0.13-0.04-0.19
		C23.02,19.42,22.92,19.32,22.8,19.27z M21.42,20.23l-1.64,1.65l-1.64-1.65H21.42L21.42,20.23z M17.44,24.92v-4l1.99,2
		c0.1,0.1,0.22,0.14,0.35,0.14c0.13,0,0.25-0.05,0.35-0.14l1.99-2v4H17.44z"/>
	<g>
		<defs>
			<rect id="SVGID_00000073002011190358399810000011412332549991616401_" x="9.11" y="9.82" width="28.59" height="29.81"/>
		</defs>
		<clipPath id="SVGID_00000093861828502334071880000010347756571178446778_">
			<use xlink:href="#SVGID_00000073002011190358399810000011412332549991616401_"  style="overflow:visible;"/>
		</clipPath>
		<g style="clip-path:url(#SVGID_00000093861828502334071880000010347756571178446778_);">
			<path d="M18.56,12.06c-0.22,0.07-0.44,0.1-0.68,0.1c-1.54,0-3,0.49-4.23,1.43c-1.24,0.94-2.11,2.22-2.52,3.7
				C10.02,21.24,8.93,27.3,10,33.65c0.04,0.24,0.25,0.41,0.49,0.41h3.54l0.05,5.07c0,0.27,0.22,0.49,0.49,0.49h17.98
				c0.27,0,0.49-0.22,0.5-0.49l0.05-5.07h3.54c0.24,0,0.45-0.17,0.49-0.41c1.07-6.35-0.02-12.41-1.12-16.37
				c-0.41-1.48-1.28-2.76-2.52-3.7c-1.23-0.93-2.69-1.43-4.23-1.43c-0.24,0-0.47-0.03-0.7-0.1c-0.29-0.08-0.57-0.21-0.82-0.39
				l-0.91-0.65c-0.01-0.21-0.08-0.42-0.2-0.6C26.4,10.05,26,9.83,25.56,9.83h-3.99c-0.44,0-0.84,0.22-1.07,0.59
				c-0.12,0.19-0.19,0.39-0.2,0.6l-0.91,0.65C19.14,11.85,18.87,11.97,18.56,12.06z M14.24,14.37c0.75-0.57,1.6-0.94,2.5-1.11
				l0.62,2.01l-3.05,2.07L12.76,16C13.14,15.38,13.64,14.82,14.24,14.37z M34.38,16l-1.55,1.35l-3.05-2.07l0.62-2.01
				c0.9,0.17,1.75,0.54,2.5,1.11C33.49,14.83,33.99,15.38,34.38,16L34.38,16z M29.39,13.15l-0.67,2.18
				c-0.07,0.21,0.01,0.43,0.2,0.56l3.66,2.49c0.08,0.06,0.18,0.09,0.28,0.09c0.12,0,0.23-0.04,0.32-0.12l1.65-1.43
				c0.08,0.21,0.16,0.42,0.22,0.64c1.05,3.78,2.09,9.5,1.17,15.52h-3.11l-0.06-9.35c0-0.28-0.22-0.5-0.49-0.5h0
				c-0.27,0-0.49,0.22-0.49,0.5v0l0.06,9.84l-0.05,5.06H15.07l-0.05-5.06l0.06-9.85v0c0-0.27-0.22-0.5-0.49-0.5h0
				c-0.27,0-0.49,0.22-0.49,0.5l-0.06,9.35h-3.11c-0.92-6.02,0.11-11.75,1.17-15.52c0.06-0.22,0.14-0.43,0.22-0.64l1.65,1.43
				c0.09,0.08,0.21,0.12,0.32,0.12c0.1,0,0.19-0.03,0.28-0.09l3.66-2.49c0.18-0.12,0.26-0.35,0.2-0.56l-0.67-2.18
				c0.04,0,0.09-0.01,0.13-0.01c0.17,0,0.35-0.01,0.51-0.04l1.51,4.09c0.06,0.16,0.19,0.28,0.35,0.31c0.04,0.01,0.07,0.01,0.11,0.01
				c0.13,0,0.25-0.05,0.34-0.14l1.97-1.9h1.78l1.97,1.9c0.09,0.09,0.22,0.14,0.34,0.14c0.04,0,0.07,0,0.11-0.01
				c0.16-0.04,0.29-0.16,0.35-0.31l1.51-4.09c0.17,0.02,0.34,0.04,0.51,0.04C29.31,13.15,29.35,13.15,29.39,13.15z M27.8,12.83
				l-1.23,3.31l-1.32-1.27l1.29-2.83l0.63,0.45C27.37,12.62,27.58,12.73,27.8,12.83z M21.34,10.95c0.02-0.04,0.1-0.13,0.24-0.13
				h3.99c0.14,0,0.22,0.09,0.24,0.13c0.02,0.04,0.08,0.14,0.02,0.27l-1.48,3.26H22.8l-1.48-3.26
				C21.26,11.09,21.31,10.99,21.34,10.95z M20.59,12.03l1.29,2.83l-1.32,1.28l-1.23-3.31c0.22-0.1,0.43-0.21,0.63-0.35L20.59,12.03
				L20.59,12.03z"/>
		</g>
	</g>
	<path d="M24.33,19.27c-0.12,0.05-0.22,0.15-0.27,0.27c-0.02,0.06-0.04,0.13-0.04,0.19v5.69c0,0.27,0.22,0.5,0.5,0.5h5.67
		c0.28,0,0.5-0.22,0.5-0.5v-5.69c0-0.06-0.01-0.13-0.04-0.19c-0.05-0.12-0.15-0.22-0.27-0.27c-0.06-0.02-0.13-0.04-0.19-0.04h-5.67
		C24.46,19.23,24.4,19.25,24.33,19.27z M25.02,24.92v-4l1.99,2c0.1,0.1,0.22,0.14,0.35,0.14c0.13,0,0.25-0.05,0.35-0.14l1.99-2v4
		H25.02z M25.72,20.23H29l-1.64,1.65L25.72,20.23z"/>
</g>
</svg>
