<?xml version="1.0" encoding="utf-8"?>
<!-- Generator: Adobe Illustrator 27.3.1, SVG Export Plug-In . SVG Version: 6.00 Build 0)  -->
<svg version="1.1" id="Layer_1" xmlns="http://www.w3.org/2000/svg" xmlns:xlink="http://www.w3.org/1999/xlink" x="0px" y="0px"
	 viewBox="0 0 50 50" style="enable-background:new 0 0 50 50;" xml:space="preserve">
<style type="text/css">
	.st0{fill:none;}
	.st1{stroke:#000000;stroke-miterlimit:10;}
	.st2{stroke:#000000;stroke-width:0.75;stroke-miterlimit:10;}
	.st3{clip-path:url(#SVGID_00000096780019362580193990000009877866464741341586_);}
	.st4{clip-path:url(#SVGID_00000163791691325191972260000011260128343985719949_);}
	.st5{fill:#FFFFFF;}
	.st6{clip-path:url(#SVGID_00000133511611520781044720000002469809441640123318_);}
	.st7{fill:#231F20;}
	.st8{clip-path:url(#SVGID_00000093156981350875096410000016661967247694039205_);}
	.st9{clip-path:url(#SVGID_00000091731316052077030790000017843840634841736890_);}
	.st10{clip-path:url(#SVGID_00000156565579401128433070000010416757390688214178_);}
	.st11{clip-path:url(#SVGID_00000165929792230670705650000013359713935759176891_);}
	.st12{clip-path:url(#SVGID_00000076592858870510357280000010791879111019010698_);}
	.st13{clip-path:url(#SVGID_00000165914495830334540640000003596679395295249828_);}
	.st14{clip-path:url(#SVGID_00000047033869960922395460000017616638769982658223_);}
	.st15{clip-path:url(#SVGID_00000153704213807207224730000004667355297392637114_);}
	.st16{clip-path:url(#SVGID_00000065065272611723543730000007749636220812985529_);}
	.st17{clip-path:url(#SVGID_00000020373958748662942730000007274530055974126004_);}
	.st18{clip-path:url(#SVGID_00000158738905280974482750000005918443522984863658_);}
	.st19{clip-path:url(#SVGID_00000120557332249102805170000002731124064576965516_);}
	.st20{clip-path:url(#SVGID_00000074432662946155686540000016028609588619299241_);}
	.st21{clip-path:url(#SVGID_00000059295194665434327240000009531852317038673580_);}
	.st22{clip-path:url(#SVGID_00000067224794285228665740000005429272666157097344_);}
	.st23{clip-path:url(#SVGID_00000044177162837908364200000001710322104204288141_);}
	.st24{clip-path:url(#SVGID_00000046324382733501951140000005284718341970963386_);}
	.st25{clip-path:url(#SVGID_00000048497984020232183900000007152667288726338721_);}
	.st26{clip-path:url(#SVGID_00000124132096456128984870000002815680768252723115_);}
	.st27{clip-path:url(#SVGID_00000025407424493108761260000008036663342744409987_);}
	.st28{clip-path:url(#SVGID_00000045616470197941870560000004282417089657542326_);}
	.st29{clip-path:url(#SVGID_00000181054875983861162640000017230425890299091332_);}
	.st30{clip-path:url(#SVGID_00000063592139690899082960000002227087060873018792_);}
	.st31{fill-rule:evenodd;clip-rule:evenodd;}
	.st32{clip-path:url(#SVGID_00000090293667207031741390000011919220318707130553_);}
	.st33{clip-path:url(#SVGID_00000134961993310645915550000007749748168458392200_);}
	.st34{stroke:#000000;stroke-width:0.5;stroke-miterlimit:10;}
	.st35{clip-path:url(#SVGID_00000052100909339108497700000018027500577080174517_);}
	.st36{clip-path:url(#SVGID_00000074437033092066149480000009138452570639076767_);}
	.st37{clip-path:url(#SVGID_00000079478811084100679070000004216344833813165750_);}
	.st38{fill:#1A1A1A;}
	.st39{clip-path:url(#SVGID_00000020382086021623033150000008611643737062327946_);}
	.st40{clip-path:url(#SVGID_00000068646796037268464740000012677488506822856087_);}
	.st41{clip-path:url(#SVGID_00000145764332221571870300000015193526689883849372_);}
	.st42{clip-path:url(#SVGID_00000008119018093066588450000008542031878274253203_);}
	.st43{clip-path:url(#SVGID_00000111192494348914641020000006260938260695615147_);}
	.st44{clip-path:url(#SVGID_00000100344002543431085010000005251061060739147663_);}
	.st45{clip-path:url(#SVGID_00000072993579744358355410000016486039269188921737_);}
	.st46{clip-path:url(#SVGID_00000089559366228951311070000000532892912328621462_);}
	.st47{clip-path:url(#SVGID_00000175282476045570387930000015325750465079137194_);}
	.st48{fill:#F1F1F1;}
	.st49{fill:#E8E8E8;}
	.st50{fill:#FEFEFE;}
	.st51{fill:#CCCCCC;}
	.st52{fill:#B3B3B3;}
	.st53{fill:#E6E6E6;}
	.st54{fill:#EBEBEB;}
	.st55{fill:#EEEEEE;}
	.st56{fill:#F8F8F8;}
	.st57{fill:#FBFBFB;}
	.st58{fill:#383838;}
	.st59{fill:#232323;}
	.st60{fill:#F6F6F6;}
	.st61{fill:#535353;}
	.st62{fill:#0A0A0A;}
	.st63{fill:#F5F5F5;}
	.st64{fill:#818181;}
	.st65{fill:#4A4A4A;}
	.st66{fill:#999999;}
	.st67{fill:url(#SVGID_00000068673140515326414110000008564085745218105744_);}
	.st68{fill:url(#SVGID_00000135652868345227745750000009010779217623482287_);}
	.st69{fill:#0E0E0D;}
	.st70{fill:#333333;}
	.st71{fill:#808080;}
	.st72{fill:url(#SVGID_00000146485082371845623760000002648162566757101234_);}
	.st73{fill:#666666;}
	.st74{fill:url(#SVGID_00000158007233102922250680000012937485878800623535_);}
	.st75{fill:url(#SVGID_00000036223256356672630750000006037372102843335319_);}
	.st76{fill:url(#SVGID_00000080905003934321675600000017291091175833999800_);}
	.st77{fill:url(#SVGID_00000160191216984636416950000001157317562514007484_);}
	.st78{fill:url(#SVGID_00000014634192679636759360000006987630123760598684_);}
	.st79{clip-path:url(#SVGID_00000122696828187944918850000010722395031483156136_);}
	.st80{clip-path:url(#SVGID_00000107569670232431197200000003299756788356555194_);}
	.st81{clip-path:url(#SVGID_00000016780745099210934950000014203893502177636797_);}
	.st82{clip-path:url(#SVGID_00000134949733792601432510000004348357799883491766_);}
	.st83{clip-path:url(#SVGID_00000080888065898516104590000010992484700919497646_);}
	.st84{fill:#241F20;stroke:#000000;stroke-width:0.5;stroke-miterlimit:10;}
	.st85{clip-path:url(#SVGID_00000157987716538535430920000000692652440256404137_);}
	.st86{clip-path:url(#SVGID_00000117647628749229082510000002942416973833960377_);}
	.st87{clip-path:url(#SVGID_00000045614235392303544730000012912334040370211463_);}
	.st88{clip-path:url(#SVGID_00000005958327209083529010000010502999497868554655_);}
	.st89{clip-path:url(#SVGID_00000072239167402172800450000017500405208814941338_);}
	.st90{clip-path:url(#SVGID_00000049944285549332025600000015903983206871913912_);}
	.st91{clip-path:url(#SVGID_00000049904316943303257080000004985544312831574701_);}
	.st92{clip-path:url(#SVGID_00000115509079264676315750000008601655920868282779_);}
	.st93{clip-path:url(#SVGID_00000156585993800284157920000007879370147788371100_);}
	.st94{clip-path:url(#SVGID_00000006678004718217330680000016166963902828865670_);}
	.st95{clip-path:url(#SVGID_00000180351937793534681090000006704388020507558030_);}
	.st96{clip-path:url(#SVGID_00000102510971867880853730000017256552819235409803_);}
	.st97{clip-path:url(#SVGID_00000151505065057651689310000009443881086053308549_);}
	.st98{clip-path:url(#SVGID_00000088819975982932502380000015579491374095010958_);}
	.st99{clip-path:url(#SVGID_00000075120768738393967310000010229075051017052339_);}
	.st100{clip-path:url(#SVGID_00000104692230806007930290000008229271346314464668_);}
	.st101{clip-path:url(#SVGID_00000083780451164592016830000011643736674513907862_);}
	.st102{clip-path:url(#SVGID_00000021832921042002135560000015962943107748728253_);}
	.st103{clip-path:url(#SVGID_00000109711653696199875980000011564474509061728690_);}
	.st104{clip-path:url(#SVGID_00000059311683519057730450000006658182616515677365_);}
	.st105{clip-path:url(#SVGID_00000134940060790473111410000011052491001825499567_);}
	.st106{clip-path:url(#SVGID_00000113317567738009317640000015476447585167458217_);}
	.st107{clip-path:url(#SVGID_00000010991350031921351140000001148510425925953452_);}
	.st108{clip-path:url(#SVGID_00000007391813795851758860000012075829108185704089_);}
	.st109{clip-path:url(#SVGID_00000120545459545246866160000008397622553956632718_);}
	.st110{clip-path:url(#SVGID_00000065045535061267869090000004620914625051305095_);}
	.st111{clip-path:url(#SVGID_00000010301127152953466560000005901951725263834295_);}
	.st112{clip-path:url(#SVGID_00000098909077538646729760000015382088567272482713_);}
	.st113{clip-path:url(#SVGID_00000111882871604481609930000001429768440769111699_);}
	.st114{clip-path:url(#SVGID_00000124863188161280366690000017837980298903211447_);}
	.st115{fill:#FFFFFF;stroke:#000000;stroke-miterlimit:10;}
	.st116{clip-path:url(#SVGID_00000104682762299948489790000011395370639132361362_);}
	.st117{clip-path:url(#SVGID_00000155850556076767297870000002878894211338208412_);}
	.st118{fill:none;stroke:#010101;stroke-miterlimit:10;}
	.st119{fill:#010101;stroke:#000000;stroke-miterlimit:10;}
	.st120{clip-path:url(#SVGID_00000083063797495135081190000017396875909682448316_);}
	.st121{fill:#010101;stroke:#010101;stroke-miterlimit:10;}
	.st122{clip-path:url(#SVGID_00000126313431564413710540000012420939790487577011_);}
	.st123{clip-path:url(#SVGID_00000150786465104007829830000004516628695651646133_);}
	.st124{clip-path:url(#SVGID_00000005986470472307997340000005972749464906953908_);}
	.st125{clip-path:url(#SVGID_00000165199007327513406160000009738431285550230179_);}
	.st126{clip-path:url(#SVGID_00000099660756437597450670000014347009851194141588_);}
	.st127{fill:none;stroke:#000000;stroke-width:3;stroke-miterlimit:10;}
	.st128{clip-path:url(#SVGID_00000075122118214041759910000008159546933109784465_);}
	.st129{clip-path:url(#SVGID_00000039850404553322360510000012090098214635726001_);}
	.st130{clip-path:url(#SVGID_00000044860602610756161540000009397890368159693969_);}
	.st131{clip-path:url(#SVGID_00000158736120359696063680000002683834888044537512_);}
	.st132{fill:#040606;}
	.st133{clip-path:url(#SVGID_00000064350403626377862840000011601486448154536077_);}
	.st134{clip-path:url(#SVGID_00000072273109599168650150000003329912386433047468_);}
	.st135{clip-path:url(#SVGID_00000121987505325282631260000007457066187079301795_);}
	.st136{clip-path:url(#SVGID_00000117663559090159801470000000896845193926880675_);}
	.st137{clip-path:url(#SVGID_00000085972056680331571900000016043273370248494771_);}
	.st138{clip-path:url(#SVGID_00000013873738153452100810000004489999050168664975_);}
	.st139{clip-path:url(#SVGID_00000108276188102850325760000016562779054929616062_);}
	.st140{fill:#FFFFFF;stroke:#000000;stroke-width:1.5;stroke-miterlimit:10;}
	.st141{clip-path:url(#SVGID_00000181782070963936607010000010836850640323152543_);}
	.st142{fill:#BDBCBC;}
	.st143{clip-path:url(#SVGID_00000136385762865284668810000005735294832918364848_);}
	.st144{fill:#2E2A2B;}
	.st145{clip-path:url(#SVGID_00000077320190373784697710000007178131837615147697_);}
	.st146{clip-path:url(#SVGID_00000177474096998758920510000001755973906596179869_);}
	.st147{clip-path:url(#SVGID_00000178917593651332460460000011474776424069145522_);}
	.st148{clip-path:url(#SVGID_00000157268164804381817640000012943444080205051522_);}
	.st149{clip-path:url(#SVGID_00000128472114515899447960000013707229798402835870_);}
	.st150{fill:#272324;}
	.st151{clip-path:url(#SVGID_00000155127438527662047750000017686305332728617143_);}
	.st152{clip-path:url(#SVGID_00000075882151959461057330000000433310510288729258_);}
	.st153{clip-path:url(#SVGID_00000044895001109102458510000014448147746966822042_);}
	.st154{clip-path:url(#SVGID_00000005955563759160820060000005008312415198843542_);}
	.st155{clip-path:url(#SVGID_00000063627790063629283920000014869266207976617355_);}
	.st156{clip-path:url(#SVGID_00000062180705126784454360000004527869645424851107_);}
	.st157{fill:none;stroke:#000000;stroke-width:0.8735;stroke-linecap:round;stroke-linejoin:round;stroke-miterlimit:10;}
	.st158{clip-path:url(#SVGID_00000041259900814517479570000008398754168743425682_);}
	.st159{clip-path:url(#SVGID_00000078728388933682385770000016341572870066846888_);}
	.st160{clip-path:url(#SVGID_00000179617278097909667700000014857825682237329796_);}
	.st161{clip-path:url(#SVGID_00000008856768361768989430000008378628012051527579_);}
	.st162{clip-path:url(#SVGID_00000043453363266685677400000005659213275754007685_);}
	.st163{clip-path:url(#SVGID_00000000937461890430941900000001539303725972665246_);}
	.st164{clip-path:url(#SVGID_00000162329112342168263220000018392826615873464197_);}
	.st165{clip-path:url(#SVGID_00000168836101320683429420000006629979806882202763_);}
	.st166{clip-path:url(#SVGID_00000096020505487903291240000016060537088816279992_);}
	.st167{clip-path:url(#SVGID_00000034061140307377259330000011509410644696173733_);}
	.st168{clip-path:url(#SVGID_00000130618688863215616790000002150884493482340286_);}
	.st169{clip-path:url(#SVGID_00000071547000160521238500000007262373286914236839_);}
	.st170{clip-path:url(#SVGID_00000054951430186247231170000014513928293543645358_);}
	.st171{clip-path:url(#SVGID_00000013155917565536402980000004151605277010765463_);}
	.st172{clip-path:url(#SVGID_00000061433800798877413390000001022177953943552684_);}
	.st173{clip-path:url(#SVGID_00000168107241659370685810000002663074368191538318_);}
	.st174{clip-path:url(#SVGID_00000038405054994372649720000017137015986654024364_);}
	.st175{clip-path:url(#SVGID_00000079487808078029168350000011917679968250621112_);}
	.st176{clip-path:url(#SVGID_00000057861328831874305140000002905494465884873102_);}
	.st177{clip-path:url(#SVGID_00000096039191451093765550000005484207718253520272_);}
	.st178{clip-path:url(#SVGID_00000029036973915492946070000000149623218743054229_);}
	.st179{clip-path:url(#SVGID_00000095298912990940353640000014565820411040574620_);}
	.st180{clip-path:url(#SVGID_00000170966741202476996600000002998968305406115721_);}
	.st181{clip-path:url(#SVGID_00000167398184731332777730000006193800629495262653_);}
	.st182{clip-path:url(#SVGID_00000078751631983733294520000001084895703247478679_);}
	.st183{clip-path:url(#SVGID_00000093897309064544073540000000843835375472234170_);}
	.st184{clip-path:url(#SVGID_00000016756610102149104200000002643404923061757602_);}
	.st185{clip-path:url(#SVGID_00000021115645716476575330000000222337972120708772_);}
	.st186{clip-path:url(#SVGID_00000001630394029992397830000015465415387646114211_);}
	.st187{clip-path:url(#SVGID_00000127012434043905026400000000487276146681908631_);}
	.st188{clip-path:url(#SVGID_00000026127572672568244870000005749312240219726227_);}
	.st189{clip-path:url(#SVGID_00000088832039033193770040000003510110438879434374_);}
	.st190{clip-path:url(#SVGID_00000025432446868499236750000002260598117143103626_);}
	.st191{clip-path:url(#SVGID_00000141437971105561119630000005327556362457813640_);}
	.st192{clip-path:url(#SVGID_00000042710626552159289320000008363423303369651895_);}
	.st193{clip-path:url(#SVGID_00000132794575680126274570000007973010658145113766_);}
	.st194{clip-path:url(#SVGID_00000039850999466526340830000018386763310134769810_);}
	.st195{clip-path:url(#SVGID_00000137833239426855654760000018255256193907038616_);}
	.st196{fill:#E5E5E5;}
	.st197{fill:#1D1D1B;}
	.st198{fill:none;stroke:#000000;stroke-miterlimit:10;}
	.st199{fill:#FEFEFE;stroke:#000000;stroke-miterlimit:10;}
	.st200{clip-path:url(#SVGID_00000127024875494931385160000012558638572218080432_);}
	.st201{clip-path:url(#SVGID_00000149371131967620012540000017412630738290106303_);}
	.st202{clip-path:url(#SVGID_00000000199557319003229020000017574841760896690563_);}
	.st203{fill:#231F1F;}
	.st204{fill:#020000;}
	.st205{clip-path:url(#SVGID_00000088099422966411114080000007619353629111699893_);}
	.st206{clip-path:url(#SVGID_00000121265087390454543650000006168807430592977035_);}
	.st207{clip-path:url(#SVGID_00000168801096178338783640000001959103427073300368_);}
	.st208{clip-path:url(#SVGID_00000148660970870159909180000001706088197781228446_);}
	.st209{fill:#050000;}
	.st210{clip-path:url(#SVGID_00000098929053588671666810000006916939408480047262_);}
	.st211{clip-path:url(#SVGID_00000088131530191351054900000010192768782628323981_);}
	.st212{clip-path:url(#SVGID_00000062191705310396653960000010434623684588186287_);}
	.st213{clip-path:url(#SVGID_00000039830507847155799770000013201211617102032032_);}
	.st214{clip-path:url(#SVGID_00000123407297361168853430000000837751051880467636_);}
	.st215{clip-path:url(#SVGID_00000154387100250610723050000015171666550239723434_);}
	.st216{fill:#12100F;}
	.st217{clip-path:url(#SVGID_00000011720385636025392840000014733881534088398979_);}
	.st218{clip-path:url(#SVGID_00000102534291682346629260000000018064573827218822_);}
	.st219{fill:none;stroke:#000000;stroke-width:0.5;stroke-miterlimit:10;}
	.st220{clip-path:url(#SVGID_00000153705844009100880290000007209485521617177244_);}
	.st221{clip-path:url(#SVGID_00000181789230563348648860000012454504728507868336_);}
	.st222{clip-path:url(#SVGID_00000093873647294084678930000010312564366459945918_);}
	.st223{clip-path:url(#SVGID_00000083059756624577550440000012547736187951136658_);}
	.st224{fill:none;stroke:#000000;stroke-width:0.25;stroke-miterlimit:10;}
	.st225{clip-path:url(#SVGID_00000114048303371256280180000014906031269152403881_);}
	.st226{clip-path:url(#SVGID_00000001661935386774328580000002532707621650815620_);}
	.st227{clip-path:url(#SVGID_00000031182679165988397330000004381372978631508132_);}
</style>
<g>
	<g>
		<g>
			<defs>
				<rect id="SVGID_00000142898449807624761700000006090823697489181870_" x="19.48" y="12.33" width="8.94" height="2.67"/>
			</defs>
			<clipPath id="SVGID_00000095298435477200285190000007918265379058586752_">
				<use xlink:href="#SVGID_00000142898449807624761700000006090823697489181870_"  style="overflow:visible;"/>
			</clipPath>
			<g style="clip-path:url(#SVGID_00000095298435477200285190000007918265379058586752_);">
				<path class="st31" d="M28.04,14.98c-0.07,0-0.17-0.01-0.22-0.07l-1.22-1.17c-0.53-0.53-0.98-0.74-1.56-0.75
					c-0.7-0.02-1.49-0.02-2.18,0c-0.57,0.01-1.04,0.25-1.56,0.75l-1.22,1.17c-0.13,0.11-0.32,0.11-0.45-0.02
					c-0.11-0.13-0.11-0.32,0.01-0.45l1.22-1.17c0.62-0.6,1.26-0.89,1.98-0.9c0.7-0.02,1.5-0.02,2.22,0c0.74,0.01,1.34,0.3,1.98,0.9
					l1.22,1.17c0.13,0.13,0.13,0.32,0.02,0.45C28.2,14.95,28.13,14.98,28.04,14.98z"/>
			</g>
		</g>
	</g>
	<path class="st31" d="M25.92,14.54H22c-0.19,0-0.32-0.13-0.32-0.3c0-0.19,0.13-0.32,0.32-0.32h3.92c0.17,0,0.3,0.13,0.3,0.32
		C26.22,14.41,26.09,14.54,25.92,14.54z"/>
	<g>
		<g>
			<g>
				<defs>
					<rect id="SVGID_00000036214076212658833190000014856809665829639316_" x="11.03" y="14.31" width="25.92" height="21.45"/>
				</defs>
				<clipPath id="SVGID_00000123412577911394119200000011445942801420530562_">
					<use xlink:href="#SVGID_00000036214076212658833190000014856809665829639316_"  style="overflow:visible;"/>
				</clipPath>
				<g style="clip-path:url(#SVGID_00000123412577911394119200000011445942801420530562_);">
					<path class="st31" d="M36.54,35.73c-0.15,0-0.28-0.11-0.3-0.28l-1.81-17.56c-0.13-1.3-1.06-2.23-2.41-2.39l-3.81-0.52h-0.17
						c-0.19,0-0.32-0.13-0.32-0.3c0-0.19,0.13-0.32,0.32-0.32h0.19c0,0,0.01,0,0.04,0l3.82,0.53c1.64,0.21,2.81,1.38,2.96,2.96
						l1.81,17.54c0.02,0.17-0.1,0.34-0.28,0.36C36.58,35.73,36.56,35.73,36.54,35.73z M11.36,35.73c-0.01,0-0.01,0-0.04,0
						c-0.17-0.02-0.28-0.17-0.28-0.34l1.81-17.56c0.17-1.58,1.32-2.75,2.96-2.96l3.82-0.53c0.02,0,0.04,0,0.06,0h0.17
						c0.17,0,0.3,0.15,0.3,0.32c0,0.17-0.13,0.32-0.3,0.32h-0.15l-3.82,0.53c-1.36,0.15-2.26,1.07-2.41,2.38l-1.79,17.56
						C11.66,35.62,11.51,35.73,11.36,35.73z"/>
				</g>
			</g>
		</g>
		<path class="st31" d="M16.72,37.32c-0.07,0-0.13-0.02-0.19-0.07C16.46,37.19,16.4,37.1,16.4,37V20.79c0-0.19,0.15-0.32,0.32-0.32
			s0.32,0.13,0.32,0.32v15.83l6.84-1.5c0.17-0.04,0.34,0.07,0.38,0.25c0.04,0.17-0.06,0.34-0.22,0.38l-7.25,1.58
			C16.76,37.32,16.75,37.32,16.72,37.32z"/>
		<path class="st31" d="M14.44,36.81c-0.01,0-0.04,0-0.06,0c-0.17-0.04-0.28-0.21-0.26-0.38l2.28-13.17
			c0.04-0.17,0.21-0.28,0.38-0.26c0.17,0.04,0.28,0.19,0.25,0.36l-2.28,13.19C14.73,36.69,14.6,36.81,14.44,36.81z"/>
		<g>
			<g>
				<defs>
					<rect id="SVGID_00000168805129420573872400000015385526950683448472_" x="11.03" y="35.36" width="3.78" height="1.49"/>
				</defs>
				<clipPath id="SVGID_00000024705122069290521020000002782013131415923858_">
					<use xlink:href="#SVGID_00000168805129420573872400000015385526950683448472_"  style="overflow:visible;"/>
				</clipPath>
				<g style="clip-path:url(#SVGID_00000024705122069290521020000002782013131415923858_);">
					<path class="st31" d="M13.69,36.85c-2.43,0-2.64-1.32-2.66-1.38l0.62-0.1c0,0,0.25,1.06,2.75,0.81
						c0.19-0.01,0.34,0.1,0.36,0.28c0.01,0.17-0.11,0.32-0.28,0.34C14.2,36.83,13.94,36.85,13.69,36.85z"/>
				</g>
			</g>
		</g>
		<path class="st31" d="M33.47,36.81c-0.15,0-0.28-0.11-0.32-0.26L31.17,25.2c-0.01-0.17,0.1-0.34,0.26-0.38
			c0.17-0.01,0.34,0.1,0.36,0.26l1.98,11.38c0.04,0.17-0.07,0.32-0.25,0.36C33.49,36.81,33.47,36.81,33.47,36.81z"/>
		<path class="st31" d="M34.2,36.85c-0.25,0-0.49-0.01-0.77-0.04c-0.17-0.01-0.3-0.17-0.28-0.34c0.02-0.17,0.17-0.3,0.34-0.28
			c2.52,0.25,2.75-0.81,2.75-0.81l0.62,0.1C36.86,35.53,36.64,36.85,34.2,36.85z"/>
		<path class="st31" d="M31.49,37.32c-0.02,0-0.06,0-0.07,0l-7.54-1.58c-0.17-0.04-0.26-0.21-0.25-0.38
			c0.04-0.17,0.21-0.28,0.38-0.25l7.16,1.5V20.79c0-0.19,0.13-0.32,0.32-0.32c0.17,0,0.3,0.13,0.3,0.32V37
			c0,0.1-0.04,0.19-0.11,0.25C31.63,37.3,31.55,37.32,31.49,37.32z"/>
		<path class="st31" d="M23.96,35.73c-0.19,0-0.32-0.13-0.32-0.32V16.63c0-0.19,0.13-0.32,0.32-0.32c0.17,0,0.3,0.13,0.3,0.32v18.78
			C24.26,35.59,24.13,35.73,23.96,35.73z"/>
		<path class="st31" d="M21.76,19.4c-0.07,0-0.15-0.01-0.21-0.07c-0.1-0.06-2.02-1.75-2.02-4.65c0-0.19,0.13-0.32,0.32-0.32
			c0.17,0,0.3,0.13,0.3,0.32c0,2.03,1.11,3.45,1.58,3.95l1.75-1.96c-2.17-1.74-2.06-3.63-2.06-3.73c0.01-0.17,0.17-0.31,0.34-0.28
			c0.17,0.02,0.3,0.17,0.3,0.34c-0.02,0.07-0.1,1.81,2.07,3.37c0.07,0.06,0.11,0.13,0.11,0.22c0.01,0.07-0.02,0.17-0.07,0.25
			l-2.2,2.47C21.92,19.36,21.83,19.4,21.76,19.4z"/>
		<path class="st31" d="M26.16,19.4c-0.1,0-0.17-0.04-0.25-0.1l-2.2-2.47c-0.06-0.07-0.07-0.17-0.07-0.25
			c0.02-0.1,0.06-0.17,0.13-0.22c2.17-1.56,2.06-3.3,2.06-3.37c-0.01-0.17,0.11-0.32,0.28-0.34c0.17-0.02,0.32,0.11,0.34,0.28
			c0.01,0.07,0.15,2-2.03,3.73l1.75,1.96c0.49-0.53,1.56-1.92,1.56-3.98c0-0.17,0.13-0.31,0.32-0.31c0.17,0,0.3,0.13,0.3,0.31
			c0,2.9-1.9,4.6-1.98,4.67C26.29,19.39,26.24,19.4,26.16,19.4z"/>
		<path class="st31" d="M19.1,34.01h-2.38c-0.17,0-0.32-0.13-0.32-0.32c0-0.17,0.15-0.3,0.32-0.3h2.38c0.25,0,0.43-0.21,0.43-0.47
			v-1.04h-2.81c-0.17,0-0.32-0.13-0.32-0.32c0-0.17,0.15-0.3,0.32-0.3h3.13c0.17,0,0.32,0.13,0.32,0.3v1.36
			C20.16,33.51,19.68,34.01,19.1,34.01z"/>
		<path class="st31" d="M31.49,34.01h-2.67c-0.62,0-1.09-0.47-1.09-1.09v-1.36c0-0.17,0.13-0.3,0.32-0.3h3.45
			c0.17,0,0.3,0.13,0.3,0.3c0,0.19-0.13,0.32-0.3,0.32h-3.14v1.04c0,0.26,0.21,0.47,0.47,0.47h2.67c0.17,0,0.3,0.13,0.3,0.3
			C31.8,33.87,31.66,34.01,31.49,34.01z"/>
		<path class="st31" d="M25.07,29.31c-0.19,0-0.32-0.13-0.32-0.32v-0.22c0-0.17,0.13-0.3,0.32-0.3c0.17,0,0.3,0.13,0.3,0.3v0.22
			C25.37,29.18,25.24,29.31,25.07,29.31z"/>
		<path class="st31" d="M25.07,31.36c-0.19,0-0.32-0.13-0.32-0.32v-0.21c0-0.17,0.13-0.3,0.32-0.3c0.17,0,0.3,0.13,0.3,0.3v0.21
			C25.37,31.24,25.24,31.36,25.07,31.36z"/>
		<path class="st31" d="M25.07,33.44c-0.19,0-0.32-0.13-0.32-0.32v-0.21c0-0.17,0.13-0.3,0.32-0.3c0.17,0,0.3,0.13,0.3,0.3v0.21
			C25.37,33.31,25.24,33.44,25.07,33.44z"/>
		<path class="st31" d="M14.65,35.59c-0.01,0-0.06,0-0.07-0.02l-3.2-0.86c-0.17-0.04-0.26-0.21-0.22-0.38
			c0.04-0.17,0.22-0.26,0.38-0.22l3.2,0.86c0.17,0.06,0.26,0.22,0.22,0.39C14.92,35.49,14.79,35.59,14.65,35.59z"/>
		<path class="st31" d="M33.24,35.59c-0.15,0-0.26-0.1-0.3-0.22c-0.06-0.17,0.06-0.34,0.21-0.39l3.2-0.86
			c0.17-0.04,0.34,0.06,0.39,0.22c0.04,0.17-0.06,0.34-0.22,0.38l-3.2,0.86C33.29,35.59,33.27,35.59,33.24,35.59z"/>
		<g>
			<g>
				<defs>
					<rect id="SVGID_00000160190860467399654980000010495794284484451727_" x="26.03" y="22.95" width="17.18" height="19.48"/>
				</defs>
				<clipPath id="SVGID_00000039123843566654149080000003541566499333666443_">
					<use xlink:href="#SVGID_00000160190860467399654980000010495794284484451727_"  style="overflow:visible;"/>
				</clipPath>
				<g style="clip-path:url(#SVGID_00000039123843566654149080000003541566499333666443_);">
					<path class="st31" d="M32.6,42.42c-0.1,0-0.17-0.04-0.22-0.1l-6.18-6.18c-0.13-0.13-0.13-0.32,0-0.45
						c0.13-0.13,0.32-0.13,0.45,0l5.91,5.91l9.89-13.13l-4.78-4.77l-1.94,1.92c-0.11,0.13-0.32,0.13-0.43,0
						c-0.13-0.13-0.13-0.32,0-0.45l2.15-2.15c0.11-0.11,0.32-0.11,0.43,0l5.2,5.18c0.11,0.11,0.13,0.3,0.04,0.42L32.86,42.29
						c-0.06,0.07-0.13,0.11-0.22,0.13C32.6,42.42,32.6,42.42,32.6,42.42z"/>
				</g>
			</g>
		</g>
		<g>
			<g>
				<defs>
					<rect id="SVGID_00000025430497403378622500000002772802063811203988_" x="29.91" y="30.99" width="13.01" height="11.43"/>
				</defs>
				<clipPath id="SVGID_00000039093085523932247510000018354213834911946112_">
					<use xlink:href="#SVGID_00000025430497403378622500000002772802063811203988_"  style="overflow:visible;"/>
				</clipPath>
				<g style="clip-path:url(#SVGID_00000039093085523932247510000018354213834911946112_);">
					<path class="st31" d="M32.6,42.42c-0.1,0-0.17-0.04-0.22-0.1l-2.34-2.34c-0.13-0.13-0.13-0.32,0-0.45
						c0.13-0.13,0.32-0.13,0.45,0l2.13,2.15l4.62-3.46l4.92-4.92l-1.71-1.71c-0.13-0.13-0.13-0.32,0-0.45
						c0.11-0.11,0.32-0.11,0.43,0l1.94,1.94c0.06,0.06,0.1,0.15,0.1,0.22c0,0.07-0.02,0.17-0.1,0.22l-5.16,5.16l-0.02,0.02
						l-4.84,3.63C32.74,42.41,32.66,42.42,32.6,42.42z"/>
				</g>
			</g>
		</g>
		<path class="st31" d="M40.67,35.53c-0.07,0-0.15-0.04-0.21-0.1l-1.66-1.66c-0.13-0.13-0.13-0.32,0-0.45
			c0.11-0.11,0.32-0.11,0.43,0l1.66,1.66c0.13,0.13,0.13,0.32,0,0.45C40.84,35.49,40.77,35.53,40.67,35.53z"/>
		<path class="st31" d="M29.24,22.85H27.5c-0.19,0-0.32-0.13-0.32-0.32c0-0.17,0.13-0.3,0.32-0.3h1.74c0.17,0,0.3,0.13,0.3,0.3
			C29.53,22.71,29.41,22.85,29.24,22.85z"/>
		<path class="st31" d="M25.07,23.07c-0.19,0-0.32-0.13-0.32-0.32v-0.22c0-0.17,0.13-0.3,0.32-0.3c0.17,0,0.3,0.13,0.3,0.3v0.22
			C25.37,22.95,25.24,23.07,25.07,23.07z"/>
		<path class="st31" d="M25.07,25.15c-0.19,0-0.32-0.13-0.32-0.32v-0.22c0-0.17,0.13-0.3,0.32-0.3c0.17,0,0.3,0.13,0.3,0.3v0.22
			C25.37,25.02,25.24,25.15,25.07,25.15z"/>
		<path class="st31" d="M25.07,27.22c-0.19,0-0.32-0.13-0.32-0.32v-0.22c0-0.17,0.13-0.3,0.32-0.3c0.17,0,0.3,0.13,0.3,0.3v0.22
			C25.37,27.09,25.24,27.22,25.07,27.22z"/>
	</g>
</g>
</svg>
