<?xml version="1.0" encoding="utf-8"?>
<!-- Generator: Adobe Illustrator 27.3.1, SVG Export Plug-In . SVG Version: 6.00 Build 0)  -->
<svg version="1.1" id="Layer_1" xmlns="http://www.w3.org/2000/svg" xmlns:xlink="http://www.w3.org/1999/xlink" x="0px" y="0px"
	 viewBox="0 0 50 50" style="enable-background:new 0 0 50 50;" xml:space="preserve">
<style type="text/css">
	.st0{fill:none;}
	.st1{stroke:#000000;stroke-miterlimit:10;}
	.st2{stroke:#000000;stroke-width:0.75;stroke-miterlimit:10;}
	.st3{clip-path:url(#SVGID_00000030459112173867732070000011815724598930777766_);}
	.st4{clip-path:url(#SVGID_00000091017213534368140620000013352542169745531041_);}
	.st5{fill:#FFFFFF;}
	.st6{clip-path:url(#SVGID_00000072263838342678004780000016634679871775960973_);}
	.st7{fill:#231F20;}
	.st8{clip-path:url(#SVGID_00000115479720508289847030000000284425844926111656_);}
	.st9{clip-path:url(#SVGID_00000111188366812215499550000002668681494975578267_);}
	.st10{clip-path:url(#SVGID_00000158001569893748229320000003894208150394891704_);}
	.st11{clip-path:url(#SVGID_00000013167299102965164430000011139046656787282602_);}
	.st12{clip-path:url(#SVGID_00000052061690926006235830000017787390553946149545_);}
	.st13{clip-path:url(#SVGID_00000137120270057314790680000006201234870917373604_);}
	.st14{clip-path:url(#SVGID_00000023963785897760134860000016065110704958931641_);}
	.st15{clip-path:url(#SVGID_00000170968708628151333750000001345350666777411503_);}
	.st16{clip-path:url(#SVGID_00000057849049658752317650000015044324048819098524_);}
	.st17{clip-path:url(#SVGID_00000126288934753727999710000016067799704090637442_);}
	.st18{clip-path:url(#SVGID_00000067225316666899369650000011819060871390916000_);}
	.st19{clip-path:url(#SVGID_00000096773997373671155750000013027855604249410189_);}
	.st20{clip-path:url(#SVGID_00000055679506897639896770000001608472553789115816_);}
	.st21{clip-path:url(#SVGID_00000154427143946157923020000016012962401291211441_);}
	.st22{clip-path:url(#SVGID_00000065795900938878763400000015475799231485956258_);}
	.st23{clip-path:url(#SVGID_00000029036808531444303980000013576228285058967983_);}
	.st24{clip-path:url(#SVGID_00000074440139106050127160000000554301082421894546_);}
	.st25{clip-path:url(#SVGID_00000152250805287492869700000008222699667387290041_);}
	.st26{clip-path:url(#SVGID_00000007412896842126676710000015881473856550278583_);}
	.st27{clip-path:url(#SVGID_00000145022327109090152220000010852699190778171264_);}
	.st28{clip-path:url(#SVGID_00000103238542185307415690000017842059151030611109_);}
	.st29{clip-path:url(#SVGID_00000045604999665400708800000004405061269977442197_);}
	.st30{clip-path:url(#SVGID_00000180347543211177902360000004783960665349014183_);}
	.st31{fill-rule:evenodd;clip-rule:evenodd;}
	.st32{clip-path:url(#SVGID_00000151533556300512560060000017846456435975849622_);}
	.st33{clip-path:url(#SVGID_00000169530192151254225320000012249922947557722789_);}
	.st34{stroke:#000000;stroke-width:0.5;stroke-miterlimit:10;}
	.st35{clip-path:url(#SVGID_00000121268122496248220450000015876140823709297034_);}
	.st36{clip-path:url(#SVGID_00000124120346282306068250000004839721204556693140_);}
	.st37{clip-path:url(#SVGID_00000003801436908647303700000008449268431136299705_);}
	.st38{fill:#1A1A1A;}
	.st39{clip-path:url(#SVGID_00000128448324004943735240000009420655559003415949_);}
	.st40{clip-path:url(#SVGID_00000021823801401234422610000000860958297607220385_);}
	.st41{clip-path:url(#SVGID_00000132074826484061947800000008165719784000381841_);}
	.st42{clip-path:url(#SVGID_00000039129522378478291090000018261939694048087997_);}
	.st43{clip-path:url(#SVGID_00000083082239413266275150000014599187735600147091_);}
	.st44{clip-path:url(#SVGID_00000149358833502530784230000012160227530053612717_);}
	.st45{clip-path:url(#SVGID_00000181067003433531490060000001494066814439706764_);}
	.st46{clip-path:url(#SVGID_00000132778449842998704130000007869112781632146327_);}
	.st47{clip-path:url(#SVGID_00000147187679845450894890000007105695529684500100_);}
	.st48{fill:#F1F1F1;}
	.st49{fill:#E8E8E8;}
	.st50{fill:#FEFEFE;}
	.st51{fill:#CCCCCC;}
	.st52{fill:#B3B3B3;}
	.st53{fill:#E6E6E6;}
	.st54{fill:#EBEBEB;}
	.st55{fill:#EEEEEE;}
	.st56{fill:#F8F8F8;}
	.st57{fill:#FBFBFB;}
	.st58{fill:#383838;}
	.st59{fill:#232323;}
	.st60{fill:#F6F6F6;}
	.st61{fill:#535353;}
	.st62{fill:#0A0A0A;}
	.st63{fill:#F5F5F5;}
	.st64{fill:#818181;}
	.st65{fill:#4A4A4A;}
	.st66{fill:#999999;}
	.st67{fill:url(#SVGID_00000097480147810413445760000007794000158653611166_);}
	.st68{fill:url(#SVGID_00000129892734984144828090000000568996036163531671_);}
	.st69{fill:#0E0E0D;}
	.st70{fill:#333333;}
	.st71{fill:#808080;}
	.st72{fill:url(#SVGID_00000067194115624817898090000015232480849857452217_);}
	.st73{fill:#666666;}
	.st74{fill:url(#SVGID_00000096030691017843419820000013331033572320839053_);}
	.st75{fill:url(#SVGID_00000101092780933116951410000007480416345252828054_);}
	.st76{fill:url(#SVGID_00000070121027762929418750000008581322544301286569_);}
	.st77{fill:url(#SVGID_00000070104693590807072830000013925399733314540197_);}
	.st78{fill:url(#SVGID_00000143595304208693927920000003962089351575766459_);}
	.st79{clip-path:url(#SVGID_00000159470079248312309090000003694865237669409409_);}
	.st80{clip-path:url(#SVGID_00000084511603113634736820000004754554319148164525_);}
	.st81{clip-path:url(#SVGID_00000080183639797299537770000014823868893137322670_);}
	.st82{clip-path:url(#SVGID_00000144340074046261701040000014457055526619367576_);}
	.st83{clip-path:url(#SVGID_00000046313821238486505820000008112594436855909786_);}
	.st84{fill:#241F20;stroke:#000000;stroke-width:0.5;stroke-miterlimit:10;}
	.st85{clip-path:url(#SVGID_00000028310513838273465400000007903845713716779137_);}
	.st86{clip-path:url(#SVGID_00000078742764691344827870000014686909378182735252_);}
	.st87{clip-path:url(#SVGID_00000155832119920060972580000006584129631865447099_);}
	.st88{clip-path:url(#SVGID_00000058562779892717477250000008448116005208419489_);}
	.st89{clip-path:url(#SVGID_00000111886218862026226270000004972307936616025744_);}
	.st90{clip-path:url(#SVGID_00000075136062642674844720000005725420756713651639_);}
	.st91{clip-path:url(#SVGID_00000167365559334670995420000009872615029696604081_);}
	.st92{clip-path:url(#SVGID_00000033340356699794955530000007325132602131510443_);}
	.st93{clip-path:url(#SVGID_00000135650108267344779130000004568265465158525335_);}
	.st94{clip-path:url(#SVGID_00000125589472881414225090000000519875430498891417_);}
	.st95{clip-path:url(#SVGID_00000016053935515928650850000006243924316057977473_);}
	.st96{clip-path:url(#SVGID_00000175318231255749155770000007643006593701422731_);}
	.st97{clip-path:url(#SVGID_00000130618279086070006380000002055461454246840721_);}
	.st98{clip-path:url(#SVGID_00000104687227672776550880000006435286437296147843_);}
	.st99{clip-path:url(#SVGID_00000124849538715458949780000010124458528298105786_);}
	.st100{clip-path:url(#SVGID_00000144338179714487110280000012368208850408453793_);}
	.st101{clip-path:url(#SVGID_00000071531144104794517800000002184608319515369872_);}
	.st102{clip-path:url(#SVGID_00000032618143591815532670000017100656047152390335_);}
	.st103{clip-path:url(#SVGID_00000052095053896904007560000005497903829269602176_);}
	.st104{clip-path:url(#SVGID_00000145039686975071520440000003800175907862070686_);}
	.st105{clip-path:url(#SVGID_00000075121683597275218940000006168611966986500520_);}
	.st106{clip-path:url(#SVGID_00000071553109757106255460000000170105998851100058_);}
	.st107{clip-path:url(#SVGID_00000158734686070865118360000009433141748512368022_);}
	.st108{clip-path:url(#SVGID_00000112633023638465525800000016452285473260749478_);}
	.st109{clip-path:url(#SVGID_00000077282026446095391000000018292888345781567412_);}
	.st110{clip-path:url(#SVGID_00000127045620327697436290000006853187715367132076_);}
	.st111{clip-path:url(#SVGID_00000090987256744071136700000012011383327710119307_);}
	.st112{clip-path:url(#SVGID_00000074402862120336176130000010317711791249845904_);}
	.st113{clip-path:url(#SVGID_00000155111769587757351600000008052459840679030923_);}
	.st114{clip-path:url(#SVGID_00000158013205866772623330000017438277285535002244_);}
	.st115{fill:#FFFFFF;stroke:#000000;stroke-miterlimit:10;}
	.st116{clip-path:url(#SVGID_00000151542587810323471120000009008697564897675175_);}
	.st117{clip-path:url(#SVGID_00000065075082798015511350000006207109378643390910_);}
	.st118{fill:none;stroke:#010101;stroke-miterlimit:10;}
	.st119{fill:#010101;stroke:#000000;stroke-miterlimit:10;}
	.st120{clip-path:url(#SVGID_00000030472570427900589820000016127423787282861977_);}
	.st121{fill:#010101;stroke:#010101;stroke-miterlimit:10;}
	.st122{clip-path:url(#SVGID_00000180362693427754315060000016610365293794494373_);}
	.st123{clip-path:url(#SVGID_00000145026051486077674020000004844579791171914633_);}
	.st124{clip-path:url(#SVGID_00000078762837883245933710000013777540269996561323_);}
	.st125{clip-path:url(#SVGID_00000183215994564989874980000001577186271388289189_);}
	.st126{clip-path:url(#SVGID_00000042715101967007260250000015902520559959256727_);}
	.st127{fill:none;stroke:#000000;stroke-width:3;stroke-miterlimit:10;}
	.st128{clip-path:url(#SVGID_00000132071643023520953640000001689651747984185788_);}
	.st129{clip-path:url(#SVGID_00000041259289366219713750000000479625469393280164_);}
	.st130{clip-path:url(#SVGID_00000032642613860577337380000017804961817145434025_);}
	.st131{clip-path:url(#SVGID_00000064328745359780728760000009344536655895250051_);}
	.st132{fill:#040606;}
	.st133{clip-path:url(#SVGID_00000008839316582854186530000000039136109205771688_);}
	.st134{clip-path:url(#SVGID_00000147208573005308079090000005165538625270734487_);}
	.st135{clip-path:url(#SVGID_00000099639419753882557050000012737588061543710869_);}
	.st136{clip-path:url(#SVGID_00000158751313498536113120000002026169399646376634_);}
	.st137{clip-path:url(#SVGID_00000182526420078380554740000015047406181063776128_);}
	.st138{clip-path:url(#SVGID_00000116929765341656473750000013430411629259376768_);}
	.st139{clip-path:url(#SVGID_00000003785642097182909010000017739816356525280444_);}
	.st140{fill:#FFFFFF;stroke:#000000;stroke-width:1.5;stroke-miterlimit:10;}
	.st141{clip-path:url(#SVGID_00000100375897294947125620000006687436145148076674_);}
	.st142{fill:#BDBCBC;}
	.st143{clip-path:url(#SVGID_00000058567586655097360010000014085989943283450300_);}
	.st144{fill:#2E2A2B;}
	.st145{clip-path:url(#SVGID_00000056416386387494050900000004237640619401061005_);}
	.st146{clip-path:url(#SVGID_00000152229322610748552810000013991153147713175688_);}
	.st147{clip-path:url(#SVGID_00000072992455094238511180000016688212639450146176_);}
	.st148{clip-path:url(#SVGID_00000062883104888401382170000005849112547961607089_);}
	.st149{clip-path:url(#SVGID_00000036931956441743579340000018253614947256099485_);}
	.st150{fill:#272324;}
	.st151{clip-path:url(#SVGID_00000017476188829291909510000013842108834913861004_);}
	.st152{clip-path:url(#SVGID_00000090288689416823255610000005386457764093575842_);}
	.st153{clip-path:url(#SVGID_00000023262506395677302880000009719182754952480948_);}
	.st154{clip-path:url(#SVGID_00000052064435189332134880000001636903275707174060_);}
	.st155{clip-path:url(#SVGID_00000013877992536013305590000010815927772197957508_);}
	.st156{clip-path:url(#SVGID_00000049938682180289528970000004332565032389376656_);}
	.st157{fill:none;stroke:#000000;stroke-width:0.8735;stroke-linecap:round;stroke-linejoin:round;stroke-miterlimit:10;}
	.st158{clip-path:url(#SVGID_00000078739528366192515720000008435277293264324480_);}
	.st159{clip-path:url(#SVGID_00000025417293869712124680000012046869224958092199_);}
	.st160{clip-path:url(#SVGID_00000152980721554759833370000009928548766900007857_);}
	.st161{clip-path:url(#SVGID_00000022547013796120003860000003117628578077987997_);}
	.st162{clip-path:url(#SVGID_00000033335484268534468250000006038796317297802170_);}
	.st163{clip-path:url(#SVGID_00000070092887555881659980000015544774103251956159_);}
	.st164{clip-path:url(#SVGID_00000031184489997454603490000003748999694558010032_);}
	.st165{clip-path:url(#SVGID_00000132056984588997042720000011799069105649898153_);}
	.st166{clip-path:url(#SVGID_00000132806345960544376240000010539556916738536612_);}
	.st167{clip-path:url(#SVGID_00000093160901994914805770000012149486780182914205_);}
	.st168{clip-path:url(#SVGID_00000035509153723710655160000008438173140414803623_);}
	.st169{clip-path:url(#SVGID_00000005963703349978425600000001953860976821106816_);}
	.st170{clip-path:url(#SVGID_00000018222769953813073160000013933580223592313237_);}
	.st171{clip-path:url(#SVGID_00000049926246581045700470000002816675388576575420_);}
	.st172{clip-path:url(#SVGID_00000101061629668151538460000003696309837172727734_);}
	.st173{clip-path:url(#SVGID_00000105414955979493873670000002073292577312940942_);}
	.st174{clip-path:url(#SVGID_00000115492698424142342600000011628694150728023435_);}
	.st175{clip-path:url(#SVGID_00000048491510173472070410000003005491903918636989_);}
	.st176{clip-path:url(#SVGID_00000162338874309352385700000014068865339241399700_);}
	.st177{clip-path:url(#SVGID_00000103259925396130703100000012744681867154039174_);}
	.st178{clip-path:url(#SVGID_00000002381390551756458320000014631212514724743079_);}
	.st179{clip-path:url(#SVGID_00000174594983356424753690000006365563724150663078_);}
	.st180{clip-path:url(#SVGID_00000102546385900624824990000015002281488004460220_);}
	.st181{clip-path:url(#SVGID_00000116214845926401342250000011718506781836186002_);}
	.st182{clip-path:url(#SVGID_00000157305015270054952640000002509570101599154852_);}
	.st183{clip-path:url(#SVGID_00000139289424645704078920000000559484335477697669_);}
	.st184{clip-path:url(#SVGID_00000119804510227709601570000013219371046784340121_);}
	.st185{clip-path:url(#SVGID_00000089561449312046963070000009177928945334697356_);}
	.st186{clip-path:url(#SVGID_00000000207964032152606210000001534167164064087710_);}
	.st187{clip-path:url(#SVGID_00000008122951405861632280000008866431944462539919_);}
	.st188{clip-path:url(#SVGID_00000040576068249750066880000004478880732263240100_);}
	.st189{clip-path:url(#SVGID_00000056385276950892513340000008348987544921599363_);}
	.st190{clip-path:url(#SVGID_00000025433160465102183720000015017244331740204950_);}
	.st191{clip-path:url(#SVGID_00000083770236461457912930000000859549684493205165_);}
	.st192{clip-path:url(#SVGID_00000095326789421492694000000005340009856857149099_);}
	.st193{clip-path:url(#SVGID_00000004546015162126825540000007578473882415684484_);}
	.st194{clip-path:url(#SVGID_00000059307389592475441550000001385515106472893116_);}
	.st195{clip-path:url(#SVGID_00000010312144158067145340000015238001312549291944_);}
	.st196{fill:#E5E5E5;}
	.st197{fill:#1D1D1B;}
	.st198{fill:none;stroke:#000000;stroke-miterlimit:10;}
	.st199{fill:#FEFEFE;stroke:#000000;stroke-miterlimit:10;}
	.st200{clip-path:url(#SVGID_00000114753959705695701980000016605286868718880946_);}
	.st201{clip-path:url(#SVGID_00000173119593727104254100000007113010507857144723_);}
	.st202{clip-path:url(#SVGID_00000026140962682072078900000002515717436348983708_);}
	.st203{fill:#231F1F;}
	.st204{fill:#020000;}
	.st205{clip-path:url(#SVGID_00000104702433279959290740000003238331144731281327_);}
	.st206{clip-path:url(#SVGID_00000134221870873190932390000002891390459543352744_);}
	.st207{clip-path:url(#SVGID_00000139980896574661984730000013723045464736125824_);}
	.st208{clip-path:url(#SVGID_00000143612107452895202720000012208043012622618035_);}
	.st209{fill:#050000;}
	.st210{clip-path:url(#SVGID_00000175316026183681993180000011629360982122294447_);}
	.st211{clip-path:url(#SVGID_00000145778902313474102260000015440191410224395188_);}
	.st212{clip-path:url(#SVGID_00000052811806092462879430000009179325335896809344_);}
	.st213{clip-path:url(#SVGID_00000117638454941037980430000017823720190183910562_);}
	.st214{clip-path:url(#SVGID_00000152259736208607208520000015675707168153804174_);}
	.st215{clip-path:url(#SVGID_00000057124532661561070070000014670624408235676807_);}
	.st216{fill:#12100F;}
	.st217{clip-path:url(#SVGID_00000155106656352933048230000015553185089902069135_);}
	.st218{clip-path:url(#SVGID_00000032626916103800758110000010877484114692687273_);}
	.st219{fill:none;stroke:#000000;stroke-width:0.5;stroke-miterlimit:10;}
	.st220{clip-path:url(#SVGID_00000111871720026975805680000017335662918944962492_);}
	.st221{clip-path:url(#SVGID_00000179626770818886371790000016666535540590037945_);}
	.st222{clip-path:url(#SVGID_00000173845525387769323600000001032686931688043399_);}
	.st223{clip-path:url(#SVGID_00000170969733194413885290000016290349119350786723_);}
	.st224{fill:none;stroke:#000000;stroke-width:0.25;stroke-miterlimit:10;}
	.st225{clip-path:url(#SVGID_00000073000053601498076010000017490039675055182775_);}
	.st226{clip-path:url(#SVGID_00000145760023522457430530000017026549955010403750_);}
	.st227{clip-path:url(#SVGID_00000094602062487669841310000003700749562318842771_);}
</style>
<g>
	<g>
		<path d="M37.74,31.86L37.3,28.2c-0.02-0.12-0.07-0.22-0.16-0.3c-0.09-0.08-0.19-0.12-0.31-0.12v-1.98l1.96-0.4
			c0.15-0.03,0.26-0.12,0.33-0.26c0.07-0.14,0.07-0.28,0-0.42c-0.07-0.14-0.15-0.28-0.24-0.41l0.92-0.84
			c0.21-0.19,0.38-0.42,0.51-0.67c0.13-0.26,0.21-0.53,0.24-0.81c0.03-0.28,0.01-0.57-0.06-0.84c-0.07-0.28-0.19-0.54-0.35-0.77
			l-3.78-5.51c-0.36-0.57-0.83-1.01-1.41-1.34c-0.58-0.32-1.2-0.48-1.87-0.48H19.07c-0.66,0-1.28,0.15-1.86,0.47
			c-0.58,0.32-1.05,0.76-1.41,1.32l-3.8,5.52c-0.16,0.24-0.28,0.49-0.34,0.77c-0.07,0.28-0.09,0.56-0.06,0.84
			c0.04,0.28,0.11,0.56,0.24,0.81c0.13,0.25,0.3,0.48,0.51,0.67l4.06,3.72c0.1,0.09,0.22,0.13,0.36,0.12
			c0.13-0.02,0.24-0.07,0.33-0.19l0.56-0.76v15.68c0,0.13,0.05,0.24,0.14,0.33c0.09,0.09,0.2,0.14,0.33,0.14h20.1
			c0.25,0,0.48-0.05,0.71-0.15c0.23-0.09,0.43-0.23,0.61-0.41c0.18-0.18,0.31-0.38,0.41-0.61c0.09-0.23,0.14-0.48,0.14-0.73v-4.27
			c0-1.07-0.33-2.01-1-2.82L37.74,31.86z M38.87,34.96l-7.13,5.95c-0.04-0.1-0.05-0.2-0.06-0.3v-2.62l5.97-4.75l0.72,0.88
			C38.58,34.37,38.75,34.65,38.87,34.96z M36.83,32.11c0.01,0.09,0.04,0.17,0.1,0.24l0.12,0.14l-5.37,4.28v-0.45
			c0-0.84,0.26-1.58,0.79-2.22l1.44-1.76c0.06-0.07,0.09-0.15,0.11-0.24l0.42-3.39h1.98L36.83,32.11z M34.96,27.78v-0.95h0.93v0.95
			H34.96z M36.27,24.94c-0.11,0.02-0.2,0.07-0.27,0.17c-0.07,0.09-0.11,0.19-0.11,0.3v0.48h-1.27l-2.23-1.36
			c-0.07-0.05-0.15-0.07-0.24-0.07h-0.93V23.5h4.45c0.44,0,0.86,0.09,1.26,0.29c0.4,0.19,0.73,0.46,1.01,0.81L36.27,24.94z
			 M26.08,17.33c0.46,0,0.9-0.08,1.32-0.25c0.43-0.16,0.81-0.4,1.15-0.7c0.34-0.3,0.62-0.66,0.83-1.07c0.21-0.41,0.35-0.84,0.41-1.3
			h0.94c-0.06,0.59-0.22,1.14-0.48,1.67c-0.26,0.53-0.61,0.99-1.04,1.38c-0.43,0.39-0.91,0.7-1.45,0.91
			c-0.54,0.21-1.1,0.32-1.68,0.32s-1.14-0.11-1.68-0.32c-0.54-0.21-1.03-0.52-1.46-0.91c-0.43-0.39-0.78-0.85-1.04-1.38
			c-0.26-0.52-0.42-1.08-0.48-1.67h0.94c0.06,0.46,0.19,0.89,0.41,1.3c0.21,0.41,0.49,0.77,0.83,1.08c0.34,0.3,0.72,0.54,1.15,0.7
			C25.19,17.24,25.63,17.33,26.08,17.33z M23.32,14h5.53c-0.06,0.33-0.17,0.64-0.33,0.94c-0.16,0.29-0.37,0.55-0.62,0.76
			c-0.25,0.22-0.54,0.38-0.85,0.5c-0.31,0.11-0.63,0.17-0.96,0.17c-0.33,0-0.65-0.06-0.96-0.17c-0.31-0.12-0.59-0.28-0.85-0.5
			c-0.25-0.22-0.46-0.47-0.63-0.76C23.48,14.64,23.37,14.33,23.32,14z M18.61,40.6h11.22v-0.95H18.61v-17.1h-0.94v2.22l-1,1.36
			l-3.68-3.37c-0.26-0.24-0.41-0.53-0.45-0.88c-0.04-0.35,0.04-0.67,0.24-0.96l3.8-5.53c0.27-0.43,0.63-0.77,1.07-1.01
			c0.44-0.25,0.91-0.37,1.42-0.37h1.43c0.03,0.35,0.09,0.7,0.18,1.04c0.09,0.34,0.22,0.67,0.37,0.99c0.15,0.32,0.33,0.62,0.54,0.91
			c0.21,0.28,0.44,0.54,0.7,0.78c0.26,0.24,0.54,0.46,0.83,0.64c0.3,0.19,0.61,0.35,0.93,0.48c0.32,0.13,0.66,0.22,1,0.29
			c0.34,0.07,0.69,0.1,1.04,0.1c0.35,0,0.69-0.03,1.04-0.1c0.34-0.07,0.68-0.16,1-0.29c0.33-0.13,0.63-0.29,0.93-0.48
			c0.3-0.19,0.57-0.4,0.83-0.64c0.26-0.24,0.49-0.5,0.7-0.78c0.21-0.29,0.39-0.59,0.54-0.91c0.15-0.32,0.28-0.65,0.37-0.99
			c0.09-0.34,0.15-0.69,0.18-1.04h1.42c0.51,0,0.98,0.12,1.43,0.37c0.44,0.25,0.8,0.59,1.08,1.02l3.79,5.52
			c0.2,0.29,0.28,0.61,0.24,0.96c-0.04,0.35-0.19,0.64-0.45,0.88l-0.91,0.83c-0.73-0.69-1.6-1.04-2.6-1.04h-4.92
			c-0.13,0-0.24,0.05-0.33,0.14c-0.09,0.09-0.14,0.2-0.14,0.33v1.9c0,0.13,0.05,0.24,0.14,0.34c0.09,0.09,0.2,0.14,0.33,0.14h1.27
			l0.11,0.06c-0.06,0.92-0.33,1.76-0.83,2.52l0.78,0.53c0.5-0.76,0.82-1.6,0.95-2.51l1,0.61v1.15c-0.12,0-0.22,0.04-0.31,0.12
			c-0.09,0.08-0.14,0.18-0.15,0.3l-0.45,3.66l-1.35,1.65c-0.67,0.82-1,1.76-1,2.83v4.27c0,0.34,0.09,0.66,0.26,0.95H18.61V40.6z
			 M39.17,40.6c0,0.26-0.09,0.49-0.27,0.67c-0.19,0.19-0.41,0.28-0.66,0.28h-5.61c-0.06,0-0.11-0.01-0.17-0.02l6.68-5.57
			c0.02,0.12,0.03,0.24,0.03,0.36V40.6z"/>
	</g>
	<rect x="11.36" y="13.03" class="st0" width="29.49" height="29.49"/>
	<path d="M27.15,27.78c-0.56,0-1,0.22-1.35,0.66l-1.11,1.41c-0.16,0.2-0.36,0.3-0.61,0.3c-0.33,0-0.57-0.15-0.71-0.46l-0.64-1.4
		c-0.01-0.02-0.02-0.03-0.02-0.04c-0.17-0.29-0.41-0.52-0.7-0.69s-0.61-0.25-0.94-0.25c-0.2,0-0.4,0.04-0.58,0.11
		c-0.19,0.08-0.35,0.19-0.49,0.33c-0.14,0.15-0.25,0.32-0.33,0.5c-0.08,0.19-0.12,0.39-0.12,0.59c0,0.33,0.09,0.63,0.28,0.9
		l0.47,0.74c0.12,0.19,0.18,0.39,0.18,0.61c0,0.22-0.06,0.43-0.18,0.62l-0.4,0.64c-0.08,0.11-0.15,0.24-0.21,0.37
		c-0.06,0.13-0.09,0.27-0.12,0.41c-0.02,0.14-0.03,0.29-0.02,0.43c0.01,0.15,0.04,0.29,0.07,0.43c0.04,0.14,0.1,0.27,0.17,0.39
		c0.07,0.13,0.16,0.24,0.26,0.34c0.1,0.1,0.21,0.19,0.33,0.27c0.12,0.08,0.25,0.14,0.39,0.19c0.24,0.08,0.47,0.09,0.71,0.04
		c0.24-0.06,0.45-0.18,0.63-0.36l1.18-1.2c0.12-0.13,0.27-0.19,0.44-0.19c0.16,0,0.3,0.05,0.41,0.15c0.12,0.11,0.19,0.24,0.21,0.39
		l0.21,1.5c0.03,0.19,0.09,0.36,0.18,0.52c0.09,0.16,0.21,0.3,0.35,0.42c0.15,0.12,0.31,0.2,0.48,0.26
		c0.17,0.06,0.35,0.08,0.54,0.06c0.19-0.01,0.36-0.06,0.53-0.14c0.17-0.08,0.32-0.19,0.44-0.33c0.13-0.14,0.22-0.29,0.29-0.47
		c0.07-0.17,0.1-0.35,0.1-0.54v-2.34c0-0.48,0.17-0.9,0.51-1.24c0.59-0.61,0.89-1.34,0.89-2.2c0-0.23-0.04-0.46-0.13-0.67
		c-0.09-0.22-0.21-0.41-0.37-0.57c-0.16-0.17-0.35-0.29-0.56-0.38C27.61,27.82,27.39,27.78,27.15,27.78z M27.33,31.07
		c-0.52,0.53-0.78,1.16-0.78,1.91v2.34c0,0.14-0.05,0.26-0.14,0.37c-0.1,0.1-0.21,0.16-0.35,0.17c-0.14,0.01-0.26-0.03-0.37-0.12
		c-0.11-0.09-0.17-0.2-0.2-0.34l-0.21-1.5c-0.04-0.3-0.16-0.56-0.35-0.8c-0.19-0.23-0.43-0.39-0.7-0.49s-0.57-0.11-0.85-0.04
		c-0.29,0.07-0.54,0.21-0.74,0.43l-1.18,1.2c-0.11,0.11-0.24,0.14-0.38,0.09c-0.18-0.06-0.32-0.17-0.43-0.32
		c-0.11-0.15-0.17-0.32-0.17-0.51c0-0.21,0.07-0.39,0.19-0.56l0.42-0.67c0.22-0.34,0.32-0.72,0.32-1.13s-0.11-0.79-0.33-1.13
		l-0.49-0.77c-0.15-0.2-0.16-0.4-0.06-0.62s0.28-0.33,0.52-0.33c0.36,0,0.63,0.15,0.83,0.46l0.63,1.37
		c0.06,0.14,0.14,0.26,0.23,0.38c0.09,0.11,0.2,0.21,0.32,0.3c0.12,0.09,0.24,0.16,0.38,0.21c0.14,0.06,0.28,0.09,0.42,0.11
		c0.15,0.02,0.29,0.02,0.44,0c0.15-0.02,0.28-0.06,0.42-0.11c0.13-0.06,0.26-0.13,0.38-0.22c0.12-0.09,0.22-0.19,0.32-0.31
		l1.11-1.41c0.11-0.13,0.24-0.22,0.4-0.27c0.16-0.05,0.32-0.04,0.48,0.01c0.16,0.06,0.29,0.15,0.39,0.3c0.1,0.14,0.15,0.3,0.15,0.46
		C27.95,30.13,27.74,30.64,27.33,31.07z"/>
	<path d="M27.15,26.49l1.87-1.9l0.66,0.67l-1.87,1.9L27.15,26.49z"/>
	<path d="M26.08,23.5h1.87v0.95h-1.87V23.5z"/>
</g>
</svg>
