<?xml version="1.0" encoding="utf-8"?>
<!-- Generator: Adobe Illustrator 27.3.1, SVG Export Plug-In . SVG Version: 6.00 Build 0)  -->
<svg version="1.1" id="Layer_1" xmlns="http://www.w3.org/2000/svg" xmlns:xlink="http://www.w3.org/1999/xlink" x="0px" y="0px"
	 viewBox="0 0 50 50" style="enable-background:new 0 0 50 50;" xml:space="preserve">
<style type="text/css">
	.st0{fill:none;}
	.st1{stroke:#000000;stroke-miterlimit:10;}
	.st2{stroke:#000000;stroke-width:0.75;stroke-miterlimit:10;}
	.st3{clip-path:url(#SVGID_00000052796206717891214000000005965251142155774911_);}
	.st4{clip-path:url(#SVGID_00000176750679401675975730000006699409923744930214_);}
	.st5{fill:#FFFFFF;}
	.st6{clip-path:url(#SVGID_00000069375913121467774840000014443734693676715186_);}
	.st7{fill:#231F20;}
	.st8{clip-path:url(#SVGID_00000005948343783380698160000007153469564197077141_);}
	.st9{clip-path:url(#SVGID_00000008827205303218889630000006072074154021818517_);}
	.st10{clip-path:url(#SVGID_00000118380491263625808260000000396923836771441558_);}
	.st11{clip-path:url(#SVGID_00000178168764711902520630000001198365326208349825_);}
	.st12{clip-path:url(#SVGID_00000161599864583007391270000008253550750707813251_);}
	.st13{clip-path:url(#SVGID_00000179637912680431825010000011537354033263321506_);}
	.st14{clip-path:url(#SVGID_00000107560467528447200380000013149381317362813885_);}
	.st15{clip-path:url(#SVGID_00000067233539943368029370000016354625983747366540_);}
	.st16{clip-path:url(#SVGID_00000111180067270573457700000001684919336055567037_);}
	.st17{clip-path:url(#SVGID_00000045593256808812075590000012585453214063509425_);}
	.st18{clip-path:url(#SVGID_00000102535181530486297180000013412032077178920884_);}
	.st19{clip-path:url(#SVGID_00000086654854515354855670000015561468414558273950_);}
	.st20{clip-path:url(#SVGID_00000163057622003295365990000008759563138112516508_);}
	.st21{clip-path:url(#SVGID_00000069389605454959071980000000108563990293950876_);}
	.st22{clip-path:url(#SVGID_00000109747264150873501110000002677129381131769497_);}
	.st23{clip-path:url(#SVGID_00000177460832928191608450000009470999295095844508_);}
	.st24{clip-path:url(#SVGID_00000093167472168807264910000014213623429839826829_);}
	.st25{clip-path:url(#SVGID_00000165219151072474186430000001133548732245001108_);}
	.st26{clip-path:url(#SVGID_00000031909594639470815400000001004146376728944289_);}
	.st27{clip-path:url(#SVGID_00000029759297737291644780000012043813176768919940_);}
	.st28{clip-path:url(#SVGID_00000152231395408436762710000016275513551399606940_);}
	.st29{clip-path:url(#SVGID_00000000902031271385722760000004914287303776017329_);}
	.st30{clip-path:url(#SVGID_00000063634757337067735490000005432393904600947386_);}
	.st31{fill-rule:evenodd;clip-rule:evenodd;}
	.st32{clip-path:url(#SVGID_00000090271599954812090660000010356689822734000042_);}
	.st33{clip-path:url(#SVGID_00000034089037725708116630000001010176850485962639_);}
	.st34{stroke:#000000;stroke-width:0.5;stroke-miterlimit:10;}
	.st35{clip-path:url(#SVGID_00000160157338476125283800000013748139989607580095_);}
	.st36{clip-path:url(#SVGID_00000109010467628067828210000004957882646119461813_);}
	.st37{clip-path:url(#SVGID_00000047047823143801460350000012862461654519807148_);}
	.st38{fill:#1A1A1A;}
	.st39{clip-path:url(#SVGID_00000077319421702828459480000005274864045874046622_);}
	.st40{clip-path:url(#SVGID_00000107572379619737376150000004955763921849380000_);}
	.st41{clip-path:url(#SVGID_00000039097772317147398530000006076356498187607683_);}
	.st42{clip-path:url(#SVGID_00000066513567209728913550000011809594404682241435_);}
	.st43{clip-path:url(#SVGID_00000100372536284276511690000011262791299265504438_);}
	.st44{clip-path:url(#SVGID_00000106135715128092767470000008762699971588507777_);}
	.st45{clip-path:url(#SVGID_00000123423360653103171340000004398310604027309744_);}
	.st46{clip-path:url(#SVGID_00000030445344992025259020000014005563556617237385_);}
	.st47{clip-path:url(#SVGID_00000111871716174728236790000012241144328774906540_);}
	.st48{fill:#F1F1F1;}
	.st49{fill:#E8E8E8;}
	.st50{fill:#FEFEFE;}
	.st51{fill:#CCCCCC;}
	.st52{fill:#B3B3B3;}
	.st53{fill:#E6E6E6;}
	.st54{fill:#EBEBEB;}
	.st55{fill:#EEEEEE;}
	.st56{fill:#F8F8F8;}
	.st57{fill:#FBFBFB;}
	.st58{fill:#383838;}
	.st59{fill:#232323;}
	.st60{fill:#F6F6F6;}
	.st61{fill:#535353;}
	.st62{fill:#0A0A0A;}
	.st63{fill:#F5F5F5;}
	.st64{fill:#818181;}
	.st65{fill:#4A4A4A;}
	.st66{fill:#999999;}
	.st67{fill:url(#SVGID_00000030463807731046450290000017817530956512609206_);}
	.st68{fill:url(#SVGID_00000064339621296459903460000002050604149608104349_);}
	.st69{fill:#0E0E0D;}
	.st70{fill:#333333;}
	.st71{fill:#808080;}
	.st72{fill:url(#SVGID_00000003100068379330548110000006459801967312371364_);}
	.st73{fill:#666666;}
	.st74{fill:url(#SVGID_00000096752978778038297450000001230992709855495332_);}
	.st75{fill:url(#SVGID_00000111906223887206614240000016497771440433487773_);}
	.st76{fill:url(#SVGID_00000124842532754397655590000000972520449988490161_);}
	.st77{fill:url(#SVGID_00000139254853330606736940000016133746434068368548_);}
	.st78{fill:url(#SVGID_00000151503646003459562280000005770477310825785273_);}
	.st79{clip-path:url(#SVGID_00000052087395099441098290000017120804628803364540_);}
	.st80{clip-path:url(#SVGID_00000150793858209269671660000013185819173436233350_);}
	.st81{clip-path:url(#SVGID_00000049213229492890157230000017095756417768262075_);}
	.st82{clip-path:url(#SVGID_00000029042049437270512100000007904903141904798606_);}
	.st83{clip-path:url(#SVGID_00000181779276078675302650000005465254653118702220_);}
	.st84{fill:#241F20;stroke:#000000;stroke-width:0.5;stroke-miterlimit:10;}
	.st85{clip-path:url(#SVGID_00000163758543724340805970000010017538228781599154_);}
	.st86{clip-path:url(#SVGID_00000114754544095003808310000003010375033479847336_);}
	.st87{clip-path:url(#SVGID_00000047755134288215236120000002417480985355732116_);}
	.st88{clip-path:url(#SVGID_00000093865313038670764130000002774671755881846917_);}
	.st89{clip-path:url(#SVGID_00000052064244841159258190000008395513002611918481_);}
	.st90{clip-path:url(#SVGID_00000072974423742328879200000000198580928382727850_);}
	.st91{clip-path:url(#SVGID_00000139996382819550533310000002615574366897437096_);}
	.st92{clip-path:url(#SVGID_00000136374053006530681190000003909171804039969159_);}
	.st93{clip-path:url(#SVGID_00000047056968601832386940000003645410470570572426_);}
	.st94{clip-path:url(#SVGID_00000124867459795241616430000007111144290114664883_);}
	.st95{clip-path:url(#SVGID_00000062877854773701809730000010225168337136024743_);}
	.st96{clip-path:url(#SVGID_00000086662449464931968820000008424947791284407485_);}
	.st97{clip-path:url(#SVGID_00000117661111378916479070000004593744677580151998_);}
	.st98{clip-path:url(#SVGID_00000058568528051956744340000006432127285854664605_);}
	.st99{clip-path:url(#SVGID_00000027567816666818236550000017022969136588834983_);}
	.st100{clip-path:url(#SVGID_00000056422663452360184500000013937271455258991244_);}
	.st101{clip-path:url(#SVGID_00000132087531908527192770000010562051131548279950_);}
	.st102{clip-path:url(#SVGID_00000010312195352846012380000016628397644911686843_);}
	.st103{clip-path:url(#SVGID_00000181078578681356825540000010863098823588110242_);}
	.st104{clip-path:url(#SVGID_00000066486505101636201330000011251496656677791655_);}
	.st105{clip-path:url(#SVGID_00000073695622406360430550000005216984451377899188_);}
	.st106{clip-path:url(#SVGID_00000047773759757068519020000001636387464839437440_);}
	.st107{clip-path:url(#SVGID_00000120559751470432813300000006238828795679712133_);}
	.st108{clip-path:url(#SVGID_00000056397747347325172260000006282111780661734576_);}
	.st109{clip-path:url(#SVGID_00000007425912017553004730000018224983253447862160_);}
	.st110{clip-path:url(#SVGID_00000061450043183070310340000008401324136067236750_);}
	.st111{clip-path:url(#SVGID_00000093172376697009095570000012915492841913392296_);}
	.st112{clip-path:url(#SVGID_00000093873490877385361360000007625899125592099732_);}
	.st113{clip-path:url(#SVGID_00000021832240082049434570000003056987877069225128_);}
	.st114{clip-path:url(#SVGID_00000129196391989659092520000016582689581630438539_);}
	.st115{fill:#FFFFFF;stroke:#000000;stroke-miterlimit:10;}
	.st116{clip-path:url(#SVGID_00000152945689317454652150000016329301544264980897_);}
	.st117{clip-path:url(#SVGID_00000016790274405515405430000000658211431730167742_);}
	.st118{fill:none;stroke:#010101;stroke-miterlimit:10;}
	.st119{fill:#010101;stroke:#000000;stroke-miterlimit:10;}
	.st120{clip-path:url(#SVGID_00000008117673358128488180000013133898002282618518_);}
	.st121{fill:#010101;stroke:#010101;stroke-miterlimit:10;}
	.st122{clip-path:url(#SVGID_00000055676653979340923490000016770205132812644257_);}
	.st123{clip-path:url(#SVGID_00000109736635533915853250000010172679445731529885_);}
	.st124{clip-path:url(#SVGID_00000091000036377986509560000016585884150953670802_);}
	.st125{clip-path:url(#SVGID_00000101097999033157732630000011393405077637526425_);}
	.st126{clip-path:url(#SVGID_00000124139978594388424190000002076847789839483029_);}
	.st127{fill:none;stroke:#000000;stroke-width:3;stroke-miterlimit:10;}
	.st128{clip-path:url(#SVGID_00000104674889570960703320000008450320322460169373_);}
	.st129{clip-path:url(#SVGID_00000153702678027041110520000003748897792843480481_);}
	.st130{clip-path:url(#SVGID_00000023261315706203350480000005424886254814185402_);}
	.st131{clip-path:url(#SVGID_00000025403664353968793230000004762192617198562451_);}
	.st132{fill:#040606;}
	.st133{clip-path:url(#SVGID_00000005248562940009784540000008636888881909442434_);}
	.st134{clip-path:url(#SVGID_00000061444449974498847920000003287972368108396682_);}
	.st135{clip-path:url(#SVGID_00000073694050723388849660000010486933862080870564_);}
	.st136{clip-path:url(#SVGID_00000076575790327218998450000015220057847113233793_);}
	.st137{clip-path:url(#SVGID_00000009554237997467494770000015824183745680434062_);}
	.st138{clip-path:url(#SVGID_00000005948578439255328860000017563506421653968573_);}
	.st139{clip-path:url(#SVGID_00000093895560897610438540000008150271230819187330_);}
	.st140{fill:#FFFFFF;stroke:#000000;stroke-width:1.5;stroke-miterlimit:10;}
	.st141{clip-path:url(#SVGID_00000044887677595445572350000014623385263954808488_);}
	.st142{fill:#BDBCBC;}
	.st143{clip-path:url(#SVGID_00000004537933878265772700000015410780534855327637_);}
	.st144{fill:#2E2A2B;}
	.st145{clip-path:url(#SVGID_00000154387748787932228970000017707035676583230623_);}
	.st146{clip-path:url(#SVGID_00000056411887937238933990000016709519445960053646_);}
	.st147{clip-path:url(#SVGID_00000147943074589524607950000014191063251564083377_);}
	.st148{clip-path:url(#SVGID_00000116924284457359960510000002967557304025333919_);}
	.st149{clip-path:url(#SVGID_00000077324253002712263550000014155119358598740395_);}
	.st150{fill:#272324;}
	.st151{clip-path:url(#SVGID_00000065064295428346263070000014521023617811978906_);}
	.st152{clip-path:url(#SVGID_00000160192351721694954800000008812912257819116976_);}
	.st153{clip-path:url(#SVGID_00000123412155847426527810000000041802657768079250_);}
	.st154{clip-path:url(#SVGID_00000021797579812177395350000016905374764091980457_);}
	.st155{clip-path:url(#SVGID_00000064335553987644295920000005272032930395471027_);}
	.st156{clip-path:url(#SVGID_00000054264086559972563140000012730059059940697771_);}
	.st157{fill:none;stroke:#000000;stroke-width:0.8735;stroke-linecap:round;stroke-linejoin:round;stroke-miterlimit:10;}
	.st158{clip-path:url(#SVGID_00000127044710876428860000000018304303039516371132_);}
	.st159{clip-path:url(#SVGID_00000114795157685041910420000014325225957366374784_);}
	.st160{clip-path:url(#SVGID_00000145056062325014032810000017318203870632289447_);}
	.st161{clip-path:url(#SVGID_00000076587297565768700190000010419666790450327449_);}
	.st162{clip-path:url(#SVGID_00000135669310470814133800000006062732668891103138_);}
	.st163{clip-path:url(#SVGID_00000182505113490981193470000015214931991341464760_);}
	.st164{clip-path:url(#SVGID_00000074436611202300085610000010978838748776268418_);}
	.st165{clip-path:url(#SVGID_00000051384186830892106950000000917540617375731334_);}
	.st166{clip-path:url(#SVGID_00000146492418466812614430000014060190941737407423_);}
	.st167{clip-path:url(#SVGID_00000155143805058641420620000010321084713916120212_);}
	.st168{clip-path:url(#SVGID_00000029028779454277189320000006599745396202501271_);}
	.st169{clip-path:url(#SVGID_00000015331377776695742110000004733754710912011441_);}
	.st170{clip-path:url(#SVGID_00000071549076436317906410000011106622730544383118_);}
	.st171{clip-path:url(#SVGID_00000150064508827682235990000015418652440416374177_);}
	.st172{clip-path:url(#SVGID_00000140016573157326819660000009792550975504523942_);}
	.st173{clip-path:url(#SVGID_00000124158548379376653330000002270509160216162232_);}
	.st174{clip-path:url(#SVGID_00000165940332538730187350000001681501338936732050_);}
	.st175{clip-path:url(#SVGID_00000008844630930604046700000008194738534466741144_);}
	.st176{clip-path:url(#SVGID_00000087406901717317052290000007928916860796858497_);}
	.st177{clip-path:url(#SVGID_00000045613149979746210420000003628335702618761890_);}
	.st178{clip-path:url(#SVGID_00000093856952795735333010000009635189693687276963_);}
	.st179{clip-path:url(#SVGID_00000145024283807357149170000006959415593880429223_);}
	.st180{clip-path:url(#SVGID_00000176022678233465146220000005545137394589039773_);}
	.st181{clip-path:url(#SVGID_00000067200029348572459760000003773528161150965905_);}
	.st182{clip-path:url(#SVGID_00000069381922728715645830000018324692592246831763_);}
	.st183{clip-path:url(#SVGID_00000088130579699270856690000013169135006552773761_);}
	.st184{clip-path:url(#SVGID_00000132060918412516498090000006599405814120232889_);}
	.st185{clip-path:url(#SVGID_00000131368891965235006930000012791282753144313010_);}
	.st186{clip-path:url(#SVGID_00000008863193532104981480000010501846237782886544_);}
	.st187{clip-path:url(#SVGID_00000157269556544415728600000001871349258854354597_);}
	.st188{clip-path:url(#SVGID_00000083806905993056304620000009748167893626039178_);}
	.st189{clip-path:url(#SVGID_00000165236398001903766590000005061372247483558060_);}
	.st190{clip-path:url(#SVGID_00000002342311205042957900000000838618149346694031_);}
	.st191{clip-path:url(#SVGID_00000173872258141470262220000010994902466465513380_);}
	.st192{clip-path:url(#SVGID_00000091016465140664792240000003477224270681188508_);}
	.st193{clip-path:url(#SVGID_00000110444089679331807860000005429561828613074337_);}
	.st194{clip-path:url(#SVGID_00000120546015156290082590000012186728887539660935_);}
	.st195{clip-path:url(#SVGID_00000073712370067228381160000001747440546419625108_);}
	.st196{fill:#E5E5E5;}
	.st197{fill:#1D1D1B;}
	.st198{fill:none;stroke:#000000;stroke-miterlimit:10;}
	.st199{fill:#FEFEFE;stroke:#000000;stroke-miterlimit:10;}
	.st200{clip-path:url(#SVGID_00000068677638741208612550000008048657335524942225_);}
	.st201{clip-path:url(#SVGID_00000068659851043085169110000018403686773879096753_);}
	.st202{clip-path:url(#SVGID_00000166648787628173803460000002394443904979881888_);}
	.st203{fill:#231F1F;}
	.st204{fill:#020000;}
	.st205{clip-path:url(#SVGID_00000137129429882810397730000005288218529265958039_);}
	.st206{clip-path:url(#SVGID_00000116940467617078014750000017082613615790269840_);}
	.st207{clip-path:url(#SVGID_00000038403697651812948280000002967342173959473334_);}
	.st208{clip-path:url(#SVGID_00000132802330139165210020000011345080120460933785_);}
	.st209{fill:#050000;}
	.st210{clip-path:url(#SVGID_00000013156298440570777350000000318654342470664372_);}
	.st211{clip-path:url(#SVGID_00000007421082669361498210000002401794501091500964_);}
	.st212{clip-path:url(#SVGID_00000046342003834010049960000012592326384075116202_);}
	.st213{clip-path:url(#SVGID_00000091007153007742191980000009658076941135611538_);}
	.st214{clip-path:url(#SVGID_00000160902619090565136040000001403191784891997108_);}
	.st215{clip-path:url(#SVGID_00000013154366562832441230000013004880811066409858_);}
	.st216{fill:#12100F;}
	.st217{clip-path:url(#SVGID_00000121262051705285059400000009041257244869300902_);}
	.st218{clip-path:url(#SVGID_00000181809162292863571880000011787052636946407575_);}
	.st219{fill:none;stroke:#000000;stroke-width:0.5;stroke-miterlimit:10;}
	.st220{clip-path:url(#SVGID_00000175285367814638856330000013579137047658564238_);}
	.st221{clip-path:url(#SVGID_00000088100351860283106560000002440375168246876338_);}
	.st222{clip-path:url(#SVGID_00000062897595238231800710000009262051107202874034_);}
	.st223{clip-path:url(#SVGID_00000091009184964111480690000002847874318732358300_);}
	.st224{fill:none;stroke:#000000;stroke-width:0.25;stroke-miterlimit:10;}
	.st225{clip-path:url(#SVGID_00000148647187015929301480000016634887826676608696_);}
	.st226{clip-path:url(#SVGID_00000057841166388318910590000008121391163098752147_);}
	.st227{clip-path:url(#SVGID_00000157281387867676517080000014432813040718930579_);}
</style>
<g>
	<g>
		<defs>
			<rect id="SVGID_00000116936706846536801170000017582185562507452043_" x="8.19" y="8.97" width="35.35" height="32.04"/>
		</defs>
		<clipPath id="SVGID_00000084515764415689576180000014440759944420456886_">
			<use xlink:href="#SVGID_00000116936706846536801170000017582185562507452043_"  style="overflow:visible;"/>
		</clipPath>
		<g style="clip-path:url(#SVGID_00000084515764415689576180000014440759944420456886_);">
			<path d="M11.16,35.14c-0.07-0.01-0.14-0.03-0.2-0.04c-0.72-0.21-1.23-0.64-1.46-1.36c-0.05-0.18-0.1-0.35-0.16-0.53
				c-0.04-0.13-0.08-0.26-0.15-0.38c-0.09-0.18-0.21-0.33-0.38-0.44c-0.03-0.02-0.07-0.04-0.09-0.08c0.01-0.06,0.06-0.09,0.1-0.12
				c0.43-0.39,0.89-0.75,1.34-1.11c1.42-1.16,2.66-2.49,3.77-3.95c0.92-1.2,1.73-2.46,2.5-3.75c0.54-0.92,1.08-1.85,1.61-2.77
				c0.9-1.54,1.96-2.97,3.2-4.26c0.57-0.59,1.18-1.12,1.85-1.6c0.18-0.13,0.37-0.27,0.54-0.42c0.1-0.08,0.2-0.18,0.26-0.29
				c-0.14-0.08-0.26-0.03-0.38,0.05c-0.03-0.06-0.02-0.1,0.01-0.14c0.06-0.1,0.16-0.15,0.28-0.16c0.11-0.01,0.11-0.01,0.1-0.13
				c-0.05-0.91-0.26-1.77-0.58-2.62c-0.14-0.38-0.3-0.76-0.44-1.14c-0.08-0.2-0.14-0.41-0.17-0.62c-0.01-0.07-0.01-0.13,0.01-0.2
				C22.74,9,22.78,8.97,22.85,9c0.2,0.07,0.41,0.07,0.62,0.06c0.31-0.01,0.62-0.02,0.93,0.03c0.61,0.09,1.08,0.39,1.36,0.95
				c0.01,0.01,0.01,0.02,0.02,0.03c0.03-0.01,0.04-0.03,0.05-0.06c0.28-0.54,0.73-0.81,1.31-0.91c0.27-0.05,0.56-0.05,0.83-0.04
				c0.18,0.01,0.35,0.01,0.52-0.01c0.07-0.01,0.15-0.02,0.22-0.05c0.08-0.03,0.12-0.01,0.13,0.08c0.01,0.1,0.01,0.19-0.01,0.29
				c-0.05,0.27-0.15,0.54-0.25,0.79c-0.2,0.54-0.43,1.06-0.58,1.6c-0.18,0.62-0.3,1.25-0.33,1.9c-0.01,0.1-0.01,0.1,0.1,0.11
				c0.14,0.01,0.25,0.07,0.3,0.2c0.01,0.03,0.02,0.06,0,0.08c-0.03,0.03-0.05,0-0.07-0.01c-0.1-0.06-0.2-0.08-0.32-0.03
				c0.01,0.05,0.05,0.09,0.08,0.13c0.13,0.15,0.27,0.27,0.43,0.38c0.4,0.31,0.81,0.6,1.2,0.94c0.76,0.66,1.43,1.41,2.07,2.18
				c0.89,1.08,1.65,2.25,2.35,3.47c0.65,1.12,1.29,2.26,1.98,3.36c0.97,1.55,2.04,3.02,3.27,4.38c0.81,0.9,1.7,1.71,2.64,2.48
				c0.34,0.27,0.68,0.55,1,0.84c0.03,0.02,0.06,0.05,0.08,0.07c0.06,0.06,0.06,0.08-0.01,0.13c-0.27,0.18-0.42,0.43-0.52,0.73
				c-0.05,0.16-0.1,0.33-0.15,0.5c-0.16,0.57-0.47,1.01-0.99,1.3c-0.01,0.01-0.02,0.01-0.04,0.03c0.04,0.03,0.07,0.01,0.1,0.01
				c0.52-0.03,1.02-0.13,1.51-0.29c0.03-0.01,0.06-0.02,0.09-0.03c0.05-0.01,0.09,0.01,0.12,0.05c0.07,0.17,0.18,0.32,0.27,0.47
				c0.35,0.65,0.25,1.43-0.26,1.96c-0.29,0.3-0.62,0.57-0.97,0.79c-0.05,0.03-0.08,0.06-0.1,0.12c-0.03,0.09-0.07,0.16-0.13,0.23
				c-0.31,0.34-0.68,0.53-1.15,0.46c-0.13-0.02-0.27-0.03-0.41-0.05c-0.26-0.03-0.51,0.03-0.75,0.09c0,0.05,0.03,0.07,0.06,0.1
				c0.08,0.09,0.16,0.19,0.24,0.28c0.16,0.18,0.16,0.18-0.02,0.34c-0.12,0.11-0.26,0.2-0.41,0.28c-0.7,0.32-1.42,0.49-2.19,0.48
				c-0.16,0-0.32-0.03-0.48-0.08c-0.06-0.02-0.13-0.05-0.18-0.08c-0.15-0.1-0.2-0.23-0.16-0.4c0.02-0.07,0.05-0.14,0.07-0.2
				c0.02-0.06,0.04-0.11,0.05-0.17c0.02-0.13-0.02-0.22-0.15-0.28c-0.13-0.06-0.27-0.05-0.41-0.03c-0.14,0.03-0.27,0.09-0.41,0.15
				c-0.31,0.14-0.63,0.27-0.97,0.32c-0.04,0.01-0.08,0.02-0.1,0.05c-0.36,0.47-0.84,0.77-1.36,1c-0.37,0.16-0.73,0.3-1.13,0.36
				c-0.24,0.03-0.48,0.03-0.73,0c-0.08-0.01-0.11-0.05-0.13-0.13c-0.06-0.32-0.14-0.62-0.23-0.93c-0.05-0.21-0.14-0.42-0.22-0.63
				c-0.06,0.01-0.09,0.06-0.13,0.08c-0.24,0.2-0.46,0.42-0.68,0.64c-0.18,0.18-0.35,0.35-0.55,0.5c-0.36,0.29-0.76,0.49-1.22,0.56
				c-0.22,0.04-0.44,0.04-0.67-0.01c-0.09-0.02-0.18-0.06-0.26-0.12c-0.12-0.08-0.19-0.2-0.13-0.39c0.03-0.08,0.06-0.17,0.08-0.26
				c0.07-0.24-0.01-0.41-0.25-0.49c-0.23-0.08-0.47-0.07-0.7-0.03c-0.6,0.11-1.14,0.35-1.56,0.81c-0.11,0.12-0.2,0.25-0.27,0.39
				c-0.02,0.05-0.04,0.1-0.09,0.15c-0.06-0.03-0.09-0.09-0.12-0.14c-0.28-0.41-0.66-0.61-1.14-0.66c-0.11-0.01-0.22-0.03-0.32-0.05
				c-0.35-0.06-0.61-0.23-0.8-0.52c-0.05-0.07-0.11-0.14-0.18-0.18c-0.26-0.18-0.52-0.38-0.78-0.56c-0.14-0.09-0.26-0.1-0.42-0.06
				c-0.41,0.13-0.75,0.34-1.02,0.68c-0.09,0.11-0.15,0.23-0.2,0.37c-0.01,0.06-0.02,0.12-0.01,0.18c0.03,0.2-0.04,0.34-0.22,0.44
				c-0.22,0.12-0.47,0.15-0.72,0.13c-0.4-0.03-0.77-0.16-1.1-0.38c-0.49-0.32-0.9-0.73-1.21-1.23c-0.07-0.11-0.14-0.22-0.18-0.35
				c-0.09-0.24-0.03-0.41,0.15-0.54c0.01-0.01,0.02-0.02,0.03-0.03c-0.23-0.32-0.49-0.6-0.82-0.83c-0.1-0.07-0.21-0.13-0.34-0.15
				c-0.2-0.03-0.3,0.05-0.31,0.25c-0.01,0.28,0.1,0.52,0.27,0.74c0.13,0.16,0.27,0.33,0.4,0.49c0.09,0.1,0.16,0.22,0.21,0.35
				c0.11,0.27,0.02,0.49-0.22,0.62c-0.25,0.14-0.52,0.13-0.79,0.06c-0.33-0.08-0.62-0.25-0.89-0.44c-0.18-0.13-0.37-0.25-0.57-0.35
				c-0.28-0.14-0.58-0.19-0.89-0.13c-0.32,0.06-0.62-0.01-0.88-0.21c-0.1-0.08-0.2-0.1-0.33-0.09c-0.07,0.01-0.15,0.01-0.22,0.03
				c-0.25,0.04-0.48-0.01-0.66-0.21c-0.13-0.14-0.3-0.21-0.47-0.27c-0.18-0.06-0.35-0.14-0.52-0.24c-0.37-0.21-0.56-0.53-0.63-0.94
				c-0.08-0.49,0.01-0.96,0.22-1.4c0.04-0.07,0.08-0.09,0.16-0.07c0.51,0.08,1,0.08,1.51,0.01c0.29-0.03,0.58-0.09,0.87-0.16
				C11.07,35.18,11.11,35.17,11.16,35.14z M24.14,14.18c-0.02-0.03-0.03-0.04-0.04-0.06c-0.07-0.07-0.07-0.07-0.13,0.01
				c-0.08,0.1-0.16,0.2-0.26,0.28c-0.15,0.12-0.3,0.24-0.45,0.35c-0.95,0.68-1.76,1.5-2.52,2.38c-0.94,1.1-1.75,2.29-2.47,3.54
				c-0.61,1.06-1.2,2.12-1.82,3.16c-0.93,1.57-1.94,3.07-3.12,4.47c-0.81,0.97-1.7,1.87-2.68,2.67c-0.52,0.42-1.07,0.8-1.62,1.18
				c-0.03,0.03-0.08,0.04-0.1,0.09c0.02,0.03,0.05,0.02,0.08,0.03c0.81,0.14,1.28,0.57,1.46,1.36c0.04,0.18,0.08,0.37,0.11,0.55
				c0.04,0.2,0.11,0.39,0.26,0.54c0.08,0.08,0.16,0.16,0.27,0.18c0.22,0.03,0.45,0.06,0.68,0.03c0.77-0.08,1.46-0.37,2.08-0.84
				c0.03-0.02,0.06-0.03,0.07-0.08c-0.03-0.01-0.06-0.02-0.09-0.03c-0.27-0.09-0.53-0.23-0.74-0.43c-0.19-0.18-0.34-0.39-0.4-0.64
				c-0.06-0.26-0.03-0.51,0.15-0.72c0.06-0.07,0.11-0.15,0.16-0.22c0.71-0.99,1.31-2.05,1.88-3.13c0.22-0.44,0.45-0.87,0.7-1.3
				c0.01-0.03,0.02-0.08,0.1-0.07c-0.69,1.58-1.47,3.1-2.5,4.51c0.49-0.13,0.92-0.02,1.34,0.18c0.16,0.07,0.31,0.15,0.46,0.24
				c0.35,0.2,0.68,0.4,1.03,0.59c0.43,0.25,0.9,0.42,1.39,0.51c0.26,0.04,0.52,0.08,0.79,0.04c0.15-0.03,0.3-0.06,0.42-0.14
				c0.15-0.1,0.2-0.23,0.15-0.4c-0.04-0.13-0.12-0.24-0.22-0.34c-0.13-0.14-0.28-0.23-0.44-0.32c-0.29-0.16-0.59-0.26-0.9-0.36
				c-0.12-0.04-0.25-0.06-0.37-0.07c-0.57-0.04-1.1-0.2-1.59-0.49c-0.13-0.08-0.27-0.15-0.4-0.24c-0.04-0.03-0.05-0.06-0.02-0.1
				c0.22-0.39,0.39-0.79,0.56-1.2c0.5-1.24,0.94-2.5,1.37-3.75c0.29-0.84,0.59-1.67,0.98-2.47c0.58-1.19,1.25-2.35,1.92-3.5
				c0.01-0.02,0.01-0.05,0.05-0.04c0,0.05-0.03,0.09-0.05,0.13c-0.34,0.64-0.68,1.29-1.02,1.92c-0.52,0.97-1.01,1.96-1.38,2.99
				c-0.26,0.72-0.51,1.46-0.76,2.19c-0.43,1.25-0.84,2.5-1.47,3.68c-0.03,0.05-0.01,0.07,0.03,0.1c0.2,0.12,0.39,0.22,0.6,0.33
				c0.24,0.13,0.51,0.2,0.79,0.24c0.31,0.05,0.62,0.08,0.93,0.09c0.43,0.02,0.86,0.01,1.3,0.07c0.32,0.05,0.64,0.13,0.94,0.29
				c0.27,0.14,0.47,0.34,0.56,0.64c0.01,0.01,0.01,0.02,0.03,0.05c0.05-0.16,0.05-0.3,0.01-0.45c-0.1-0.41-0.33-0.73-0.64-0.99
				c-0.22-0.18-0.45-0.35-0.7-0.49c-0.18-0.11-0.36-0.22-0.53-0.35c-0.13-0.09-0.24-0.2-0.34-0.32c-0.12-0.15-0.16-0.31-0.08-0.5
				c0.1-0.27,0.18-0.56,0.27-0.84c0.34-1.12,0.72-2.23,1.08-3.35c0.47-1.48,1-2.95,1.57-4.41c0.02-0.05,0.03-0.1,0.07-0.13
				c-0.47,1.42-0.98,2.82-1.42,4.25c-0.44,1.43-0.96,2.83-1.39,4.26c0.05,0.02,0.08,0.01,0.12-0.01c0.12-0.04,0.25-0.05,0.38-0.04
				c0.18,0.01,0.35,0.05,0.52,0.1c0.61,0.19,1.1,0.57,1.53,1.02c0.43,0.45,0.73,0.98,0.98,1.55c0.01,0.04,0.02,0.09,0.06,0.12
				c0.03-0.03,0.03-0.06,0.04-0.1c0.21-0.56,0.36-1.14,0.46-1.73c0.04-0.23,0.04-0.23-0.18-0.31c-0.37-0.13-0.75-0.26-1.09-0.48
				c-0.18-0.11-0.33-0.25-0.46-0.41c-0.1-0.12-0.14-0.25-0.08-0.41c0.03-0.08,0.04-0.16,0.06-0.24c0.34-1.22,0.58-2.47,0.77-3.72
				c0.13-0.89,0.29-1.78,0.5-2.67c0.3-1.29,0.73-2.52,1.31-3.7c0.14-0.28,0.29-0.55,0.46-0.81c0.04-0.06,0.08-0.13,0.16-0.18
				c-0.01,0.06-0.04,0.1-0.06,0.14c-0.16,0.29-0.32,0.58-0.46,0.87c-0.67,1.4-1.1,2.87-1.39,4.39c-0.18,0.98-0.33,1.96-0.49,2.94
				c-0.16,0.92-0.36,1.83-0.68,2.7c-0.03,0.07-0.05,0.14-0.08,0.24c0.3-0.21,0.61-0.23,0.94-0.18c0.17,0.03,0.34,0.08,0.5,0.15
				c0.29,0.11,0.57,0.25,0.84,0.39c0.26,0.12,0.52,0.24,0.79,0.33c0.14,0.04,0.28,0.08,0.43,0.08c0.32,0.01,0.62-0.06,0.91-0.15
				c0.06-0.02,0.08-0.05,0.08-0.12c-0.02-0.2-0.03-0.41-0.04-0.61c-0.01-0.41-0.01-0.82,0-1.23c0-0.11,0-0.11-0.1-0.11
				c-0.03,0-0.06,0-0.08,0c-0.35-0.01-0.68-0.11-0.98-0.25c-0.11-0.06-0.22-0.13-0.32-0.21c-0.06-0.06-0.1-0.13-0.09-0.22
				c0.01-0.11,0.01-0.22,0.01-0.33c0-0.75,0.02-1.5,0.08-2.26c0.04-0.51,0.08-1.01,0.16-1.51c0.11-0.76,0.27-1.5,0.45-2.25
				c0.22-0.98,0.53-1.93,0.89-2.87c0.01-0.04,0.02-0.1,0.09-0.12c0.03,0.05,0,0.1-0.01,0.14c-0.83,2.37-1.34,4.8-1.47,7.31
				c-0.02,0.43-0.05,0.86-0.07,1.3c-0.01,0.17-0.02,0.35-0.03,0.51c0.03,0.01,0.04,0,0.05-0.01c0.25-0.2,0.54-0.25,0.85-0.22
				c0.23,0.02,0.46,0.09,0.68,0.14c0.38,0.09,0.76,0.17,1.15,0.09c0.12-0.02,0.24-0.05,0.36-0.07c0.27-0.06,0.53-0.13,0.8-0.16
				c0.3-0.03,0.58,0.03,0.82,0.22c0.01,0.01,0.03,0.03,0.05,0.01c0.02-0.05,0.01-0.1,0-0.15c-0.04-0.69-0.09-1.38-0.13-2.07
				c-0.04-0.7-0.11-1.4-0.23-2.11c-0.27-1.64-0.65-3.24-1.21-4.81c-0.01-0.03-0.06-0.09-0.01-0.11c0.05-0.01,0.06,0.05,0.07,0.1
				c0.18,0.49,0.37,0.99,0.53,1.5c0.42,1.45,0.76,2.91,0.91,4.42c0.06,0.59,0.11,1.18,0.13,1.77c0.01,0.49,0.01,0.98,0.03,1.48
				c0.01,0.16-0.05,0.27-0.18,0.36c-0.04,0.03-0.08,0.05-0.13,0.08c-0.2,0.12-0.43,0.2-0.66,0.26c-0.1,0.02-0.1,0.03-0.09,0.13
				c0.01,0.28,0.05,0.56,0.08,0.84c0.06,0.42,0.14,0.83,0.2,1.25c0.01,0.07,0.04,0.09,0.11,0.08c0.03-0.01,0.06-0.01,0.1-0.01
				c0.22-0.03,0.44-0.11,0.65-0.19c0.35-0.14,0.69-0.32,1.03-0.47c0.21-0.1,0.42-0.19,0.65-0.24c0.37-0.09,0.74-0.11,1.08,0.12
				c0.01-0.05-0.01-0.09-0.03-0.13c-0.15-0.43-0.29-0.86-0.4-1.29c-0.25-0.96-0.39-1.95-0.55-2.93c-0.15-0.91-0.3-1.83-0.53-2.73
				c-0.35-1.43-0.87-2.8-1.6-4.08c-0.01-0.03-0.04-0.05-0.03-0.09c0.05,0.02,0.07,0.07,0.1,0.11c0.1,0.14,0.19,0.29,0.27,0.44
				c0.63,1.15,1.09,2.37,1.42,3.63c0.31,1.17,0.49,2.36,0.68,3.54c0.11,0.67,0.22,1.35,0.38,2.02c0.14,0.54,0.27,1.08,0.4,1.62
				c0.03,0.11,0.01,0.18-0.06,0.27c-0.19,0.25-0.43,0.46-0.71,0.61c-0.13,0.07-0.26,0.13-0.4,0.18c-0.17,0.07-0.13,0.03-0.1,0.2
				c0.02,0.11,0.05,0.22,0.08,0.33c0.01,0.03,0.03,0.06,0,0.1c-0.04-0.03-0.05-0.08-0.06-0.12c-0.03-0.12-0.07-0.25-0.1-0.37
				c-0.02-0.06-0.05-0.07-0.11-0.04c-0.06,0.03-0.03,0.08-0.02,0.12c0.06,0.27,0.13,0.54,0.2,0.81c0.01,0.03,0.04,0.07-0.01,0.1
				c-0.04-0.03-0.04-0.08-0.06-0.12c-0.08-0.25-0.15-0.51-0.2-0.77c-0.01-0.03,0.01-0.1-0.05-0.08c-0.06,0.01-0.03,0.07-0.02,0.1
				c0.1,0.46,0.18,0.93,0.3,1.39c0.01,0.03,0.03,0.08,0,0.12c-0.05-0.03-0.06-0.09-0.07-0.13c-0.12-0.33-0.2-0.68-0.26-1.02
				c-0.03-0.12-0.05-0.24-0.07-0.37c-0.01-0.03-0.01-0.05-0.05-0.05c-0.03,0.01-0.07,0.02-0.05,0.07c0,0.01,0.01,0.03,0.01,0.04
				c0.1,0.64,0.25,1.26,0.48,1.86c0.01,0.03,0.01,0.08,0.05,0.09c0.03-0.01,0.03-0.03,0.03-0.05c0.11-0.27,0.25-0.54,0.39-0.79
				c0.33-0.59,0.79-1.06,1.34-1.44c0.28-0.19,0.58-0.33,0.9-0.42c0.27-0.08,0.56-0.11,0.84-0.02c0.02,0.01,0.05,0.02,0.07-0.01
				c-0.43-1.43-0.95-2.83-1.39-4.26c-0.44-1.43-0.96-2.83-1.42-4.25c0.06,0.03,0.06,0.09,0.09,0.14c0.6,1.52,1.15,3.06,1.64,4.61
				c0.36,1.12,0.75,2.23,1.08,3.36c0.07,0.22,0.12,0.46,0.21,0.68c0.04,0.1,0.03,0.2-0.01,0.3c-0.09,0.19-0.24,0.32-0.4,0.44
				c-0.19,0.14-0.39,0.26-0.6,0.39c-0.25,0.16-0.48,0.32-0.7,0.51c-0.3,0.26-0.5,0.58-0.6,0.96c-0.03,0.15-0.03,0.28,0.01,0.42
				c0.03-0.01,0.03-0.02,0.04-0.04c0.08-0.26,0.24-0.44,0.47-0.58c0.19-0.12,0.4-0.2,0.62-0.25c0.39-0.11,0.78-0.13,1.18-0.14
				c0.48-0.01,0.98-0.03,1.46-0.1c0.53-0.09,1-0.3,1.46-0.56c-0.01-0.02-0.01-0.04-0.02-0.06c-0.33-0.58-0.57-1.2-0.81-1.82
				c-0.4-1.03-0.75-2.08-1.1-3.12c-0.44-1.32-0.98-2.6-1.65-3.83c-0.38-0.69-0.74-1.38-1.1-2.08c-0.02-0.04-0.06-0.08-0.05-0.16
				c0.04,0.06,0.06,0.1,0.09,0.13c0.34,0.58,0.66,1.15,0.99,1.74c0.72,1.27,1.33,2.57,1.8,3.95c0.37,1.09,0.75,2.17,1.16,3.25
				c0.25,0.65,0.49,1.29,0.82,1.9c0.03,0.07,0,0.09-0.04,0.12c-0.52,0.37-1.07,0.62-1.7,0.7c-0.16,0.02-0.33,0.02-0.48,0.06
				c-0.39,0.1-0.77,0.24-1.12,0.44c-0.14,0.08-0.27,0.18-0.38,0.29c-0.1,0.11-0.18,0.22-0.21,0.37c-0.03,0.14,0.01,0.24,0.12,0.33
				c0.07,0.05,0.15,0.09,0.23,0.11c0.22,0.07,0.44,0.09,0.68,0.07c0.22-0.02,0.45-0.06,0.67-0.12c0.41-0.11,0.8-0.28,1.17-0.49
				c0.28-0.16,0.56-0.33,0.84-0.49c0.26-0.15,0.53-0.3,0.81-0.41c0.26-0.1,0.53-0.15,0.8-0.13c0.09,0.01,0.17,0.03,0.28,0.04
				c-0.53-0.71-0.97-1.44-1.38-2.19c-0.48-0.87-1.08-2.14-1.1-2.31c0.02,0,0.03,0.01,0.04,0.02c0.05,0.08,0.1,0.17,0.14,0.25
				c0.36,0.68,0.71,1.35,1.08,2.02c0.48,0.87,1,1.71,1.6,2.5c0.08,0.11,0.13,0.24,0.13,0.38c0.01,0.25-0.08,0.48-0.22,0.67
				c-0.24,0.33-0.56,0.54-0.94,0.67c-0.03,0.01-0.07,0.01-0.11,0.04c0.01,0.01,0.01,0.02,0.03,0.03c0.65,0.51,1.39,0.82,2.23,0.88
				c0.16,0.01,0.33,0.01,0.49-0.04c0.34-0.12,0.57-0.33,0.62-0.71c0.01-0.03,0.01-0.06,0.02-0.09c0.04-0.22,0.08-0.46,0.16-0.68
				c0.18-0.58,0.58-0.94,1.16-1.09c0.11-0.03,0.21-0.05,0.32-0.07c-0.03-0.05-0.07-0.07-0.1-0.09c-0.47-0.32-0.94-0.65-1.39-1
				c-1.05-0.81-1.97-1.76-2.84-2.76c-1.12-1.32-2.11-2.75-3.01-4.24c-0.63-1.04-1.22-2.11-1.83-3.16c-0.73-1.27-1.52-2.5-2.45-3.62
				c-0.64-0.77-1.32-1.51-2.11-2.14c-0.3-0.24-0.6-0.47-0.91-0.7c-0.18-0.14-0.35-0.29-0.48-0.49c-0.06,0.02-0.1,0.06-0.12,0.11
				c0.04,0.01,0.08,0.03,0.12,0.04c0.1,0.04,0.16,0.11,0.2,0.22c0.03,0.1-0.01,0.2-0.1,0.23c-0.02,0.01-0.05,0.01-0.06-0.01
				c-0.01-0.01,0-0.03,0.01-0.05c0.05-0.06,0.06-0.11,0.02-0.18c-0.04-0.06-0.09-0.09-0.16-0.1c-0.14-0.02-0.23,0.06-0.25,0.2
				c-0.01,0.07,0,0.14-0.06,0.2c-0.09-0.15-0.08-0.31,0.01-0.42c0.09-0.1,0.09-0.11-0.03-0.17c-0.09-0.06-0.18-0.06-0.26,0
				c-0.06,0.03-0.12,0.08-0.18,0.13c-0.08,0.08-0.15,0.16-0.2,0.26c-0.06-0.15-0.01-0.26,0.07-0.39c-0.16,0.05-0.28,0.13-0.37,0.26
				c-0.18,0.29-0.09,0.58,0.24,0.7c0.03,0.01,0.06,0.02,0.09,0.04c0.02,0.01,0.06,0.01,0.05,0.05c-0.12,0.01-0.25-0.01-0.37-0.07
				c-0.12-0.06-0.17-0.18-0.24-0.32c-0.05,0.23,0.01,0.41,0.15,0.55c0.05,0.06,0.12,0.09,0.2,0.09c0.2,0.02,0.41-0.11,0.48-0.3
				c0.07-0.18-0.01-0.36-0.18-0.43c-0.04-0.01-0.07-0.02-0.11-0.02c-0.03,0-0.05-0.01-0.05-0.04c0-0.03,0.02-0.03,0.04-0.05
				c0.05-0.03,0.12-0.01,0.18,0.01c0.05,0.01,0.08,0.01,0.1-0.04c0.06-0.11,0.09-0.13,0.19-0.11c-0.01,0.04-0.04,0.04-0.06,0.05
				c-0.08,0.06-0.1,0.13-0.05,0.22c0.05,0.1,0.08,0.2,0.08,0.32c0.11-0.01,0.22-0.01,0.32,0.09c-0.16,0.01-0.22,0.11-0.24,0.23
				c0,0.01-0.01,0.01-0.01,0.03c-0.05,0.12-0.17,0.17-0.29,0.13c-0.03-0.01-0.06-0.03-0.08-0.03c-0.05-0.02-0.09,0.01-0.14,0.02
				c-0.04,0.02-0.01,0.06-0.02,0.09c-0.01,0.06-0.01,0.12-0.11,0.16c0.01-0.16-0.08-0.23-0.21-0.27c-0.15-0.06-0.25-0.17-0.3-0.33
				c-0.04-0.13-0.03-0.27-0.01-0.41c0.03-0.14,0.1-0.26,0.18-0.38c0.03-0.06,0.03-0.09-0.03-0.14c-0.11-0.07-0.16-0.18-0.17-0.29
				c-0.02-0.23,0.18-0.39,0.39-0.34c0.04,0.01,0.1,0.01,0.1,0.07c0,0.05-0.05,0.04-0.08,0.05c-0.04,0.02-0.08,0.04-0.11,0.08
				c-0.09,0.1-0.1,0.2-0.01,0.31c0.03,0.03,0.05,0.05,0.09,0.01c0.13-0.12,0.29-0.18,0.46-0.21c-0.15-0.27-0.11-0.47,0.08-0.51
				c-0.06,0.29,0.01,0.47,0.22,0.51c0.03-0.25,0.2-0.39,0.36-0.29c-0.24,0.18-0.26,0.33-0.03,0.43c0.04-0.05,0.07-0.13,0.14-0.17
				c0.07-0.05,0.09-0.11,0.08-0.2c-0.01-0.4,0.04-0.8,0.12-1.19c0.13-0.63,0.34-1.23,0.57-1.82c0.16-0.4,0.33-0.8,0.46-1.22
				c0.02-0.07,0.06-0.14,0.05-0.22c-0.05,0.01-0.07,0.05-0.1,0.08c-0.18,0.16-0.39,0.26-0.63,0.31c-0.12,0.02-0.25,0.04-0.37,0.05
				c-0.31,0.04-0.63,0.08-0.93,0.17c-0.31,0.09-0.6,0.22-0.84,0.44c-0.03,0.02-0.04,0.06-0.08,0.07c-0.11-0.12-0.24-0.22-0.39-0.3
				c-0.23-0.13-0.49-0.21-0.75-0.27c-0.3-0.07-0.61-0.09-0.92-0.13c-0.3-0.04-0.58-0.16-0.81-0.37c-0.02-0.02-0.03-0.05-0.08-0.05
				c0.02,0.13,0.06,0.24,0.1,0.35c0.12,0.35,0.27,0.7,0.41,1.05c0.39,1,0.74,2.01,0.7,3.11c0,0.04,0,0.06,0.03,0.09
				c0.09,0.05,0.15,0.13,0.2,0.22c0.19-0.11,0.2-0.26,0.04-0.38c-0.03-0.02-0.08-0.02-0.08-0.09c0.09-0.03,0.15,0,0.22,0.04
				c0.1,0.06,0.13,0.17,0.13,0.28c0.1-0.03,0.16-0.1,0.2-0.17c0.07-0.11,0.04-0.23,0-0.36c0.1,0.01,0.14,0.06,0.16,0.13
				c0.06,0.14,0.02,0.28-0.08,0.39c0.18,0.03,0.34,0.1,0.47,0.2c0.03,0.02,0.05,0.04,0.08,0.01c0.07-0.07,0.09-0.19,0.03-0.28
				c-0.03-0.06-0.09-0.1-0.15-0.13c-0.03-0.01-0.09-0.01-0.08-0.05c0.01-0.04,0.05-0.06,0.09-0.07c0.24-0.06,0.46,0.14,0.4,0.38
				c-0.02,0.1-0.07,0.18-0.16,0.25c-0.08,0.06-0.08,0.06-0.03,0.15c0.01,0.02,0.02,0.04,0.03,0.06c0.09,0.12,0.13,0.25,0.15,0.39
				c0.04,0.25-0.06,0.58-0.37,0.67c-0.08,0.03-0.13,0.09-0.16,0.18c-0.01,0.02,0.01,0.06-0.03,0.07c-0.06-0.03-0.07-0.09-0.08-0.15
				c-0.01-0.03,0.02-0.08-0.04-0.1c-0.04-0.01-0.08-0.03-0.12-0.01c-0.03,0.01-0.06,0.03-0.09,0.03c-0.12,0.04-0.23-0.01-0.28-0.13
				c-0.01-0.03-0.03-0.08-0.04-0.12c-0.02-0.07-0.06-0.12-0.14-0.14c-0.02,0-0.05-0.01-0.06-0.03c0.08-0.09,0.2-0.08,0.31-0.08
				c-0.01-0.11,0.01-0.21,0.06-0.3c0.06-0.1,0.04-0.17-0.07-0.24c-0.01-0.01-0.03-0.01-0.03-0.04c0.11-0.01,0.13,0,0.23,0.17
				c0.02-0.01,0.04-0.01,0.06-0.02c0.06-0.01,0.11-0.03,0.16-0.01c0.03,0.01,0.05,0.02,0.05,0.05c0,0.03-0.03,0.04-0.05,0.04
				c-0.02,0-0.04,0-0.06,0.01c-0.17,0.03-0.28,0.19-0.25,0.37c0.03,0.18,0.15,0.3,0.32,0.36c0.12,0.04,0.25,0.03,0.35-0.04
				c0.15-0.11,0.23-0.37,0.17-0.56c-0.18,0.32-0.34,0.41-0.62,0.37c0.08-0.06,0.16-0.06,0.23-0.1c0.1-0.04,0.18-0.1,0.23-0.21
				c0.11-0.29-0.1-0.67-0.42-0.72c0.12,0.21,0.13,0.27,0.06,0.39c-0.07-0.16-0.18-0.29-0.33-0.37c-0.16-0.1-0.27-0.08-0.4,0.07
				c0.18,0.2,0.2,0.35,0.08,0.5c-0.04-0.02-0.03-0.05-0.04-0.09c-0.01-0.04-0.01-0.09-0.02-0.14c-0.03-0.16-0.2-0.22-0.35-0.13
				c-0.09,0.06-0.1,0.13-0.05,0.23c0.01,0.02,0.03,0.04,0.01,0.06c-0.02,0.03-0.05,0.02-0.08,0.01c-0.08-0.03-0.12-0.13-0.09-0.22
				C23.86,14.28,23.98,14.2,24.14,14.18z M25.8,29.45c0.05,0.02,0.03,0.06,0.03,0.1c0.01,0.18,0.02,0.37,0.03,0.55
				c0.03,0.41,0.06,0.83,0.04,1.24c-0.02,0.7-0.06,1.39-0.14,2.09c-0.09,0.87-0.19,1.72-0.32,2.58c-0.13,0.85-0.28,1.7-0.53,2.53
				c-0.15,0.5-0.24,1.01-0.41,1.5c-0.01,0.01,0,0.03,0.01,0.03c0.03-0.01,0.06-0.04,0.08-0.06c0.45-0.35,0.95-0.6,1.5-0.73
				c0.23-0.05,0.46-0.08,0.7-0.05c0.28,0.03,0.54,0.1,0.75,0.32c0.03-0.03,0.03-0.06,0.04-0.09c0.09-0.43,0.13-0.87,0.16-1.3
				c0.05-0.85,0.05-1.69,0-2.55c-0.05-0.89-0.15-1.76-0.23-2.64c-0.01-0.1-0.03-0.22,0-0.33c0.02,0.04,0.03,0.08,0.04,0.13
				c0.13,0.85,0.25,1.7,0.32,2.56c0.07,0.9,0.09,1.81,0.03,2.71c-0.02,0.38-0.06,0.77-0.13,1.14c-0.04,0.23-0.11,0.45-0.16,0.68
				c-0.03,0.19-0.13,0.33-0.27,0.44c-0.06,0.04-0.12,0.08-0.18,0.13c-0.09,0.05-0.13,0.13-0.13,0.24c0.01,0.1,0.1,0.15,0.19,0.18
				c0.01,0.01,0.03,0.01,0.04,0.01c0.25,0.06,0.5,0.03,0.75-0.02c0.43-0.09,0.79-0.3,1.13-0.58c0.29-0.23,0.56-0.49,0.82-0.74
				c0.22-0.2,0.44-0.39,0.69-0.56c0.22-0.15,0.44-0.26,0.7-0.34c0.12-0.03,0.24-0.05,0.37-0.02c0.17,0.04,0.26,0.14,0.27,0.32
				c0.01,0.07,0,0.15,0,0.24c0.02-0.03,0.04-0.03,0.04-0.04c0.12-0.35,0.19-0.7,0.16-1.08C32.2,37.7,32.11,37.4,32,37.1
				c-0.18-0.46-0.4-0.91-0.62-1.35c-0.35-0.7-0.71-1.39-1.03-2.1c-0.16-0.36-0.29-0.73-0.44-1.09c-0.24-0.56-0.43-1.13-0.56-1.73
				c-0.03-0.17-0.04-0.35-0.08-0.52c-0.34,0.11-0.65,0.25-0.94,0.45c-0.1,0.08-0.2,0.17-0.28,0.27c-0.26,0.34-0.44,0.7-0.48,1.13
				c-0.01,0.11-0.01,0.22-0.03,0.34c-0.02-0.01-0.03-0.01-0.03-0.02c-0.01-0.03-0.01-0.05-0.01-0.08c-0.01-0.41,0.03-0.81,0.26-1.18
				c0.1-0.16,0.2-0.32,0.34-0.46c0.04-0.03,0.06-0.07,0.04-0.13c-0.08-0.27-0.16-0.54-0.22-0.81c-0.01-0.06-0.04-0.07-0.1-0.06
				c-0.08,0.01-0.16,0.02-0.23,0.03c-0.21,0.01-0.21,0.01-0.25-0.19c-0.18-0.87-0.32-1.73-0.33-2.62c0-0.09,0-0.18,0-0.27
				c0-0.14-0.01-0.14-0.14-0.11c-0.07,0.02-0.14,0.03-0.21,0.06c-0.35,0.11-0.72,0.19-1.09,0.15c-0.06-0.01-0.07,0.02-0.07,0.08
				c0,0.15,0,0.3-0.01,0.44c0,0.07-0.01,0.15-0.03,0.23c-0.04-0.06-0.05-0.13-0.05-0.2c0-0.16,0-0.32,0-0.48
				c0-0.03,0-0.07-0.04-0.09c-0.07-0.02-0.1,0-0.1,0.09c0,0.4-0.01,0.8-0.03,1.2c0,0.04,0.01,0.09-0.03,0.13
				c-0.03-0.02-0.02-0.04-0.02-0.06c-0.02-0.42-0.03-0.85-0.01-1.27c0-0.13,0.01-0.13-0.14-0.14c-0.02,0.23-0.03,0.46-0.03,0.68
				c0,0.66-0.03,1.32,0.03,1.98c0.01,0.09-0.02,0.13-0.09,0.16c-0.12,0.04-0.24,0.09-0.36,0.14c-0.12,0.04-0.12,0.04-0.13,0.17
				c-0.01,0.15-0.02,0.29-0.04,0.43c-0.06,0.77-0.2,1.52-0.37,2.26c-0.51,2.22-1.22,4.38-2.28,6.41c-0.01,0.03-0.04,0.05-0.01,0.08
				c0.18-0.08,0.36-0.11,0.55-0.09c0.77,0.06,1.59,0.63,1.78,1.55c0.01,0.06,0.03,0.11,0.04,0.18c0.05-0.03,0.05-0.08,0.06-0.11
				c0.27-0.87,0.53-1.76,0.74-2.64c0.32-1.31,0.47-2.66,0.63-4c0.06-0.51,0.11-1.01,0.15-1.52c0.04-0.59,0.08-1.18,0.06-1.78
				c-0.01-0.33-0.02-0.65-0.01-0.97C25.77,29.57,25.77,29.51,25.8,29.45z M42.8,34.7c-0.16,0.07-0.3,0.14-0.46,0.19
				c-0.49,0.15-1,0.2-1.51,0.19c-0.1,0-0.2,0.01-0.29,0.03c-0.33,0.08-0.65,0.07-0.98,0.01c-0.59-0.11-1.12-0.36-1.6-0.7
				c-0.13-0.08-0.24-0.18-0.35-0.29c-0.11-0.13-0.1-0.14,0.04-0.22c0.35-0.19,0.61-0.46,0.7-0.86c0.06-0.27-0.06-0.49-0.32-0.59
				c-0.14-0.06-0.29-0.08-0.44-0.06c-0.47,0.04-0.91,0.15-1.32,0.41c-0.37,0.22-0.74,0.45-1.15,0.61c-0.28,0.11-0.58,0.18-0.87,0.29
				c-0.48,0.18-0.97,0.21-1.47,0.18c-0.35-0.02-0.68-0.11-0.98-0.27c-0.09-0.05-0.18-0.11-0.25-0.19c-0.35-0.41-0.41-0.9-0.16-1.39
				c0.14-0.26,0.3-0.5,0.51-0.71c0.12-0.12,0.24-0.24,0.35-0.37c0.12-0.13,0.23-0.27,0.32-0.43c0.04-0.09,0.08-0.18,0.08-0.29
				c0-0.14-0.06-0.22-0.2-0.25c-0.15-0.03-0.28,0-0.41,0.05c-0.37,0.14-0.69,0.34-0.95,0.63c-0.43,0.5-0.8,1.05-1.06,1.67
				c-0.03,0.06-0.03,0.12,0,0.18c0.25,0.6,0.51,1.19,0.8,1.79c0.32,0.67,0.68,1.31,1.01,1.97c0.16,0.3,0.29,0.6,0.41,0.92
				c0.17,0.47,0.23,0.96,0.16,1.46c-0.06,0.39-0.2,0.74-0.4,1.07c-0.02,0.04-0.06,0.08-0.06,0.14c0.06-0.01,0.08-0.06,0.11-0.09
				c0.33-0.33,0.69-0.62,1.07-0.89c0.16-0.11,0.34-0.22,0.53-0.3c0.22-0.09,0.44-0.15,0.68-0.1c0.01,0,0.01-0.01,0.02-0.02
				c-0.11-0.24-0.24-0.49-0.37-0.73c-0.4-0.72-0.86-1.42-1.31-2.11c-0.31-0.47-0.61-0.95-0.89-1.44c-0.02-0.04-0.06-0.08-0.05-0.14
				c0.06,0.01,0.08,0.06,0.11,0.11c0.6,0.81,1.16,1.66,1.7,2.51c0.39,0.63,0.76,1.28,1.04,1.97c0.07,0.17,0.07,0.32,0.01,0.49
				c-0.03,0.06-0.05,0.12-0.08,0.18c0.05,0.01,0.08-0.01,0.11-0.03c0.26-0.15,0.52-0.32,0.74-0.53c0.08-0.09,0.18-0.16,0.27-0.22
				c0.11-0.07,0.22-0.14,0.35-0.17c0.31-0.08,0.64-0.02,0.8,0.36c0.01,0.02,0.02,0.04,0.03,0.06c0.1,0.27,0.3,0.42,0.56,0.5
				c0.3,0.1,0.6,0.08,0.91,0.01c0.39-0.09,0.78-0.23,1.22-0.16c-0.03-0.04-0.05-0.06-0.06-0.08c-0.88-0.97-1.69-2-2.49-3.03
				c-0.51-0.65-0.98-1.34-1.36-2.08c-0.02-0.04-0.06-0.08-0.05-0.15c0.07,0.04,0.1,0.1,0.14,0.16c0.43,0.61,0.85,1.23,1.31,1.82
				c0.7,0.91,1.41,1.81,2.15,2.68c0.06,0.07,0.11,0.08,0.2,0.05c0.2-0.06,0.42-0.07,0.64-0.04c0.31,0.03,0.62,0.07,0.93,0.06
				c0.27-0.01,0.5-0.09,0.68-0.3c0.09-0.1,0.18-0.19,0.23-0.33c-0.4-0.15-0.76-0.37-1.1-0.61c-0.24-0.17-0.48-0.35-0.72-0.53
				c-0.65-0.49-1.28-1.02-1.87-1.58c-0.03-0.03-0.07-0.06-0.09-0.1c0.05-0.01,0.06,0.02,0.09,0.03c0.15,0.12,0.31,0.24,0.45,0.37
				c0.53,0.44,1.06,0.89,1.64,1.26c0.6,0.39,1.26,0.65,1.97,0.77c0.07,0.01,0.14,0.02,0.19-0.04c0.16-0.13,0.33-0.27,0.47-0.42
				c0.29-0.34,0.41-0.73,0.4-1.17c-0.01-0.28-0.1-0.54-0.25-0.77C42.88,34.98,42.82,34.86,42.8,34.7z M22.27,30.31
				c-0.01,0.14-0.02,0.28-0.05,0.41c-0.11,0.56-0.27,1.11-0.5,1.65c-0.02,0.05-0.03,0.13-0.09,0.14c-0.06,0-0.06-0.08-0.08-0.13
				c-0.24-0.61-0.61-1.15-1.03-1.65c-0.25-0.3-0.58-0.52-0.94-0.67c-0.11-0.05-0.22-0.08-0.35-0.08c-0.28-0.01-0.38,0.16-0.33,0.37
				c0.02,0.09,0.05,0.16,0.1,0.24c0.08,0.13,0.18,0.25,0.28,0.37c0.12,0.13,0.24,0.25,0.36,0.37c0.2,0.21,0.37,0.45,0.51,0.71
				c0.15,0.28,0.2,0.58,0.11,0.89c-0.11,0.37-0.34,0.63-0.7,0.77c-0.08,0.03-0.13,0.09-0.18,0.16c-0.3,0.52-0.62,1.03-0.92,1.55
				c-0.56,0.95-1.2,1.85-1.9,2.71c-0.04,0.05-0.08,0.12-0.16,0.16c-0.03-0.07,0.01-0.12,0.03-0.16c0.07-0.14,0.16-0.25,0.25-0.38
				c0.38-0.54,0.76-1.06,1.12-1.6c0.49-0.75,0.94-1.52,1.43-2.27c0.01-0.01,0.02-0.03,0.01-0.05c-0.02,0.01-0.05,0.01-0.07,0.01
				c-0.13,0.01-0.21,0.07-0.28,0.18c-0.27,0.41-0.55,0.81-0.83,1.2c-0.16,0.22-0.33,0.45-0.52,0.66c-0.03,0.03-0.06,0.09-0.16,0.1
				c0.07-0.14,0.16-0.24,0.23-0.35c0.08-0.11,0.16-0.22,0.23-0.34c0.08-0.12,0.16-0.23,0.23-0.34c0.08-0.12,0.16-0.23,0.23-0.35
				c0.07-0.11,0.15-0.22,0.22-0.35c0.07-0.11,0.16-0.22,0.22-0.34c-0.19-0.01-0.19-0.01-0.29,0.13c-0.13,0.2-0.26,0.39-0.41,0.58
				c-0.06,0.09-0.14,0.16-0.2,0.24c-0.02,0.03-0.05,0.05-0.09,0.04c-0.01-0.06,0.03-0.1,0.06-0.14c0.16-0.25,0.33-0.51,0.49-0.76
				c0.02-0.03,0.05-0.05,0.03-0.1c-0.03,0-0.07-0.01-0.11-0.01c-0.21-0.02-0.43-0.03-0.63-0.09c-0.33-0.1-0.66-0.2-0.99-0.32
				c-0.13-0.04-0.13-0.04-0.19,0.07c-0.31,0.54-0.63,1.07-0.97,1.59c-0.35,0.53-0.71,1.05-1.13,1.52c-0.03,0.03-0.06,0.06-0.06,0.12
				c0.38-0.11,0.69,0.04,0.98,0.26c0.12,0.09,0.23,0.2,0.33,0.31c0.27,0.34,0.5,0.7,0.69,1.1c0.01,0.03,0.04,0.05,0.01,0.09
				c-0.06-0.01-0.11-0.03-0.16-0.06c-0.04-0.03-0.09-0.05-0.13-0.07c-0.06-0.03-0.13-0.05-0.18,0c-0.05,0.04-0.04,0.1-0.02,0.17
				c0.04,0.11,0.09,0.22,0.15,0.33c0.34,0.56,0.79,1.01,1.36,1.34c0.35,0.2,0.72,0.32,1.12,0.31c0.17-0.01,0.33-0.03,0.48-0.11
				c0.14-0.07,0.17-0.16,0.16-0.3c-0.01-0.09-0.05-0.18-0.11-0.25c-0.1-0.14-0.2-0.27-0.29-0.41c-0.12-0.17-0.22-0.35-0.28-0.55
				c-0.04-0.16-0.03-0.31,0.09-0.43c0.02-0.02,0.04-0.05,0.06-0.08c0.28-0.59,0.62-1.15,0.94-1.71c0.52-0.91,1.04-1.82,1.59-2.72
				c0.03-0.04,0.05-0.1,0.11-0.12c-0.18,0.39-0.38,0.76-0.58,1.13c-0.2,0.37-0.41,0.75-0.62,1.12c-0.21,0.37-0.42,0.75-0.64,1.12
				c-0.21,0.37-0.44,0.74-0.65,1.1c1.15-0.1,2.12,0.28,2.94,1.07c-0.04-0.11,0-0.19,0.03-0.27c0.09-0.21,0.17-0.42,0.26-0.63
				c0.39-0.92,0.77-1.84,1.1-2.79c0.4-1.18,0.72-2.39,1-3.61c0.01-0.04,0.03-0.1,0.02-0.13c-0.06-0.15-0.11-0.29-0.21-0.45
				c-0.09,0.38-0.17,0.73-0.27,1.08c-0.1,0.34-0.2,0.69-0.31,1.03c-0.1,0.34-0.22,0.67-0.37,1c0.02-0.14,0.05-0.28,0.09-0.41
				c0.25-0.91,0.52-1.82,0.74-2.73c0.03-0.15-0.01-0.24-0.11-0.35c-0.12,0.47-0.25,0.92-0.43,1.39c-0.02-0.07-0.01-0.11,0.01-0.14
				c0.11-0.41,0.22-0.81,0.33-1.21c0.03-0.11,0.01-0.18-0.08-0.27c-0.32-0.29-0.7-0.46-1.1-0.59C22.28,30.3,22.28,30.31,22.27,30.31
				z M10.55,38.35c-0.07-0.11-0.11-0.21-0.14-0.33c-0.01-0.06,0-0.1,0.06-0.13c0.08-0.03,0.15-0.08,0.22-0.11
				c0.35-0.16,0.69-0.33,1.02-0.52c1.79-0.98,2.94-2.47,3.57-4.38c0.01-0.05,0.01-0.09-0.03-0.11c-0.08-0.05-0.16-0.1-0.25-0.14
				c-0.27-0.11-0.56-0.19-0.86-0.24c-0.22-0.03-0.43-0.03-0.65,0.06c-0.21,0.09-0.31,0.25-0.31,0.48c0.01,0.26,0.13,0.47,0.3,0.65
				c0.13,0.14,0.28,0.25,0.46,0.34c0.08,0.03,0.08,0.06,0.03,0.13c-0.03,0.04-0.06,0.08-0.1,0.11c-0.19,0.2-0.43,0.33-0.65,0.47
				c-0.42,0.26-0.89,0.41-1.36,0.49c-0.23,0.04-0.47,0.02-0.7,0.11c-0.05,0.02-0.1,0.03-0.16,0.04c-0.53,0.12-1.06,0.23-1.61,0.2
				c-0.23-0.01-0.46-0.03-0.7-0.06c-0.07-0.01-0.11,0.01-0.13,0.08c-0.15,0.37-0.22,0.76-0.18,1.17c0.03,0.27,0.1,0.54,0.31,0.75
				c0.19,0.2,0.43,0.34,0.69,0.43c0.2,0.07,0.38,0.17,0.53,0.33C10.1,38.35,10.3,38.39,10.55,38.35z M10.51,37.99
				c0.13,0.16,0.29,0.27,0.48,0.34c0.17,0.06,0.33,0.03,0.47-0.08c0.05-0.04,0.1-0.09,0.15-0.13c0.06-0.05,0.13-0.11,0.2-0.15
				c0.22-0.14,0.45-0.13,0.66,0.04c0.09,0.07,0.17,0.16,0.23,0.25c0.09,0.13,0.18,0.25,0.27,0.38c0.12,0.17,0.26,0.32,0.43,0.44
				c0.24,0.17,0.48,0.3,0.76,0.41c0.11,0.04,0.22,0.08,0.34,0.09c0.18,0.03,0.37,0.02,0.54-0.05c0.2-0.1,0.27-0.26,0.2-0.48
				c-0.03-0.11-0.1-0.2-0.16-0.3c-0.11-0.16-0.23-0.32-0.36-0.47c-0.18-0.22-0.35-0.43-0.49-0.67c-0.19-0.31-0.26-0.67,0-0.99
				c0.2-0.24,0.37-0.49,0.54-0.74c0.56-0.78,1.05-1.62,1.54-2.44c0.01-0.01,0.01-0.03,0.02-0.06c-0.33-0.14-0.63-0.32-0.92-0.49
				c-0.01,0.01-0.02,0.02-0.02,0.03c-0.01,0.03-0.01,0.05-0.02,0.08c-0.37,1.42-1.12,2.6-2.24,3.55c-0.74,0.63-1.58,1.06-2.47,1.4
				C10.6,37.94,10.56,37.94,10.51,37.99z M28.3,30.59c0.22-0.15,0.46-0.27,0.7-0.37c0.27-0.1,0.56-0.2,0.83-0.29
				c0.23-0.08,0.44-0.21,0.62-0.37c0.07-0.05,0.13-0.13,0.17-0.21c0.06-0.14,0.02-0.24-0.11-0.3c-0.09-0.04-0.19-0.05-0.3-0.06
				c-0.24-0.01-0.47,0.04-0.7,0.09c-0.35,0.09-0.65,0.29-0.98,0.41c-0.03,0.01-0.04,0.03-0.03,0.08c0.03,0.09,0.06,0.18,0.08,0.27
				c0.01,0.03,0.03,0.07-0.01,0.09c-0.04,0.01-0.05-0.03-0.06-0.06c-0.03-0.06-0.04-0.13-0.08-0.19c-0.02-0.04-0.01-0.13-0.09-0.11
				c-0.07,0.03-0.01,0.1,0,0.14c0.04,0.16,0.08,0.31,0.12,0.46c0.01,0.05,0.03,0.11-0.01,0.17c-0.06-0.03-0.07-0.09-0.09-0.14
				c-0.06-0.17-0.11-0.34-0.14-0.51c-0.01-0.04-0.02-0.07-0.07-0.06c-0.05,0.01-0.07,0.03-0.06,0.08c0,0.01,0,0.02,0.01,0.03
				C28.15,30.04,28.21,30.31,28.3,30.59z M24.11,31.39c0.01-0.03,0.01-0.04,0.01-0.06c0.09-0.51,0.14-1.01,0.2-1.52
				c0.01-0.07-0.02-0.08-0.08-0.06c-0.24,0.03-0.48,0.01-0.72-0.06c-0.2-0.06-0.4-0.14-0.6-0.22c-0.25-0.11-0.5-0.14-0.76-0.13
				c-0.1,0.01-0.19,0.02-0.27,0.07c-0.09,0.06-0.1,0.12-0.03,0.18c0.04,0.05,0.1,0.08,0.16,0.11c0.15,0.08,0.31,0.16,0.46,0.23
				c0.32,0.16,0.64,0.32,0.91,0.54c0.3,0.24,0.55,0.51,0.68,0.87C24.08,31.35,24.09,31.37,24.11,31.39z M35.08,39.11
				c0.01,0.01,0.01,0.01,0.01,0.02c0.13-0.06,0.25-0.12,0.38-0.18c0.18-0.08,0.36-0.14,0.56-0.13c0.4,0.01,0.58,0.27,0.44,0.65
				c-0.03,0.07-0.06,0.14-0.08,0.22c-0.04,0.13-0.01,0.2,0.1,0.26c0.06,0.03,0.11,0.05,0.18,0.05c0.05,0,0.12,0.01,0.18,0.01
				c0.43,0.06,0.85-0.03,1.26-0.18c0.03-0.01,0.07-0.03,0.1-0.05c0.06-0.04,0.14-0.08,0.13-0.16c-0.01-0.07-0.08-0.11-0.13-0.14
				c-0.09-0.04-0.19-0.06-0.3-0.06c-0.27,0.01-0.52-0.02-0.76-0.13c-0.2-0.09-0.35-0.24-0.43-0.45c-0.02-0.05-0.04-0.1-0.06-0.16
				c-0.12-0.25-0.32-0.35-0.59-0.29c-0.2,0.04-0.37,0.16-0.52,0.3C35.4,38.83,35.25,38.98,35.08,39.11z M20.39,38.73
				c-0.03-0.02-0.05-0.03-0.06-0.04c-0.39-0.14-0.78-0.24-1.19-0.27c-0.15-0.01-0.3,0-0.44,0.04c-0.18,0.05-0.25,0.18-0.22,0.37
				c0.01,0.06,0.03,0.13,0.05,0.18c0.13,0.31,0.36,0.54,0.55,0.82C19.38,39.21,19.69,38.95,20.39,38.73z M31.14,40.08
				c-0.03,0-0.03-0.01-0.03-0.02c-0.09-0.33-0.22-0.63-0.34-0.94c-0.01-0.01-0.01-0.04-0.02-0.05c-0.01-0.01-0.02-0.01-0.03-0.01
				c-0.01,0.01-0.03,0.02-0.03,0.03c0,0.01,0.01,0.04,0.01,0.05c0.18,0.44,0.28,0.89,0.38,1.35c0.01,0.05,0.02,0.1,0.03,0.18
				c0.03-0.02,0.03-0.03,0.04-0.04c0.18-0.27,0.37-0.53,0.55-0.8c0.11-0.17,0.18-0.35,0.23-0.54c0.03-0.11,0.05-0.23,0.03-0.35
				c-0.03-0.19-0.11-0.27-0.31-0.27c-0.19,0-0.36,0.06-0.52,0.14c-0.05,0.03-0.04,0.05-0.03,0.1c0.04,0.08,0.07,0.16,0.11,0.24
				c0.02,0.05,0.05,0.1,0.03,0.16c-0.06-0.02-0.06-0.07-0.09-0.1c-0.03-0.08-0.07-0.16-0.1-0.24c-0.01-0.03-0.01-0.08-0.06-0.06
				c-0.05,0.02-0.01,0.06,0,0.09c0.01,0.04,0.03,0.09,0.05,0.13c0.08,0.18,0.14,0.36,0.18,0.54c0.01,0.04,0.03,0.09,0,0.14
				c-0.04-0.03-0.05-0.09-0.06-0.12c-0.08-0.2-0.16-0.39-0.24-0.58c-0.01-0.03-0.02-0.12-0.07-0.1c-0.06,0.03-0.01,0.09,0.01,0.13
				c0.1,0.28,0.21,0.56,0.28,0.84C31.15,39.99,31.16,40.04,31.14,40.08z M18.82,33.7c0.32-0.02,0.63-0.07,0.9-0.23
				c0.08-0.05,0.16-0.11,0.22-0.18c0.05-0.05,0.08-0.12,0.08-0.2c0.01-0.21-0.08-0.39-0.22-0.54c-0.13-0.14-0.3-0.23-0.46-0.3
				c-0.32-0.14-0.65-0.19-0.98-0.22c-0.14-0.01-0.28-0.03-0.44-0.02c0.08,0.05,0.15,0.05,0.21,0.07c0.26,0.08,0.51,0.18,0.73,0.34
				c0.14,0.1,0.27,0.22,0.35,0.37c0.14,0.27,0.1,0.53-0.12,0.73C19,33.58,18.91,33.63,18.82,33.7z M33.67,31.99
				c-0.37,0.01-0.73,0.03-1.07,0.13c-0.25,0.06-0.5,0.16-0.71,0.31c-0.18,0.13-0.3,0.32-0.34,0.54c-0.02,0.13,0.01,0.25,0.1,0.35
				c0.1,0.09,0.21,0.18,0.34,0.23c0.22,0.09,0.46,0.13,0.7,0.16c0.01,0,0.03,0.01,0.04-0.02c-0.07-0.05-0.14-0.09-0.2-0.14
				c-0.3-0.24-0.34-0.56-0.11-0.87c0.09-0.13,0.2-0.22,0.33-0.3c0.22-0.14,0.45-0.24,0.7-0.31C33.52,32.04,33.59,32.03,33.67,31.99z
				 M10.67,34.77c0.01-0.02,0.01-0.03,0-0.04c-0.12-0.16-0.17-0.35-0.21-0.54c-0.03-0.18-0.06-0.37-0.11-0.55
				c-0.16-0.64-0.58-1.01-1.18-1.2c-0.01-0.01-0.03,0-0.04,0c0.01,0.02,0.02,0.03,0.03,0.05c0.16,0.15,0.26,0.33,0.34,0.53
				c0.05,0.15,0.1,0.3,0.14,0.46c0.05,0.21,0.12,0.41,0.24,0.6C10.08,34.39,10.34,34.61,10.67,34.77z M40.88,34.76
				c0.08-0.01,0.12-0.03,0.16-0.06c0.37-0.22,0.64-0.53,0.79-0.93c0.06-0.17,0.1-0.34,0.15-0.51c0.09-0.3,0.21-0.58,0.44-0.8
				c0.01-0.01,0.01-0.01,0.01-0.03c-0.01,0-0.03,0-0.04,0c-0.64,0.2-1.06,0.6-1.19,1.27c-0.03,0.14-0.06,0.29-0.08,0.43
				C41.07,34.34,41.02,34.55,40.88,34.76z M31.26,40.73c0.03,0.02,0.07,0.01,0.1,0.01c0.04,0,0.09-0.01,0.13-0.01
				c0.54-0.09,1-0.3,1.41-0.68c0.15-0.14,0.27-0.29,0.34-0.49c0.04-0.12,0-0.2-0.13-0.22c-0.08-0.02-0.18-0.01-0.25,0.01
				c-0.18,0.06-0.35,0.14-0.49,0.28c-0.3,0.3-0.6,0.59-0.91,0.89C31.4,40.6,31.32,40.65,31.26,40.73z M22.34,29.21
				c-0.03-0.05-0.08-0.05-0.11-0.07C21.96,29.05,21.66,29,21.37,29c-0.09,0-0.18,0.01-0.27,0.05c-0.17,0.06-0.21,0.18-0.13,0.34
				c0.05,0.1,0.13,0.18,0.22,0.24c0.23,0.18,0.49,0.3,0.76,0.39c0.33,0.1,0.64,0.21,0.94,0.36c0.45,0.21,0.78,0.54,0.99,1
				c0.04,0.09,0.08,0.18,0.11,0.27c0.01,0.03,0,0.07,0.05,0.07c0.03-0.03,0.01-0.07,0.01-0.11c-0.05-0.32-0.2-0.58-0.42-0.81
				c-0.17-0.17-0.36-0.31-0.56-0.43c-0.23-0.14-0.47-0.25-0.71-0.36c-0.14-0.06-0.28-0.13-0.41-0.21c-0.07-0.03-0.14-0.09-0.2-0.15
				c-0.1-0.12-0.07-0.24,0.04-0.33c0.05-0.04,0.11-0.06,0.18-0.08C22.09,29.21,22.21,29.21,22.34,29.21z M23.88,40.52
				c-0.12-0.29-0.29-0.54-0.5-0.77c-0.22-0.24-0.47-0.41-0.79-0.48c-0.12-0.03-0.25-0.02-0.36,0.04c-0.13,0.06-0.2,0.18-0.17,0.31
				c0.03,0.13,0.09,0.23,0.2,0.29c0.09,0.04,0.17,0.08,0.25,0.1c0.14,0.04,0.29,0.06,0.43,0.08c0.3,0.05,0.58,0.14,0.81,0.33
				C23.79,40.46,23.83,40.49,23.88,40.52z M14.56,32.38c-0.27-0.17-0.55-0.3-0.86-0.34c-0.23-0.03-0.46,0-0.66,0.11
				c-0.2,0.11-0.32,0.29-0.33,0.52c-0.01,0.16,0.04,0.29,0.11,0.43c0.14,0.25,0.35,0.44,0.6,0.58c0.02,0.01,0.05,0.04,0.08,0.02
				c-0.03-0.03-0.05-0.06-0.08-0.08c-0.15-0.17-0.25-0.35-0.3-0.58c-0.07-0.32,0.07-0.58,0.38-0.7c0.17-0.06,0.35-0.07,0.53-0.06
				C14.22,32.32,14.39,32.35,14.56,32.38z M38.06,33.71c0.33-0.15,0.6-0.39,0.73-0.73c0.16-0.39-0.01-0.75-0.41-0.89
				c-0.14-0.05-0.28-0.06-0.41-0.05c-0.36,0.01-0.67,0.16-0.96,0.35c0.06,0,0.12-0.01,0.18-0.03c0.17-0.03,0.33-0.06,0.5-0.05
				c0.16,0,0.31,0.03,0.45,0.1c0.22,0.11,0.33,0.3,0.32,0.54c-0.01,0.22-0.11,0.42-0.24,0.6C38.16,33.6,38.11,33.66,38.06,33.71z
				 M32.73,39.33c0.13-0.03,0.24-0.06,0.37-0.04c0.18,0.03,0.27,0.15,0.22,0.33c-0.03,0.16-0.12,0.27-0.22,0.39
				c-0.16,0.18-0.36,0.33-0.56,0.45c-0.03,0.02-0.07,0.03-0.09,0.07c0.06,0.01,0.09-0.02,0.13-0.04c0.28-0.14,0.54-0.3,0.77-0.51
				c0.16-0.14,0.3-0.31,0.41-0.49c0.05-0.09,0.09-0.18,0.1-0.28c0.01-0.19-0.07-0.29-0.25-0.29c-0.02,0-0.05,0-0.07,0
				C33.22,38.96,32.96,39.1,32.73,39.33z M33.36,40.1c0.27-0.16,0.53-0.33,0.74-0.56c0.12-0.12,0.22-0.26,0.3-0.41
				c0.03-0.07,0.07-0.14,0.08-0.22c0.05-0.2-0.04-0.33-0.24-0.34c-0.05-0.01-0.1,0-0.15,0.01c-0.22,0.03-0.43,0.12-0.62,0.22
				c-0.02,0.01-0.06,0.01-0.06,0.06c0.08-0.02,0.16-0.03,0.25-0.02c0.17,0.01,0.27,0.12,0.29,0.29c0.01,0.05,0,0.11-0.01,0.16
				c-0.03,0.14-0.1,0.25-0.18,0.35C33.64,39.83,33.5,39.96,33.36,40.1z M25.53,39.69c0.04,0.02,0.06,0.01,0.08,0
				c0.18-0.05,0.36-0.09,0.55-0.11c0.22-0.02,0.43-0.01,0.63,0.06c0.29,0.1,0.4,0.3,0.31,0.6c-0.01,0.03-0.03,0.06-0.01,0.1
				c0.06-0.04,0.12-0.08,0.18-0.12c0.14-0.09,0.2-0.2,0.25-0.35c0.03-0.12,0-0.2-0.07-0.29c-0.05-0.05-0.11-0.09-0.18-0.13
				c-0.13-0.05-0.27-0.08-0.41-0.1C26.38,39.29,25.95,39.45,25.53,39.69z M23.07,9.19c0.18,0.15,0.38,0.22,0.6,0.27
				c0.2,0.03,0.39,0.05,0.6,0.08c0.41,0.05,0.82,0.15,1.19,0.35c0.01,0.01,0.03,0.01,0.04-0.01c-0.08-0.12-0.18-0.21-0.3-0.3
				c-0.28-0.2-0.6-0.3-0.94-0.35C23.88,9.17,23.47,9.21,23.07,9.19z M28.52,9.19c-0.19,0-0.36,0-0.54,0c-0.23,0.01-0.46,0-0.7,0.04
				c-0.33,0.05-0.65,0.16-0.92,0.35c-0.11,0.08-0.21,0.18-0.29,0.29c0.03,0.02,0.04,0.01,0.05,0c0.32-0.17,0.67-0.26,1.03-0.32
				c0.24-0.03,0.48-0.06,0.73-0.1C28.11,9.42,28.32,9.33,28.52,9.19z M19.5,29.93c-0.23-0.16-0.48-0.21-0.75-0.21
				c-0.07,0-0.15,0.02-0.21,0.05c-0.14,0.06-0.19,0.17-0.17,0.31c0.01,0.07,0.04,0.13,0.07,0.19c0.06,0.1,0.14,0.2,0.22,0.29
				c0.16,0.17,0.33,0.32,0.5,0.47c0.09,0.07,0.2,0.14,0.29,0.21c-0.1-0.14-0.22-0.27-0.34-0.39c-0.12-0.13-0.21-0.27-0.26-0.44
				c-0.1-0.34,0.07-0.54,0.41-0.51C19.35,29.89,19.43,29.91,19.5,29.93z M32.11,31.2c0.01,0.01,0.01,0.01,0.02,0.02
				c0.35-0.24,0.67-0.51,0.92-0.84c0.05-0.06,0.09-0.14,0.11-0.2c0.09-0.22-0.01-0.38-0.23-0.43c-0.24-0.06-0.47,0.01-0.7,0.08
				c-0.06,0.02-0.13,0.05-0.19,0.1c0.04,0.02,0.07-0.01,0.1-0.01c0.11-0.02,0.22-0.03,0.34-0.01c0.12,0.03,0.2,0.11,0.24,0.24
				c0.03,0.11,0,0.2-0.03,0.3c-0.06,0.2-0.19,0.36-0.34,0.51C32.28,31.03,32.2,31.11,32.11,31.2z M18.29,33.67
				c0.29-0.02,0.56-0.11,0.78-0.33c0.08-0.08,0.11-0.18,0.1-0.29c0-0.16-0.07-0.29-0.18-0.41c-0.13-0.13-0.28-0.23-0.44-0.32
				c-0.27-0.13-0.56-0.21-0.85-0.27c-0.03-0.01-0.07-0.04-0.13-0.01c0.06,0.03,0.12,0.05,0.18,0.07c0.27,0.11,0.54,0.24,0.75,0.44
				c0.12,0.1,0.23,0.22,0.29,0.38c0.1,0.24,0.03,0.46-0.2,0.6C18.5,33.6,18.39,33.63,18.29,33.67z M33.9,32.08
				c-0.13-0.01-0.25,0.03-0.37,0.06c-0.26,0.08-0.52,0.17-0.75,0.33c-0.15,0.1-0.27,0.21-0.35,0.38c-0.09,0.22-0.05,0.41,0.14,0.56
				c0.2,0.16,0.42,0.24,0.66,0.27c0.01,0,0.03,0.01,0.04-0.02c-0.1-0.03-0.2-0.06-0.29-0.11c-0.25-0.15-0.33-0.37-0.2-0.64
				c0.05-0.1,0.11-0.19,0.19-0.26c0.19-0.19,0.41-0.33,0.65-0.44C33.72,32.16,33.81,32.13,33.9,32.08z M24.88,27.28
				c0.01-0.14,0.02-0.27,0.03-0.4c0.01-0.16,0.01-0.16-0.15-0.18c-0.02,0-0.04-0.01-0.07-0.01c-0.16-0.01-0.3,0-0.44,0.05
				c-0.17,0.05-0.19,0.17-0.05,0.29c0,0,0.01,0.01,0.01,0.01C24.41,27.17,24.63,27.24,24.88,27.28z M24.6,26.58
				c-0.22-0.08-0.45-0.1-0.68-0.06c-0.16,0.03-0.32,0.1-0.44,0.2c-0.09,0.07-0.09,0.09,0.01,0.15c0.2,0.14,0.43,0.22,0.66,0.28
				c0.03,0.01,0.06,0.02,0.09,0c-0.04-0.03-0.07-0.05-0.11-0.08c-0.16-0.14-0.14-0.3,0.06-0.4c0.05-0.02,0.11-0.03,0.16-0.05
				C24.43,26.59,24.52,26.59,24.6,26.58z M30.49,29.65c0.01,0,0.01,0.01,0.01,0.01c0.24-0.12,0.44-0.3,0.61-0.51
				c0.04-0.05,0.03-0.09,0-0.14c-0.08-0.12-0.21-0.16-0.35-0.2c-0.27-0.06-0.53-0.01-0.78,0.06c-0.03,0.01-0.06,0.01-0.08,0.05
				c0.13,0,0.25,0,0.36,0c0.1,0,0.21,0.02,0.3,0.08c0.14,0.08,0.19,0.2,0.13,0.36c-0.03,0.07-0.08,0.14-0.13,0.19
				C30.54,29.57,30.5,29.6,30.49,29.65z M32.91,30.69c0.2-0.1,0.38-0.22,0.54-0.38c0.05-0.05,0.09-0.11,0.13-0.18
				c0.12-0.18,0.01-0.44-0.17-0.52c-0.12-0.05-0.39-0.05-0.53,0.01c0.03,0.03,0.07,0.02,0.1,0.03c0.24,0.07,0.35,0.25,0.28,0.49
				c-0.03,0.12-0.08,0.22-0.16,0.32C33.03,30.55,32.97,30.62,32.91,30.69z M21.04,29.64c0.01-0.01,0.01-0.01,0.02-0.02
				c-0.03-0.03-0.05-0.07-0.09-0.11c-0.05-0.06-0.09-0.13-0.11-0.2c-0.03-0.12,0-0.22,0.1-0.29c0.05-0.04,0.12-0.06,0.18-0.08
				c0.14-0.03,0.27-0.03,0.41-0.03c0.04,0,0.08,0.01,0.15-0.01c-0.25-0.09-0.48-0.14-0.73-0.12c-0.16,0.01-0.31,0.05-0.44,0.16
				c-0.1,0.09-0.1,0.13-0.01,0.23c0.03,0.04,0.06,0.08,0.1,0.11C20.72,29.43,20.87,29.55,21.04,29.64z M21.98,39.69
				c0-0.05,0-0.07,0-0.1c-0.01-0.19,0.09-0.32,0.27-0.38c0.1-0.03,0.2-0.04,0.31-0.02c0.22,0.03,0.41,0.12,0.59,0.25
				c0.24,0.16,0.43,0.37,0.6,0.6c0.02,0.03,0.04,0.08,0.08,0.1c0.01-0.03-0.01-0.05-0.01-0.07c-0.09-0.19-0.22-0.36-0.37-0.5
				c-0.37-0.34-0.8-0.51-1.31-0.49c-0.14,0.01-0.27,0.03-0.39,0.11c-0.05,0.03-0.07,0.07-0.04,0.13
				C21.78,39.45,21.86,39.57,21.98,39.69z M18.69,29.65c-0.13-0.06-0.25-0.06-0.38-0.05c-0.32,0.03-0.46,0.34-0.29,0.6
				c0.05,0.08,0.11,0.14,0.18,0.2c0.11,0.09,0.22,0.18,0.34,0.25c0.03,0.01,0.05,0.05,0.1,0.03c-0.03-0.03-0.06-0.07-0.09-0.1
				c-0.11-0.14-0.21-0.28-0.24-0.45c-0.05-0.2,0.04-0.37,0.24-0.44C18.59,29.67,18.64,29.66,18.69,29.65z M38.01,39.97
				c0.03,0.01,0.06,0.01,0.08,0.01c0.24-0.06,0.48-0.12,0.7-0.21c0.08-0.03,0.16-0.06,0.23-0.11c0.11-0.08,0.1-0.14-0.01-0.2
				c-0.03-0.01-0.05-0.03-0.09-0.03c-0.18-0.04-0.36-0.05-0.54-0.04c-0.03,0-0.08-0.01-0.11,0.03c0.01,0.03,0.04,0.04,0.07,0.06
				c0.11,0.1,0.11,0.22,0,0.32c-0.04,0.03-0.09,0.06-0.13,0.08C38.14,39.9,38.08,39.93,38.01,39.97z M11.37,38.4
				c0.01,0.01,0.01,0.01,0.01,0.02c0.03,0,0.06,0,0.09,0c0.14-0.01,0.26-0.06,0.39-0.11c0.22-0.1,0.44-0.08,0.64,0.04
				c0.05,0.03,0.1,0.07,0.15,0.1c0.02,0.01,0.03,0.04,0.08,0.04c-0.05-0.09-0.09-0.17-0.14-0.24c-0.21-0.33-0.53-0.38-0.84-0.15
				C11.62,38.21,11.51,38.33,11.37,38.4z M11.3,38.52c0,0.02,0,0.03,0,0.03c0.01,0.01,0.02,0.01,0.03,0.02
				c0.18,0.08,0.36,0.12,0.56,0.09c0.21-0.03,0.42-0.06,0.64,0.01c0.09,0.02,0.16,0.05,0.28,0.08c-0.12-0.13-0.23-0.23-0.35-0.3
				c-0.17-0.1-0.35-0.12-0.54-0.05C11.72,38.46,11.53,38.55,11.3,38.52z M14.38,37.66c-0.01-0.04-0.01-0.08-0.01-0.12
				c-0.01-0.08-0.01-0.16,0.01-0.23c0.04-0.16,0.14-0.24,0.3-0.24c0.09,0,0.17,0.02,0.25,0.06c0.15,0.06,0.28,0.15,0.4,0.25
				c0.02,0.02,0.04,0.05,0.1,0.05c-0.09-0.13-0.2-0.22-0.31-0.31c-0.15-0.12-0.31-0.2-0.5-0.24c-0.11-0.02-0.22-0.03-0.33,0.01
				c-0.06,0.03-0.1,0.07-0.11,0.14C14.16,37.26,14.21,37.48,14.38,37.66z M39.7,39.31c-0.33-0.13-0.63-0.08-0.94-0.01
				c0.08,0.03,0.16,0.05,0.24,0.08c0.17,0.06,0.18,0.16,0.08,0.3c-0.01,0.01-0.01,0.01-0.01,0.04C39.31,39.62,39.5,39.47,39.7,39.31
				z M27.77,27.03c0.15-0.07,0.29-0.13,0.4-0.24c-0.18-0.18-0.39-0.28-0.67-0.29C27.86,26.71,27.9,26.77,27.77,27.03z M27.37,27.13
				c0.11-0.03,0.21-0.07,0.3-0.14c0.13-0.1,0.13-0.23-0.01-0.32c-0.11-0.08-0.23-0.1-0.39-0.1c0.06,0.04,0.11,0.06,0.14,0.09
				c0.16,0.12,0.17,0.25,0.03,0.39C27.43,27.07,27.39,27.09,27.37,27.13z M27.19,27.14c0.11-0.06,0.2-0.12,0.24-0.21
				c0.03-0.05,0.03-0.1-0.01-0.14c-0.06-0.07-0.14-0.13-0.24-0.15C27.19,26.81,27.19,26.97,27.19,27.14z M16.11,38.35
				c-0.09-0.18-0.1-0.18-0.19-0.07C15.98,38.29,16.03,38.32,16.11,38.35z M10.55,38.16c0.08,0.18,0.08,0.18,0.18,0.16
				C10.67,38.26,10.62,38.22,10.55,38.16z"/>
		</g>
	</g>
	<path d="M27.4,10.11c-0.03-0.16-0.03-0.3,0.14-0.39c-0.01,0.09-0.06,0.15-0.05,0.23c0.01,0.07,0.04,0.15,0.1,0.21
		c0-0.11,0.02-0.21,0.11-0.28c0.04-0.03,0.08-0.07,0.15-0.03c-0.07,0.11-0.15,0.21-0.09,0.37c0.07-0.12,0.15-0.22,0.3-0.2
		c0,0.01,0,0.03,0,0.03c-0.15,0.11-0.18,0.25-0.16,0.42c0.01,0.09,0.03,0.19,0.04,0.28c0.02,0.27-0.01,0.52-0.23,0.7
		c-0.18,0.15-0.37,0.19-0.59,0.12c-0.05-0.01-0.09-0.04-0.13-0.07c-0.14-0.13-0.11-0.32,0.07-0.4c0.03,0.04-0.01,0.07-0.02,0.1
		c-0.06,0.16,0.02,0.29,0.19,0.3c0.07,0.01,0.15-0.01,0.21-0.05c0.18-0.1,0.34-0.41,0.3-0.62c-0.03-0.2-0.16-0.28-0.36-0.22
		c-0.01,0.01-0.03,0.01-0.05,0.01c0.01-0.1,0.01-0.1,0.21-0.16c-0.18-0.11-0.35-0.04-0.52,0.03c0.08-0.14,0.21-0.19,0.37-0.2
		c-0.1-0.09-0.27-0.13-0.39-0.11c-0.23,0.05-0.42,0.16-0.56,0.35c-0.11,0.14-0.11,0.42-0.01,0.56c0.04,0.06,0.09,0.11,0.17,0.14
		c0.05,0.01,0.11,0.01,0.14-0.04c0.03-0.04,0.03-0.09-0.01-0.13c-0.01-0.02-0.04-0.03-0.01-0.06c0.01-0.01,0.04-0.01,0.06-0.01
		c0.05,0.02,0.1,0.09,0.1,0.17c0,0.11-0.09,0.2-0.2,0.22c-0.21,0.03-0.41-0.08-0.48-0.3c-0.03-0.07-0.04-0.14-0.04-0.22
		c-0.11,0.16-0.1,0.35,0.03,0.54c0.12,0.18,0.29,0.22,0.5,0.2c-0.1,0.13-0.16,0.14-0.5,0.03c0.06,0.15,0.15,0.25,0.26,0.33
		c0.14,0.11,0.3,0.16,0.48,0.12c0.05-0.01,0.11-0.03,0.15-0.08c0.06-0.07,0.06-0.15-0.03-0.19c-0.04-0.02-0.07-0.04-0.05-0.09
		c0.01-0.05,0.05-0.06,0.09-0.07c0.1-0.01,0.2,0.06,0.21,0.17c0.01,0.09-0.01,0.16-0.06,0.22c-0.1,0.12-0.23,0.18-0.38,0.18
		c-0.06,0-0.09,0.02-0.09,0.08c0.01,0.06-0.02,0.1-0.07,0.13c-0.03,0.02-0.06,0.02-0.09,0c-0.03-0.02-0.03-0.05-0.03-0.08
		c0.01-0.02,0.01-0.04,0.02-0.06c0.01-0.06-0.01-0.11-0.06-0.13c-0.26-0.11-0.43-0.31-0.56-0.56c0-0.01-0.01-0.01-0.03-0.01
		c0.01,0.23,0.11,0.42,0.25,0.63c-0.16-0.03-0.21-0.15-0.3-0.24c-0.04,0.2,0.02,0.36,0.17,0.45c0.03,0.01,0.06,0.03,0.08,0.05
		c0.03,0.02,0.06,0.03,0.04,0.08c-0.01,0.03-0.04,0.04-0.08,0.05c-0.08,0.01-0.16-0.02-0.22-0.05c-0.02,0.06-0.01,0.13-0.04,0.19
		c-0.01,0.03-0.03,0.05-0.07,0.05s-0.05-0.02-0.06-0.05c-0.02-0.06-0.03-0.11-0.03-0.19c-0.06,0.02-0.12,0.06-0.18,0.06
		c-0.05,0-0.11,0.01-0.13-0.06c-0.01-0.06,0.04-0.07,0.08-0.09c0.2-0.13,0.25-0.23,0.22-0.48c-0.04,0.05-0.08,0.09-0.12,0.14
		c-0.04,0.04-0.09,0.08-0.18,0.1c0.13-0.2,0.24-0.39,0.23-0.62c-0.06,0.11-0.13,0.21-0.2,0.3c-0.08,0.1-0.19,0.18-0.31,0.25
		c-0.12,0.06-0.13,0.07-0.1,0.2c0.01,0.05,0.01,0.09-0.04,0.1c-0.05,0.01-0.09-0.02-0.12-0.07c-0.02-0.04-0.01-0.09-0.02-0.14
		c-0.03-0.03-0.08-0.01-0.13-0.02c-0.15-0.03-0.29-0.1-0.37-0.24c-0.05-0.11-0.04-0.21,0.04-0.29c0.04-0.03,0.08-0.05,0.14-0.05
		c0.05,0.01,0.09,0.02,0.1,0.08c0.01,0.05-0.03,0.06-0.07,0.08c-0.08,0.04-0.09,0.14-0.01,0.2c0.08,0.06,0.17,0.08,0.27,0.08
		c0.29-0.03,0.48-0.2,0.63-0.48c-0.15,0.05-0.28,0.13-0.41,0.08c-0.04-0.01-0.05-0.01-0.11-0.09c0.1-0.01,0.19,0.01,0.27-0.03
		c0.09-0.03,0.17-0.09,0.22-0.18c0.05-0.08,0.08-0.16,0.1-0.25c0.01-0.09,0-0.18-0.04-0.27c-0.03,0.04-0.03,0.1-0.04,0.14
		c-0.06,0.24-0.26,0.39-0.49,0.37c-0.11-0.01-0.18-0.07-0.21-0.17c-0.03-0.08,0-0.18,0.05-0.21c0.03-0.02,0.06-0.03,0.09-0.01
		c0.03,0.03-0.01,0.04-0.01,0.07c-0.05,0.1,0,0.18,0.11,0.17c0.07-0.01,0.13-0.04,0.18-0.1c0.12-0.15,0.14-0.4,0.03-0.57
		c-0.14-0.22-0.35-0.34-0.59-0.39c-0.11-0.02-0.25,0.01-0.39,0.1c0.07,0.04,0.16,0.03,0.22,0.07c0.06,0.03,0.12,0.08,0.18,0.15
		c-0.11-0.01-0.18-0.07-0.28-0.08c-0.09-0.01-0.18,0-0.26,0.06c0.18,0.05,0.18,0.05,0.23,0.15c-0.03,0.03-0.05,0-0.08-0.01
		c-0.18-0.05-0.32,0.04-0.34,0.22c-0.03,0.25,0.07,0.46,0.27,0.61c0.07,0.05,0.17,0.08,0.26,0.06c0.13-0.01,0.24-0.13,0.18-0.29
		c-0.01-0.03-0.03-0.06-0.04-0.09c0.1,0,0.16,0.06,0.18,0.16c0.01,0.11-0.03,0.21-0.15,0.27c-0.13,0.07-0.27,0.08-0.41,0.04
		c-0.27-0.08-0.44-0.29-0.48-0.58c-0.01-0.15-0.01-0.29,0.02-0.43c0.05-0.2,0.05-0.4-0.16-0.54c0.15-0.03,0.2,0.01,0.32,0.18
		c0.05-0.14-0.01-0.25-0.1-0.35c0.16-0.03,0.25,0.07,0.27,0.29c0.11-0.1,0.12-0.22,0.05-0.4c0.14,0.04,0.15,0.08,0.15,0.35
		c0.44-0.15,0.81-0.01,1.12,0.32c0.23,0.24,0.35,0.54,0.39,0.87c0.02,0.16,0.05,0.32,0.07,0.48c0.05-0.16,0.07-0.32,0.09-0.47
		c0.04-0.39,0.2-0.71,0.48-0.97c0.16-0.15,0.36-0.24,0.58-0.28C27.09,10.02,27.24,10.03,27.4,10.11z"/>
	<path d="M30.59,20.71c-0.05-0.05-0.07-0.11-0.09-0.16c-0.16-0.39-0.33-0.79-0.49-1.19c-0.21-0.5-0.46-0.98-0.77-1.43
		c-0.1-0.15-0.2-0.3-0.29-0.45c-0.02-0.03-0.06-0.07-0.04-0.13c0.06,0.02,0.09,0.07,0.11,0.11c0.27,0.34,0.52,0.7,0.7,1.09
		c0.33,0.65,0.6,1.32,0.85,2C30.59,20.6,30.62,20.64,30.59,20.71z"/>
	<path d="M20.98,20.7c-0.03-0.05,0-0.09,0.01-0.13c0.28-0.75,0.57-1.5,0.96-2.21c0.18-0.33,0.39-0.64,0.63-0.93
		c0.03-0.03,0.05-0.07,0.08-0.09c0.03,0.01,0.01,0.03,0.01,0.05c-0.04,0.08-0.09,0.16-0.14,0.24c-0.57,0.77-0.96,1.65-1.3,2.53
		c-0.06,0.13-0.11,0.26-0.17,0.41C21.04,20.62,21.03,20.68,20.98,20.7z"/>
	<path d="M29.56,16.82c0.06,0.06,0.14,0.13,0.19,0.19c0.66,0.72,1.23,1.5,1.71,2.35c0.05,0.09,0.1,0.18,0.14,0.28
		c0.02,0.04,0.05,0.08,0.01,0.15c-0.16-0.27-0.31-0.53-0.46-0.78c-0.16-0.26-0.32-0.51-0.5-0.75c-0.18-0.25-0.36-0.49-0.55-0.72
		c-0.19-0.23-0.38-0.47-0.57-0.7C29.55,16.83,29.55,16.83,29.56,16.82z"/>
	<path d="M19.93,19.77c-0.01-0.08,0.02-0.13,0.04-0.18c0.1-0.2,0.22-0.4,0.34-0.6c0.43-0.69,0.91-1.34,1.45-1.93
		c0.07-0.08,0.16-0.16,0.22-0.23c0.01-0.01,0.01,0,0.03-0.01c-0.01,0.05-0.05,0.08-0.07,0.11c-0.14,0.17-0.27,0.33-0.41,0.5
		c-0.58,0.7-1.08,1.44-1.52,2.24C20,19.7,19.99,19.75,19.93,19.77z"/>
	<path d="M22.01,17.46c0.14-0.41,0.91-1.36,1.22-1.52c0.02,0.03-0.01,0.06-0.03,0.08c-0.03,0.04-0.06,0.08-0.1,0.11
		c-0.32,0.33-0.61,0.69-0.88,1.06C22.17,17.29,22.11,17.38,22.01,17.46z"/>
	<path d="M29.53,17.44c-0.37-0.5-0.77-0.98-1.2-1.44c-0.01-0.01-0.02-0.03-0.01-0.06c0.09,0.05,0.17,0.12,0.24,0.19
		c0.26,0.26,0.5,0.54,0.71,0.85c0.08,0.11,0.14,0.22,0.21,0.33C29.52,17.35,29.55,17.38,29.53,17.44z"/>
	<path d="M25.26,15.67c0.16-0.06,0.29-0.04,0.41,0.03c0.02,0.01,0.04,0.02,0.06,0.04c0.04,0.04,0.07,0.03,0.11,0
		c0.11-0.1,0.24-0.12,0.39-0.1c0.01,0,0.02,0.01,0.03,0.01c0.01,0.01,0.01,0.01,0.03,0.02c-0.09,0.06-0.2,0.09-0.28,0.16
		c-0.08,0.06-0.13,0.16-0.22,0.23c-0.07-0.08-0.13-0.16-0.22-0.23C25.48,15.77,25.38,15.72,25.26,15.67z"/>
	<path d="M35.04,25.64c0.12,0.11,0.67,1.25,0.69,1.44C35.61,26.97,35.06,25.85,35.04,25.64z"/>
	<path d="M15.84,27.11c0.01-0.17,0.55-1.3,0.7-1.45c-0.02,0.13-0.08,0.24-0.13,0.37c-0.06,0.13-0.12,0.24-0.18,0.37
		c-0.06,0.12-0.11,0.24-0.18,0.35C15.99,26.86,15.94,26.99,15.84,27.11z"/>
	<path d="M28.09,35.13c0.04,0.12,0.04,0.24,0.05,0.35c0.04,0.37,0.07,0.75,0.08,1.13c0.01,0.34,0.04,0.68,0.03,1.01
		c-0.01,0.15-0.01,0.3-0.05,0.45c-0.01,0.02-0.01,0.06-0.06,0.06c0-0.96-0.05-1.92-0.1-2.89C28.04,35.21,28.04,35.17,28.09,35.13z"
		/>
	<path d="M24.54,38.58c-0.01-0.1,0.01-0.18,0.03-0.26c0.22-0.85,0.38-1.69,0.55-2.55c0.04-0.2,0.06-0.41,0.09-0.62
		c0-0.01,0.01-0.03,0.01-0.05c0.06,0.03,0.04,0.08,0.04,0.12c0,0.19-0.03,0.37-0.06,0.56c-0.16,0.89-0.33,1.77-0.59,2.64
		C24.6,38.45,24.59,38.52,24.54,38.58z"/>
	<path d="M25.94,27.87c0.11,0.98,0.2,1.97,0.18,2.97c-0.06,0-0.05-0.04-0.05-0.07c-0.01-0.14-0.01-0.28-0.02-0.42
		c-0.01-0.44-0.04-0.89-0.08-1.34C25.94,28.63,25.92,28.25,25.94,27.87z"/>
	<path d="M24.7,37.01c-0.01-0.2,0.13-0.81,0.2-0.91C24.95,36.25,24.82,36.85,24.7,37.01z"/>
	<path d="M37.85,36.61c-0.32-0.18-1.58-2.02-1.62-2.34c0.08,0.05,0.13,0.13,0.18,0.2c0.28,0.45,0.58,0.89,0.9,1.32
		c0.15,0.21,0.3,0.42,0.45,0.63C37.79,36.47,37.83,36.51,37.85,36.61z"/>
	<path d="M20.5,34.5c-0.18,0.43-0.43,0.83-0.67,1.22c-0.02,0.03-0.03,0.07-0.08,0.06c-0.03-0.04,0-0.08,0.02-0.11
		C19.98,35.22,20.37,34.59,20.5,34.5z"/>
	<path d="M8.75,36.79c0.1-0.06,0.2-0.08,0.31-0.1c0.77-0.16,1.51-0.37,2.22-0.71c0.36-0.17,0.69-0.37,1.01-0.6
		c0.16-0.11,0.32-0.21,0.48-0.32c0.03-0.02,0.06-0.04,0.1-0.04c-0.18,0.25-1.08,0.93-1.9,1.25C10.25,36.55,9.52,36.76,8.75,36.79z"
		/>
	<path d="M12.58,36.59c0-0.04,0.02-0.06,0.04-0.07c0.3-0.26,0.56-0.56,0.81-0.86c0.16-0.2,0.33-0.39,0.52-0.57
		c0.02-0.02,0.04-0.05,0.09-0.05c-0.01,0.08-0.05,0.14-0.1,0.2c-0.22,0.27-0.44,0.54-0.68,0.8c-0.16,0.18-0.34,0.35-0.53,0.49
		C12.68,36.55,12.64,36.59,12.58,36.59z"/>
</g>
</svg>
