<?xml version="1.0" encoding="utf-8"?>
<!-- Generator: Adobe Illustrator 27.3.1, SVG Export Plug-In . SVG Version: 6.00 Build 0)  -->
<svg version="1.1" id="Layer_1" xmlns="http://www.w3.org/2000/svg" xmlns:xlink="http://www.w3.org/1999/xlink" x="0px" y="0px"
	 viewBox="0 0 50 50" style="enable-background:new 0 0 50 50;" xml:space="preserve">
<style type="text/css">
	.st0{fill:none;}
	.st1{stroke:#000000;stroke-miterlimit:10;}
	.st2{stroke:#000000;stroke-width:0.75;stroke-miterlimit:10;}
	.st3{clip-path:url(#SVGID_00000153706154848871611290000011708245824490376102_);}
	.st4{clip-path:url(#SVGID_00000013898264247321602290000016483794743127615138_);}
	.st5{fill:#FFFFFF;}
	.st6{clip-path:url(#SVGID_00000088836028806513203930000014019048178903211650_);}
	.st7{fill:#231F20;}
	.st8{clip-path:url(#SVGID_00000098202915433487776970000006515750708659402655_);}
	.st9{clip-path:url(#SVGID_00000158723618021724313740000014447132341328050824_);}
	.st10{clip-path:url(#SVGID_00000010277491298922773430000002305714499845516197_);}
	.st11{clip-path:url(#SVGID_00000098195118017566918410000009104677754022670231_);}
	.st12{clip-path:url(#SVGID_00000008122050612122109400000003591317596611160198_);}
	.st13{clip-path:url(#SVGID_00000172409610161902658460000016532690117628097968_);}
	.st14{clip-path:url(#SVGID_00000023971106538756535320000002506613832391711141_);}
	.st15{clip-path:url(#SVGID_00000183942670762514013080000001811210330071973531_);}
	.st16{clip-path:url(#SVGID_00000029010001135220781830000004542301920729692564_);}
	.st17{clip-path:url(#SVGID_00000065767035397518702640000004870653982243704987_);}
	.st18{clip-path:url(#SVGID_00000145025030830045603080000003067331895721669024_);}
	.st19{clip-path:url(#SVGID_00000065759801052457202160000016015668832391356348_);}
	.st20{clip-path:url(#SVGID_00000106866442309310338040000003219453814606601888_);}
	.st21{clip-path:url(#SVGID_00000045613649664650078820000004429122216342188949_);}
	.st22{clip-path:url(#SVGID_00000047765151293604510480000010458927798068549520_);}
	.st23{clip-path:url(#SVGID_00000121274635667058288280000015503861014336908673_);}
	.st24{clip-path:url(#SVGID_00000031912646008439216550000004238055815622596764_);}
	.st25{clip-path:url(#SVGID_00000106116657015155271760000003237197228323935140_);}
	.st26{clip-path:url(#SVGID_00000031904547916296431090000005676535265875958168_);}
	.st27{clip-path:url(#SVGID_00000137838528026196920460000003463761516286661016_);}
	.st28{clip-path:url(#SVGID_00000183942866086059396870000002987752471558636713_);}
	.st29{clip-path:url(#SVGID_00000183937447631681148040000015231650154272741530_);}
	.st30{clip-path:url(#SVGID_00000048461853735491202540000012909694783432484739_);}
	.st31{fill-rule:evenodd;clip-rule:evenodd;}
	.st32{clip-path:url(#SVGID_00000028311202575552489260000009155117095574596016_);}
	.st33{clip-path:url(#SVGID_00000147914055774166336980000007790034373228121508_);}
	.st34{stroke:#000000;stroke-width:0.5;stroke-miterlimit:10;}
	.st35{clip-path:url(#SVGID_00000027606759573304710320000014765575798502002875_);}
	.st36{clip-path:url(#SVGID_00000072961540051610863810000009412215401131894966_);}
	.st37{clip-path:url(#SVGID_00000085966932059641460280000010189803665149269161_);}
	.st38{fill:#1A1A1A;}
	.st39{clip-path:url(#SVGID_00000152228786185690770530000013356229778109033918_);}
	.st40{clip-path:url(#SVGID_00000177451361516061488150000005478968935365388735_);}
	.st41{clip-path:url(#SVGID_00000062890033422190102440000017283858460596241087_);}
	.st42{clip-path:url(#SVGID_00000102522805153450857620000008171557920915160202_);}
	.st43{clip-path:url(#SVGID_00000108993732131020418300000016977972027710983303_);}
	.st44{clip-path:url(#SVGID_00000088100883119953242550000016563388857125004695_);}
	.st45{clip-path:url(#SVGID_00000142867094033945545410000016076991892004803217_);}
	.st46{clip-path:url(#SVGID_00000087406693233946442240000015600446832251843735_);}
	.st47{clip-path:url(#SVGID_00000091702860866978276740000008603096058846626984_);}
	.st48{fill:#F1F1F1;}
	.st49{fill:#E8E8E8;}
	.st50{fill:#FEFEFE;}
	.st51{fill:#CCCCCC;}
	.st52{fill:#B3B3B3;}
	.st53{fill:#E6E6E6;}
	.st54{fill:#EBEBEB;}
	.st55{fill:#EEEEEE;}
	.st56{fill:#F8F8F8;}
	.st57{fill:#FBFBFB;}
	.st58{fill:#383838;}
	.st59{fill:#232323;}
	.st60{fill:#F6F6F6;}
	.st61{fill:#535353;}
	.st62{fill:#0A0A0A;}
	.st63{fill:#F5F5F5;}
	.st64{fill:#818181;}
	.st65{fill:#4A4A4A;}
	.st66{fill:#999999;}
	.st67{fill:url(#SVGID_00000082348465802562473470000004150016420950502317_);}
	.st68{fill:url(#SVGID_00000135688827257906628660000008367576790377865856_);}
	.st69{fill:#0E0E0D;}
	.st70{fill:#333333;}
	.st71{fill:#808080;}
	.st72{fill:url(#SVGID_00000067958508331854382150000005202279578873576339_);}
	.st73{fill:#666666;}
	.st74{fill:url(#SVGID_00000098213440659611137460000003558543218198642058_);}
	.st75{fill:url(#SVGID_00000081642523883864474390000017160138898324045978_);}
	.st76{fill:url(#SVGID_00000150815268892836886650000005355978835108302493_);}
	.st77{fill:url(#SVGID_00000008831691740406797150000003898126576476108685_);}
	.st78{fill:url(#SVGID_00000174562099753149881110000008224001367795329671_);}
	.st79{clip-path:url(#SVGID_00000026867649297046963040000002700204878581687463_);}
	.st80{clip-path:url(#SVGID_00000029040499015607495420000005998116218173473205_);}
	.st81{clip-path:url(#SVGID_00000073700254939655406050000017381544904347738552_);}
	.st82{clip-path:url(#SVGID_00000153699135450156169740000008566889632713394359_);}
	.st83{clip-path:url(#SVGID_00000085943922511306705070000005462279389158211263_);}
	.st84{fill:#241F20;stroke:#000000;stroke-width:0.5;stroke-miterlimit:10;}
	.st85{clip-path:url(#SVGID_00000141416708499969018740000004826466879383648144_);}
	.st86{clip-path:url(#SVGID_00000113351989340858461650000003137964323427365270_);}
	.st87{clip-path:url(#SVGID_00000041987102901102563810000015615255940515973273_);}
	.st88{clip-path:url(#SVGID_00000164509617217749256350000002583174052034396065_);}
	.st89{clip-path:url(#SVGID_00000016778915433765091490000017421268565545034405_);}
	.st90{clip-path:url(#SVGID_00000134968576042611421740000013137802767446577585_);}
	.st91{clip-path:url(#SVGID_00000107566659918147656450000007388501839685640069_);}
	.st92{clip-path:url(#SVGID_00000101071322527624348030000005340541132527632800_);}
	.st93{clip-path:url(#SVGID_00000177469528031282408210000012358554816093955243_);}
	.st94{clip-path:url(#SVGID_00000119083859878215238490000014077424890236816793_);}
	.st95{clip-path:url(#SVGID_00000031191756613566802940000003942475540511702706_);}
	.st96{clip-path:url(#SVGID_00000016047928741220222790000013988102884272643466_);}
	.st97{clip-path:url(#SVGID_00000147935680947857537640000014734227831116070544_);}
	.st98{clip-path:url(#SVGID_00000074421386421993819900000010946921573514293176_);}
	.st99{clip-path:url(#SVGID_00000163751816864071122060000002914319003457143971_);}
	.st100{clip-path:url(#SVGID_00000041283121618423188530000000664968362037543051_);}
	.st101{clip-path:url(#SVGID_00000037677917674055329230000015104974412579666816_);}
	.st102{clip-path:url(#SVGID_00000008870959754072169940000017755626211487964605_);}
	.st103{clip-path:url(#SVGID_00000137835128043654132390000014371653668047898293_);}
	.st104{clip-path:url(#SVGID_00000111177934118352968760000017181301350995040906_);}
	.st105{clip-path:url(#SVGID_00000149355214653766864080000002606187231298981816_);}
	.st106{clip-path:url(#SVGID_00000164500980710803989960000003800640174450485145_);}
	.st107{clip-path:url(#SVGID_00000067236682575506742100000006046976838437283764_);}
	.st108{clip-path:url(#SVGID_00000068649748415113069480000010967540929270450086_);}
	.st109{clip-path:url(#SVGID_00000142865849011415102750000010310600578831256207_);}
	.st110{clip-path:url(#SVGID_00000154396101356189057290000004121480475029644168_);}
	.st111{clip-path:url(#SVGID_00000044147122363962495030000003800972269937472912_);}
	.st112{clip-path:url(#SVGID_00000182527926634212463720000006612719046131480739_);}
	.st113{clip-path:url(#SVGID_00000032620783822912369290000010385794512388382857_);}
	.st114{clip-path:url(#SVGID_00000011722672596465975210000015305300020535099783_);}
	.st115{fill:#FFFFFF;stroke:#000000;stroke-miterlimit:10;}
	.st116{clip-path:url(#SVGID_00000152987275124238488610000009043608765711545785_);}
	.st117{clip-path:url(#SVGID_00000072272172378057288800000006817521425360080300_);}
	.st118{fill:none;stroke:#010101;stroke-miterlimit:10;}
	.st119{fill:#010101;stroke:#000000;stroke-miterlimit:10;}
	.st120{clip-path:url(#SVGID_00000139288419024468800200000013443830578012685720_);}
	.st121{fill:#010101;stroke:#010101;stroke-miterlimit:10;}
	.st122{clip-path:url(#SVGID_00000056417690465631776460000007439799604387932033_);}
	.st123{clip-path:url(#SVGID_00000170999695724881971840000016066485179304552621_);}
	.st124{clip-path:url(#SVGID_00000074403740628924500320000006938873749888167085_);}
	.st125{clip-path:url(#SVGID_00000121970925203775160440000006509754579181970104_);}
	.st126{clip-path:url(#SVGID_00000141430097510356234660000008129654503007435139_);}
	.st127{fill:none;stroke:#000000;stroke-width:3;stroke-miterlimit:10;}
	.st128{clip-path:url(#SVGID_00000128471152323122486230000009599007890728842686_);}
	.st129{clip-path:url(#SVGID_00000100341350234676115370000017209815094405787289_);}
	.st130{clip-path:url(#SVGID_00000155107097521025595430000006188982219227654024_);}
	.st131{clip-path:url(#SVGID_00000066478502747757674740000002912275754490397077_);}
	.st132{fill:#040606;}
	.st133{clip-path:url(#SVGID_00000137112231010068896500000018136700817815665078_);}
	.st134{clip-path:url(#SVGID_00000161627199217069348220000000332823972449169048_);}
	.st135{clip-path:url(#SVGID_00000129181273395737678510000016874405583186632348_);}
	.st136{clip-path:url(#SVGID_00000083075109937468694930000007673621155818777785_);}
	.st137{clip-path:url(#SVGID_00000096781879611354917110000004362487705940572303_);}
	.st138{clip-path:url(#SVGID_00000181781706670791953520000018188093161211590060_);}
	.st139{clip-path:url(#SVGID_00000088111178153495747890000008654999089062047369_);}
	.st140{fill:#FFFFFF;stroke:#000000;stroke-width:1.5;stroke-miterlimit:10;}
	.st141{clip-path:url(#SVGID_00000129163335650747510060000018190606465408077460_);}
	.st142{fill:#BDBCBC;}
	.st143{clip-path:url(#SVGID_00000049940719110437677370000018016703169017433271_);}
	.st144{fill:#2E2A2B;}
	.st145{clip-path:url(#SVGID_00000011733522610962367610000002408276783426623120_);}
	.st146{clip-path:url(#SVGID_00000126302270159184703450000005718232028884659088_);}
	.st147{clip-path:url(#SVGID_00000061467036530590074150000018135571172779921341_);}
	.st148{clip-path:url(#SVGID_00000183937259882694478870000005599150305219357326_);}
	.st149{clip-path:url(#SVGID_00000032628633174735479280000015270084509472853635_);}
	.st150{fill:#272324;}
	.st151{clip-path:url(#SVGID_00000151523372326092311270000006429457077546132100_);}
	.st152{clip-path:url(#SVGID_00000039104685013551763780000010639937306194658962_);}
	.st153{clip-path:url(#SVGID_00000148634452758057995860000016564986566727543694_);}
	.st154{clip-path:url(#SVGID_00000012460906217183232760000011374481757784837011_);}
	.st155{clip-path:url(#SVGID_00000089569287185059213790000004813545589565779621_);}
	.st156{clip-path:url(#SVGID_00000018958559185483097420000000296184068656318609_);}
	.st157{fill:none;stroke:#000000;stroke-width:0.8735;stroke-linecap:round;stroke-linejoin:round;stroke-miterlimit:10;}
	.st158{clip-path:url(#SVGID_00000000935906173804035140000012318648955474783130_);}
	.st159{clip-path:url(#SVGID_00000105405770110601526130000015562350976378393772_);}
	.st160{clip-path:url(#SVGID_00000043421411037464731210000000472075071084984237_);}
	.st161{clip-path:url(#SVGID_00000152952496635420139290000009521707769215986879_);}
	.st162{clip-path:url(#SVGID_00000058587432212230931400000016916636765924721042_);}
	.st163{clip-path:url(#SVGID_00000016046511693056935500000008983592324136169122_);}
	.st164{clip-path:url(#SVGID_00000078735632226967880370000012081528507375232662_);}
	.st165{clip-path:url(#SVGID_00000148624556412752087230000006028000432667571864_);}
	.st166{clip-path:url(#SVGID_00000126296851597513601500000006033780073840957366_);}
	.st167{clip-path:url(#SVGID_00000142895402336645815990000013041059049110596266_);}
	.st168{clip-path:url(#SVGID_00000150791408428037203280000007004012693431453838_);}
	.st169{clip-path:url(#SVGID_00000069361089967516413520000005528885761727114636_);}
	.st170{clip-path:url(#SVGID_00000047778836431869359380000007168036337846072198_);}
	.st171{clip-path:url(#SVGID_00000002380177570831213970000014237970548669104823_);}
	.st172{clip-path:url(#SVGID_00000046341174519811166840000010900086117203963051_);}
	.st173{clip-path:url(#SVGID_00000137821192775640316350000006564811525986929323_);}
	.st174{clip-path:url(#SVGID_00000148641457505128810080000001146573512988611248_);}
	.st175{clip-path:url(#SVGID_00000003800336534597623160000018183626042658272648_);}
	.st176{clip-path:url(#SVGID_00000036243585661192683030000017301443948114546326_);}
	.st177{clip-path:url(#SVGID_00000083077020223626428930000003397287660608390061_);}
	.st178{clip-path:url(#SVGID_00000018204565869845928780000015370384179542739868_);}
	.st179{clip-path:url(#SVGID_00000132083106668509970170000015916011669893845640_);}
	.st180{clip-path:url(#SVGID_00000160172012194063744480000009113130147527602816_);}
	.st181{clip-path:url(#SVGID_00000080174837596363678250000016807885122040690087_);}
	.st182{clip-path:url(#SVGID_00000023248290964662269430000005448248350159977150_);}
	.st183{clip-path:url(#SVGID_00000008835078675563150790000016085386882649928077_);}
	.st184{clip-path:url(#SVGID_00000072996486495943654980000010310431243404435862_);}
	.st185{clip-path:url(#SVGID_00000114780543186272012200000002420226518066809781_);}
	.st186{clip-path:url(#SVGID_00000142151197777445154820000017795136719150548643_);}
	.st187{clip-path:url(#SVGID_00000116954273241989580850000007106490680057678745_);}
	.st188{clip-path:url(#SVGID_00000121244023659086423060000008944072265621905570_);}
	.st189{clip-path:url(#SVGID_00000036241996881236135070000004262803978361344402_);}
	.st190{clip-path:url(#SVGID_00000013909353175532621150000013569747989974803596_);}
	.st191{clip-path:url(#SVGID_00000078031997921563626310000007291692100283612858_);}
	.st192{clip-path:url(#SVGID_00000126316644947575900180000009539698222744178560_);}
	.st193{clip-path:url(#SVGID_00000085210466121253969970000003764075797654879633_);}
	.st194{clip-path:url(#SVGID_00000041994549488454993340000011065102315776103063_);}
	.st195{clip-path:url(#SVGID_00000160896802781880043040000014449230734675798668_);}
	.st196{fill:#E5E5E5;}
	.st197{fill:#1D1D1B;}
	.st198{fill:none;stroke:#000000;stroke-miterlimit:10;}
	.st199{fill:#FEFEFE;stroke:#000000;stroke-miterlimit:10;}
	.st200{clip-path:url(#SVGID_00000127724382004646595700000009727515758634275487_);}
	.st201{clip-path:url(#SVGID_00000096776784061927870980000016574935467549889982_);}
	.st202{clip-path:url(#SVGID_00000025429745385109348910000015760637752632626622_);}
	.st203{fill:#231F1F;}
	.st204{fill:#020000;}
	.st205{clip-path:url(#SVGID_00000130625620931121700100000007459438321778663834_);}
	.st206{clip-path:url(#SVGID_00000178187598815103946870000004879378846719173041_);}
	.st207{clip-path:url(#SVGID_00000027586459018537039600000008263819755933207487_);}
	.st208{clip-path:url(#SVGID_00000119104251217294062090000012316350257883452854_);}
	.st209{fill:#050000;}
	.st210{clip-path:url(#SVGID_00000140735062596880746780000014119030802943587503_);}
	.st211{clip-path:url(#SVGID_00000067193756777227933630000018109415331642806975_);}
	.st212{clip-path:url(#SVGID_00000164472595985400112410000001541182948787172797_);}
	.st213{clip-path:url(#SVGID_00000160911273710670284690000014838141904598139290_);}
	.st214{clip-path:url(#SVGID_00000113317783755994124190000015524740462221875349_);}
	.st215{clip-path:url(#SVGID_00000180350944089577768190000005271884769103883188_);}
	.st216{fill:#12100F;}
	.st217{clip-path:url(#SVGID_00000108293844443255575790000017588477413971747227_);}
	.st218{clip-path:url(#SVGID_00000035500409318227079900000006101442639072121515_);}
	.st219{fill:none;stroke:#000000;stroke-width:0.5;stroke-miterlimit:10;}
	.st220{clip-path:url(#SVGID_00000131341038320427158100000010746730071407690641_);}
	.st221{clip-path:url(#SVGID_00000020392461093932326550000000809533732957744551_);}
	.st222{clip-path:url(#SVGID_00000066474980436244775170000010686477102009956248_);}
	.st223{clip-path:url(#SVGID_00000055705767057170727060000009118218475884918970_);}
	.st224{fill:none;stroke:#000000;stroke-width:0.25;stroke-miterlimit:10;}
	.st225{clip-path:url(#SVGID_00000073686036377780304220000010742561061552358059_);}
	.st226{clip-path:url(#SVGID_00000007410706048678224320000000792587073501723030_);}
	.st227{clip-path:url(#SVGID_00000106845638294040647380000004169830061822450618_);}
</style>
<g>
	<defs>
		<rect id="SVGID_00000163777670450615646040000000326502996305903539_" x="17.73" y="16.9" width="17.48" height="30.02"/>
	</defs>
	<clipPath id="SVGID_00000100361539778088671860000005860724059514852518_">
		<use xlink:href="#SVGID_00000163777670450615646040000000326502996305903539_"  style="overflow:visible;"/>
	</clipPath>
	<g style="clip-path:url(#SVGID_00000100361539778088671860000005860724059514852518_);">
		<path d="M20.75,22.76c0.06-0.49,0.1-1,0.12-1.47c0.86,0.65,3.09,2.15,5.24,2.15c0.13,0,0.24-0.11,0.24-0.24
			c0-0.13-0.1-0.24-0.24-0.24c-2.27,0-4.73-1.87-5.22-2.26c0.03-1.1-0.02-2-0.04-2.36c0.23-0.12,0.51-0.24,0.7-0.24
			c0.09,0.01,0.49,0.19,0.91,0.37c2.28,0.99,7.62,3.3,10.24,1.68c0.33-0.21,0.62-0.52,0.84-0.92c0.22-0.41,0.36-0.77,0.42-1.08
			c0.35,0.37,0.79,0.98,0.79,1.65v1.32c-0.51,0.33-2.85,1.72-4.72,1.11c-0.12-0.04-0.26,0.03-0.3,0.15
			c-0.04,0.12,0.03,0.26,0.15,0.3c0.38,0.12,0.77,0.18,1.17,0.18c1.52,0,3.02-0.78,3.7-1.18v2.07
			C33.62,24.2,26.34,26.79,20.75,22.76z M29.96,46.01c-0.01,0.01-0.01,0.01-0.02,0.02c-0.22-0.12-0.6-1.23-0.83-2.45
			c0.17-0.1,0.33-0.23,0.49-0.36C29.99,44.27,30.31,45.66,29.96,46.01z M23.43,43.14c-1.24-3.97-0.18-16.36,0.01-18.44
			c0.64,0.23,1.29,0.39,1.93,0.51c-0.07,0.82-0.31,3.86-0.05,5.77c0.02,0.12,0.12,0.2,0.23,0.2c0.01,0,0.02,0,0.03,0
			c0.13-0.02,0.22-0.14,0.2-0.27c-0.25-1.81-0.03-4.77,0.05-5.63c0.74,0.11,1.48,0.16,2.18,0.17c0.01,1.81,0.1,13.47,1.4,17.29
			C27.06,44.84,23.96,43.41,23.43,43.14z M27.95,46.44c0,0-0.01-0.01-0.03-0.02c-0.26-0.23-0.38-1.36-0.4-2.19
			c0.15-0.03,0.31-0.07,0.46-0.12C28.17,45.34,28.13,46.35,27.95,46.44z M26,46.43c-0.02,0.02-0.03,0.02-0.03,0.02
			c0,0-0.01,0-0.03-0.02c-0.23-0.24-0.29-1.32-0.27-2.13c0.14,0.02,0.28,0.03,0.42,0.04C26.18,45.11,26.21,46.17,26,46.43z
			 M24.16,46.18c-0.02,0.03-0.04,0.04-0.08,0.04c-0.01,0-0.06,0-0.11-0.06c-0.33-0.33-0.47-1.57-0.49-2.48
			c0.15,0.07,0.33,0.14,0.55,0.22C24.23,44.71,24.39,45.88,24.16,46.18z M22.24,43.5c-0.16-0.16-0.25-1.14-0.19-2.18l0.45,0.03
			C22.53,42.38,22.41,43.36,22.24,43.5z M20.56,43.5c-0.17-0.18-0.24-1.18-0.17-2.26l0.45,0.02C20.86,42.33,20.73,43.34,20.56,43.5z
			 M18.88,43.5c-0.17-0.19-0.24-1.23-0.18-2.35l0.45,0.02C19.18,42.29,19.06,43.32,18.88,43.5z M22.66,28.51
			c-0.19-1.54-0.32-3.46-0.37-4.28c0.23,0.11,0.46,0.21,0.69,0.3C22.93,25.04,22.8,26.55,22.66,28.51z M20.39,18.65
			c0.05,0.91,0.11,3.15-0.26,4.99c-0.48,2.43-0.25,5.28-0.24,5.4c0.01,0.12,0.11,0.22,0.23,0.22c0.01,0,0.01,0,0.02,0
			c0.13-0.01,0.23-0.13,0.22-0.26c0-0.03-0.23-2.9,0.24-5.26c0.03-0.14,0.06-0.29,0.08-0.44c0.37,0.26,0.75,0.49,1.14,0.69
			c0.04,0.82,0.3,5.08,0.73,6.5c-0.19,3.39-0.3,7.48,0,10.39l-0.69-0.04l-2.43-0.13c-0.02,0-0.04-0.01-0.05-0.01
			c-0.01,0-0.01,0-0.01,0l-0.92-0.05c-0.04-1.07-0.23-6.06-0.23-12.86C18.2,21.26,19.94,19.1,20.39,18.65z M31.62,17.89
			c0.53-0.27,0.99-0.5,1.2-0.5c0.33,0,0.54,0.08,0.62,0.22c0.14,0.25,0.02,0.77-0.32,1.41c-0.17,0.32-0.41,0.57-0.67,0.74
			c-1.45,0.9-3.92,0.44-6.13-0.28C28.54,19.46,30.39,18.51,31.62,17.89z M33.88,17.44c-0.01-0.03-0.02-0.06-0.04-0.08
			c-0.18-0.3-0.52-0.46-1.03-0.46c-0.32,0-0.75,0.22-1.41,0.56c-1.54,0.79-4.12,2.1-7.15,1.25c-0.62-0.25-1.17-0.49-1.61-0.68
			c-0.73-0.32-0.95-0.41-1.08-0.41c-0.53,0-1.25,0.47-1.33,0.53c-0.1,0.07-2.5,1.86-2.5,9.64c0,7.67,0.24,13.04,0.24,13.09
			c0.01,0.12,0.1,0.22,0.22,0.23l0.04,0c-0.04,0.68-0.09,2.27,0.32,2.71c0.12,0.12,0.24,0.15,0.33,0.15c0.09,0,0.21-0.03,0.33-0.15
			c0.41-0.43,0.42-1.96,0.41-2.64l0.29,0.02c-0.04,0.66-0.09,2.19,0.31,2.62c0.12,0.13,0.25,0.15,0.33,0.15
			c0.09,0,0.22-0.03,0.33-0.15c0.4-0.42,0.43-1.89,0.42-2.55l0.27,0.01c-0.04,0.64-0.07,2.1,0.32,2.53
			c0.12,0.13,0.25,0.16,0.34,0.16c0.09,0,0.22-0.03,0.34-0.16c0.16-0.17,0.26-0.49,0.31-0.86c0.04,0.13,0.07,0.26,0.11,0.38
			c0,0.38,0.02,2.53,0.64,3.15c0.13,0.13,0.28,0.2,0.45,0.2c0.18,0,0.34-0.08,0.46-0.23c0.37-0.48,0.17-1.71,0.02-2.39
			c0.2,0.06,0.42,0.11,0.64,0.15c-0.02,0.61-0.03,2.08,0.4,2.53c0.1,0.11,0.23,0.16,0.37,0.16c0,0,0.01,0,0.02,0
			c0.14,0,0.28-0.07,0.38-0.19c0.38-0.46,0.28-1.78,0.21-2.39c0.16,0,0.32-0.02,0.49-0.03c0.02,0.65,0.11,2.06,0.56,2.47
			c0.1,0.09,0.22,0.14,0.34,0.14c0.02,0,0.03,0,0.05,0c0.14-0.01,0.26-0.09,0.35-0.21c0.39-0.52,0.18-2.14,0.09-2.77
			c0.08-0.03,0.16-0.07,0.25-0.11c0.19,0.93,0.58,2.48,1.14,2.66c0.03,0.01,0.08,0.02,0.13,0.02c0.1,0,0.22-0.03,0.35-0.16
			c0.74-0.75-0.18-3.13-0.38-3.62c-1.31-3.53-1.41-15.51-1.42-17.28c3.63-0.08,6.51-1.29,6.56-1.31c0.09-0.04,0.14-0.12,0.14-0.22
			v-4.12C35.2,18.61,34.11,17.64,33.88,17.44"/>
	</g>
</g>
</svg>
