<?xml version="1.0" encoding="utf-8"?>
<!-- Generator: Adobe Illustrator 27.3.1, SVG Export Plug-In . SVG Version: 6.00 Build 0)  -->
<svg version="1.1" id="Layer_1" xmlns="http://www.w3.org/2000/svg" xmlns:xlink="http://www.w3.org/1999/xlink" x="0px" y="0px"
	 viewBox="0 0 50 50" style="enable-background:new 0 0 50 50;" xml:space="preserve">
<style type="text/css">
	.st0{fill:none;}
	.st1{stroke:#000000;stroke-miterlimit:10;}
	.st2{stroke:#000000;stroke-width:0.75;stroke-miterlimit:10;}
	.st3{clip-path:url(#SVGID_00000048460727447768594690000011490101816806336412_);}
	.st4{clip-path:url(#SVGID_00000133519535551308369010000016207476280704138155_);}
	.st5{fill:#FFFFFF;}
	.st6{clip-path:url(#SVGID_00000047773476478869403120000018083187853466505875_);}
	.st7{fill:#231F20;}
	.st8{clip-path:url(#SVGID_00000081633463462318406640000013880432520180681404_);}
	.st9{clip-path:url(#SVGID_00000060032508786224202650000008939878966116858522_);}
	.st10{clip-path:url(#SVGID_00000083054907202090141660000008249152433507353489_);}
	.st11{clip-path:url(#SVGID_00000062902229113454013070000004983763728504450983_);}
	.st12{clip-path:url(#SVGID_00000183239030940536756120000014116316603742563508_);}
	.st13{clip-path:url(#SVGID_00000049219393258126656100000007945651340892989115_);}
	.st14{clip-path:url(#SVGID_00000017477170118846091160000009081991952628825767_);}
	.st15{clip-path:url(#SVGID_00000167380643484511103820000017104846040252905639_);}
	.st16{clip-path:url(#SVGID_00000096049186144951914400000006475971420624738740_);}
	.st17{clip-path:url(#SVGID_00000165204465428734674570000015664739665926110371_);}
	.st18{clip-path:url(#SVGID_00000037666524073267435120000009953843355097006228_);}
	.st19{clip-path:url(#SVGID_00000053522556162165755560000007849147424172247952_);}
	.st20{clip-path:url(#SVGID_00000111155513286845530820000004642496711615093895_);}
	.st21{clip-path:url(#SVGID_00000025436765839537384540000015725731310915249565_);}
	.st22{clip-path:url(#SVGID_00000044896175277436888350000005085503126785187214_);}
	.st23{clip-path:url(#SVGID_00000021807866658448543050000010639225926540512949_);}
	.st24{clip-path:url(#SVGID_00000115480089852784647290000001952009114735814043_);}
	.st25{clip-path:url(#SVGID_00000106852803820200413200000004223927940360157313_);}
	.st26{clip-path:url(#SVGID_00000178204102618519837470000011314863586084900538_);}
	.st27{clip-path:url(#SVGID_00000137837007383040048020000000892961075745719465_);}
	.st28{clip-path:url(#SVGID_00000078757089400779978370000001196170978578180994_);}
	.st29{clip-path:url(#SVGID_00000114063260244164187550000001332960059449427346_);}
	.st30{clip-path:url(#SVGID_00000032636144543649281330000016711172186657345192_);}
	.st31{fill-rule:evenodd;clip-rule:evenodd;}
	.st32{clip-path:url(#SVGID_00000091703424651739210180000003938917544966150580_);}
	.st33{clip-path:url(#SVGID_00000070088376386107412050000018075385831723306942_);}
	.st34{stroke:#000000;stroke-width:0.5;stroke-miterlimit:10;}
	.st35{clip-path:url(#SVGID_00000141452127520869993360000006362474435126605498_);}
	.st36{clip-path:url(#SVGID_00000103267284615331004950000007291742667982491040_);}
	.st37{clip-path:url(#SVGID_00000103223088794282072190000010080616373498530707_);}
	.st38{fill:#1A1A1A;}
	.st39{clip-path:url(#SVGID_00000147189541293227935160000005735302015698808510_);}
	.st40{clip-path:url(#SVGID_00000057857615215378391190000007896537234317249160_);}
	.st41{clip-path:url(#SVGID_00000007414005012427125000000013162802840726587052_);}
	.st42{clip-path:url(#SVGID_00000092423712850944415420000006327366924242714759_);}
	.st43{clip-path:url(#SVGID_00000029003990776105077060000017272406302170359486_);}
	.st44{clip-path:url(#SVGID_00000070113226234361063990000012039311551467004294_);}
	.st45{clip-path:url(#SVGID_00000057861118159331063220000002689193842465005486_);}
	.st46{clip-path:url(#SVGID_00000044143623155924798280000009254746514869041598_);}
	.st47{clip-path:url(#SVGID_00000131362356287651669630000004180874543942268853_);}
	.st48{fill:#F1F1F1;}
	.st49{fill:#E8E8E8;}
	.st50{fill:#FEFEFE;}
	.st51{fill:#CCCCCC;}
	.st52{fill:#B3B3B3;}
	.st53{fill:#E6E6E6;}
	.st54{fill:#EBEBEB;}
	.st55{fill:#EEEEEE;}
	.st56{fill:#F8F8F8;}
	.st57{fill:#FBFBFB;}
	.st58{fill:#383838;}
	.st59{fill:#232323;}
	.st60{fill:#F6F6F6;}
	.st61{fill:#535353;}
	.st62{fill:#0A0A0A;}
	.st63{fill:#F5F5F5;}
	.st64{fill:#818181;}
	.st65{fill:#4A4A4A;}
	.st66{fill:#999999;}
	.st67{fill:url(#SVGID_00000096749476987163128510000003021059976351352964_);}
	.st68{fill:url(#SVGID_00000023962964362907512270000006234513201579587227_);}
	.st69{fill:#0E0E0D;}
	.st70{fill:#333333;}
	.st71{fill:#808080;}
	.st72{fill:url(#SVGID_00000135671488665115701480000004339891449537942163_);}
	.st73{fill:#666666;}
	.st74{fill:url(#SVGID_00000158706886900234999670000014016764362912276898_);}
	.st75{fill:url(#SVGID_00000091712857947624328490000000495285663088506753_);}
	.st76{fill:url(#SVGID_00000030454732496901145680000013284500065920642197_);}
	.st77{fill:url(#SVGID_00000114042369975272794310000000661770431108272289_);}
	.st78{fill:url(#SVGID_00000135663958904829590930000005446441458993942178_);}
	.st79{clip-path:url(#SVGID_00000034091322512424060400000011155438194493031336_);}
	.st80{clip-path:url(#SVGID_00000162354727107033740950000009825274247681448080_);}
	.st81{clip-path:url(#SVGID_00000003081424657608262440000014215165670793399196_);}
	.st82{clip-path:url(#SVGID_00000000202470476758372700000000492039750032021685_);}
	.st83{clip-path:url(#SVGID_00000098210325644335796130000005621967437759971000_);}
	.st84{fill:#241F20;stroke:#000000;stroke-width:0.5;stroke-miterlimit:10;}
	.st85{clip-path:url(#SVGID_00000116916683262548232550000013174727705541509563_);}
	.st86{clip-path:url(#SVGID_00000008108007699300231560000004316809259948983994_);}
	.st87{clip-path:url(#SVGID_00000162319340881690539470000014285465052187770272_);}
	.st88{clip-path:url(#SVGID_00000067937160121434016410000015100521029773797524_);}
	.st89{clip-path:url(#SVGID_00000081623663348460209270000000645281975080730504_);}
	.st90{clip-path:url(#SVGID_00000072276886341207778040000012499570169281890745_);}
	.st91{clip-path:url(#SVGID_00000026868060020870972110000001176129334565545117_);}
	.st92{clip-path:url(#SVGID_00000152948132465340529620000009547101179864462228_);}
	.st93{clip-path:url(#SVGID_00000024721705965733442520000013687548880035995014_);}
	.st94{clip-path:url(#SVGID_00000013192794391020433820000011419592142335908016_);}
	.st95{clip-path:url(#SVGID_00000133487076252249448700000012676869488083562943_);}
	.st96{clip-path:url(#SVGID_00000174584813566956266260000014477761384512198063_);}
	.st97{clip-path:url(#SVGID_00000178909675666145381200000002386032066784308881_);}
	.st98{clip-path:url(#SVGID_00000082334935924794997400000006347661689991277958_);}
	.st99{clip-path:url(#SVGID_00000018230206744348153370000014804102119913178046_);}
	.st100{clip-path:url(#SVGID_00000031886245981378781590000007596086673858951339_);}
	.st101{clip-path:url(#SVGID_00000131360009330437809110000008703396149530997146_);}
	.st102{clip-path:url(#SVGID_00000089545780867222966460000009102508707699683762_);}
	.st103{clip-path:url(#SVGID_00000032640788615205827860000004720642490405905845_);}
	.st104{clip-path:url(#SVGID_00000027593593504625766670000005990276903550253979_);}
	.st105{clip-path:url(#SVGID_00000111171568955313097700000015683263798186507930_);}
	.st106{clip-path:url(#SVGID_00000013164957421881377820000006168863479972559020_);}
	.st107{clip-path:url(#SVGID_00000061455890654931332050000010469679236064230575_);}
	.st108{clip-path:url(#SVGID_00000064321199971486800210000005600140856505034929_);}
	.st109{clip-path:url(#SVGID_00000062178152319222560370000018060078182355927978_);}
	.st110{clip-path:url(#SVGID_00000162343026417557969010000014308501330853963427_);}
	.st111{clip-path:url(#SVGID_00000166640755360370674700000009171852793366940857_);}
	.st112{clip-path:url(#SVGID_00000136409505826573178770000008132047325529059753_);}
	.st113{clip-path:url(#SVGID_00000062185693258743899500000015360243515104602530_);}
	.st114{clip-path:url(#SVGID_00000173844283359531663320000015499346628831950271_);}
	.st115{fill:#FFFFFF;stroke:#000000;stroke-miterlimit:10;}
	.st116{clip-path:url(#SVGID_00000112610349095269238400000011403784186828974482_);}
	.st117{clip-path:url(#SVGID_00000071544901834194564010000005185484981565659010_);}
	.st118{fill:none;stroke:#010101;stroke-miterlimit:10;}
	.st119{fill:#010101;stroke:#000000;stroke-miterlimit:10;}
	.st120{clip-path:url(#SVGID_00000141452228255058749320000014517948389892545426_);}
	.st121{fill:#010101;stroke:#010101;stroke-miterlimit:10;}
	.st122{clip-path:url(#SVGID_00000056393407778155097270000005544811954888467873_);}
	.st123{clip-path:url(#SVGID_00000127041417171546170900000014764991472595063210_);}
	.st124{clip-path:url(#SVGID_00000090263052234645212300000012572949243689245571_);}
	.st125{clip-path:url(#SVGID_00000140007683291905916670000002511349640021158312_);}
	.st126{clip-path:url(#SVGID_00000055706784095237005570000018015514911255813766_);}
	.st127{fill:none;stroke:#000000;stroke-width:3;stroke-miterlimit:10;}
	.st128{clip-path:url(#SVGID_00000098899146313261306060000016132985572791673275_);}
	.st129{clip-path:url(#SVGID_00000013188857698280389930000007307671521603889850_);}
	.st130{clip-path:url(#SVGID_00000017481929565703041460000011703673389776668800_);}
	.st131{clip-path:url(#SVGID_00000034079289851148316520000006167538973930679439_);}
	.st132{fill:#040606;}
	.st133{clip-path:url(#SVGID_00000031165680381285655890000017283486386239337353_);}
	.st134{clip-path:url(#SVGID_00000157295256819077065010000007546517171979378075_);}
	.st135{clip-path:url(#SVGID_00000126288474116897294190000002336932527367866798_);}
	.st136{clip-path:url(#SVGID_00000019675777487531339260000007771297133983974547_);}
	.st137{clip-path:url(#SVGID_00000162331288093936811390000001521679109194798265_);}
	.st138{clip-path:url(#SVGID_00000125605261383472155750000017719302489198522501_);}
	.st139{clip-path:url(#SVGID_00000003805870820254121800000001827648877082097299_);}
	.st140{fill:#FFFFFF;stroke:#000000;stroke-width:1.5;stroke-miterlimit:10;}
	.st141{clip-path:url(#SVGID_00000065756890194600091580000011161712980284937390_);}
	.st142{fill:#BDBCBC;}
	.st143{clip-path:url(#SVGID_00000109025160283166389320000005950484767948800934_);}
	.st144{fill:#2E2A2B;}
	.st145{clip-path:url(#SVGID_00000172400380537401949700000008447806805616460949_);}
	.st146{clip-path:url(#SVGID_00000109030493384582401810000010735174989980926379_);}
	.st147{clip-path:url(#SVGID_00000096760132557689382380000000379013625435937678_);}
	.st148{clip-path:url(#SVGID_00000173143029403746708200000012608311577340025507_);}
	.st149{clip-path:url(#SVGID_00000173147397195714684490000002945344670677677978_);}
	.st150{fill:#272324;}
	.st151{clip-path:url(#SVGID_00000155132986289624808360000014443939755692102840_);}
	.st152{clip-path:url(#SVGID_00000183963198720235770410000007534689980823131779_);}
	.st153{clip-path:url(#SVGID_00000113351271411360548500000009100592993510322846_);}
	.st154{clip-path:url(#SVGID_00000089550288601806260910000005790454625933340839_);}
	.st155{clip-path:url(#SVGID_00000006707754669790376710000009580303517135372971_);}
	.st156{clip-path:url(#SVGID_00000001648671776749382910000006475141477732096908_);}
	.st157{fill:none;stroke:#000000;stroke-width:0.8735;stroke-linecap:round;stroke-linejoin:round;stroke-miterlimit:10;}
	.st158{clip-path:url(#SVGID_00000170998195417607336790000014900277757310316988_);}
	.st159{clip-path:url(#SVGID_00000118391260362339449910000008136369082564608405_);}
	.st160{clip-path:url(#SVGID_00000164496360964224993790000007260669516763414193_);}
	.st161{clip-path:url(#SVGID_00000163066363962142781970000006979752659044764814_);}
	.st162{clip-path:url(#SVGID_00000023278217698067602290000009630478751749889414_);}
	.st163{clip-path:url(#SVGID_00000159463113770478865400000002036201289393177989_);}
	.st164{clip-path:url(#SVGID_00000082347773392008966470000009107947310592068752_);}
	.st165{clip-path:url(#SVGID_00000170969267203478431440000002615066943415164607_);}
	.st166{clip-path:url(#SVGID_00000026152172936208135620000008346955530729293968_);}
	.st167{clip-path:url(#SVGID_00000068653474015729423270000014726921301683590312_);}
	.st168{clip-path:url(#SVGID_00000134938952955910790320000005632485043943229076_);}
	.st169{clip-path:url(#SVGID_00000061464498905439438390000014245700221263318686_);}
	.st170{clip-path:url(#SVGID_00000183946057927318843770000013014263517726289552_);}
	.st171{clip-path:url(#SVGID_00000103258465081120431160000002032586728347834799_);}
	.st172{clip-path:url(#SVGID_00000121980301597281514290000010862569593740144807_);}
	.st173{clip-path:url(#SVGID_00000132064430418481720140000013757008181015299713_);}
	.st174{clip-path:url(#SVGID_00000052824113420871893810000008425749400945393830_);}
	.st175{clip-path:url(#SVGID_00000114063679559691631600000015965281877928344749_);}
	.st176{clip-path:url(#SVGID_00000138547812624491805040000003779031141040867487_);}
	.st177{clip-path:url(#SVGID_00000098930895300691720010000018123727437118712210_);}
	.st178{clip-path:url(#SVGID_00000071529179427544504380000009975224115763718536_);}
	.st179{clip-path:url(#SVGID_00000056394880606494190180000003809756591457935751_);}
	.st180{clip-path:url(#SVGID_00000013886494353807711740000015841511923858363796_);}
	.st181{clip-path:url(#SVGID_00000147189713231663099830000010159735944559787954_);}
	.st182{clip-path:url(#SVGID_00000132772318100142936440000016325410424248235425_);}
	.st183{clip-path:url(#SVGID_00000122696906381645448220000002568586276609810325_);}
	.st184{clip-path:url(#SVGID_00000182497982069200368830000013149947980459371161_);}
	.st185{clip-path:url(#SVGID_00000117659050355800053700000006850209345667819922_);}
	.st186{clip-path:url(#SVGID_00000036941699740162609950000017603908764481638017_);}
	.st187{clip-path:url(#SVGID_00000034808362838166659170000003761684627700343226_);}
	.st188{clip-path:url(#SVGID_00000012433115260314417550000014458606474767960214_);}
	.st189{clip-path:url(#SVGID_00000016072977278458917170000003840143140792494473_);}
	.st190{clip-path:url(#SVGID_00000065767813441025532870000018193110426839727021_);}
	.st191{clip-path:url(#SVGID_00000034078640418215774140000005093918169151139749_);}
	.st192{clip-path:url(#SVGID_00000024718475573127947630000013170967607758177161_);}
	.st193{clip-path:url(#SVGID_00000177472501850178218700000003643889292929173918_);}
	.st194{clip-path:url(#SVGID_00000053538184028877775400000005957054804950995861_);}
	.st195{clip-path:url(#SVGID_00000110430426203742014840000011129211952756000675_);}
	.st196{fill:#E5E5E5;}
	.st197{fill:#1D1D1B;}
	.st198{fill:none;stroke:#000000;stroke-miterlimit:10;}
	.st199{fill:#FEFEFE;stroke:#000000;stroke-miterlimit:10;}
	.st200{clip-path:url(#SVGID_00000071524644001421582010000008657269533738570395_);}
	.st201{clip-path:url(#SVGID_00000155106636808363083410000000992653415277522364_);}
	.st202{clip-path:url(#SVGID_00000057115784719976293950000005733016027069046970_);}
	.st203{fill:#231F1F;}
	.st204{fill:#020000;}
	.st205{clip-path:url(#SVGID_00000104706018367840394600000016245770208282422958_);}
	.st206{clip-path:url(#SVGID_00000000913773898412455480000008491667678555160461_);}
	.st207{clip-path:url(#SVGID_00000131349137397902784770000012690510547887192750_);}
	.st208{clip-path:url(#SVGID_00000077322526219740403160000007402283533105388726_);}
	.st209{fill:#050000;}
	.st210{clip-path:url(#SVGID_00000116216487382075469940000017479348487126660492_);}
	.st211{clip-path:url(#SVGID_00000013170715653952048310000012751960387040634285_);}
	.st212{clip-path:url(#SVGID_00000028324930486677713030000008436397859814268839_);}
	.st213{clip-path:url(#SVGID_00000125597775496314147850000007243130842784180136_);}
	.st214{clip-path:url(#SVGID_00000008141216870802647560000000486561638963433110_);}
	.st215{clip-path:url(#SVGID_00000107558529724518831800000002476901537778102675_);}
	.st216{fill:#12100F;}
	.st217{clip-path:url(#SVGID_00000136400524425781253950000012369902944597652927_);}
	.st218{clip-path:url(#SVGID_00000153691016665637277870000005607603519396756621_);}
	.st219{fill:none;stroke:#000000;stroke-width:0.5;stroke-miterlimit:10;}
	.st220{clip-path:url(#SVGID_00000065044205864885882100000007307522912606506899_);}
	.st221{clip-path:url(#SVGID_00000050632702328057414830000011609244207928150439_);}
	.st222{clip-path:url(#SVGID_00000106126783431306785420000012546841166524638870_);}
	.st223{clip-path:url(#SVGID_00000115489305504442890280000008960554985625160635_);}
	.st224{fill:none;stroke:#000000;stroke-width:0.25;stroke-miterlimit:10;}
	.st225{clip-path:url(#SVGID_00000029723977007888989930000003284836916314101937_);}
	.st226{clip-path:url(#SVGID_00000041261142597631327400000011155390586270497979_);}
	.st227{clip-path:url(#SVGID_00000167360388098767231590000018031217517705605300_);}
</style>
<g>
	<g>
		<defs>
			<rect id="SVGID_00000145761495353381768830000017599174924851282329_" x="11.24" y="15.39" width="31.57" height="27.45"/>
		</defs>
		<clipPath id="SVGID_00000131348922508279413850000017021661974938512572_">
			<use xlink:href="#SVGID_00000145761495353381768830000017599174924851282329_"  style="overflow:visible;"/>
		</clipPath>
		<g style="clip-path:url(#SVGID_00000131348922508279413850000017021661974938512572_);">
			<path class="st5" d="M12.11,34.76c1.15-2.27,2.44-4.98,3.4-7.55c0.48-1.28,1.16-2.77,1.76-4.01c0.67-1.38,1.42-2.84,2.24-4.13
				c0.52-0.81,0.76-2,1.28-2.77c0.61-0.91,1.98-0.4,2.89-0.19c0.85,0.19,1.63,0.52,2.51,0.65c1.18,0.18,2.84,0.92,3.98,1.29
				c2.18,0.72,3.27,1.17,5.86,1.79c1.46,0.35,3.32,0.71,4.68,1.35c1.12,0.53,1.94,0.7,1.55,1.9c-0.4,1.24-1.67,2.83-2.21,4.01
				c-0.35,0.76-0.56,1.53-0.88,2.3c-0.29,0.69-0.75,1.3-1.03,1.99c-0.32,0.8-0.39,1.67-0.68,2.48c-0.25,0.74-0.61,1.44-0.91,2.16
				c-0.51,1.2-1.09,2.48-1.51,3.7c-0.2,0.58-0.46,1.15-0.68,1.71c-0.26,0.66-0.25,1.04-0.95,1.12c-0.44,0.05-0.61-0.14-1-0.24
				c-0.53-0.13-0.98-0.15-1.49-0.33c-0.49-0.18-1.05-0.23-1.52-0.48c-0.44-0.24-1.24-0.35-1.66-0.62c-1.17-0.73-2.4-1.02-3.72-1.45
				c-1.73-0.56-3.39-1.32-5.12-1.91c-1-0.34-1.86-0.78-2.78-1.33c-0.59-0.36-1.38-0.59-1.99-0.9
				C13.44,34.98,12.76,34.95,12.11,34.76"/>
		</g>
	</g>
	<path d="M41.75,23.77c-0.4,1.24-0.93,2.69-1.47,3.88c-0.35,0.76-0.55,1.53-0.87,2.29c-0.29,0.69-0.43,1.58-0.71,2.27
		c-0.32,0.8-0.71,1.39-1,2.21c-0.25,0.73-0.61,1.44-0.91,2.15c-0.51,1.2-1.08,2.48-1.51,3.7c-0.2,0.58-0.46,1.15-0.69,1.71
		c-0.26,0.66-0.25,1.04-0.95,1.12c-0.44,0.05-0.61-0.14-1-0.24c-0.53-0.13-0.98-0.14-1.49-0.33c-0.49-0.18-1.05-0.23-1.52-0.48
		c-0.44-0.24-1.24-0.35-1.66-0.62c-1.17-0.73-2.4-1.02-3.72-1.45c-0.61-0.2-1.2-0.42-1.8-0.65c-0.79-0.3-1.57-0.62-2.36-0.92
		c-0.32-0.12-0.64-0.23-0.97-0.34c-0.94-0.32-1.75-0.72-2.61-1.23c-0.06-0.03-0.11-0.07-0.17-0.1c-0.59-0.36-1.38-0.59-1.99-0.9
		c-0.04-0.02-0.08-0.04-0.12-0.06c-0.64-0.29-1.29-0.33-1.9-0.51c1.15-2.27,2.44-4.98,3.4-7.55c0.48-1.28,1.16-2.77,1.77-4.01
		c0.66-1.38,1.42-2.84,2.23-4.12c0.52-0.81,0.75-2.24,1.27-3.01c0.57-0.84,1.79-0.22,2.69,0c0.07,0.02,0.14,0.04,0.2,0.05
		c0.69,0.16,1.34,0.41,2.04,0.56c0.15,0.04,0.31,0.07,0.47,0.09c1.04,0.15,2.44,0.75,3.54,1.14c0.15,0.06,0.3,0.11,0.43,0.15
		c0.65,0.21,1.22,0.41,1.74,0.59c1.23,0.42,2.31,0.77,4.12,1.2c1.46,0.35,3.04,0.59,4.4,1.23C41.78,22.13,42.14,22.57,41.75,23.77z"
		/>
	<path class="st5" d="M36.34,22.81c-0.14-0.04-0.29-0.08-0.43-0.12l1.05-2.15l-2.05-0.5l-1.08,2.09c-0.92-0.24-1.84-0.48-2.77-0.69
		l1.08-2.26c-0.53-0.18-1.08-0.37-1.74-0.59c-0.14-0.05-0.28-0.1-0.43-0.15l-1.23,2.49c-1.39-0.29-2.8-0.54-4.21-0.75l1.42-2.97
		c-0.69-0.16-1.34-0.41-2.04-0.56c-0.06-0.01-0.14-0.03-0.2-0.05l-1.61,3.26c-0.8-0.09-1.59-0.16-2.4-0.22
		c-0.13-0.01-0.17,0.19-0.04,0.2c0.78,0.06,1.56,0.14,2.33,0.23l-0.23,0.46c-0.83-0.08-1.67-0.1-2.43,0.09
		c-0.05,0.01-0.04,0.09,0.01,0.1c0.74,0.11,1.49,0.14,2.25,0.17l-1.28,2.6c-0.85-0.18-1.69-0.38-2.52-0.62
		c-0.17-0.05-0.23,0.21-0.06,0.26c0.81,0.25,1.63,0.45,2.45,0.63l-0.19,0.38c-0.78-0.14-1.56-0.26-2.34-0.37
		c-0.12-0.02-0.18,0.16-0.05,0.19c0.75,0.16,1.5,0.31,2.25,0.46l-1.63,3.31c-0.75-0.17-1.52-0.34-2.26-0.3
		c-0.02,0-0.03,0.03-0.01,0.04c0.64,0.33,1.39,0.44,2.12,0.55l-0.15,0.3c-0.72-0.14-1.44-0.24-2.15-0.3
		c-0.1-0.01-0.15,0.14-0.04,0.17c0.67,0.19,1.34,0.33,2.02,0.47l-3.51,7.12c0.04,0.02,0.08,0.04,0.12,0.06
		c0.62,0.31,1.4,0.54,1.99,0.9c0.06,0.03,0.11,0.07,0.17,0.1l3.67-7.66c0.39,0.1,0.77,0.2,1.15,0.31c0.17,0.05,0.29-0.2,0.12-0.25
		c-0.38-0.12-0.75-0.23-1.14-0.34l0.18-0.37c0.55,0.14,1.11,0.28,1.67,0.42c0.15,0.03,0.2-0.17,0.06-0.22
		c-0.51-0.21-1.05-0.36-1.59-0.49l1.61-3.36c1.37,0.27,2.72,0.55,4.07,0.9L20.1,38.42c0.79,0.3,1.57,0.61,2.36,0.92l6.18-12.89
		c0.14,0.01,0.21-0.17,0.12-0.24l0.31-0.66c0.35,0.1,0.71,0.2,1.06,0.32c0.2,0.06,0.31-0.25,0.11-0.31
		c-0.34-0.11-0.69-0.21-1.03-0.31l1.29-2.69c0.92,0.21,1.84,0.43,2.75,0.65l-0.85,1.64l2.76-1.17c0.05,0.01,0.11,0.03,0.16,0.04
		c0.14,0.04,0.23-0.12,0.18-0.22l0.24-0.49c0.18,0.05,0.36,0.09,0.54,0.14C36.51,23.22,36.55,22.87,36.34,22.81z M26.45,25.54
		c-1.34-0.36-2.68-0.68-4.05-0.95l0.18-0.37c1.38,0.25,2.77,0.48,4.14,0.77L26.45,25.54z M26.87,24.68
		c-1.38-0.29-2.77-0.51-4.15-0.75l1.35-2.81c1.2,0.2,2.38,0.47,3.56,0.76c0.19,0.05,0.38,0.09,0.56,0.14L26.87,24.68z M28.32,21.74
		c-0.34-0.08-0.69-0.16-1.03-0.24c-1.03-0.25-2.06-0.46-3.1-0.64l0.21-0.45c1.4,0.24,2.78,0.52,4.16,0.83L28.32,21.74z M33.4,22.94
		c-0.92-0.22-1.84-0.44-2.76-0.65l0.24-0.5c0.92,0.23,1.84,0.46,2.76,0.69L33.4,22.94z"/>
	<path class="st5" d="M18.35,31.9c-0.71-0.25-1.45-0.41-2.18-0.57c-0.56-0.12-1.24-0.36-1.82-0.28c-0.04,0-0.04,0.06-0.01,0.08
		c0.45,0.25,1.04,0.28,1.54,0.39c0.8,0.18,1.58,0.4,2.37,0.64C18.41,32.21,18.49,31.95,18.35,31.9z"/>
	<path class="st5" d="M19.11,33.16c-1.65-0.52-3.26-1.28-4.99-1.49c-0.13-0.02-0.17,0.17-0.04,0.2c1.71,0.38,3.3,0.99,4.95,1.56
		C19.21,33.48,19.3,33.22,19.11,33.16z"/>
	<path class="st5" d="M23.14,37.61c-3.3-1.31-6.61-2.81-10.09-3.57c-0.16-0.04-0.19,0.2-0.04,0.24c3.47,0.87,6.68,2.27,9.99,3.61
		C23.19,37.96,23.33,37.69,23.14,37.61z"/>
	<path class="st5" d="M23.16,38.29c-1.59-0.95-3.23-1.66-4.97-2.3c-1.69-0.62-3.49-1.34-5.28-1.57c-0.08-0.01-0.11,0.11-0.03,0.14
		c1.59,0.59,3.26,0.96,4.86,1.54c1.83,0.66,3.6,1.44,5.26,2.44C23.16,38.63,23.32,38.39,23.16,38.29z"/>
	<path class="st5" d="M18.06,31.13c0.4,0.07,1.45-0.61,1.91-0.83c0.61-0.29,1.23-0.59,1.87-0.78c1.75-0.53,3.34-1.4,5.04-2.06
		c3.72-1.43,7.3-3.27,11.04-4.58c0.76-0.26,3.23-0.99,4.05-0.92c0.55,0.05,0.13,0.48-0.31,0.86c-0.45,0.38-1.57,1.19-2.06,1.53
		c-2.34,1.61-4.36,3.23-6.28,5.34c-1.9,2.09-4.03,3.94-6.11,5.82c-0.89,0.8-1.71,1.59-2.5,2.43c-0.21,0.23-0.8,1.04-1.14,1.03
		c-0.39-0.01-0.69-0.86-0.9-1.17c-0.91-1.32-2.19-2.33-3.11-3.63c-0.41-0.59-0.6-1.16-0.91-1.79c-0.18-0.38-1.05-1.13-0.23-1.3"/>
	<path d="M23.71,38.6c-1.44-2.74-4.28-4.4-5.47-7.3c-0.08-0.2-0.43-0.15-0.38,0.08c0.02,0.09,0.04,0.18,0.06,0.27
		c-0.29,0.15-0.56,0.35-0.84,0.51c-0.34,0.2-0.73,0.35-1.04,0.59c-0.06,0.05-0.01,0.17,0.07,0.16c0.31-0.03,0.63-0.23,0.9-0.37
		c0.33-0.18,0.7-0.37,0.99-0.61c0.05,0.14,0.1,0.28,0.15,0.42c-0.04-0.03-0.08-0.03-0.11,0c-0.22,0.16-0.43,0.33-0.64,0.5
		c-0.2,0.16-0.44,0.31-0.63,0.49c-0.07,0.07,0.03,0.16,0.1,0.13c0.23-0.11,0.44-0.29,0.65-0.43c0.23-0.16,0.45-0.33,0.65-0.51
		c0.01-0.01,0.02-0.03,0.03-0.04c0.21,0.48,0.48,0.91,0.8,1.31c-0.06,0.05-0.13,0.11-0.19,0.16c-0.21,0.18-0.48,0.34-0.65,0.54
		c-0.07,0.08,0.03,0.18,0.12,0.15c0.21-0.07,0.4-0.24,0.57-0.38c0.11-0.08,0.22-0.16,0.33-0.25c0.09,0.11,0.19,0.23,0.29,0.34
		c-0.38,0.3-0.73,0.66-1.08,0.98c-0.1,0.09,0.04,0.24,0.15,0.15c0.37-0.3,0.78-0.58,1.13-0.91c0.18,0.2,0.38,0.39,0.57,0.58
		c0,0-0.01,0.01-0.01,0.01c-0.03,0.02-0.05,0.04-0.07,0.06c-0.06,0.05-0.11,0.1-0.17,0.15c-0.11,0.1-0.21,0.21-0.3,0.33
		c-0.08,0.1,0.06,0.2,0.15,0.14c0.2-0.14,0.38-0.32,0.58-0.46c0.01-0.01,0.02-0.02,0.03-0.03c0.05,0.05,0.1,0.09,0.14,0.14
		c-0.16,0.14-0.32,0.32-0.47,0.45c-0.15,0.13-0.29,0.25-0.44,0.38c-0.09,0.08-0.19,0.14-0.24,0.24c-0.04,0.07,0.03,0.17,0.11,0.16
		c0.28-0.05,0.56-0.36,0.77-0.54c0.16-0.13,0.37-0.28,0.53-0.44c0.09,0.09,0.18,0.18,0.27,0.27c0,0,0,0,0,0
		c-0.17,0.13-0.33,0.27-0.49,0.41c-0.18,0.16-0.46,0.34-0.57,0.56c-0.03,0.06,0.04,0.15,0.11,0.14c0.22-0.06,0.43-0.29,0.6-0.43
		c0.18-0.15,0.36-0.3,0.55-0.44c0.01,0,0.01-0.01,0.01-0.01c0.37,0.38,0.73,0.77,1.05,1.19c-0.08,0.05-0.15,0.11-0.23,0.16
		c-0.23,0.15-0.54,0.34-0.66,0.6c-0.04,0.08,0.05,0.18,0.13,0.15c0.27-0.06,0.51-0.29,0.74-0.44c0.08-0.05,0.16-0.09,0.25-0.14
		c0.07,0.1,0.13,0.2,0.2,0.3c-0.36,0.19-0.7,0.42-1.02,0.68c-0.14,0.11,0.03,0.33,0.17,0.22c0.31-0.24,0.66-0.42,1.01-0.62
		c0.09,0.16,0.17,0.33,0.24,0.5C23.37,39.21,23.89,38.95,23.71,38.6z"/>
	<path d="M24.98,40.7c0,0,0-0.01,0-0.01C24.98,40.69,24.98,40.7,24.98,40.7z"/>
	<g>
		<defs>
			<rect id="SVGID_00000150076694856800064520000011958414553201368991_" x="11.24" y="33.7" width="23.77" height="11.9"/>
		</defs>
		<clipPath id="SVGID_00000009583237112157272520000017754709943372742032_">
			<use xlink:href="#SVGID_00000150076694856800064520000011958414553201368991_"  style="overflow:visible;"/>
		</clipPath>
		<g style="clip-path:url(#SVGID_00000009583237112157272520000017754709943372742032_);">
			<path d="M34.12,42.55c-1.83-0.59-3.74-0.93-5.58-1.5c-1.89-0.59-3.76-1.28-5.62-2c-1.76-0.68-3.5-1.39-5.24-2.12
				c-1.8-0.75-3.55-1.61-5.35-2.34c-0.16-0.06-0.33,0.13-0.26,0.26c-0.03,0.01-0.05,0.03-0.07,0.05c-0.13,0.19-0.23,0.39-0.34,0.59
				c-0.15,0.27-0.33,0.55-0.4,0.85c-0.03,0.14,0.15,0.28,0.25,0.15c0.18-0.22,0.29-0.49,0.41-0.75c0.11-0.23,0.26-0.46,0.33-0.71
				c0-0.01,0-0.03,0-0.04c0.07,0.05,0.14,0.09,0.21,0.13c-0.13,0.07-0.2,0.38-0.24,0.49c-0.06,0.15-0.12,0.3-0.19,0.45
				c-0.08,0.2-0.39,0.66-0.27,0.87c0.03,0.04,0.08,0.09,0.14,0.07c0.26-0.08,0.33-0.57,0.41-0.8c0.11-0.3,0.23-0.61,0.3-0.93
				c0-0.01,0-0.03,0-0.04c0.08,0.05,0.16,0.09,0.23,0.14c-0.13,0.26-0.2,0.62-0.28,0.85c-0.13,0.38-0.38,0.87-0.35,1.27
				c0.01,0.13,0.18,0.18,0.25,0.08c0.28-0.34,0.36-0.95,0.47-1.37c0.05-0.19,0.15-0.44,0.19-0.67c0.54,0.3,1.1,0.58,1.66,0.84
				c-0.1,0.21-0.2,0.42-0.3,0.63c-0.15,0.31-0.42,0.65-0.43,1c0,0.1,0.14,0.18,0.22,0.11c0.23-0.18,0.3-0.48,0.41-0.75
				c0.12-0.29,0.23-0.59,0.32-0.89c0.1,0.05,0.21,0.09,0.32,0.14c-0.08,0.2-0.14,0.41-0.22,0.6c-0.16,0.39-0.44,0.78-0.52,1.19
				c-0.03,0.13,0.16,0.24,0.26,0.14c0.28-0.27,0.4-0.73,0.54-1.09c0.08-0.22,0.19-0.48,0.23-0.73c0.33,0.14,0.65,0.29,0.98,0.43
				c-0.1,0.21-0.14,0.46-0.21,0.66c-0.1,0.28-0.32,0.63-0.32,0.93c0,0.13,0.14,0.25,0.26,0.14c0.23-0.2,0.29-0.58,0.39-0.86
				c0.07-0.22,0.18-0.49,0.21-0.74c0.09,0.04,0.19,0.08,0.28,0.12c0.05,0.02,0.11,0.04,0.16,0.07c-0.18,0.12-0.21,0.61-0.24,0.76
				c-0.04,0.22-0.11,0.44-0.15,0.66c-0.04,0.23,0.31,0.28,0.39,0.08c0.11-0.3,0.14-0.65,0.19-0.97c0.01-0.07,0.06-0.29,0.03-0.44
				c0.45,0.2,0.91,0.39,1.36,0.59c-0.1,0.26-0.19,0.53-0.28,0.8c-0.09,0.26-0.21,0.54-0.2,0.82c0.01,0.18,0.21,0.21,0.31,0.08
				c0.15-0.22,0.19-0.5,0.26-0.75c0.07-0.28,0.14-0.55,0.2-0.83c0.09,0.04,0.19,0.08,0.28,0.12c-0.05,0.29-0.13,0.59-0.2,0.88
				c-0.06,0.25-0.28,0.65-0.17,0.9c0.03,0.07,0.13,0.11,0.2,0.07c0.27-0.16,0.3-0.72,0.35-1c0.04-0.2,0.12-0.5,0.09-0.73
				c0.44,0.19,0.89,0.37,1.33,0.55c-0.14,0.32-0.2,0.72-0.29,1.03c-0.05,0.17-0.42,0.88-0.14,0.99c0.31,0.12,0.47-0.87,0.51-1.06
				c0.06-0.24,0.18-0.55,0.22-0.83c0.12,0.05,0.24,0.09,0.35,0.14c-0.22,0.59-0.48,1.17-0.65,1.78c-0.02,0.07,0,0.18,0.08,0.21
				l0.01,0.01c0.01,0,0.02,0.01,0.03,0.01c0.31,0.07,0.51-0.94,0.56-1.1c0.08-0.25,0.2-0.54,0.21-0.81
				c0.19,0.08,0.38,0.15,0.56,0.23c-0.15,0.29-0.23,0.65-0.32,0.95c-0.09,0.29-0.32,0.74-0.17,1.03c0.03,0.06,0.13,0.08,0.18,0.04
				c0.25-0.22,0.28-0.78,0.36-1.09c0.07-0.25,0.18-0.54,0.23-0.82c0.15,0.06,0.3,0.11,0.45,0.17c-0.08,0.28-0.15,0.56-0.22,0.84
				c-0.08,0.32-0.21,0.63-0.24,0.96c-0.01,0.16,0.23,0.23,0.3,0.09c0.14-0.26,0.19-0.56,0.25-0.85c0.08-0.3,0.14-0.61,0.18-0.93
				c0.49,0.18,0.98,0.36,1.47,0.54c-0.04,0.04-0.09,0.11-0.08,0.11c-0.04,0.08-0.08,0.16-0.11,0.23c-0.1,0.19-0.18,0.39-0.27,0.59
				c-0.14,0.3-0.48,0.76-0.43,1.1c0.01,0.1,0.15,0.14,0.23,0.09c0.3-0.16,0.45-0.82,0.56-1.12c0.08-0.2,0.33-0.65,0.31-0.93
				c0.12,0.04,0.24,0.08,0.36,0.13c-0.11,0.27-0.19,0.57-0.28,0.85c-0.11,0.38-0.35,0.85-0.3,1.25c0.01,0.1,0.15,0.15,0.22,0.08
				c0.24-0.26,0.29-0.72,0.38-1.05c0.09-0.34,0.19-0.69,0.25-1.04c0.2,0.07,0.41,0.14,0.61,0.21c-0.01,0.05-0.01,0.1-0.03,0.15
				c-0.05,0.24-0.11,0.49-0.18,0.73c-0.09,0.33-0.3,0.7-0.28,1.04c0.01,0.11,0.15,0.13,0.22,0.08c0.3-0.23,0.37-0.78,0.45-1.13
				c0.04-0.19,0.15-0.5,0.14-0.75c0.1,0.03,0.19,0.06,0.29,0.09c-0.12,0.34-0.19,0.7-0.3,1.04c-0.09,0.3-0.21,0.61-0.2,0.93
				c0,0.15,0.19,0.19,0.26,0.07c0.16-0.26,0.21-0.57,0.29-0.86c0.09-0.35,0.2-0.72,0.23-1.09c0.22,0.07,0.45,0.14,0.67,0.21
				c-0.01,0.04-0.02,0.09-0.03,0.14c-0.04,0.25-0.09,0.5-0.13,0.75c-0.07,0.33-0.31,0.85-0.19,1.19c0.04,0.1,0.16,0.1,0.23,0.04
				c0.25-0.2,0.26-0.75,0.31-1.04c0.05-0.28,0.15-0.67,0.11-0.98c0.11,0.04,0.22,0.07,0.33,0.1c-0.19,0.61-0.18,1.32-0.27,1.96
				c-0.04,0.22,0.33,0.3,0.38,0.08c0.1-0.4,0.12-0.83,0.15-1.24c0.02-0.21,0.07-0.5-0.01-0.72c0.37,0.12,0.75,0.23,1.12,0.35
				c-0.13,0.63-0.22,1.27-0.38,1.9c-0.05,0.22,0.27,0.31,0.34,0.09c0.19-0.59,0.33-1.26,0.35-1.91c0.13,0.04,0.25,0.07,0.37,0.1
				c-0.03,0.26-0.05,0.52-0.1,0.78c-0.08,0.41-0.28,0.78-0.34,1.19c-0.02,0.14,0.15,0.2,0.24,0.1c0.39-0.45,0.51-1.32,0.43-1.99
				c0.35,0.09,0.71,0.18,1.07,0.26c-0.05,0.21-0.05,0.47-0.08,0.63c-0.08,0.48-0.31,1.09-0.23,1.57c0.03,0.15,0.24,0.16,0.3,0.04
				c0.23-0.4,0.21-1,0.27-1.45c0.02-0.16,0.1-0.45,0.1-0.71c0.13,0.03,0.25,0.05,0.38,0.08c-0.07,0.38-0.11,0.75-0.17,1.13
				c-0.07,0.44-0.21,0.88-0.24,1.32c-0.01,0.18,0.25,0.21,0.31,0.07c0.21-0.4,0.25-0.89,0.31-1.33c0.05-0.38,0.09-0.76,0.09-1.14
				c0.16,0.03,0.33,0.05,0.49,0.07c-0.13,0.24-0.08,0.68-0.1,0.91c-0.04,0.5-0.21,1.12-0.1,1.62c0.03,0.12,0.2,0.14,0.25,0.04
				c0.26-0.45,0.19-1.15,0.22-1.66c0.01-0.19,0.09-0.64,0-0.88c0.03,0,0.06,0.01,0.09,0.01C34.27,43.09,34.42,42.65,34.12,42.55z"/>
		</g>
	</g>
</g>
</svg>
