<?xml version="1.0" encoding="utf-8"?>
<!-- Generator: Adobe Illustrator 27.3.1, SVG Export Plug-In . SVG Version: 6.00 Build 0)  -->
<svg version="1.1" id="Layer_1" xmlns="http://www.w3.org/2000/svg" xmlns:xlink="http://www.w3.org/1999/xlink" x="0px" y="0px"
	 viewBox="0 0 50 50" style="enable-background:new 0 0 50 50;" xml:space="preserve">
<style type="text/css">
	.st0{fill:none;}
	.st1{stroke:#000000;stroke-miterlimit:10;}
	.st2{stroke:#000000;stroke-width:0.75;stroke-miterlimit:10;}
	.st3{clip-path:url(#SVGID_00000075868971429473689750000003855391974998944931_);}
	.st4{clip-path:url(#SVGID_00000039837567896892834050000010000687684780537473_);}
	.st5{fill:#FFFFFF;}
	.st6{clip-path:url(#SVGID_00000115496184450734507770000001474734710988703381_);}
	.st7{fill:#231F20;}
	.st8{clip-path:url(#SVGID_00000154418387422827794080000010953230928464497568_);}
	.st9{clip-path:url(#SVGID_00000150793512404894458840000008770053289072242310_);}
	.st10{clip-path:url(#SVGID_00000150062629885733355080000003160616566248754103_);}
	.st11{clip-path:url(#SVGID_00000029749257959774385920000006785505375932294836_);}
	.st12{clip-path:url(#SVGID_00000014607385827489169720000004326456096822646413_);}
	.st13{clip-path:url(#SVGID_00000047030275754540027350000016071169986813138348_);}
	.st14{clip-path:url(#SVGID_00000181064444019211964800000014403183493360965003_);}
	.st15{clip-path:url(#SVGID_00000121280949344206463130000016537986760421426364_);}
	.st16{clip-path:url(#SVGID_00000049206323532894603870000003459934473567098003_);}
	.st17{clip-path:url(#SVGID_00000013186912216725631320000018178764958883952574_);}
	.st18{clip-path:url(#SVGID_00000132807528859260456720000004855895567755583642_);}
	.st19{clip-path:url(#SVGID_00000154391061851443002240000007820338126772532133_);}
	.st20{clip-path:url(#SVGID_00000063598933582741333770000014969614405171010488_);}
	.st21{clip-path:url(#SVGID_00000062175478135910206190000000340043906563527856_);}
	.st22{clip-path:url(#SVGID_00000113315891153927746860000017183533650813278610_);}
	.st23{clip-path:url(#SVGID_00000080887444862134905100000017279319342955245996_);}
	.st24{clip-path:url(#SVGID_00000023270409344923661130000013778606920510442381_);}
	.st25{clip-path:url(#SVGID_00000054969609205072123970000017748554402215165622_);}
	.st26{clip-path:url(#SVGID_00000121258348030406152240000016508859502025660075_);}
	.st27{clip-path:url(#SVGID_00000029039507231339747560000006817551845536490897_);}
	.st28{clip-path:url(#SVGID_00000093178160777181794610000014469782305825370559_);}
	.st29{clip-path:url(#SVGID_00000037671471330308697840000007883692191064351935_);}
	.st30{clip-path:url(#SVGID_00000131359318463203648630000013337001886333622147_);}
	.st31{fill-rule:evenodd;clip-rule:evenodd;}
	.st32{clip-path:url(#SVGID_00000064331297401542841340000007031183957187895462_);}
	.st33{clip-path:url(#SVGID_00000065048110412526165240000005014465807203148469_);}
	.st34{stroke:#000000;stroke-width:0.5;stroke-miterlimit:10;}
	.st35{clip-path:url(#SVGID_00000134212570202661525400000013650267475924128648_);}
	.st36{clip-path:url(#SVGID_00000158738733246423319390000000027552182295573431_);}
	.st37{clip-path:url(#SVGID_00000029762568104626430130000002270260560850438064_);}
	.st38{fill:#1A1A1A;}
	.st39{clip-path:url(#SVGID_00000137103227865193243760000005947611600497081779_);}
	.st40{clip-path:url(#SVGID_00000134953327404708767660000008221695813755522945_);}
	.st41{clip-path:url(#SVGID_00000037683821546042955440000007760468034099837621_);}
	.st42{clip-path:url(#SVGID_00000036218624003328569260000011367618429638623647_);}
	.st43{clip-path:url(#SVGID_00000173127651632870065980000016350230599311234180_);}
	.st44{clip-path:url(#SVGID_00000151506765824295216680000010971340092025968812_);}
	.st45{clip-path:url(#SVGID_00000024720838106124442670000004826482732879669674_);}
	.st46{clip-path:url(#SVGID_00000139278353167391231800000009741939518595218835_);}
	.st47{clip-path:url(#SVGID_00000021837261636714364100000010261124755257196987_);}
	.st48{fill:#F1F1F1;}
	.st49{fill:#E8E8E8;}
	.st50{fill:#FEFEFE;}
	.st51{fill:#CCCCCC;}
	.st52{fill:#B3B3B3;}
	.st53{fill:#E6E6E6;}
	.st54{fill:#EBEBEB;}
	.st55{fill:#EEEEEE;}
	.st56{fill:#F8F8F8;}
	.st57{fill:#FBFBFB;}
	.st58{fill:#383838;}
	.st59{fill:#232323;}
	.st60{fill:#F6F6F6;}
	.st61{fill:#535353;}
	.st62{fill:#0A0A0A;}
	.st63{fill:#F5F5F5;}
	.st64{fill:#818181;}
	.st65{fill:#4A4A4A;}
	.st66{fill:#999999;}
	.st67{fill:url(#SVGID_00000059272478569569098490000004559742743044673443_);}
	.st68{fill:url(#SVGID_00000098926137404240101130000006518395240902739116_);}
	.st69{fill:#0E0E0D;}
	.st70{fill:#333333;}
	.st71{fill:#808080;}
	.st72{fill:url(#SVGID_00000045585981766874513160000011615109750881334455_);}
	.st73{fill:#666666;}
	.st74{fill:url(#SVGID_00000127744956124099839510000006144445219096939672_);}
	.st75{fill:url(#SVGID_00000001622159352176936060000006150000907028606880_);}
	.st76{fill:url(#SVGID_00000182514148209739905590000006488680142214369215_);}
	.st77{fill:url(#SVGID_00000021098886932714165030000002372079039490768022_);}
	.st78{fill:url(#SVGID_00000033333507692999474480000016676897027950907326_);}
	.st79{clip-path:url(#SVGID_00000163780265236277004960000016019447260331188658_);}
	.st80{clip-path:url(#SVGID_00000108988333814259349880000001066641958285166227_);}
	.st81{clip-path:url(#SVGID_00000121244992803143864440000004871824302348195262_);}
	.st82{clip-path:url(#SVGID_00000093890619186126905760000015009401935688461971_);}
	.st83{clip-path:url(#SVGID_00000170253622103247930960000000873616542302072216_);}
	.st84{fill:#241F20;stroke:#000000;stroke-width:0.5;stroke-miterlimit:10;}
	.st85{clip-path:url(#SVGID_00000126321285853078068310000018371601641969816473_);}
	.st86{clip-path:url(#SVGID_00000168110404531845613610000005059105814004632467_);}
	.st87{clip-path:url(#SVGID_00000127016922502796798400000004358316072943676823_);}
	.st88{clip-path:url(#SVGID_00000120517905692799114090000013820820435820313518_);}
	.st89{clip-path:url(#SVGID_00000025428510002633183770000009080998585758327950_);}
	.st90{clip-path:url(#SVGID_00000112614401398259298910000001513930280087461793_);}
	.st91{clip-path:url(#SVGID_00000160906640946440638850000011958818658402862001_);}
	.st92{clip-path:url(#SVGID_00000126315824535691674660000000679943842109377952_);}
	.st93{clip-path:url(#SVGID_00000122721855205464735200000015672809264238624899_);}
	.st94{clip-path:url(#SVGID_00000051373402447252640380000001030508901488392597_);}
	.st95{clip-path:url(#SVGID_00000003077124049257697350000000049735231726044329_);}
	.st96{clip-path:url(#SVGID_00000049200045072790015570000010985437572476486535_);}
	.st97{clip-path:url(#SVGID_00000089560955101816235580000015806996101193298613_);}
	.st98{clip-path:url(#SVGID_00000073692148007400287900000003120287427448025264_);}
	.st99{clip-path:url(#SVGID_00000103979218705525751460000013348642422461049236_);}
	.st100{clip-path:url(#SVGID_00000026136029157054764610000016231268724357089961_);}
	.st101{clip-path:url(#SVGID_00000162335704581417376330000012619930712074870717_);}
	.st102{clip-path:url(#SVGID_00000075864364630491830510000013828634269529120405_);}
	.st103{clip-path:url(#SVGID_00000057146125319691438410000009760746000869615752_);}
	.st104{clip-path:url(#SVGID_00000061461533604159098320000013188842581928556717_);}
	.st105{clip-path:url(#SVGID_00000022523721930610809100000000959216114423677611_);}
	.st106{clip-path:url(#SVGID_00000013908397155144041690000005879467448645458093_);}
	.st107{clip-path:url(#SVGID_00000003788072905563000390000001185323949778519186_);}
	.st108{clip-path:url(#SVGID_00000005978060261718779750000013597393330847309753_);}
	.st109{clip-path:url(#SVGID_00000066490566688213751990000011873753461788704674_);}
	.st110{clip-path:url(#SVGID_00000010996794821156178060000005084032486798189494_);}
	.st111{clip-path:url(#SVGID_00000104690664084656924210000014458708214622216345_);}
	.st112{clip-path:url(#SVGID_00000065068409288969275660000014901695639885536701_);}
	.st113{clip-path:url(#SVGID_00000091712256300307134140000002558314302436246195_);}
	.st114{clip-path:url(#SVGID_00000030481844721205025630000009167502664704848783_);}
	.st115{fill:#FFFFFF;stroke:#000000;stroke-miterlimit:10;}
	.st116{clip-path:url(#SVGID_00000128469148928135487840000011273215284641723325_);}
	.st117{clip-path:url(#SVGID_00000127043038288206760890000012018566379290048896_);}
	.st118{fill:none;stroke:#010101;stroke-miterlimit:10;}
	.st119{fill:#010101;stroke:#000000;stroke-miterlimit:10;}
	.st120{clip-path:url(#SVGID_00000118369753619371938620000015507780784135458479_);}
	.st121{fill:#010101;stroke:#010101;stroke-miterlimit:10;}
	.st122{clip-path:url(#SVGID_00000170274796161129470940000014935765317930668438_);}
	.st123{clip-path:url(#SVGID_00000022535061262092881100000016973039699375983774_);}
	.st124{clip-path:url(#SVGID_00000011015562853926692560000001624266162249157786_);}
	.st125{clip-path:url(#SVGID_00000113313365623531977190000009253587321777666461_);}
	.st126{clip-path:url(#SVGID_00000066512851522846982820000015464004958577581186_);}
	.st127{fill:none;stroke:#000000;stroke-width:3;stroke-miterlimit:10;}
	.st128{clip-path:url(#SVGID_00000137829881090952710760000009891676229850316731_);}
	.st129{clip-path:url(#SVGID_00000180331425135701209600000014443603422539657662_);}
	.st130{clip-path:url(#SVGID_00000162311092930121723110000005741030559135607191_);}
	.st131{clip-path:url(#SVGID_00000160869801333568525060000008097031161424117417_);}
	.st132{fill:#040606;}
	.st133{clip-path:url(#SVGID_00000031924809843026309880000002602377942843781004_);}
	.st134{clip-path:url(#SVGID_00000019679346486958915970000012035909073802969011_);}
	.st135{clip-path:url(#SVGID_00000150104565345237550220000015643289687198798518_);}
	.st136{clip-path:url(#SVGID_00000070081019116607802060000009624651430959634871_);}
	.st137{clip-path:url(#SVGID_00000051351031628915275260000015328459931545516424_);}
	.st138{clip-path:url(#SVGID_00000010288092915596045100000006220650102190053046_);}
	.st139{clip-path:url(#SVGID_00000008142833340336916410000008009192980685715618_);}
	.st140{fill:#FFFFFF;stroke:#000000;stroke-width:1.5;stroke-miterlimit:10;}
	.st141{clip-path:url(#SVGID_00000125580316091695182700000011290053726489583753_);}
	.st142{fill:#BDBCBC;}
	.st143{clip-path:url(#SVGID_00000058574260195683498560000016237445752046164671_);}
	.st144{fill:#2E2A2B;}
	.st145{clip-path:url(#SVGID_00000010304054336864073880000000937487734730504631_);}
	.st146{clip-path:url(#SVGID_00000070796762321349127310000001800054062635203720_);}
	.st147{clip-path:url(#SVGID_00000017516195268794355490000005890094228547257510_);}
	.st148{clip-path:url(#SVGID_00000080207064494278904430000012052574506287289254_);}
	.st149{clip-path:url(#SVGID_00000114039436148512034330000018164309167704957598_);}
	.st150{fill:#272324;}
	.st151{clip-path:url(#SVGID_00000064345614342850059000000008772888038146637734_);}
	.st152{clip-path:url(#SVGID_00000026877033540340917220000001312499376130685326_);}
	.st153{clip-path:url(#SVGID_00000037671741816589955980000006681787453505521794_);}
	.st154{clip-path:url(#SVGID_00000107576821213722226950000014242510965446707339_);}
	.st155{clip-path:url(#SVGID_00000142159162187115509190000003031553086432769982_);}
	.st156{clip-path:url(#SVGID_00000065071349428299982470000015612746028889231279_);}
	.st157{fill:none;stroke:#000000;stroke-width:0.8735;stroke-linecap:round;stroke-linejoin:round;stroke-miterlimit:10;}
	.st158{clip-path:url(#SVGID_00000103255730493187843900000012514571645955206819_);}
	.st159{clip-path:url(#SVGID_00000029029124076458816570000004640491128106944411_);}
	.st160{clip-path:url(#SVGID_00000088119138346537524350000004031178348225727372_);}
	.st161{clip-path:url(#SVGID_00000162323376486092068480000014475370934108109477_);}
	.st162{clip-path:url(#SVGID_00000099635419565525459360000012047301754832429185_);}
	.st163{clip-path:url(#SVGID_00000023263888872415642590000011776231300967983744_);}
	.st164{clip-path:url(#SVGID_00000078029212281755765230000015467417038067757475_);}
	.st165{clip-path:url(#SVGID_00000122717414893458182780000001637496164333145508_);}
	.st166{clip-path:url(#SVGID_00000061470593179101319570000001807078293444572312_);}
	.st167{clip-path:url(#SVGID_00000100379465456495418150000017593055666449371008_);}
	.st168{clip-path:url(#SVGID_00000161623532855450580920000003813746182728154767_);}
	.st169{clip-path:url(#SVGID_00000057111140541629714020000016264638136085895336_);}
	.st170{clip-path:url(#SVGID_00000159469350716911915030000011451349531425218714_);}
	.st171{clip-path:url(#SVGID_00000132800439939336226050000014351315852410064529_);}
	.st172{clip-path:url(#SVGID_00000103974781869943480780000002621982701128621704_);}
	.st173{clip-path:url(#SVGID_00000041266722108122716520000006136097802984503700_);}
	.st174{clip-path:url(#SVGID_00000026121293690669534460000008410885248005324718_);}
	.st175{clip-path:url(#SVGID_00000039850385108607404410000008276314008902873753_);}
	.st176{clip-path:url(#SVGID_00000160910586105262581380000010515206412978581904_);}
	.st177{clip-path:url(#SVGID_00000143610549953348708370000000990984980796129665_);}
	.st178{clip-path:url(#SVGID_00000117666838355850289560000000435842143867701150_);}
	.st179{clip-path:url(#SVGID_00000176738814946735302260000015451724612748083618_);}
	.st180{clip-path:url(#SVGID_00000045576617018980509360000009446811783787964825_);}
	.st181{clip-path:url(#SVGID_00000087379308405220349180000005159488775627303076_);}
	.st182{clip-path:url(#SVGID_00000167365857973936027030000010470322351357302717_);}
	.st183{clip-path:url(#SVGID_00000089575545304873773440000011788903364703032469_);}
	.st184{clip-path:url(#SVGID_00000152254167207757822130000007453416417977629364_);}
	.st185{clip-path:url(#SVGID_00000016758105809274860550000014553945891796779675_);}
	.st186{clip-path:url(#SVGID_00000083085515555247052090000014384681918101555855_);}
	.st187{clip-path:url(#SVGID_00000026156670958415748450000011150666308235967639_);}
	.st188{clip-path:url(#SVGID_00000070115703535614842160000005117810583814446496_);}
	.st189{clip-path:url(#SVGID_00000043427626083261121800000006783097712136354489_);}
	.st190{clip-path:url(#SVGID_00000104688140537334324520000014796095179008451227_);}
	.st191{clip-path:url(#SVGID_00000032632575675983933430000004162330640638271131_);}
	.st192{clip-path:url(#SVGID_00000072253984054034246730000006764372124822443154_);}
	.st193{clip-path:url(#SVGID_00000024716668384143434150000002520939884708017323_);}
	.st194{clip-path:url(#SVGID_00000044174538420177437320000013444086482411040952_);}
	.st195{clip-path:url(#SVGID_00000178175955754915242430000013115494622269526428_);}
	.st196{fill:#E5E5E5;}
	.st197{fill:#1D1D1B;}
	.st198{fill:none;stroke:#000000;stroke-miterlimit:10;}
	.st199{fill:#FEFEFE;stroke:#000000;stroke-miterlimit:10;}
	.st200{clip-path:url(#SVGID_00000052074544847271354170000011747862391555935385_);}
	.st201{clip-path:url(#SVGID_00000176749000461537192530000014627629684681810870_);}
	.st202{clip-path:url(#SVGID_00000093146118660063061960000001332301791905903267_);}
	.st203{fill:#231F1F;}
	.st204{fill:#020000;}
	.st205{clip-path:url(#SVGID_00000096756868601183098120000010523177353895222686_);}
	.st206{clip-path:url(#SVGID_00000118362686162470565460000011195125579764380814_);}
	.st207{clip-path:url(#SVGID_00000160869821035309027840000008349794220307384458_);}
	.st208{clip-path:url(#SVGID_00000046330766049491708910000007985206548275302841_);}
	.st209{fill:#050000;}
	.st210{clip-path:url(#SVGID_00000018226050771628693320000010978647464525052597_);}
	.st211{clip-path:url(#SVGID_00000134241785004770994080000013756893875372232097_);}
	.st212{clip-path:url(#SVGID_00000042720447579906609020000005510362689412976004_);}
	.st213{clip-path:url(#SVGID_00000111188927250053547080000003109723735070700672_);}
	.st214{clip-path:url(#SVGID_00000121279974585803857210000018337631617068139946_);}
	.st215{clip-path:url(#SVGID_00000013878612554356214210000001855438386921406346_);}
	.st216{fill:#12100F;}
	.st217{clip-path:url(#SVGID_00000021084275633700287230000008985552674261026721_);}
	.st218{clip-path:url(#SVGID_00000023241829159705951160000015252343704088241050_);}
	.st219{fill:none;stroke:#000000;stroke-width:0.5;stroke-miterlimit:10;}
	.st220{clip-path:url(#SVGID_00000062876248025654727450000015064623308421386653_);}
	.st221{clip-path:url(#SVGID_00000007402913521983101220000004185744850085346190_);}
	.st222{clip-path:url(#SVGID_00000182488651864335564000000012791700895324137346_);}
	.st223{clip-path:url(#SVGID_00000175318352894243490430000013047948073061749678_);}
	.st224{fill:none;stroke:#000000;stroke-width:0.25;stroke-miterlimit:10;}
	.st225{clip-path:url(#SVGID_00000182517129374805580240000005514497783824874880_);}
	.st226{clip-path:url(#SVGID_00000077300101050769607310000012076086249155678860_);}
	.st227{clip-path:url(#SVGID_00000070094178008698043860000005666083404447355272_);}
</style>
<g>
	<rect x="8.99" y="20.18" class="st0" width="32.91" height="17.8"/>
	<g>
		<path d="M40.3,31.21c-2.4,0.51-4.78,1.12-7.2,1.56c-3.56,0.64-7.16,0.89-10.78,0.82c-3.85-0.07-7.65-0.55-11.36-1.63
			c-0.36-0.11-0.45-0.26-0.43-0.61c0.04-1.41,0.02-2.83,0.52-4.17c0.26-0.7,0.34-1.35,0.1-2.06c-0.12-0.36-0.12-0.77-0.1-1.15
			c0.03-0.9,0.86-1.38,1.6-0.85c0.54,0.39,1.02,0.92,1.39,1.48c0.48,0.72,0.83,1.53,1.2,2.32c0.39,0.85,1.15,1.17,1.98,0.77
			c1.39-0.67,2.44-1.65,2.93-3.16c0.35-1.07,1.17-1.75,2.17-2.22c0.09-0.04,0.26-0.03,0.33,0.02c0.97,0.78,1.94,1.58,2.92,2.39
			l-1.4,1.68c-0.22,0.27-0.18,0.68,0.09,0.91c0.27,0.22,0.69,0.18,0.91-0.09l0.02-0.02c0.05-0.05,0.11-0.1,0.16-0.16
			c0.12-0.15,0.23-0.3,0.35-0.45l0.94-1.13c0.3,0.21,0.59,0.4,0.91,0.62l-1.22,1.47c-0.22,0.27-0.18,0.66,0.09,0.88l0.03,0.02
			c0.22,0.18,0.54,0.19,0.77,0.03c0.08-0.05,0.16-0.13,0.24-0.22c0.12-0.16,0.24-0.31,0.36-0.47l0.83-1.01
			c0.32,0.18,0.62,0.36,0.96,0.55l-1.17,1.41c-0.2,0.24-0.19,0.6,0.02,0.83c0.01,0.01,0.02,0.02,0.02,0.03c0,0,0,0,0.01,0.01
			c0.02,0.02,0.05,0.05,0.08,0.07c0.31,0.24,0.69,0.18,0.96-0.18c0.15-0.19,0.3-0.38,0.45-0.58l0.79-0.96
			c0.07-0.02,0.14,0,0.24,0.05c1.5,0.72,3.12,0.93,4.76,1.02c1.16,0.06,2.32,0.11,3.47,0.26c0.92,0.11,1.34,0.59,1.46,1.37
			C40.71,30.98,40.64,31.14,40.3,31.21z M39.31,33.97c-0.91,0.72-1.97,1.17-3.08,1.49c-3.57,1.02-7.2,1.46-10.91,1.12
			c-0.74-0.06-1.47-0.21-2.2-0.37c-0.58-0.13-1.13-0.14-1.66,0.11c-0.75,0.35-1.55,0.45-2.37,0.43c-2.27-0.07-4.54-0.13-6.81-0.24
			c-0.59-0.03-1.17-0.2-1.74-0.36c-0.16-0.04-0.35-0.25-0.37-0.4c-0.16-0.93-0.06-1.84,0.13-2.77c10.13,2.86,20.14,1.94,30.18-0.6
			C40.26,33.07,39.83,33.56,39.31,33.97z M41.86,31.02c-0.04-1.64-0.82-2.56-2.45-2.87c-0.44-0.08-0.88-0.13-1.33-0.16
			c-1.27-0.09-2.54-0.13-3.8-0.24c-0.98-0.08-1.91-0.33-2.73-0.8c0,0,0-0.01,0-0.01c0.1-0.26,0.03-0.56-0.19-0.74
			c-0.27-0.22-0.69-0.18-0.91,0.09l-0.13,0.15c-0.32-0.19-0.63-0.37-0.96-0.56l0.1-0.12c0.22-0.27,0.18-0.66-0.09-0.88l-0.02-0.02
			c-0.27-0.22-0.67-0.18-0.89,0.08l-0.2,0.24c-0.31-0.22-0.61-0.42-0.91-0.62l0.09-0.11c0.23-0.27,0.19-0.68-0.09-0.91
			s-0.69-0.18-0.91,0.09l-0.1,0.12c-0.12,0-0.21-0.07-0.31-0.16c-0.9-0.73-1.81-1.46-2.7-2.19c-0.4-0.33-0.84-0.43-1.32-0.23
			c-1.4,0.6-2.49,1.53-2.98,3c-0.38,1.12-1.14,1.86-2.16,2.39c-0.42,0.22-0.44,0.19-0.65-0.24c-0.44-0.88-0.87-1.76-1.38-2.59
			c-0.45-0.74-1.04-1.37-1.86-1.75c-1.3-0.6-2.72,0.08-3.04,1.45c-0.19,0.79-0.06,1.57,0.14,2.35c0.05,0.17,0.08,0.39,0.01,0.54
			c-0.52,1.27-0.63,2.6-0.71,3.94c-0.06,0.92-0.21,1.83-0.28,2.75c-0.06,0.93-0.1,1.87-0.12,2.8c-0.01,0.69,0.37,1.16,1.02,1.33
			c0.88,0.24,1.78,0.51,2.69,0.56c2.19,0.12,4.38,0.13,6.56,0.18c0.86,0.02,1.7-0.09,2.49-0.46c0.38-0.18,0.77-0.15,1.18-0.08
			c1.18,0.18,2.37,0.38,3.57,0.46c2.63,0.16,5.24-0.15,7.82-0.67c1.68-0.34,3.31-0.78,4.81-1.65
			C40.87,34.49,41.91,33.08,41.86,31.02"/>
	</g>
	<rect x="24.49" y="15.3" class="st0" width="15.6" height="11.7"/>
	<g>
		<path d="M26.1,19.9c0.02-0.04,0.02-0.05,0.03-0.05c0.83-0.54,1.66-1.08,2.49-1.62c0.01,0,0.02-0.01,0.03-0.01
			c0.15,0.12,0.31,0.24,0.47,0.35c-0.04,0.03-0.07,0.06-0.1,0.08c-0.51,0.41-1.02,0.82-1.54,1.23c-0.11,0.09-0.12,0.21-0.03,0.33
			c0.11,0.15,0.27,0.18,0.42,0.05c0.55-0.45,1.09-0.91,1.64-1.36c0.01-0.01,0.02-0.02,0.04-0.02c0.19,0.13,0.37,0.26,0.57,0.38
			c-0.04,0.04-0.08,0.08-0.12,0.12c-0.45,0.43-0.9,0.87-1.34,1.3c-0.11,0.11-0.11,0.26,0,0.38c0.11,0.12,0.25,0.13,0.37,0.01
			c0.06-0.06,0.12-0.11,0.18-0.17c0.44-0.44,0.88-0.88,1.33-1.31c0.01-0.01,0.02-0.02,0.03-0.03c0.19,0.12,0.39,0.24,0.59,0.37
			c-0.2,0.23-0.39,0.46-0.58,0.68c-0.24,0.29-0.5,0.57-0.74,0.86c-0.1,0.12-0.07,0.3,0.06,0.4c0.13,0.1,0.23,0.08,0.35-0.06
			c0.07-0.08,0.14-0.16,0.2-0.24c0.38-0.46,0.77-0.91,1.16-1.38c0.18,0.11,0.37,0.21,0.55,0.32c-0.02,0.03-0.03,0.06-0.05,0.08
			c-0.36,0.53-0.72,1.07-1.08,1.6c-0.12,0.18-0.06,0.34,0.14,0.41c0.15,0.05,0.25,0,0.34-0.13c0.3-0.46,0.61-0.93,0.92-1.39
			c0.08-0.12,0.15-0.23,0.21-0.31c0.18,0.1,0.36,0.19,0.54,0.29c0,0.01-0.01,0.02-0.01,0.02c-0.29,0.61-0.58,1.23-0.87,1.85
			c-0.08,0.16-0.02,0.3,0.14,0.38c0.16,0.07,0.27,0.03,0.35-0.15c0.12-0.27,0.24-0.54,0.37-0.81c0.16-0.35,0.32-0.69,0.48-1.04
			c0.19,0.1,0.38,0.2,0.57,0.29c0,0.01,0,0.02,0,0.03c-0.09,0.27-0.18,0.53-0.27,0.8c-0.14,0.41-0.28,0.82-0.41,1.23
			c-0.05,0.15,0.02,0.25,0.17,0.3c0.16,0.05,0.31-0.03,0.36-0.19c0.11-0.33,0.21-0.67,0.32-1c0.1-0.3,0.2-0.61,0.3-0.93
			c0.22,0.11,0.43,0.21,0.63,0.31c0,0.03-0.01,0.06-0.02,0.08c-0.16,0.67-0.32,1.33-0.48,2c-0.05,0.19,0.03,0.31,0.2,0.34
			c0.17,0.03,0.29-0.05,0.33-0.23c0.08-0.35,0.15-0.69,0.23-1.04c0.07-0.31,0.14-0.62,0.22-0.93c0.22,0.11,0.43,0.21,0.62,0.29
			c0,0.03-0.01,0.05-0.01,0.08c-0.1,0.69-0.2,1.39-0.29,2.08c-0.02,0.18,0.08,0.29,0.26,0.31c0.17,0.02,0.26-0.06,0.28-0.24
			c0.03-0.28,0.06-0.56,0.1-0.84c0.05-0.38,0.1-0.77,0.16-1.17c0.27,0.12,0.46,0.2,0.56,0.25c0,0,0,0.01,0,0.02
			c-0.02,0.58-0.03,1.17-0.05,1.75c-0.01,0.39-0.02,0.78-0.02,1.23C33.3,24.59,29.55,22.51,26.1,19.9z M35.22,21.51
			c-1.55-0.75-3.06-1.59-4.51-2.54c-0.73-0.48-1.44-0.99-2.16-1.49c-0.04-0.03-0.08-0.07-0.13-0.13c0.03-0.06,0.05-0.12,0.09-0.17
			c0.3-0.39,0.6-0.78,0.9-1.17c0.16-0.21,0.17-0.2,0.38-0.06c1.07,0.71,2.11,1.45,3.2,2.12c1.84,1.13,3.79,2.06,5.8,2.86
			c0.22,0.08,0.23,0.11,0.15,0.32c-0.18,0.47-0.37,0.93-0.54,1.41c-0.05,0.14-0.14,0.17-0.27,0.11
			C37.17,22.37,36.18,21.97,35.22,21.51z M25.53,20.08c1.31,1.01,2.68,1.94,4.09,2.8c1.94,1.18,3.97,2.22,6.06,3.1
			c0.6,0.25,1.21,0.48,1.82,0.72c0.3,0.12,0.48-0.02,0.48-0.34c0-0.93,0-1.85,0-2.78c0-0.11,0.01-0.21,0.01-0.3
			c0.15,0,0.3,0.02,0.43-0.01c0.21-0.04,0.34-0.19,0.42-0.38c0.19-0.5,0.38-0.99,0.57-1.48c0.17-0.43,0.03-0.74-0.41-0.91
			c-1.98-0.78-3.9-1.7-5.71-2.82c-1.1-0.68-2.17-1.42-3.25-2.14c-0.37-0.25-0.7-0.22-0.98,0.13c-0.32,0.41-0.64,0.83-0.95,1.25
			c-0.24,0.31-0.22,0.59,0.06,0.88c0.01,0.02,0.03,0.03,0.05,0.06c-0.32,0.2-0.63,0.41-0.94,0.6c-0.57,0.35-1.14,0.69-1.71,1.04
			C25.29,19.67,25.27,19.89,25.53,20.08"/>
	</g>
</g>
</svg>
