<?xml version="1.0" encoding="utf-8"?>
<!-- Generator: Adobe Illustrator 27.3.1, SVG Export Plug-In . SVG Version: 6.00 Build 0)  -->
<svg version="1.1" id="Layer_1" xmlns="http://www.w3.org/2000/svg" xmlns:xlink="http://www.w3.org/1999/xlink" x="0px" y="0px"
	 viewBox="0 0 50 50" style="enable-background:new 0 0 50 50;" xml:space="preserve">
<style type="text/css">
	.st0{fill:none;}
	.st1{stroke:#000000;stroke-miterlimit:10;}
	.st2{stroke:#000000;stroke-width:0.75;stroke-miterlimit:10;}
	.st3{clip-path:url(#SVGID_00000006671406724810680570000009375328472568195224_);}
	.st4{clip-path:url(#SVGID_00000155116505413287106750000006426765365529852297_);}
	.st5{fill:#FFFFFF;}
	.st6{clip-path:url(#SVGID_00000023274986647941290790000000448813078826894239_);}
	.st7{fill:#231F20;}
	.st8{clip-path:url(#SVGID_00000034774338953115832180000011378070508151132605_);}
	.st9{clip-path:url(#SVGID_00000049944072291277516810000004904389322675815583_);}
	.st10{clip-path:url(#SVGID_00000147940557309510834890000000647467547234955184_);}
	.st11{clip-path:url(#SVGID_00000183949457970534767170000009706282272306889862_);}
	.st12{clip-path:url(#SVGID_00000161610704586067264170000008269690086635146918_);}
	.st13{clip-path:url(#SVGID_00000102530867873139653530000003003831149691616420_);}
	.st14{clip-path:url(#SVGID_00000019642076721350167730000001606429510897264056_);}
	.st15{clip-path:url(#SVGID_00000133501181088288109270000004815796852824630714_);}
	.st16{clip-path:url(#SVGID_00000071521306686908883760000009750942041072238465_);}
	.st17{clip-path:url(#SVGID_00000075156639793743689690000008242078590107499667_);}
	.st18{clip-path:url(#SVGID_00000045619777079311811310000007773726374066054052_);}
	.st19{clip-path:url(#SVGID_00000177479899075904610510000007778034952233104279_);}
	.st20{clip-path:url(#SVGID_00000122709492318457113910000007974165181458784431_);}
	.st21{clip-path:url(#SVGID_00000112592300445366520970000001116691630357115061_);}
	.st22{clip-path:url(#SVGID_00000132085416763275015750000017533230545865792389_);}
	.st23{clip-path:url(#SVGID_00000001642824573893813810000016676814452164916408_);}
	.st24{clip-path:url(#SVGID_00000106826532265619853270000018223965457188274076_);}
	.st25{clip-path:url(#SVGID_00000135664851004496996140000013732970459717478826_);}
	.st26{clip-path:url(#SVGID_00000059310634063777248640000001100632114303385506_);}
	.st27{clip-path:url(#SVGID_00000106147808847655137230000010402708833671650963_);}
	.st28{clip-path:url(#SVGID_00000097500806837640721450000011746163553600171400_);}
	.st29{clip-path:url(#SVGID_00000165954519863074199410000004277239965038951841_);}
	.st30{clip-path:url(#SVGID_00000055705419465476386030000012579795530348225929_);}
	.st31{fill-rule:evenodd;clip-rule:evenodd;}
	.st32{clip-path:url(#SVGID_00000099635513600546324370000013381229524939565468_);}
	.st33{clip-path:url(#SVGID_00000059311335061737177610000013135857118520361610_);}
	.st34{stroke:#000000;stroke-width:0.5;stroke-miterlimit:10;}
	.st35{clip-path:url(#SVGID_00000023980897249427610930000008876210026600242339_);}
	.st36{clip-path:url(#SVGID_00000136405800691822608730000007038559562937837228_);}
	.st37{clip-path:url(#SVGID_00000031187070572786236750000010419747969571732130_);}
	.st38{fill:#1A1A1A;}
	.st39{clip-path:url(#SVGID_00000072266737121164185300000000783045897960385186_);}
	.st40{clip-path:url(#SVGID_00000050624852063618087610000003733348620123672231_);}
	.st41{clip-path:url(#SVGID_00000039112400405837673980000013722223266467153849_);}
	.st42{clip-path:url(#SVGID_00000142175009868660857350000011020734714597293209_);}
	.st43{clip-path:url(#SVGID_00000088096612760111446090000002065450362970176920_);}
	.st44{clip-path:url(#SVGID_00000065773681170501788350000005225014963509663145_);}
	.st45{clip-path:url(#SVGID_00000121990869137064151270000013024384475398569636_);}
	.st46{clip-path:url(#SVGID_00000169535256268954399290000002779339566389123739_);}
	.st47{clip-path:url(#SVGID_00000004533201491138007560000003750255896658873742_);}
	.st48{fill:#F1F1F1;}
	.st49{fill:#E8E8E8;}
	.st50{fill:#FEFEFE;}
	.st51{fill:#CCCCCC;}
	.st52{fill:#B3B3B3;}
	.st53{fill:#E6E6E6;}
	.st54{fill:#EBEBEB;}
	.st55{fill:#EEEEEE;}
	.st56{fill:#F8F8F8;}
	.st57{fill:#FBFBFB;}
	.st58{fill:#383838;}
	.st59{fill:#232323;}
	.st60{fill:#F6F6F6;}
	.st61{fill:#535353;}
	.st62{fill:#0A0A0A;}
	.st63{fill:#F5F5F5;}
	.st64{fill:#818181;}
	.st65{fill:#4A4A4A;}
	.st66{fill:#999999;}
	.st67{fill:url(#SVGID_00000011710498109965778960000006667627449793992090_);}
	.st68{fill:url(#SVGID_00000161618209520554199120000002360533286689151916_);}
	.st69{fill:#0E0E0D;}
	.st70{fill:#333333;}
	.st71{fill:#808080;}
	.st72{fill:url(#SVGID_00000086690807193060538600000010270303227840390800_);}
	.st73{fill:#666666;}
	.st74{fill:url(#SVGID_00000080885612377187120750000001971578098962876319_);}
	.st75{fill:url(#SVGID_00000074430320166134223740000006496315438200731038_);}
	.st76{fill:url(#SVGID_00000132787654778106355820000013072161337503597237_);}
	.st77{fill:url(#SVGID_00000014620631890556710470000006232023037576023966_);}
	.st78{fill:url(#SVGID_00000176008839784807140420000006100400008866381480_);}
	.st79{clip-path:url(#SVGID_00000030487051480502440730000013262845938932788650_);}
	.st80{clip-path:url(#SVGID_00000127741950396676768430000006655229497795796123_);}
	.st81{clip-path:url(#SVGID_00000176038565512690236760000017041378492616752318_);}
	.st82{clip-path:url(#SVGID_00000062151788827572835730000006934384941093367186_);}
	.st83{clip-path:url(#SVGID_00000119077848519731157840000014495920994534448269_);}
	.st84{fill:#241F20;stroke:#000000;stroke-width:0.5;stroke-miterlimit:10;}
	.st85{clip-path:url(#SVGID_00000084517125382081493270000008921826118196038315_);}
	.st86{clip-path:url(#SVGID_00000050643039542316119580000007793305723901874563_);}
	.st87{clip-path:url(#SVGID_00000156586053192428440090000006531155296007397517_);}
	.st88{clip-path:url(#SVGID_00000138540321230705303560000009614258685185972409_);}
	.st89{clip-path:url(#SVGID_00000083790970571631687420000004464109338182108331_);}
	.st90{clip-path:url(#SVGID_00000072275278936901212630000011053139746963805336_);}
	.st91{clip-path:url(#SVGID_00000098925841270578192670000005368765282000775811_);}
	.st92{clip-path:url(#SVGID_00000155104341430879352140000010909279438514850951_);}
	.st93{clip-path:url(#SVGID_00000035507014174479988280000016163017864615135933_);}
	.st94{clip-path:url(#SVGID_00000173848998072018236030000009006952280422814372_);}
	.st95{clip-path:url(#SVGID_00000088846185803491267480000013992532649131122563_);}
	.st96{clip-path:url(#SVGID_00000078753143432565884820000012262895752515185280_);}
	.st97{clip-path:url(#SVGID_00000181060020870189273740000003262692570377224374_);}
	.st98{clip-path:url(#SVGID_00000147186035458360118350000006817047866471914140_);}
	.st99{clip-path:url(#SVGID_00000170962028805420678650000004789683591155700923_);}
	.st100{clip-path:url(#SVGID_00000159448266654968302770000013753397868679336599_);}
	.st101{clip-path:url(#SVGID_00000172407730166531826870000003657722940271386241_);}
	.st102{clip-path:url(#SVGID_00000129904119070342507150000011951765386321815465_);}
	.st103{clip-path:url(#SVGID_00000038415125483207110130000005329420754275408790_);}
	.st104{clip-path:url(#SVGID_00000171701618608127978770000003884526189359966130_);}
	.st105{clip-path:url(#SVGID_00000037691799275523429150000006393424851641639092_);}
	.st106{clip-path:url(#SVGID_00000155860746125722165980000017332837258244830624_);}
	.st107{clip-path:url(#SVGID_00000163759447886511454840000009674918103514763423_);}
	.st108{clip-path:url(#SVGID_00000134232019833280205160000017686291607060061832_);}
	.st109{clip-path:url(#SVGID_00000156573496027021485730000006760428602737021330_);}
	.st110{clip-path:url(#SVGID_00000090257625905173345160000017678344228959936648_);}
	.st111{clip-path:url(#SVGID_00000057138349546528027660000001610076964081444250_);}
	.st112{clip-path:url(#SVGID_00000132790664304407865560000014733465658841685392_);}
	.st113{clip-path:url(#SVGID_00000123429090646488890740000012306540267828272313_);}
	.st114{clip-path:url(#SVGID_00000109728299581155068010000005259929249036933298_);}
	.st115{fill:#FFFFFF;stroke:#000000;stroke-miterlimit:10;}
	.st116{clip-path:url(#SVGID_00000020381817322328001050000006888356942310523313_);}
	.st117{clip-path:url(#SVGID_00000001630342035052996400000013753658146595968413_);}
	.st118{fill:none;stroke:#010101;stroke-miterlimit:10;}
	.st119{fill:#010101;stroke:#000000;stroke-miterlimit:10;}
	.st120{clip-path:url(#SVGID_00000109745613739447785370000017157884800826857364_);}
	.st121{fill:#010101;stroke:#010101;stroke-miterlimit:10;}
	.st122{clip-path:url(#SVGID_00000126324626014119777420000004675945218420234896_);}
	.st123{clip-path:url(#SVGID_00000120538675595956707840000017938776009080916352_);}
	.st124{clip-path:url(#SVGID_00000038377095191778739990000008020593648439159486_);}
	.st125{clip-path:url(#SVGID_00000061439495446555964540000017936830262825062286_);}
	.st126{clip-path:url(#SVGID_00000158720035285056738960000000704085807263099305_);}
	.st127{fill:none;stroke:#000000;stroke-width:3;stroke-miterlimit:10;}
	.st128{clip-path:url(#SVGID_00000079466004381344807100000006772286029337033110_);}
	.st129{clip-path:url(#SVGID_00000162347958522329299730000001708577891997366717_);}
	.st130{clip-path:url(#SVGID_00000075860368125883738250000000124362068261975202_);}
	.st131{clip-path:url(#SVGID_00000018230379174103325290000008283204809274862995_);}
	.st132{fill:#040606;}
	.st133{clip-path:url(#SVGID_00000165939482581575856500000005849463238299202214_);}
	.st134{clip-path:url(#SVGID_00000166663154310637094710000015517503745961166477_);}
	.st135{clip-path:url(#SVGID_00000090274631758328668410000014415635184454604946_);}
	.st136{clip-path:url(#SVGID_00000084492269821263399870000000142401599157696419_);}
	.st137{clip-path:url(#SVGID_00000127013816409291237790000016981157720980725170_);}
	.st138{clip-path:url(#SVGID_00000129919446873809896790000005465160326977877432_);}
	.st139{clip-path:url(#SVGID_00000045595251999436892090000009194122919717692821_);}
	.st140{fill:#FFFFFF;stroke:#000000;stroke-width:1.5;stroke-miterlimit:10;}
	.st141{clip-path:url(#SVGID_00000076600062945304425840000015292318657425142419_);}
	.st142{fill:#BDBCBC;}
	.st143{clip-path:url(#SVGID_00000114058884883491283260000008950471669213095041_);}
	.st144{fill:#2E2A2B;}
	.st145{clip-path:url(#SVGID_00000067945858691778794670000004452927725102175923_);}
	.st146{clip-path:url(#SVGID_00000143615898980176781460000001612050681130787468_);}
	.st147{clip-path:url(#SVGID_00000179623554639875062240000009188424468317101470_);}
	.st148{clip-path:url(#SVGID_00000060719685147525646530000002719231938890201018_);}
	.st149{clip-path:url(#SVGID_00000066514906613362742000000001227597873780790170_);}
	.st150{fill:#272324;}
	.st151{clip-path:url(#SVGID_00000129190055390534036570000004709263202904964790_);}
	.st152{clip-path:url(#SVGID_00000104707084225610388100000010416871058736066746_);}
	.st153{clip-path:url(#SVGID_00000107565711114027948430000010277944738354710686_);}
	.st154{clip-path:url(#SVGID_00000009580528508517843980000002947603768824592830_);}
	.st155{clip-path:url(#SVGID_00000160172160330403549690000012847992240052089239_);}
	.st156{clip-path:url(#SVGID_00000178179522209353784690000012462121758320554426_);}
	.st157{fill:none;stroke:#000000;stroke-width:0.8735;stroke-linecap:round;stroke-linejoin:round;stroke-miterlimit:10;}
	.st158{clip-path:url(#SVGID_00000176032666318831585740000015844987248430848923_);}
	.st159{clip-path:url(#SVGID_00000013169134595329526340000005172032298094086820_);}
	.st160{clip-path:url(#SVGID_00000118376370837203811700000011547211532926885053_);}
	.st161{clip-path:url(#SVGID_00000009560185564295707490000005715185354798454445_);}
	.st162{clip-path:url(#SVGID_00000044885030424937368260000004721208393023240845_);}
	.st163{clip-path:url(#SVGID_00000146491806783529663790000012494093625870286756_);}
	.st164{clip-path:url(#SVGID_00000089533558945341945190000003643259706688190336_);}
	.st165{clip-path:url(#SVGID_00000029013958429345506920000014378265987888442516_);}
	.st166{clip-path:url(#SVGID_00000098912461736563998000000014760297343532918928_);}
	.st167{clip-path:url(#SVGID_00000144335089979738282970000011833804484301349289_);}
	.st168{clip-path:url(#SVGID_00000133527043509115099350000014193900560146322820_);}
	.st169{clip-path:url(#SVGID_00000116214766050342355830000003963546692843251862_);}
	.st170{clip-path:url(#SVGID_00000176024894857253906280000007796653155173832614_);}
	.st171{clip-path:url(#SVGID_00000117651309516964473320000002230113741582404785_);}
	.st172{clip-path:url(#SVGID_00000111899201458792311720000007373271222717620913_);}
	.st173{clip-path:url(#SVGID_00000137113676445087336700000009832769662339359380_);}
	.st174{clip-path:url(#SVGID_00000153681073347657472360000004748417314816534968_);}
	.st175{clip-path:url(#SVGID_00000049906112750930300570000017400196709303603626_);}
	.st176{clip-path:url(#SVGID_00000085228985703281137390000003463064184244328860_);}
	.st177{clip-path:url(#SVGID_00000069385396855237968730000007341642797964204416_);}
	.st178{clip-path:url(#SVGID_00000028310680651129134230000003274116035367676833_);}
	.st179{clip-path:url(#SVGID_00000142895707858200357170000008162226101196350862_);}
	.st180{clip-path:url(#SVGID_00000147925003369411326160000002263577805127256460_);}
	.st181{clip-path:url(#SVGID_00000168795200480911066870000010158911823052899486_);}
	.st182{clip-path:url(#SVGID_00000065758322278086006960000005036082764933932962_);}
	.st183{clip-path:url(#SVGID_00000023983775762136007600000002912489404425957028_);}
	.st184{clip-path:url(#SVGID_00000036948324106604857500000008381948401774955427_);}
	.st185{clip-path:url(#SVGID_00000005958392066690603920000010748003847707563711_);}
	.st186{clip-path:url(#SVGID_00000183223026171675400720000007454117665803375525_);}
	.st187{clip-path:url(#SVGID_00000183216593663768070070000011254593910775370368_);}
	.st188{clip-path:url(#SVGID_00000073706426724430943820000004421899584479172235_);}
	.st189{clip-path:url(#SVGID_00000058573279659763929450000012558331678985872825_);}
	.st190{clip-path:url(#SVGID_00000010269525650897284000000014931416991568428973_);}
	.st191{clip-path:url(#SVGID_00000040567387561708491920000017768218470264308101_);}
	.st192{clip-path:url(#SVGID_00000117667384373874004910000012577527973407884436_);}
	.st193{clip-path:url(#SVGID_00000092443309955496218890000009904736719436404119_);}
	.st194{clip-path:url(#SVGID_00000111166586622436606390000009282609125452462226_);}
	.st195{clip-path:url(#SVGID_00000096045498257870168870000011111171696172833966_);}
	.st196{fill:#E5E5E5;}
	.st197{fill:#1D1D1B;}
	.st198{fill:none;stroke:#000000;stroke-miterlimit:10;}
	.st199{fill:#FEFEFE;stroke:#000000;stroke-miterlimit:10;}
	.st200{clip-path:url(#SVGID_00000039831183383069607350000017910113303680275391_);}
	.st201{clip-path:url(#SVGID_00000123436819295068012270000005004000908255979405_);}
	.st202{clip-path:url(#SVGID_00000060743399573444168130000002597706482621785269_);}
	.st203{fill:#231F1F;}
	.st204{fill:#020000;}
	.st205{clip-path:url(#SVGID_00000114033292404616969090000007720790014276839089_);}
	.st206{clip-path:url(#SVGID_00000172410076149503794480000013942226730772559775_);}
	.st207{clip-path:url(#SVGID_00000175301266274331060550000013143643026947974313_);}
	.st208{clip-path:url(#SVGID_00000103255702943895892780000011418613486514817442_);}
	.st209{fill:#050000;}
	.st210{clip-path:url(#SVGID_00000172404955328845372000000003278691206082284223_);}
	.st211{clip-path:url(#SVGID_00000087393997580941692920000005460673486938960039_);}
	.st212{clip-path:url(#SVGID_00000062194334153490648040000015710473378628280509_);}
	.st213{clip-path:url(#SVGID_00000026860299040040082760000009218358677900206251_);}
	.st214{clip-path:url(#SVGID_00000107549816839394228680000005188943679329283233_);}
	.st215{clip-path:url(#SVGID_00000157279893869906089510000008847187458884500925_);}
	.st216{fill:#12100F;}
	.st217{clip-path:url(#SVGID_00000086655651455983605910000012231191083802652036_);}
	.st218{clip-path:url(#SVGID_00000183242231537677986870000010585898347371709883_);}
	.st219{fill:none;stroke:#000000;stroke-width:0.5;stroke-miterlimit:10;}
	.st220{clip-path:url(#SVGID_00000101793724871394762240000007930209052778853564_);}
	.st221{clip-path:url(#SVGID_00000094589320931618326180000005059937218055943063_);}
	.st222{clip-path:url(#SVGID_00000075145845392170552860000011612304079897620132_);}
	.st223{clip-path:url(#SVGID_00000164475939693838585580000001686514866697795211_);}
	.st224{fill:none;stroke:#000000;stroke-width:0.25;stroke-miterlimit:10;}
	.st225{clip-path:url(#SVGID_00000135669647201986402460000004202138811170267056_);}
	.st226{clip-path:url(#SVGID_00000008137339172095476140000011338736822142972820_);}
	.st227{clip-path:url(#SVGID_00000064318582448583554190000008172159190342991253_);}
</style>
<g>
	<defs>
		<rect id="SVGID_00000183932601023258905170000009616359910662440580_" x="5.74" y="11.29" width="30.79" height="29.76"/>
	</defs>
	<clipPath id="SVGID_00000093889785989799540800000014641168360547866282_">
		<use xlink:href="#SVGID_00000183932601023258905170000009616359910662440580_"  style="overflow:visible;"/>
	</clipPath>
	<g style="clip-path:url(#SVGID_00000093889785989799540800000014641168360547866282_);">
		<path d="M36.49,39.07c0-0.01,0.01-0.01,0.01-0.02c0.01-0.01,0.01-0.01,0.01-0.02s0.01-0.02,0.01-0.02s0-0.02,0.01-0.03
			c0-0.01,0-0.02,0-0.02c0-0.01,0-0.03,0-0.04c0,0,0-0.01,0-0.01c0,0,0,0,0,0c0,0,0,0,0,0c-0.08-0.67-0.17-1.38-0.29-2.23
			c0,0,0,0,0,0c-0.48-3.62-1.03-7.26-1.64-10.83c-0.3-1.79-0.63-3.62-0.98-5.42c0,0,0,0,0,0c-0.42-2.24-0.88-4.51-1.36-6.75
			c-0.16-0.73-0.32-1.46-0.47-2.17c0-0.01,0-0.01-0.01-0.01c0-0.01,0-0.02-0.01-0.03c0-0.01-0.01-0.01-0.01-0.02
			c-0.01-0.01-0.01-0.01-0.01-0.02c0-0.01-0.01-0.01-0.01-0.02c-0.01-0.01-0.01-0.01-0.02-0.02c-0.01-0.01-0.01-0.01-0.02-0.02
			c-0.01-0.01-0.01-0.01-0.02-0.01c-0.01-0.01-0.01-0.01-0.02-0.02c-0.01,0-0.01-0.01-0.02-0.01c-0.01,0-0.02-0.01-0.02-0.01
			c-0.01,0-0.01-0.01-0.02-0.01c-0.01,0-0.02,0-0.03,0c-0.01,0-0.01,0-0.02,0c-0.01,0-0.02,0-0.03,0c0,0-0.01,0-0.01,0
			c-3.09,0.33-6.23,0.51-9.35,0.54c-0.39,0-0.71,0.01-1.02,0.01c0,0-0.01,0-0.01,0c-3.45,0-6.94-0.18-10.37-0.55c0,0-0.01,0-0.01,0
			c-0.01,0-0.02,0-0.03,0s-0.02,0-0.02,0c-0.01,0-0.02,0-0.02,0c-0.01,0-0.02,0.01-0.02,0.01s-0.01,0.01-0.02,0.01
			c-0.01,0.01-0.02,0.01-0.02,0.01c-0.01,0-0.01,0.01-0.02,0.01c-0.01,0.01-0.01,0.01-0.02,0.02c-0.01,0.01-0.01,0.01-0.02,0.02
			c-0.01,0.01-0.01,0.01-0.02,0.02c-0.01,0.01-0.01,0.01-0.02,0.02c0,0.01-0.01,0.01-0.01,0.02c-0.01,0.01-0.01,0.02-0.01,0.02
			c0,0.01-0.01,0.02-0.01,0.03c0,0,0,0.01,0,0.01c-0.16,0.71-0.32,1.44-0.47,2.17c-0.48,2.23-0.94,4.5-1.36,6.74c0,0,0,0,0,0
			s0,0,0,0c-0.34,1.8-0.67,3.63-0.98,5.42c-0.61,3.57-1.16,7.21-1.64,10.83c0,0,0,0,0,0v0c-0.11,0.86-0.21,1.57-0.29,2.24
			c-0.02,0.12,0.06,0.23,0.17,0.27c1.91,0.67,3.89,1.16,5.88,1.47c1.7,0.26,3.43,0.4,5.15,0.4c0.87,0,1.74-0.03,2.6-0.1
			c0.11-0.01,0.21-0.1,0.23-0.21l0.35-2.2l0.69-4.35l0.24-1.54c0.28-0.05,0.55-0.1,0.82-0.15c0.53-0.1,1.06-0.2,1.58-0.3
			c0.14-0.03,0.23-0.16,0.2-0.3c-0.03-0.14-0.16-0.23-0.29-0.2c-0.53,0.1-1.06,0.2-1.58,0.3c-0.33,0.06-0.66,0.13-1,0.19
			c0,0,0,0-0.01,0c-0.01,0-0.02,0.01-0.03,0.01s-0.02,0.01-0.02,0.01c-0.01,0-0.02,0.01-0.02,0.01c-0.01,0-0.02,0.01-0.02,0.01
			c-0.01,0.01-0.01,0.01-0.02,0.02c-0.01,0.01-0.01,0.01-0.02,0.02s-0.01,0.01-0.02,0.02c-0.01,0.01-0.01,0.01-0.01,0.02
			c-0.01,0.01-0.01,0.01-0.01,0.02c0,0.01-0.01,0.01-0.01,0.02c0,0.01-0.01,0.02-0.01,0.02c0,0.01-0.01,0.02-0.01,0.03
			c0,0,0,0,0,0.01l-0.27,1.72l-0.66,4.15c-2.25,0.17-4.51,0.11-6.74-0.19c-2.16-0.29-4.3-0.81-6.36-1.54
			c0.47-3.55,1.02-7.11,1.61-10.6c0.29-1.73,0.61-3.48,0.94-5.21c0.7-0.02,1.38-0.14,2.03-0.37c2.42-0.83,4.32-3.02,5.12-5.89
			c1.63,0.08,3.26,0.12,4.87,0.12c0.24,0,0.5,0,0.78-0.01v6.13h-1.27v-5.17c0-0.14-0.11-0.25-0.25-0.25c-0.14,0-0.25,0.11-0.25,0.25
			v5.42c0,0.14,0.11,0.25,0.25,0.25h1.77c0.14,0,0.25-0.11,0.25-0.25v-6.39c1.2-0.02,2.41-0.05,3.6-0.11
			c0.8,2.87,2.7,5.06,5.12,5.89c0.64,0.22,1.32,0.34,2.02,0.37c0.33,1.74,0.64,3.49,0.94,5.21c0.6,3.49,1.14,7.06,1.61,10.61
			c-2.05,0.72-4.18,1.24-6.34,1.53c-2.22,0.3-4.49,0.36-6.73,0.19l-0.7-4.52c-0.02-0.14-0.15-0.24-0.29-0.21
			c-0.14,0.02-0.23,0.15-0.21,0.29l0.73,4.72l0.33,2.09c-0.01,0.02-0.01,0.03-0.01,0.05c-0.01,0.14,0.09,0.26,0.23,0.27
			c0.87,0.07,1.73,0.1,2.6,0.1c1.73,0,3.45-0.13,5.15-0.4c1.99-0.31,3.97-0.81,5.88-1.47h0c0,0,0.01-0.01,0.01-0.01
			c0.01-0.01,0.02-0.01,0.03-0.02c0.01-0.01,0.01-0.01,0.02-0.01c0.01-0.01,0.02-0.01,0.02-0.02c0.01-0.01,0.01-0.01,0.02-0.02
			c0.01-0.01,0.01-0.01,0.02-0.02C36.48,39.09,36.49,39.08,36.49,39.07z M17.19,38.87c0.8,0,1.6-0.03,2.4-0.09l-0.27,1.68
			c-2.49,0.18-4.99,0.07-7.44-0.31c-1.9-0.3-3.78-0.76-5.6-1.38c0.07-0.52,0.14-1.08,0.22-1.72c2.06,0.72,4.2,1.23,6.36,1.53
			C14.3,38.77,15.74,38.87,17.19,38.87z M26.2,13.94L26.2,13.94c-1.25,0.07-2.52,0.11-3.78,0.12v-1.72
			c2.97-0.04,5.97-0.21,8.92-0.52c0.12,0.55,0.24,1.11,0.37,1.68C29.89,13.7,28.04,13.85,26.2,13.94z M10.98,19.87
			c-0.56,0.19-1.15,0.3-1.76,0.33c0.39-2.06,0.81-4.15,1.25-6.2c1.75,0.19,3.51,0.33,5.27,0.43C14.97,17.08,13.21,19.11,10.98,19.87
			z M16.08,13.94c-1.83-0.09-3.69-0.24-5.51-0.44c0.12-0.56,0.24-1.12,0.36-1.67c3.38,0.35,6.81,0.53,10.19,0.53c0,0,0.01,0,0.01,0
			c0.24,0,0.49,0,0.78,0v1.72c-0.29,0-0.54,0-0.78,0C19.47,14.07,17.77,14.03,16.08,13.94z M26.54,14.43
			c1.76-0.1,3.53-0.24,5.27-0.43c0.44,2.06,0.86,4.14,1.25,6.2c-0.61-0.03-1.2-0.14-1.76-0.33C29.07,19.11,27.31,17.08,26.54,14.43z
			 M30.4,40.15c-2.45,0.38-4.94,0.48-7.41,0.31l-0.27-1.69c0.8,0.06,1.6,0.09,2.39,0.09c1.45,0,2.89-0.1,4.32-0.29
			c2.15-0.29,4.28-0.8,6.34-1.52c0.09,0.63,0.16,1.19,0.22,1.72C34.18,39.39,32.3,39.85,30.4,40.15z"/>
		<path d="M36.49,39.07c0-0.01,0.01-0.01,0.01-0.02c0.01-0.01,0.01-0.01,0.01-0.02s0.01-0.02,0.01-0.02s0-0.02,0.01-0.03
			c0-0.01,0-0.02,0-0.02c0-0.01,0-0.03,0-0.04c0,0,0-0.01,0-0.01c0,0,0,0,0,0c0,0,0,0,0,0c-0.08-0.67-0.17-1.38-0.29-2.23
			c0,0,0,0,0,0c-0.48-3.62-1.03-7.26-1.64-10.83c-0.3-1.79-0.63-3.62-0.98-5.42c0,0,0,0,0,0c-0.42-2.24-0.88-4.51-1.36-6.75
			c-0.16-0.73-0.32-1.46-0.47-2.17c0-0.01,0-0.01-0.01-0.01c0-0.01,0-0.02-0.01-0.03c0-0.01-0.01-0.01-0.01-0.02
			c-0.01-0.01-0.01-0.01-0.01-0.02c0-0.01-0.01-0.01-0.01-0.02c-0.01-0.01-0.01-0.01-0.02-0.02c-0.01-0.01-0.01-0.01-0.02-0.02
			c-0.01-0.01-0.01-0.01-0.02-0.01c-0.01-0.01-0.01-0.01-0.02-0.02c-0.01,0-0.01-0.01-0.02-0.01c-0.01,0-0.02-0.01-0.02-0.01
			c-0.01,0-0.01-0.01-0.02-0.01c-0.01,0-0.02,0-0.03,0c-0.01,0-0.01,0-0.02,0c-0.01,0-0.02,0-0.03,0c0,0-0.01,0-0.01,0
			c-3.09,0.33-6.23,0.51-9.35,0.54c-0.39,0-0.71,0.01-1.02,0.01c0,0-0.01,0-0.01,0c-3.45,0-6.94-0.18-10.37-0.55c0,0-0.01,0-0.01,0
			c-0.01,0-0.02,0-0.03,0s-0.02,0-0.02,0c-0.01,0-0.02,0-0.02,0c-0.01,0-0.02,0.01-0.02,0.01s-0.01,0.01-0.02,0.01
			c-0.01,0.01-0.02,0.01-0.02,0.01c-0.01,0-0.01,0.01-0.02,0.01c-0.01,0.01-0.01,0.01-0.02,0.02c-0.01,0.01-0.01,0.01-0.02,0.02
			c-0.01,0.01-0.01,0.01-0.02,0.02c-0.01,0.01-0.01,0.01-0.02,0.02c0,0.01-0.01,0.01-0.01,0.02c-0.01,0.01-0.01,0.02-0.01,0.02
			c0,0.01-0.01,0.02-0.01,0.03c0,0,0,0.01,0,0.01c-0.16,0.71-0.32,1.44-0.47,2.17c-0.48,2.23-0.94,4.5-1.36,6.74c0,0,0,0,0,0
			s0,0,0,0c-0.34,1.8-0.67,3.63-0.98,5.42c-0.61,3.57-1.16,7.21-1.64,10.83c0,0,0,0,0,0v0c-0.11,0.86-0.21,1.57-0.29,2.24
			c-0.02,0.12,0.06,0.23,0.17,0.27c1.91,0.67,3.89,1.16,5.88,1.47c1.7,0.26,3.43,0.4,5.15,0.4c0.87,0,1.74-0.03,2.6-0.1
			c0.11-0.01,0.21-0.1,0.23-0.21l0.35-2.2l0.69-4.35l0.24-1.54c0.28-0.05,0.55-0.1,0.82-0.15c0.53-0.1,1.06-0.2,1.58-0.3
			c0.14-0.03,0.23-0.16,0.2-0.3c-0.03-0.14-0.16-0.23-0.29-0.2c-0.53,0.1-1.06,0.2-1.58,0.3c-0.33,0.06-0.66,0.13-1,0.19
			c0,0,0,0-0.01,0c-0.01,0-0.02,0.01-0.03,0.01s-0.02,0.01-0.02,0.01c-0.01,0-0.02,0.01-0.02,0.01c-0.01,0-0.02,0.01-0.02,0.01
			c-0.01,0.01-0.01,0.01-0.02,0.02c-0.01,0.01-0.01,0.01-0.02,0.02s-0.01,0.01-0.02,0.02c-0.01,0.01-0.01,0.01-0.01,0.02
			c-0.01,0.01-0.01,0.01-0.01,0.02c0,0.01-0.01,0.01-0.01,0.02c0,0.01-0.01,0.02-0.01,0.02c0,0.01-0.01,0.02-0.01,0.03
			c0,0,0,0,0,0.01l-0.27,1.72l-0.66,4.15c-2.25,0.17-4.51,0.11-6.74-0.19c-2.16-0.29-4.3-0.81-6.36-1.54
			c0.47-3.55,1.02-7.11,1.61-10.6c0.29-1.73,0.61-3.48,0.94-5.21c0.7-0.02,1.38-0.14,2.03-0.37c2.42-0.83,4.32-3.02,5.12-5.89
			c1.63,0.08,3.26,0.12,4.87,0.12c0.24,0,0.5,0,0.78-0.01v6.13h-1.27v-5.17c0-0.14-0.11-0.25-0.25-0.25c-0.14,0-0.25,0.11-0.25,0.25
			v5.42c0,0.14,0.11,0.25,0.25,0.25h1.77c0.14,0,0.25-0.11,0.25-0.25v-6.39c1.2-0.02,2.41-0.05,3.6-0.11
			c0.8,2.87,2.7,5.06,5.12,5.89c0.64,0.22,1.32,0.34,2.02,0.37c0.33,1.74,0.64,3.49,0.94,5.21c0.6,3.49,1.14,7.06,1.61,10.61
			c-2.05,0.72-4.18,1.24-6.34,1.53c-2.22,0.3-4.49,0.36-6.73,0.19l-0.7-4.52c-0.02-0.14-0.15-0.24-0.29-0.21
			c-0.14,0.02-0.23,0.15-0.21,0.29l0.73,4.72l0.33,2.09c-0.01,0.02-0.01,0.03-0.01,0.05c-0.01,0.14,0.09,0.26,0.23,0.27
			c0.87,0.07,1.73,0.1,2.6,0.1c1.73,0,3.45-0.13,5.15-0.4c1.99-0.31,3.97-0.81,5.88-1.47h0c0,0,0.01-0.01,0.01-0.01
			c0.01-0.01,0.02-0.01,0.03-0.02c0.01-0.01,0.01-0.01,0.02-0.01c0.01-0.01,0.02-0.01,0.02-0.02c0.01-0.01,0.01-0.01,0.02-0.02
			c0.01-0.01,0.01-0.01,0.02-0.02C36.48,39.09,36.49,39.08,36.49,39.07z M17.19,38.87c0.8,0,1.6-0.03,2.4-0.09l-0.27,1.68
			c-2.49,0.18-4.99,0.07-7.44-0.31c-1.9-0.3-3.78-0.76-5.6-1.38c0.07-0.52,0.14-1.08,0.22-1.72c2.06,0.72,4.2,1.23,6.36,1.53
			C14.3,38.77,15.74,38.87,17.19,38.87z M26.2,13.94L26.2,13.94c-1.25,0.07-2.52,0.11-3.78,0.12v-1.72
			c2.97-0.04,5.97-0.21,8.92-0.52c0.12,0.55,0.24,1.11,0.37,1.68C29.89,13.7,28.04,13.85,26.2,13.94z M10.98,19.87
			c-0.56,0.19-1.15,0.3-1.76,0.33c0.39-2.06,0.81-4.15,1.25-6.2c1.75,0.19,3.51,0.33,5.27,0.43C14.97,17.08,13.21,19.11,10.98,19.87
			z M16.08,13.94c-1.83-0.09-3.69-0.24-5.51-0.44c0.12-0.56,0.24-1.12,0.36-1.67c3.38,0.35,6.81,0.53,10.19,0.53c0,0,0.01,0,0.01,0
			c0.24,0,0.49,0,0.78,0v1.72c-0.29,0-0.54,0-0.78,0C19.47,14.07,17.77,14.03,16.08,13.94z M26.54,14.43
			c1.76-0.1,3.53-0.24,5.27-0.43c0.44,2.06,0.86,4.14,1.25,6.2c-0.61-0.03-1.2-0.14-1.76-0.33C29.07,19.11,27.31,17.08,26.54,14.43z
			 M30.4,40.15c-2.45,0.38-4.94,0.48-7.41,0.31l-0.27-1.69c0.8,0.06,1.6,0.09,2.39,0.09c1.45,0,2.89-0.1,4.32-0.29
			c2.15-0.29,4.28-0.8,6.34-1.52c0.09,0.63,0.16,1.19,0.22,1.72C34.18,39.39,32.3,39.85,30.4,40.15z"/>
	</g>
</g>
</svg>
