<?xml version="1.0" encoding="utf-8"?>
<!-- Generator: Adobe Illustrator 27.3.1, SVG Export Plug-In . SVG Version: 6.00 Build 0)  -->
<svg version="1.1" id="Layer_1" xmlns="http://www.w3.org/2000/svg" xmlns:xlink="http://www.w3.org/1999/xlink" x="0px" y="0px"
	 viewBox="0 0 50 50" style="enable-background:new 0 0 50 50;" xml:space="preserve">
<style type="text/css">
	.st0{fill:none;}
	.st1{stroke:#000000;stroke-miterlimit:10;}
	.st2{stroke:#000000;stroke-width:0.75;stroke-miterlimit:10;}
	.st3{clip-path:url(#SVGID_00000075879951919550189370000016882810479987817905_);}
	.st4{clip-path:url(#SVGID_00000072987164567613264810000001572833527853400763_);}
	.st5{fill:#FFFFFF;}
	.st6{clip-path:url(#SVGID_00000024686032386037745510000002576900204742770358_);}
	.st7{fill:#231F20;}
	.st8{clip-path:url(#SVGID_00000134954359061235771210000015751444318325761471_);}
	.st9{clip-path:url(#SVGID_00000181769554278345538560000007375736150694040759_);}
	.st10{clip-path:url(#SVGID_00000142892026646958045110000005128833733010545281_);}
	.st11{clip-path:url(#SVGID_00000033330434624916568620000012632500120698213022_);}
	.st12{clip-path:url(#SVGID_00000032629836177241787560000015577345582900273567_);}
	.st13{clip-path:url(#SVGID_00000148651126058062677560000010286540160982390948_);}
	.st14{clip-path:url(#SVGID_00000061456442599180576840000014955155142532242055_);}
	.st15{clip-path:url(#SVGID_00000002384338444394300000000010923540427989492356_);}
	.st16{clip-path:url(#SVGID_00000012436263599710954820000008768741886503374725_);}
	.st17{clip-path:url(#SVGID_00000183958361761555907420000005420952846711978389_);}
	.st18{clip-path:url(#SVGID_00000085951615239849441160000001088505877543782301_);}
	.st19{clip-path:url(#SVGID_00000025402474677478595290000008666026240540024743_);}
	.st20{clip-path:url(#SVGID_00000084530722558926076350000005938721068769851042_);}
	.st21{clip-path:url(#SVGID_00000141427475545000161920000003242025641494853003_);}
	.st22{clip-path:url(#SVGID_00000030489115034806018430000009438831025110299787_);}
	.st23{clip-path:url(#SVGID_00000011750679013173446110000001546299310056507274_);}
	.st24{clip-path:url(#SVGID_00000107557380141562813070000006385523624554404531_);}
	.st25{clip-path:url(#SVGID_00000008121453761010012630000013935164383794148995_);}
	.st26{clip-path:url(#SVGID_00000100343378233094546380000001942017815466027664_);}
	.st27{clip-path:url(#SVGID_00000181802025721110694790000012086968537985514405_);}
	.st28{clip-path:url(#SVGID_00000092456592368728063230000011527815575954384028_);}
	.st29{clip-path:url(#SVGID_00000079486979723422427920000011110651372828040079_);}
	.st30{clip-path:url(#SVGID_00000132773364435326188490000003605294945969473941_);}
	.st31{fill-rule:evenodd;clip-rule:evenodd;}
	.st32{clip-path:url(#SVGID_00000029763584623505681010000014786996189838526885_);}
	.st33{clip-path:url(#SVGID_00000021114004831979444340000010842278896998554522_);}
	.st34{stroke:#000000;stroke-width:0.5;stroke-miterlimit:10;}
	.st35{clip-path:url(#SVGID_00000034799636202266617420000014175787822693007527_);}
	.st36{clip-path:url(#SVGID_00000060012796210008925390000008423886025382935480_);}
	.st37{clip-path:url(#SVGID_00000181086739566142021190000003613500258642670982_);}
	.st38{fill:#1A1A1A;}
	.st39{clip-path:url(#SVGID_00000043438728480974092890000004428635320213277617_);}
	.st40{clip-path:url(#SVGID_00000137830418553784393660000012822054948926422187_);}
	.st41{clip-path:url(#SVGID_00000083057198394940097560000009118727841062047400_);}
	.st42{clip-path:url(#SVGID_00000115510329517599721460000002393678638749720207_);}
	.st43{clip-path:url(#SVGID_00000013891293103896842880000003016440997736816533_);}
	.st44{clip-path:url(#SVGID_00000124147245169892060220000009793731223903086980_);}
	.st45{clip-path:url(#SVGID_00000008137049703277956220000003579330224774269572_);}
	.st46{clip-path:url(#SVGID_00000174601208847498783560000003041453148042102144_);}
	.st47{clip-path:url(#SVGID_00000054263537613076822030000004287198200992710827_);}
	.st48{fill:#F1F1F1;}
	.st49{fill:#E8E8E8;}
	.st50{fill:#FEFEFE;}
	.st51{fill:#CCCCCC;}
	.st52{fill:#B3B3B3;}
	.st53{fill:#E6E6E6;}
	.st54{fill:#EBEBEB;}
	.st55{fill:#EEEEEE;}
	.st56{fill:#F8F8F8;}
	.st57{fill:#FBFBFB;}
	.st58{fill:#383838;}
	.st59{fill:#232323;}
	.st60{fill:#F6F6F6;}
	.st61{fill:#535353;}
	.st62{fill:#0A0A0A;}
	.st63{fill:#F5F5F5;}
	.st64{fill:#818181;}
	.st65{fill:#4A4A4A;}
	.st66{fill:#999999;}
	.st67{fill:url(#SVGID_00000057125586428425075970000010035012873992838025_);}
	.st68{fill:url(#SVGID_00000048482894642738113010000008476489716019031985_);}
	.st69{fill:#0E0E0D;}
	.st70{fill:#333333;}
	.st71{fill:#808080;}
	.st72{fill:url(#SVGID_00000085953101677639284440000016708434927265335462_);}
	.st73{fill:#666666;}
	.st74{fill:url(#SVGID_00000067201308469431151230000010775393019574373512_);}
	.st75{fill:url(#SVGID_00000054964080951728072720000017762117565727372931_);}
	.st76{fill:url(#SVGID_00000062875516950135557300000010782831412672745863_);}
	.st77{fill:url(#SVGID_00000109007916741639147480000000846786763057424303_);}
	.st78{fill:url(#SVGID_00000085973561105149039160000006097097464898240660_);}
	.st79{clip-path:url(#SVGID_00000080892144648505362230000009291350523940415679_);}
	.st80{clip-path:url(#SVGID_00000087372146401891242490000017787621957451655299_);}
	.st81{clip-path:url(#SVGID_00000060714662459095290430000010171366873132564609_);}
	.st82{clip-path:url(#SVGID_00000059276530258215024500000009953433370189588354_);}
	.st83{clip-path:url(#SVGID_00000005248649562770107800000004302983732333846204_);}
	.st84{fill:#241F20;stroke:#000000;stroke-width:0.5;stroke-miterlimit:10;}
	.st85{clip-path:url(#SVGID_00000148651004372546517960000013199319937428888974_);}
	.st86{clip-path:url(#SVGID_00000143593004497364710400000012537376530677197460_);}
	.st87{clip-path:url(#SVGID_00000156566264413367008080000010277988577061156527_);}
	.st88{clip-path:url(#SVGID_00000128443812923187046040000011861859454718837124_);}
	.st89{clip-path:url(#SVGID_00000012470554048824512540000004097132741099141049_);}
	.st90{clip-path:url(#SVGID_00000000206672924117248760000011695759927620168322_);}
	.st91{clip-path:url(#SVGID_00000111180506528922935490000015427773288193252488_);}
	.st92{clip-path:url(#SVGID_00000096055417375091835270000009933827833136197041_);}
	.st93{clip-path:url(#SVGID_00000049936644012905754020000007553123359087194787_);}
	.st94{clip-path:url(#SVGID_00000075124489035159851770000008101337567847113393_);}
	.st95{clip-path:url(#SVGID_00000043439722945779960450000007609561466911183788_);}
	.st96{clip-path:url(#SVGID_00000018227833095978149140000016389020321147938180_);}
	.st97{clip-path:url(#SVGID_00000156573007899769328600000004446123243177912222_);}
	.st98{clip-path:url(#SVGID_00000005983806022575819120000002236323550219002796_);}
	.st99{clip-path:url(#SVGID_00000093142265923650071120000001666897814696870057_);}
	.st100{clip-path:url(#SVGID_00000072272065556358378080000001776138042341718175_);}
	.st101{clip-path:url(#SVGID_00000102511431383003862110000003633391427562344329_);}
	.st102{clip-path:url(#SVGID_00000063621797299223522310000000353709979511557559_);}
	.st103{clip-path:url(#SVGID_00000175319024882454835680000001113200561713141430_);}
	.st104{clip-path:url(#SVGID_00000088817184551673650820000002615991654026114994_);}
	.st105{clip-path:url(#SVGID_00000007395658366357019270000001467346424677814145_);}
	.st106{clip-path:url(#SVGID_00000104685604668140333670000003314251872640544905_);}
	.st107{clip-path:url(#SVGID_00000047051086324714579250000000073476979514484122_);}
	.st108{clip-path:url(#SVGID_00000144322573972115602500000016708902003754038674_);}
	.st109{clip-path:url(#SVGID_00000097482059797552955620000004829072036572445862_);}
	.st110{clip-path:url(#SVGID_00000083783356963529276710000005347007771990439609_);}
	.st111{clip-path:url(#SVGID_00000142146006798970706390000016579550323887103415_);}
	.st112{clip-path:url(#SVGID_00000074422021501673470110000001758984133922779790_);}
	.st113{clip-path:url(#SVGID_00000115488928186865320740000016053391335131259069_);}
	.st114{clip-path:url(#SVGID_00000067920308287631250520000005081053644031880108_);}
	.st115{fill:#FFFFFF;stroke:#000000;stroke-miterlimit:10;}
	.st116{clip-path:url(#SVGID_00000109738004257269957370000005750345749620397987_);}
	.st117{clip-path:url(#SVGID_00000008148535875490835800000005192503635325998763_);}
	.st118{fill:none;stroke:#010101;stroke-miterlimit:10;}
	.st119{fill:#010101;stroke:#000000;stroke-miterlimit:10;}
	.st120{clip-path:url(#SVGID_00000181777058558418419730000002758565241738631589_);}
	.st121{fill:#010101;stroke:#010101;stroke-miterlimit:10;}
	.st122{clip-path:url(#SVGID_00000035511665368279267290000016225074969456990616_);}
	.st123{clip-path:url(#SVGID_00000053508809493008297760000017936552404096270985_);}
	.st124{clip-path:url(#SVGID_00000130629839927409381840000013370626813744821673_);}
	.st125{clip-path:url(#SVGID_00000168099506677566518030000001355298122456698264_);}
	.st126{clip-path:url(#SVGID_00000029039833339048881830000014313790968232876982_);}
	.st127{fill:none;stroke:#000000;stroke-width:3;stroke-miterlimit:10;}
	.st128{clip-path:url(#SVGID_00000112610549671880249920000016396450837086316185_);}
	.st129{clip-path:url(#SVGID_00000093151939137904915870000001739499909942700456_);}
	.st130{clip-path:url(#SVGID_00000174570701576945841210000003991758049689302695_);}
	.st131{clip-path:url(#SVGID_00000028319951961341346090000014280172552682579378_);}
	.st132{fill:#040606;}
	.st133{clip-path:url(#SVGID_00000138538331691788914990000012551390502371180467_);}
	.st134{clip-path:url(#SVGID_00000181052255034186604340000016119513544000784263_);}
	.st135{clip-path:url(#SVGID_00000034051044854039765520000011131335559367925172_);}
	.st136{clip-path:url(#SVGID_00000166643277261021031490000002688361914415477919_);}
	.st137{clip-path:url(#SVGID_00000147915878861819563120000016905152744437825970_);}
	.st138{clip-path:url(#SVGID_00000035500734538033024800000003867344885455859117_);}
	.st139{clip-path:url(#SVGID_00000151509742209335385670000008008702165024944526_);}
	.st140{fill:#FFFFFF;stroke:#000000;stroke-width:1.5;stroke-miterlimit:10;}
	.st141{clip-path:url(#SVGID_00000113354753262178325120000008039938129590080929_);}
	.st142{fill:#BDBCBC;}
	.st143{clip-path:url(#SVGID_00000163769136590437902770000009469179827103250869_);}
	.st144{fill:#2E2A2B;}
	.st145{clip-path:url(#SVGID_00000022519577786744029610000006067739178288157064_);}
	.st146{clip-path:url(#SVGID_00000018932456588640313790000017774392826513460379_);}
	.st147{clip-path:url(#SVGID_00000054984963604592491300000017931322123469851799_);}
	.st148{clip-path:url(#SVGID_00000079486614135701199140000016787657457395035541_);}
	.st149{clip-path:url(#SVGID_00000039838422507403848440000000741125432625356676_);}
	.st150{fill:#272324;}
	.st151{clip-path:url(#SVGID_00000170971643736540271710000015948468407627153311_);}
	.st152{clip-path:url(#SVGID_00000023270539772149848680000012610887978200376489_);}
	.st153{clip-path:url(#SVGID_00000160879407141772099860000014091082557703497399_);}
	.st154{clip-path:url(#SVGID_00000060732381433629735790000012317902769391485068_);}
	.st155{clip-path:url(#SVGID_00000072280137140006132370000006724554565977893773_);}
	.st156{clip-path:url(#SVGID_00000039115793637230503920000017417454811803576963_);}
	.st157{fill:none;stroke:#000000;stroke-width:0.8735;stroke-linecap:round;stroke-linejoin:round;stroke-miterlimit:10;}
	.st158{clip-path:url(#SVGID_00000155135562540789581790000000707443341661458853_);}
	.st159{clip-path:url(#SVGID_00000114768804446523587090000018360570481704347273_);}
	.st160{clip-path:url(#SVGID_00000107565469637000353100000018057801561801571980_);}
	.st161{clip-path:url(#SVGID_00000029018792521431605010000015821799544842525627_);}
	.st162{clip-path:url(#SVGID_00000111888835300874478350000006436732678507122879_);}
	.st163{clip-path:url(#SVGID_00000144305671196029371500000003130654448425912510_);}
	.st164{clip-path:url(#SVGID_00000114761260651887571270000009294666272031117209_);}
	.st165{clip-path:url(#SVGID_00000165232757550422462120000017883859182172716694_);}
	.st166{clip-path:url(#SVGID_00000046314222759415044880000016164097666526233773_);}
	.st167{clip-path:url(#SVGID_00000091705403144987645320000003160747787437368718_);}
	.st168{clip-path:url(#SVGID_00000042701351935879943800000014722358331413741229_);}
	.st169{clip-path:url(#SVGID_00000173850012991942279550000002135781636187218094_);}
	.st170{clip-path:url(#SVGID_00000013880823802092248630000008568531629002900888_);}
	.st171{clip-path:url(#SVGID_00000114755387292250568900000004195229848187792017_);}
	.st172{clip-path:url(#SVGID_00000124864859406826399390000006740500788990650039_);}
	.st173{clip-path:url(#SVGID_00000107549454691362755680000015677813602867610522_);}
	.st174{clip-path:url(#SVGID_00000000915678697008138880000018150619992693892239_);}
	.st175{clip-path:url(#SVGID_00000002346241309716757270000014660650535889811887_);}
	.st176{clip-path:url(#SVGID_00000150080321324817113240000003043206576389533368_);}
	.st177{clip-path:url(#SVGID_00000139990236038356808620000001699346285184821125_);}
	.st178{clip-path:url(#SVGID_00000051355561038567185730000002918227651850000027_);}
	.st179{clip-path:url(#SVGID_00000025417079059078215990000006742658827207737791_);}
	.st180{clip-path:url(#SVGID_00000093886256382712385520000009911694965024031920_);}
	.st181{clip-path:url(#SVGID_00000159440917551147893140000012314683813330056110_);}
	.st182{clip-path:url(#SVGID_00000147908785479687259890000009258022061521569417_);}
	.st183{clip-path:url(#SVGID_00000132800732600998109050000001908507592213262978_);}
	.st184{clip-path:url(#SVGID_00000115501601924334174390000008016081750716023446_);}
	.st185{clip-path:url(#SVGID_00000012457079516625203050000001874228190097810875_);}
	.st186{clip-path:url(#SVGID_00000024684501865926919300000013182718081751451558_);}
	.st187{clip-path:url(#SVGID_00000175307082480165495780000015024415513965179829_);}
	.st188{clip-path:url(#SVGID_00000109015471559673784140000017728326630003533205_);}
	.st189{clip-path:url(#SVGID_00000136406257023863562170000017641454692498565290_);}
	.st190{clip-path:url(#SVGID_00000052806150405341906650000013187851481501910679_);}
	.st191{clip-path:url(#SVGID_00000129926911045540306560000006617328165334250401_);}
	.st192{clip-path:url(#SVGID_00000118373534760052810100000000908398775908579260_);}
	.st193{clip-path:url(#SVGID_00000112624065905961835890000000551355602348827041_);}
	.st194{clip-path:url(#SVGID_00000128474758466369282630000001028307455112575894_);}
	.st195{clip-path:url(#SVGID_00000126312050697828057480000006006204449993147833_);}
	.st196{fill:#E5E5E5;}
	.st197{fill:#1D1D1B;}
	.st198{fill:none;stroke:#000000;stroke-miterlimit:10;}
	.st199{fill:#FEFEFE;stroke:#000000;stroke-miterlimit:10;}
	.st200{clip-path:url(#SVGID_00000053507496352384753480000010521433263140031640_);}
	.st201{clip-path:url(#SVGID_00000049912231329475633680000012111489192390726039_);}
	.st202{clip-path:url(#SVGID_00000116919099849144704640000017428306301903593379_);}
	.st203{fill:#231F1F;}
	.st204{fill:#020000;}
	.st205{clip-path:url(#SVGID_00000155124433931603715670000014064071993350810280_);}
	.st206{clip-path:url(#SVGID_00000039105317367873108550000010947955270671117190_);}
	.st207{clip-path:url(#SVGID_00000047024511575711868790000000966952264404744617_);}
	.st208{clip-path:url(#SVGID_00000134957335880368678490000015841242685394925964_);}
	.st209{fill:#050000;}
	.st210{clip-path:url(#SVGID_00000034083915165794273440000001642037626952264322_);}
	.st211{clip-path:url(#SVGID_00000160873428612219256290000003820877845528314771_);}
	.st212{clip-path:url(#SVGID_00000005259398884596623040000006914954361160115869_);}
	.st213{clip-path:url(#SVGID_00000051348719668178620050000006812299138465555590_);}
	.st214{clip-path:url(#SVGID_00000129899082851917170980000005184812943831814301_);}
	.st215{clip-path:url(#SVGID_00000010996864899738171410000017021909171942001061_);}
	.st216{fill:#12100F;}
	.st217{clip-path:url(#SVGID_00000130609829290387741360000007648119491446920622_);}
	.st218{clip-path:url(#SVGID_00000163073082944633107510000009817060042352137150_);}
	.st219{fill:none;stroke:#000000;stroke-width:0.5;stroke-miterlimit:10;}
	.st220{clip-path:url(#SVGID_00000045590359353344664860000011063005554808386736_);}
	.st221{clip-path:url(#SVGID_00000124127208644708573060000002222468170278488500_);}
	.st222{clip-path:url(#SVGID_00000146470187941470258810000010318136819136656279_);}
	.st223{clip-path:url(#SVGID_00000124871381449570545960000005395771752599666070_);}
	.st224{fill:none;stroke:#000000;stroke-width:0.25;stroke-miterlimit:10;}
	.st225{clip-path:url(#SVGID_00000167355886435181114410000002302359592004034952_);}
	.st226{clip-path:url(#SVGID_00000041295101667582959560000011165981908642524301_);}
	.st227{clip-path:url(#SVGID_00000118364838148261726720000010959565318894395019_);}
</style>
<g>
	<path class="st84" d="M36.67,37.61c-0.01-0.56-0.02-1.12-0.03-1.68c-0.02-1.13-0.06-2.26-0.21-3.38c-0.31-2.32-0.57-4.64-0.74-6.97
		c-0.08-1.15-0.13-2.3-0.21-3.45c-0.09-1.18-0.19-2.35-0.31-3.53c-0.12-1.16-0.26-2.31-0.4-3.46c-0.07-0.6-0.14-1.19-0.22-1.78
		c-0.03-0.3-0.06-0.59-0.1-0.88c-0.02-0.15-0.08-0.34-0.2-0.43c-0.07-0.05-0.19-0.06-0.26-0.01c-0.16-0.76-0.86-1.23-1.57-1.47
		c-0.5-0.18-1.01-0.31-1.5-0.52c-0.49-0.21-0.99-0.39-1.51-0.54c-0.55-0.16-1.11-0.3-1.67-0.43c-0.21-0.36-0.42-0.71-0.64-1.06
		C27,7.84,26.9,7.66,26.79,7.49c-0.09-0.15-0.26-0.16-0.42-0.18c-0.44-0.05-0.91-0.02-1.35-0.01c-0.46,0.01-0.91,0.02-1.36,0.03
		c-0.23,0.01-0.47,0.01-0.7,0.02c-0.1,0-0.19,0-0.29,0c-0.06,0-0.11,0-0.17,0c-0.05,0-0.14-0.02-0.18,0
		c-0.06,0.04-0.13,0.21-0.17,0.28c-0.06,0.09-0.11,0.18-0.17,0.27c-0.14,0.23-0.29,0.46-0.43,0.69c-0.12,0.2-0.25,0.39-0.35,0.6
		c0,0-0.01,0-0.01,0c-1.2,0.33-2.39,0.7-3.55,1.17c-0.58,0.24-1.14,0.5-1.69,0.79c-0.36,0.19-0.98,0.45-0.88,0.96
		c-0.09-0.03-0.18,0.07-0.2,0.15c-0.06,0.26-0.09,0.54-0.14,0.8c-0.09,0.54-0.18,1.08-0.27,1.62c-0.17,1.09-0.32,2.19-0.42,3.3
		c-0.1,1.1-0.14,2.21-0.21,3.32c-0.08,1.1-0.18,2.19-0.29,3.29c-0.23,2.21-0.51,4.41-0.78,6.61c-0.14,1.1-0.27,2.2-0.39,3.3
		c-0.12,1.04-0.2,2.11,0.02,3.14c0.18,0.82,0.55,1.61,1.15,2.19c0.11,0.1,0.22,0.2,0.34,0.29c0.03,0.35,0.06,0.7,0.09,1.04
		c0.01,0.14,0.01,0.24,0.13,0.32c0.11,0.08,0.24,0.16,0.38,0.19c0.32,0.08,0.7,0.05,1.02,0.03c0.35-0.03,0.7-0.09,1.03-0.19
		c0.01,0,0.01-0.01,0.02-0.02c0.1-0.42,0.14-0.87,0.12-1.3c0,0,0,0,0-0.01c0.06-0.01,0.12-0.03,0.17-0.08c0,0,0,0,0,0
		c0.03,0.1,0.06,0.2,0.1,0.31c0.06,0.15,0.09,0.17,0.24,0.2c0.29,0.06,0.58,0.15,0.88,0.18c1.5,0.14,3,0.25,4.51,0.31
		c2.95,0.12,5.93,0.05,8.82-0.57c0.25-0.05,0.5-0.11,0.74-0.17c0.07,0.12,0.17,0.24,0.27,0.35c0.02,0.03,0.06,0.08,0.09,0.11
		c0.11,0.38,0.21,0.76,0.28,1.15c0.01,0.05,0.04,0.11,0.09,0.12c0.61,0.14,1.24,0.17,1.85,0.04c0.07-0.02,0.14-0.03,0.22-0.05
		c0.05-0.01,0.16-0.03,0.2-0.07c0.04-0.04,0.04-0.14,0.05-0.19c0.02-0.08,0.04-0.16,0.06-0.24c0.07-0.32,0.11-0.63,0.14-0.95
		c0-0.02,0-0.04,0-0.05c0.14-0.06,0.28-0.14,0.41-0.24c0.34-0.27,0.58-0.67,0.72-1.08C36.67,38.72,36.68,38.16,36.67,37.61z
		 M29.46,9.68c0.57,0.16,1.12,0.37,1.67,0.6c0.54,0.22,1.12,0.34,1.66,0.57c0.48,0.21,0.98,0.55,1.1,1.07
		c-0.2-0.3-0.5-0.52-0.81-0.71c-0.22-0.14-0.44-0.27-0.69-0.33c-0.3-0.07-0.6-0.11-0.9-0.2c-1.19-0.33-2.36-0.72-3.51-1.15
		c-0.04-0.1-0.08-0.19-0.13-0.28C28.39,9.4,28.93,9.53,29.46,9.68z M26.76,7.63c0.29,0.5,0.6,0.98,0.88,1.47
		c0.01,0.05,0.04,0.13,0.08,0.14c0,0,0,0,0,0c0.02,0.02,0.03,0.05,0.04,0.08c0.31,0.58,0.34,1.33,0.28,1.97
		c-0.08,0.75-0.3,1.48-0.54,2.19c-0.24,0.72-0.5,1.41-0.78,2.11c-0.29,0.73-0.54,1.53-1.06,2.13c-0.01,0.01-0.01,0.02-0.01,0.03
		c-0.16-0.1-0.32-0.18-0.48-0.28c0.56-0.31,0.68-1.05,0.82-1.63c0.2-0.79,0.43-1.57,0.7-2.33c0.02-0.06-0.09-0.2-0.1-0.17
		c-0.26,0.75-0.49,1.51-0.68,2.27c-0.15,0.61-0.26,1.39-0.88,1.7c-0.04-0.1-0.11-0.17-0.2-0.22c0.36-1.2,0.73-2.4,1.03-3.61
		c0.32-1.25,0.56-2.52,0.76-3.79C26.74,9.02,26.82,8.32,26.76,7.63z M27.24,21.41c-0.15-0.23-0.33-0.44-0.47-0.68
		c-0.16-0.26-0.28-0.54-0.38-0.82c-0.17-0.49-0.26-0.99-0.58-1.41c-0.25-0.34-0.59-0.6-0.98-0.76c0.01-0.02,0.02-0.04,0.04-0.06
		c0.04-0.06,0.08-0.12,0.15-0.16c0.01,0.01,0.02,0.02,0.02,0.02c0,0.01,0.01,0.01,0.02,0.02c0.49,0.27,0.98,0.53,1.43,0.88
		c0.32,0.26,0.64,0.52,0.98,0.74c0.36,0.24,0.74,0.46,1.09,0.72c0.15,0.11,0.3,0.22,0.43,0.35c0.08,0.08,0.17,0.17,0.16,0.29
		c-0.01,0.1-0.09,0.22-0.13,0.32c-0.06,0.12-0.12,0.24-0.19,0.35c-0.2,0.31-0.45,0.6-0.77,0.79c-0.19,0.11-0.42,0.21-0.66,0.24
		c0.03-0.06,0.05-0.12,0.05-0.19C27.47,21.81,27.37,21.59,27.24,21.41z M25.07,24.07c-0.04-0.97-0.1-1.93-0.12-2.9
		c-0.01-0.55-0.01-1.1-0.01-1.65c0-0.35,0.04-0.8-0.25-1.04c0.04-0.19,0-0.39,0.05-0.58c0-0.01,0.01-0.02,0.02-0.03
		c0,0.01,0.01,0.02,0.02,0.02c1,0.72,1.04,2.08,1.36,3.16c0.09,0.32,0.21,0.68,0.42,0.95c0,0.01,0,0.02,0.01,0.04
		c0.5,1.43,0.94,2.91,1.1,4.42c0.08,0.76,0.09,1.53-0.04,2.27c-0.13,0.75-0.42,1.44-0.82,2.09c-0.24,0.39-0.52,0.78-0.83,1.11
		c-0.26,0.28-0.65,0.44-1.03,0.47c0-0.94,0-1.87,0.03-2.81c0.04-0.92,0.1-1.85,0.12-2.77C25.1,25.91,25.11,24.99,25.07,24.07z
		 M24.05,18.48c-0.08,0.05-0.18,0.06-0.25,0.02c-0.02-0.04-0.05-0.08-0.08-0.08c-0.06-0.08-0.07-0.2-0.08-0.29
		c-0.02-0.11-0.04-0.22-0.03-0.34c0.01-0.1,0.06-0.2,0.13-0.29c0.14-0.18,0.36-0.29,0.58-0.32c0.12-0.02,0.25-0.01,0.37,0.02
		c0.09,0.02,0.21,0.05,0.25,0.14c-0.11,0.04-0.18,0.15-0.23,0.25c-0.08,0.14-0.12,0.29-0.12,0.46s0.02,0.36-0.1,0.5
		c-0.04,0.06-0.1,0.1-0.18,0.1c-0.03,0-0.06-0.01-0.1-0.02c-0.01,0-0.02-0.01-0.04-0.02c0,0-0.01,0-0.01-0.01
		C24.15,18.56,24.09,18.44,24.05,18.48z M24.61,31.9c-0.27-0.01-0.53-0.18-0.77-0.3c-0.28-0.13-0.54-0.31-0.76-0.52
		c-0.5-0.47-0.77-1.08-0.89-1.74c-0.12-0.65-0.11-1.31-0.1-1.96c0-0.76,0-1.51-0.01-2.27c-0.01-0.86-0.03-1.73-0.06-2.59
		c0,0,0,0,0-0.01c0.08-0.09,0.14-0.23,0.19-0.32c0.13-0.22,0.26-0.45,0.39-0.67c0.53-0.91,1.05-1.85,1.22-2.9
		c0.08,0.05,0.16,0.08,0.24,0.06c0.01,0.11,0.04,0.22,0.08,0.32c0.08,0.18,0.26,0.34,0.29,0.54c0.06,0.44,0.07,0.9,0.09,1.35
		c0.03,0.92,0.03,1.83,0.04,2.75c0.02,1.81,0.04,3.62,0.01,5.43c-0.01,0.5-0.02,1.01-0.02,1.51C24.54,31.03,24.51,31.48,24.61,31.9z
		 M21.66,22.44c-0.15-0.02-0.32-0.16-0.43-0.23c-0.33-0.2-0.65-0.4-0.95-0.64c-0.29-0.22-0.63-0.5-0.78-0.84
		c-0.18-0.41,0.39-0.75,0.68-0.92c0.34-0.2,0.69-0.36,1.02-0.58c0.4-0.26,0.76-0.57,1.12-0.88c0.17-0.15,0.33-0.3,0.5-0.44
		c0.17-0.14,0.44-0.3,0.64-0.14c0,0.07,0.02,0.14,0.02,0.2c0.02,0.12,0.04,0.25,0.08,0.36c0.02,0.04,0.04,0.08,0.06,0.12
		c-0.25,0.25-0.38,0.58-0.52,0.9c-0.18,0.43-0.4,0.83-0.69,1.2c-0.26,0.34-0.5,0.68-0.66,1.09C21.71,21.83,21.55,22.22,21.66,22.44z
		 M21.9,21.86c0.06-0.18,0.14-0.36,0.23-0.52c0.18-0.33,0.44-0.61,0.65-0.93c0.2-0.29,0.35-0.6,0.49-0.92
		c0.1-0.24,0.2-0.5,0.36-0.72c-0.16,0.72-0.48,1.39-0.84,2.04c-0.21,0.37-0.42,0.74-0.64,1.1c-0.06,0.1-0.12,0.21-0.18,0.31
		c-0.04,0.07-0.08,0.14-0.14,0.18c0,0,0,0,0,0C21.71,22.37,21.87,21.94,21.9,21.86z M26.34,21.43c-0.1-0.27-0.17-0.56-0.24-0.84
		c-0.21-0.9-0.4-1.91-1.05-2.6c0.29,0.14,0.54,0.35,0.74,0.61c0.29,0.38,0.37,0.86,0.52,1.3c0.14,0.4,0.33,0.78,0.56,1.13
		c0.13,0.19,0.28,0.36,0.4,0.55c0.08,0.14,0.13,0.32,0.05,0.48c-0.06,0.11-0.16,0.18-0.28,0.15c0,0,0,0,0,0
		c-0.09-0.02-0.17-0.06-0.24-0.11C26.56,21.94,26.44,21.68,26.34,21.43z M22.52,7.54c0-0.01,0-0.02,0-0.02
		c0.05,0,0.11,0.01,0.16,0.01c0.25,0,0.5-0.01,0.75-0.01c0.56-0.01,1.12-0.03,1.68-0.04c0.27,0,0.54-0.01,0.81-0.01
		c0.25,0,0.5-0.01,0.74,0.05c0.05,0.63-0.01,1.26-0.11,1.88c-0.1,0.63-0.21,1.25-0.33,1.88c-0.24,1.25-0.55,2.48-0.9,3.7
		c-0.2,0.69-0.41,1.38-0.62,2.07c-0.2-0.07-0.46-0.06-0.66,0.01c-0.08-0.11-0.1-0.26-0.12-0.4c-0.03-0.16-0.06-0.33-0.09-0.49
		c-0.06-0.3-0.11-0.61-0.16-0.92c-0.11-0.62-0.22-1.24-0.36-1.86c-0.27-1.2-0.65-2.39-0.77-3.63C22.46,9.02,22.49,8.28,22.52,7.54z
		 M21.31,9.33c0.24-0.46,0.55-0.9,0.83-1.34c0.07-0.11,0.13-0.22,0.2-0.32c0-0.01,0.01-0.02,0.02-0.03c-0.02,0.61-0.04,1.21,0,1.82
		c0.04,0.65,0.16,1.28,0.31,1.91c0.15,0.63,0.32,1.26,0.46,1.89c0.15,0.65,0.27,1.3,0.39,1.95c0.06,0.37,0.13,0.74,0.19,1.1
		c0.04,0.26,0.06,0.55,0.2,0.78c-0.01,0.01-0.02,0.01-0.04,0.02c-0.07,0.04-0.13,0.08-0.19,0.14c-0.49-0.99-0.89-2.01-1.21-3.07
		c-0.02-0.08-0.13-0.14-0.09-0.01c0.33,1.08,0.74,2.14,1.25,3.15c-0.06,0.07-0.11,0.16-0.13,0.25c-0.23-0.26-0.44-0.54-0.61-0.84
		c-0.25-0.43-0.44-0.9-0.65-1.35c-0.43-0.94-0.88-1.89-1.06-2.91c-0.09-0.54-0.1-1.08-0.09-1.62C21.1,10.35,21.07,9.8,21.31,9.33z
		 M15.58,11.56c0.24-0.14,0.5-0.28,0.76-0.4c0.52-0.26,1.05-0.5,1.6-0.71c1.03-0.41,2.09-0.74,3.16-1.04
		c-0.03,0.09-0.06,0.18-0.08,0.27c-0.54,0.15-1.08,0.32-1.6,0.54c-0.5,0.21-0.97,0.48-1.45,0.72c-0.24,0.12-0.49,0.2-0.76,0.26
		c-0.25,0.05-0.5,0.09-0.75,0.17c-0.48,0.16-0.92,0.42-1.3,0.76C15.15,11.86,15.39,11.67,15.58,11.56z M16.49,40.92
		c-0.01,0.1-0.02,0.32-0.09,0.39c-0.05,0.04-0.15,0.05-0.22,0.06c-0.08,0.02-0.16,0.04-0.25,0.05c-0.32,0.06-0.64,0.08-0.97,0.08
		c-0.16,0-0.32,0-0.48-0.03c-0.15-0.02-0.28-0.09-0.4-0.18c-0.03-0.38-0.06-0.76-0.1-1.14c0.01,0,0.02,0.01,0.02,0.01
		c0.18,0.08,0.37,0.11,0.57,0.11c0.51,0,1.03-0.03,1.54-0.07c0.14-0.01,0.27-0.02,0.4-0.03c0.01,0,0.01,0,0.02,0
		C16.54,40.43,16.52,40.67,16.49,40.92z M16.73,39.9c-0.15,0.14-0.45,0.11-0.64,0.13c-0.26,0.02-0.51,0.04-0.77,0.05
		c-0.27,0.01-0.54,0.02-0.82,0.02c-0.18,0-0.37-0.02-0.54-0.1c-0.4-0.18-0.72-0.6-0.95-0.96c-0.24-0.38-0.4-0.8-0.51-1.24
		c-0.24-1.01-0.16-2.07-0.05-3.09c0.11-1.04,0.24-2.07,0.36-3.11c0.26-2.08,0.52-4.16,0.75-6.24c0.11-1.04,0.22-2.09,0.3-3.14
		c0.08-1.04,0.13-2.09,0.2-3.13c0.14-2.12,0.48-4.23,0.84-6.32c0.02-0.12,0.03-0.24,0.06-0.36c0.01-0.05,0.02-0.09,0.07-0.12
		c0.01-0.01,0.05-0.02,0.08-0.03c0.38,1.49,0.75,2.98,1.05,4.49c0.16,0.76,0.18,1.53,0.19,2.31c0.01,0.77,0.02,1.53,0.04,2.3
		c0.05,3.04-0.02,6.09-0.05,9.13c-0.02,3.01,0.02,6.03,0.36,9.02c0.02,0.15,0.04,0.29,0.08,0.43C16.76,39.91,16.74,39.89,16.73,39.9
		z M24.8,40.94c-1.36,0-2.72-0.06-4.08-0.15c-0.75-0.05-1.5-0.11-2.25-0.17c-0.21-0.02-0.43-0.02-0.64-0.06
		c-0.18-0.04-0.35-0.08-0.53-0.11c-0.09-0.02-0.18-0.04-0.26-0.06c-0.05-0.14-0.1-0.28-0.14-0.42c-0.06-0.22-0.08-0.46-0.1-0.68
		c-0.05-0.45-0.09-0.9-0.13-1.35c-0.08-0.94-0.12-1.89-0.16-2.84c-0.06-1.86-0.05-3.72-0.03-5.58c0.02-1.87,0.06-3.73,0.06-5.6
		c0-0.94-0.02-1.87-0.03-2.8c-0.02-0.94-0.02-1.89-0.05-2.83c-0.04-1.03-0.28-2.02-0.51-3.02c-0.23-1-0.47-2-0.72-2.99c0,0,0,0,0,0
		c0.38-0.34,0.82-0.6,1.31-0.76c0.24-0.08,0.5-0.12,0.75-0.17c0.26-0.05,0.52-0.14,0.76-0.26c0.49-0.24,0.96-0.51,1.45-0.72
		c0.48-0.2,0.98-0.36,1.49-0.5c-0.05,0.44-0.04,0.89-0.04,1.33c0,0.48,0.04,0.95,0.14,1.42c0.22,1.01,0.66,1.95,1.09,2.89
		c0.2,0.43,0.38,0.89,0.63,1.29c0.16,0.27,0.34,0.52,0.54,0.76c-0.29-0.12-0.59,0.14-0.82,0.34c-0.36,0.32-0.73,0.64-1.12,0.93
		c-0.38,0.28-0.78,0.5-1.19,0.72c-0.31,0.17-0.8,0.42-0.89,0.81c-0.08,0.35,0.25,0.71,0.47,0.94c0.29,0.3,0.63,0.54,0.98,0.77
		c0.18,0.12,0.36,0.23,0.54,0.34c0.15,0.09,0.33,0.23,0.52,0.2c0.02,0,0.04-0.01,0.06-0.02c0.06,1.59,0.08,3.17,0.06,4.76
		c-0.01,1.31,0.03,2.75,1,3.76c0.23,0.24,0.5,0.45,0.8,0.6c0.16,0.08,0.33,0.15,0.49,0.23c0.15,0.08,0.28,0.14,0.46,0.13
		c0.04,0,0.02-0.06,0.02-0.08c-0.13-0.43-0.07-0.92-0.07-1.36c0-0.44,0.01-0.87,0.02-1.3c0.01-0.88,0.03-1.75,0.02-2.63
		c-0.01-1.8-0.01-3.6-0.06-5.4c-0.02-0.5-0.04-0.99-0.08-1.48c-0.02-0.17-0.03-0.34-0.12-0.48c-0.06-0.1-0.14-0.18-0.2-0.28
		c-0.06-0.11-0.08-0.22-0.08-0.34c0.05,0.04,0.12,0.08,0.18,0.09c0.15,0.02,0.26-0.07,0.32-0.2c0.21,0.14,0.17,0.46,0.16,0.68
		c0,0.24,0,0.49,0,0.73c0,0.46,0,0.93,0.02,1.39c0.02,0.91,0.08,1.82,0.12,2.73c0.06,1.73-0.03,3.45-0.11,5.17
		c-0.04,1.05-0.03,2.1-0.03,3.15c0,0.04,0.04,0.14,0.09,0.14c0,0,0,0,0.01,0c0.01,2.15-0.01,4.3-0.07,6.45
		c-0.02,0.62-0.04,1.24-0.06,1.86C24.79,40.92,24.79,40.93,24.8,40.94z M31.87,40.2c-0.74,0.17-1.47,0.31-2.22,0.42
		c-1.47,0.21-2.95,0.31-4.43,0.32c-0.1,0-0.2,0-0.31,0c0.08-2.16,0.12-4.31,0.13-6.47c0-0.62,0-1.24,0-1.86c0,0,0-0.01,0-0.01
		c0.32-0.03,0.65-0.15,0.9-0.36c0.3-0.24,0.54-0.6,0.76-0.92c0.44-0.64,0.8-1.35,0.98-2.11c0.36-1.53,0.12-3.15-0.25-4.65
		c-0.2-0.81-0.45-1.6-0.72-2.39c0.03,0.03,0.06,0.06,0.1,0.08c0.37,0.27,0.89,0.16,1.26-0.05c0.34-0.19,0.62-0.48,0.82-0.8
		c0.08-0.13,0.16-0.26,0.22-0.39c0.04-0.1,0.11-0.21,0.13-0.31c0.04-0.25-0.16-0.5-0.33-0.66c-0.3-0.28-0.65-0.49-0.99-0.71
		c-0.46-0.29-0.91-0.59-1.33-0.94c-0.25-0.21-0.51-0.39-0.78-0.55c0.56-0.66,0.82-1.54,1.13-2.33c0.34-0.89,0.68-1.78,0.94-2.7
		c0.24-0.83,0.39-1.68,0.28-2.54c-0.02-0.19-0.06-0.37-0.12-0.54c1.04,0.39,2.09,0.74,3.16,1.05c0.27,0.08,0.54,0.16,0.81,0.21
		c0.28,0.06,0.55,0.08,0.81,0.23c0.4,0.22,0.88,0.5,1.09,0.94c-0.59,1.31-1.03,2.68-1.31,4.08c-0.29,1.41-0.4,2.83-0.4,4.26
		c0.01,3.01,0.12,6.03,0.06,9.04c-0.03,1.49,0.01,2.98,0.09,4.48c0.08,1.47,0.17,2.95,0.08,4.42c-0.02,0.34-0.05,0.68-0.07,1.02
		c-0.01,0.16-0.02,0.33-0.03,0.5c-0.01,0.12-0.02,0.12-0.14,0.16C32.09,40.15,31.98,40.17,31.87,40.2z M35.11,41.36
		c-0.01,0.07-0.03,0.14-0.05,0.22c-0.01,0.06-0.02,0.17-0.06,0.22c-0.06,0.1-0.31,0.12-0.42,0.14c-0.57,0.12-1.17,0.09-1.74-0.04
		c-0.08-0.36-0.17-0.72-0.27-1.08c0.08,0,0.18-0.02,0.23-0.02c0.53-0.02,1.05,0.02,1.58-0.03c0.28-0.02,0.57-0.07,0.84-0.16
		C35.2,40.86,35.17,41.11,35.11,41.36z M36.56,38.07c-0.04,0.93-0.38,1.97-1.33,2.33c-0.45,0.17-0.94,0.2-1.41,0.21
		c-0.27,0-0.54,0-0.81,0c-0.1,0-0.2,0-0.3,0c-0.09,0-0.23,0.04-0.29,0c-0.06-0.04-0.1-0.12-0.14-0.17
		c-0.03-0.04-0.06-0.08-0.09-0.12c0.08-0.02,0.17-0.04,0.26-0.07c0.02,0,0.02-0.03,0.02-0.04c0.03-0.86,0.13-1.72,0.14-2.58
		c0.01-0.93-0.03-1.86-0.08-2.79c-0.04-0.94-0.1-1.87-0.13-2.81c-0.03-0.92,0-1.85,0.01-2.77c0.03-1.89,0-3.78-0.04-5.67
		c-0.02-1.84-0.11-3.7,0.09-5.53c0.23-2,0.77-3.97,1.59-5.81c0-0.01,0-0.03,0-0.04c0.04-0.04,0.11-0.06,0.17-0.05
		c0.16,0.03,0.15,0.26,0.16,0.38c0.04,0.29,0.07,0.58,0.11,0.88c0.06,0.56,0.13,1.12,0.2,1.68c0.14,1.12,0.27,2.24,0.38,3.36
		c0.11,1.11,0.21,2.21,0.3,3.32c0.08,1.08,0.12,2.16,0.2,3.24c0.15,2.19,0.38,4.36,0.66,6.54c0.07,0.54,0.15,1.07,0.2,1.61
		c0.05,0.54,0.08,1.09,0.09,1.63c0.02,0.55,0.02,1.09,0.03,1.64C36.55,37,36.59,37.53,36.56,38.07z M14.93,38.76
		c0,0.14-0.1,0.25-0.18,0.36c-0.12,0.15-0.23,0.3-0.34,0.45c-0.01,0.01-0.12-0.14-0.09-0.18c0.11-0.14,0.22-0.28,0.32-0.42
		c0.05-0.06,0.1-0.12,0.14-0.19c0.02-0.04,0.08-0.16,0.06-0.2c-0.02-0.04-0.11-0.07-0.14-0.08c-0.07-0.02-0.13-0.02-0.2-0.02
		c-0.15,0.01-0.29,0.06-0.42,0.13c-0.12,0.06-0.24,0.15-0.38,0.15c-0.12,0-0.23-0.07-0.32-0.14c-0.21-0.19-0.37-0.43-0.5-0.68
		c-0.01-0.01-0.04-0.09-0.02-0.1c0.02-0.02,0.06,0.06,0.07,0.08c0.08,0.16,0.18,0.3,0.3,0.43c0.11,0.12,0.24,0.24,0.41,0.23
		c0.16-0.01,0.3-0.13,0.44-0.2c0.13-0.06,0.27-0.09,0.41-0.08C14.73,38.32,14.94,38.5,14.93,38.76z M13.15,34.13
		c0.6-0.68,0.7-1.6,0.78-2.46c0.1-0.98,0.2-1.95,0.29-2.93c0.01-0.08,0.12,0.08,0.12,0.14c-0.1,0.99-0.2,1.99-0.3,2.99
		c-0.09,0.85-0.2,1.76-0.79,2.43C13.21,34.34,13.11,34.17,13.15,34.13z M35.75,38.3c0.06,0.24,0.05,0.49-0.04,0.72
		c-0.1,0.25-0.26,0.48-0.4,0.71c-0.06,0.11-0.25,0.54-0.43,0.37c-0.06-0.06-0.1-0.15-0.11-0.23c-0.01-0.11,0.05-0.2,0.07-0.3
		c0.01-0.03,0.06,0.04,0.06,0.05c0.02,0.04,0.04,0.08,0.04,0.12c-0.01,0.05-0.03,0.1-0.04,0.14c-0.01,0.02-0.02,0.04-0.02,0.06
		c0,0,0,0.01,0,0.02c0,0,0.01,0,0.02,0c0.02,0,0.04-0.01,0.06-0.02c0.04-0.03,0.07-0.07,0.1-0.1c0.11-0.17,0.21-0.35,0.31-0.52
		c0.1-0.17,0.22-0.34,0.28-0.53c0.06-0.2,0.06-0.4,0.02-0.59c-0.01-0.04,0.01-0.04,0.04-0.02C35.73,38.2,35.75,38.26,35.75,38.3z
		 M33.98,28.29c-0.08,1.65-0.17,3.31-0.67,4.9c-0.01,0.03-0.12-0.11-0.1-0.17c0.5-1.57,0.58-3.23,0.66-4.87
		C33.88,28.08,33.98,28.24,33.98,28.29z M18.82,36.77c-0.06,0.12-0.14,0.2-0.27,0.25c-0.04,0.02-0.08-0.08-0.08-0.1
		c-0.54-1.61-0.78-3.32-0.69-5.03c0-0.06,0.11,0.1,0.1,0.14c-0.08,1.62,0.12,3.24,0.63,4.79c0.1-0.05,0.16-0.12,0.21-0.22
		C18.74,36.57,18.84,36.73,18.82,36.77z M31.37,36.29c-0.31,1.1-0.06,2.33-0.6,3.37c-0.01,0.02-0.03,0-0.04-0.01
		c-0.12-0.12-0.21-0.25-0.28-0.4c-0.05-0.11,0-0.13,0.06-0.03c0.04,0.1,0.1,0.18,0.17,0.25c0.52-1.04,0.28-2.25,0.59-3.35
		C31.28,36.09,31.39,36.23,31.37,36.29z"/>
</g>
</svg>
