<?xml version="1.0" encoding="utf-8"?>
<!-- Generator: Adobe Illustrator 27.3.1, SVG Export Plug-In . SVG Version: 6.00 Build 0)  -->
<svg version="1.1" id="Layer_1" xmlns="http://www.w3.org/2000/svg" xmlns:xlink="http://www.w3.org/1999/xlink" x="0px" y="0px"
	 viewBox="0 0 50 50" style="enable-background:new 0 0 50 50;" xml:space="preserve">
<style type="text/css">
	.st0{fill:none;}
	.st1{stroke:#000000;stroke-miterlimit:10;}
	.st2{stroke:#000000;stroke-width:0.75;stroke-miterlimit:10;}
	.st3{clip-path:url(#SVGID_00000054257587791489443570000001046425753068396456_);}
	.st4{clip-path:url(#SVGID_00000128453736232335526340000009686167000131513778_);}
	.st5{fill:#FFFFFF;}
	.st6{clip-path:url(#SVGID_00000095308070185925618790000017896744160691977619_);}
	.st7{fill:#231F20;}
	.st8{clip-path:url(#SVGID_00000003066935642243111220000012956155128402950553_);}
	.st9{clip-path:url(#SVGID_00000060028454266625866050000002504590449388123579_);}
	.st10{clip-path:url(#SVGID_00000014624946371775634500000013995816340148113318_);}
	.st11{clip-path:url(#SVGID_00000034792233570928685850000004386605401787894453_);}
	.st12{clip-path:url(#SVGID_00000010275915159844108860000012336422226153955977_);}
	.st13{clip-path:url(#SVGID_00000063631407575710495920000002381155697525524125_);}
	.st14{clip-path:url(#SVGID_00000121261304489948046980000015013662406992187784_);}
	.st15{clip-path:url(#SVGID_00000044881648963998584380000014016052670400905113_);}
	.st16{clip-path:url(#SVGID_00000047750417177608910650000006681876183701843625_);}
	.st17{clip-path:url(#SVGID_00000159465529040398256490000017996884513368552117_);}
	.st18{clip-path:url(#SVGID_00000033334812020432810390000000882390135368620957_);}
	.st19{clip-path:url(#SVGID_00000085219193311565512030000010672755404087453331_);}
	.st20{clip-path:url(#SVGID_00000066509088608436287730000016332409085451952545_);}
	.st21{clip-path:url(#SVGID_00000107563150605358441450000000287264926566614415_);}
	.st22{clip-path:url(#SVGID_00000111187081486177030360000016774118332755969471_);}
	.st23{clip-path:url(#SVGID_00000172421474840213478810000017953782087739424386_);}
	.st24{clip-path:url(#SVGID_00000175292738053980607480000013732351288231799212_);}
	.st25{clip-path:url(#SVGID_00000163790573686343968390000007220483593688761526_);}
	.st26{clip-path:url(#SVGID_00000149371630606456147510000008833352234446276759_);}
	.st27{clip-path:url(#SVGID_00000034052755647142963900000012973241487105637038_);}
	.st28{clip-path:url(#SVGID_00000139985837535593624810000017967569369925968802_);}
	.st29{clip-path:url(#SVGID_00000077294402503638012940000014728889416529057679_);}
	.st30{clip-path:url(#SVGID_00000158746560029724142780000005194504567629829510_);}
	.st31{fill-rule:evenodd;clip-rule:evenodd;}
	.st32{clip-path:url(#SVGID_00000141437579548704964010000014200389261095494566_);}
	.st33{clip-path:url(#SVGID_00000168839865237786310680000012512120287901201336_);}
	.st34{stroke:#000000;stroke-width:0.5;stroke-miterlimit:10;}
	.st35{clip-path:url(#SVGID_00000072248760194489903010000001877624418312684693_);}
	.st36{clip-path:url(#SVGID_00000005983118523554914020000012840245123433161645_);}
	.st37{clip-path:url(#SVGID_00000025421883185016111670000012870378682908350103_);}
	.st38{fill:#1A1A1A;}
	.st39{clip-path:url(#SVGID_00000049943792614605948190000005300824644653522352_);}
	.st40{clip-path:url(#SVGID_00000012467591673024403510000009226157479774355871_);}
	.st41{clip-path:url(#SVGID_00000160161663308705254990000002369981378038041526_);}
	.st42{clip-path:url(#SVGID_00000178177034345127698930000010117619581296834222_);}
	.st43{clip-path:url(#SVGID_00000150088593505343945260000017198781808615617717_);}
	.st44{clip-path:url(#SVGID_00000032634793302157763710000011214972423946482849_);}
	.st45{clip-path:url(#SVGID_00000009575694291713581940000003663510273955149453_);}
	.st46{clip-path:url(#SVGID_00000028287711178610563040000017300382139331092894_);}
	.st47{clip-path:url(#SVGID_00000136378393171500563270000014030544928715691925_);}
	.st48{fill:#F1F1F1;}
	.st49{fill:#E8E8E8;}
	.st50{fill:#FEFEFE;}
	.st51{fill:#CCCCCC;}
	.st52{fill:#B3B3B3;}
	.st53{fill:#E6E6E6;}
	.st54{fill:#EBEBEB;}
	.st55{fill:#EEEEEE;}
	.st56{fill:#F8F8F8;}
	.st57{fill:#FBFBFB;}
	.st58{fill:#383838;}
	.st59{fill:#232323;}
	.st60{fill:#F6F6F6;}
	.st61{fill:#535353;}
	.st62{fill:#0A0A0A;}
	.st63{fill:#F5F5F5;}
	.st64{fill:#818181;}
	.st65{fill:#4A4A4A;}
	.st66{fill:#999999;}
	.st67{fill:url(#SVGID_00000150073358119796624790000006059746974698311814_);}
	.st68{fill:url(#SVGID_00000115516904709798736920000012966220694883675014_);}
	.st69{fill:#0E0E0D;}
	.st70{fill:#333333;}
	.st71{fill:#808080;}
	.st72{fill:url(#SVGID_00000032635407351424616790000012703234967817906854_);}
	.st73{fill:#666666;}
	.st74{fill:url(#SVGID_00000104675103441722022120000005833134248527506321_);}
	.st75{fill:url(#SVGID_00000113318388596171431830000016746412370301337736_);}
	.st76{fill:url(#SVGID_00000136408301639739337090000015328545227373238710_);}
	.st77{fill:url(#SVGID_00000121278021696846045890000010093672892505550779_);}
	.st78{fill:url(#SVGID_00000026856974586950167780000003844544060717995151_);}
	.st79{clip-path:url(#SVGID_00000159444533865644716560000013810250153984584085_);}
	.st80{clip-path:url(#SVGID_00000160896545084420848710000008670871917489123208_);}
	.st81{clip-path:url(#SVGID_00000114767969219176903250000011761580499710302597_);}
	.st82{clip-path:url(#SVGID_00000100350028876859011010000001081530898714274749_);}
	.st83{clip-path:url(#SVGID_00000106143559176794038880000017318997231019494591_);}
	.st84{fill:#241F20;stroke:#000000;stroke-width:0.5;stroke-miterlimit:10;}
	.st85{clip-path:url(#SVGID_00000033369360613824124660000011814269126433441162_);}
	.st86{clip-path:url(#SVGID_00000161630557499118405500000002165686941551090074_);}
	.st87{clip-path:url(#SVGID_00000109001689913537860290000010377670322193428900_);}
	.st88{clip-path:url(#SVGID_00000081640732277324462430000013696417855553797295_);}
	.st89{clip-path:url(#SVGID_00000017510330425705526540000005191129872491034527_);}
	.st90{clip-path:url(#SVGID_00000036931668480484392350000008488901439560159632_);}
	.st91{clip-path:url(#SVGID_00000078024628839638972650000000324572606637832895_);}
	.st92{clip-path:url(#SVGID_00000149359061830375635770000012245339408272423839_);}
	.st93{clip-path:url(#SVGID_00000052087345680026091360000016710159710191485065_);}
	.st94{clip-path:url(#SVGID_00000148634239011219871130000000924516331964838071_);}
	.st95{clip-path:url(#SVGID_00000130626433485964383480000003322934995616745384_);}
	.st96{clip-path:url(#SVGID_00000103242319920492038910000004238999496255352732_);}
	.st97{clip-path:url(#SVGID_00000078009182668493991130000001736242956249926077_);}
	.st98{clip-path:url(#SVGID_00000085228828546158518440000001814706715739890611_);}
	.st99{clip-path:url(#SVGID_00000118396985511749630090000015276871209775763638_);}
	.st100{clip-path:url(#SVGID_00000075853829864049983210000014050442424365444766_);}
	.st101{clip-path:url(#SVGID_00000014614206495335272980000015651767123155261334_);}
	.st102{clip-path:url(#SVGID_00000150793652370723480050000017339745584620115087_);}
	.st103{clip-path:url(#SVGID_00000162354646759746243190000011614043682296508081_);}
	.st104{clip-path:url(#SVGID_00000057128709264308112740000014546040289347334538_);}
	.st105{clip-path:url(#SVGID_00000152253204970984246650000001472345350681989264_);}
	.st106{clip-path:url(#SVGID_00000106850353887754758770000003841466733661083032_);}
	.st107{clip-path:url(#SVGID_00000057142111306232870810000004105785761931034044_);}
	.st108{clip-path:url(#SVGID_00000140720118220966172450000002272275381913513632_);}
	.st109{clip-path:url(#SVGID_00000054244453092221117630000007537025966279076782_);}
	.st110{clip-path:url(#SVGID_00000076563782646241238520000010625971541575742848_);}
	.st111{clip-path:url(#SVGID_00000097498912895655274010000013685594137326185886_);}
	.st112{clip-path:url(#SVGID_00000091000627248624955750000013287244240140604811_);}
	.st113{clip-path:url(#SVGID_00000173137342452874311360000011057367076871920825_);}
	.st114{clip-path:url(#SVGID_00000037665364978414744080000008304093711493072274_);}
	.st115{fill:#FFFFFF;stroke:#000000;stroke-miterlimit:10;}
	.st116{clip-path:url(#SVGID_00000096742656819912883230000002356111143974360740_);}
	.st117{clip-path:url(#SVGID_00000139274671598604898400000014250657892953222314_);}
	.st118{fill:none;stroke:#010101;stroke-miterlimit:10;}
	.st119{fill:#010101;stroke:#000000;stroke-miterlimit:10;}
	.st120{clip-path:url(#SVGID_00000058564301296367781320000000854560448375439512_);}
	.st121{fill:#010101;stroke:#010101;stroke-miterlimit:10;}
	.st122{clip-path:url(#SVGID_00000077288220475238829870000007505341286011964812_);}
	.st123{clip-path:url(#SVGID_00000132049868602368339150000005906588433165828506_);}
	.st124{clip-path:url(#SVGID_00000090977462432508490790000013088801759327129511_);}
	.st125{clip-path:url(#SVGID_00000177484260476510601590000006977003334834845598_);}
	.st126{clip-path:url(#SVGID_00000109739220919769134090000006558071858736357300_);}
	.st127{fill:none;stroke:#000000;stroke-width:3;stroke-miterlimit:10;}
	.st128{clip-path:url(#SVGID_00000072270401128530118270000007015509898623084447_);}
	.st129{clip-path:url(#SVGID_00000131350827733181582840000011827284451870420623_);}
	.st130{clip-path:url(#SVGID_00000096044223762863031470000010717245766049859725_);}
	.st131{clip-path:url(#SVGID_00000127750529510759735730000009509131140743095458_);}
	.st132{fill:#040606;}
	.st133{clip-path:url(#SVGID_00000124867020936684573840000006829165788560983988_);}
	.st134{clip-path:url(#SVGID_00000023988428570928633740000000244197365876085929_);}
	.st135{clip-path:url(#SVGID_00000119832312239717280400000008900153267517049476_);}
	.st136{clip-path:url(#SVGID_00000107550825558819476890000005451337943748070028_);}
	.st137{clip-path:url(#SVGID_00000014633268792999898870000014503517638582553222_);}
	.st138{clip-path:url(#SVGID_00000067924022155094217090000011699808665930679735_);}
	.st139{clip-path:url(#SVGID_00000044873791958276231440000002449328955421044369_);}
	.st140{fill:#FFFFFF;stroke:#000000;stroke-width:1.5;stroke-miterlimit:10;}
	.st141{clip-path:url(#SVGID_00000076587319245315318290000016159373478342444989_);}
	.st142{fill:#BDBCBC;}
	.st143{clip-path:url(#SVGID_00000076562308460564452500000008787935690030343607_);}
	.st144{fill:#2E2A2B;}
	.st145{clip-path:url(#SVGID_00000111886168067033172750000010864691899862690434_);}
	.st146{clip-path:url(#SVGID_00000134240462760607125760000005890353017320551564_);}
	.st147{clip-path:url(#SVGID_00000130625409401713447490000008380500190956166537_);}
	.st148{clip-path:url(#SVGID_00000130618692793801124990000002725488514731453343_);}
	.st149{clip-path:url(#SVGID_00000107570996232414722520000002725677913554272698_);}
	.st150{fill:#272324;}
	.st151{clip-path:url(#SVGID_00000098185771670095952070000000278270154754881419_);}
	.st152{clip-path:url(#SVGID_00000083791450060640143640000017884719420891494539_);}
	.st153{clip-path:url(#SVGID_00000164508414434533676350000012073099307782208409_);}
	.st154{clip-path:url(#SVGID_00000104688925077259117450000005306020832603850385_);}
	.st155{clip-path:url(#SVGID_00000050661322096641686560000012758622264544763069_);}
	.st156{clip-path:url(#SVGID_00000098924328011786481060000013403073908056758186_);}
	.st157{fill:none;stroke:#000000;stroke-width:0.8735;stroke-linecap:round;stroke-linejoin:round;stroke-miterlimit:10;}
	.st158{clip-path:url(#SVGID_00000097457972275889490790000005758440285675976086_);}
	.st159{clip-path:url(#SVGID_00000124858400479955893430000013486169125722073518_);}
	.st160{clip-path:url(#SVGID_00000097502274914864701040000017068628763624070802_);}
	.st161{clip-path:url(#SVGID_00000043429230214688498300000002423374903107808430_);}
	.st162{clip-path:url(#SVGID_00000053515705676259743520000002059015091348904345_);}
	.st163{clip-path:url(#SVGID_00000068635353570903673920000005260323537270892176_);}
	.st164{clip-path:url(#SVGID_00000162325630934696464370000007166252067448746894_);}
	.st165{clip-path:url(#SVGID_00000158008978036791909890000001714119206693723271_);}
	.st166{clip-path:url(#SVGID_00000029740741752520114560000017737014051735709106_);}
	.st167{clip-path:url(#SVGID_00000021107810633059485970000011419419076348192948_);}
	.st168{clip-path:url(#SVGID_00000063597820674977627330000009338372888486723480_);}
	.st169{clip-path:url(#SVGID_00000177483199581265086510000005078072529686547903_);}
	.st170{clip-path:url(#SVGID_00000174579662009748468780000018186050452075301550_);}
	.st171{clip-path:url(#SVGID_00000121966831955030075210000011175532634885064103_);}
	.st172{clip-path:url(#SVGID_00000017500786168917143040000016227105062373479065_);}
	.st173{clip-path:url(#SVGID_00000068663200930511900940000010619930356800138152_);}
	.st174{clip-path:url(#SVGID_00000164487388115126333260000002560939192565483917_);}
	.st175{clip-path:url(#SVGID_00000139259508665738681550000018225523805669126813_);}
	.st176{clip-path:url(#SVGID_00000008844878899329618750000008562015722056488841_);}
	.st177{clip-path:url(#SVGID_00000110434699019002119390000013863804467190960031_);}
	.st178{clip-path:url(#SVGID_00000179626391703686933100000011809456362257092745_);}
	.st179{clip-path:url(#SVGID_00000098220204264978952350000008338385717440856753_);}
	.st180{clip-path:url(#SVGID_00000016068125629443934660000017043743838035240077_);}
	.st181{clip-path:url(#SVGID_00000074419943841719414560000014915972505324988848_);}
	.st182{clip-path:url(#SVGID_00000133508130834758740450000002791232556901684917_);}
	.st183{clip-path:url(#SVGID_00000080175820137973160750000010737230778761179294_);}
	.st184{clip-path:url(#SVGID_00000183946725415991198780000014155098323747415726_);}
	.st185{clip-path:url(#SVGID_00000137134090207822042690000015294951412585443474_);}
	.st186{clip-path:url(#SVGID_00000001651162136712619060000010240371965132137407_);}
	.st187{clip-path:url(#SVGID_00000028292526147273776040000010036356837260852370_);}
	.st188{clip-path:url(#SVGID_00000067942959448355654450000015955732517000810652_);}
	.st189{clip-path:url(#SVGID_00000151511416522860593380000007804650806697615788_);}
	.st190{clip-path:url(#SVGID_00000158029963460490667920000015776728380225786798_);}
	.st191{clip-path:url(#SVGID_00000061457510121963388360000004766232722143259563_);}
	.st192{clip-path:url(#SVGID_00000151536396803901286660000018111222466210047624_);}
	.st193{clip-path:url(#SVGID_00000055705500929870936320000012419170357704912008_);}
	.st194{clip-path:url(#SVGID_00000020373292456810506080000000756581170141726618_);}
	.st195{clip-path:url(#SVGID_00000060729595702704026580000004760853374990432164_);}
	.st196{fill:#E5E5E5;}
	.st197{fill:#1D1D1B;}
	.st198{fill:none;stroke:#000000;stroke-miterlimit:10;}
	.st199{fill:#FEFEFE;stroke:#000000;stroke-miterlimit:10;}
	.st200{clip-path:url(#SVGID_00000085966403896388847670000016842036345031395249_);}
	.st201{clip-path:url(#SVGID_00000114059186000826697860000014241700741175077555_);}
	.st202{clip-path:url(#SVGID_00000109712689495809483820000003131735075421123999_);}
	.st203{fill:#231F1F;}
	.st204{fill:#020000;}
	.st205{clip-path:url(#SVGID_00000168800567881295348970000006510074914497654707_);}
	.st206{clip-path:url(#SVGID_00000057838013172863962490000003795728044162552234_);}
	.st207{clip-path:url(#SVGID_00000071534125084130286390000008243730462887731074_);}
	.st208{clip-path:url(#SVGID_00000047780470479802777150000000765335602604373149_);}
	.st209{fill:#050000;}
	.st210{clip-path:url(#SVGID_00000049913798456973970920000006806251988401671562_);}
	.st211{clip-path:url(#SVGID_00000031898827386900076390000016039253016630592915_);}
	.st212{clip-path:url(#SVGID_00000048461038779517665700000009816835102727731875_);}
	.st213{clip-path:url(#SVGID_00000142886053325302844090000018443175507969064624_);}
	.st214{clip-path:url(#SVGID_00000145770544673701724590000002708722106731286184_);}
	.st215{clip-path:url(#SVGID_00000180333555212194112550000009080208202790773435_);}
	.st216{fill:#12100F;}
	.st217{clip-path:url(#SVGID_00000082370392232801837320000001858688659385585800_);}
	.st218{clip-path:url(#SVGID_00000013189082079403914620000006999183536565253289_);}
	.st219{fill:none;stroke:#000000;stroke-width:0.5;stroke-miterlimit:10;}
	.st220{clip-path:url(#SVGID_00000112615628434026805180000005654353780077570228_);}
	.st221{clip-path:url(#SVGID_00000114046012226181196190000004456789803169399952_);}
	.st222{clip-path:url(#SVGID_00000044871535609805852130000007905935675996867514_);}
	.st223{clip-path:url(#SVGID_00000160877734206300966450000018018962165937373864_);}
	.st224{fill:none;stroke:#000000;stroke-width:0.25;stroke-miterlimit:10;}
	.st225{clip-path:url(#SVGID_00000140707062151814315950000010151463592765129619_);}
	.st226{clip-path:url(#SVGID_00000150072896182761259890000011492983392647708324_);}
	.st227{clip-path:url(#SVGID_00000098207490682491369160000002719039417287927704_);}
</style>
<g>
	<defs>
		<rect id="SVGID_00000146490870108674486550000012038589977771530401_" x="14.96" y="7.51" width="23.08" height="35.34"/>
	</defs>
	<clipPath id="SVGID_00000008145542236382858260000017941795047020925885_">
		<use xlink:href="#SVGID_00000146490870108674486550000012038589977771530401_"  style="overflow:visible;"/>
	</clipPath>
	<g style="clip-path:url(#SVGID_00000008145542236382858260000017941795047020925885_);">
		<path d="M24.23,22.39c-0.05,0.52-0.11,1.04-0.11,1.56c0,1.55,0.03,3.1,0.1,4.65c0.06,1.12,0.16,2.22,0.3,3.32
			c0.16,1.16,0.24,2.33,0.37,3.49c0.08,0.71,0.06,1.42,0.01,2.13c-0.08,0.98-0.15,1.96-0.32,2.93c-0.06,0.38-0.15,0.75-0.26,1.12
			c-0.08,0.27-0.04,0.34,0.23,0.38c0.42,0.06,0.84,0,1.27-0.03c-0.05-0.28,0-0.53,0.07-0.77c0.3-1.02,0.38-2.08,0.5-3.13
			c0.32-2.79,0.31-5.6,0.3-8.41c-0.01-2.1,0.13-4.19,0.13-6.29c0-0.26,0.08-0.52,0.08-0.78c0,1.17,0.02,2.34-0.01,3.5
			c-0.03,1.53,0.02,3.06,0.01,4.59c-0.02,1.72-0.02,3.45-0.14,5.17c-0.1,1.44-0.21,2.87-0.45,4.3c-0.07,0.42-0.19,0.83-0.3,1.24
			c-0.11,0.4-0.04,0.63,0.46,0.84c0.63,0.27,1.31,0.33,1.98,0.42c1.01,0.13,2,0.02,2.98-0.2c0.35-0.08,0.69-0.16,1.03-0.26
			c0.42-0.13,0.79-0.35,1.11-0.65c0.12-0.12,0.17-0.23,0.12-0.41c-0.14-0.49-0.27-0.99-0.47-1.47c-0.23-0.56-0.39-1.13-0.53-1.72
			c-0.13-0.56-0.29-1.1-0.47-1.64c-0.31-0.9-0.47-1.84-0.75-2.75c-0.35-1.12-0.48-2.29-0.75-3.42c-0.27-1.14-0.41-2.3-0.66-3.44
			c-0.17-0.75-0.38-1.48-0.55-2.23c-0.11-0.51-0.18-1.03-0.24-1.55c0.11,0.18,0.13,0.39,0.16,0.59c0.11,0.72,0.28,1.44,0.49,2.14
			c0.33,1.08,0.47,2.2,0.73,3.29c0.32,1.33,0.5,2.69,0.86,4c0.3,1.06,0.51,2.15,0.86,3.2c0.21,0.63,0.41,1.27,0.55,1.92
			c0.13,0.59,0.32,1.16,0.55,1.71c0.18,0.44,0.27,0.9,0.39,1.35c0.05,0.17-0.04,0.29-0.08,0.45c0.27,0.05,0.52-0.03,0.77-0.08
			c0.47-0.09,0.92-0.25,1.36-0.44c0.09-0.04,0.18-0.1,0.26-0.15c0.09-0.06,0.12-0.14,0.08-0.25c-0.38-0.84-0.58-1.74-0.95-2.58
			c-0.12-0.27-0.2-0.56-0.28-0.84c-0.26-0.97-0.55-1.93-0.86-2.89c-0.28-0.88-0.35-1.8-0.6-2.68c-0.48-1.71-0.91-3.42-1.45-5.11
			c-0.24-0.76-0.46-1.53-0.74-2.28c-0.2-0.53-0.33-1.08-0.38-1.65c0.06,0.21,0.12,0.42,0.18,0.64c0.09,0.39,0.22,0.78,0.37,1.16
			c0.51,1.35,0.95,2.73,1.34,4.11c0.31,1.12,0.69,2.21,0.95,3.34c0.17,0.77,0.26,1.55,0.5,2.3c0.36,1.12,0.63,2.25,1.02,3.36
			c0.34,0.98,0.71,1.95,1.04,2.93c0.12,0.34,0.1,0.46-0.21,0.65c-0.29,0.17-0.6,0.29-0.92,0.39c-0.5,0.15-1.01,0.28-1.54,0.24
			c-0.09-0.01-0.15,0.03-0.21,0.08c-0.48,0.39-1.06,0.57-1.66,0.71c-0.87,0.2-1.75,0.33-2.64,0.29c-0.85-0.04-1.69-0.11-2.51-0.35
			c-0.22-0.06-0.45-0.14-0.63-0.28c-0.08-0.06-0.16-0.08-0.27-0.06c-0.38,0.06-0.75,0.05-1.13,0.02c-0.19-0.02-0.38-0.06-0.49-0.23
			c-0.07-0.11-0.18-0.12-0.29-0.12c-0.42-0.01-0.85-0.01-1.27-0.02c-1.34-0.05-2.67-0.02-4-0.02c-0.25,0-0.49-0.01-0.73-0.06
			c-0.12-0.02-0.24-0.05-0.35-0.11c-0.25-0.13-0.33-0.25-0.27-0.52c0.03-0.17-0.02-0.23-0.18-0.27c-0.32-0.09-0.64-0.19-0.95-0.29
			c-0.2-0.06-0.4-0.14-0.57-0.26c-0.17-0.12-0.23-0.26-0.15-0.45c0.1-0.26,0.2-0.51,0.3-0.76c0.2-0.5,0.4-1,0.61-1.49
			c0.06-0.15,0.04-0.22-0.11-0.3c-0.39-0.24-0.71-0.56-1-0.91c-0.09-0.11-0.15-0.24-0.2-0.38c-0.04-0.12-0.02-0.23,0.03-0.35
			c0.22-0.49,0.57-0.91,0.82-1.39c0.26-0.5,0.51-1.01,0.74-1.54c0.74-1.75,1.4-3.54,1.98-5.35c0.12-0.38,0.17-0.77,0.29-1.15
			c0.24-0.79,0.63-1.51,1.12-2.18c0.58-0.78,0.88-1.68,1.22-2.57c0.03-0.07,0.05-0.15,0.06-0.22c0.02-0.12,0.12-0.23,0.08-0.35
			c-0.05-0.12-0.2-0.08-0.29-0.12c-0.12-0.05-0.18-0.13-0.17-0.25c0.01-0.1,0.03-0.2,0.03-0.29c0.02-0.17,0.08-0.36-0.17-0.42
			c-0.69-0.68-0.83-1.55-0.38-2.4c0.11-0.21,0.22-0.43,0.36-0.63c0.36-0.51,0.6-1.07,0.81-1.65c0.14-0.38,0.19-0.78,0.2-1.19
			c0.03-1.16-0.08-2.31-0.12-3.47c0-0.09,0.02-0.18-0.12-0.23c-0.12-0.04-0.17-0.17-0.21-0.28c-0.13-0.42-0.18-0.86-0.2-1.29
			c0-0.12,0.03-0.19,0.16-0.2c0.12-0.01,0.18-0.07,0.17-0.19c0-0.05,0-0.09,0.01-0.13c0.09-0.46,0.26-0.58,0.73-0.54
			c0.22,0.02,0.44,0.08,0.65,0.15c1.18,0.38,2.18,1.03,3.05,1.89c0.33,0.33,0.34,0.33,0.67,0c0.77-0.76,1.67-1.34,2.67-1.76
			c0.43-0.18,0.89-0.28,1.36-0.3c0.15,0,0.26,0.04,0.32,0.17c0.06,0.13,0.13,0.26,0.18,0.39c0.06,0.16,0.06,0.34,0.27,0.42
			c0.08,0.03,0.07,0.15,0.06,0.24c-0.01,0.41-0.05,0.82-0.25,1.18c-0.13,0.23-0.13,0.45-0.11,0.69c0.06,0.59,0.1,1.17,0.09,1.77
			c-0.01,0.41-0.08,0.83,0,1.24c0,0.02,0,0.05,0,0.07c-0.21,0.63,0.02,1.19,0.28,1.75c0.33,0.7,0.71,1.39,1.08,2.07
			c0.4,0.74,0.35,1.23-0.23,1.85c-0.19,0.21-0.32,0.4-0.23,0.7c0.04,0.13,0.04,0.28,0.03,0.42c0,0.24-0.08,0.31-0.32,0.33
			c-0.14,0.02-0.29-0.02-0.44,0.03c0.01,0.16,0.1,0.29,0.17,0.42c0.35,0.66,0.62,1.36,0.89,2.05c0.05,0.13,0.11,0.26,0.19,0.38
			c0.62,0.99,1.04,2.07,1.47,3.15c0.22,0.55,0.45,1.09,0.69,1.63c0.24,0.54,0.47,1.09,0.66,1.64c0.39,1.09,0.9,2.11,1.43,3.13
			c0.39,0.75,0.68,1.54,1.08,2.29c0.17,0.32,0.11,0.59-0.13,0.87c-0.34,0.4-0.77,0.65-1.24,0.85c-0.23,0.1-0.24,0.1-0.13,0.33
			c0.17,0.37,0.33,0.74,0.51,1.1c0.28,0.57,0.12,1-0.51,1.29c0.02-0.15,0.13-0.21,0.2-0.29c0.35-0.36,0.36-0.5,0.14-0.93
			c-0.53-1.05-0.98-2.12-1.37-3.23c-0.63-1.74-1.11-3.52-1.59-5.31c-0.23-0.82-0.57-1.61-0.76-2.44c-0.25-1.11-0.61-2.19-0.94-3.27
			c-0.02-0.05-0.04-0.1,0-0.19c0.25,0.68,0.54,1.33,0.72,2.01c0.38,1.42,0.88,2.79,1.28,4.2c0.29,0.98,0.48,1.99,0.82,2.97
			c0.38,1.12,0.77,2.23,1.17,3.34c0.15,0.41,0.17,0.41,0.57,0.2c0.39-0.2,0.74-0.43,1.02-0.77c0.17-0.2,0.21-0.4,0.09-0.63
			c-0.38-0.7-0.65-1.46-1.03-2.17c-0.62-1.18-1.21-2.38-1.65-3.65c-0.02-0.06-0.04-0.12-0.07-0.18c-0.73-1.63-1.35-3.3-2.09-4.92
			c-0.17-0.36-0.35-0.71-0.57-1.04c-0.16-0.24-0.29-0.49-0.39-0.76c-0.5-1.23-1.03-2.44-1.65-3.61c-0.43-0.82-0.85-1.63-1.31-2.43
			c-0.41-0.72-0.57-1.46-0.55-2.26c0.01-0.4,0.12-0.8,0.23-1.19c0.09-0.34,0.18-0.68,0.26-1.02c-0.14-0.08-0.2,0.13-0.33,0.08
			c-0.02-0.02-0.02-0.03,0-0.05c0.71-0.53,0.9-1.3,1.01-2.1c0.07-0.49,0.06-0.5-0.44-0.55c-0.71-0.08-1.42-0.02-2.12,0.13
			C27,9.93,26.97,9.94,26.94,9.95c-0.47,0.16-0.92,0.15-1.39,0c-0.74-0.22-1.52-0.14-2.29-0.11c-0.11,0-0.2,0.03-0.18,0.17
			c0.11,0.59,0.18,1.19,0.46,1.74c0.17,0.33,0.43,0.58,0.76,0.8c-0.14,0.06-0.21-0.03-0.29-0.06c-0.09-0.03-0.14-0.14-0.28-0.12
			c0.07,0.27,0.14,0.53,0.2,0.79c0.06,0.26,0.13,0.51,0.17,0.77c0.15,0.84-0.06,1.6-0.48,2.33c-0.29,0.5-0.59,1-0.86,1.51
			c-0.34,0.65-0.63,1.32-0.83,2.03c-0.09,0.3-0.24,0.59-0.34,0.89c-0.26,0.77-0.57,1.53-0.86,2.3c-0.14,0.36-0.32,0.69-0.55,1.01
			c-0.57,0.77-1.07,1.57-1.28,2.5c-0.26,1.17-0.63,2.3-1.01,3.43c-0.15,0.44-0.33,0.88-0.51,1.31c-0.48,1.13-0.9,2.28-1.54,3.34
			c-0.2,0.33-0.44,0.62-0.62,0.97c-0.12,0.24-0.1,0.44,0.06,0.63c0.27,0.35,0.6,0.64,0.96,0.91c0.21,0.16,0.23,0.15,0.33-0.09
			c0.18-0.44,0.38-0.86,0.53-1.31c0.53-1.52,1.08-3.03,1.45-4.59c0.45-1.87,1.01-3.71,1.53-5.56c0.18-0.66,0.44-1.3,0.74-1.93
			c0.06-0.11,0.1-0.24,0.2-0.33c0.04,0.05,0.01,0.08-0.01,0.12c-0.46,0.94-0.78,1.93-1.05,2.93c-0.36,1.32-0.75,2.63-1.06,3.96
			c-0.22,0.97-0.5,1.93-0.82,2.87c-0.2,0.59-0.36,1.19-0.55,1.79c-0.34,1.05-0.82,2.05-1.24,3.07c-0.23,0.56-0.47,1.11-0.71,1.66
			c-0.14,0.33-0.09,0.45,0.25,0.58c0.24,0.09,0.49,0.14,0.73,0.21c0.2,0.06,0.4,0.13,0.6,0.2c0.14,0.05,0.22,0.02,0.29-0.13
			c0.39-0.85,0.78-1.71,1.03-2.62c0.22-0.83,0.59-1.63,0.78-2.47c0.33-1.43,0.61-2.86,0.87-4.3c0.2-1.11,0.27-2.23,0.47-3.34
			c0.18-1.04,0.3-2.1,0.59-3.12c0.03-0.08,0.06-0.17,0.11-0.24c-0.09,0.44-0.18,0.89-0.26,1.34c-0.21,1.27-0.37,2.55-0.51,3.83
			c-0.15,1.37-0.47,2.71-0.7,4.07c-0.32,1.8-0.97,3.51-1.5,5.26c-0.09,0.3-0.22,0.59-0.38,0.87c-0.2,0.36-0.36,0.75-0.51,1.14
			c-0.14,0.34-0.04,0.51,0.33,0.59c0.19,0.04,0.38,0.06,0.56,0.05c1.62-0.08,3.23-0.01,4.84,0.01c0.25,0,0.49,0.01,0.74,0.02
			c0.27,0.02,0.27,0.02,0.33-0.24c0.17-0.69,0.28-1.39,0.35-2.1c0.07-0.72,0.14-1.43,0.18-2.15c0.05-0.83-0.05-1.66-0.12-2.49
			c-0.12-1.31-0.31-2.62-0.44-3.94c-0.17-1.62-0.24-3.24-0.2-4.87c0.02-0.82-0.03-1.64,0.06-2.46
			C24.09,23.02,24.11,22.7,24.23,22.39z M31.99,19.36c0.53-0.44,0.68-1,0.42-1.54c-0.47-0.97-1.05-1.87-1.41-2.89
			c-0.03-0.09-0.09-0.12-0.18-0.08c-0.29,0.12-0.6,0.11-0.92,0.1c-0.24-0.01-0.25,0-0.24,0.23c0.01,0.6-0.11,1.19-0.17,1.79
			c-0.01,0.06,0.03,0.15-0.08,0.19c-0.05-0.12-0.04-0.24-0.02-0.36c0.11-0.89,0.13-1.78,0.15-2.68c0.01-0.3,0-0.59-0.09-0.88
			c-0.08-0.3-0.12-0.6-0.17-0.9c-0.01-0.07,0.03-0.15-0.07-0.21c-0.11,0.1-0.13,0.23-0.16,0.35c-0.12,0.48-0.21,0.96-0.34,1.43
			c-0.27,1.05-0.09,2.03,0.41,2.97c0.5,0.93,1.08,1.81,1.55,2.75c0.02,0.05,0.05,0.1,0.14,0.08c-0.03-0.21-0.05-0.43-0.08-0.64
			c-0.03-0.21-0.1-0.42-0.06-0.65c0.12,0.05,0.11,0.14,0.12,0.23c0.05,0.3,0.09,0.6,0.12,0.91c0.01,0.15,0.08,0.18,0.21,0.17
			c0.23-0.02,0.3-0.06,0.29-0.21c-0.01-0.16-0.03-0.32,0.01-0.51c0.13,0.15,0.08,0.3,0.12,0.43c0.02,0.08,0.04,0.15,0.14,0.15
			c0.09,0,0.11-0.06,0.12-0.13c0.08-0.29,0.16-0.57,0.23-0.85c0.03-0.1,0.09-0.23-0.01-0.3c-0.12-0.08-0.15,0.13-0.26,0.13
			c-0.01-0.12,0.05-0.19,0.12-0.26c0.14-0.13,0.27-0.09,0.31,0.1c0.03,0.15,0,0.3-0.04,0.45C32.1,18.93,32.05,19.13,31.99,19.36z
			 M21.83,14.76c-0.12,0.16-0.18,0.33-0.24,0.51c-0.18,0.53-0.39,1.04-0.72,1.5c-0.18,0.25-0.32,0.52-0.45,0.8
			c-0.35,0.72-0.22,1.37,0.37,1.94c-0.01-0.14-0.08-0.24-0.13-0.35c-0.11-0.21-0.15-0.44-0.16-0.66c-0.01-0.26,0.08-0.41,0.21-0.42
			c0.15-0.01,0.24,0.13,0.25,0.46c-0.03-0.05-0.05-0.08-0.07-0.1c-0.05-0.08-0.05-0.23-0.17-0.2c-0.14,0.03-0.08,0.18-0.09,0.28
			c0,0.02,0,0.05,0,0.07c-0.01,0.38,0.26,0.66,0.35,1.01c0.01,0.05,0.07,0.06,0.11,0.05c0.05-0.01,0.07-0.05,0.07-0.09
			c0-0.14,0-0.27,0.07-0.41c0.08,0.09,0.03,0.17,0.03,0.24c-0.02,0.35,0.03,0.39,0.38,0.36c0.17-0.01,0.18-0.14,0.21-0.25
			c0.23-0.69,0.51-1.34,0.88-1.98c0.16-0.27,0.32-0.55,0.49-0.82c0.05-0.08,0.12-0.15,0.08-0.27c-0.16-0.44-0.25-0.88-0.24-1.34
			c0-0.15-0.04-0.23-0.21-0.21C22.49,14.94,22.16,14.88,21.83,14.76z M21.84,12.87c0,0.26,0,0.53,0,0.79c0,0.31,0.04,0.36,0.36,0.38
			c0.23,0.02,0.47,0.02,0.7,0.03c0.26,0,0.29-0.02,0.28-0.27c-0.01-0.42,0.04-0.83,0.14-1.23c0.1-0.38,0.11-0.73-0.06-1.1
			c-0.19-0.43-0.23-0.91-0.27-1.37c-0.02-0.16-0.09-0.21-0.24-0.18c-0.2,0.04-0.39,0.09-0.59,0.13c-0.51,0.11-0.47,0.05-0.45,0.56
			C21.76,11.35,21.84,12.11,21.84,12.87z M30.95,12.01c0.02-0.57-0.05-1.12-0.06-1.68c0-0.14-0.04-0.22-0.19-0.25
			c-0.23-0.04-0.45-0.11-0.68-0.16c-0.29-0.06-0.29-0.06-0.32,0.23c-0.05,0.5-0.04,1.01-0.23,1.48c-0.09,0.21-0.08,0.42-0.06,0.64
			c0.05,0.54,0.28,1.06,0.29,1.6c0,0.14,0.09,0.16,0.2,0.15c0.24-0.02,0.49-0.03,0.73-0.05c0.26-0.02,0.36-0.12,0.34-0.37
			C30.92,13.07,30.98,12.54,30.95,12.01z M26.44,9.87c0.2,0.05,0.32-0.02,0.43-0.05c0.45-0.11,0.92-0.16,1.38-0.18
			c0.84-0.04,1.66,0.11,2.46,0.35c0.26,0.08,0.26,0.07,0.35-0.18c0.1-0.27,0.13-0.55,0.18-0.83c0.07-0.45,0.05-0.47-0.42-0.49
			c-1.44-0.06-2.72,0.41-3.95,1.1C26.74,9.67,26.62,9.76,26.44,9.87z M21.48,10.08c0.48-0.15,0.94-0.27,1.41-0.33
			c0.48-0.07,0.97-0.06,1.46-0.06c0.46,0,0.92,0.09,1.42,0.16c-0.06-0.07-0.06-0.09-0.08-0.1c-1.32-0.8-2.76-1.17-4.3-1.2
			c-0.2,0-0.24,0.04-0.21,0.24c0.05,0.35,0.08,0.69,0.17,1.03C21.39,9.91,21.41,10.01,21.48,10.08z M23.53,12.3
			c-0.02,0.04-0.05,0.07-0.05,0.11c-0.07,0.44-0.15,0.88-0.15,1.33c0,0.11,0.01,0.22-0.04,0.32c-0.1,0.2-0.1,0.42-0.12,0.63
			c-0.04,0.53,0.04,1.04,0.16,1.56c0.01,0.04,0.03,0.08,0.11,0.07c0.14-0.23,0.26-0.49,0.36-0.75c0.42-1.12,0.13-2.19-0.23-3.25
			C23.56,12.31,23.55,12.31,23.53,12.3z M31,8.4c-0.08-0.26-0.17-0.46-0.27-0.65c-0.05-0.09-0.11-0.15-0.24-0.13
			c-0.5,0.09-1,0.19-1.46,0.41c-0.65,0.31-1.26,0.69-1.83,1.12c-0.05,0.03-0.12,0.06-0.1,0.17c0.6-0.3,1.21-0.56,1.85-0.73
			C29.61,8.41,30.27,8.36,31,8.4z M25.21,9.2c-0.3-0.21-0.56-0.41-0.83-0.58c-0.71-0.43-1.47-0.77-2.29-0.93
			c-0.34-0.07-0.4-0.02-0.51,0.3c-0.01,0.03-0.02,0.06-0.03,0.09c-0.09,0.3-0.07,0.33,0.26,0.34C22.93,8.46,24,8.69,25,9.2
			C25.05,9.22,25.09,9.27,25.21,9.2z M30.19,14.16c-0.07,0-0.14,0-0.2,0c-0.3,0-0.3,0-0.32,0.31c0,0.05,0,0.11,0,0.16
			c0,0.11,0.05,0.16,0.16,0.17c0.33,0.03,0.66,0,0.98-0.1c0.11-0.03,0.14-0.1,0.13-0.2c-0.01-0.08-0.02-0.15-0.03-0.23
			c-0.02-0.13-0.06-0.2-0.22-0.15C30.52,14.18,30.35,14.16,30.19,14.16z M22.53,14.78c0.49-0.01,0.54-0.05,0.57-0.48
			c0.01-0.1-0.02-0.15-0.12-0.14c-0.34,0.03-0.68,0.02-1.02-0.06c-0.06-0.01-0.1,0-0.13,0.06c-0.12,0.26-0.03,0.47,0.24,0.55
			C22.23,14.76,22.39,14.78,22.53,14.78z M30.88,19.91c-0.03,0.08-0.01,0.12,0.01,0.16c0.07,0.16,0.14,0.32,0.22,0.48
			c0.07,0.14,0.64,0.16,0.71,0.03c0.02-0.03,0.02-0.06,0.02-0.09c0-0.19,0-0.37-0.01-0.56c0-0.11-0.06-0.18-0.17-0.13
			C31.42,19.9,31.15,19.91,30.88,19.91z M21.06,19.82c-0.02,0.21-0.05,0.41-0.07,0.61c-0.02,0.15,0.09,0.18,0.2,0.21
			c0.11,0.02,0.23,0.08,0.28-0.08c0.07-0.22,0.2-0.43,0.21-0.68C21.47,19.85,21.27,19.84,21.06,19.82z"/>
	</g>
</g>
</svg>
