<?xml version="1.0" encoding="utf-8"?>
<!-- Generator: Adobe Illustrator 27.3.1, SVG Export Plug-In . SVG Version: 6.00 Build 0)  -->
<svg version="1.1" id="Layer_1" xmlns="http://www.w3.org/2000/svg" xmlns:xlink="http://www.w3.org/1999/xlink" x="0px" y="0px"
	 viewBox="0 0 50 50" style="enable-background:new 0 0 50 50;" xml:space="preserve">
<style type="text/css">
	.st0{fill:none;}
	.st1{stroke:#000000;stroke-miterlimit:10;}
	.st2{stroke:#000000;stroke-width:0.75;stroke-miterlimit:10;}
	.st3{clip-path:url(#SVGID_00000116230372085668925770000002680893871265808551_);}
	.st4{clip-path:url(#SVGID_00000009576855838638635170000004191770256766511771_);}
	.st5{fill:#FFFFFF;}
	.st6{clip-path:url(#SVGID_00000162353809761019729130000004377447070497722268_);}
	.st7{fill:#231F20;}
	.st8{clip-path:url(#SVGID_00000168826309810704337850000018055565772867945384_);}
	.st9{clip-path:url(#SVGID_00000134221837967839725610000005363113211374468523_);}
	.st10{clip-path:url(#SVGID_00000016779620646259465500000018298110897367275648_);}
	.st11{clip-path:url(#SVGID_00000038389093985074561130000015098755477441576099_);}
	.st12{clip-path:url(#SVGID_00000094580023757909740870000013875573113793637556_);}
	.st13{clip-path:url(#SVGID_00000139275285236616555650000005632835106065642428_);}
	.st14{clip-path:url(#SVGID_00000131352535314099879710000010279899196350245036_);}
	.st15{clip-path:url(#SVGID_00000023280805443539129880000017209738386150182317_);}
	.st16{clip-path:url(#SVGID_00000041274347726769139490000011303822742992756358_);}
	.st17{clip-path:url(#SVGID_00000147192491326815266160000008804316368260897448_);}
	.st18{clip-path:url(#SVGID_00000064342341167324397560000004396671994907875977_);}
	.st19{clip-path:url(#SVGID_00000080892713431385480440000006257630286374490042_);}
	.st20{clip-path:url(#SVGID_00000155858318303482688240000011620854641672209062_);}
	.st21{clip-path:url(#SVGID_00000164502332680458353210000006776690083088070299_);}
	.st22{clip-path:url(#SVGID_00000065780267345618344940000004403273038710719403_);}
	.st23{clip-path:url(#SVGID_00000017510575857780678420000003737416542118143900_);}
	.st24{clip-path:url(#SVGID_00000145736495795996189560000001247103671543547557_);}
	.st25{clip-path:url(#SVGID_00000025431376571368909720000005319398521891135411_);}
	.st26{clip-path:url(#SVGID_00000052787029619078246230000017169078414798257559_);}
	.st27{clip-path:url(#SVGID_00000072985040894613897680000012552630369160224690_);}
	.st28{clip-path:url(#SVGID_00000149360902688244403900000010878217274229053863_);}
	.st29{clip-path:url(#SVGID_00000129886560073174421460000016779674040052958624_);}
	.st30{clip-path:url(#SVGID_00000178927758172617222940000012457459110013793682_);}
	.st31{fill-rule:evenodd;clip-rule:evenodd;}
	.st32{clip-path:url(#SVGID_00000165211106567750438510000006650710085703237787_);}
	.st33{clip-path:url(#SVGID_00000034088473545654386510000003923029079888462726_);}
	.st34{stroke:#000000;stroke-width:0.5;stroke-miterlimit:10;}
	.st35{clip-path:url(#SVGID_00000123416289485787494120000017737445542325323711_);}
	.st36{clip-path:url(#SVGID_00000131349603372047366470000007462304504451803312_);}
	.st37{clip-path:url(#SVGID_00000070805295772494204120000003071421827095840178_);}
	.st38{fill:#1A1A1A;}
	.st39{clip-path:url(#SVGID_00000121257374259845880260000008355109455034584722_);}
	.st40{clip-path:url(#SVGID_00000052814552609091385190000004629171267153475517_);}
	.st41{clip-path:url(#SVGID_00000101094476560961826460000001451301066115514765_);}
	.st42{clip-path:url(#SVGID_00000090993970673325699200000017776929347109009586_);}
	.st43{clip-path:url(#SVGID_00000051355134334699187050000008163418496620277120_);}
	.st44{clip-path:url(#SVGID_00000000218658467271164850000002726210772517972654_);}
	.st45{clip-path:url(#SVGID_00000090256522029375296250000010606950192669618337_);}
	.st46{clip-path:url(#SVGID_00000021077594322661768430000000207452131777746367_);}
	.st47{clip-path:url(#SVGID_00000080166369911104734530000012347217670510318216_);}
	.st48{fill:#F1F1F1;}
	.st49{fill:#E8E8E8;}
	.st50{fill:#FEFEFE;}
	.st51{fill:#CCCCCC;}
	.st52{fill:#B3B3B3;}
	.st53{fill:#E6E6E6;}
	.st54{fill:#EBEBEB;}
	.st55{fill:#EEEEEE;}
	.st56{fill:#F8F8F8;}
	.st57{fill:#FBFBFB;}
	.st58{fill:#383838;}
	.st59{fill:#232323;}
	.st60{fill:#F6F6F6;}
	.st61{fill:#535353;}
	.st62{fill:#0A0A0A;}
	.st63{fill:#F5F5F5;}
	.st64{fill:#818181;}
	.st65{fill:#4A4A4A;}
	.st66{fill:#999999;}
	.st67{fill:url(#SVGID_00000062870648352165406550000003474714557138673050_);}
	.st68{fill:url(#SVGID_00000075873546841927589100000002220448641652727222_);}
	.st69{fill:#0E0E0D;}
	.st70{fill:#333333;}
	.st71{fill:#808080;}
	.st72{fill:url(#SVGID_00000082350324400996605460000014375022800909697414_);}
	.st73{fill:#666666;}
	.st74{fill:url(#SVGID_00000150083172614584868080000010764395147419370907_);}
	.st75{fill:url(#SVGID_00000045585613294340468210000015743176216563003322_);}
	.st76{fill:url(#SVGID_00000121978319479438259560000001414902876069927845_);}
	.st77{fill:url(#SVGID_00000091002924654096207930000016460624570438168742_);}
	.st78{fill:url(#SVGID_00000027604502287966601520000000230813446849768583_);}
	.st79{clip-path:url(#SVGID_00000147196829214503440320000013649885910599476372_);}
	.st80{clip-path:url(#SVGID_00000148661331529218778600000000082991111862913423_);}
	.st81{clip-path:url(#SVGID_00000119077665395014010020000010259694290472350115_);}
	.st82{clip-path:url(#SVGID_00000135685627780135536800000008699274092445085063_);}
	.st83{clip-path:url(#SVGID_00000149346229622785852990000002564324832040626589_);}
	.st84{fill:#241F20;stroke:#000000;stroke-width:0.5;stroke-miterlimit:10;}
	.st85{clip-path:url(#SVGID_00000164492186386733070630000001026842159851154583_);}
	.st86{clip-path:url(#SVGID_00000003100943176030890970000012548941612727696772_);}
	.st87{clip-path:url(#SVGID_00000103235012175452453920000011045574879112713348_);}
	.st88{clip-path:url(#SVGID_00000050653356779618721790000018356494859132992429_);}
	.st89{clip-path:url(#SVGID_00000121271404215011716240000010688803701080525993_);}
	.st90{clip-path:url(#SVGID_00000097490470856026330240000012064126355791436166_);}
	.st91{clip-path:url(#SVGID_00000099643155232344246660000017884961860208859302_);}
	.st92{clip-path:url(#SVGID_00000065779658384724372500000007002248739397311134_);}
	.st93{clip-path:url(#SVGID_00000008870840828423392900000009087496318947790726_);}
	.st94{clip-path:url(#SVGID_00000003799100684824434120000001642733902124755879_);}
	.st95{clip-path:url(#SVGID_00000174583882212991407000000006232595438421252745_);}
	.st96{clip-path:url(#SVGID_00000158014197795660379730000000920025735144319110_);}
	.st97{clip-path:url(#SVGID_00000039850197523017905710000001344894571200200091_);}
	.st98{clip-path:url(#SVGID_00000174581033948700034370000015053110947554816676_);}
	.st99{clip-path:url(#SVGID_00000119084256923040038380000010968135723890820498_);}
	.st100{clip-path:url(#SVGID_00000183958140401210752440000006909564154935107764_);}
	.st101{clip-path:url(#SVGID_00000108307707431376672040000006008078291456495749_);}
	.st102{clip-path:url(#SVGID_00000096740619334363194140000007238407265548425374_);}
	.st103{clip-path:url(#SVGID_00000152244697260717302840000005894645747408622778_);}
	.st104{clip-path:url(#SVGID_00000071527538469511065010000007556568615108515729_);}
	.st105{clip-path:url(#SVGID_00000105409474787811109060000008324153722309547407_);}
	.st106{clip-path:url(#SVGID_00000169539651347101250540000014893841969347848848_);}
	.st107{clip-path:url(#SVGID_00000076563091796251820580000011182228033562014864_);}
	.st108{clip-path:url(#SVGID_00000178182951746060989100000003133013310610398124_);}
	.st109{clip-path:url(#SVGID_00000121999563473758369550000004189292881416626869_);}
	.st110{clip-path:url(#SVGID_00000072989706147030544260000005292345220931703964_);}
	.st111{clip-path:url(#SVGID_00000143611577143829149790000006148697057098265791_);}
	.st112{clip-path:url(#SVGID_00000087399774813220969920000000001944638373985705_);}
	.st113{clip-path:url(#SVGID_00000085243834937570770830000000385228131079209388_);}
	.st114{clip-path:url(#SVGID_00000160912117415800710520000004125928103096926857_);}
	.st115{fill:#FFFFFF;stroke:#000000;stroke-miterlimit:10;}
	.st116{clip-path:url(#SVGID_00000089543088529197617500000008140193913129738426_);}
	.st117{clip-path:url(#SVGID_00000088100700926586283160000004499458077348961665_);}
	.st118{fill:none;stroke:#010101;stroke-miterlimit:10;}
	.st119{fill:#010101;stroke:#000000;stroke-miterlimit:10;}
	.st120{clip-path:url(#SVGID_00000062182990530916836220000016834205123700636558_);}
	.st121{fill:#010101;stroke:#010101;stroke-miterlimit:10;}
	.st122{clip-path:url(#SVGID_00000156557665798863909730000008696358501034357166_);}
	.st123{clip-path:url(#SVGID_00000176005479618716114560000014852425506161457317_);}
	.st124{clip-path:url(#SVGID_00000059270485027793570260000003574395559997284267_);}
	.st125{clip-path:url(#SVGID_00000024002836727295696830000004911022584879046530_);}
	.st126{clip-path:url(#SVGID_00000073688842108869411390000011754985236538512785_);}
	.st127{fill:none;stroke:#000000;stroke-width:3;stroke-miterlimit:10;}
	.st128{clip-path:url(#SVGID_00000064329795385547203100000009275103522185490362_);}
	.st129{clip-path:url(#SVGID_00000147923866623301932190000013459991739232916401_);}
	.st130{clip-path:url(#SVGID_00000136400038359235331670000000602935252034072456_);}
	.st131{clip-path:url(#SVGID_00000031201692763746453330000007519380144061847193_);}
	.st132{fill:#040606;}
	.st133{clip-path:url(#SVGID_00000065062252276666472260000003413078515382819456_);}
	.st134{clip-path:url(#SVGID_00000083775980124458863320000003958111807996164751_);}
	.st135{clip-path:url(#SVGID_00000040554346618646209230000003127822126152646318_);}
	.st136{clip-path:url(#SVGID_00000044174296035239062780000010012928755348034229_);}
	.st137{clip-path:url(#SVGID_00000036246967496308994700000000919799782471617459_);}
	.st138{clip-path:url(#SVGID_00000049191847983319683770000006238958701277578115_);}
	.st139{clip-path:url(#SVGID_00000127732341342991875750000014791476718348235913_);}
	.st140{fill:#FFFFFF;stroke:#000000;stroke-width:1.5;stroke-miterlimit:10;}
	.st141{clip-path:url(#SVGID_00000005988728182293855740000001612770554979337635_);}
	.st142{fill:#BDBCBC;}
	.st143{clip-path:url(#SVGID_00000070099410044620380040000016013686019180763314_);}
	.st144{fill:#2E2A2B;}
	.st145{clip-path:url(#SVGID_00000142159686090769136270000017929783413455666076_);}
	.st146{clip-path:url(#SVGID_00000127001731659855676430000003350879474103295923_);}
	.st147{clip-path:url(#SVGID_00000102534707208342095290000018244138638251633043_);}
	.st148{clip-path:url(#SVGID_00000003783432398557097090000005880673604919114175_);}
	.st149{clip-path:url(#SVGID_00000044882452370695275430000017112319431032563354_);}
	.st150{fill:#272324;}
	.st151{clip-path:url(#SVGID_00000008846838386802410510000000865145019414720389_);}
	.st152{clip-path:url(#SVGID_00000076573774353144916820000013205229646145373356_);}
	.st153{clip-path:url(#SVGID_00000002353711907874902780000006272345579720328115_);}
	.st154{clip-path:url(#SVGID_00000176029919567113697920000004246155423037054595_);}
	.st155{clip-path:url(#SVGID_00000057836053743433751130000004438217417526575760_);}
	.st156{clip-path:url(#SVGID_00000119078288358985330630000013429447876195445435_);}
	.st157{fill:none;stroke:#000000;stroke-width:0.8735;stroke-linecap:round;stroke-linejoin:round;stroke-miterlimit:10;}
	.st158{clip-path:url(#SVGID_00000178186130464878870550000016666934682915332281_);}
	.st159{clip-path:url(#SVGID_00000076576001501982335180000007801752957535079827_);}
	.st160{clip-path:url(#SVGID_00000079479983474687849240000010133613532326054537_);}
	.st161{clip-path:url(#SVGID_00000176028990128425638520000003223612751186140087_);}
	.st162{clip-path:url(#SVGID_00000002346645296512049390000000347585707021490309_);}
	.st163{clip-path:url(#SVGID_00000156547652876513882560000014307234133950994306_);}
	.st164{clip-path:url(#SVGID_00000063620376680464941310000012313228454060193953_);}
	.st165{clip-path:url(#SVGID_00000003804975183860318290000004343624341053823903_);}
	.st166{clip-path:url(#SVGID_00000111879181940683212160000011847777729572202923_);}
	.st167{clip-path:url(#SVGID_00000048466073898061612350000017921505194760291751_);}
	.st168{clip-path:url(#SVGID_00000016774639191595585860000014440610348780449215_);}
	.st169{clip-path:url(#SVGID_00000031922959211760978330000002968845021196766604_);}
	.st170{clip-path:url(#SVGID_00000021807943719337795570000002988921596528948117_);}
	.st171{clip-path:url(#SVGID_00000104708471123379902270000003949906878110961804_);}
	.st172{clip-path:url(#SVGID_00000178192893976473336570000013222717829063471503_);}
	.st173{clip-path:url(#SVGID_00000031197601751860647660000001189053040257260966_);}
	.st174{clip-path:url(#SVGID_00000132802731965541950340000003601795857303350940_);}
	.st175{clip-path:url(#SVGID_00000071547976385428360210000010018537993179147145_);}
	.st176{clip-path:url(#SVGID_00000076601942190743889070000014046135817270561428_);}
	.st177{clip-path:url(#SVGID_00000060013194800509729510000000912615045804101524_);}
	.st178{clip-path:url(#SVGID_00000036215161326291519880000016920314270864511405_);}
	.st179{clip-path:url(#SVGID_00000164485686847613771960000015576475372976051105_);}
	.st180{clip-path:url(#SVGID_00000154402753073601730430000004426565739271383182_);}
	.st181{clip-path:url(#SVGID_00000069388124180537541850000015430684172817303952_);}
	.st182{clip-path:url(#SVGID_00000132050515804603947500000007427174009025865380_);}
	.st183{clip-path:url(#SVGID_00000077310306734949693670000016311551314503390142_);}
	.st184{clip-path:url(#SVGID_00000062153720882842671780000010512359402427111555_);}
	.st185{clip-path:url(#SVGID_00000121264583528989477580000016720099486537935013_);}
	.st186{clip-path:url(#SVGID_00000172442697922944289340000011551973249927140228_);}
	.st187{clip-path:url(#SVGID_00000171686731362030563170000007403916287980118930_);}
	.st188{clip-path:url(#SVGID_00000085948246060236740890000018379694750219572150_);}
	.st189{clip-path:url(#SVGID_00000019638170847663192280000015433861132817756078_);}
	.st190{clip-path:url(#SVGID_00000172440718830341420560000017576783673315348626_);}
	.st191{clip-path:url(#SVGID_00000026880600485005822320000000988440629220483482_);}
	.st192{clip-path:url(#SVGID_00000061466940839659090880000004716372388491977372_);}
	.st193{clip-path:url(#SVGID_00000006706868417536021550000008631176178273649338_);}
	.st194{clip-path:url(#SVGID_00000131342784151599039640000001886548230500039600_);}
	.st195{clip-path:url(#SVGID_00000160149235049941595380000001528261067095477681_);}
	.st196{fill:#E5E5E5;}
	.st197{fill:#1D1D1B;}
	.st198{fill:none;stroke:#000000;stroke-miterlimit:10;}
	.st199{fill:#FEFEFE;stroke:#000000;stroke-miterlimit:10;}
	.st200{clip-path:url(#SVGID_00000052081060028886314290000005245321135271671700_);}
	.st201{clip-path:url(#SVGID_00000139256372782426885260000005237400900229459097_);}
	.st202{clip-path:url(#SVGID_00000179642549633185302550000014115928587294357124_);}
	.st203{fill:#231F1F;}
	.st204{fill:#020000;}
	.st205{clip-path:url(#SVGID_00000099626984721321513760000002848545912275711375_);}
	.st206{clip-path:url(#SVGID_00000038388089455406237380000010731766935427046308_);}
	.st207{clip-path:url(#SVGID_00000167383568757500173780000009219113770811305138_);}
	.st208{clip-path:url(#SVGID_00000142157509949650310930000009793268669507845021_);}
	.st209{fill:#050000;}
	.st210{clip-path:url(#SVGID_00000180326862756289566550000011971942569400489638_);}
	.st211{clip-path:url(#SVGID_00000069361315384274465430000000480121413318943887_);}
	.st212{clip-path:url(#SVGID_00000086652237296416183980000002781747906805310133_);}
	.st213{clip-path:url(#SVGID_00000095307898899268949060000001533456685694200197_);}
	.st214{clip-path:url(#SVGID_00000016055653640324601860000000383347823715973036_);}
	.st215{clip-path:url(#SVGID_00000116941173028079599550000001539258303019999393_);}
	.st216{fill:#12100F;}
	.st217{clip-path:url(#SVGID_00000165930421901510560950000014957098596522445442_);}
	.st218{clip-path:url(#SVGID_00000075145128922513005530000005141542307283697818_);}
	.st219{fill:none;stroke:#000000;stroke-width:0.5;stroke-miterlimit:10;}
	.st220{clip-path:url(#SVGID_00000078756330978660555730000012867757251175301249_);}
	.st221{clip-path:url(#SVGID_00000030459497907561599830000017504815657184707497_);}
	.st222{clip-path:url(#SVGID_00000034810709107185447800000000752219682125647282_);}
	.st223{clip-path:url(#SVGID_00000054962107303484114070000008367983516769696438_);}
	.st224{fill:none;stroke:#000000;stroke-width:0.25;stroke-miterlimit:10;}
	.st225{clip-path:url(#SVGID_00000082344115992605121830000007347515654306728336_);}
	.st226{clip-path:url(#SVGID_00000154403490966613606020000008249352796564267448_);}
	.st227{clip-path:url(#SVGID_00000088106152442054622900000006561434362565641640_);}
</style>
<g>
	<g>
		<defs>
			<rect id="SVGID_00000029726186423466202140000009277005766255118985_" x="9.22" y="9.48" width="29.1" height="31.4"/>
		</defs>
		<clipPath id="SVGID_00000149367792410738352890000002370076255279691158_">
			<use xlink:href="#SVGID_00000029726186423466202140000009277005766255118985_"  style="overflow:visible;"/>
		</clipPath>
		<g style="clip-path:url(#SVGID_00000149367792410738352890000002370076255279691158_);">
			<path d="M37.79,38.46L37.79,38.46c-1.61-5.63-3.21-11.27-4.27-15.66c-1.06-4.4-1.56-7.55-2.05-10.69c0-0.01,0-0.02,0-0.04
				L31.4,9.76l0.27,0.26l-16.1,0.13l0.26-0.28l0.05,2.63c0,0.01,0,0.03,0,0.04c-0.44,3.02-0.88,6.05-1.9,10.33
				c-1.02,4.28-2.62,9.8-4.22,15.32l-0.19-0.33c4.56,1.22,9.08,2.43,13.8,2.48c0.09,0,0.18,0,0.27,0c4.64,0,9.48-1.1,14.35-2.21
				L37.79,38.46 M38.3,38.31c0.02,0.07,0.01,0.15-0.03,0.21c-0.04,0.06-0.1,0.11-0.17,0.12c-4.86,1.11-9.76,2.23-14.47,2.23
				c-0.09,0-0.18,0-0.27,0c-4.8-0.04-9.38-1.28-13.93-2.49c-0.07-0.02-0.13-0.06-0.17-0.13c-0.04-0.06-0.04-0.14-0.02-0.21
				c1.6-5.52,3.2-11.03,4.22-15.29c1.02-4.26,1.45-7.26,1.89-10.28l0,0.04L15.3,9.89c0-0.07,0.02-0.14,0.08-0.19
				c0.05-0.05,0.12-0.08,0.19-0.08l16.1-0.13c0.15,0,0.27,0.12,0.27,0.26L32,12.06v-0.04c0.49,3.14,0.99,6.27,2.04,10.64
				C35.09,27.05,36.7,32.68,38.3,38.31L38.3,38.31L38.3,38.31z"/>
		</g>
	</g>
	<path d="M15.9,11.93l15.89-0.04c0.15,0,0.27,0.12,0.27,0.27c0,0.15-0.12,0.27-0.27,0.27L15.9,12.46c-0.15,0-0.27-0.12-0.27-0.27
		S15.75,11.93,15.9,11.93z"/>
	<path d="M26.39,12.32c1.21,4.4,2.42,8.82,3.04,12.41c0.62,3.59,0.64,6.35,0.67,9.1c0,0.15-0.12,0.27-0.27,0.27
		c-0.15,0-0.27-0.12-0.27-0.26c-0.02-2.74-0.04-5.46-0.65-9.01c-0.61-3.55-1.82-7.94-3.04-12.35c-0.04-0.14,0.04-0.29,0.19-0.33
		C26.21,12.09,26.35,12.17,26.39,12.32z"/>
	<path d="M21.9,12.25c-1.03,3.53-2.05,7.03-2.61,10.26c-0.56,3.23-0.67,6.19-0.77,9.16c0,0.15-0.13,0.26-0.28,0.26
		c-0.15,0-0.26-0.13-0.26-0.28c0.1-2.97,0.21-5.96,0.77-9.23c0.57-3.26,1.6-6.8,2.62-10.31c0.04-0.14,0.19-0.22,0.33-0.18
		C21.86,11.96,21.94,12.11,21.9,12.25z"/>
	<path d="M24.22,11.06c0,0.13-0.05,0.24-0.12,0.33c-0.12,0.13-0.28,0.2-0.46,0.2c-0.18,0-0.35-0.07-0.46-0.2
		c-0.08-0.09-0.12-0.2-0.12-0.33c0-0.13,0.05-0.24,0.12-0.33c0.11-0.13,0.28-0.2,0.46-0.2c0.18,0,0.34,0.07,0.46,0.2
		C24.17,10.82,24.22,10.93,24.22,11.06 M23.68,11.06c0,0.02,0.01,0.02,0.01,0.02c0,0-0.02-0.02-0.05-0.02
		c-0.04,0-0.05,0.02-0.05,0.02s0-0.01,0-0.02s0-0.02,0-0.02s0.02,0.02,0.05,0.02c0.03,0,0.05-0.02,0.05-0.02
		C23.69,11.04,23.68,11.04,23.68,11.06z"/>
	<g>
		<defs>
			<rect id="SVGID_00000018206340001697189470000014232532334958621828_" x="25.11" y="9.48" width="1.02" height="3.53"/>
		</defs>
		<clipPath id="SVGID_00000075865073384279015370000013862822079478221750_">
			<use xlink:href="#SVGID_00000018206340001697189470000014232532334958621828_"  style="overflow:visible;"/>
		</clipPath>
		<g style="clip-path:url(#SVGID_00000075865073384279015370000013862822079478221750_);">
			<path d="M25.96,9.85l0.06,2.22c0,0.15-0.11,0.27-0.26,0.28c-0.15,0-0.27-0.11-0.28-0.26l-0.06-2.22c0-0.15,0.12-0.27,0.26-0.28
				S25.95,9.7,25.96,9.85z"/>
		</g>
	</g>
	<g>
		<defs>
			<rect id="SVGID_00000060728276095230958460000009952905259371864456_" x="27.15" y="9.48" width="1.02" height="3.53"/>
		</defs>
		<clipPath id="SVGID_00000007401670057080698350000002737526080120281985_">
			<use xlink:href="#SVGID_00000060728276095230958460000009952905259371864456_"  style="overflow:visible;"/>
		</clipPath>
		<g style="clip-path:url(#SVGID_00000007401670057080698350000002737526080120281985_);">
			<path d="M27.98,9.81l0.05,2.29c0,0.15-0.12,0.27-0.26,0.27c-0.15,0-0.27-0.11-0.28-0.26l-0.05-2.29c0-0.15,0.12-0.27,0.26-0.27
				C27.85,9.55,27.97,9.66,27.98,9.81z"/>
		</g>
	</g>
	<g>
		<defs>
			<rect id="SVGID_00000101793869716284650750000014529204358449942949_" x="21.03" y="9.48" width="2.04" height="3.53"/>
		</defs>
		<clipPath id="SVGID_00000172428363273727561640000012141128278444152489_">
			<use xlink:href="#SVGID_00000101793869716284650750000014529204358449942949_"  style="overflow:visible;"/>
		</clipPath>
		<g style="clip-path:url(#SVGID_00000172428363273727561640000012141128278444152489_);">
			<path d="M22.15,10.05l-0.04,2.09c0,0.15-0.13,0.26-0.28,0.26c-0.15,0-0.27-0.12-0.26-0.27l0.04-2.09c0-0.15,0.12-0.27,0.27-0.26
				C22.04,9.78,22.16,9.9,22.15,10.05z"/>
		</g>
	</g>
	<g>
		<defs>
			<rect id="SVGID_00000072985361201401892310000008610301566500642439_" x="18.98" y="9.48" width="1.02" height="3.53"/>
		</defs>
		<clipPath id="SVGID_00000101818711200292642090000011377660490171280010_">
			<use xlink:href="#SVGID_00000072985361201401892310000008610301566500642439_"  style="overflow:visible;"/>
		</clipPath>
		<g style="clip-path:url(#SVGID_00000101818711200292642090000011377660490171280010_);">
			<path d="M19.81,9.86l0.03,2.22c0,0.15-0.12,0.27-0.27,0.27c-0.15,0-0.27-0.12-0.27-0.27l-0.02-2.22c0-0.15,0.12-0.27,0.26-0.27
				C19.69,9.6,19.81,9.71,19.81,9.86z"/>
		</g>
	</g>
	<path d="M28.56,12.22L28.56,12.22L28.56,12.22c0.39,1,0.75,1.92,1.35,2.53c0.61,0.6,1.48,0.91,2.42,1.23
		c0.14,0.05,0.22,0.2,0.16,0.34c-0.05,0.14-0.2,0.21-0.34,0.16c-0.92-0.32-1.92-0.66-2.63-1.36c-0.71-0.7-1.1-1.74-1.47-2.71l0,0
		c-0.05-0.14,0.02-0.3,0.16-0.35C28.35,12.01,28.51,12.08,28.56,12.22z"/>
	<path d="M19.34,12.33c-0.22,0.96-0.44,2.01-1.16,2.77c-0.72,0.75-1.89,1.19-2.98,1.6c-0.14,0.05-0.3-0.02-0.35-0.16
		c-0.06-0.14,0.02-0.29,0.16-0.35c1.13-0.43,2.17-0.83,2.78-1.47c0.6-0.63,0.81-1.53,1.03-2.52c0.03-0.14,0.18-0.24,0.32-0.2
		C19.28,12.05,19.37,12.19,19.34,12.33z"/>
	<path d="M15.4,13.88l1.72,0.03c0.08,0,0.15,0.04,0.2,0.09c0.05,0.06,0.07,0.13,0.06,0.21l-0.16,1.48c-0.02,0.15-0.15,0.26-0.3,0.24
		c-0.15-0.02-0.25-0.15-0.24-0.3l0.16-1.48l0.26,0.3l-1.72-0.03c-0.15,0-0.27-0.13-0.27-0.28C15.13,13.99,15.25,13.88,15.4,13.88z"
		/>
	<g>
		<defs>
			<rect id="SVGID_00000039113938184710609930000000993250517897134726_" x="29.19" y="9.48" width="2.04" height="3.53"/>
		</defs>
		<clipPath id="SVGID_00000048467719311349460760000011663054967305019838_">
			<use xlink:href="#SVGID_00000039113938184710609930000000993250517897134726_"  style="overflow:visible;"/>
		</clipPath>
		<g style="clip-path:url(#SVGID_00000048467719311349460760000011663054967305019838_);">
			<path d="M30.48,9.82l0.05,2.28c0,0.15-0.12,0.27-0.26,0.28c-0.15,0-0.27-0.12-0.28-0.26l-0.05-2.28c0-0.15,0.12-0.27,0.26-0.28
				C30.35,9.56,30.47,9.68,30.48,9.82z"/>
		</g>
	</g>
	<g>
		<defs>
			<rect id="SVGID_00000168806531028743712310000010364331531427605150_" x="15.92" y="9.48" width="2.04" height="3.53"/>
		</defs>
		<clipPath id="SVGID_00000054960884293952954340000009125124491766175639_">
			<use xlink:href="#SVGID_00000168806531028743712310000010364331531427605150_"  style="overflow:visible;"/>
		</clipPath>
		<g style="clip-path:url(#SVGID_00000054960884293952954340000009125124491766175639_);">
			<path d="M17.36,9.92l0.03,2.22c0,0.15-0.12,0.27-0.27,0.27c-0.15,0-0.27-0.12-0.27-0.27l-0.02-2.22c0-0.15,0.12-0.27,0.26-0.27
				C17.24,9.65,17.36,9.77,17.36,9.92z"/>
		</g>
	</g>
</g>
</svg>
