<?xml version="1.0" encoding="utf-8"?>
<!-- Generator: Adobe Illustrator 27.3.1, SVG Export Plug-In . SVG Version: 6.00 Build 0)  -->
<svg version="1.1" id="Layer_1" xmlns="http://www.w3.org/2000/svg" xmlns:xlink="http://www.w3.org/1999/xlink" x="0px" y="0px"
	 viewBox="0 0 50 50" style="enable-background:new 0 0 50 50;" xml:space="preserve">
<style type="text/css">
	.st0{fill:none;}
	.st1{stroke:#000000;stroke-miterlimit:10;}
	.st2{stroke:#000000;stroke-width:0.75;stroke-miterlimit:10;}
	.st3{clip-path:url(#SVGID_00000053529557353937838060000013626891717579405979_);}
	.st4{clip-path:url(#SVGID_00000046303596724989614080000009423730924841867684_);}
	.st5{fill:#FFFFFF;}
	.st6{clip-path:url(#SVGID_00000094594011368381242180000009069233702542389393_);}
	.st7{fill:#231F20;}
	.st8{clip-path:url(#SVGID_00000180363248875548868130000003068294658807325322_);}
	.st9{clip-path:url(#SVGID_00000073699549471438022770000004279558995285770137_);}
	.st10{clip-path:url(#SVGID_00000108306192546416328270000005728065251939646361_);}
	.st11{clip-path:url(#SVGID_00000121260539235559601330000009411537389192542867_);}
	.st12{clip-path:url(#SVGID_00000097490542674704984020000002246665871124325049_);}
	.st13{clip-path:url(#SVGID_00000013887049425672508450000009084646607959052418_);}
	.st14{clip-path:url(#SVGID_00000024710376574894601980000015653811237614569900_);}
	.st15{clip-path:url(#SVGID_00000164484000590678055230000017485758714398137746_);}
	.st16{clip-path:url(#SVGID_00000040555577738029035050000010704441324182004864_);}
	.st17{clip-path:url(#SVGID_00000119796638453533157990000017415172090505996966_);}
	.st18{clip-path:url(#SVGID_00000153706846298397098680000017615180892782636956_);}
	.st19{clip-path:url(#SVGID_00000060728597941490871260000009190940657121759631_);}
	.st20{clip-path:url(#SVGID_00000085252314217466866360000014455106869154802848_);}
	.st21{clip-path:url(#SVGID_00000003807567067790294560000009616858000217038216_);}
	.st22{clip-path:url(#SVGID_00000094608480798033639750000010165226612939386752_);}
	.st23{clip-path:url(#SVGID_00000101824822948369379060000013774901711785819776_);}
	.st24{clip-path:url(#SVGID_00000161617453827892700050000016502925975125386170_);}
	.st25{clip-path:url(#SVGID_00000054954815467972153380000018212666262882294938_);}
	.st26{clip-path:url(#SVGID_00000152977850967122450150000009101526182973689004_);}
	.st27{clip-path:url(#SVGID_00000056401647253396825060000009088954213726248111_);}
	.st28{clip-path:url(#SVGID_00000092431968157981167050000004025979437093205388_);}
	.st29{clip-path:url(#SVGID_00000083083807796930971740000010683145044507321220_);}
	.st30{clip-path:url(#SVGID_00000078003270348063481110000011527013161612428989_);}
	.st31{fill-rule:evenodd;clip-rule:evenodd;}
	.st32{clip-path:url(#SVGID_00000110455756740418049790000006700947409968120215_);}
	.st33{clip-path:url(#SVGID_00000111903618936658494090000010943394983964461245_);}
	.st34{stroke:#000000;stroke-width:0.5;stroke-miterlimit:10;}
	.st35{clip-path:url(#SVGID_00000158010696536274496590000011447593497604019118_);}
	.st36{clip-path:url(#SVGID_00000096757496082548698350000012929675389851523489_);}
	.st37{clip-path:url(#SVGID_00000003068010742630017730000015600738327508510374_);}
	.st38{fill:#1A1A1A;}
	.st39{clip-path:url(#SVGID_00000044160747043902822710000014126382630007159433_);}
	.st40{clip-path:url(#SVGID_00000150092403669420567470000011351657452221017989_);}
	.st41{clip-path:url(#SVGID_00000137835284535840366300000007861599392270163104_);}
	.st42{clip-path:url(#SVGID_00000071544111270798931820000001872864488441194146_);}
	.st43{clip-path:url(#SVGID_00000170995802585315674580000007781917449821977008_);}
	.st44{clip-path:url(#SVGID_00000092432005906972137960000007718541291690370484_);}
	.st45{clip-path:url(#SVGID_00000125564058441627339970000007204604708761658790_);}
	.st46{clip-path:url(#SVGID_00000069367161310957317520000014670182375586869177_);}
	.st47{clip-path:url(#SVGID_00000018213543848349086200000004233871284751325361_);}
	.st48{fill:#F1F1F1;}
	.st49{fill:#E8E8E8;}
	.st50{fill:#FEFEFE;}
	.st51{fill:#CCCCCC;}
	.st52{fill:#B3B3B3;}
	.st53{fill:#E6E6E6;}
	.st54{fill:#EBEBEB;}
	.st55{fill:#EEEEEE;}
	.st56{fill:#F8F8F8;}
	.st57{fill:#FBFBFB;}
	.st58{fill:#383838;}
	.st59{fill:#232323;}
	.st60{fill:#F6F6F6;}
	.st61{fill:#535353;}
	.st62{fill:#0A0A0A;}
	.st63{fill:#F5F5F5;}
	.st64{fill:#818181;}
	.st65{fill:#4A4A4A;}
	.st66{fill:#999999;}
	.st67{fill:url(#SVGID_00000170241135054159430960000010996842478733147552_);}
	.st68{fill:url(#SVGID_00000067918951421359636460000002091890516538111153_);}
	.st69{fill:#0E0E0D;}
	.st70{fill:#333333;}
	.st71{fill:#808080;}
	.st72{fill:url(#SVGID_00000062177958632850576520000011744823567605949057_);}
	.st73{fill:#666666;}
	.st74{fill:url(#SVGID_00000161634019046208885690000004650915570404723887_);}
	.st75{fill:url(#SVGID_00000015327882218944028400000013841445951042109882_);}
	.st76{fill:url(#SVGID_00000084495961260330576250000004361115942177918135_);}
	.st77{fill:url(#SVGID_00000142889520808537710200000008251942801327039412_);}
	.st78{fill:url(#SVGID_00000163063169877356059370000017356222802755640252_);}
	.st79{clip-path:url(#SVGID_00000129202690809954120080000009124706698341427387_);}
	.st80{clip-path:url(#SVGID_00000063620923956098562320000011598269197663264160_);}
	.st81{clip-path:url(#SVGID_00000063606883584425862190000003565288600130447003_);}
	.st82{clip-path:url(#SVGID_00000081606068014888744420000014663083719524309386_);}
	.st83{clip-path:url(#SVGID_00000034770878079498767200000014987084099596375479_);}
	.st84{fill:#241F20;stroke:#000000;stroke-width:0.5;stroke-miterlimit:10;}
	.st85{clip-path:url(#SVGID_00000041981288489762755840000003989122942417287311_);}
	.st86{clip-path:url(#SVGID_00000039847358038970310170000000488083923872353921_);}
	.st87{clip-path:url(#SVGID_00000003797270695169515000000017551785897409538953_);}
	.st88{clip-path:url(#SVGID_00000005949531369679407160000002979750717572348810_);}
	.st89{clip-path:url(#SVGID_00000104673260817963019540000001246324989692659119_);}
	.st90{clip-path:url(#SVGID_00000134241243255000865480000006533104055524479371_);}
	.st91{clip-path:url(#SVGID_00000090293780452074849770000001756236253571406003_);}
	.st92{clip-path:url(#SVGID_00000152241867898696278200000016894678369886094517_);}
	.st93{clip-path:url(#SVGID_00000127028544762126225650000005500074733744686782_);}
	.st94{clip-path:url(#SVGID_00000006677085004635236410000009223836994142840970_);}
	.st95{clip-path:url(#SVGID_00000175303580418023847400000003055293724863886267_);}
	.st96{clip-path:url(#SVGID_00000038377494326496124360000015702914173054898825_);}
	.st97{clip-path:url(#SVGID_00000152260166895522209210000011454422458433997197_);}
	.st98{clip-path:url(#SVGID_00000116946697211380369600000007878087225716387751_);}
	.st99{clip-path:url(#SVGID_00000073706801633333898730000008917916191039159981_);}
	.st100{clip-path:url(#SVGID_00000090291038140652341120000000224977724658983819_);}
	.st101{clip-path:url(#SVGID_00000016059252127792901040000004189429336995402629_);}
	.st102{clip-path:url(#SVGID_00000168119075622563494430000001220379104117820589_);}
	.st103{clip-path:url(#SVGID_00000090994420992509060760000000852790585311586725_);}
	.st104{clip-path:url(#SVGID_00000048487805878508344330000014319540184426837938_);}
	.st105{clip-path:url(#SVGID_00000004515452109368490800000000079321647965884568_);}
	.st106{clip-path:url(#SVGID_00000149351949888607636420000014464929769549268888_);}
	.st107{clip-path:url(#SVGID_00000155131491456221085910000017274090928705539748_);}
	.st108{clip-path:url(#SVGID_00000093869605822318032370000015512180895567895710_);}
	.st109{clip-path:url(#SVGID_00000016790308015285853810000009403608612712307385_);}
	.st110{clip-path:url(#SVGID_00000147902598709075585930000002310651488825808795_);}
	.st111{clip-path:url(#SVGID_00000104672845253117752430000009796227314943660452_);}
	.st112{clip-path:url(#SVGID_00000089570108783463036660000006545812774089061047_);}
	.st113{clip-path:url(#SVGID_00000168795232781658149500000016297455998748990595_);}
	.st114{clip-path:url(#SVGID_00000044864630148494298360000002000005984409216150_);}
	.st115{fill:#FFFFFF;stroke:#000000;stroke-miterlimit:10;}
	.st116{clip-path:url(#SVGID_00000134944132904559729700000013405754478953861544_);}
	.st117{clip-path:url(#SVGID_00000096756687985977542950000006058565963129201025_);}
	.st118{fill:none;stroke:#010101;stroke-miterlimit:10;}
	.st119{fill:#010101;stroke:#000000;stroke-miterlimit:10;}
	.st120{clip-path:url(#SVGID_00000096039947108574407630000010105866695444184489_);}
	.st121{fill:#010101;stroke:#010101;stroke-miterlimit:10;}
	.st122{clip-path:url(#SVGID_00000077290420146443817290000009571642725759912618_);}
	.st123{clip-path:url(#SVGID_00000040557812158242386700000009904847193228501152_);}
	.st124{clip-path:url(#SVGID_00000000205427816989367170000013583131362489481117_);}
	.st125{clip-path:url(#SVGID_00000050627187282359585410000018005961308505885613_);}
	.st126{clip-path:url(#SVGID_00000095327356827685291710000008921055520582323647_);}
	.st127{fill:none;stroke:#000000;stroke-width:3;stroke-miterlimit:10;}
	.st128{clip-path:url(#SVGID_00000020358695563597464470000014473645100212751801_);}
	.st129{clip-path:url(#SVGID_00000158028581705189777030000005250614743725583746_);}
	.st130{clip-path:url(#SVGID_00000049201840188328963010000011559835890292492181_);}
	.st131{clip-path:url(#SVGID_00000107556610977742898610000016550561535123790739_);}
	.st132{fill:#040606;}
	.st133{clip-path:url(#SVGID_00000095308828240871727460000017666856493205636494_);}
	.st134{clip-path:url(#SVGID_00000117678651756259963940000011483757808989385857_);}
	.st135{clip-path:url(#SVGID_00000172415202465581410100000003716439159595627920_);}
	.st136{clip-path:url(#SVGID_00000011727268743804908260000000681856448266667906_);}
	.st137{clip-path:url(#SVGID_00000141444317292141426910000000187901764316746883_);}
	.st138{clip-path:url(#SVGID_00000175280700048205955660000005092207060938536851_);}
	.st139{clip-path:url(#SVGID_00000034807022551503051660000016585685072862887578_);}
	.st140{fill:#FFFFFF;stroke:#000000;stroke-width:1.5;stroke-miterlimit:10;}
	.st141{clip-path:url(#SVGID_00000170237222039243961510000017624515614910333080_);}
	.st142{fill:#BDBCBC;}
	.st143{clip-path:url(#SVGID_00000085210946795635402200000006976725391237047182_);}
	.st144{fill:#2E2A2B;}
	.st145{clip-path:url(#SVGID_00000182510662789481432520000004230478099016841384_);}
	.st146{clip-path:url(#SVGID_00000079483416661452461100000001797284351427363479_);}
	.st147{clip-path:url(#SVGID_00000173119625262484465490000004443619594104213144_);}
	.st148{clip-path:url(#SVGID_00000170993640721588351160000011351776483405686958_);}
	.st149{clip-path:url(#SVGID_00000097478941872819691000000001541610738963643577_);}
	.st150{fill:#272324;}
	.st151{clip-path:url(#SVGID_00000181055608196388445240000012821900614868941245_);}
	.st152{clip-path:url(#SVGID_00000141428579651155136560000003063847885034161294_);}
	.st153{clip-path:url(#SVGID_00000037662491729690384030000014047790521441802425_);}
	.st154{clip-path:url(#SVGID_00000008860377890067339040000011608868494660732842_);}
	.st155{clip-path:url(#SVGID_00000027587447600366170310000012967321471775240376_);}
	.st156{clip-path:url(#SVGID_00000164499552384154088650000016166889896681854879_);}
	.st157{fill:none;stroke:#000000;stroke-width:0.8735;stroke-linecap:round;stroke-linejoin:round;stroke-miterlimit:10;}
	.st158{clip-path:url(#SVGID_00000069383446831431436910000006560720167529986204_);}
	.st159{clip-path:url(#SVGID_00000011726329751415275640000009657699570589558419_);}
	.st160{clip-path:url(#SVGID_00000030472115307245396580000004674761854318556604_);}
	.st161{clip-path:url(#SVGID_00000019666978052130959010000013882575403525864073_);}
	.st162{clip-path:url(#SVGID_00000005972797851502899200000000153052479168275337_);}
	.st163{clip-path:url(#SVGID_00000049921853740262073410000005587004611218440124_);}
	.st164{clip-path:url(#SVGID_00000094612797420137778920000014521009598753067700_);}
	.st165{clip-path:url(#SVGID_00000172439173587716388940000013482212302904037294_);}
	.st166{clip-path:url(#SVGID_00000030478940143065556700000010727432312031864732_);}
	.st167{clip-path:url(#SVGID_00000158011920801846690030000007270197883651285172_);}
	.st168{clip-path:url(#SVGID_00000027598753239790867890000004178737808314859945_);}
	.st169{clip-path:url(#SVGID_00000069393587055756088520000016689522854779933857_);}
	.st170{clip-path:url(#SVGID_00000007405194329504532280000004904132543430787761_);}
	.st171{clip-path:url(#SVGID_00000026865197123791485230000006397036976931218868_);}
	.st172{clip-path:url(#SVGID_00000111153804539020169360000011193965947705684390_);}
	.st173{clip-path:url(#SVGID_00000031895179183564497330000018046897941648819890_);}
	.st174{clip-path:url(#SVGID_00000117658695307509072130000015338481328698381455_);}
	.st175{clip-path:url(#SVGID_00000010284932483933396740000008032570771774402967_);}
	.st176{clip-path:url(#SVGID_00000170245054722267860130000006317774212093303189_);}
	.st177{clip-path:url(#SVGID_00000178896119645500013810000009733245131041574022_);}
	.st178{clip-path:url(#SVGID_00000173125403951223680970000012059994215349576861_);}
	.st179{clip-path:url(#SVGID_00000072239217133626922620000012552746072916804541_);}
	.st180{clip-path:url(#SVGID_00000176743253774404795700000015233082969093159562_);}
	.st181{clip-path:url(#SVGID_00000176721916309461921100000002945516849412472713_);}
	.st182{clip-path:url(#SVGID_00000101093185313045757610000009678887695984841909_);}
	.st183{clip-path:url(#SVGID_00000034088561147801345610000014817729625306421418_);}
	.st184{clip-path:url(#SVGID_00000140003181871627258100000009928752982353967025_);}
	.st185{clip-path:url(#SVGID_00000096022067111663484710000013293782152808069506_);}
	.st186{clip-path:url(#SVGID_00000164499371831028094940000016126698023854749332_);}
	.st187{clip-path:url(#SVGID_00000183957126517530401440000013608353245509353651_);}
	.st188{clip-path:url(#SVGID_00000116935614915092719750000011807371254885060524_);}
	.st189{clip-path:url(#SVGID_00000095316736577306470720000003526550110254187418_);}
	.st190{clip-path:url(#SVGID_00000147933491689881976990000003492974649060262309_);}
	.st191{clip-path:url(#SVGID_00000076583869490798452090000006241494037090254751_);}
	.st192{clip-path:url(#SVGID_00000103946825651059445770000008458016687933905540_);}
	.st193{clip-path:url(#SVGID_00000023268526830652346710000006253689423961329067_);}
	.st194{clip-path:url(#SVGID_00000094605102985723837740000013486649445029572031_);}
	.st195{clip-path:url(#SVGID_00000010311088488201442960000003433836148535585956_);}
	.st196{fill:#E5E5E5;}
	.st197{fill:#1D1D1B;}
	.st198{fill:none;stroke:#000000;stroke-miterlimit:10;}
	.st199{fill:#FEFEFE;stroke:#000000;stroke-miterlimit:10;}
	.st200{clip-path:url(#SVGID_00000179647096612614091690000012724171296504969857_);}
	.st201{clip-path:url(#SVGID_00000030468022153039644650000002510976794313808548_);}
	.st202{clip-path:url(#SVGID_00000057852613736728690660000013136603985300424123_);}
	.st203{fill:#231F1F;}
	.st204{fill:#020000;}
	.st205{clip-path:url(#SVGID_00000043459264248253744080000007018261526969481350_);}
	.st206{clip-path:url(#SVGID_00000064349333303849159180000015590521741645048244_);}
	.st207{clip-path:url(#SVGID_00000037650829092184702540000005210342142314083509_);}
	.st208{clip-path:url(#SVGID_00000005261031428968919270000017163994812140219577_);}
	.st209{fill:#050000;}
	.st210{clip-path:url(#SVGID_00000111190882712292005970000004751664552715286918_);}
	.st211{clip-path:url(#SVGID_00000093135090919417948690000001805289339238056841_);}
	.st212{clip-path:url(#SVGID_00000034808205534485027480000004334611953894365594_);}
	.st213{clip-path:url(#SVGID_00000158713622201675864310000009202400161997226918_);}
	.st214{clip-path:url(#SVGID_00000098179824404837522260000004342903692707955389_);}
	.st215{clip-path:url(#SVGID_00000048490483635941871400000001889616497408805567_);}
	.st216{fill:#12100F;}
	.st217{clip-path:url(#SVGID_00000152970658234561669140000014630430239418927237_);}
	.st218{clip-path:url(#SVGID_00000130608133467442978400000012973030835360147638_);}
	.st219{fill:none;stroke:#000000;stroke-width:0.5;stroke-miterlimit:10;}
	.st220{clip-path:url(#SVGID_00000111174650379509443250000014671682907138097043_);}
	.st221{clip-path:url(#SVGID_00000127758832122212016910000008765484719838371219_);}
	.st222{clip-path:url(#SVGID_00000026147805666235715320000010516181580862792624_);}
	.st223{clip-path:url(#SVGID_00000160148144629526251400000003284160999479704987_);}
	.st224{fill:none;stroke:#000000;stroke-width:0.25;stroke-miterlimit:10;}
	.st225{clip-path:url(#SVGID_00000036950267428822204660000000044364347819720868_);}
	.st226{clip-path:url(#SVGID_00000083090051394551454700000018199771977199292821_);}
	.st227{clip-path:url(#SVGID_00000119804206228778547530000007841413921562475189_);}
</style>
<g>
	<defs>
		<rect id="SVGID_00000003785151718023424120000007299811438648400042_" x="13.54" y="7.08" width="21.51" height="32.26"/>
	</defs>
	<clipPath id="SVGID_00000161621307993270221840000008323949924220345732_">
		<use xlink:href="#SVGID_00000003785151718023424120000007299811438648400042_"  style="overflow:visible;"/>
	</clipPath>
	<g style="clip-path:url(#SVGID_00000161621307993270221840000008323949924220345732_);">
		<path d="M35,38.08c-1.22-3.37-2.15-6.79-2.77-10.18c-0.44-2.45-0.64-4.36-0.86-6.57c-0.22-2.21-0.47-4.7-1.04-8.24l-0.02-0.12
			c-0.21-1.34-0.45-2.69-0.7-4.02c-0.11-0.55-0.22-1.11-0.33-1.65c0,0,0-0.01,0-0.01c0-0.01-0.01-0.02-0.01-0.03
			c0-0.01-0.01-0.01-0.01-0.02c0-0.01-0.01-0.01-0.01-0.02c0-0.01-0.01-0.01-0.01-0.02c0-0.01-0.01-0.01-0.01-0.02
			c-0.01-0.01-0.01-0.01-0.02-0.02c-0.01-0.01-0.01-0.01-0.02-0.01c-0.01-0.01-0.02-0.01-0.03-0.02c0-0.01-0.01-0.01-0.02-0.01
			c-0.01-0.01-0.02-0.01-0.03-0.01c-0.01,0-0.01-0.01-0.02-0.01c-0.01,0-0.02-0.01-0.03-0.01c-0.01,0-0.01,0-0.02,0s-0.02,0-0.03,0
			c0,0,0,0-0.01,0c-1.55,0.1-3.11,0.14-4.65,0.14l-0.08,0c-1.56,0-3.15-0.05-4.72-0.15c0,0,0,0-0.01,0c-0.01,0-0.02,0-0.03,0
			c-0.01,0-0.02,0-0.02,0c-0.01,0-0.02,0-0.03,0.01c-0.01,0-0.02,0-0.02,0.01c-0.01,0-0.02,0.01-0.03,0.01
			c-0.01,0-0.01,0.01-0.02,0.01c-0.01,0.01-0.01,0.01-0.02,0.02c0,0-0.01,0.01-0.02,0.01c-0.01,0.01-0.01,0.01-0.02,0.02
			c0,0.01-0.01,0.01-0.01,0.02c0,0.01-0.01,0.02-0.01,0.03c0,0.01-0.01,0.01-0.01,0.02c0,0.01-0.01,0.02-0.01,0.02
			c0,0.01-0.01,0.02-0.01,0.03c0,0,0,0,0,0.01c-0.11,0.54-0.22,1.1-0.33,1.65c-0.25,1.33-0.49,2.68-0.7,4.02l-0.02,0.12
			c-0.56,3.54-0.82,6.04-1.04,8.24c-0.22,2.21-0.42,4.12-0.86,6.57c-0.62,3.39-1.55,6.82-2.77,10.18c-0.02,0.07-0.02,0.14,0.01,0.21
			c0.03,0.07,0.09,0.12,0.16,0.14c1.16,0.35,2.35,0.6,3.55,0.75c0.89,0.11,1.79,0.16,2.69,0.16c1.07,0,2.14-0.08,3.2-0.23
			c0.13-0.02,0.22-0.13,0.22-0.26c-0.01-2.63,0.01-5.3,0.07-7.93c0.08-3.86,0.23-7.77,0.46-11.63c0.16-0.23,0.34-0.44,0.54-0.64
			c0.27-0.26,0.58-0.48,0.92-0.66c0.13-0.07,0.18-0.23,0.11-0.36c-0.07-0.13-0.22-0.18-0.35-0.12c-0.38,0.2-0.72,0.45-1.03,0.75
			c-0.25,0.24-0.47,0.5-0.66,0.79c-0.03,0.04-0.04,0.09-0.04,0.13c-0.23,3.88-0.38,7.83-0.46,11.72c-0.05,2.56-0.08,5.15-0.07,7.72
			c-1.84,0.25-3.7,0.26-5.53,0.03c-1.07-0.14-2.15-0.35-3.19-0.65c1.18-3.31,2.09-6.67,2.69-10c0.45-2.47,0.64-4.39,0.87-6.62
			c0.22-2.15,0.46-4.6,1-8.01c0.52-0.08,0.99-0.25,1.42-0.52c1.08-0.69,1.77-1.97,1.83-3.39C22.69,9.48,23.4,9.5,24.1,9.5v3.81
			c0,0.15,0.12,0.27,0.26,0.27c0.14,0,0.26-0.12,0.26-0.27V9.5c0.65-0.01,1.31-0.02,1.98-0.05c0.06,1.42,0.75,2.7,1.83,3.39
			c0.43,0.27,0.9,0.44,1.42,0.52c0.54,3.42,0.78,5.86,1,8.01c0.22,2.22,0.42,4.14,0.87,6.62c0.6,3.33,1.51,6.69,2.69,10
			c-1.04,0.3-2.12,0.52-3.19,0.65c-1.83,0.23-3.69,0.22-5.53-0.03c0.01-2.56-0.01-5.16-0.07-7.72c-0.08-3.81-0.23-7.59-0.46-11.58
			c-0.01-0.15-0.13-0.26-0.28-0.25c-0.14,0.01-0.25,0.14-0.24,0.28c0.23,3.99,0.38,7.77,0.46,11.57c0.06,2.63,0.08,5.3,0.07,7.93
			c0,0.13,0.1,0.24,0.22,0.26c1.06,0.16,2.13,0.23,3.2,0.23c0.9,0,1.8-0.05,2.69-0.16c1.2-0.15,2.39-0.4,3.55-0.75
			c0.07-0.02,0.13-0.07,0.16-0.14C35.02,38.22,35.02,38.14,35,38.08z M26.84,8.91c-0.74,0.04-1.49,0.05-2.22,0.06V7.76
			c1.39-0.01,2.8-0.05,4.2-0.13c0.08,0.37,0.15,0.75,0.22,1.13C28.31,8.82,27.58,8.87,26.84,8.91z M21.73,8.91
			c-0.73-0.04-1.47-0.09-2.2-0.15c0.08-0.38,0.15-0.76,0.22-1.13c1.45,0.08,2.9,0.13,4.34,0.13v1.21
			C23.32,8.96,22.53,8.94,21.73,8.91z M19.87,12.39c-0.32,0.2-0.67,0.34-1.05,0.42c0.19-1.17,0.4-2.36,0.62-3.52
			c0.67,0.06,1.34,0.11,2.02,0.14C21.4,10.68,20.8,11.8,19.87,12.39z M27.12,9.42c0.67-0.04,1.35-0.08,2.02-0.14
			c0.22,1.17,0.43,2.35,0.62,3.52c-0.38-0.08-0.73-0.21-1.05-0.42C27.77,11.8,27.18,10.68,27.12,9.42z"/>
		<path d="M35,38.08c-1.22-3.37-2.15-6.79-2.77-10.18c-0.44-2.45-0.64-4.36-0.86-6.57c-0.22-2.21-0.47-4.7-1.04-8.24l-0.02-0.12
			c-0.21-1.34-0.45-2.69-0.7-4.02c-0.11-0.55-0.22-1.11-0.33-1.65c0,0,0-0.01,0-0.01c0-0.01-0.01-0.02-0.01-0.03
			c0-0.01-0.01-0.01-0.01-0.02c0-0.01-0.01-0.01-0.01-0.02c0-0.01-0.01-0.01-0.01-0.02c0-0.01-0.01-0.01-0.01-0.02
			c-0.01-0.01-0.01-0.01-0.02-0.02c-0.01-0.01-0.01-0.01-0.02-0.01c-0.01-0.01-0.02-0.01-0.03-0.02c0-0.01-0.01-0.01-0.02-0.01
			c-0.01-0.01-0.02-0.01-0.03-0.01c-0.01,0-0.01-0.01-0.02-0.01c-0.01,0-0.02-0.01-0.03-0.01c-0.01,0-0.01,0-0.02,0s-0.02,0-0.03,0
			c0,0,0,0-0.01,0c-1.55,0.1-3.11,0.14-4.65,0.14l-0.08,0c-1.56,0-3.15-0.05-4.72-0.15c0,0,0,0-0.01,0c-0.01,0-0.02,0-0.03,0
			c-0.01,0-0.02,0-0.02,0c-0.01,0-0.02,0-0.03,0.01c-0.01,0-0.02,0-0.02,0.01c-0.01,0-0.02,0.01-0.03,0.01
			c-0.01,0-0.01,0.01-0.02,0.01c-0.01,0.01-0.01,0.01-0.02,0.02c0,0-0.01,0.01-0.02,0.01c-0.01,0.01-0.01,0.01-0.02,0.02
			c0,0.01-0.01,0.01-0.01,0.02c0,0.01-0.01,0.02-0.01,0.03c0,0.01-0.01,0.01-0.01,0.02c0,0.01-0.01,0.02-0.01,0.02
			c0,0.01-0.01,0.02-0.01,0.03c0,0,0,0,0,0.01c-0.11,0.54-0.22,1.1-0.33,1.65c-0.25,1.33-0.49,2.68-0.7,4.02l-0.02,0.12
			c-0.56,3.54-0.82,6.04-1.04,8.24c-0.22,2.21-0.42,4.12-0.86,6.57c-0.62,3.39-1.55,6.82-2.77,10.18c-0.02,0.07-0.02,0.14,0.01,0.21
			c0.03,0.07,0.09,0.12,0.16,0.14c1.16,0.35,2.35,0.6,3.55,0.75c0.89,0.11,1.79,0.16,2.69,0.16c1.07,0,2.14-0.08,3.2-0.23
			c0.13-0.02,0.22-0.13,0.22-0.26c-0.01-2.63,0.01-5.3,0.07-7.93c0.08-3.86,0.23-7.77,0.46-11.63c0.16-0.23,0.34-0.44,0.54-0.64
			c0.27-0.26,0.58-0.48,0.92-0.66c0.13-0.07,0.18-0.23,0.11-0.36c-0.07-0.13-0.22-0.18-0.35-0.12c-0.38,0.2-0.72,0.45-1.03,0.75
			c-0.25,0.24-0.47,0.5-0.66,0.79c-0.03,0.04-0.04,0.09-0.04,0.13c-0.23,3.88-0.38,7.83-0.46,11.72c-0.05,2.56-0.08,5.15-0.07,7.72
			c-1.84,0.25-3.7,0.26-5.53,0.03c-1.07-0.14-2.15-0.35-3.19-0.65c1.18-3.31,2.09-6.67,2.69-10c0.45-2.47,0.64-4.39,0.87-6.62
			c0.22-2.15,0.46-4.6,1-8.01c0.52-0.08,0.99-0.25,1.42-0.52c1.08-0.69,1.77-1.97,1.83-3.39C22.69,9.48,23.4,9.5,24.1,9.5v3.81
			c0,0.15,0.12,0.27,0.26,0.27c0.14,0,0.26-0.12,0.26-0.27V9.5c0.65-0.01,1.31-0.02,1.98-0.05c0.06,1.42,0.75,2.7,1.83,3.39
			c0.43,0.27,0.9,0.44,1.42,0.52c0.54,3.42,0.78,5.86,1,8.01c0.22,2.22,0.42,4.14,0.87,6.62c0.6,3.33,1.51,6.69,2.69,10
			c-1.04,0.3-2.12,0.52-3.19,0.65c-1.83,0.23-3.69,0.22-5.53-0.03c0.01-2.56-0.01-5.16-0.07-7.72c-0.08-3.81-0.23-7.59-0.46-11.58
			c-0.01-0.15-0.13-0.26-0.28-0.25c-0.14,0.01-0.25,0.14-0.24,0.28c0.23,3.99,0.38,7.77,0.46,11.57c0.06,2.63,0.08,5.3,0.07,7.93
			c0,0.13,0.1,0.24,0.22,0.26c1.06,0.16,2.13,0.23,3.2,0.23c0.9,0,1.8-0.05,2.69-0.16c1.2-0.15,2.39-0.4,3.55-0.75
			c0.07-0.02,0.13-0.07,0.16-0.14C35.02,38.22,35.02,38.14,35,38.08z M26.84,8.91c-0.74,0.04-1.49,0.05-2.22,0.06V7.76
			c1.39-0.01,2.8-0.05,4.2-0.13c0.08,0.37,0.15,0.75,0.22,1.13C28.31,8.82,27.58,8.87,26.84,8.91z M21.73,8.91
			c-0.73-0.04-1.47-0.09-2.2-0.15c0.08-0.38,0.15-0.76,0.22-1.13c1.45,0.08,2.9,0.13,4.34,0.13v1.21
			C23.32,8.96,22.53,8.94,21.73,8.91z M19.87,12.39c-0.32,0.2-0.67,0.34-1.05,0.42c0.19-1.17,0.4-2.36,0.62-3.52
			c0.67,0.06,1.34,0.11,2.02,0.14C21.4,10.68,20.8,11.8,19.87,12.39z M27.12,9.42c0.67-0.04,1.35-0.08,2.02-0.14
			c0.22,1.17,0.43,2.35,0.62,3.52c-0.38-0.08-0.73-0.21-1.05-0.42C27.77,11.8,27.18,10.68,27.12,9.42z"/>
	</g>
</g>
</svg>
