<?xml version="1.0" encoding="utf-8"?>
<!-- Generator: Adobe Illustrator 27.3.1, SVG Export Plug-In . SVG Version: 6.00 Build 0)  -->
<svg version="1.1" id="Layer_1" xmlns="http://www.w3.org/2000/svg" xmlns:xlink="http://www.w3.org/1999/xlink" x="0px" y="0px"
	 viewBox="0 0 50 50" style="enable-background:new 0 0 50 50;" xml:space="preserve">
<style type="text/css">
	.st0{fill:none;}
	.st1{stroke:#000000;stroke-miterlimit:10;}
	.st2{stroke:#000000;stroke-width:0.75;stroke-miterlimit:10;}
	.st3{clip-path:url(#SVGID_00000107576302799730404390000002467235342103228565_);}
	.st4{clip-path:url(#SVGID_00000001629849413710790720000010382071028030953372_);}
	.st5{fill:#FFFFFF;}
	.st6{clip-path:url(#SVGID_00000016050314396381774550000003711553710723000965_);}
	.st7{fill:#231F20;}
	.st8{clip-path:url(#SVGID_00000016057386690860736400000002703516886716226446_);}
	.st9{clip-path:url(#SVGID_00000176722815862991912690000015642031310106076563_);}
	.st10{clip-path:url(#SVGID_00000039099128780328229020000009593194492511735740_);}
	.st11{clip-path:url(#SVGID_00000150063149421576483060000011708443552610941070_);}
	.st12{clip-path:url(#SVGID_00000013152876920078975130000002200550877798686347_);}
	.st13{clip-path:url(#SVGID_00000139998623302208101170000008315095577686371726_);}
	.st14{clip-path:url(#SVGID_00000036932406986962405210000014919390140430005685_);}
	.st15{clip-path:url(#SVGID_00000057864841746543253200000017657832858511587214_);}
	.st16{clip-path:url(#SVGID_00000119800163262894573140000014605237260661631675_);}
	.st17{clip-path:url(#SVGID_00000008872064316878486500000006684229726091939488_);}
	.st18{clip-path:url(#SVGID_00000128466761770990317280000006104439737052913827_);}
	.st19{clip-path:url(#SVGID_00000016772936048766506420000005177508417451017346_);}
	.st20{clip-path:url(#SVGID_00000173121250145494809490000014400973069899963050_);}
	.st21{clip-path:url(#SVGID_00000022549698768376053510000015147829192080919218_);}
	.st22{clip-path:url(#SVGID_00000044859152899027401370000016226184522130590874_);}
	.st23{clip-path:url(#SVGID_00000005263907015996275770000006580393481669895564_);}
	.st24{clip-path:url(#SVGID_00000151515105791406302300000009396940459021869992_);}
	.st25{clip-path:url(#SVGID_00000147903758153261542090000010100779877306453133_);}
	.st26{clip-path:url(#SVGID_00000154393840559998173900000013990883703100404874_);}
	.st27{clip-path:url(#SVGID_00000183951116684128068460000010506581708682307513_);}
	.st28{clip-path:url(#SVGID_00000084506309095631210640000013712525694876720028_);}
	.st29{clip-path:url(#SVGID_00000060733837504236134480000012586680271096795785_);}
	.st30{clip-path:url(#SVGID_00000065797244838939540200000005502114074040035493_);}
	.st31{fill-rule:evenodd;clip-rule:evenodd;}
	.st32{clip-path:url(#SVGID_00000046298234933926971330000018434954183129565313_);}
	.st33{clip-path:url(#SVGID_00000154414064621491483110000000647647730261964176_);}
	.st34{stroke:#000000;stroke-width:0.5;stroke-miterlimit:10;}
	.st35{clip-path:url(#SVGID_00000148624317770467470090000009373471519840166279_);}
	.st36{clip-path:url(#SVGID_00000129166868276303673630000001483144232401144720_);}
	.st37{clip-path:url(#SVGID_00000179646459155079753180000006867735423782542774_);}
	.st38{fill:#1A1A1A;}
	.st39{clip-path:url(#SVGID_00000126314752507415869920000004888664409167653821_);}
	.st40{clip-path:url(#SVGID_00000037690495456954984590000006328865950170255779_);}
	.st41{clip-path:url(#SVGID_00000108290096505800136550000003737657656506118290_);}
	.st42{clip-path:url(#SVGID_00000135678113794123398500000007692383750688337842_);}
	.st43{clip-path:url(#SVGID_00000067236417309351504610000007088265313338539151_);}
	.st44{clip-path:url(#SVGID_00000079480917806892566220000003772291857202256575_);}
	.st45{clip-path:url(#SVGID_00000041284423831124025630000008485509895058166926_);}
	.st46{clip-path:url(#SVGID_00000147911432359591928300000000567982679154394770_);}
	.st47{clip-path:url(#SVGID_00000083803125864777405920000003056840826083107503_);}
	.st48{fill:#F1F1F1;}
	.st49{fill:#E8E8E8;}
	.st50{fill:#FEFEFE;}
	.st51{fill:#CCCCCC;}
	.st52{fill:#B3B3B3;}
	.st53{fill:#E6E6E6;}
	.st54{fill:#EBEBEB;}
	.st55{fill:#EEEEEE;}
	.st56{fill:#F8F8F8;}
	.st57{fill:#FBFBFB;}
	.st58{fill:#383838;}
	.st59{fill:#232323;}
	.st60{fill:#F6F6F6;}
	.st61{fill:#535353;}
	.st62{fill:#0A0A0A;}
	.st63{fill:#F5F5F5;}
	.st64{fill:#818181;}
	.st65{fill:#4A4A4A;}
	.st66{fill:#999999;}
	.st67{fill:url(#SVGID_00000145742441618562751280000005122882382691909789_);}
	.st68{fill:url(#SVGID_00000145060908445470537400000003579348807219737746_);}
	.st69{fill:#0E0E0D;}
	.st70{fill:#333333;}
	.st71{fill:#808080;}
	.st72{fill:url(#SVGID_00000078767737384662947830000001333124576380053173_);}
	.st73{fill:#666666;}
	.st74{fill:url(#SVGID_00000043441304931184344740000016175337625487692478_);}
	.st75{fill:url(#SVGID_00000065048876367762650200000018430659450893173898_);}
	.st76{fill:url(#SVGID_00000114761940473993191630000016916307371352217222_);}
	.st77{fill:url(#SVGID_00000092449369566532853900000003605257498468962966_);}
	.st78{fill:url(#SVGID_00000096031194841606586320000010795794422022515635_);}
	.st79{clip-path:url(#SVGID_00000035529714329540509010000008372917545210581399_);}
	.st80{clip-path:url(#SVGID_00000056392340597114506460000002504388062727299260_);}
	.st81{clip-path:url(#SVGID_00000105426977214819468220000015382107486037800587_);}
	.st82{clip-path:url(#SVGID_00000183956149788711410730000017313147562363210923_);}
	.st83{clip-path:url(#SVGID_00000057116608227457899050000017021855475454347939_);}
	.st84{fill:#241F20;stroke:#000000;stroke-width:0.5;stroke-miterlimit:10;}
	.st85{clip-path:url(#SVGID_00000180335588977139122490000010344417580552052661_);}
	.st86{clip-path:url(#SVGID_00000129200665825273381000000009488426234888705937_);}
	.st87{clip-path:url(#SVGID_00000158707839561877307670000004057269724104855942_);}
	.st88{clip-path:url(#SVGID_00000017513703987382372280000016572263080091349889_);}
	.st89{clip-path:url(#SVGID_00000005234292572076726470000000279328508269415867_);}
	.st90{clip-path:url(#SVGID_00000103963714218064402500000013239456229048381077_);}
	.st91{clip-path:url(#SVGID_00000033344918332553654440000008367837076635063169_);}
	.st92{clip-path:url(#SVGID_00000031905531765659616240000012442405945574406802_);}
	.st93{clip-path:url(#SVGID_00000171715306187046077480000002392029737467893896_);}
	.st94{clip-path:url(#SVGID_00000077316000949281386610000013234880742367990444_);}
	.st95{clip-path:url(#SVGID_00000183933359094445917950000014043034497203809699_);}
	.st96{clip-path:url(#SVGID_00000132793066363824453080000000745012830836631186_);}
	.st97{clip-path:url(#SVGID_00000022518207430540033690000013645986295689804718_);}
	.st98{clip-path:url(#SVGID_00000031201903341111982150000014351858755283533977_);}
	.st99{clip-path:url(#SVGID_00000173141103776118166490000012378168751802357159_);}
	.st100{clip-path:url(#SVGID_00000073708646435154545700000005261874322143315353_);}
	.st101{clip-path:url(#SVGID_00000030457483794777896890000007552248394491817096_);}
	.st102{clip-path:url(#SVGID_00000112615487858576227480000015628259785812798081_);}
	.st103{clip-path:url(#SVGID_00000023999502536391831940000008183000487565682879_);}
	.st104{clip-path:url(#SVGID_00000108273502231090072620000014315350749796647344_);}
	.st105{clip-path:url(#SVGID_00000108309167587490283660000011449644571720064949_);}
	.st106{clip-path:url(#SVGID_00000056412862458422375820000013447990876648886416_);}
	.st107{clip-path:url(#SVGID_00000132052680174879530170000017010963242035382675_);}
	.st108{clip-path:url(#SVGID_00000131342580980896441940000012770472962385585031_);}
	.st109{clip-path:url(#SVGID_00000024701420416938116160000004789492612140416933_);}
	.st110{clip-path:url(#SVGID_00000180342645533207138850000010814007119150807987_);}
	.st111{clip-path:url(#SVGID_00000014620740763572052360000003701366245232023706_);}
	.st112{clip-path:url(#SVGID_00000119106770577101541250000016522350700234441607_);}
	.st113{clip-path:url(#SVGID_00000169558296329367801390000011163115176873327242_);}
	.st114{clip-path:url(#SVGID_00000049910687465369775740000016443457606442819742_);}
	.st115{fill:#FFFFFF;stroke:#000000;stroke-miterlimit:10;}
	.st116{clip-path:url(#SVGID_00000164511422664153076180000004316648303966310582_);}
	.st117{clip-path:url(#SVGID_00000132080727768096581600000001006663441973809570_);}
	.st118{fill:none;stroke:#010101;stroke-miterlimit:10;}
	.st119{fill:#010101;stroke:#000000;stroke-miterlimit:10;}
	.st120{clip-path:url(#SVGID_00000044163789934346491780000008173783236779126666_);}
	.st121{fill:#010101;stroke:#010101;stroke-miterlimit:10;}
	.st122{clip-path:url(#SVGID_00000152255939360729080740000000915904800773332139_);}
	.st123{clip-path:url(#SVGID_00000149372712938499093950000016701231451361134003_);}
	.st124{clip-path:url(#SVGID_00000170279048139810793680000007200043574176540823_);}
	.st125{clip-path:url(#SVGID_00000012461813995038997800000002032929555018175618_);}
	.st126{clip-path:url(#SVGID_00000005231830126985335680000011024031775177117100_);}
	.st127{fill:none;stroke:#000000;stroke-width:3;stroke-miterlimit:10;}
	.st128{clip-path:url(#SVGID_00000183932664409682083590000013735552098443249301_);}
	.st129{clip-path:url(#SVGID_00000135685415956762910600000012823572787134858162_);}
	.st130{clip-path:url(#SVGID_00000135679441536690443260000010084187786988025495_);}
	.st131{clip-path:url(#SVGID_00000126304814339993575800000003464447525883863697_);}
	.st132{fill:#040606;}
	.st133{clip-path:url(#SVGID_00000043428944037367505300000006189622266656054170_);}
	.st134{clip-path:url(#SVGID_00000038397630192312212280000002997617584392879270_);}
	.st135{clip-path:url(#SVGID_00000103980572622441391820000009891558533527869624_);}
	.st136{clip-path:url(#SVGID_00000139266695276330176290000014575625840142985613_);}
	.st137{clip-path:url(#SVGID_00000088113222024123823020000011689422395925144201_);}
	.st138{clip-path:url(#SVGID_00000091724211537390583110000005211871808310417041_);}
	.st139{clip-path:url(#SVGID_00000068650504690105392400000014532600040681553840_);}
	.st140{fill:#FFFFFF;stroke:#000000;stroke-width:1.5;stroke-miterlimit:10;}
	.st141{clip-path:url(#SVGID_00000001623541515797846770000000976192836569467547_);}
	.st142{fill:#BDBCBC;}
	.st143{clip-path:url(#SVGID_00000165937187665688482430000003775838532535539354_);}
	.st144{fill:#2E2A2B;}
	.st145{clip-path:url(#SVGID_00000037677940170311642960000015820895905367152830_);}
	.st146{clip-path:url(#SVGID_00000009573207590024886690000011546466579319616902_);}
	.st147{clip-path:url(#SVGID_00000182509897402471885020000001047077620236219555_);}
	.st148{clip-path:url(#SVGID_00000103979142983819640800000010231152908853236901_);}
	.st149{clip-path:url(#SVGID_00000131367937063711651490000003981553249347010432_);}
	.st150{fill:#272324;}
	.st151{clip-path:url(#SVGID_00000137839611429346325070000004334652061009266080_);}
	.st152{clip-path:url(#SVGID_00000137134095169081881760000004760465193006625201_);}
	.st153{clip-path:url(#SVGID_00000067232978527406967830000004895978426762348163_);}
	.st154{clip-path:url(#SVGID_00000164499297318678880600000011933155817864820128_);}
	.st155{clip-path:url(#SVGID_00000121262311625541304700000008167018883322229160_);}
	.st156{clip-path:url(#SVGID_00000174563510632613091620000014015403166196974985_);}
	.st157{fill:none;stroke:#000000;stroke-width:0.8735;stroke-linecap:round;stroke-linejoin:round;stroke-miterlimit:10;}
	.st158{clip-path:url(#SVGID_00000160869159106614251320000013730874983472846735_);}
	.st159{clip-path:url(#SVGID_00000089555627128008704570000007582804602489206929_);}
	.st160{clip-path:url(#SVGID_00000151504364913255010000000008521373565102515093_);}
	.st161{clip-path:url(#SVGID_00000037669951815650749870000015305936795638901161_);}
	.st162{clip-path:url(#SVGID_00000170999601557914903690000018127913440707250865_);}
	.st163{clip-path:url(#SVGID_00000111186393464385103590000017965738857081094030_);}
	.st164{clip-path:url(#SVGID_00000083072608737982181560000013939551926006105023_);}
	.st165{clip-path:url(#SVGID_00000097489412967238740060000000799216720999952519_);}
	.st166{clip-path:url(#SVGID_00000182514721304707367930000005246739201555972267_);}
	.st167{clip-path:url(#SVGID_00000044879643148756846240000015808436564470336646_);}
	.st168{clip-path:url(#SVGID_00000061430970132414882360000004687785591357830805_);}
	.st169{clip-path:url(#SVGID_00000066512891246832264030000011393513209137050251_);}
	.st170{clip-path:url(#SVGID_00000113311426706914632030000009869661990458261934_);}
	.st171{clip-path:url(#SVGID_00000031206023599626631900000017427216179909541054_);}
	.st172{clip-path:url(#SVGID_00000068651098857136500820000010956985682026368419_);}
	.st173{clip-path:url(#SVGID_00000091711444394004431570000016647802588205923244_);}
	.st174{clip-path:url(#SVGID_00000017502554075487716010000004993735082396830116_);}
	.st175{clip-path:url(#SVGID_00000127015924033861920650000009620879678420783506_);}
	.st176{clip-path:url(#SVGID_00000127045261749704323110000008016161108724248764_);}
	.st177{clip-path:url(#SVGID_00000113343842157955108330000005765541283447420347_);}
	.st178{clip-path:url(#SVGID_00000070814121661202971120000004857235966790285224_);}
	.st179{clip-path:url(#SVGID_00000124135664476946625370000002898373376341468332_);}
	.st180{clip-path:url(#SVGID_00000080203327532773242880000008910912484190077370_);}
	.st181{clip-path:url(#SVGID_00000085944684307272003720000010957269944018977698_);}
	.st182{clip-path:url(#SVGID_00000093896920467595338330000001754259062361174972_);}
	.st183{clip-path:url(#SVGID_00000183224590488377290710000013735413073372030600_);}
	.st184{clip-path:url(#SVGID_00000116923675640452489850000000173505929559363201_);}
	.st185{clip-path:url(#SVGID_00000166653821971520801500000012047247205318704569_);}
	.st186{clip-path:url(#SVGID_00000183224777635512130790000012878810457745004691_);}
	.st187{clip-path:url(#SVGID_00000054947142319370627210000005431957480122649233_);}
	.st188{clip-path:url(#SVGID_00000077290916239891851240000005046914273706909866_);}
	.st189{clip-path:url(#SVGID_00000018200277101462718650000011347688277363621765_);}
	.st190{clip-path:url(#SVGID_00000089573763310772023050000017179418592574393768_);}
	.st191{clip-path:url(#SVGID_00000174565760948276509080000009633847096726579878_);}
	.st192{clip-path:url(#SVGID_00000066501023170281552680000006275061659475148973_);}
	.st193{clip-path:url(#SVGID_00000098902256580029182720000000041115997100069033_);}
	.st194{clip-path:url(#SVGID_00000092438397784179632470000017090270019843069349_);}
	.st195{clip-path:url(#SVGID_00000044166827962178820790000016341664604172975236_);}
	.st196{fill:#E5E5E5;}
	.st197{fill:#1D1D1B;}
	.st198{fill:none;stroke:#000000;stroke-miterlimit:10;}
	.st199{fill:#FEFEFE;stroke:#000000;stroke-miterlimit:10;}
	.st200{clip-path:url(#SVGID_00000000180182908261394820000004211986105581797011_);}
	.st201{clip-path:url(#SVGID_00000153666172048693186060000017857810681802437012_);}
	.st202{clip-path:url(#SVGID_00000049199662235961816030000011357674700059983774_);}
	.st203{fill:#231F1F;}
	.st204{fill:#020000;}
	.st205{clip-path:url(#SVGID_00000100380648408562415070000011905856511995915959_);}
	.st206{clip-path:url(#SVGID_00000096765919408083720760000016684990047927762820_);}
	.st207{clip-path:url(#SVGID_00000052823418512753571360000006294781159773738391_);}
	.st208{clip-path:url(#SVGID_00000041267532652020979230000000870130488310845071_);}
	.st209{fill:#050000;}
	.st210{clip-path:url(#SVGID_00000015314421291327698080000009965231924688116626_);}
	.st211{clip-path:url(#SVGID_00000083774923158875506320000000202200988358207883_);}
	.st212{clip-path:url(#SVGID_00000047767724290040874380000001166024324158081441_);}
	.st213{clip-path:url(#SVGID_00000158025511574150025700000018390807705132716934_);}
	.st214{clip-path:url(#SVGID_00000044155609410402287980000018043475103814891191_);}
	.st215{clip-path:url(#SVGID_00000114037307303899624190000006965995446277025962_);}
	.st216{fill:#12100F;}
	.st217{clip-path:url(#SVGID_00000109748778574639625080000006686273266341409198_);}
	.st218{clip-path:url(#SVGID_00000130613602934826734790000003414107982314260655_);}
	.st219{fill:none;stroke:#000000;stroke-width:0.5;stroke-miterlimit:10;}
	.st220{clip-path:url(#SVGID_00000021821034545518975410000002061897323929222309_);}
	.st221{clip-path:url(#SVGID_00000038397582937819735520000012420500411140872607_);}
	.st222{clip-path:url(#SVGID_00000018237631479914485650000017424434042138460069_);}
	.st223{clip-path:url(#SVGID_00000062911558724684489270000004285857315254079105_);}
	.st224{fill:none;stroke:#000000;stroke-width:0.25;stroke-miterlimit:10;}
	.st225{clip-path:url(#SVGID_00000054242765655769492430000010479306049288022705_);}
	.st226{clip-path:url(#SVGID_00000110428712935070231930000001450398606028474532_);}
	.st227{clip-path:url(#SVGID_00000084513688711398695070000008016819657152118700_);}
</style>
<g>
	<g>
		<g>
			<defs>
				<rect id="SVGID_00000088106708202757852370000005778174139670587276_" x="11.45" y="17.27" width="17.2" height="24"/>
			</defs>
			<clipPath id="SVGID_00000066483279461553269740000008116654014708768655_">
				<use xlink:href="#SVGID_00000088106708202757852370000005778174139670587276_"  style="overflow:visible;"/>
			</clipPath>
			<g style="clip-path:url(#SVGID_00000066483279461553269740000008116654014708768655_);">
				<path d="M11.92,17.78l0.43,9.95l0-0.01c0.05,0.41-0.16,1.48-0.56,3.19c-0.05,0.2-0.06,0.46-0.05,0.79
					c0.01,0.57,0.14,1.07,0.41,1.48c1.07,1.64,3.35,3.41,6.79,5.38c2.87,1.64,5.09,2.41,6.68,2.16c2.06-0.33,3.04-1.75,2.66-4.15
					c-0.09-0.55-0.48-0.98-0.96-1.37l0.01,0.01l-5.41-3.43c0,0-0.01,0-0.01,0c-0.74-0.54-1.33-1.2-1.76-1.97
					c-0.38-0.67-0.63-1.52-0.78-2.55c0,0,0-0.01,0-0.01c-0.45-8.43-0.8-9.36-0.82-9.41c0,0,0,0,0.01,0.01
					c-0.16-0.24-0.89-0.22-2.62-0.11c-1.05,0.07-2.42,0.16-4.15,0.18c-0.08,0-0.14-0.06-0.14-0.14c0-0.08,0.06-0.14,0.14-0.14
					c1.72-0.02,3.09-0.11,4.14-0.18c1.59-0.1,2.59-0.19,2.87,0.23c0,0.01,0.01,0.02,0.01,0.03c0.05,0.12,0.4,1.12,0.85,9.51l0-0.01
					c0.14,1.01,0.39,1.82,0.74,2.45c0.41,0.73,0.97,1.36,1.68,1.88l-0.01,0l5.41,3.43c0,0,0.01,0.01,0.01,0.01
					c0.48,0.4,0.95,0.89,1.06,1.55c0.4,2.53-0.66,4.11-2.9,4.47c-1.7,0.27-3.99-0.55-6.86-2.19c-3.45-1.97-5.78-3.77-6.89-5.47
					c-0.3-0.46-0.44-1.02-0.45-1.63c-0.01-0.34,0.01-0.63,0.06-0.86c0.41-1.74,0.6-2.74,0.56-3.09c0,0,0-0.01,0-0.01l-0.43-9.95
					c0-0.08,0.06-0.14,0.13-0.15C11.85,17.64,11.92,17.7,11.92,17.78z"/>
			</g>
		</g>
		<path d="M12.26,27.91c-0.07,0-0.13,0.05-0.14,0.12c-0.01,0.08,0.04,0.15,0.12,0.16c1.54,0.24,2.52,1.06,2.93,2.48
			c0.18,0.68,0.18,1.41-0.01,2.21c-0.18,0.75-0.53,1.56-1.05,2.43c-0.04,0.07-0.02,0.15,0.05,0.19c0.02,0.01,0.05,0.02,0.07,0.02
			c0.05,0,0.09-0.02,0.12-0.07c0.54-0.89,0.9-1.73,1.08-2.51c0.2-0.84,0.21-1.63,0.01-2.35l0,0c-0.44-1.53-1.49-2.42-3.15-2.68
			C12.28,27.91,12.27,27.91,12.26,27.91z"/>
		<g>
			<defs>
				<rect id="SVGID_00000135672079631048392330000007532487444389600661_" x="24.13" y="34.88" width="3.76" height="6.4"/>
			</defs>
			<clipPath id="SVGID_00000023970139050674008700000015445450723176036481_">
				<use xlink:href="#SVGID_00000135672079631048392330000007532487444389600661_"  style="overflow:visible;"/>
			</clipPath>
			<g style="clip-path:url(#SVGID_00000023970139050674008700000015445450723176036481_);">
				<path d="M27.56,35.19c-0.01,0-0.01,0-0.02,0c-1.24,0.21-2.18,0.84-2.83,1.91l0,0c-0.28,0.49-0.46,1.09-0.54,1.83l0,0
					c-0.06,0.79,0.01,1.43,0.2,1.92c0.02,0.05,0.08,0.09,0.13,0.09c0.02,0,0.03,0,0.05-0.01c0.07-0.03,0.11-0.11,0.08-0.18
					c-0.18-0.45-0.24-1.04-0.18-1.79c0.07-0.69,0.24-1.26,0.5-1.71c0.6-0.99,1.48-1.59,2.64-1.78c0.08-0.01,0.13-0.09,0.11-0.16
					C27.68,35.24,27.62,35.19,27.56,35.19z"/>
			</g>
		</g>
		<path d="M21.63,31.46c-0.04,0-0.08,0.02-0.1,0.05c-2,2.2-3.44,4.25-4.31,6.15c-0.03,0.07,0,0.15,0.07,0.19
			c0.02,0.01,0.04,0.01,0.06,0.01c0.05,0,0.1-0.03,0.13-0.08c0.86-1.87,2.29-3.9,4.27-6.08c0.05-0.06,0.05-0.15-0.01-0.2
			C21.7,31.47,21.67,31.46,21.63,31.46z"/>
		<path d="M22.64,32.09c-0.04,0-0.07,0.01-0.1,0.04c-1.76,1.79-3.21,3.82-4.36,6.1c-0.04,0.07-0.01,0.15,0.06,0.19
			c0.02,0.01,0.04,0.01,0.06,0.01c0.05,0,0.1-0.03,0.12-0.08c1.13-2.25,2.56-4.26,4.31-6.03c0.05-0.06,0.05-0.15,0-0.2
			C22.71,32.1,22.68,32.09,22.64,32.09z"/>
		<path d="M23.88,32.83c-0.04,0-0.07,0.01-0.1,0.04c-1.78,1.83-3.22,3.87-4.3,6.12c-0.03,0.07,0,0.15,0.06,0.19
			c0.02,0.01,0.04,0.01,0.06,0.01c0.05,0,0.1-0.03,0.13-0.08c1.07-2.22,2.49-4.24,4.25-6.05c0.05-0.06,0.05-0.15,0-0.2
			C23.95,32.85,23.92,32.83,23.88,32.83z"/>
		<path d="M11.93,19.44c-0.03,0-0.06,0.01-0.09,0.03c-0.06,0.05-0.07,0.14-0.01,0.2c0.24,0.28,0.66,0.44,1.26,0.49
			c0,0,0.01,0,0.01,0s0,0,0.01,0c0.27,0,0.46-0.02,0.59-0.06h0c0.12-0.02,0.35-0.11,0.69-0.27c0.05-0.02,0.1-0.03,0.14-0.03h0
			c0,0,0,0,0.01,0c0.03,0,0.06,0.01,0.11,0.02h0c0.35,0.13,0.56,0.2,0.64,0.21c0.18,0.04,0.35,0.06,0.52,0.07c0.02,0,0.03,0,0.05,0
			c0.2,0,0.39-0.02,0.58-0.07c0.11-0.02,0.31-0.11,0.62-0.26c0.02-0.01,0.05-0.02,0.1-0.02h0c0.01,0,0.01,0,0.02,0
			c0.04,0,0.07,0,0.11,0.01h0c0.53,0.14,0.85,0.22,0.98,0.22c0.05,0,0.1,0.01,0.15,0.01c0.21,0,0.39-0.03,0.53-0.1
			c0.07-0.03,0.1-0.12,0.07-0.19c-0.02-0.05-0.08-0.08-0.13-0.08c-0.02,0-0.04,0-0.06,0.01c-0.11,0.05-0.24,0.08-0.41,0.08
			c-0.04,0-0.09,0-0.14,0c0,0-0.01,0-0.01,0c-0.1,0-0.41-0.07-0.92-0.21l-0.01,0c-0.06-0.01-0.12-0.02-0.18-0.02
			c-0.01,0-0.02,0-0.03,0h0c-0.07,0.01-0.14,0.02-0.19,0.04l0,0c-0.29,0.14-0.47,0.22-0.55,0.24c0,0-0.01,0-0.01,0
			c-0.16,0.04-0.33,0.06-0.51,0.06c-0.01,0-0.03,0-0.04,0c-0.15,0-0.3-0.02-0.47-0.06c0,0-0.01,0-0.01,0
			c-0.06-0.01-0.26-0.08-0.6-0.2c0,0-0.01,0-0.01,0c-0.08-0.02-0.14-0.03-0.19-0.03c-0.01,0-0.02,0-0.03,0
			c-0.07,0-0.15,0.02-0.23,0.05c0,0-0.01,0-0.01,0c-0.33,0.15-0.54,0.24-0.64,0.26c0,0-0.01,0-0.02,0c-0.1,0.03-0.27,0.05-0.51,0.05
			c0,0,0,0,0,0c-0.53-0.04-0.88-0.17-1.07-0.39C12.01,19.46,11.97,19.44,11.93,19.44z"/>
		<path d="M13.19,23.34L13.19,23.34C13.18,23.34,13.18,23.34,13.19,23.34C13.19,23.34,13.19,23.34,13.19,23.34L13.19,23.34z
			 M13.18,23.34c-0.06,0-0.11,0.05-0.13,0.11C13.06,23.38,13.11,23.34,13.18,23.34z M13.19,23.34c0.08,0,0.12,0.04,0.13,0.11h0
			C13.31,23.39,13.26,23.34,13.19,23.34C13.2,23.34,13.19,23.34,13.19,23.34S13.19,23.34,13.19,23.34z M13.08,20.76
			c-0.07,0-0.13,0.06-0.14,0.12l0,0.01c0,0.04,0,0.07,0,0.11v0c0.02,0.26,0.04,0.5,0.04,0.7v0c0.01,0.24,0.02,0.4,0.02,0.49
			c0.02,0.82,0.04,1.25,0.04,1.29l0.09,1.92c0,0.08,0.06,0.13,0.14,0.13c0,0,0,0,0.01,0c0.08,0,0.14-0.07,0.13-0.15l-0.09-1.92
			c0,0,0,0,0-0.01c0-0.04-0.02-0.46-0.04-1.28c0-0.09-0.01-0.26-0.02-0.5c-0.01-0.21-0.02-0.44-0.05-0.71c0-0.02,0-0.05,0-0.06
			l0-0.01c0.01-0.08-0.05-0.15-0.13-0.15C13.09,20.76,13.09,20.76,13.08,20.76z"/>
		<path d="M14.29,23.29L14.29,23.29C14.29,23.29,14.29,23.29,14.29,23.29L14.29,23.29C14.29,23.29,14.29,23.29,14.29,23.29z
			 M14.28,23.29c-0.06,0-0.11,0.05-0.13,0.11C14.17,23.33,14.21,23.29,14.28,23.29L14.28,23.29z M14.3,23.29
			c0.08,0,0.12,0.04,0.13,0.11C14.42,23.34,14.36,23.3,14.3,23.29C14.3,23.29,14.3,23.29,14.3,23.29L14.3,23.29z M14.19,20.71
			c-0.07,0-0.14,0.06-0.14,0.12l0,0.01c0,0.04,0,0.07,0,0.11v0c0.02,0.26,0.04,0.5,0.04,0.7c0.01,0.24,0.02,0.4,0.02,0.49
			c0.02,0.82,0.04,1.25,0.04,1.29h0l0.09,1.92c0,0.08,0.06,0.14,0.14,0.14c0,0,0,0,0.01,0c0.08,0,0.14-0.07,0.13-0.15l-0.09-1.92
			c0,0,0-0.01,0-0.01c0-0.04-0.02-0.46-0.04-1.28c0-0.09-0.01-0.26-0.02-0.5c-0.01-0.2-0.02-0.44-0.04-0.71c0-0.02,0-0.04,0-0.06
			l0-0.01c0.01-0.08-0.05-0.15-0.13-0.15C14.19,20.71,14.19,20.71,14.19,20.71z"/>
		<path d="M15.5,23.22L15.5,23.22C15.49,23.22,15.49,23.22,15.5,23.22C15.49,23.22,15.49,23.22,15.5,23.22L15.5,23.22z M15.48,23.22
			c-0.06,0.01-0.11,0.05-0.13,0.11C15.37,23.26,15.41,23.23,15.48,23.22z M15.5,23.22c0.08,0,0.12,0.04,0.13,0.11h0
			C15.62,23.27,15.57,23.23,15.5,23.22C15.5,23.22,15.5,23.22,15.5,23.22S15.5,23.22,15.5,23.22z M15.39,20.64
			c-0.07,0-0.13,0.06-0.14,0.12l0,0.01c0,0.04,0,0.07,0,0.11v0c0.02,0.26,0.04,0.5,0.04,0.7v0c0.01,0.24,0.02,0.4,0.02,0.49
			c0.02,0.82,0.04,1.24,0.04,1.29l0.09,1.92c0,0.08,0.06,0.14,0.14,0.14c0,0,0,0,0.01,0c0.08,0,0.14-0.07,0.13-0.15l-0.09-1.92
			c0,0,0,0,0-0.01c0-0.04-0.02-0.46-0.04-1.28v0c0-0.09-0.01-0.26-0.02-0.49c-0.01-0.21-0.02-0.44-0.05-0.71c0-0.02,0-0.05,0-0.07
			l0-0.01c0.01-0.08-0.05-0.15-0.13-0.15C15.4,20.64,15.4,20.64,15.39,20.64z"/>
		<path d="M16.75,23.14L16.75,23.14C16.75,23.14,16.75,23.14,16.75,23.14L16.75,23.14C16.75,23.14,16.75,23.14,16.75,23.14
			L16.75,23.14z M16.74,23.14c-0.06,0-0.11,0.05-0.13,0.11C16.63,23.18,16.67,23.15,16.74,23.14z M16.75,23.14
			c0.08,0,0.12,0.04,0.13,0.11h0C16.87,23.19,16.82,23.15,16.75,23.14C16.76,23.14,16.76,23.14,16.75,23.14S16.75,23.14,16.75,23.14
			z M16.65,20.56c-0.07,0-0.13,0.06-0.14,0.12l0,0.01c0,0.04,0,0.07,0,0.11v0c0.02,0.26,0.04,0.5,0.04,0.7
			c0.01,0.24,0.02,0.4,0.02,0.49c0.02,0.82,0.04,1.25,0.04,1.29l0.09,1.92c0,0.08,0.06,0.14,0.14,0.14c0,0,0,0,0.01,0
			c0.08,0,0.14-0.07,0.13-0.15l-0.09-1.92c0,0,0,0,0-0.01c0-0.04-0.02-0.46-0.04-1.28c0-0.09-0.01-0.26-0.02-0.5
			c-0.01-0.2-0.02-0.44-0.04-0.71h0c0-0.02,0-0.04,0-0.06l0-0.01c0.01-0.08-0.05-0.15-0.13-0.15
			C16.65,20.56,16.65,20.56,16.65,20.56z"/>
		<path d="M17.95,23.08L17.95,23.08C17.94,23.08,17.94,23.08,17.95,23.08L17.95,23.08C17.94,23.08,17.94,23.08,17.95,23.08
			L17.95,23.08z M17.93,23.08c-0.06,0-0.11,0.05-0.13,0.11C17.82,23.12,17.86,23.09,17.93,23.08z M17.95,23.08
			c0.08,0,0.12,0.04,0.13,0.11h0C18.07,23.13,18.02,23.09,17.95,23.08C17.95,23.08,17.95,23.08,17.95,23.08S17.95,23.08,17.95,23.08
			z M17.84,20.5c-0.07,0-0.13,0.06-0.14,0.12l0,0.01c0,0.04,0,0.07,0,0.11v0c0.02,0.26,0.04,0.5,0.04,0.7v0
			c0.01,0.24,0.02,0.4,0.02,0.49c0.02,0.82,0.04,1.25,0.04,1.29l0.09,1.92c0,0.08,0.06,0.14,0.14,0.14c0,0,0,0,0.01,0
			c0.08,0,0.14-0.07,0.13-0.15l-0.09-1.92c0,0,0,0,0-0.01c0-0.04-0.02-0.46-0.04-1.28c0-0.09-0.01-0.26-0.02-0.5
			c-0.01-0.2-0.02-0.44-0.04-0.71c0-0.02,0-0.05,0-0.07l0-0.01c0.01-0.08-0.05-0.15-0.13-0.15C17.85,20.5,17.85,20.5,17.84,20.5z"/>
	</g>
	<g>
		<g>
			<defs>
				<rect id="SVGID_00000109709211363502196790000018203254552286086286_" x="21.33" y="11.99" width="16.33" height="22.79"/>
			</defs>
			<clipPath id="SVGID_00000034054054444480443440000005343541828357897623_">
				<use xlink:href="#SVGID_00000109709211363502196790000018203254552286086286_"  style="overflow:visible;"/>
			</clipPath>
			<g style="clip-path:url(#SVGID_00000034054054444480443440000005343541828357897623_);">
				<path d="M21.78,12.47l0.41,9.45l0-0.01c0.05,0.39-0.15,1.41-0.53,3.03c-0.04,0.19-0.06,0.44-0.05,0.75
					c0.01,0.54,0.13,1.02,0.39,1.41c1.01,1.56,3.18,3.23,6.45,5.11c2.73,1.56,4.83,2.29,6.34,2.05c1.96-0.31,2.89-1.66,2.53-3.94
					c-0.08-0.52-0.46-0.93-0.91-1.3l0.01,0.01l-5.14-3.26c0,0-0.01,0-0.01,0c-0.71-0.51-1.26-1.14-1.67-1.87
					c-0.36-0.64-0.6-1.45-0.74-2.42c0,0,0-0.01,0-0.01c-0.43-8-0.76-8.89-0.78-8.94c0,0,0,0,0.01,0.01
					c-0.16-0.23-0.84-0.21-2.49-0.1c-1,0.06-2.3,0.15-3.94,0.17c-0.07,0-0.13-0.06-0.14-0.13c0-0.07,0.06-0.13,0.13-0.14
					c1.64-0.02,2.93-0.11,3.93-0.17c1.51-0.1,2.46-0.18,2.73,0.22c0,0.01,0.01,0.02,0.01,0.03c0.05,0.11,0.38,1.06,0.81,9.04l0-0.01
					c0.13,0.96,0.37,1.73,0.71,2.33c0.39,0.7,0.92,1.29,1.6,1.78l-0.01,0l5.14,3.25c0,0,0.01,0.01,0.01,0.01
					c0.46,0.38,0.9,0.84,1,1.47c0.38,2.4-0.62,3.9-2.75,4.25c-1.62,0.26-3.79-0.52-6.52-2.08c-3.27-1.87-5.49-3.58-6.54-5.19
					c-0.29-0.44-0.42-0.97-0.43-1.55c-0.01-0.32,0.01-0.6,0.06-0.82c0.39-1.65,0.57-2.61,0.53-2.93c0,0,0-0.01,0-0.01l-0.41-9.45
					c0-0.07,0.05-0.14,0.13-0.14C21.71,12.33,21.78,12.39,21.78,12.47z"/>
			</g>
		</g>
		<path d="M22.1,22.08c-0.07,0-0.12,0.05-0.13,0.11c-0.01,0.07,0.04,0.14,0.11,0.15c1.47,0.22,2.39,1.01,2.78,2.35
			c0.17,0.64,0.17,1.34-0.01,2.1c-0.17,0.71-0.5,1.48-0.99,2.31c-0.04,0.06-0.02,0.15,0.04,0.18c0.02,0.01,0.04,0.02,0.07,0.02
			c0.05,0,0.09-0.02,0.11-0.07c0.51-0.85,0.85-1.64,1.03-2.38c0.19-0.8,0.2-1.54,0.01-2.23l0,0c-0.42-1.45-1.42-2.3-3-2.54
			C22.12,22.08,22.11,22.08,22.1,22.08z"/>
		<g>
			<defs>
				<rect id="SVGID_00000011719108722932707860000002861763479587149469_" x="33.37" y="28.71" width="3.58" height="6.07"/>
			</defs>
			<clipPath id="SVGID_00000038413940997575283130000011871797657858202258_">
				<use xlink:href="#SVGID_00000011719108722932707860000002861763479587149469_"  style="overflow:visible;"/>
			</clipPath>
			<g style="clip-path:url(#SVGID_00000038413940997575283130000011871797657858202258_);">
				<path d="M36.63,29c-0.01,0-0.01,0-0.02,0c-1.18,0.2-2.07,0.8-2.69,1.81l0,0c-0.27,0.46-0.44,1.04-0.51,1.74l0,0
					c-0.06,0.75,0.01,1.35,0.19,1.82c0.02,0.05,0.07,0.08,0.12,0.08c0.02,0,0.03,0,0.05-0.01c0.07-0.03,0.1-0.11,0.07-0.17
					c-0.17-0.43-0.23-0.99-0.17-1.7c0.07-0.66,0.22-1.2,0.47-1.63c0.57-0.94,1.4-1.51,2.5-1.69c0.07-0.01,0.12-0.08,0.11-0.15
					C36.75,29.05,36.69,29,36.63,29z"/>
			</g>
		</g>
		<path d="M31,25.46c-0.04,0-0.07,0.02-0.1,0.04c-1.9,2.09-3.27,4.04-4.1,5.84c-0.03,0.07,0,0.15,0.07,0.18
			c0.02,0.01,0.04,0.01,0.06,0.01c0.05,0,0.1-0.03,0.12-0.08c0.82-1.78,2.17-3.7,4.05-5.77c0.05-0.05,0.05-0.14-0.01-0.19
			C31.07,25.47,31.04,25.46,31,25.46z"/>
		<path d="M31.96,26.05c-0.03,0-0.07,0.01-0.09,0.04c-1.67,1.7-3.05,3.63-4.14,5.8c-0.03,0.07-0.01,0.15,0.06,0.18
			c0.02,0.01,0.04,0.01,0.06,0.01c0.05,0,0.09-0.03,0.12-0.07c1.07-2.14,2.44-4.05,4.09-5.73c0.05-0.05,0.05-0.14,0-0.19
			C32.03,26.07,32,26.05,31.96,26.05z"/>
		<path d="M33.14,26.76c-0.03,0-0.07,0.01-0.09,0.04c-1.69,1.74-3.06,3.68-4.08,5.82c-0.03,0.07,0,0.15,0.06,0.18
			c0.02,0.01,0.04,0.01,0.06,0.01c0.05,0,0.1-0.03,0.12-0.08c1.02-2.11,2.36-4.02,4.03-5.74c0.05-0.05,0.05-0.14,0-0.19
			C33.21,26.78,33.17,26.76,33.14,26.76z"/>
		<path d="M21.79,14.05c-0.03,0-0.06,0.01-0.09,0.03c-0.06,0.05-0.06,0.13-0.01,0.19c0.22,0.26,0.62,0.42,1.2,0.46
			c0,0,0.01,0,0.01,0s0,0,0.01,0c0.25,0,0.44-0.02,0.56-0.06h0c0.11-0.02,0.33-0.11,0.65-0.26c0.05-0.02,0.09-0.03,0.14-0.03h0
			c0,0,0,0,0.01,0c0.03,0,0.06,0.01,0.11,0.02h0c0.33,0.12,0.53,0.19,0.61,0.2c0.17,0.04,0.34,0.06,0.49,0.06c0.02,0,0.03,0,0.04,0
			c0.19,0,0.37-0.02,0.55-0.07c0.1-0.02,0.3-0.1,0.59-0.25c0.02-0.01,0.05-0.02,0.09-0.02h0c0.01,0,0.01,0,0.02,0
			c0.03,0,0.07,0,0.11,0.01h0c0.5,0.14,0.81,0.21,0.93,0.21c0.05,0,0.1,0.01,0.15,0.01c0.2,0,0.37-0.03,0.51-0.1
			c0.07-0.03,0.09-0.11,0.06-0.18c-0.02-0.05-0.07-0.08-0.12-0.08c-0.02,0-0.04,0-0.06,0.01c-0.1,0.05-0.23,0.07-0.39,0.07
			c-0.04,0-0.09,0-0.13,0c0,0-0.01,0-0.01,0c-0.1,0-0.39-0.07-0.87-0.2l-0.01,0c-0.06-0.01-0.11-0.02-0.17-0.02
			c-0.01,0-0.02,0-0.03,0h0c-0.07,0.01-0.13,0.02-0.18,0.04l0,0c-0.27,0.14-0.45,0.21-0.53,0.22c0,0-0.01,0-0.01,0
			c-0.15,0.04-0.32,0.06-0.48,0.06c-0.01,0-0.03,0-0.04,0c-0.14,0-0.29-0.02-0.45-0.06c0,0-0.01,0-0.01,0
			c-0.06-0.01-0.25-0.07-0.57-0.19c0,0-0.01,0-0.01,0c-0.07-0.02-0.13-0.03-0.18-0.03c-0.01,0-0.02,0-0.02,0
			c-0.07,0-0.14,0.02-0.22,0.05c0,0-0.01,0-0.01,0c-0.31,0.15-0.52,0.23-0.6,0.24c0,0-0.01,0-0.02,0c-0.09,0.03-0.26,0.04-0.49,0.04
			c0,0,0,0,0,0c-0.5-0.04-0.84-0.16-1.02-0.37C21.87,14.07,21.83,14.05,21.79,14.05z"/>
		<path d="M22.98,17.75L22.98,17.75C22.98,17.75,22.98,17.75,22.98,17.75C22.98,17.75,22.98,17.75,22.98,17.75L22.98,17.75z
			 M22.97,17.75c-0.06,0-0.11,0.05-0.12,0.11C22.87,17.79,22.9,17.75,22.97,17.75z M22.99,17.75c0.08,0,0.12,0.04,0.13,0.11h0
			C23.1,17.8,23.05,17.75,22.99,17.75C22.99,17.75,22.99,17.75,22.99,17.75S22.99,17.75,22.99,17.75z M22.88,15.3
			c-0.07,0-0.13,0.05-0.13,0.11l0,0.01c0,0.03,0,0.07,0,0.11v0c0.02,0.25,0.03,0.47,0.04,0.66v0c0.01,0.23,0.02,0.38,0.02,0.47
			c0.02,0.78,0.03,1.18,0.04,1.22l0.08,1.82c0,0.07,0.06,0.13,0.13,0.13c0,0,0,0,0.01,0c0.07,0,0.13-0.07,0.13-0.14l-0.08-1.82
			c0,0,0,0,0-0.01c0-0.04-0.02-0.44-0.04-1.21c0-0.09-0.01-0.24-0.02-0.47c-0.01-0.2-0.02-0.42-0.04-0.67c0-0.02,0-0.04,0-0.06
			l0-0.01c0.01-0.07-0.05-0.14-0.12-0.14C22.89,15.3,22.89,15.3,22.88,15.3z"/>
		<path d="M24.03,17.7L24.03,17.7C24.03,17.7,24.03,17.7,24.03,17.7L24.03,17.7C24.03,17.7,24.03,17.7,24.03,17.7z M24.02,17.7
			c-0.06,0-0.11,0.05-0.12,0.11C23.91,17.74,23.95,17.71,24.02,17.7L24.02,17.7z M24.03,17.7c0.08,0,0.12,0.04,0.13,0.11
			C24.15,17.75,24.1,17.71,24.03,17.7C24.04,17.7,24.04,17.7,24.03,17.7L24.03,17.7z M23.93,15.25c-0.07,0-0.13,0.05-0.13,0.11
			l0,0.01c0,0.03,0,0.07,0,0.11v0c0.02,0.25,0.04,0.47,0.04,0.66c0.01,0.23,0.02,0.38,0.02,0.47c0.02,0.78,0.03,1.18,0.04,1.22h0
			l0.08,1.82c0,0.07,0.06,0.13,0.13,0.13c0,0,0,0,0.01,0c0.07,0,0.13-0.07,0.13-0.14l-0.08-1.82c0,0,0-0.01,0-0.01
			c0-0.04-0.02-0.44-0.04-1.21c0-0.09-0.01-0.24-0.02-0.47c-0.01-0.19-0.02-0.42-0.04-0.67c0-0.02,0-0.04,0-0.06l0-0.01
			C24.07,15.32,24.01,15.26,23.93,15.25C23.94,15.25,23.94,15.25,23.93,15.25z"/>
		<path d="M25.17,17.64L25.17,17.64C25.17,17.64,25.17,17.64,25.17,17.64C25.17,17.64,25.17,17.64,25.17,17.64L25.17,17.64z
			 M25.16,17.64c-0.06,0.01-0.11,0.05-0.12,0.11C25.06,17.68,25.1,17.64,25.16,17.64z M25.18,17.64c0.08,0,0.12,0.04,0.13,0.11h0
			C25.29,17.69,25.24,17.64,25.18,17.64C25.18,17.64,25.18,17.64,25.18,17.64S25.18,17.64,25.18,17.64z M25.07,15.19
			c-0.07,0-0.13,0.05-0.13,0.11l0,0.01c0,0.03,0,0.07,0,0.11v0c0.02,0.25,0.03,0.47,0.04,0.66v0c0.01,0.23,0.02,0.38,0.02,0.47
			c0.02,0.78,0.03,1.18,0.04,1.22l0.08,1.82c0,0.07,0.06,0.13,0.13,0.13c0,0,0,0,0.01,0c0.07,0,0.13-0.07,0.13-0.14l-0.08-1.82
			c0,0,0,0,0-0.01c0-0.04-0.02-0.44-0.04-1.21v0c0-0.09-0.01-0.24-0.02-0.47c-0.01-0.2-0.02-0.42-0.04-0.67c0-0.02,0-0.04,0-0.06
			l0-0.01c0.01-0.07-0.05-0.14-0.12-0.14C25.08,15.19,25.08,15.19,25.07,15.19z"/>
		<path d="M26.37,17.56L26.37,17.56C26.36,17.56,26.36,17.56,26.37,17.56L26.37,17.56C26.36,17.56,26.36,17.56,26.37,17.56
			L26.37,17.56z M26.35,17.56c-0.06,0-0.11,0.05-0.12,0.11C26.25,17.6,26.29,17.57,26.35,17.56z M26.37,17.56
			c0.08,0,0.12,0.04,0.13,0.11h0C26.48,17.61,26.44,17.57,26.37,17.56C26.37,17.56,26.37,17.56,26.37,17.56
			C26.37,17.56,26.37,17.56,26.37,17.56z M26.27,15.11c-0.07,0-0.13,0.05-0.13,0.11l0,0.01c0,0.03,0,0.07,0,0.11v0
			c0.02,0.25,0.04,0.47,0.04,0.66c0.01,0.23,0.02,0.38,0.02,0.47c0.02,0.78,0.03,1.18,0.04,1.22l0.08,1.82
			c0,0.07,0.06,0.13,0.13,0.13c0,0,0,0,0.01,0c0.07,0,0.13-0.07,0.13-0.14l-0.08-1.82c0,0,0,0,0-0.01c0-0.04-0.02-0.44-0.04-1.21
			c0-0.09-0.01-0.24-0.02-0.47c-0.01-0.19-0.02-0.42-0.04-0.67h0c0-0.02,0-0.04,0-0.06l0-0.01c0.01-0.07-0.05-0.14-0.12-0.14
			C26.27,15.11,26.27,15.11,26.27,15.11z"/>
		<path d="M27.5,17.5L27.5,17.5C27.5,17.5,27.5,17.5,27.5,17.5L27.5,17.5C27.5,17.5,27.5,17.5,27.5,17.5L27.5,17.5z M27.49,17.5
			c-0.06,0-0.11,0.05-0.12,0.11C27.38,17.54,27.42,17.51,27.49,17.5z M27.5,17.5c0.08,0,0.12,0.04,0.13,0.11h0
			C27.62,17.55,27.57,17.51,27.5,17.5C27.51,17.5,27.51,17.5,27.5,17.5C27.5,17.5,27.5,17.5,27.5,17.5z M27.4,15.05
			c-0.07,0-0.13,0.05-0.13,0.11l0,0.01c0,0.03,0,0.07,0,0.11v0c0.02,0.25,0.04,0.47,0.04,0.66v0c0.01,0.23,0.02,0.38,0.02,0.47
			c0.02,0.78,0.03,1.18,0.04,1.22l0.08,1.82c0,0.07,0.06,0.13,0.13,0.13c0,0,0,0,0.01,0c0.07,0,0.13-0.07,0.13-0.14l-0.08-1.82
			c0,0,0,0,0-0.01c0-0.04-0.02-0.44-0.04-1.21c0-0.09-0.01-0.24-0.02-0.47c-0.01-0.19-0.02-0.42-0.04-0.67c0-0.02,0-0.04,0-0.06
			l0-0.01c0.01-0.07-0.05-0.14-0.12-0.14C27.41,15.05,27.41,15.05,27.4,15.05z"/>
	</g>
</g>
</svg>
