<?xml version="1.0" encoding="utf-8"?>
<!-- Generator: Adobe Illustrator 27.3.1, SVG Export Plug-In . SVG Version: 6.00 Build 0)  -->
<svg version="1.1" id="Layer_1" xmlns="http://www.w3.org/2000/svg" xmlns:xlink="http://www.w3.org/1999/xlink" x="0px" y="0px"
	 viewBox="0 0 50 50" style="enable-background:new 0 0 50 50;" xml:space="preserve">
<style type="text/css">
	.st0{fill:none;}
	.st1{stroke:#000000;stroke-miterlimit:10;}
	.st2{stroke:#000000;stroke-width:0.75;stroke-miterlimit:10;}
	.st3{clip-path:url(#SVGID_00000028305344864653874290000014503747187693654414_);}
	.st4{clip-path:url(#SVGID_00000173869389893861949580000002028578299966923948_);}
	.st5{fill:#FFFFFF;}
	.st6{clip-path:url(#SVGID_00000161608296484374171940000009463297537744786589_);}
	.st7{fill:#231F20;}
	.st8{clip-path:url(#SVGID_00000093868509644893822280000009933468560694992308_);}
	.st9{clip-path:url(#SVGID_00000154383945058115965860000009855295399892311693_);}
	.st10{clip-path:url(#SVGID_00000042709310724829128990000017258412851299559557_);}
	.st11{clip-path:url(#SVGID_00000103949498202267579500000005768105712438028458_);}
	.st12{clip-path:url(#SVGID_00000036232376519508086210000012154183283890906762_);}
	.st13{clip-path:url(#SVGID_00000163039864756611876550000008410516968250732221_);}
	.st14{clip-path:url(#SVGID_00000054240055337127286240000002142976027875062195_);}
	.st15{clip-path:url(#SVGID_00000173862172879167721040000012681778367263717258_);}
	.st16{clip-path:url(#SVGID_00000146488490199080332200000009323779081472363169_);}
	.st17{clip-path:url(#SVGID_00000036957589885268523540000006907069839257691828_);}
	.st18{clip-path:url(#SVGID_00000150807490418006104690000014443609513211205547_);}
	.st19{clip-path:url(#SVGID_00000101060814498128801850000012577173472902050224_);}
	.st20{clip-path:url(#SVGID_00000132046991752189602670000009353182162996690818_);}
	.st21{clip-path:url(#SVGID_00000016793868864545814840000007851431891244594110_);}
	.st22{clip-path:url(#SVGID_00000103962956028605298320000000651222826247217571_);}
	.st23{clip-path:url(#SVGID_00000119115064775662805110000018235342241713657786_);}
	.st24{clip-path:url(#SVGID_00000005979431676932583380000011870652109076567438_);}
	.st25{clip-path:url(#SVGID_00000083050525731675177040000015983067731370631870_);}
	.st26{clip-path:url(#SVGID_00000015343735692804775380000005430336641408527541_);}
	.st27{clip-path:url(#SVGID_00000023278680501029333220000000148829697198131356_);}
	.st28{clip-path:url(#SVGID_00000173850973927344929170000011693336358838947006_);}
	.st29{clip-path:url(#SVGID_00000038373393997934175430000005579950964543339187_);}
	.st30{clip-path:url(#SVGID_00000150072458428443311610000004601447387112929178_);}
	.st31{fill-rule:evenodd;clip-rule:evenodd;}
	.st32{clip-path:url(#SVGID_00000116925447450378394840000010674957166884029077_);}
	.st33{clip-path:url(#SVGID_00000069367192452540372900000000209079406969073057_);}
	.st34{stroke:#000000;stroke-width:0.5;stroke-miterlimit:10;}
	.st35{clip-path:url(#SVGID_00000140708588197980095840000018309577248511848098_);}
	.st36{clip-path:url(#SVGID_00000162313084499848754690000002763730385533179838_);}
	.st37{clip-path:url(#SVGID_00000005244377603980688010000013000181927428819380_);}
	.st38{fill:#1A1A1A;}
	.st39{clip-path:url(#SVGID_00000133527938257366962400000004027700305427654310_);}
	.st40{clip-path:url(#SVGID_00000014621842003525777390000012529009980464232340_);}
	.st41{clip-path:url(#SVGID_00000052084900238287604180000017035158588785392277_);}
	.st42{clip-path:url(#SVGID_00000044876454006398059420000013185494705602954641_);}
	.st43{clip-path:url(#SVGID_00000102531540293993501900000011366000137896767117_);}
	.st44{clip-path:url(#SVGID_00000116931783523293934340000007178416882514826407_);}
	.st45{clip-path:url(#SVGID_00000096761291273752852640000011216945668518597520_);}
	.st46{clip-path:url(#SVGID_00000080186470445447205470000008150318533723391399_);}
	.st47{clip-path:url(#SVGID_00000090279079038497891550000016135025016521097894_);}
	.st48{fill:#F1F1F1;}
	.st49{fill:#E8E8E8;}
	.st50{fill:#FEFEFE;}
	.st51{fill:#CCCCCC;}
	.st52{fill:#B3B3B3;}
	.st53{fill:#E6E6E6;}
	.st54{fill:#EBEBEB;}
	.st55{fill:#EEEEEE;}
	.st56{fill:#F8F8F8;}
	.st57{fill:#FBFBFB;}
	.st58{fill:#383838;}
	.st59{fill:#232323;}
	.st60{fill:#F6F6F6;}
	.st61{fill:#535353;}
	.st62{fill:#0A0A0A;}
	.st63{fill:#F5F5F5;}
	.st64{fill:#818181;}
	.st65{fill:#4A4A4A;}
	.st66{fill:#999999;}
	.st67{fill:url(#SVGID_00000181085258935026066800000016215392110038763454_);}
	.st68{fill:url(#SVGID_00000067940258693743368170000002264114663246261895_);}
	.st69{fill:#0E0E0D;}
	.st70{fill:#333333;}
	.st71{fill:#808080;}
	.st72{fill:url(#SVGID_00000134211973704523381910000003155051959056204179_);}
	.st73{fill:#666666;}
	.st74{fill:url(#SVGID_00000048486512566587434960000017413564965712658601_);}
	.st75{fill:url(#SVGID_00000134245803305820555820000017379552148053186972_);}
	.st76{fill:url(#SVGID_00000039098939561950062490000016370845441022651541_);}
	.st77{fill:url(#SVGID_00000021098824169782236680000000205731532343021231_);}
	.st78{fill:url(#SVGID_00000021097496140936434260000004223421726258477462_);}
	.st79{clip-path:url(#SVGID_00000018206270985465460160000009786233293447860410_);}
	.st80{clip-path:url(#SVGID_00000060735654325843774100000006347822038923402927_);}
	.st81{clip-path:url(#SVGID_00000119102236097436979950000014477916233044615841_);}
	.st82{clip-path:url(#SVGID_00000179612639865624330200000016561004820050559889_);}
	.st83{clip-path:url(#SVGID_00000157308481417027286610000003213100447384358532_);}
	.st84{fill:#241F20;stroke:#000000;stroke-width:0.5;stroke-miterlimit:10;}
	.st85{clip-path:url(#SVGID_00000008116065292197756130000012059991892397034387_);}
	.st86{clip-path:url(#SVGID_00000078762156648799221580000014423555365277993122_);}
	.st87{clip-path:url(#SVGID_00000117641074072880519380000006450127233506959277_);}
	.st88{clip-path:url(#SVGID_00000061431906865224485040000003758010620407274638_);}
	.st89{clip-path:url(#SVGID_00000035518861742451890630000015127039747461110918_);}
	.st90{clip-path:url(#SVGID_00000183929542571591802080000001704012361789624759_);}
	.st91{clip-path:url(#SVGID_00000176726289531186732660000009721387980005514904_);}
	.st92{clip-path:url(#SVGID_00000084503196655832365730000004041067116571884199_);}
	.st93{clip-path:url(#SVGID_00000056408454684134891420000009842008629996034217_);}
	.st94{clip-path:url(#SVGID_00000021093260139187576130000010144609644832610470_);}
	.st95{clip-path:url(#SVGID_00000039113372671386224890000010321561102395820452_);}
	.st96{clip-path:url(#SVGID_00000091003299423760921140000005511182084291963281_);}
	.st97{clip-path:url(#SVGID_00000027599986835806707380000014609137867844431748_);}
	.st98{clip-path:url(#SVGID_00000119106627351988327250000010366077401876861371_);}
	.st99{clip-path:url(#SVGID_00000049200304311311585120000011840133596416752040_);}
	.st100{clip-path:url(#SVGID_00000181808151722255991420000017968246604542873486_);}
	.st101{clip-path:url(#SVGID_00000114031829967457457450000004543892197075656895_);}
	.st102{clip-path:url(#SVGID_00000132081982866501964780000001589806204146558131_);}
	.st103{clip-path:url(#SVGID_00000183208756837804185870000003562107594631525294_);}
	.st104{clip-path:url(#SVGID_00000068642380343132974030000005425866069605338519_);}
	.st105{clip-path:url(#SVGID_00000033338076971859411370000000883299113704578207_);}
	.st106{clip-path:url(#SVGID_00000006667618641510934870000016588182480577442446_);}
	.st107{clip-path:url(#SVGID_00000167368266588843259640000007475878420810762395_);}
	.st108{clip-path:url(#SVGID_00000030487759996971978900000011140647863620649868_);}
	.st109{clip-path:url(#SVGID_00000022544360293392213400000014608026600028806529_);}
	.st110{clip-path:url(#SVGID_00000147189697101214075240000002489811706149110435_);}
	.st111{clip-path:url(#SVGID_00000085944662781055742940000012067498686368102045_);}
	.st112{clip-path:url(#SVGID_00000034066804988544240410000002372256866913562808_);}
	.st113{clip-path:url(#SVGID_00000042017226364469726720000012415236971186100397_);}
	.st114{clip-path:url(#SVGID_00000175282488542155751460000003642690652708328107_);}
	.st115{fill:#FFFFFF;stroke:#000000;stroke-miterlimit:10;}
	.st116{clip-path:url(#SVGID_00000169545230575219005690000016468155494581541015_);}
	.st117{clip-path:url(#SVGID_00000008833879794486869970000013055854719291188888_);}
	.st118{fill:none;stroke:#010101;stroke-miterlimit:10;}
	.st119{fill:#010101;stroke:#000000;stroke-miterlimit:10;}
	.st120{clip-path:url(#SVGID_00000039119544991914112200000006160477386738475920_);}
	.st121{fill:#010101;stroke:#010101;stroke-miterlimit:10;}
	.st122{clip-path:url(#SVGID_00000078731892087258605100000005991086238004174984_);}
	.st123{clip-path:url(#SVGID_00000113318846279002091960000014961542597523224467_);}
	.st124{clip-path:url(#SVGID_00000080928530690201737010000015474381233938689436_);}
	.st125{clip-path:url(#SVGID_00000042697247901083808190000009995218472963191173_);}
	.st126{clip-path:url(#SVGID_00000020381021351837272970000002199918231340775851_);}
	.st127{fill:none;stroke:#000000;stroke-width:3;stroke-miterlimit:10;}
	.st128{clip-path:url(#SVGID_00000032623973916502255150000009286147864969990814_);}
	.st129{clip-path:url(#SVGID_00000170266484572000873040000011121418553117356475_);}
	.st130{clip-path:url(#SVGID_00000161589276079270464900000007107855872323779989_);}
	.st131{clip-path:url(#SVGID_00000087404112361318277180000006992693941864242622_);}
	.st132{fill:#040606;}
	.st133{clip-path:url(#SVGID_00000092458468253902399470000000140134574001612201_);}
	.st134{clip-path:url(#SVGID_00000164489632515835426520000010044613940811786926_);}
	.st135{clip-path:url(#SVGID_00000052064088199056342090000012298742040866146437_);}
	.st136{clip-path:url(#SVGID_00000066475428265369682330000015042002843023599544_);}
	.st137{clip-path:url(#SVGID_00000157304713865737337530000001023211466253215120_);}
	.st138{clip-path:url(#SVGID_00000124155740378325510360000007920173962891142554_);}
	.st139{clip-path:url(#SVGID_00000060031590449428069820000001048403879524680117_);}
	.st140{fill:#FFFFFF;stroke:#000000;stroke-width:1.5;stroke-miterlimit:10;}
	.st141{clip-path:url(#SVGID_00000078764079264607421120000018260381831369834115_);}
	.st142{fill:#BDBCBC;}
	.st143{clip-path:url(#SVGID_00000126318854214972972280000013680396558848751251_);}
	.st144{fill:#2E2A2B;}
	.st145{clip-path:url(#SVGID_00000065780732228532026290000000526342028539868566_);}
	.st146{clip-path:url(#SVGID_00000103242539411001068270000014081497675351588280_);}
	.st147{clip-path:url(#SVGID_00000065795831868677752510000000437140235242834616_);}
	.st148{clip-path:url(#SVGID_00000015314589991914270050000011027409813232019845_);}
	.st149{clip-path:url(#SVGID_00000085958929713851807930000015294647367344025478_);}
	.st150{fill:#272324;}
	.st151{clip-path:url(#SVGID_00000064338916600997735570000016754633366438757030_);}
	.st152{clip-path:url(#SVGID_00000037684663651949711270000000978274023937553303_);}
	.st153{clip-path:url(#SVGID_00000116944286959073621640000013018400821207916186_);}
	.st154{clip-path:url(#SVGID_00000140726534306912697280000014236579725460370310_);}
	.st155{clip-path:url(#SVGID_00000122679120942929122760000009961372347212300693_);}
	.st156{clip-path:url(#SVGID_00000070081659239723870110000006800039915735675047_);}
	.st157{fill:none;stroke:#000000;stroke-width:0.8735;stroke-linecap:round;stroke-linejoin:round;stroke-miterlimit:10;}
	.st158{clip-path:url(#SVGID_00000172428004091290272650000009118054161134696338_);}
	.st159{clip-path:url(#SVGID_00000165223896876099377920000015749106452540560265_);}
	.st160{clip-path:url(#SVGID_00000060028262406735675030000015615077196242362538_);}
	.st161{clip-path:url(#SVGID_00000066514609983122575040000014339827241408790207_);}
	.st162{clip-path:url(#SVGID_00000003065365144631731080000009719414963499180987_);}
	.st163{clip-path:url(#SVGID_00000024723194499334778870000013262208152694328759_);}
	.st164{clip-path:url(#SVGID_00000115481215562154117130000006890985783618085521_);}
	.st165{clip-path:url(#SVGID_00000072970835891204068160000012414195234249667504_);}
	.st166{clip-path:url(#SVGID_00000179608504717709934960000009980073954320562066_);}
	.st167{clip-path:url(#SVGID_00000127755993072809740720000013670667271646444203_);}
	.st168{clip-path:url(#SVGID_00000051361024616980128570000009105785716971663488_);}
	.st169{clip-path:url(#SVGID_00000091003606027949127820000010936375065779106976_);}
	.st170{clip-path:url(#SVGID_00000060010212171093399890000003507023236109048192_);}
	.st171{clip-path:url(#SVGID_00000085233747760102411370000007842724123515812531_);}
	.st172{clip-path:url(#SVGID_00000001653211055020813420000001805854442102267836_);}
	.st173{clip-path:url(#SVGID_00000100364373853658185240000011220525980445449136_);}
	.st174{clip-path:url(#SVGID_00000070811986410029105090000010405046026242233490_);}
	.st175{clip-path:url(#SVGID_00000167394756677355146880000004506208266428962706_);}
	.st176{clip-path:url(#SVGID_00000073000019927548126300000007784144489199574658_);}
	.st177{clip-path:url(#SVGID_00000018930522767252900200000007882181085659375802_);}
	.st178{clip-path:url(#SVGID_00000111170818526174954640000012760757288904573114_);}
	.st179{clip-path:url(#SVGID_00000062899729517208755310000011836989971063696308_);}
	.st180{clip-path:url(#SVGID_00000000927446312612321170000011562994567709182849_);}
	.st181{clip-path:url(#SVGID_00000000936509766092761000000003354450776670461064_);}
	.st182{clip-path:url(#SVGID_00000092430491909254226050000004811359102132881573_);}
	.st183{clip-path:url(#SVGID_00000120531111914650292000000005888928328273947799_);}
	.st184{clip-path:url(#SVGID_00000039843074855386955570000016780028611164046496_);}
	.st185{clip-path:url(#SVGID_00000088122128003031632780000015762527953781961635_);}
	.st186{clip-path:url(#SVGID_00000089534946677921160850000002755987873032749190_);}
	.st187{clip-path:url(#SVGID_00000067227779138222171650000015324817993729814918_);}
	.st188{clip-path:url(#SVGID_00000030449309198501097610000015032988475773573511_);}
	.st189{clip-path:url(#SVGID_00000058571975013987583810000013042444039562571658_);}
	.st190{clip-path:url(#SVGID_00000032645923963324204580000017245241578958745226_);}
	.st191{clip-path:url(#SVGID_00000100356187113998243900000002101677276377322141_);}
	.st192{clip-path:url(#SVGID_00000057837856912060345120000002769603098572295827_);}
	.st193{clip-path:url(#SVGID_00000036235346557996124900000008416262719333008798_);}
	.st194{clip-path:url(#SVGID_00000131347969682137862470000010133454477603438248_);}
	.st195{clip-path:url(#SVGID_00000028326057467382672840000006939640698728822173_);}
	.st196{fill:#E5E5E5;}
	.st197{fill:#1D1D1B;}
	.st198{fill:none;stroke:#000000;stroke-miterlimit:10;}
	.st199{fill:#FEFEFE;stroke:#000000;stroke-miterlimit:10;}
	.st200{clip-path:url(#SVGID_00000154416357041217525780000016272294634761328048_);}
	.st201{clip-path:url(#SVGID_00000091731235893921744630000001616559441313409938_);}
	.st202{clip-path:url(#SVGID_00000067238565764632247860000015005867700134683550_);}
	.st203{fill:#231F1F;}
	.st204{fill:#020000;}
	.st205{clip-path:url(#SVGID_00000132067666587209639960000017329255631450486407_);}
	.st206{clip-path:url(#SVGID_00000062164439598125783400000010022264878410277293_);}
	.st207{clip-path:url(#SVGID_00000067942064676295458100000002912004174230388387_);}
	.st208{clip-path:url(#SVGID_00000103228157270667341860000016535806380922252458_);}
	.st209{fill:#050000;}
	.st210{clip-path:url(#SVGID_00000084522931966658473050000000795049543063222154_);}
	.st211{clip-path:url(#SVGID_00000138572325451166265770000000927415164130369932_);}
	.st212{clip-path:url(#SVGID_00000115479442085489077800000010272052845302754470_);}
	.st213{clip-path:url(#SVGID_00000084508465523793294510000003109744797019929751_);}
	.st214{clip-path:url(#SVGID_00000163070278149889823980000015392862915354559362_);}
	.st215{clip-path:url(#SVGID_00000018953767179630293830000018122230252739177601_);}
	.st216{fill:#12100F;}
	.st217{clip-path:url(#SVGID_00000121263928877183354150000015663742588260791958_);}
	.st218{clip-path:url(#SVGID_00000083800268882281795130000011722233104994763394_);}
	.st219{fill:none;stroke:#000000;stroke-width:0.5;stroke-miterlimit:10;}
	.st220{clip-path:url(#SVGID_00000155114449340711094850000000704571164421505930_);}
	.st221{clip-path:url(#SVGID_00000112601170606313415400000013019399427197936289_);}
	.st222{clip-path:url(#SVGID_00000128486722169626809960000004010554293039340210_);}
	.st223{clip-path:url(#SVGID_00000152249404378722885230000006007301850971998608_);}
	.st224{fill:none;stroke:#000000;stroke-width:0.25;stroke-miterlimit:10;}
	.st225{clip-path:url(#SVGID_00000111190715615241641850000006502268886447198370_);}
	.st226{clip-path:url(#SVGID_00000153684220592884092880000016656458094713726340_);}
	.st227{clip-path:url(#SVGID_00000124158725985824235750000015737780448857881017_);}
</style>
<g>
	<defs>
		<rect id="SVGID_00000110471945953171195490000000371875558649269168_" x="13.29" y="6.51" width="22.71" height="40.37"/>
	</defs>
	<clipPath id="SVGID_00000005235495076399655910000007194120035001299645_">
		<use xlink:href="#SVGID_00000110471945953171195490000000371875558649269168_"  style="overflow:visible;"/>
	</clipPath>
	<g style="clip-path:url(#SVGID_00000005235495076399655910000007194120035001299645_);">
		<path d="M35.91,26.28l-0.27-0.92c0.1-0.11,0.14-0.25,0.11-0.4l-0.15-0.75c0,0,0,0,0-0.01l-2.79-13.48
			c-0.15-0.76-0.71-1.35-1.45-1.55L27.8,8.21V7.13c0-0.34-0.28-0.62-0.62-0.62h-5c-0.34,0-0.62,0.28-0.62,0.62v1.26
			c0,0.43,0.32,0.8,0.74,0.86l2.09,0.31V22.3h-4.23l-0.39-4.74l3.69,0.92c0.19,0.05,0.37-0.1,0.37-0.29v-3.6
			c0-0.14-0.1-0.26-0.23-0.29l-4.19-1.05l-0.03-0.31c-0.01-0.16-0.15-0.28-0.31-0.27c-0.16,0.01-0.28,0.15-0.26,0.31l0.35,4.25
			l-2.24,8.88l-0.09-0.04c-0.02-0.01-0.04-0.03-0.06-0.04l-2.64-1.08l0.1-0.47l1.38-0.32c0.33-0.08,0.58-0.34,0.65-0.67l1.14-5.45
			c0.07-0.33-0.06-0.67-0.33-0.88l-1.15-0.85l1.13-5.48c0.11-0.54,0.51-0.96,1.04-1.11l2.5-0.68c0.15-0.04,0.25-0.2,0.2-0.35
			c-0.04-0.15-0.2-0.25-0.35-0.2l-2.5,0.68c-0.74,0.2-1.3,0.8-1.45,1.55L13.7,24.2c0,0,0,0,0,0.01l-0.15,0.75
			c-0.03,0.15,0.01,0.3,0.11,0.4l-0.27,0.92c-0.07,0.23,0.05,0.46,0.27,0.55l2.36,0.97c0.06,0.02,0.11,0.03,0.17,0.03
			c0.07,0,0.14-0.01,0.2-0.04c0.12-0.06,0.2-0.16,0.24-0.28l0.23-0.8c0.05,0.02,0.11,0.03,0.16,0.03c0.07,0,0.14-0.02,0.2-0.05
			c0.12-0.06,0.2-0.17,0.24-0.3l1.86-7.38l0.28,3.41c0.01,0.14,0.01,0.29-0.01,0.44l-0.19,1.61c-0.29,2.48-0.51,4.99-0.64,7.48
			L18,45.96c-0.01,0.24,0.07,0.48,0.23,0.65c0.16,0.17,0.39,0.27,0.63,0.27h3.58c0.45,0,0.83-0.35,0.86-0.81l0.41-5.82
			c0.07-0.95,0.16-1.92,0.28-2.87l0.65-5.21l0.65,5.21c0.12,0.95,0.21,1.91,0.28,2.87L26,46.08c0.03,0.45,0.41,0.81,0.86,0.81h3.58
			c0.24,0,0.47-0.1,0.63-0.27c0.16-0.17,0.25-0.41,0.23-0.65l-0.75-13.99c-0.13-2.49-0.35-5.01-0.64-7.48l-0.19-1.61
			c-0.02-0.14-0.02-0.3-0.01-0.44l0.29-3.38l1.86,7.35c0.03,0.13,0.11,0.24,0.23,0.3c0.07,0.03,0.13,0.05,0.2,0.05
			c0.06,0,0.11-0.01,0.16-0.03l0.23,0.8c0.04,0.12,0.12,0.23,0.24,0.28c0.06,0.03,0.13,0.04,0.2,0.04c0.06,0,0.12-0.01,0.17-0.03
			l2.36-0.97C35.87,26.75,35.98,26.51,35.91,26.28z M15.79,16.95l0.93,0.69c0.09,0.07,0.13,0.18,0.11,0.29l-0.28,1.31
			c-0.15-0.41-0.44-0.77-0.84-0.99c-0.06-0.03-0.12-0.05-0.19-0.05L15.79,16.95z M16.1,27.21l-2.13-0.87l0.21-0.72l2.13,0.87
			L16.1,27.21z M26.07,7.09h1.1c0.02,0,0.04,0.02,0.04,0.04v1.26c0,0.14-0.11,0.27-0.25,0.29l-1.88,0.28l0.47-1.49
			C25.64,7.24,25.84,7.09,26.07,7.09z M22.38,8.67c-0.14-0.02-0.25-0.14-0.25-0.29V7.13c0-0.03,0.02-0.04,0.04-0.04h1.1
			c0.23,0,0.44,0.15,0.51,0.37l0.47,1.49L22.38,8.67z M24.34,7.29c-0.02-0.07-0.05-0.14-0.09-0.2h0.84
			c-0.03,0.06-0.06,0.13-0.09,0.2l-0.34,1.06L24.34,7.29z M20.16,22.94c0-0.02,0-0.04,0.01-0.06h4.22v1.05h-4.34L20.16,22.94z
			 M29.97,32l0.75,14c0.01,0.08-0.02,0.15-0.08,0.21c-0.05,0.06-0.13,0.09-0.21,0.09h-3.58c-0.15,0-0.28-0.12-0.29-0.27l-0.41-5.82
			c-0.07-0.96-0.16-1.94-0.29-2.89l-0.93-7.4c-0.02-0.15-0.15-0.26-0.3-0.25c-0.15,0-0.28,0.1-0.3,0.25l-0.93,7.4
			c-0.12,0.96-0.22,1.93-0.28,2.89l-0.41,5.82c-0.01,0.15-0.14,0.27-0.29,0.27h-3.58c-0.08,0-0.15-0.03-0.21-0.09
			c-0.06-0.06-0.09-0.13-0.08-0.21l0.75-14c0.13-2.48,0.35-4.98,0.64-7.45l0.01-0.04h4.41v2c0,0.16,0.13,0.29,0.29,0.29
			c0.16,0,0.29-0.13,0.29-0.29v-2h2.9c0.16,0,0.29-0.13,0.29-0.29c0-0.16-0.13-0.29-0.29-0.29h-2.9v-1.05h4.17
			c0,0.02,0,0.04,0.01,0.06l0.19,1.61C29.62,27.02,29.84,29.52,29.97,32z M32.52,26.04c-0.02,0.01-0.04,0.02-0.06,0.04l-0.09,0.04
			l-2.23-8.84l0.36-4.29c0.01-0.16-0.11-0.3-0.26-0.31c-0.16-0.01-0.3,0.11-0.32,0.26l-0.03,0.32l-4.16,1.04
			c-0.13,0.03-0.22,0.15-0.22,0.29v3.6c0,0.19,0.18,0.34,0.37,0.29l3.65-0.91l-0.4,4.73h-4.18V9.56l2.09-0.31
			c0.28-0.04,0.52-0.22,0.64-0.47l3.51,0.95c0.53,0.14,0.93,0.57,1.04,1.11l1.52,7.37c-0.06,0-0.13,0.01-0.19,0.05
			c-0.4,0.22-0.69,0.58-0.84,0.99l-0.27-1.31c-0.02-0.11,0.02-0.22,0.11-0.29l0.27-0.2c0.13-0.1,0.15-0.28,0.06-0.41
			c-0.1-0.13-0.28-0.15-0.4-0.06l-0.27,0.2c-0.27,0.2-0.4,0.55-0.33,0.88l1.13,5.45c0.07,0.33,0.33,0.59,0.65,0.67l1.38,0.32
			l0.1,0.47L32.52,26.04z M33.2,27.21l-0.21-0.72l2.13-0.87l0.21,0.72L33.2,27.21z"/>
	</g>
</g>
</svg>
