<?xml version="1.0" encoding="utf-8"?>
<!-- Generator: Adobe Illustrator 27.3.1, SVG Export Plug-In . SVG Version: 6.00 Build 0)  -->
<svg version="1.1" id="Layer_1" xmlns="http://www.w3.org/2000/svg" xmlns:xlink="http://www.w3.org/1999/xlink" x="0px" y="0px"
	 viewBox="0 0 50 50" style="enable-background:new 0 0 50 50;" xml:space="preserve">
<style type="text/css">
	.st0{fill:none;}
	.st1{stroke:#000000;stroke-miterlimit:10;}
	.st2{stroke:#000000;stroke-width:0.75;stroke-miterlimit:10;}
	.st3{clip-path:url(#SVGID_00000175283800061903026440000002037705844494887080_);}
	.st4{clip-path:url(#SVGID_00000089533793285027456110000003087550099342782653_);}
	.st5{fill:#FFFFFF;}
	.st6{clip-path:url(#SVGID_00000040558065292944693130000014160523938315582088_);}
	.st7{fill:#231F20;}
	.st8{clip-path:url(#SVGID_00000155828922257573886730000003147060863274922409_);}
	.st9{clip-path:url(#SVGID_00000085216818338656499220000001901039520560646308_);}
	.st10{clip-path:url(#SVGID_00000153694543611241163750000017622835673642024835_);}
	.st11{clip-path:url(#SVGID_00000016058469751620698880000002762708716976886914_);}
	.st12{clip-path:url(#SVGID_00000147919463324170290380000010939689264760452754_);}
	.st13{clip-path:url(#SVGID_00000026164728699598282400000015401974696706395561_);}
	.st14{clip-path:url(#SVGID_00000000945531050710472770000000248543322388159113_);}
	.st15{clip-path:url(#SVGID_00000154427062721745592210000009026802193840240529_);}
	.st16{clip-path:url(#SVGID_00000118386377028987533750000017058946527655097476_);}
	.st17{clip-path:url(#SVGID_00000123414602063158019070000002150940380337864832_);}
	.st18{clip-path:url(#SVGID_00000059990489405544892930000006503789208123121330_);}
	.st19{clip-path:url(#SVGID_00000171691566804022655880000001218124475866874046_);}
	.st20{clip-path:url(#SVGID_00000059272535605298223380000012308846489400672139_);}
	.st21{clip-path:url(#SVGID_00000040564502927466154020000006488712784646493863_);}
	.st22{clip-path:url(#SVGID_00000109710565815514300520000016042832866976922512_);}
	.st23{clip-path:url(#SVGID_00000146487414883946401240000010302698291775016087_);}
	.st24{clip-path:url(#SVGID_00000108310337303332492160000008733799471070702513_);}
	.st25{clip-path:url(#SVGID_00000082332356814937803630000006642002275120243095_);}
	.st26{clip-path:url(#SVGID_00000160165400997579232550000007485430619603325629_);}
	.st27{clip-path:url(#SVGID_00000097479953182209876760000011416194072009703302_);}
	.st28{clip-path:url(#SVGID_00000141447749223685977360000003862330722096256692_);}
	.st29{clip-path:url(#SVGID_00000129191281183689770540000003946813683956009647_);}
	.st30{clip-path:url(#SVGID_00000083781435138711784430000002469684869921105047_);}
	.st31{fill-rule:evenodd;clip-rule:evenodd;}
	.st32{clip-path:url(#SVGID_00000139275887928072564770000000359125599132509875_);}
	.st33{clip-path:url(#SVGID_00000006700882509918102060000009930136614490968220_);}
	.st34{stroke:#000000;stroke-width:0.5;stroke-miterlimit:10;}
	.st35{clip-path:url(#SVGID_00000088854801872018279690000003649126257871792044_);}
	.st36{clip-path:url(#SVGID_00000000909253999558774610000006522124365948047767_);}
	.st37{clip-path:url(#SVGID_00000048462250796607928770000007004555090136094893_);}
	.st38{fill:#1A1A1A;}
	.st39{clip-path:url(#SVGID_00000140694753296031713170000005494667052414211746_);}
	.st40{clip-path:url(#SVGID_00000140703848413021444570000014179803829830542248_);}
	.st41{clip-path:url(#SVGID_00000113313163087117451340000015472321333364237473_);}
	.st42{clip-path:url(#SVGID_00000168827839476346305070000006557079576343090817_);}
	.st43{clip-path:url(#SVGID_00000136382183850610237090000012829143311680829366_);}
	.st44{clip-path:url(#SVGID_00000049919172587504539230000010312547880795745174_);}
	.st45{clip-path:url(#SVGID_00000030451021888503865230000004431876635658530979_);}
	.st46{clip-path:url(#SVGID_00000183937848803068832790000016886509950472092824_);}
	.st47{clip-path:url(#SVGID_00000153697547272464711480000003512380695240929980_);}
	.st48{fill:#F1F1F1;}
	.st49{fill:#E8E8E8;}
	.st50{fill:#FEFEFE;}
	.st51{fill:#CCCCCC;}
	.st52{fill:#B3B3B3;}
	.st53{fill:#E6E6E6;}
	.st54{fill:#EBEBEB;}
	.st55{fill:#EEEEEE;}
	.st56{fill:#F8F8F8;}
	.st57{fill:#FBFBFB;}
	.st58{fill:#383838;}
	.st59{fill:#232323;}
	.st60{fill:#F6F6F6;}
	.st61{fill:#535353;}
	.st62{fill:#0A0A0A;}
	.st63{fill:#F5F5F5;}
	.st64{fill:#818181;}
	.st65{fill:#4A4A4A;}
	.st66{fill:#999999;}
	.st67{fill:url(#SVGID_00000036226881718203971690000002264430146127232943_);}
	.st68{fill:url(#SVGID_00000116936110633274025250000017862699193749998499_);}
	.st69{fill:#0E0E0D;}
	.st70{fill:#333333;}
	.st71{fill:#808080;}
	.st72{fill:url(#SVGID_00000170246879974832532650000003459804535834242958_);}
	.st73{fill:#666666;}
	.st74{fill:url(#SVGID_00000018215667425530794360000012562100645685549967_);}
	.st75{fill:url(#SVGID_00000111903423893478209590000012569310373869595828_);}
	.st76{fill:url(#SVGID_00000151523213743535741100000015375919920230264720_);}
	.st77{fill:url(#SVGID_00000036959803968554988450000009619776421281742521_);}
	.st78{fill:url(#SVGID_00000075847615912577360650000014570334308889001890_);}
	.st79{clip-path:url(#SVGID_00000109009922531737790420000003608514298481895820_);}
	.st80{clip-path:url(#SVGID_00000155833329249563254080000000482475507885755799_);}
	.st81{clip-path:url(#SVGID_00000025424524821184539610000016140452309447536530_);}
	.st82{clip-path:url(#SVGID_00000084491179443893749250000000485877403999229366_);}
	.st83{clip-path:url(#SVGID_00000164484278939134271890000002980896516960537251_);}
	.st84{fill:#241F20;stroke:#000000;stroke-width:0.5;stroke-miterlimit:10;}
	.st85{clip-path:url(#SVGID_00000121975645098808982460000015628020325184625851_);}
	.st86{clip-path:url(#SVGID_00000075852190416777301560000011136954205290965935_);}
	.st87{clip-path:url(#SVGID_00000136399831829475339960000016337158229127932561_);}
	.st88{clip-path:url(#SVGID_00000016788223428204058920000002605308782712466315_);}
	.st89{clip-path:url(#SVGID_00000164476696359021844700000011400190070751283603_);}
	.st90{clip-path:url(#SVGID_00000119075892666813925390000017345395461216271497_);}
	.st91{clip-path:url(#SVGID_00000077310356230727020880000009465142062425662612_);}
	.st92{clip-path:url(#SVGID_00000155130687430545577580000011327656072651222444_);}
	.st93{clip-path:url(#SVGID_00000001652506785904181160000006499051547982636477_);}
	.st94{clip-path:url(#SVGID_00000075866448526245530060000014652149111728547774_);}
	.st95{clip-path:url(#SVGID_00000168827505019735770570000002004219251778287745_);}
	.st96{clip-path:url(#SVGID_00000062878935006290572630000015105804681026277044_);}
	.st97{clip-path:url(#SVGID_00000147220572420794970100000003541750014166600119_);}
	.st98{clip-path:url(#SVGID_00000129189042201103676920000014657020932336930224_);}
	.st99{clip-path:url(#SVGID_00000019656886459355869450000006328140084590720128_);}
	.st100{clip-path:url(#SVGID_00000009583509254970714980000014693513444055211934_);}
	.st101{clip-path:url(#SVGID_00000036216203637300416480000017589748029521154197_);}
	.st102{clip-path:url(#SVGID_00000152265985343875857380000010066960045661761934_);}
	.st103{clip-path:url(#SVGID_00000163762874876848660190000011879635689106075322_);}
	.st104{clip-path:url(#SVGID_00000107574125455558500130000018300281448102350003_);}
	.st105{clip-path:url(#SVGID_00000183244037997075242010000004680106751986517411_);}
	.st106{clip-path:url(#SVGID_00000179616546834937035490000008055657428095485608_);}
	.st107{clip-path:url(#SVGID_00000017503747710348766470000008680900332663712386_);}
	.st108{clip-path:url(#SVGID_00000061470634387724914850000008607197884533533578_);}
	.st109{clip-path:url(#SVGID_00000102533165631807395510000017308458805753365892_);}
	.st110{clip-path:url(#SVGID_00000151540510742748907580000004174812629908970387_);}
	.st111{clip-path:url(#SVGID_00000101811359006248173390000017273370001776213139_);}
	.st112{clip-path:url(#SVGID_00000179619936090400782910000001065718226929165732_);}
	.st113{clip-path:url(#SVGID_00000135675675398312572530000005478356869708092321_);}
	.st114{clip-path:url(#SVGID_00000040546947908033281910000010010167203996473254_);}
	.st115{fill:#FFFFFF;stroke:#000000;stroke-miterlimit:10;}
	.st116{clip-path:url(#SVGID_00000176748358782160930680000003981814321912680075_);}
	.st117{clip-path:url(#SVGID_00000170260624437333076320000002128598680514449548_);}
	.st118{fill:none;stroke:#010101;stroke-miterlimit:10;}
	.st119{fill:#010101;stroke:#000000;stroke-miterlimit:10;}
	.st120{clip-path:url(#SVGID_00000073711824608920117910000003479221275762966461_);}
	.st121{fill:#010101;stroke:#010101;stroke-miterlimit:10;}
	.st122{clip-path:url(#SVGID_00000164478515196728483800000003216674951026265483_);}
	.st123{clip-path:url(#SVGID_00000120558498491974175880000007899137473674853524_);}
	.st124{clip-path:url(#SVGID_00000014604876003616549580000001349718955218900134_);}
	.st125{clip-path:url(#SVGID_00000169558317348086956650000014856721688688264125_);}
	.st126{clip-path:url(#SVGID_00000176737194883533129760000009548702753830051208_);}
	.st127{fill:none;stroke:#000000;stroke-width:3;stroke-miterlimit:10;}
	.st128{clip-path:url(#SVGID_00000076563390308885991600000012273951585445769889_);}
	.st129{clip-path:url(#SVGID_00000037662587063544616900000005414039464001964938_);}
	.st130{clip-path:url(#SVGID_00000126295459796249578620000010884151439249367453_);}
	.st131{clip-path:url(#SVGID_00000044141818532586220360000000884784315809812146_);}
	.st132{fill:#040606;}
	.st133{clip-path:url(#SVGID_00000084501011862575605150000003696976421828291982_);}
	.st134{clip-path:url(#SVGID_00000033365249173836500330000017135248524497584272_);}
	.st135{clip-path:url(#SVGID_00000152945785786242498760000002198735313653679239_);}
	.st136{clip-path:url(#SVGID_00000016768621378802931170000010474883681372481725_);}
	.st137{clip-path:url(#SVGID_00000155851054079381974080000013408681675726976934_);}
	.st138{clip-path:url(#SVGID_00000134250002876737280570000011975794017841672338_);}
	.st139{clip-path:url(#SVGID_00000152265942017266271750000016005781430051543691_);}
	.st140{fill:#FFFFFF;stroke:#000000;stroke-width:1.5;stroke-miterlimit:10;}
	.st141{clip-path:url(#SVGID_00000152947970876617917470000006759212568213612713_);}
	.st142{fill:#BDBCBC;}
	.st143{clip-path:url(#SVGID_00000080164555091400477200000003314422324384877955_);}
	.st144{fill:#2E2A2B;}
	.st145{clip-path:url(#SVGID_00000052783385534089219530000004050327980747666583_);}
	.st146{clip-path:url(#SVGID_00000054962270652733520040000015497303116108827296_);}
	.st147{clip-path:url(#SVGID_00000000906654629025634860000000023032841129893020_);}
	.st148{clip-path:url(#SVGID_00000176753974224617163780000008907373897498564768_);}
	.st149{clip-path:url(#SVGID_00000051360216846190101470000011531803200901004936_);}
	.st150{fill:#272324;}
	.st151{clip-path:url(#SVGID_00000084492186341512464310000010636935018063898041_);}
	.st152{clip-path:url(#SVGID_00000008849273453586419300000010983602951445881504_);}
	.st153{clip-path:url(#SVGID_00000009588317986669821700000009952239026874270878_);}
	.st154{clip-path:url(#SVGID_00000067213105023127603490000011111484485949357715_);}
	.st155{clip-path:url(#SVGID_00000181799073766071809830000001403302510412548486_);}
	.st156{clip-path:url(#SVGID_00000145057384492627311600000006956799596502547857_);}
	.st157{fill:none;stroke:#000000;stroke-width:0.8735;stroke-linecap:round;stroke-linejoin:round;stroke-miterlimit:10;}
	.st158{clip-path:url(#SVGID_00000105411268451196505600000004860469390912617377_);}
	.st159{clip-path:url(#SVGID_00000155109955227003360710000000044320958243641492_);}
	.st160{clip-path:url(#SVGID_00000116220552784859211140000000721451552505779615_);}
	.st161{clip-path:url(#SVGID_00000114764713963414149190000002174028976595198606_);}
	.st162{clip-path:url(#SVGID_00000013152674116240893860000012406402738470482317_);}
	.st163{clip-path:url(#SVGID_00000063601032541673026550000002690074373846457226_);}
	.st164{clip-path:url(#SVGID_00000158732307322785982740000007444425997810316469_);}
	.st165{clip-path:url(#SVGID_00000080200327430400506170000003308815242050290607_);}
	.st166{clip-path:url(#SVGID_00000113322732417598768000000011625375874113950387_);}
	.st167{clip-path:url(#SVGID_00000103244917667173331700000014807001164170018724_);}
	.st168{clip-path:url(#SVGID_00000092439065258708645200000008445596410936611479_);}
	.st169{clip-path:url(#SVGID_00000097501786211301876090000017815226684986866828_);}
	.st170{clip-path:url(#SVGID_00000118364392287434623380000010090972427725557433_);}
	.st171{clip-path:url(#SVGID_00000108997086414776302360000017915112332162735764_);}
	.st172{clip-path:url(#SVGID_00000074418334697006700780000004785884487868277144_);}
	.st173{clip-path:url(#SVGID_00000170984944891236251460000006643657066426034343_);}
	.st174{clip-path:url(#SVGID_00000147189896066394525630000001792586762351830915_);}
	.st175{clip-path:url(#SVGID_00000121958374398191552060000008641647432884901552_);}
	.st176{clip-path:url(#SVGID_00000003803320684798631790000016719589819547397253_);}
	.st177{clip-path:url(#SVGID_00000095315964746857118210000014365479480519506829_);}
	.st178{clip-path:url(#SVGID_00000036972167633120839920000011223178048057647280_);}
	.st179{clip-path:url(#SVGID_00000133503381356373281300000003424766736013663391_);}
	.st180{clip-path:url(#SVGID_00000049938344773369016670000012289887805279071145_);}
	.st181{clip-path:url(#SVGID_00000139256787576695489410000001436575524023705499_);}
	.st182{clip-path:url(#SVGID_00000011019577531369024620000000274027634591819185_);}
	.st183{clip-path:url(#SVGID_00000031914451801575408340000003395506495608775609_);}
	.st184{clip-path:url(#SVGID_00000086671379675681021160000005757517675514628011_);}
	.st185{clip-path:url(#SVGID_00000049224177828771222450000015529660717539953820_);}
	.st186{clip-path:url(#SVGID_00000006688716139865190810000018082753451061459121_);}
	.st187{clip-path:url(#SVGID_00000016759661926095161120000002967834236525910963_);}
	.st188{clip-path:url(#SVGID_00000073704654773709433290000006987662598090324364_);}
	.st189{clip-path:url(#SVGID_00000111160715085393509390000014807435926117022643_);}
	.st190{clip-path:url(#SVGID_00000115511851716286301490000010130333949002848906_);}
	.st191{clip-path:url(#SVGID_00000154403375991920224140000000771899305724944556_);}
	.st192{clip-path:url(#SVGID_00000060714400445051988970000016306160418313594558_);}
	.st193{clip-path:url(#SVGID_00000018940987140080459220000015961371797860287645_);}
	.st194{clip-path:url(#SVGID_00000055678798934345596000000009919721038675593124_);}
	.st195{clip-path:url(#SVGID_00000101800584115785883390000010284855066491738538_);}
	.st196{fill:#E5E5E5;}
	.st197{fill:#1D1D1B;}
	.st198{fill:none;stroke:#000000;stroke-miterlimit:10;}
	.st199{fill:#FEFEFE;stroke:#000000;stroke-miterlimit:10;}
	.st200{clip-path:url(#SVGID_00000159452350140247364580000005914488518116151474_);}
	.st201{clip-path:url(#SVGID_00000125585471957337704940000002744379865716677010_);}
	.st202{clip-path:url(#SVGID_00000071526283068040267950000013913585442429390723_);}
	.st203{fill:#231F1F;}
	.st204{fill:#020000;}
	.st205{clip-path:url(#SVGID_00000173883330980807602090000009261881017935773826_);}
	.st206{clip-path:url(#SVGID_00000180339975677858519490000003030938932601429919_);}
	.st207{clip-path:url(#SVGID_00000039844126187442895130000015474295588800590755_);}
	.st208{clip-path:url(#SVGID_00000062181290526627451960000011935568260453732021_);}
	.st209{fill:#050000;}
	.st210{clip-path:url(#SVGID_00000170268057056594687110000014391277476949552813_);}
	.st211{clip-path:url(#SVGID_00000127002087154604411670000011686119253012235414_);}
	.st212{clip-path:url(#SVGID_00000083047126619761556470000009527915846593144972_);}
	.st213{clip-path:url(#SVGID_00000157297454968310992750000010622813599829133970_);}
	.st214{clip-path:url(#SVGID_00000077310532422365095590000014959972672107937937_);}
	.st215{clip-path:url(#SVGID_00000061457635175823380720000007773365546733456283_);}
	.st216{fill:#12100F;}
	.st217{clip-path:url(#SVGID_00000114031331753734143750000002503775703718693257_);}
	.st218{clip-path:url(#SVGID_00000024687193235526476580000010058778298195408319_);}
	.st219{fill:none;stroke:#000000;stroke-width:0.5;stroke-miterlimit:10;}
	.st220{clip-path:url(#SVGID_00000161631415741879863320000008764819360629477026_);}
	.st221{clip-path:url(#SVGID_00000018226260367301328800000014878218330890556329_);}
	.st222{clip-path:url(#SVGID_00000130642190425939291300000014736238910411702160_);}
	.st223{clip-path:url(#SVGID_00000114060276317093532290000004243087379994865312_);}
	.st224{fill:none;stroke:#000000;stroke-width:0.25;stroke-miterlimit:10;}
	.st225{clip-path:url(#SVGID_00000013166287409696097100000006871305111535562912_);}
	.st226{clip-path:url(#SVGID_00000013159325188325394220000007294048511214707872_);}
	.st227{clip-path:url(#SVGID_00000178900880625704134860000017426327487985497237_);}
</style>
<g>
	<defs>
		<rect id="SVGID_00000060747736632039573440000016501984287678954426_" x="11.02" y="5.36" width="30.75" height="42.11"/>
	</defs>
	<clipPath id="SVGID_00000038377726450431678270000009389590585007474846_">
		<use xlink:href="#SVGID_00000060747736632039573440000016501984287678954426_"  style="overflow:visible;"/>
	</clipPath>
	<g style="clip-path:url(#SVGID_00000038377726450431678270000009389590585007474846_);">
		<path d="M40.82,19.1c-1.04-3.31-4.7-4.43-4.88-4.48l-4.47-1.16c-0.35-0.09-0.7,0.06-0.88,0.36c-1.12-0.35-1.16-1.04-1.15-1.17
			c0.02-0.29-0.11-0.57-0.36-0.74l-1.55-1.04c-0.1-0.07-0.22-0.11-0.34-0.12c0.12-0.48,0.44-0.81,0.66-0.97
			c0.73-0.59,1.05-1.53,0.84-2.45c-0.2-0.89-0.91-1.59-1.8-1.8c-0.73-0.17-1.48,0-2.06,0.46c-0.58,0.46-0.91,1.16-0.91,1.9
			c0,0.44,0.36,0.81,0.81,0.81s0.8-0.36,0.8-0.81c0-0.25,0.11-0.48,0.3-0.63c0.12-0.09,0.36-0.23,0.7-0.15
			c0.28,0.06,0.52,0.3,0.58,0.58c0.07,0.32-0.03,0.64-0.28,0.83c-0.73,0.59-1.18,1.38-1.29,2.23c-0.15,0.01-0.29,0.05-0.41,0.13
			l-1.55,1.04c-0.24,0.16-0.38,0.43-0.36,0.72c0,0.08-0.01,0.31-0.18,0.56c-0.02,0.02-0.03,0.04-0.04,0.06
			c-0.17,0.21-0.45,0.42-0.92,0.57c-0.18-0.3-0.54-0.45-0.88-0.36l-4.49,1.17c-0.15,0.05-3.81,1.17-4.86,4.48
			c-0.96,3.04-0.81,7.07-0.81,7.24c0.02,0.4,0.31,0.72,0.7,0.77l5.17,0.71c0.01,0,0.02,0,0.02,0v16.69c0,0.45,0.36,0.81,0.8,0.81
			h3.49l-0.59,0.87c-0.17,0.25-0.19,0.57-0.05,0.83c0.14,0.26,0.41,0.43,0.71,0.43h2.77c0.27,0,0.51-0.13,0.66-0.35l1-1.48
			c0.06-0.1,0.12-0.2,0.19-0.3h9c0.44,0,0.8-0.36,0.8-0.81V27.82c0.01,0,0.02,0,0.02,0l5.17-0.71c0.39-0.05,0.68-0.38,0.69-0.77
			C41.63,26.17,41.77,22.13,40.82,19.1z M35.73,25.48c0.43-0.06,1.24-0.18,2.81-0.42c0.44-0.07,0.74-0.48,0.67-0.92
			c-0.07-0.44-0.49-0.74-0.92-0.68c-0.93,0.15-1.94,0.3-2.56,0.38v-1.3c0-0.45-0.36-0.81-0.8-0.81c-0.44,0-0.8,0.36-0.8,0.81v21.16
			h-7.3c0.9-1.93,1.37-4.02,1.37-6.18v-1.29l0.14-0.1c0.21-0.15,0.34-0.4,0.34-0.66v-3.67c0-0.13,0.05-0.24,0.13-0.34l0.55-0.64
			c0.12-0.15,0.23-0.3,0.31-0.47c0.18-0.36,0.48-0.71,0.91-1.01c0.01,0,0.01-0.01,0.02-0.02c0.04-0.04,0.08-0.07,0.11-0.11
			c0.01-0.02,0.02-0.03,0.03-0.04c0.04-0.05,0.07-0.1,0.09-0.15c0-0.01,0-0.01,0.01-0.02c0.02-0.06,0.04-0.12,0.06-0.19
			c0-0.02,0-0.04,0-0.06c0.01-0.02,0.01-0.06,0.01-0.08v-1.47c0-0.07-0.02-0.14-0.02-0.2c-0.1-0.94-0.89-1.68-1.85-1.68h-5.43
			c-0.97,0-1.75,0.74-1.85,1.68c0,0.06-0.02,0.13-0.02,0.2v1.47c0,0.03,0,0.06,0.01,0.08c0,0.02,0,0.03,0.01,0.06
			c0.01,0.06,0.02,0.12,0.05,0.19c0,0.01,0.01,0.01,0.01,0.02c0.02,0.05,0.06,0.1,0.09,0.15c0.01,0.02,0.03,0.03,0.04,0.04
			c0.03,0.04,0.07,0.07,0.11,0.11c0.01,0.01,0.02,0.02,0.02,0.02c0.42,0.31,0.73,0.65,0.9,1.01c0.08,0.17,0.19,0.33,0.31,0.48
			l0.55,0.64c0.08,0.1,0.13,0.21,0.13,0.34v3.67c0,0.26,0.13,0.5,0.33,0.65c0,0.02,0,0.03,0,0.05v1.34c0,2.11-0.62,4.16-1.78,5.92
			l-0.18,0.26h-3.79V22.55c0-0.45-0.36-0.81-0.8-0.81s-0.8,0.36-0.8,0.81v3.64l-4.29-0.59c0-1.24,0.09-3.94,0.74-6.02
			c0.78-2.48,3.75-3.4,3.75-3.4l3.91-1.01c0.64,0.82,2.18,2.2,5.28,2.2s4.65-1.38,5.28-2.2l3.89,1.01c0.03,0.01,2.99,0.91,3.77,3.41
			c0.65,2.07,0.74,4.78,0.74,6.02l-4.29,0.59v-0.71H35.73z M24.42,44.72l-0.41,0.6l-0.35,0.51h-0.83l0.35-0.51l0.55-0.81l0.11-0.16
			c0.14-0.21,0.27-0.43,0.39-0.64c1.08-1.88,1.66-3.99,1.66-6.18v-0.25c0.13,0.08,0.27,0.13,0.42,0.13c0.09,0,0.18-0.02,0.27-0.05
			v0.18c0,2.17-0.54,4.29-1.56,6.18c-0.15,0.27-0.31,0.55-0.48,0.81C24.5,44.58,24.47,44.66,24.42,44.72z M23.34,27.22
			c0-0.08,0.04-0.15,0.1-0.2c0.05-0.03,0.1-0.06,0.16-0.06h5.43c0.06,0,0.12,0.02,0.16,0.06c0.06,0.05,0.1,0.12,0.1,0.2v0.67h-5.95
			V27.22z M25.51,29.51l0.01,0.28c0,0.44,0.36,0.79,0.8,0.79c0,0,0,0,0.01,0c0.44,0,0.8-0.37,0.79-0.82l-0.01-0.26h1.18
			c-0.03,0.05-0.06,0.11-0.08,0.15c-0.02,0.04-0.05,0.08-0.08,0.12l-0.55,0.64c-0.33,0.39-0.52,0.88-0.52,1.4v3.26l-0.2,0.15
			l-0.54,0.39l-0.6-0.44l-0.14-0.1v-3.25c0-0.52-0.19-1.01-0.52-1.4l-0.55-0.63c-0.03-0.04-0.06-0.07-0.07-0.12
			c-0.02-0.06-0.06-0.11-0.09-0.16L25.51,29.51L25.51,29.51z M23.95,14.59c0.78,0.17,1.57,0.26,2.37,0.26c0.8,0,1.61-0.09,2.39-0.26
			c0.18,0.16,0.38,0.31,0.62,0.44c-0.65,0.39-1.62,0.72-3,0.72c-1.39,0-2.36-0.33-3.01-0.72C23.57,14.9,23.77,14.75,23.95,14.59z
			 M27.87,13.09C27.87,13.09,27.87,13.1,27.87,13.09c-1.02,0.18-2.05,0.18-3.07,0.02c0-0.03,0.01-0.06,0.02-0.08l1.01-0.68h1
			l0.92,0.62L27.87,13.09z M27.12,20.71v3.21c0,0.45-0.36,0.81-0.8,0.81s-0.8-0.36-0.8-0.81v-3.21c0-0.44,0.36-0.81,0.8-0.81
			C26.76,19.9,27.12,20.26,27.12,20.71z M24.7,23.82c0.06,0.45-0.25,0.85-0.7,0.9c-0.03,0.01-0.06,0.01-0.1,0.01
			c-0.4,0-0.74-0.3-0.8-0.7l-0.19-1.47l-0.22-1.75c-0.06-0.45,0.26-0.85,0.7-0.9c0.43-0.06,0.84,0.26,0.9,0.7l0.24,1.95L24.7,23.82z
			 M29.93,20.81l-0.22,1.75l-0.19,1.47c-0.05,0.41-0.4,0.7-0.8,0.7c-0.03,0-0.06,0-0.1-0.01c-0.44-0.05-0.75-0.46-0.7-0.9l0.16-1.26
			l0.25-1.95c0.06-0.45,0.46-0.76,0.9-0.7C29.67,19.96,29.99,20.36,29.93,20.81z"/>
	</g>
</g>
</svg>
