<?xml version="1.0" encoding="utf-8"?>
<!-- Generator: Adobe Illustrator 27.3.1, SVG Export Plug-In . SVG Version: 6.00 Build 0)  -->
<svg version="1.1" id="Layer_1" xmlns="http://www.w3.org/2000/svg" xmlns:xlink="http://www.w3.org/1999/xlink" x="0px" y="0px"
	 viewBox="0 0 50 50" style="enable-background:new 0 0 50 50;" xml:space="preserve">
<style type="text/css">
	.st0{fill:none;}
	.st1{stroke:#000000;stroke-miterlimit:10;}
	.st2{stroke:#000000;stroke-width:0.75;stroke-miterlimit:10;}
	.st3{clip-path:url(#SVGID_00000021080332515187542080000001153213842604228798_);}
	.st4{clip-path:url(#SVGID_00000127043568773279857340000011411184306534369949_);}
	.st5{fill:#FFFFFF;}
	.st6{clip-path:url(#SVGID_00000050642512405814489740000012361943049943184552_);}
	.st7{fill:#231F20;}
	.st8{clip-path:url(#SVGID_00000091698863516843991090000007641190802772322478_);}
	.st9{clip-path:url(#SVGID_00000010992409729594281190000015900115172880711338_);}
	.st10{clip-path:url(#SVGID_00000151522853627384532590000000817022653309727906_);}
	.st11{clip-path:url(#SVGID_00000013168711777706155450000011096427609974052783_);}
	.st12{clip-path:url(#SVGID_00000056417691536658645160000017493332062058863751_);}
	.st13{clip-path:url(#SVGID_00000158726307228712366900000002042202573849083583_);}
	.st14{clip-path:url(#SVGID_00000183237773912142032740000009089674024930152095_);}
	.st15{clip-path:url(#SVGID_00000020365405532998394620000011266943687306844306_);}
	.st16{clip-path:url(#SVGID_00000088830966593583136040000016187612870726967210_);}
	.st17{clip-path:url(#SVGID_00000170240580112889118380000012004227133502067619_);}
	.st18{clip-path:url(#SVGID_00000096019381488163496200000013013975259756415676_);}
	.st19{clip-path:url(#SVGID_00000120523365560793675290000013389597885305474465_);}
	.st20{clip-path:url(#SVGID_00000120546945070770191690000005804737451092853892_);}
	.st21{clip-path:url(#SVGID_00000170970704784044411470000015816910103478025401_);}
	.st22{clip-path:url(#SVGID_00000029039091683225114420000007601790274421817517_);}
	.st23{clip-path:url(#SVGID_00000058549713551243655860000015811382779237067676_);}
	.st24{clip-path:url(#SVGID_00000124883522448634581220000011816236390823699356_);}
	.st25{clip-path:url(#SVGID_00000046327709303335427510000002778233279807739837_);}
	.st26{clip-path:url(#SVGID_00000060010909645999956120000002769184340691597208_);}
	.st27{clip-path:url(#SVGID_00000059304613901193773410000005200222106583341707_);}
	.st28{clip-path:url(#SVGID_00000107570613542248173020000017706138635275626395_);}
	.st29{clip-path:url(#SVGID_00000100343819069512976830000017897986909835427211_);}
	.st30{clip-path:url(#SVGID_00000147929740869789086030000015089805477462564778_);}
	.st31{fill-rule:evenodd;clip-rule:evenodd;}
	.st32{clip-path:url(#SVGID_00000075873340453966102530000009011108449394288531_);}
	.st33{clip-path:url(#SVGID_00000035509353409476506380000016819057700300082336_);}
	.st34{stroke:#000000;stroke-width:0.5;stroke-miterlimit:10;}
	.st35{clip-path:url(#SVGID_00000006678621181736038170000002071582813372314256_);}
	.st36{clip-path:url(#SVGID_00000092455992778066606940000013489935781082840722_);}
	.st37{clip-path:url(#SVGID_00000068639149957311601160000005244258425714729608_);}
	.st38{fill:#1A1A1A;}
	.st39{clip-path:url(#SVGID_00000130631112587022842470000016604237312587063461_);}
	.st40{clip-path:url(#SVGID_00000165192866710307105340000014478049497310165179_);}
	.st41{clip-path:url(#SVGID_00000000183037895391358340000008090321222098747569_);}
	.st42{clip-path:url(#SVGID_00000080905168409127121770000007597050098759953072_);}
	.st43{clip-path:url(#SVGID_00000068635048043200367430000000133358392666466946_);}
	.st44{clip-path:url(#SVGID_00000170957982143761258980000006051924702289115038_);}
	.st45{clip-path:url(#SVGID_00000147196733967533853060000007007590295119983540_);}
	.st46{clip-path:url(#SVGID_00000141431219097194207080000008488933996260674717_);}
	.st47{clip-path:url(#SVGID_00000166638126394507383250000012260452294813990535_);}
	.st48{fill:#F1F1F1;}
	.st49{fill:#E8E8E8;}
	.st50{fill:#FEFEFE;}
	.st51{fill:#CCCCCC;}
	.st52{fill:#B3B3B3;}
	.st53{fill:#E6E6E6;}
	.st54{fill:#EBEBEB;}
	.st55{fill:#EEEEEE;}
	.st56{fill:#F8F8F8;}
	.st57{fill:#FBFBFB;}
	.st58{fill:#383838;}
	.st59{fill:#232323;}
	.st60{fill:#F6F6F6;}
	.st61{fill:#535353;}
	.st62{fill:#0A0A0A;}
	.st63{fill:#F5F5F5;}
	.st64{fill:#818181;}
	.st65{fill:#4A4A4A;}
	.st66{fill:#999999;}
	.st67{fill:url(#SVGID_00000079482317744866260140000001346073274510449827_);}
	.st68{fill:url(#SVGID_00000060749208351305154230000000301635207307324074_);}
	.st69{fill:#0E0E0D;}
	.st70{fill:#333333;}
	.st71{fill:#808080;}
	.st72{fill:url(#SVGID_00000072989186866482971230000003786894134372156602_);}
	.st73{fill:#666666;}
	.st74{fill:url(#SVGID_00000143619281346691672170000005961901040458928286_);}
	.st75{fill:url(#SVGID_00000011744540986801076610000012020292965291747971_);}
	.st76{fill:url(#SVGID_00000078027866032537056250000009851145322307029660_);}
	.st77{fill:url(#SVGID_00000017491508939488154670000009613022730546392999_);}
	.st78{fill:url(#SVGID_00000160877080250393541450000011742676472163277215_);}
	.st79{clip-path:url(#SVGID_00000182508915765840372160000015157771607435881638_);}
	.st80{clip-path:url(#SVGID_00000103980393970198288610000000805038937785991085_);}
	.st81{clip-path:url(#SVGID_00000145768375165450182100000011582349414925969570_);}
	.st82{clip-path:url(#SVGID_00000074401253741371962520000013063807551148198543_);}
	.st83{clip-path:url(#SVGID_00000147923195014712252530000012539329380266685368_);}
	.st84{fill:#241F20;stroke:#000000;stroke-width:0.5;stroke-miterlimit:10;}
	.st85{clip-path:url(#SVGID_00000106828610658389225290000010674554317817483138_);}
	.st86{clip-path:url(#SVGID_00000142176571838755308160000005672660698511070135_);}
	.st87{clip-path:url(#SVGID_00000019664514646596974800000004443269392152463518_);}
	.st88{clip-path:url(#SVGID_00000135668422618088563770000015813658783330813622_);}
	.st89{clip-path:url(#SVGID_00000114758259763207632500000013619448645378410409_);}
	.st90{clip-path:url(#SVGID_00000103261415981303506640000009570703533620855713_);}
	.st91{clip-path:url(#SVGID_00000179617576788055972490000010847308106238726296_);}
	.st92{clip-path:url(#SVGID_00000100345904599708119860000017639214667461247653_);}
	.st93{clip-path:url(#SVGID_00000158029494595870861750000004376484093602374037_);}
	.st94{clip-path:url(#SVGID_00000037684601644194720640000008198320007985865138_);}
	.st95{clip-path:url(#SVGID_00000081605445518878650940000016216379084667263360_);}
	.st96{clip-path:url(#SVGID_00000114761096980935601850000013204229396951591569_);}
	.st97{clip-path:url(#SVGID_00000035508437815433683060000014473668997430618753_);}
	.st98{clip-path:url(#SVGID_00000142178189507706742550000011879628459417145247_);}
	.st99{clip-path:url(#SVGID_00000080901374017927740120000011870286800658912157_);}
	.st100{clip-path:url(#SVGID_00000100346472605001644300000001457234319330271885_);}
	.st101{clip-path:url(#SVGID_00000083085302474847219360000013030912132692621700_);}
	.st102{clip-path:url(#SVGID_00000040545253694065777480000016595504827907525792_);}
	.st103{clip-path:url(#SVGID_00000173871336068069508410000000638349990659542420_);}
	.st104{clip-path:url(#SVGID_00000137847913479194222170000008074604568319148430_);}
	.st105{clip-path:url(#SVGID_00000128445136364320076280000017956813097148450732_);}
	.st106{clip-path:url(#SVGID_00000005253329811079792180000010006547506716387217_);}
	.st107{clip-path:url(#SVGID_00000081617750359269363140000007326614666211777176_);}
	.st108{clip-path:url(#SVGID_00000083798719961467628120000005398220771263216262_);}
	.st109{clip-path:url(#SVGID_00000086692921806744057840000012008901098034772646_);}
	.st110{clip-path:url(#SVGID_00000176029983984676645170000005792155354941258933_);}
	.st111{clip-path:url(#SVGID_00000124160348870728834500000014481619493411173795_);}
	.st112{clip-path:url(#SVGID_00000036222613765010605600000000465317968427054261_);}
	.st113{clip-path:url(#SVGID_00000144337495712762418790000009315757148220840328_);}
	.st114{clip-path:url(#SVGID_00000029028283405928649960000002693599915882467996_);}
	.st115{fill:#FFFFFF;stroke:#000000;stroke-miterlimit:10;}
	.st116{clip-path:url(#SVGID_00000128455802195095690450000015674833450233929400_);}
	.st117{clip-path:url(#SVGID_00000106843653853597021710000000334840626264589720_);}
	.st118{fill:none;stroke:#010101;stroke-miterlimit:10;}
	.st119{fill:#010101;stroke:#000000;stroke-miterlimit:10;}
	.st120{clip-path:url(#SVGID_00000150084757757662468000000012010153489424179343_);}
	.st121{fill:#010101;stroke:#010101;stroke-miterlimit:10;}
	.st122{clip-path:url(#SVGID_00000083770675065518445630000006880600209402784670_);}
	.st123{clip-path:url(#SVGID_00000101089069378342836440000012402291542185517194_);}
	.st124{clip-path:url(#SVGID_00000034797224691335434930000008275401028717654195_);}
	.st125{clip-path:url(#SVGID_00000128462187627024428680000017519824363675335843_);}
	.st126{clip-path:url(#SVGID_00000141436196544151580060000014487900729930193835_);}
	.st127{fill:none;stroke:#000000;stroke-width:3;stroke-miterlimit:10;}
	.st128{clip-path:url(#SVGID_00000039813763279131118170000009003796215632338867_);}
	.st129{clip-path:url(#SVGID_00000150821280394323293650000017490310865235509637_);}
	.st130{clip-path:url(#SVGID_00000182521375916636793850000004761256456006592667_);}
	.st131{clip-path:url(#SVGID_00000142893298699581107490000013592558343775802503_);}
	.st132{fill:#040606;}
	.st133{clip-path:url(#SVGID_00000177485949043251238240000002763030358868870022_);}
	.st134{clip-path:url(#SVGID_00000011742917633980951490000001042346521628152220_);}
	.st135{clip-path:url(#SVGID_00000154410147454465320540000003810437039657695420_);}
	.st136{clip-path:url(#SVGID_00000122685960730588931970000010547213630837348774_);}
	.st137{clip-path:url(#SVGID_00000121269372980369508840000003919060641848008068_);}
	.st138{clip-path:url(#SVGID_00000135691352138311597230000016389320966479016076_);}
	.st139{clip-path:url(#SVGID_00000053516636251549569920000017903109371220203676_);}
	.st140{fill:#FFFFFF;stroke:#000000;stroke-width:1.5;stroke-miterlimit:10;}
	.st141{clip-path:url(#SVGID_00000013160691121293884790000006634454188827276200_);}
	.st142{fill:#BDBCBC;}
	.st143{clip-path:url(#SVGID_00000115503311088049357560000011053073676039374729_);}
	.st144{fill:#2E2A2B;}
	.st145{clip-path:url(#SVGID_00000045606763966222133910000010181321611028477631_);}
	.st146{clip-path:url(#SVGID_00000098928257036831682400000017981005700121942703_);}
	.st147{clip-path:url(#SVGID_00000092444169589295707050000011274250547176374930_);}
	.st148{clip-path:url(#SVGID_00000119803839424580543680000015416571933491580805_);}
	.st149{clip-path:url(#SVGID_00000162337730963651752970000010072804262898266775_);}
	.st150{fill:#272324;}
	.st151{clip-path:url(#SVGID_00000107562877343604891020000003387436914645309327_);}
	.st152{clip-path:url(#SVGID_00000183947452362486840080000017614164708871026572_);}
	.st153{clip-path:url(#SVGID_00000085220776761890831060000013034701225851522729_);}
	.st154{clip-path:url(#SVGID_00000029013622756513920930000016370406297651114368_);}
	.st155{clip-path:url(#SVGID_00000095316277799449190200000014383343948098853293_);}
	.st156{clip-path:url(#SVGID_00000003088903562746462050000017394757517350919561_);}
	.st157{fill:none;stroke:#000000;stroke-width:0.8735;stroke-linecap:round;stroke-linejoin:round;stroke-miterlimit:10;}
	.st158{clip-path:url(#SVGID_00000094618506094517441210000006870669361562059440_);}
	.st159{clip-path:url(#SVGID_00000111886356207616593150000013980868544750409628_);}
	.st160{clip-path:url(#SVGID_00000148622896549858724600000000797606488917377420_);}
	.st161{clip-path:url(#SVGID_00000179647772198684846990000007655028135871416724_);}
	.st162{clip-path:url(#SVGID_00000040569359665667935750000014025255639686452151_);}
	.st163{clip-path:url(#SVGID_00000015336718868873507510000015511033521262828208_);}
	.st164{clip-path:url(#SVGID_00000146480421145627110280000012027749884113619889_);}
	.st165{clip-path:url(#SVGID_00000168829111871756710740000016845209960728448898_);}
	.st166{clip-path:url(#SVGID_00000079468418398852860170000006340069775373565328_);}
	.st167{clip-path:url(#SVGID_00000015341016773013267300000000781652933337967247_);}
	.st168{clip-path:url(#SVGID_00000050632751285945489700000004257048294954027673_);}
	.st169{clip-path:url(#SVGID_00000137812961458421976280000001679401555414917563_);}
	.st170{clip-path:url(#SVGID_00000164473520870991044040000007917080467583840677_);}
	.st171{clip-path:url(#SVGID_00000138538521590783476590000005835352202725096349_);}
	.st172{clip-path:url(#SVGID_00000002365475281127868940000005103795380713997219_);}
	.st173{clip-path:url(#SVGID_00000060747266300829809010000005755942269575779990_);}
	.st174{clip-path:url(#SVGID_00000080205776544700029360000002204684267411523486_);}
	.st175{clip-path:url(#SVGID_00000033342141418256815350000007154947163603476134_);}
	.st176{clip-path:url(#SVGID_00000150072010177780587070000016285275414184948147_);}
	.st177{clip-path:url(#SVGID_00000093178874637365681800000011870583601886906257_);}
	.st178{clip-path:url(#SVGID_00000055680728557592201810000000269185857431587968_);}
	.st179{clip-path:url(#SVGID_00000114766220656399230130000006089085029166941355_);}
	.st180{clip-path:url(#SVGID_00000148626717265330104060000013500684612030319002_);}
	.st181{clip-path:url(#SVGID_00000143614492554930984570000004215054984636125883_);}
	.st182{clip-path:url(#SVGID_00000005982666486958711290000012596221557823221389_);}
	.st183{clip-path:url(#SVGID_00000118397447758865172700000016372679487989462691_);}
	.st184{clip-path:url(#SVGID_00000132090244915976877160000004827608408667834799_);}
	.st185{clip-path:url(#SVGID_00000088097437909462024430000004521372816774477450_);}
	.st186{clip-path:url(#SVGID_00000060029399480321183200000005770794528364686249_);}
	.st187{clip-path:url(#SVGID_00000111872931837088908780000015528767434263745161_);}
	.st188{clip-path:url(#SVGID_00000168802096937457650870000002870510570271617934_);}
	.st189{clip-path:url(#SVGID_00000038383894160577688610000016237855687242038974_);}
	.st190{clip-path:url(#SVGID_00000161600496056499210450000009882585321170885536_);}
	.st191{clip-path:url(#SVGID_00000101820506144634736560000009301527292829377428_);}
	.st192{clip-path:url(#SVGID_00000023251712617158689570000009810982701683447716_);}
	.st193{clip-path:url(#SVGID_00000069357278683664497230000004226919442682606752_);}
	.st194{clip-path:url(#SVGID_00000182521333668990055740000002777107142616942494_);}
	.st195{clip-path:url(#SVGID_00000008117105777960869200000007280075758998972583_);}
	.st196{fill:#E5E5E5;}
	.st197{fill:#1D1D1B;}
	.st198{fill:none;stroke:#000000;stroke-miterlimit:10;}
	.st199{fill:#FEFEFE;stroke:#000000;stroke-miterlimit:10;}
	.st200{clip-path:url(#SVGID_00000098929552931057123050000006109184719821630397_);}
	.st201{clip-path:url(#SVGID_00000030482944023401536540000000007969554991448214_);}
	.st202{clip-path:url(#SVGID_00000007385943190695689050000016242108151196714929_);}
	.st203{fill:#231F1F;}
	.st204{fill:#020000;}
	.st205{clip-path:url(#SVGID_00000147200012061483816230000000019136814629536955_);}
	.st206{clip-path:url(#SVGID_00000098931299372556926630000010240727615327451579_);}
	.st207{clip-path:url(#SVGID_00000085219332024487611110000012199496752297247875_);}
	.st208{clip-path:url(#SVGID_00000024680791523572551320000012720687409403998138_);}
	.st209{fill:#050000;}
	.st210{clip-path:url(#SVGID_00000147177961674337306110000011670033213655809414_);}
	.st211{clip-path:url(#SVGID_00000059303933420914830150000009885015719834691247_);}
	.st212{clip-path:url(#SVGID_00000023262342409353161950000004238397932659459728_);}
	.st213{clip-path:url(#SVGID_00000075145696901563737650000009696941680284227741_);}
	.st214{clip-path:url(#SVGID_00000129188739996658831520000004937305787570712455_);}
	.st215{clip-path:url(#SVGID_00000018216457081104387390000016431616758418469566_);}
	.st216{fill:#12100F;}
	.st217{clip-path:url(#SVGID_00000142153888698204926560000015198172151736213657_);}
	.st218{clip-path:url(#SVGID_00000022546264789294471210000011823624317924324235_);}
	.st219{fill:none;stroke:#000000;stroke-width:0.5;stroke-miterlimit:10;}
	.st220{clip-path:url(#SVGID_00000098933446694890673860000003863048724098550434_);}
	.st221{clip-path:url(#SVGID_00000169559388324229062940000017604554621445859504_);}
	.st222{clip-path:url(#SVGID_00000169541321256539707340000007550852039205306037_);}
	.st223{clip-path:url(#SVGID_00000088116271257796387060000014368553582072388535_);}
	.st224{fill:none;stroke:#000000;stroke-width:0.25;stroke-miterlimit:10;}
	.st225{clip-path:url(#SVGID_00000155839952386694136780000002184658143187299752_);}
	.st226{clip-path:url(#SVGID_00000153686653195048286560000013255137937835059597_);}
	.st227{clip-path:url(#SVGID_00000103264427667261226920000016519980106549655208_);}
</style>
<g>
	<path d="M22.07,31.01c0.67,0,1.22,0.54,1.22,1.21c0,0.67-0.54,1.21-1.22,1.21s-1.22-0.54-1.22-1.21
		C20.85,31.55,21.4,31.01,22.07,31.01z M22.07,26.74c0.67,0,1.22,0.54,1.22,1.21c0,0.67-0.54,1.21-1.22,1.21s-1.22-0.54-1.22-1.21
		C20.85,27.28,21.4,26.74,22.07,26.74z M13,29.16c-0.08,0-0.17-0.03-0.23-0.1l-1.83-1.81l-0.48,0.51l2.46,2.45l2.42-2.41
		c0.1-0.09,0.24-0.12,0.36-0.07c0.13,0.05,0.21,0.17,0.21,0.3v10.51h10.35c0.18,0,0.33,0.14,0.33,0.33s-0.14,0.33-0.33,0.33H15.9
		v0.77h12.13V27.63c0-0.13,0.08-0.25,0.2-0.3c0.13-0.05,0.27-0.02,0.36,0.07l1.89,1.89l1.5-1.56c0.13-0.13,0.33-0.14,0.46-0.01
		c0.13,0.13,0.14,0.34,0.01,0.46l-1.51,1.57l0.46,0.46l2.45-2.45l-4.72-5.06c-0.38-0.42-0.94-0.66-1.51-0.66h-2.06
		c-0.18,1.79-1.7,3.19-3.54,3.19s-3.36-1.41-3.54-3.19h-1.81c-0.57,0-1.12,0.24-1.51,0.66l-3.79,4.07l1.84,1.83
		c0.13,0.13,0.13,0.34,0,0.46C13.17,29.13,13.08,29.16,13,29.16"/>
	<path class="st203" d="M22.07,28.5c0.3,0,0.56-0.25,0.56-0.55c0-0.31-0.25-0.56-0.56-0.56c-0.31,0-0.56,0.25-0.56,0.56
		C21.51,28.25,21.76,28.5,22.07,28.5"/>
	<path class="st203" d="M22.07,32.78c0.3,0,0.56-0.25,0.56-0.56c0-0.3-0.25-0.55-0.56-0.55c-0.31,0-0.56,0.25-0.56,0.55
		C21.51,32.53,21.76,32.78,22.07,32.78"/>
	<rect x="6.76" y="41.69" class="st0" width="30.34" height="3.81"/>
	<g>
		<path d="M37.09,42.03c0-0.18-0.14-0.33-0.33-0.33s-0.33,0.14-0.33,0.33c0,1.55-1.27,2.82-2.83,2.82H10.25
			c-1.56,0-2.83-1.26-2.83-2.82c0-0.18-0.15-0.33-0.33-0.33c-0.18,0-0.33,0.14-0.33,0.33c0,1.92,1.57,3.47,3.49,3.47H33.6
			C35.52,45.51,37.09,43.95,37.09,42.03"/>
	</g>
	<rect x="5.85" y="8.21" class="st0" width="32.18" height="21.5"/>
	<g>
		<path d="M7.09,29.32c0.18,0,0.33-0.15,0.33-0.33c0-7.21,5.89-13.09,13.14-13.09h2.73c7.25,0,13.14,5.87,13.14,13.09
			c0,0.18,0.14,0.33,0.33,0.33s0.33-0.15,0.33-0.33c0-7.58-6.19-13.74-13.8-13.74h-1.16v-1.9c1.3-0.16,2.26-1.25,2.26-2.56
			c0-1.42-1.16-2.58-2.59-2.58c-1.3,0-2.4,0.96-2.57,2.24c-0.03,0.18,0.1,0.35,0.28,0.37c0.18,0.02,0.35-0.1,0.37-0.28
			c0.13-0.95,0.95-1.67,1.92-1.67c1.06,0,1.93,0.86,1.93,1.92c0,1-0.75,1.82-1.74,1.92c-0.03,0-0.06,0.01-0.09,0.02
			c-0.03-0.01-0.06-0.02-0.09-0.02c-0.18,0-0.33,0.15-0.33,0.33v2.21h-0.91c-7.61,0-13.8,6.16-13.8,13.74
			C6.76,29.17,6.91,29.32,7.09,29.32"/>
	</g>
	<path d="M27.58,19.48c0.05,0.03,0.11,0.04,0.16,0.04c0.11,0,0.23-0.06,0.29-0.17c0.08-0.16,0.03-0.36-0.13-0.45
		c-1.79-0.97-3.82-1.48-5.87-1.48c-0.18,0-0.33,0.14-0.33,0.33c0,0.18,0.15,0.33,0.33,0.33C23.97,18.08,25.89,18.56,27.58,19.48"/>
	<rect x="2.84" y="33.61" class="st0" width="3.01" height="1.95"/>
	<g>
		<path d="M3.19,34.94h1.94c0.18,0,0.33-0.15,0.33-0.33c0-0.18-0.14-0.33-0.33-0.33H3.19c-0.18,0-0.33,0.14-0.33,0.33
			C2.86,34.8,3.01,34.94,3.19,34.94"/>
	</g>
	<rect x="2.84" y="35.56" class="st0" width="3.01" height="1.95"/>
	<g>
		<path d="M5.13,37c0.18,0,0.33-0.15,0.33-0.33c0-0.18-0.14-0.33-0.33-0.33H3.19c-0.18,0-0.33,0.15-0.33,0.33
			c0,0.18,0.14,0.33,0.33,0.33H5.13"/>
	</g>
	<path d="M8.57,36.84c-0.18,0-0.33,0.14-0.33,0.33c0,0.67-0.55,1.22-1.22,1.22c-0.31,0-0.61-0.12-0.84-0.33
		c-0.13-0.13-0.34-0.12-0.46,0.01C5.59,38.2,5.6,38.4,5.73,38.53c0.35,0.33,0.81,0.51,1.29,0.51c0.93,0,1.71-0.68,1.85-1.57
		c0.86-0.14,1.52-0.89,1.52-1.79c0-0.9-0.66-1.65-1.52-1.79c-0.15-0.88-0.92-1.55-1.85-1.55c-0.48,0-0.94,0.18-1.29,0.51
		c-0.13,0.12-0.14,0.33-0.02,0.46c0.13,0.13,0.34,0.14,0.46,0.02C6.41,33.12,6.71,33,7.02,33c0.67,0,1.22,0.54,1.22,1.22
		c0,0.18,0.15,0.33,0.33,0.33c0.03,0,0.06-0.01,0.1-0.02c0.6,0.05,1.07,0.54,1.07,1.15C9.73,36.32,9.21,36.84,8.57,36.84"/>
	<rect x="38.25" y="34.28" class="st0" width="2.6" height="0.67"/>
	<g>
		<path d="M40.52,34.29h-1.93c-0.18,0-0.33,0.14-0.33,0.33c0,0.18,0.15,0.33,0.33,0.33h1.93c0.18,0,0.33-0.15,0.33-0.33
			C40.85,34.43,40.7,34.29,40.52,34.29"/>
	</g>
	<rect x="38.25" y="36.35" class="st0" width="2.6" height="0.66"/>
	<g>
		<path d="M40.52,36.35h-1.93c-0.18,0-0.33,0.15-0.33,0.33c0,0.18,0.15,0.33,0.33,0.33h1.93c0.18,0,0.33-0.15,0.33-0.33
			C40.85,36.49,40.7,36.35,40.52,36.35"/>
	</g>
	<path class="st204" d="M34.84,33.89c-0.86,0.14-1.52,0.89-1.52,1.79c0,0.9,0.66,1.64,1.52,1.79c0.14,0.89,0.92,1.57,1.86,1.57
		c0.48,0,0.94-0.18,1.29-0.51c0.13-0.13,0.14-0.33,0.01-0.46c-0.12-0.13-0.33-0.14-0.46-0.01c-0.23,0.21-0.53,0.33-0.83,0.33
		c-0.67,0-1.22-0.54-1.22-1.22c0-0.18-0.15-0.33-0.33-0.33c-0.64,0-1.16-0.52-1.16-1.16c0-0.61,0.47-1.11,1.07-1.15
		c0.03,0.01,0.06,0.02,0.1,0.02c0.18,0,0.33-0.15,0.33-0.33c0-0.67,0.54-1.22,1.22-1.22c0.31,0,0.61,0.12,0.83,0.33
		c0.13,0.12,0.34,0.12,0.46-0.02c0.13-0.13,0.12-0.34-0.01-0.46c-0.35-0.33-0.81-0.51-1.29-0.51
		C35.76,32.35,34.99,33.01,34.84,33.89"/>
</g>
</svg>
