<?xml version="1.0" encoding="utf-8"?>
<!-- Generator: Adobe Illustrator 27.3.1, SVG Export Plug-In . SVG Version: 6.00 Build 0)  -->
<svg version="1.1" id="Layer_1" xmlns="http://www.w3.org/2000/svg" xmlns:xlink="http://www.w3.org/1999/xlink" x="0px" y="0px"
	 viewBox="0 0 50 50" style="enable-background:new 0 0 50 50;" xml:space="preserve">
<style type="text/css">
	.st0{fill:none;}
	.st1{stroke:#000000;stroke-miterlimit:10;}
	.st2{stroke:#000000;stroke-width:0.75;stroke-miterlimit:10;}
	.st3{clip-path:url(#SVGID_00000110459274240002129660000014250297057102709911_);}
	.st4{clip-path:url(#SVGID_00000166646642857633109220000011192289290829189277_);}
	.st5{fill:#FFFFFF;}
	.st6{clip-path:url(#SVGID_00000034810526345577282800000015320621578201416871_);}
	.st7{fill:#231F20;}
	.st8{clip-path:url(#SVGID_00000168083243338669874710000015906839842107288479_);}
	.st9{clip-path:url(#SVGID_00000147912914266347400870000005374184302722039693_);}
	.st10{clip-path:url(#SVGID_00000053517917795885330590000013315026589271916682_);}
	.st11{clip-path:url(#SVGID_00000063614769437988954170000004499485784431145129_);}
	.st12{clip-path:url(#SVGID_00000176016464888778841190000003695444016350935173_);}
	.st13{clip-path:url(#SVGID_00000173876489420996004280000010839179059793420432_);}
	.st14{clip-path:url(#SVGID_00000017481617654291149020000009888790434930163350_);}
	.st15{clip-path:url(#SVGID_00000169540703171645641450000001823328721230135485_);}
	.st16{clip-path:url(#SVGID_00000158019185099287565990000000673007836754076851_);}
	.st17{clip-path:url(#SVGID_00000008127202874866426350000001349538465369654934_);}
	.st18{clip-path:url(#SVGID_00000165217667423361891210000011128033678829684897_);}
	.st19{clip-path:url(#SVGID_00000173134826876896645880000002479657192908195994_);}
	.st20{clip-path:url(#SVGID_00000062188404595691696820000014354824307471433618_);}
	.st21{clip-path:url(#SVGID_00000118365785041823670780000005839061220081028753_);}
	.st22{clip-path:url(#SVGID_00000023274473539491283910000017630310481534201484_);}
	.st23{clip-path:url(#SVGID_00000182529713144275349720000009925684980028386182_);}
	.st24{clip-path:url(#SVGID_00000156586808568673394010000003974176394214594716_);}
	.st25{clip-path:url(#SVGID_00000088120065677708460940000006392715508204143523_);}
	.st26{clip-path:url(#SVGID_00000101786493287126059660000003932797722155976346_);}
	.st27{clip-path:url(#SVGID_00000080177359439942043650000007448385699285111716_);}
	.st28{clip-path:url(#SVGID_00000065073301557488676710000007400129476953606041_);}
	.st29{clip-path:url(#SVGID_00000039837775811045238630000017720612745599864509_);}
	.st30{clip-path:url(#SVGID_00000127725858671269390870000011280053895833361557_);}
	.st31{fill-rule:evenodd;clip-rule:evenodd;}
	.st32{clip-path:url(#SVGID_00000054981189488955986490000011818690883920436414_);}
	.st33{clip-path:url(#SVGID_00000080189964181936657790000013462094148869312429_);}
	.st34{stroke:#000000;stroke-width:0.5;stroke-miterlimit:10;}
	.st35{clip-path:url(#SVGID_00000053507571423624359430000007631007354261072283_);}
	.st36{clip-path:url(#SVGID_00000105402985834399259800000000443756576361297078_);}
	.st37{clip-path:url(#SVGID_00000075882575511848618210000008773244464893263283_);}
	.st38{fill:#1A1A1A;}
	.st39{clip-path:url(#SVGID_00000083064126947784579530000017122624444173018258_);}
	.st40{clip-path:url(#SVGID_00000089570334196169011560000010194591244308046471_);}
	.st41{clip-path:url(#SVGID_00000100368812387452707600000003469566613092664751_);}
	.st42{clip-path:url(#SVGID_00000125597758109816617880000007815914945545872573_);}
	.st43{clip-path:url(#SVGID_00000125570022582988579070000016300062438169246397_);}
	.st44{clip-path:url(#SVGID_00000063598233214995448280000008678549197230522810_);}
	.st45{clip-path:url(#SVGID_00000097472239487624125470000017420655171261918104_);}
	.st46{clip-path:url(#SVGID_00000079473530988804409340000001797257063812499087_);}
	.st47{clip-path:url(#SVGID_00000054958632087277852760000006746266282507315092_);}
	.st48{fill:#F1F1F1;}
	.st49{fill:#E8E8E8;}
	.st50{fill:#FEFEFE;}
	.st51{fill:#CCCCCC;}
	.st52{fill:#B3B3B3;}
	.st53{fill:#E6E6E6;}
	.st54{fill:#EBEBEB;}
	.st55{fill:#EEEEEE;}
	.st56{fill:#F8F8F8;}
	.st57{fill:#FBFBFB;}
	.st58{fill:#383838;}
	.st59{fill:#232323;}
	.st60{fill:#F6F6F6;}
	.st61{fill:#535353;}
	.st62{fill:#0A0A0A;}
	.st63{fill:#F5F5F5;}
	.st64{fill:#818181;}
	.st65{fill:#4A4A4A;}
	.st66{fill:#999999;}
	.st67{fill:url(#SVGID_00000048474718651479523320000001288643911650831522_);}
	.st68{fill:url(#SVGID_00000075122651393734517250000008006316050172363440_);}
	.st69{fill:#0E0E0D;}
	.st70{fill:#333333;}
	.st71{fill:#808080;}
	.st72{fill:url(#SVGID_00000052782876596155635020000013972442976597978294_);}
	.st73{fill:#666666;}
	.st74{fill:url(#SVGID_00000049214858774267178090000018057765665874216629_);}
	.st75{fill:url(#SVGID_00000133527010856844667870000009008541299221471363_);}
	.st76{fill:url(#SVGID_00000088817443027448562680000006980387767527404732_);}
	.st77{fill:url(#SVGID_00000176726813981164800390000015187263118523681682_);}
	.st78{fill:url(#SVGID_00000119100468489102685580000004143523513629704098_);}
	.st79{clip-path:url(#SVGID_00000099661552782779442080000018164523198079518857_);}
	.st80{clip-path:url(#SVGID_00000183229223766605229020000015234884965627215237_);}
	.st81{clip-path:url(#SVGID_00000085962627069686134030000007531763371114857127_);}
	.st82{clip-path:url(#SVGID_00000132774510074232090630000008858630592814937260_);}
	.st83{clip-path:url(#SVGID_00000166666520805725186550000002224147959353802655_);}
	.st84{fill:#241F20;stroke:#000000;stroke-width:0.5;stroke-miterlimit:10;}
	.st85{clip-path:url(#SVGID_00000109715999761326732050000012972336178981434519_);}
	.st86{clip-path:url(#SVGID_00000121256653011358154940000017512073560516001164_);}
	.st87{clip-path:url(#SVGID_00000058587147738670787390000001893514084837719972_);}
	.st88{clip-path:url(#SVGID_00000150072536726381769130000011036676000766431887_);}
	.st89{clip-path:url(#SVGID_00000155850618493042124390000008711710159293715864_);}
	.st90{clip-path:url(#SVGID_00000136401284912789670120000008878492915577952439_);}
	.st91{clip-path:url(#SVGID_00000153701800076339064810000018324006842928330674_);}
	.st92{clip-path:url(#SVGID_00000105388279304328507100000009063212029876726969_);}
	.st93{clip-path:url(#SVGID_00000039116457142348218410000008168498726377333378_);}
	.st94{clip-path:url(#SVGID_00000181062836641148501060000000647202040230235282_);}
	.st95{clip-path:url(#SVGID_00000104697229578315968790000009895661329476221622_);}
	.st96{clip-path:url(#SVGID_00000176022692956469924010000005327184239650438282_);}
	.st97{clip-path:url(#SVGID_00000129195438867911735970000015180450487081967009_);}
	.st98{clip-path:url(#SVGID_00000116213351638710935610000002620549040077222334_);}
	.st99{clip-path:url(#SVGID_00000054238659183337369340000010590094392206839466_);}
	.st100{clip-path:url(#SVGID_00000093178198031615323630000002340557216617936522_);}
	.st101{clip-path:url(#SVGID_00000011710737799068321140000017949121265502798514_);}
	.st102{clip-path:url(#SVGID_00000127724615157237638890000005902650319532958608_);}
	.st103{clip-path:url(#SVGID_00000095318863194189081280000016268704597806242198_);}
	.st104{clip-path:url(#SVGID_00000039125726757945033400000003751317207726363570_);}
	.st105{clip-path:url(#SVGID_00000139278994432151554990000014229849145669463732_);}
	.st106{clip-path:url(#SVGID_00000088825662342429225200000010413326312472318624_);}
	.st107{clip-path:url(#SVGID_00000115503333500250123670000010489536999131002760_);}
	.st108{clip-path:url(#SVGID_00000089548341384949907050000008471578035978422684_);}
	.st109{clip-path:url(#SVGID_00000006702433190235897040000009566144755335689381_);}
	.st110{clip-path:url(#SVGID_00000090973722680062418210000001511446705768370094_);}
	.st111{clip-path:url(#SVGID_00000128461938723586416760000016568253029997729411_);}
	.st112{clip-path:url(#SVGID_00000141424825671761232040000001936721967046407860_);}
	.st113{clip-path:url(#SVGID_00000089552674169866095610000009141606359415139230_);}
	.st114{clip-path:url(#SVGID_00000099620464248483465420000016049437603023079080_);}
	.st115{fill:#FFFFFF;stroke:#000000;stroke-miterlimit:10;}
	.st116{clip-path:url(#SVGID_00000014605154091833918050000004828109835119856281_);}
	.st117{clip-path:url(#SVGID_00000131333262731515476830000002430927278743071128_);}
	.st118{fill:none;stroke:#010101;stroke-miterlimit:10;}
	.st119{fill:#010101;stroke:#000000;stroke-miterlimit:10;}
	.st120{clip-path:url(#SVGID_00000180341869984629888420000008599255832680839562_);}
	.st121{fill:#010101;stroke:#010101;stroke-miterlimit:10;}
	.st122{clip-path:url(#SVGID_00000171687993836959168530000016150218686895065237_);}
	.st123{clip-path:url(#SVGID_00000129913129300702866870000005432909215511485093_);}
	.st124{clip-path:url(#SVGID_00000003826406886874668090000003213392017845321137_);}
	.st125{clip-path:url(#SVGID_00000147898973009750185760000008165713595911745670_);}
	.st126{clip-path:url(#SVGID_00000026152493368335961250000002008853711293815735_);}
	.st127{fill:none;stroke:#000000;stroke-width:3;stroke-miterlimit:10;}
	.st128{clip-path:url(#SVGID_00000075144914918069329320000006616545766639446941_);}
	.st129{clip-path:url(#SVGID_00000147193444976368187290000003498734623518447519_);}
	.st130{clip-path:url(#SVGID_00000147917836718694531460000010428370405621215165_);}
	.st131{clip-path:url(#SVGID_00000166649175713250491070000005758245716977830078_);}
	.st132{fill:#040606;}
	.st133{clip-path:url(#SVGID_00000047760032967001926160000003145334373051391121_);}
	.st134{clip-path:url(#SVGID_00000094579332220593370040000015452726896622455192_);}
	.st135{clip-path:url(#SVGID_00000031898522429649922060000006166695025144846471_);}
	.st136{clip-path:url(#SVGID_00000042697098583641104620000012981262490810909569_);}
	.st137{clip-path:url(#SVGID_00000127749643374639489700000015619877656022643104_);}
	.st138{clip-path:url(#SVGID_00000181768673999087470270000009493966036551631255_);}
	.st139{clip-path:url(#SVGID_00000114052258747535566260000001970834287626750129_);}
	.st140{fill:#FFFFFF;stroke:#000000;stroke-width:1.5;stroke-miterlimit:10;}
	.st141{clip-path:url(#SVGID_00000057147890656612691510000018086570175424159375_);}
	.st142{fill:#BDBCBC;}
	.st143{clip-path:url(#SVGID_00000009553452196137691290000007280069259755063437_);}
	.st144{fill:#2E2A2B;}
	.st145{clip-path:url(#SVGID_00000072974611463610511050000012186873711803563186_);}
	.st146{clip-path:url(#SVGID_00000097477469349560545940000018082315121636068287_);}
	.st147{clip-path:url(#SVGID_00000013176794608554094380000012527227539811544977_);}
	.st148{clip-path:url(#SVGID_00000049921739883226175120000000056569069811042747_);}
	.st149{clip-path:url(#SVGID_00000166639194958817534430000003875198565048442505_);}
	.st150{fill:#272324;}
	.st151{clip-path:url(#SVGID_00000090295230339945340070000015020420225185344698_);}
	.st152{clip-path:url(#SVGID_00000152260013072517486200000010251779779459711137_);}
	.st153{clip-path:url(#SVGID_00000110435233625452056720000005773815509005375145_);}
	.st154{clip-path:url(#SVGID_00000152983255197270503980000002703324820302564239_);}
	.st155{clip-path:url(#SVGID_00000101100331212830736550000003320602326263477650_);}
	.st156{clip-path:url(#SVGID_00000172421585718594329160000017944171022542880684_);}
	.st157{fill:none;stroke:#000000;stroke-width:0.8735;stroke-linecap:round;stroke-linejoin:round;stroke-miterlimit:10;}
	.st158{clip-path:url(#SVGID_00000140713781588555083450000016450378386990196357_);}
	.st159{clip-path:url(#SVGID_00000158750879240709413350000014872916574110764700_);}
	.st160{clip-path:url(#SVGID_00000160175383962071083190000000877610902990972289_);}
	.st161{clip-path:url(#SVGID_00000068645608755834140640000013562532696541102729_);}
	.st162{clip-path:url(#SVGID_00000055675214976001087520000007504557174702848143_);}
	.st163{clip-path:url(#SVGID_00000080183667345400710720000018227253802063990422_);}
	.st164{clip-path:url(#SVGID_00000064318228295822712920000000268068387435073161_);}
	.st165{clip-path:url(#SVGID_00000134221477165663465050000016109728007117185699_);}
	.st166{clip-path:url(#SVGID_00000000930533013973706850000000257137000890934934_);}
	.st167{clip-path:url(#SVGID_00000085972433705076243830000002459909757288097726_);}
	.st168{clip-path:url(#SVGID_00000017504573554775147000000009008691283771774120_);}
	.st169{clip-path:url(#SVGID_00000020376969959425041210000013886264142662823076_);}
	.st170{clip-path:url(#SVGID_00000157998177560643222090000010675103308694513045_);}
	.st171{clip-path:url(#SVGID_00000150085260868344714800000002162915298705383836_);}
	.st172{clip-path:url(#SVGID_00000121277154102532916750000002574759642835207858_);}
	.st173{clip-path:url(#SVGID_00000165207653947244627450000007644883724066444185_);}
	.st174{clip-path:url(#SVGID_00000078031596411158414180000011276667644039608230_);}
	.st175{clip-path:url(#SVGID_00000017491965565977367730000001559850967525561507_);}
	.st176{clip-path:url(#SVGID_00000067917507248494558240000009137222963135043974_);}
	.st177{clip-path:url(#SVGID_00000092441712052242170050000014373937240837790103_);}
	.st178{clip-path:url(#SVGID_00000147903784701347516470000009244089381609593020_);}
	.st179{clip-path:url(#SVGID_00000181063905662077661730000001185395245420993461_);}
	.st180{clip-path:url(#SVGID_00000028300220705209247030000009004428021903320751_);}
	.st181{clip-path:url(#SVGID_00000038414085535641302250000008186880314459099046_);}
	.st182{clip-path:url(#SVGID_00000006700853127171173630000006724197010261718193_);}
	.st183{clip-path:url(#SVGID_00000018210062327070150060000017175712366278068617_);}
	.st184{clip-path:url(#SVGID_00000084492507875631755640000011178931439554083459_);}
	.st185{clip-path:url(#SVGID_00000183933603668551687320000009619724842037620125_);}
	.st186{clip-path:url(#SVGID_00000128460972262026425290000017943311119066288044_);}
	.st187{clip-path:url(#SVGID_00000026147116620688160170000009638742050243038349_);}
	.st188{clip-path:url(#SVGID_00000090989931574655172370000015398824567206724009_);}
	.st189{clip-path:url(#SVGID_00000116208623681097872840000008671535300364434355_);}
	.st190{clip-path:url(#SVGID_00000137131345575930941610000010299148039282116484_);}
	.st191{clip-path:url(#SVGID_00000049195073681012930230000017432995886404726188_);}
	.st192{clip-path:url(#SVGID_00000022550041413995285510000002920864871879354529_);}
	.st193{clip-path:url(#SVGID_00000049904214057457855950000014537354033489385142_);}
	.st194{clip-path:url(#SVGID_00000061456634837295523440000004541210304547807389_);}
	.st195{clip-path:url(#SVGID_00000079462333086671037620000010450361681724926341_);}
	.st196{fill:#E5E5E5;}
	.st197{fill:#1D1D1B;}
	.st198{fill:none;stroke:#000000;stroke-miterlimit:10;}
	.st199{fill:#FEFEFE;stroke:#000000;stroke-miterlimit:10;}
	.st200{clip-path:url(#SVGID_00000031199618818369763470000003680424222878388362_);}
	.st201{clip-path:url(#SVGID_00000052817955342153198810000012394605208535803051_);}
	.st202{clip-path:url(#SVGID_00000034808819447903147740000004780276875920995988_);}
	.st203{fill:#231F1F;}
	.st204{fill:#020000;}
	.st205{clip-path:url(#SVGID_00000151542941816691767410000000313855196498664635_);}
	.st206{clip-path:url(#SVGID_00000139294926921905136460000015679106692513123980_);}
	.st207{clip-path:url(#SVGID_00000037662327026437939120000007152584433003745215_);}
	.st208{clip-path:url(#SVGID_00000149346486403872263270000007484957202645692560_);}
	.st209{fill:#050000;}
	.st210{clip-path:url(#SVGID_00000051354633960507993870000014520240593712017329_);}
	.st211{clip-path:url(#SVGID_00000039830970817865786490000015147716729861181843_);}
	.st212{clip-path:url(#SVGID_00000098902218363403508370000005355792813686691518_);}
	.st213{clip-path:url(#SVGID_00000117666609921862282130000003649399331678827672_);}
	.st214{clip-path:url(#SVGID_00000121271836136134508120000001162629177335114114_);}
	.st215{clip-path:url(#SVGID_00000059296963114699193230000017426967494420306104_);}
	.st216{fill:#12100F;}
	.st217{clip-path:url(#SVGID_00000090275219135119895230000005783413436939827883_);}
	.st218{clip-path:url(#SVGID_00000001624103505415455280000013389617098874889863_);}
	.st219{fill:none;stroke:#000000;stroke-width:0.5;stroke-miterlimit:10;}
	.st220{clip-path:url(#SVGID_00000114045591991571948500000017417344908470563756_);}
	.st221{clip-path:url(#SVGID_00000059273482297405689320000002988813459399343794_);}
	.st222{clip-path:url(#SVGID_00000057870338577558869350000011474126018949047937_);}
	.st223{clip-path:url(#SVGID_00000073694420967990643130000011683545991708309909_);}
	.st224{fill:none;stroke:#000000;stroke-width:0.25;stroke-miterlimit:10;}
	.st225{clip-path:url(#SVGID_00000162352440431268699730000002264311518080110779_);}
	.st226{clip-path:url(#SVGID_00000016754423156526751930000005998938052138498748_);}
	.st227{clip-path:url(#SVGID_00000102538069319828013930000014316573317340713657_);}
</style>
<g>
	<rect x="7.93" y="21.7" class="st0" width="28.02" height="16.79"/>
	<g>
		<path d="M34.66,37.54h-2.43c0.09-0.12,0.16-0.26,0.23-0.39l0.99-2.21c0.06-0.12,0.07-0.25,0.02-0.37
			c-0.05-0.13-0.14-0.22-0.26-0.27c-0.06-0.03-0.12-0.04-0.19-0.04c-0.2,0-0.34,0.1-0.43,0.28l-0.17,0.39h-17.9l-4.16-9.32h17.28
			c0.13,0,0.24-0.05,0.33-0.14c0.09-0.09,0.14-0.2,0.14-0.33s-0.05-0.24-0.14-0.33s-0.21-0.14-0.34-0.14H9.53
			c-0.18,0-0.33-0.06-0.46-0.19c-0.13-0.13-0.19-0.28-0.19-0.45c0-0.18,0.06-0.33,0.19-0.46c0.13-0.13,0.28-0.19,0.46-0.19h19.13
			c0.13,0,0.24-0.05,0.33-0.14c0.09-0.09,0.14-0.2,0.14-0.33s-0.05-0.24-0.14-0.33c-0.09-0.09-0.2-0.14-0.33-0.14H9.54
			c-0.21,0-0.41,0.04-0.61,0.12s-0.37,0.19-0.51,0.34c-0.15,0.15-0.26,0.32-0.34,0.51c-0.08,0.19-0.12,0.39-0.12,0.6
			c0,0.19,0.03,0.37,0.1,0.55c0.07,0.18,0.16,0.34,0.29,0.48c0.13,0.14,0.27,0.26,0.44,0.35c0.17,0.09,0.34,0.14,0.53,0.17
			l5.17,11.6c0.06,0.14,0.14,0.27,0.23,0.39h-2.46c-0.13,0-0.24,0.05-0.33,0.14c-0.09,0.09-0.13,0.2-0.13,0.33
			c0,0.13,0.04,0.24,0.13,0.33c0.09,0.09,0.2,0.13,0.33,0.13h22.41c0.13,0,0.24-0.04,0.33-0.13c0.09-0.09,0.13-0.2,0.13-0.33
			c0-0.13-0.05-0.24-0.13-0.33c-0.09-0.09-0.2-0.14-0.33-0.14V37.54z M32,35.89l-0.4,0.89c-0.1,0.23-0.26,0.42-0.48,0.56
			c-0.21,0.14-0.45,0.21-0.7,0.21H16.5c-0.26,0-0.49-0.07-0.7-0.21c-0.21-0.14-0.37-0.33-0.48-0.56l-0.4-0.89H32z"/>
	</g>
	<path d="M34.79,29.08c0-0.26-0.05-0.52-0.14-0.77c-0.09-0.25-0.22-0.48-0.38-0.69c-0.17-0.21-0.37-0.38-0.6-0.51
		c-0.23-0.14-0.47-0.23-0.74-0.29v-7.47c0-0.13-0.05-0.24-0.14-0.33c-0.09-0.09-0.2-0.13-0.33-0.13s-0.24,0.05-0.33,0.13
		c-0.09,0.09-0.14,0.2-0.14,0.33v7.47c-0.29,0.06-0.55,0.17-0.8,0.33c-0.24,0.16-0.45,0.36-0.62,0.6c-0.17,0.24-0.29,0.5-0.36,0.78
		c-0.07,0.28-0.08,0.57-0.04,0.86c0.04,0.29,0.13,0.56,0.28,0.82c0.14,0.26,0.33,0.48,0.56,0.66c0.22,0.18,0.48,0.32,0.76,0.41
		c0.28,0.09,0.56,0.12,0.86,0.1s0.57-0.09,0.83-0.22c0.27-0.13,0.5-0.29,0.7-0.51c0.2-0.21,0.35-0.46,0.46-0.73
		C34.74,29.65,34.79,29.37,34.79,29.08z M32.47,30.45c-0.18,0-0.36-0.04-0.53-0.11c-0.17-0.07-0.32-0.17-0.45-0.3
		s-0.23-0.28-0.3-0.45c-0.07-0.17-0.1-0.35-0.1-0.53s0.03-0.36,0.11-0.53c0.07-0.17,0.17-0.32,0.3-0.45s0.28-0.23,0.45-0.3
		c0.17-0.07,0.35-0.1,0.53-0.1s0.36,0.03,0.53,0.11c0.17,0.07,0.32,0.17,0.45,0.3c0.13,0.13,0.23,0.28,0.3,0.45
		c0.07,0.17,0.1,0.34,0.1,0.53c0,0.18-0.03,0.36-0.11,0.53c-0.07,0.17-0.17,0.32-0.3,0.45c-0.13,0.13-0.28,0.22-0.45,0.3
		C32.83,30.42,32.65,30.45,32.47,30.45z"/>
	<rect x="27.17" y="15.82" class="st0" width="10.01" height="18.56"/>
	<g>
		<path d="M34.68,25.2v-7.18c0-0.29-0.06-0.57-0.17-0.84c-0.11-0.27-0.27-0.51-0.48-0.72c-0.21-0.21-0.45-0.37-0.72-0.48
			c-0.27-0.11-0.56-0.16-0.85-0.16h-0.11c-0.29,0.02-0.56,0.1-0.82,0.22c-0.26,0.13-0.49,0.3-0.69,0.51
			c-0.19,0.21-0.34,0.46-0.45,0.73c-0.1,0.27-0.15,0.55-0.14,0.84v7.09c-0.7,0.4-1.25,0.94-1.65,1.63
			c-0.41,0.69-0.61,1.44-0.62,2.24c0,0.29,0.03,0.58,0.1,0.87c0.06,0.29,0.14,0.57,0.26,0.84c0.11,0.27,0.26,0.53,0.42,0.77
			s0.35,0.47,0.56,0.67c0.21,0.21,0.44,0.39,0.68,0.55c0.25,0.16,0.51,0.3,0.78,0.42c0.27,0.11,0.55,0.19,0.84,0.25
			s0.58,0.09,0.88,0.08c0.18,0,0.35-0.01,0.53-0.03c0.48-0.06,0.94-0.2,1.38-0.41c0.44-0.21,0.83-0.49,1.18-0.83
			c0.35-0.34,0.64-0.72,0.86-1.16c0.22-0.43,0.38-0.88,0.45-1.36c0.07-0.45,0.07-0.9,0-1.34c-0.07-0.45-0.2-0.87-0.4-1.28
			c-0.2-0.41-0.45-0.77-0.77-1.1C35.43,25.69,35.08,25.42,34.68,25.2z M28.91,29.06c0-0.64,0.17-1.24,0.5-1.79
			c0.33-0.56,0.78-0.99,1.34-1.3c0.3-0.14,0.46-0.38,0.47-0.71v-7.14c0-0.17,0.02-0.33,0.08-0.49c0.06-0.16,0.14-0.3,0.26-0.43
			c0.11-0.13,0.24-0.23,0.39-0.3c0.15-0.08,0.31-0.13,0.48-0.14h0.07c0.17,0,0.34,0.03,0.5,0.1c0.16,0.07,0.3,0.16,0.42,0.28
			c0.12,0.12,0.22,0.26,0.28,0.42c0.06,0.16,0.1,0.32,0.1,0.5v7.21c0,0.32,0.14,0.57,0.43,0.73c0.32,0.17,0.61,0.39,0.86,0.65
			c0.25,0.26,0.46,0.55,0.62,0.88c0.16,0.32,0.27,0.67,0.32,1.02c0.06,0.36,0.06,0.72,0,1.07c-0.06,0.38-0.19,0.75-0.37,1.09
			c-0.18,0.34-0.42,0.64-0.7,0.91c-0.28,0.27-0.6,0.48-0.95,0.64c-0.35,0.16-0.72,0.27-1.11,0.31h-0.43c-0.47,0-0.92-0.09-1.36-0.27
			c-0.44-0.18-0.82-0.43-1.15-0.77c-0.33-0.33-0.59-0.71-0.77-1.15c-0.18-0.43-0.27-0.88-0.27-1.35V29.06z"/>
	</g>
</g>
</svg>
