<?xml version="1.0" encoding="utf-8"?>
<!-- Generator: Adobe Illustrator 27.3.1, SVG Export Plug-In . SVG Version: 6.00 Build 0)  -->
<svg version="1.1" id="Layer_1" xmlns="http://www.w3.org/2000/svg" xmlns:xlink="http://www.w3.org/1999/xlink" x="0px" y="0px"
	 viewBox="0 0 50 50" style="enable-background:new 0 0 50 50;" xml:space="preserve">
<style type="text/css">
	.st0{fill:none;}
	.st1{stroke:#000000;stroke-miterlimit:10;}
	.st2{stroke:#000000;stroke-width:0.75;stroke-miterlimit:10;}
	.st3{clip-path:url(#SVGID_00000180357051175091917060000014396082108862532510_);}
	.st4{clip-path:url(#SVGID_00000111880314771315899700000009216003953791050144_);}
	.st5{fill:#FFFFFF;}
	.st6{clip-path:url(#SVGID_00000041983555779586569210000003265449472133671335_);}
	.st7{fill:#231F20;}
	.st8{clip-path:url(#SVGID_00000040556933445751499740000017530765226706223508_);}
	.st9{clip-path:url(#SVGID_00000134956779952364351130000008880679869525754300_);}
	.st10{clip-path:url(#SVGID_00000000201144343883258050000012506287278206274715_);}
	.st11{clip-path:url(#SVGID_00000121242984569218660310000014464752239666431414_);}
	.st12{clip-path:url(#SVGID_00000052817781802282972850000014386615749665364642_);}
	.st13{clip-path:url(#SVGID_00000114043057132509356930000011484945789444080549_);}
	.st14{clip-path:url(#SVGID_00000127747714491521352760000004855501801622727610_);}
	.st15{clip-path:url(#SVGID_00000124130662875353480240000014994661843745922179_);}
	.st16{clip-path:url(#SVGID_00000018948202452643438870000001738875245492324277_);}
	.st17{clip-path:url(#SVGID_00000098199525384180177300000007475775251921077168_);}
	.st18{clip-path:url(#SVGID_00000108274117133286591110000015963368176304246937_);}
	.st19{clip-path:url(#SVGID_00000160904549784196128120000000823946432301830329_);}
	.st20{clip-path:url(#SVGID_00000071522805063063877010000006198034346176552101_);}
	.st21{clip-path:url(#SVGID_00000161595122948982792040000000813567590400787350_);}
	.st22{clip-path:url(#SVGID_00000057848404812364153930000001479573882743755188_);}
	.st23{clip-path:url(#SVGID_00000169522118836187063270000003092335523693316771_);}
	.st24{clip-path:url(#SVGID_00000004546839516728957140000007323628198792509570_);}
	.st25{clip-path:url(#SVGID_00000109744999505770912290000005610959644206144907_);}
	.st26{clip-path:url(#SVGID_00000169554453846531613500000007344908576725799564_);}
	.st27{clip-path:url(#SVGID_00000098925439942415218130000008159223191132081072_);}
	.st28{clip-path:url(#SVGID_00000085232056105734242430000011007171435710053269_);}
	.st29{clip-path:url(#SVGID_00000130604616954269538350000017798316516981540247_);}
	.st30{clip-path:url(#SVGID_00000013900474561775835630000001952122430865315733_);}
	.st31{fill-rule:evenodd;clip-rule:evenodd;}
	.st32{clip-path:url(#SVGID_00000001622044651781722360000009907494588097388455_);}
	.st33{clip-path:url(#SVGID_00000049941512681137063090000000911361352847201681_);}
	.st34{stroke:#000000;stroke-width:0.5;stroke-miterlimit:10;}
	.st35{clip-path:url(#SVGID_00000020362298606682186240000011594374840230015105_);}
	.st36{clip-path:url(#SVGID_00000049902955884495047640000012695687901388968851_);}
	.st37{clip-path:url(#SVGID_00000003097435835515909460000000556658003349902215_);}
	.st38{fill:#1A1A1A;}
	.st39{clip-path:url(#SVGID_00000019657660838978270260000014429994589979611297_);}
	.st40{clip-path:url(#SVGID_00000016767890811958073120000003263461241337471678_);}
	.st41{clip-path:url(#SVGID_00000124853906231757493640000003163723794385482883_);}
	.st42{clip-path:url(#SVGID_00000150821962662080326380000002573965927975046056_);}
	.st43{clip-path:url(#SVGID_00000146480199306651262950000007999369750237444787_);}
	.st44{clip-path:url(#SVGID_00000182519921217698364790000014557449659388198286_);}
	.st45{clip-path:url(#SVGID_00000162314364571153062310000011338531843596605070_);}
	.st46{clip-path:url(#SVGID_00000150817371245259192520000007786868654448919204_);}
	.st47{clip-path:url(#SVGID_00000046326295608090788200000018389324702418000313_);}
	.st48{fill:#F1F1F1;}
	.st49{fill:#E8E8E8;}
	.st50{fill:#FEFEFE;}
	.st51{fill:#CCCCCC;}
	.st52{fill:#B3B3B3;}
	.st53{fill:#E6E6E6;}
	.st54{fill:#EBEBEB;}
	.st55{fill:#EEEEEE;}
	.st56{fill:#F8F8F8;}
	.st57{fill:#FBFBFB;}
	.st58{fill:#383838;}
	.st59{fill:#232323;}
	.st60{fill:#F6F6F6;}
	.st61{fill:#535353;}
	.st62{fill:#0A0A0A;}
	.st63{fill:#F5F5F5;}
	.st64{fill:#818181;}
	.st65{fill:#4A4A4A;}
	.st66{fill:#999999;}
	.st67{fill:url(#SVGID_00000095307103293650396140000001786199995988068782_);}
	.st68{fill:url(#SVGID_00000018951504511542362050000008833376705834803109_);}
	.st69{fill:#0E0E0D;}
	.st70{fill:#333333;}
	.st71{fill:#808080;}
	.st72{fill:url(#SVGID_00000045577381011262152510000005986560312451943845_);}
	.st73{fill:#666666;}
	.st74{fill:url(#SVGID_00000077322694030477346030000006428519186637484961_);}
	.st75{fill:url(#SVGID_00000000184032445220952440000012392838655054773169_);}
	.st76{fill:url(#SVGID_00000158724343568332466660000001388038381636593565_);}
	.st77{fill:url(#SVGID_00000063591709195469926060000003232031227943846289_);}
	.st78{fill:url(#SVGID_00000137822565625178418150000004514070724159575948_);}
	.st79{clip-path:url(#SVGID_00000084491298120906644640000014547288308774710711_);}
	.st80{clip-path:url(#SVGID_00000139988934273756821890000018130316915439996591_);}
	.st81{clip-path:url(#SVGID_00000047772486742435297410000016243161252233159311_);}
	.st82{clip-path:url(#SVGID_00000116922873294396694420000017583154284386384057_);}
	.st83{clip-path:url(#SVGID_00000008116079507648155030000009390122223184973982_);}
	.st84{fill:#241F20;stroke:#000000;stroke-width:0.5;stroke-miterlimit:10;}
	.st85{clip-path:url(#SVGID_00000146479912398163748990000007477939803076997006_);}
	.st86{clip-path:url(#SVGID_00000034058897857198891940000004549603650139641260_);}
	.st87{clip-path:url(#SVGID_00000114047899180036636660000006799107414147523206_);}
	.st88{clip-path:url(#SVGID_00000051367038587933433580000001697842132029165708_);}
	.st89{clip-path:url(#SVGID_00000106826397544883769290000004824158573777167242_);}
	.st90{clip-path:url(#SVGID_00000150087482344183459910000016438986542795711667_);}
	.st91{clip-path:url(#SVGID_00000090984948833321977160000014790183093978600349_);}
	.st92{clip-path:url(#SVGID_00000148646053529436419320000004054072676490576544_);}
	.st93{clip-path:url(#SVGID_00000118399403677421258070000017407433733906289041_);}
	.st94{clip-path:url(#SVGID_00000106829204737333186940000003536415055591282855_);}
	.st95{clip-path:url(#SVGID_00000132794761912757225740000006841971158821231262_);}
	.st96{clip-path:url(#SVGID_00000080200683581138429750000015101749224647188126_);}
	.st97{clip-path:url(#SVGID_00000029762548411268142630000014405222133494809231_);}
	.st98{clip-path:url(#SVGID_00000064317001981144600330000015017455674297090717_);}
	.st99{clip-path:url(#SVGID_00000000931893262916173220000004393155933736454019_);}
	.st100{clip-path:url(#SVGID_00000101088157574176379530000018310479460454311318_);}
	.st101{clip-path:url(#SVGID_00000175319344478153245460000001121773558373733531_);}
	.st102{clip-path:url(#SVGID_00000162323587575441641580000008760677307138319765_);}
	.st103{clip-path:url(#SVGID_00000183950217815202496480000010775336286783375259_);}
	.st104{clip-path:url(#SVGID_00000105427884935736812600000007895782176016862906_);}
	.st105{clip-path:url(#SVGID_00000163764317586217819610000007407521603312264088_);}
	.st106{clip-path:url(#SVGID_00000104697702703430434010000013501347772791369400_);}
	.st107{clip-path:url(#SVGID_00000067215498268984014270000010929079490790121137_);}
	.st108{clip-path:url(#SVGID_00000064321623348640101720000010018062530671454613_);}
	.st109{clip-path:url(#SVGID_00000098209896718658719060000000228847017261809593_);}
	.st110{clip-path:url(#SVGID_00000142898943583488945520000004097704695893881531_);}
	.st111{clip-path:url(#SVGID_00000145777453126752792760000002080975449237062842_);}
	.st112{clip-path:url(#SVGID_00000150789731152935414520000003096649798112889740_);}
	.st113{clip-path:url(#SVGID_00000147181409829009501540000000436652339978801317_);}
	.st114{clip-path:url(#SVGID_00000021121771543325565540000009377255835801238711_);}
	.st115{fill:#FFFFFF;stroke:#000000;stroke-miterlimit:10;}
	.st116{clip-path:url(#SVGID_00000070091689013883433280000009485420366549164982_);}
	.st117{clip-path:url(#SVGID_00000039106105430790651570000016526585536775678386_);}
	.st118{fill:none;stroke:#010101;stroke-miterlimit:10;}
	.st119{fill:#010101;stroke:#000000;stroke-miterlimit:10;}
	.st120{clip-path:url(#SVGID_00000125602786201626448460000015618742787205929143_);}
	.st121{fill:#010101;stroke:#010101;stroke-miterlimit:10;}
	.st122{clip-path:url(#SVGID_00000182515026142472293490000008876728140975595696_);}
	.st123{clip-path:url(#SVGID_00000103958084912236249120000006756496068661165710_);}
	.st124{clip-path:url(#SVGID_00000098208041818031810160000005124839104013746853_);}
	.st125{clip-path:url(#SVGID_00000109006143213089858410000015932616104668353183_);}
	.st126{clip-path:url(#SVGID_00000109027247705252818340000017365832619323488423_);}
	.st127{fill:none;stroke:#000000;stroke-width:3;stroke-miterlimit:10;}
	.st128{clip-path:url(#SVGID_00000024714140680429285280000004862363028117367452_);}
	.st129{clip-path:url(#SVGID_00000114784094855625743930000010447176954218584476_);}
	.st130{clip-path:url(#SVGID_00000047041138290428064460000005417365829789611948_);}
	.st131{clip-path:url(#SVGID_00000173135740600976656450000009766149389598465700_);}
	.st132{fill:#040606;}
	.st133{clip-path:url(#SVGID_00000093856817620981105100000003303749010534214530_);}
	.st134{clip-path:url(#SVGID_00000010996917666690031020000009973278828703044514_);}
	.st135{clip-path:url(#SVGID_00000055706912799502047700000015175380766148609209_);}
	.st136{clip-path:url(#SVGID_00000013875577262500641110000017832998098719066761_);}
	.st137{clip-path:url(#SVGID_00000154399061404975201660000014656593979151612594_);}
	.st138{clip-path:url(#SVGID_00000083087311600722628720000004173971706751385225_);}
	.st139{clip-path:url(#SVGID_00000136396140223132582030000003832160425025503899_);}
	.st140{fill:#FFFFFF;stroke:#000000;stroke-width:1.5;stroke-miterlimit:10;}
	.st141{clip-path:url(#SVGID_00000035503163008572911070000009900141698257637252_);}
	.st142{fill:#BDBCBC;}
	.st143{clip-path:url(#SVGID_00000057839650410984556120000013226787137945357443_);}
	.st144{fill:#2E2A2B;}
	.st145{clip-path:url(#SVGID_00000034776897051621699550000013071315549892309905_);}
	.st146{clip-path:url(#SVGID_00000147910277160028982760000016180615515563459986_);}
	.st147{clip-path:url(#SVGID_00000002365990602521129370000017766334346936649387_);}
	.st148{clip-path:url(#SVGID_00000061448772714716007310000007313630303351322784_);}
	.st149{clip-path:url(#SVGID_00000005237344371884633340000012077100095689528508_);}
	.st150{fill:#272324;}
	.st151{clip-path:url(#SVGID_00000008870160723902099540000009620621454954350491_);}
	.st152{clip-path:url(#SVGID_00000091701929183013078820000014832431100182587778_);}
	.st153{clip-path:url(#SVGID_00000133503991079107743450000004830623093414752952_);}
	.st154{clip-path:url(#SVGID_00000016046887849895836430000015815948966504052651_);}
	.st155{clip-path:url(#SVGID_00000167388075636069517000000004385738067555803776_);}
	.st156{clip-path:url(#SVGID_00000140701909590258691940000000367982180531755139_);}
	.st157{fill:none;stroke:#000000;stroke-width:0.8735;stroke-linecap:round;stroke-linejoin:round;stroke-miterlimit:10;}
	.st158{clip-path:url(#SVGID_00000003798514890804704770000014345309109791833254_);}
	.st159{clip-path:url(#SVGID_00000047780663745121990160000009962177664418934942_);}
	.st160{clip-path:url(#SVGID_00000059300579255727178320000014391410037942501551_);}
	.st161{clip-path:url(#SVGID_00000178900503379633828860000010493964270803243684_);}
	.st162{clip-path:url(#SVGID_00000071519975167413605070000004497688881963849140_);}
	.st163{clip-path:url(#SVGID_00000033344989977657678150000016761359002181645210_);}
	.st164{clip-path:url(#SVGID_00000051351991571020469890000001197560420782370996_);}
	.st165{clip-path:url(#SVGID_00000044888400829769390190000001304510112845113733_);}
	.st166{clip-path:url(#SVGID_00000109023181165426159780000010284313159292556203_);}
	.st167{clip-path:url(#SVGID_00000167377190700187693530000016622822728949419423_);}
	.st168{clip-path:url(#SVGID_00000142147813658100983760000017344837220135478955_);}
	.st169{clip-path:url(#SVGID_00000173850417915116130270000003266262202446767781_);}
	.st170{clip-path:url(#SVGID_00000168081542040459133560000015162270527411908533_);}
	.st171{clip-path:url(#SVGID_00000088102775536684878900000004869882391407755937_);}
	.st172{clip-path:url(#SVGID_00000038393350059570126160000017700115771581449631_);}
	.st173{clip-path:url(#SVGID_00000003083987561531208820000006237082817600503190_);}
	.st174{clip-path:url(#SVGID_00000019650233390781565640000005824600896422054049_);}
	.st175{clip-path:url(#SVGID_00000023989568799848356870000017560882362275861138_);}
	.st176{clip-path:url(#SVGID_00000043445473680083712410000008161623093910813856_);}
	.st177{clip-path:url(#SVGID_00000033346500141742525180000008384585722320589998_);}
	.st178{clip-path:url(#SVGID_00000042700914269879368700000003012911904540615100_);}
	.st179{clip-path:url(#SVGID_00000018938752366789003550000014278541330833546908_);}
	.st180{clip-path:url(#SVGID_00000083061945883991820700000007698713594949655709_);}
	.st181{clip-path:url(#SVGID_00000177455665637069906390000010843858677748978819_);}
	.st182{clip-path:url(#SVGID_00000060008506510690506780000007046360038747025558_);}
	.st183{clip-path:url(#SVGID_00000083797687894111051050000008448693192522174894_);}
	.st184{clip-path:url(#SVGID_00000148624633242138506590000006286816546082485677_);}
	.st185{clip-path:url(#SVGID_00000183971200421817293730000004421641255985753731_);}
	.st186{clip-path:url(#SVGID_00000069383631824547117210000006087245416595029128_);}
	.st187{clip-path:url(#SVGID_00000089544882034453068290000004630015098096791435_);}
	.st188{clip-path:url(#SVGID_00000063603947911398053490000016580588081057623966_);}
	.st189{clip-path:url(#SVGID_00000088830322861040134300000002870734452370276793_);}
	.st190{clip-path:url(#SVGID_00000041292905336419121320000000828082949007018631_);}
	.st191{clip-path:url(#SVGID_00000003790581244446140450000003220304992179049651_);}
	.st192{clip-path:url(#SVGID_00000108296365615539142740000016277499447925416369_);}
	.st193{clip-path:url(#SVGID_00000060028602527730554770000011604766863122477474_);}
	.st194{clip-path:url(#SVGID_00000005226417995758372900000000271354498884844980_);}
	.st195{clip-path:url(#SVGID_00000088820987310286971890000006459289501008126859_);}
	.st196{fill:#E5E5E5;}
	.st197{fill:#1D1D1B;}
	.st198{fill:none;stroke:#000000;stroke-miterlimit:10;}
	.st199{fill:#FEFEFE;stroke:#000000;stroke-miterlimit:10;}
	.st200{clip-path:url(#SVGID_00000137109955654574686210000008799920269262613927_);}
	.st201{clip-path:url(#SVGID_00000134252175737526105670000010907765476632295316_);}
	.st202{clip-path:url(#SVGID_00000027588023952316067960000012462778357730461600_);}
	.st203{fill:#231F1F;}
	.st204{fill:#020000;}
	.st205{clip-path:url(#SVGID_00000108271115794531797600000014842992191011661477_);}
	.st206{clip-path:url(#SVGID_00000180344857782251712970000014785512492932256953_);}
	.st207{clip-path:url(#SVGID_00000034057871128986674180000004361976596009015950_);}
	.st208{clip-path:url(#SVGID_00000105426985421332220110000014019221317821425792_);}
	.st209{fill:#050000;}
	.st210{clip-path:url(#SVGID_00000105398302260278873600000012551135962731293080_);}
	.st211{clip-path:url(#SVGID_00000122682390957574989450000009248883428684820367_);}
	.st212{clip-path:url(#SVGID_00000173148685743845059090000015256682044972567965_);}
	.st213{clip-path:url(#SVGID_00000177442034540158294710000008704354393865812617_);}
	.st214{clip-path:url(#SVGID_00000020379854997260882370000012044474442817439888_);}
	.st215{clip-path:url(#SVGID_00000057135586469456564470000013938904560981025455_);}
	.st216{fill:#12100F;}
	.st217{clip-path:url(#SVGID_00000181087419408601251590000000810202994596570553_);}
	.st218{clip-path:url(#SVGID_00000114060358483432854770000011173391766332235679_);}
	.st219{fill:none;stroke:#000000;stroke-width:0.5;stroke-miterlimit:10;}
	.st220{clip-path:url(#SVGID_00000023241517534410001280000000180845044551011728_);}
	.st221{clip-path:url(#SVGID_00000094615099365909280250000013594668243123184041_);}
	.st222{clip-path:url(#SVGID_00000057112193375632434450000001790087554804563888_);}
	.st223{clip-path:url(#SVGID_00000036951013224103472990000003402221664736780734_);}
	.st224{fill:none;stroke:#000000;stroke-width:0.25;stroke-miterlimit:10;}
	.st225{clip-path:url(#SVGID_00000101071477487169563040000012626041563930302363_);}
	.st226{clip-path:url(#SVGID_00000165201752623582111890000006625780013432161981_);}
	.st227{clip-path:url(#SVGID_00000070098925056173114800000000116914272055393408_);}
</style>
<g>
	<path class="st5" d="M28.51,24.65c0-0.72-0.46-1.31-1.02-1.31c-0.57,0-1.03,0.59-1.03,1.31v15.08c0,0.41-3.7,1.38-4.96,1.62
		c-1.99-1.14-2.49,1.61-0.5,1.92c2.33,0.36,5.23-1.84,6.44-1.84s3.86,2.51,6.46,1.84c1.8-0.47-0.1-3.23-1.14-1.67
		c-1.64-0.26-4.25-1.47-4.25-1.86V24.65"/>
	<g>
		<defs>
			<rect id="SVGID_00000014601286044838971770000007603795788388238988_" x="19.41" y="22.2" width="15.65" height="21.76"/>
		</defs>
		<clipPath id="SVGID_00000005249997710487769390000001169724606324337828_">
			<use xlink:href="#SVGID_00000014601286044838971770000007603795788388238988_"  style="overflow:visible;"/>
		</clipPath>
		<g style="clip-path:url(#SVGID_00000005249997710487769390000001169724606324337828_);">
			<path class="st132" d="M28.51,24.65h0.11c0-0.38-0.12-0.73-0.32-0.99c-0.21-0.26-0.49-0.42-0.81-0.42s-0.61,0.17-0.81,0.42
				c-0.2,0.26-0.32,0.61-0.32,0.99v15.08h0.03l-0.03-0.01v0.01h0.03l-0.03-0.01l0.01,0l-0.01,0l0.01,0l-0.01,0v0
				c0,0-0.03,0.03-0.06,0.06c-0.06,0.05-0.17,0.11-0.31,0.17c-0.49,0.23-1.38,0.5-2.25,0.74c-0.88,0.24-1.75,0.45-2.24,0.54
				l0.02,0.11l0.06-0.1c-0.35-0.21-0.67-0.29-0.94-0.29c-0.31,0-0.57,0.12-0.74,0.31c-0.17,0.19-0.25,0.45-0.25,0.71
				c0,0.3,0.1,0.61,0.33,0.86c0.22,0.26,0.57,0.45,1.02,0.53c0.18,0.03,0.37,0.04,0.56,0.04c1.14,0,2.35-0.48,3.41-0.95
				c0.53-0.24,1.02-0.47,1.45-0.65c0.42-0.17,0.79-0.29,1.04-0.28c0.23,0,0.56,0.11,0.95,0.29c0.58,0.27,1.29,0.69,2.07,1.03
				c0.78,0.35,1.64,0.63,2.52,0.63c0.31,0,0.63-0.03,0.95-0.12c0.28-0.07,0.49-0.21,0.63-0.38c0.14-0.17,0.2-0.38,0.2-0.58
				c0-0.34-0.15-0.68-0.38-0.95c-0.11-0.13-0.24-0.24-0.39-0.33c-0.15-0.08-0.31-0.13-0.48-0.13c-0.15,0-0.3,0.04-0.45,0.12
				c-0.14,0.09-0.28,0.22-0.4,0.4l0.1,0.06l0.02-0.11c-0.8-0.13-1.86-0.49-2.71-0.87c-0.42-0.19-0.8-0.38-1.06-0.55
				c-0.13-0.08-0.24-0.16-0.3-0.23c-0.03-0.03-0.06-0.06-0.07-0.08c0-0.01-0.01-0.01-0.01-0.02h-0.01h0.01h-0.01h0.01V24.65H28.4
				v15.08c0,0.06,0.02,0.1,0.05,0.14c0.05,0.07,0.13,0.14,0.23,0.22c0.17,0.14,0.43,0.29,0.74,0.45c0.92,0.47,2.29,0.99,3.32,1.16
				l0.07,0.01l0.04-0.06c0.1-0.16,0.21-0.26,0.32-0.33c0.11-0.07,0.22-0.1,0.33-0.1c0.13,0,0.25,0.04,0.37,0.1
				c0.18,0.1,0.35,0.27,0.47,0.46c0.12,0.2,0.19,0.42,0.19,0.62c0,0.17-0.05,0.31-0.15,0.45c-0.1,0.13-0.26,0.23-0.51,0.3
				c-0.3,0.08-0.6,0.11-0.9,0.11c-1.11,0-2.22-0.48-3.18-0.97c-0.48-0.24-0.93-0.48-1.32-0.67c-0.4-0.18-0.74-0.31-1.04-0.31
				c-0.31,0-0.69,0.13-1.12,0.3c-0.66,0.27-1.44,0.66-2.27,0.99c-0.83,0.33-1.69,0.59-2.5,0.59c-0.18,0-0.35-0.01-0.52-0.03
				c-0.41-0.07-0.7-0.24-0.89-0.45c-0.19-0.21-0.28-0.48-0.28-0.72c0-0.21,0.07-0.42,0.2-0.56c0.13-0.14,0.31-0.24,0.57-0.24
				c0.22,0,0.5,0.07,0.83,0.26l0.04,0.02l0.04,0c0.63-0.12,1.87-0.42,2.96-0.74c0.55-0.16,1.05-0.33,1.42-0.48
				c0.19-0.08,0.34-0.15,0.45-0.23c0.06-0.03,0.1-0.07,0.14-0.11c0.02-0.02,0.03-0.04,0.05-0.07c0.01-0.03,0.02-0.06,0.02-0.09
				V24.65c0-0.34,0.1-0.64,0.28-0.86c0.17-0.21,0.39-0.34,0.64-0.34c0.24,0,0.47,0.12,0.63,0.34c0.17,0.22,0.28,0.52,0.28,0.86
				H28.51"/>
		</g>
	</g>
	<path class="st5" d="M32.98,42.49c-1.64-0.27-3.54-1.31-3.54-1.71v-0.04c0.91,0.47,2.42,0.99,3.44,1.16
		c0.18-0.37,0.42-0.52,0.65-0.52c0.39,0,0.77,0.42,0.83,0.91C34.13,42.08,33.92,42,33.73,42C33.4,42,33.14,42.25,32.98,42.49"/>
	<path class="st5" d="M20.76,42.98c-1.11-0.29-1.09-1.7-0.13-1.7c0.25,0,0.57,0.09,0.94,0.33c1.25-0.23,5.11-1.42,5.11-1.83
		l0.01-6.05l0.69-0.02v6.76c0,0.41-4.08,1.12-5.33,1.35C20.86,42.07,20.09,41.87,20.76,42.98"/>
	<g>
		<defs>
			<rect id="SVGID_00000040537008046625289470000017358336542331721098_" x="8.59" y="15.49" width="37.65" height="20.13"/>
		</defs>
		<clipPath id="SVGID_00000078744613748124681560000018075714253597292463_">
			<use xlink:href="#SVGID_00000040537008046625289470000017358336542331721098_"  style="overflow:visible;"/>
		</clipPath>
		<g style="clip-path:url(#SVGID_00000078744613748124681560000018075714253597292463_);">
			<path class="st5" d="M39.84,15.9c-2.55,0-23.57,0-25.39,0c-2.04,1.23-1.68,12.31-5.25,15.74l2.93,0.55v0.91l3.54,0.3l-0.1,0.65
				c0,0,1.21,0.96,4.54,1.05c0.1,0,0.18-0.14,0.26-0.29c0.08-0.14,0.16-0.29,0.24-0.29c2.94,0.05,4.21-0.2,4.21-0.2l0.37-0.85
				l5.23-0.11l1.15,1.26l3.37-0.11c0,0,0.07,0.59,0.29,0.59c2.37,0,4.48-0.77,4.48-0.77l0.37-0.85l3.08-0.17l0.02-1.12l2.62-0.55
				C42.35,27.55,41.03,16.51,39.84,15.9"/>
		</g>
	</g>
	<g>
		<defs>
			<rect id="SVGID_00000031929330267911521150000006360672764612194212_" x="8.59" y="15.49" width="37.74" height="20.13"/>
		</defs>
		<clipPath id="SVGID_00000103264680772652633380000008225974624315430825_">
			<use xlink:href="#SVGID_00000031929330267911521150000006360672764612194212_"  style="overflow:visible;"/>
		</clipPath>
		<g style="clip-path:url(#SVGID_00000103264680772652633380000008225974624315430825_);">
			<path class="st132" d="M35.2,34.21l0.03,0.27c0.01,0.12,0.05,0.26,0.08,0.34c1.95-0.02,3.72-0.56,4.18-0.72l0.39-0.89l2.98-0.17
				l0.02-1.09l2.38-0.49c-1.95-2.62-3.2-7.39-4.12-10.92c-0.49-1.89-1.05-4.01-1.41-4.34H14.55c-0.75,0.56-1.18,3.02-1.65,5.61
				c-0.62,3.54-1.33,7.53-3.12,9.65l2.65,0.5v0.88l3.58,0.3l-0.12,0.77c0.38,0.22,1.63,0.82,4.15,0.9c0.03-0.04,0.06-0.1,0.08-0.14
				c0.1-0.2,0.24-0.44,0.5-0.44c0.27,0,0.52,0.01,0.75,0.01c1.84,0,2.89-0.12,3.25-0.17l0.38-0.87l5.55-0.12l1.14,1.26L35.2,34.21
				 M20.12,35.39h-0.01c-3.39-0.1-4.66-1.08-4.72-1.12l-0.13-0.1l0.08-0.51l-3.49-0.29v-0.93L8.6,31.82L9,31.43
				c1.93-1.86,2.7-6.22,3.32-9.73c0.54-3.04,0.97-5.44,1.98-6.05l0.07-0.04h25.54l0.06,0.03c0.56,0.29,0.97,1.74,1.75,4.74
				c0.95,3.65,2.26,8.65,4.3,11.07l0.31,0.37l-2.87,0.6l-0.02,1.16l-3.17,0.18l-0.35,0.79l-0.12,0.04
				c-0.09,0.03-2.18,0.79-4.57,0.79c-0.32,0-0.47-0.31-0.54-0.59l-3.25,0.11l-1.15-1.26l-4.91,0.1l-0.36,0.82l-0.15,0.03
				c-0.05,0.01-1.3,0.25-4.18,0.21c-0.02,0.03-0.05,0.09-0.07,0.13C20.53,35.14,20.39,35.39,20.12,35.39"/>
		</g>
	</g>
	<path class="st5" d="M24.82,33.62l-0.24-14.12l1.4,13.66l-0.97,0.02L24.82,33.62"/>
	<path class="st132" d="M24.83,34.33l-0.01-0.7l0.19-0.43l0.97-0.02l0.02,0.2l-0.79,0.11L24.83,34.33"/>
	<path class="st5" d="M31.55,34.16l-0.95-1.04v-13.4L31.55,34.16"/>
	<path class="st132" d="M31.58,34.62l-0.98-1.49v-0.02l0.95,1.04L31.58,34.62"/>
	<path class="st5" d="M15.07,33.06l-2.64-0.22v-0.88l-2.65-0.5c1.79-2.12,2.5-6.11,3.12-9.65c0.46-2.59,0.9-5.05,1.65-5.61h0.91
		c2.11,0.35,5.7,1.5,7.96,1.5c-0.45,1.14-1.14,1.43-1.97,1.43c-0.44,0-0.91-0.08-1.42-0.16c-0.5-0.08-1.03-0.16-1.57-0.16
		c-0.65,0-1.32,0.12-1.99,0.49c-3.08,1.74-3.11,7.53-2.65,10.57C14,31.02,14.43,32.09,15.07,33.06"/>
	<g>
		<defs>
			<rect id="SVGID_00000060723403991946428990000000364571209481421189_" x="8.59" y="15.49" width="7.46" height="17.89"/>
		</defs>
		<clipPath id="SVGID_00000138538865132197484800000003688925909034005944_">
			<use xlink:href="#SVGID_00000060723403991946428990000000364571209481421189_"  style="overflow:visible;"/>
		</clipPath>
		<g style="clip-path:url(#SVGID_00000138538865132197484800000003688925909034005944_);">
			<path class="st132" d="M15.28,33.37l-3.14-0.27v-0.91L9.2,31.64c3.57-3.43,3.51-14.67,5.25-15.55c0.27,0,0.61,0.04,1,0.1h-0.91
				c-0.75,0.56-1.18,3.02-1.65,5.61c-0.62,3.54-1.33,7.53-3.12,9.65l2.65,0.5v0.88l2.64,0.22C15.14,33.16,15.21,33.26,15.28,33.37"
				/>
		</g>
	</g>
	<path class="st132" d="M11.85,32.13l2.6-10.14l-2.04,10.27L11.85,32.13z"/>
	<path class="st132" d="M15.38,33.35l2.31-12.7l-1.73,12.79L15.38,33.35z"/>
	<path class="st132" d="M24.8,33.73l-0.26-15.25l0.84,15.23L24.8,33.73z"/>
	<path class="st132" d="M30.14,33.36l0.46-14.88l0.12,14.88L30.14,33.36z"/>
	<path class="st132" d="M19.85,35.25l0.29-12.78l0.29,12.78H19.85z"/>
	<path class="st5" d="M39.66,33.73l-1.24-12.19l3.04,11.57l-1.56,0.09L39.66,33.73"/>
	<path class="st132" d="M39.72,34.33l-0.06-0.59l0.24-0.53l1.56-0.09l0.07,0.29l-1.44,0.08L39.72,34.33"/>
	<path class="st5" d="M43.2,31.88l-2.52-11.09l3.67,10.85L43.2,31.88"/>
	<path class="st132" d="M43.29,32.27l-0.09-0.38l1.15-0.24l0.09,0.27L43.29,32.27"/>
	<path class="st132" d="M34.69,34.62l0.1-14.57l0.48,14.56L34.69,34.62z"/>
	<path class="st132" d="M39.69,33.76l-1.71-15.62l2.29,15.54L39.69,33.76z"/>
	<path class="st132" d="M42.89,32.53l-2.37-12.49l2.94,12.36L42.89,32.53z"/>
	<g>
		<defs>
			<rect id="SVGID_00000066487111397966072130000011254598111141546916_" x="13.82" y="13.77" width="26.84" height="5.08"/>
		</defs>
		<clipPath id="SVGID_00000152950246798683718440000000334875921410146494_">
			<use xlink:href="#SVGID_00000066487111397966072130000011254598111141546916_"  style="overflow:visible;"/>
		</clipPath>
		<g style="clip-path:url(#SVGID_00000152950246798683718440000000334875921410146494_);">
			<path class="st5" d="M39.84,15.9c0,1.04-5.68,1.88-12.69,1.88s-12.69-0.84-12.69-1.88s5.68-1.87,12.69-1.87
				S39.84,14.86,39.84,15.9"/>
			<path class="st132" d="M27.15,14.24c-7.61,0-12.47,0.98-12.47,1.66c0,0.68,4.86,1.66,12.47,1.66s12.47-0.98,12.47-1.66
				C39.62,15.22,34.76,14.24,27.15,14.24z M27.15,17.99c-5.19,0-12.91-0.56-12.91-2.1c0-1.53,7.72-2.09,12.91-2.09
				c5.19,0,12.92,0.56,12.92,2.09C40.06,17.43,32.34,17.99,27.15,17.99"/>
		</g>
	</g>
</g>
</svg>
