<?xml version="1.0" encoding="utf-8"?>
<!-- Generator: Adobe Illustrator 27.3.1, SVG Export Plug-In . SVG Version: 6.00 Build 0)  -->
<svg version="1.1" id="Layer_1" xmlns="http://www.w3.org/2000/svg" xmlns:xlink="http://www.w3.org/1999/xlink" x="0px" y="0px"
	 viewBox="0 0 50 50" style="enable-background:new 0 0 50 50;" xml:space="preserve">
<style type="text/css">
	.st0{fill:none;}
	.st1{stroke:#000000;stroke-miterlimit:10;}
	.st2{stroke:#000000;stroke-width:0.75;stroke-miterlimit:10;}
	.st3{clip-path:url(#SVGID_00000066511544447421366140000018073616052183513232_);}
	.st4{clip-path:url(#SVGID_00000008858685915343332650000004045363193165001130_);}
	.st5{fill:#FFFFFF;}
	.st6{clip-path:url(#SVGID_00000116229693486636347710000014946700560640114822_);}
	.st7{fill:#231F20;}
	.st8{clip-path:url(#SVGID_00000036212425284971905850000012211759227037907386_);}
	.st9{clip-path:url(#SVGID_00000026873034083209071590000006251387781263351425_);}
	.st10{clip-path:url(#SVGID_00000059269123166868849710000008278368489996409278_);}
	.st11{clip-path:url(#SVGID_00000162349951523518102840000012969072555770502840_);}
	.st12{clip-path:url(#SVGID_00000059991152129378247790000010304792875002705833_);}
	.st13{clip-path:url(#SVGID_00000067224466942755983710000003109894788283330737_);}
	.st14{clip-path:url(#SVGID_00000106850004946551324940000012613052774301075633_);}
	.st15{clip-path:url(#SVGID_00000171697693362305958130000015106546449498706608_);}
	.st16{clip-path:url(#SVGID_00000066479619479259364890000014212467370728444073_);}
	.st17{clip-path:url(#SVGID_00000005232148345230971870000000456828004246251686_);}
	.st18{clip-path:url(#SVGID_00000173869106556002592490000008203927158861151144_);}
	.st19{clip-path:url(#SVGID_00000014610269334478595870000017308938594949399171_);}
	.st20{clip-path:url(#SVGID_00000031202570462554418900000010931023682017394308_);}
	.st21{clip-path:url(#SVGID_00000083064437403740270100000004538139607380479413_);}
	.st22{clip-path:url(#SVGID_00000101062216943958709110000007776964648496647562_);}
	.st23{clip-path:url(#SVGID_00000161597470047657027670000015559467319057882538_);}
	.st24{clip-path:url(#SVGID_00000034070430158975823000000017276103178071983034_);}
	.st25{clip-path:url(#SVGID_00000065784294132680224910000014264667587097457801_);}
	.st26{clip-path:url(#SVGID_00000158708623294097427360000014714602402951028369_);}
	.st27{clip-path:url(#SVGID_00000093158663799954259960000012872648945218744994_);}
	.st28{clip-path:url(#SVGID_00000076585413354394711890000011431212586832082879_);}
	.st29{clip-path:url(#SVGID_00000092439035623528967390000018317574726596443293_);}
	.st30{clip-path:url(#SVGID_00000181792974899121376930000015761939478773353652_);}
	.st31{fill-rule:evenodd;clip-rule:evenodd;}
	.st32{clip-path:url(#SVGID_00000114762065953710028770000008785338900136963223_);}
	.st33{clip-path:url(#SVGID_00000183967788016941733080000014061385444354281662_);}
	.st34{stroke:#000000;stroke-width:0.5;stroke-miterlimit:10;}
	.st35{clip-path:url(#SVGID_00000068678159913891455100000002151198095031330950_);}
	.st36{clip-path:url(#SVGID_00000181807290173348563430000007470865145844648072_);}
	.st37{clip-path:url(#SVGID_00000014620299392098078190000012616266577109337482_);}
	.st38{fill:#1A1A1A;}
	.st39{clip-path:url(#SVGID_00000066511467574790040990000013010141002777485965_);}
	.st40{clip-path:url(#SVGID_00000070839603063485441420000004779375223680486550_);}
	.st41{clip-path:url(#SVGID_00000143602955700278708150000012474621573684892082_);}
	.st42{clip-path:url(#SVGID_00000124858132267162687200000007280056204872770465_);}
	.st43{clip-path:url(#SVGID_00000034805761368644588570000012010436762117491860_);}
	.st44{clip-path:url(#SVGID_00000164502909614330464270000004406972470860119223_);}
	.st45{clip-path:url(#SVGID_00000170278686375094530450000003098899318864334771_);}
	.st46{clip-path:url(#SVGID_00000073680638653621116930000009249201091908045215_);}
	.st47{clip-path:url(#SVGID_00000062163786172435591110000010113946081051737503_);}
	.st48{fill:#F1F1F1;}
	.st49{fill:#E8E8E8;}
	.st50{fill:#FEFEFE;}
	.st51{fill:#CCCCCC;}
	.st52{fill:#B3B3B3;}
	.st53{fill:#E6E6E6;}
	.st54{fill:#EBEBEB;}
	.st55{fill:#EEEEEE;}
	.st56{fill:#F8F8F8;}
	.st57{fill:#FBFBFB;}
	.st58{fill:#383838;}
	.st59{fill:#232323;}
	.st60{fill:#F6F6F6;}
	.st61{fill:#535353;}
	.st62{fill:#0A0A0A;}
	.st63{fill:#F5F5F5;}
	.st64{fill:#818181;}
	.st65{fill:#4A4A4A;}
	.st66{fill:#999999;}
	.st67{fill:url(#SVGID_00000152952286273805133590000010307249003581260471_);}
	.st68{fill:url(#SVGID_00000053532551634961436940000001305750927332279986_);}
	.st69{fill:#0E0E0D;}
	.st70{fill:#333333;}
	.st71{fill:#808080;}
	.st72{fill:url(#SVGID_00000161591145390061937130000012470667311401783169_);}
	.st73{fill:#666666;}
	.st74{fill:url(#SVGID_00000096033752447643034740000017672096742214257061_);}
	.st75{fill:url(#SVGID_00000083772785561168297240000008312656592667824048_);}
	.st76{fill:url(#SVGID_00000027605642650472466350000009461612651938595245_);}
	.st77{fill:url(#SVGID_00000101810023284984136360000000131961659616867999_);}
	.st78{fill:url(#SVGID_00000008868516012925791930000001192014050063231893_);}
	.st79{clip-path:url(#SVGID_00000068650716934480259450000002329732989944355995_);}
	.st80{clip-path:url(#SVGID_00000090287787874966726610000016637024160720058540_);}
	.st81{clip-path:url(#SVGID_00000000919598387070065400000009560776313850120607_);}
	.st82{clip-path:url(#SVGID_00000056414620958670027310000005708880684875187125_);}
	.st83{clip-path:url(#SVGID_00000022528195306196543730000018089143206699207095_);}
	.st84{fill:#241F20;stroke:#000000;stroke-width:0.5;stroke-miterlimit:10;}
	.st85{clip-path:url(#SVGID_00000099641749514293496960000013753547312969027725_);}
	.st86{clip-path:url(#SVGID_00000093890964286487317610000017475696665568466072_);}
	.st87{clip-path:url(#SVGID_00000039126743902378798760000003584859357714435207_);}
	.st88{clip-path:url(#SVGID_00000063631866652243165990000001114602909511010947_);}
	.st89{clip-path:url(#SVGID_00000044135745110086304510000012758895023180499601_);}
	.st90{clip-path:url(#SVGID_00000118391489687342173320000001066463726992745916_);}
	.st91{clip-path:url(#SVGID_00000080907838130518076560000009513060630778604973_);}
	.st92{clip-path:url(#SVGID_00000075131019345172536820000008443680160688881035_);}
	.st93{clip-path:url(#SVGID_00000032622207128610628710000012310445540796890287_);}
	.st94{clip-path:url(#SVGID_00000183929123924368050350000000853016313314306239_);}
	.st95{clip-path:url(#SVGID_00000169545946163583685110000017775177972971443113_);}
	.st96{clip-path:url(#SVGID_00000116918132670101681840000011264530680862055860_);}
	.st97{clip-path:url(#SVGID_00000149378036723626606940000005755180832322477212_);}
	.st98{clip-path:url(#SVGID_00000105394613958338389420000016145067008900454798_);}
	.st99{clip-path:url(#SVGID_00000150076208011876948080000010195021960652268968_);}
	.st100{clip-path:url(#SVGID_00000044171389714918975920000010716594229051849352_);}
	.st101{clip-path:url(#SVGID_00000033353689383358489800000016880004535691053215_);}
	.st102{clip-path:url(#SVGID_00000106115191936981869020000000870809730717424033_);}
	.st103{clip-path:url(#SVGID_00000123425347083750656890000006531831298637504701_);}
	.st104{clip-path:url(#SVGID_00000122702307295421936660000003985290384981758888_);}
	.st105{clip-path:url(#SVGID_00000137847795623846904860000016448445254684222394_);}
	.st106{clip-path:url(#SVGID_00000048502242159882500680000015003406028325395103_);}
	.st107{clip-path:url(#SVGID_00000083781037436760940810000002776394085965261454_);}
	.st108{clip-path:url(#SVGID_00000160169324466423143060000013200124989105047470_);}
	.st109{clip-path:url(#SVGID_00000124847982169884223700000017064843898617528228_);}
	.st110{clip-path:url(#SVGID_00000085224605595156735950000000499792837474972310_);}
	.st111{clip-path:url(#SVGID_00000049179733389669771930000001813597926267539847_);}
	.st112{clip-path:url(#SVGID_00000017477927770006273760000014313453632944355735_);}
	.st113{clip-path:url(#SVGID_00000111160682841154074900000000212835371611197577_);}
	.st114{clip-path:url(#SVGID_00000030447142574589389700000014338415703068679089_);}
	.st115{fill:#FFFFFF;stroke:#000000;stroke-miterlimit:10;}
	.st116{clip-path:url(#SVGID_00000005953788625337151400000008649795631221080721_);}
	.st117{clip-path:url(#SVGID_00000151508511405945333590000016970771498614477710_);}
	.st118{fill:none;stroke:#010101;stroke-miterlimit:10;}
	.st119{fill:#010101;stroke:#000000;stroke-miterlimit:10;}
	.st120{clip-path:url(#SVGID_00000016070605733694928600000006675116666460121022_);}
	.st121{fill:#010101;stroke:#010101;stroke-miterlimit:10;}
	.st122{clip-path:url(#SVGID_00000054257737027641496350000014985569613510036666_);}
	.st123{clip-path:url(#SVGID_00000142867774413320482260000015816659493422805382_);}
	.st124{clip-path:url(#SVGID_00000000934118570131003960000013240554297455697041_);}
	.st125{clip-path:url(#SVGID_00000068641587508359620470000003647833343697552265_);}
	.st126{clip-path:url(#SVGID_00000121986595814492379350000008163655363623541948_);}
	.st127{fill:none;stroke:#000000;stroke-width:3;stroke-miterlimit:10;}
	.st128{clip-path:url(#SVGID_00000167373954147723935590000010782576202544594581_);}
	.st129{clip-path:url(#SVGID_00000018211402835311202840000008862767956799384250_);}
	.st130{clip-path:url(#SVGID_00000134961427623551862460000007472003695461072011_);}
	.st131{clip-path:url(#SVGID_00000163071278536166743470000006656140528328228995_);}
	.st132{fill:#040606;}
	.st133{clip-path:url(#SVGID_00000013905208701979936190000016597626044240286592_);}
	.st134{clip-path:url(#SVGID_00000160181667837909006460000007986991045923351727_);}
	.st135{clip-path:url(#SVGID_00000160893098364963930370000016682670192615526578_);}
	.st136{clip-path:url(#SVGID_00000059291218533056607060000005521435334289438112_);}
	.st137{clip-path:url(#SVGID_00000063601569825125334050000011599072454663072678_);}
	.st138{clip-path:url(#SVGID_00000158735093281381637900000014379059653009676684_);}
	.st139{clip-path:url(#SVGID_00000157285234259657796610000011247586566377889446_);}
	.st140{fill:#FFFFFF;stroke:#000000;stroke-width:1.5;stroke-miterlimit:10;}
	.st141{clip-path:url(#SVGID_00000018915560283478940280000014937927130539547827_);}
	.st142{fill:#BDBCBC;}
	.st143{clip-path:url(#SVGID_00000074420842553069769480000015545963059580294273_);}
	.st144{fill:#2E2A2B;}
	.st145{clip-path:url(#SVGID_00000012447130775861214510000009803047500397909944_);}
	.st146{clip-path:url(#SVGID_00000159452195896099318120000014859902455943713413_);}
	.st147{clip-path:url(#SVGID_00000120532388680271964430000005430115963227452346_);}
	.st148{clip-path:url(#SVGID_00000039092213819038244840000014718783716138708115_);}
	.st149{clip-path:url(#SVGID_00000063594120455909595930000007536158775996516530_);}
	.st150{fill:#272324;}
	.st151{clip-path:url(#SVGID_00000002382440505695477850000010446306115765534901_);}
	.st152{clip-path:url(#SVGID_00000091723354238603282550000003692254446110938540_);}
	.st153{clip-path:url(#SVGID_00000031899491381788181360000000245603650297426568_);}
	.st154{clip-path:url(#SVGID_00000016039530750682071160000009840558324203729309_);}
	.st155{clip-path:url(#SVGID_00000008859584534495876490000003222563708427443854_);}
	.st156{clip-path:url(#SVGID_00000048484293106705981740000013419047701181798281_);}
	.st157{fill:none;stroke:#000000;stroke-width:0.8735;stroke-linecap:round;stroke-linejoin:round;stroke-miterlimit:10;}
	.st158{clip-path:url(#SVGID_00000127727650674310893370000015668857846437309623_);}
	.st159{clip-path:url(#SVGID_00000171722032253723482930000002451620157474471811_);}
	.st160{clip-path:url(#SVGID_00000005988362558517001810000003630511540452516224_);}
	.st161{clip-path:url(#SVGID_00000090287775131566914850000014808335776912334738_);}
	.st162{clip-path:url(#SVGID_00000111190679896651485870000012736214752153813657_);}
	.st163{clip-path:url(#SVGID_00000104690920163032371580000000338041935148251823_);}
	.st164{clip-path:url(#SVGID_00000044154269901543285370000008576564508033466047_);}
	.st165{clip-path:url(#SVGID_00000172434925083541694010000007761312639243694755_);}
	.st166{clip-path:url(#SVGID_00000140694215376718046840000017044949136575072898_);}
	.st167{clip-path:url(#SVGID_00000008850172598499749300000006637545132978381230_);}
	.st168{clip-path:url(#SVGID_00000075879216445331757070000004527013635511066014_);}
	.st169{clip-path:url(#SVGID_00000163058873413040955900000004607517431270982312_);}
	.st170{clip-path:url(#SVGID_00000171682436474911337660000008844590656913732789_);}
	.st171{clip-path:url(#SVGID_00000098941353009595798620000004149702181091178120_);}
	.st172{clip-path:url(#SVGID_00000105426499841835698150000012921422453918879935_);}
	.st173{clip-path:url(#SVGID_00000058591741730227182160000016102956699985133706_);}
	.st174{clip-path:url(#SVGID_00000002358887968706394920000008929139103178412457_);}
	.st175{clip-path:url(#SVGID_00000082367835240958069710000004494112189899316905_);}
	.st176{clip-path:url(#SVGID_00000062182875952719581360000002479192560695615404_);}
	.st177{clip-path:url(#SVGID_00000131331453683551568470000012146367019756650423_);}
	.st178{clip-path:url(#SVGID_00000176742313040062557540000007807422184109780635_);}
	.st179{clip-path:url(#SVGID_00000169535106275613987500000010050240783990831511_);}
	.st180{clip-path:url(#SVGID_00000064324946870323730320000002650205309402051509_);}
	.st181{clip-path:url(#SVGID_00000042736513989029314270000015059635827834900890_);}
	.st182{clip-path:url(#SVGID_00000174592002999831685100000014167648104345820070_);}
	.st183{clip-path:url(#SVGID_00000117636912934592388200000000825423275365228960_);}
	.st184{clip-path:url(#SVGID_00000109745327556338682310000000537779009038114956_);}
	.st185{clip-path:url(#SVGID_00000132789433464006815280000007344265304683293086_);}
	.st186{clip-path:url(#SVGID_00000026854338112752818200000015133419237659520933_);}
	.st187{clip-path:url(#SVGID_00000124860261414707368430000004995546910111906695_);}
	.st188{clip-path:url(#SVGID_00000163759337649362771030000016697638397695120549_);}
	.st189{clip-path:url(#SVGID_00000160898992722323880970000000931158865476984995_);}
	.st190{clip-path:url(#SVGID_00000181047173915864489290000001792204535302998966_);}
	.st191{clip-path:url(#SVGID_00000150085669210850608780000011904602898299533966_);}
	.st192{clip-path:url(#SVGID_00000153696265509269536390000007925957697501191299_);}
	.st193{clip-path:url(#SVGID_00000056429848832832561220000009094975476676276670_);}
	.st194{clip-path:url(#SVGID_00000139996459593679598500000000963551361123632044_);}
	.st195{clip-path:url(#SVGID_00000045615220934918316850000003738065483600621219_);}
	.st196{fill:#E5E5E5;}
	.st197{fill:#1D1D1B;}
	.st198{fill:none;stroke:#000000;stroke-miterlimit:10;}
	.st199{fill:#FEFEFE;stroke:#000000;stroke-miterlimit:10;}
	.st200{clip-path:url(#SVGID_00000134965844927926860550000018235335115724209794_);}
	.st201{clip-path:url(#SVGID_00000148659075602717779350000015347050885101135288_);}
	.st202{clip-path:url(#SVGID_00000074441014242058865010000013139412341355850420_);}
	.st203{fill:#231F1F;}
	.st204{fill:#020000;}
	.st205{clip-path:url(#SVGID_00000053524439321080983060000005065790652235723404_);}
	.st206{clip-path:url(#SVGID_00000044876034636556082390000016210496923782540691_);}
	.st207{clip-path:url(#SVGID_00000140723386173997704090000011420068959622392747_);}
	.st208{clip-path:url(#SVGID_00000162328619429911382900000014473712548247075462_);}
	.st209{fill:#050000;}
	.st210{clip-path:url(#SVGID_00000041999120767740150680000005952485391381031103_);}
	.st211{clip-path:url(#SVGID_00000176751232906367372320000013629131417001651602_);}
	.st212{clip-path:url(#SVGID_00000166651260490840340750000002432671019349341625_);}
	.st213{clip-path:url(#SVGID_00000041976731169446103680000004872812528590399898_);}
	.st214{clip-path:url(#SVGID_00000104669022116523293260000015395842409241174438_);}
	.st215{clip-path:url(#SVGID_00000081628722393806793910000014701707213963162290_);}
	.st216{fill:#12100F;}
	.st217{clip-path:url(#SVGID_00000129184989180367329180000002890806975723654822_);}
	.st218{clip-path:url(#SVGID_00000123421041905281192700000018270991779904844986_);}
	.st219{fill:none;stroke:#000000;stroke-width:0.5;stroke-miterlimit:10;}
	.st220{clip-path:url(#SVGID_00000110444551437302112110000006985463732058699925_);}
	.st221{clip-path:url(#SVGID_00000049197042493228444760000008012105408789713068_);}
	.st222{clip-path:url(#SVGID_00000165939843463242515980000010097794287604462214_);}
	.st223{clip-path:url(#SVGID_00000053529689022547007160000000223065657272934551_);}
	.st224{fill:none;stroke:#000000;stroke-width:0.25;stroke-miterlimit:10;}
	.st225{clip-path:url(#SVGID_00000006681411732171743100000016952270357668814257_);}
	.st226{clip-path:url(#SVGID_00000178914100664201504750000005899610808671210388_);}
	.st227{clip-path:url(#SVGID_00000093870348586220608700000010849155764868977030_);}
</style>
<g>
	<path class="st31" d="M18.4,19.26h-6.6c-0.91,0-1.65-0.75-1.65-1.66c0-0.92,0.74-1.66,1.65-1.66h6.47c0.19,0,0.35,0.16,0.35,0.35
		c0,0.2-0.16,0.35-0.35,0.35H11.8c-0.52,0-0.95,0.43-0.95,0.95c0,0.52,0.43,0.95,0.95,0.95h6.6c0.2,0,0.35,0.16,0.35,0.35
		C18.75,19.1,18.6,19.26,18.4,19.26z M36.28,19.26h-1.79c-0.2,0-0.35-0.16-0.35-0.35s0.16-0.35,0.35-0.35h1.79
		c0.52,0,0.95-0.43,0.95-0.95c0-0.53-0.43-0.95-0.95-0.95h-2.85c-0.19,0-0.35-0.16-0.35-0.35s0.16-0.35,0.35-0.35h2.85
		c0.91,0,1.65,0.74,1.65,1.66C37.93,18.52,37.19,19.26,36.28,19.26z"/>
	<g>
		<defs>
			<rect id="SVGID_00000059294541902304842930000016367283241744201918_" x="7.93" y="14.83" width="5.04" height="5.37"/>
		</defs>
		<clipPath id="SVGID_00000128475821463800338550000008541056015414101633_">
			<use xlink:href="#SVGID_00000059294541902304842930000016367283241744201918_"  style="overflow:visible;"/>
		</clipPath>
		<g style="clip-path:url(#SVGID_00000128475821463800338550000008541056015414101633_);">
			<path class="st31" d="M10.53,20.19c-0.27,0-0.55-0.04-0.83-0.13c-1.08-0.35-1.78-1.31-1.78-2.45c0-1.14,0.7-2.1,1.78-2.45
				c1.09-0.35,2.22,0.02,2.89,0.94c0.11,0.16,0.08,0.38-0.08,0.49s-0.38,0.08-0.49-0.08c-0.48-0.67-1.31-0.94-2.1-0.68
				c-0.62,0.2-1.29,0.78-1.29,1.78c0,1,0.67,1.58,1.29,1.78c0.79,0.26,1.62-0.01,2.1-0.68c0.11-0.16,0.33-0.19,0.49-0.08
				s0.19,0.33,0.08,0.49C12.1,19.81,11.34,20.19,10.53,20.19z"/>
		</g>
	</g>
	<path class="st31" d="M37.55,20.19c-0.81,0-1.57-0.38-2.06-1.07c-0.11-0.16-0.08-0.38,0.08-0.49c0.16-0.11,0.38-0.08,0.49,0.08
		c0.48,0.67,1.31,0.94,2.1,0.68c0.63-0.2,1.29-0.78,1.29-1.78c0-1-0.67-1.58-1.29-1.78c-0.79-0.26-1.62,0.01-2.1,0.68
		c-0.11,0.16-0.33,0.19-0.49,0.08c-0.16-0.11-0.19-0.34-0.08-0.49c0.67-0.93,1.8-1.29,2.89-0.94c1.08,0.35,1.78,1.31,1.78,2.45
		c0,1.14-0.7,2.1-1.78,2.45C38.1,20.14,37.83,20.19,37.55,20.19z"/>
	<g>
		<defs>
			<rect id="SVGID_00000116932596442140919180000000160067145797459380_" x="15.32" y="14.51" width="19.81" height="28.96"/>
		</defs>
		<clipPath id="SVGID_00000011008968392685467220000008601695310505291648_">
			<use xlink:href="#SVGID_00000116932596442140919180000000160067145797459380_"  style="overflow:visible;"/>
		</clipPath>
		<g style="clip-path:url(#SVGID_00000011008968392685467220000008601695310505291648_);">
			<path class="st31" d="M18.75,42.74h15.38V18.83c0-2-1.89-3.62-4.21-3.62H17.93c0.51,0.44,0.82,1.06,0.82,1.74V42.74z
				 M34.49,43.45H18.4c-0.19,0-0.35-0.16-0.35-0.35V16.95c0-0.96-0.92-1.74-2.05-1.74c-0.19,0-0.35-0.16-0.35-0.35
				c0-0.2,0.16-0.35,0.35-0.35h13.93c2.71,0,4.91,1.94,4.91,4.33v24.26C34.84,43.29,34.68,43.45,34.49,43.45z"/>
		</g>
	</g>
	<g>
		<defs>
			<rect id="SVGID_00000067221120007102779620000005695544966952429999_" x="12.97" y="14.51" width="6.04" height="26.85"/>
		</defs>
		<clipPath id="SVGID_00000097458268833984929920000008586995347055431573_">
			<use xlink:href="#SVGID_00000067221120007102779620000005695544966952429999_"  style="overflow:visible;"/>
		</clipPath>
		<g style="clip-path:url(#SVGID_00000097458268833984929920000008586995347055431573_);">
			<path class="st31" d="M13.8,16.65c-0.05,0-0.1-0.01-0.14-0.03c-0.18-0.08-0.26-0.29-0.18-0.47c0.45-1,1.43-1.64,2.52-1.64
				c0.19,0,0.35,0.16,0.35,0.35c0,0.19-0.16,0.35-0.35,0.35c-0.81,0-1.54,0.48-1.87,1.22C14.07,16.57,13.94,16.65,13.8,16.65z
				 M18.4,41.19h-4.81c-0.19,0-0.35-0.16-0.35-0.35V18.91c0-0.2,0.16-0.35,0.35-0.35c0.19,0,0.35,0.16,0.35,0.35v21.58h4.46
				c0.2,0,0.35,0.16,0.35,0.35C18.75,41.03,18.6,41.19,18.4,41.19z"/>
		</g>
	</g>
	<path class="st31" d="M32.48,35.02c-0.39,0-0.76-0.13-1.12-0.25c-0.32-0.11-0.62-0.21-0.89-0.21c-0.28,0-0.58,0.1-0.89,0.21
		c-0.36,0.12-0.72,0.25-1.12,0.25c-0.39,0-0.76-0.13-1.12-0.25c-0.32-0.11-0.62-0.21-0.89-0.21s-0.58,0.1-0.89,0.21
		c-0.36,0.12-0.73,0.25-1.12,0.25c-0.39,0-0.76-0.13-1.12-0.25c-0.32-0.11-0.62-0.21-0.89-0.21c-0.28,0-0.58,0.1-0.89,0.21
		c-0.36,0.12-0.73,0.25-1.12,0.25c-0.39,0-0.76-0.13-1.12-0.25c-0.32-0.11-0.62-0.21-0.89-0.21c-0.19,0-0.35-0.16-0.35-0.35
		s0.16-0.35,0.35-0.35c0.39,0,0.76,0.13,1.12,0.25c0.32,0.11,0.62,0.21,0.89,0.21c0.28,0,0.58-0.1,0.89-0.21
		c0.36-0.12,0.73-0.25,1.12-0.25c0.39,0,0.76,0.13,1.12,0.25c0.32,0.11,0.62,0.21,0.89,0.21c0.28,0,0.58-0.1,0.89-0.21
		c0.36-0.12,0.73-0.25,1.12-0.25c0.39,0,0.76,0.13,1.12,0.25c0.32,0.11,0.62,0.21,0.89,0.21c0.28,0,0.58-0.1,0.89-0.21
		c0.36-0.12,0.72-0.25,1.12-0.25c0.39,0,0.76,0.13,1.12,0.25c0.32,0.11,0.62,0.21,0.89,0.21c0.28,0,0.58-0.1,0.89-0.21
		c0.36-0.12,0.72-0.25,1.12-0.25c0.2,0,0.35,0.16,0.35,0.35s-0.16,0.35-0.35,0.35c-0.28,0-0.58,0.1-0.89,0.21
		C33.24,34.89,32.87,35.02,32.48,35.02z"/>
	<path class="st31" d="M32.48,39.2c-0.39,0-0.76-0.12-1.12-0.25c-0.32-0.11-0.62-0.21-0.89-0.21c-0.28,0-0.58,0.1-0.89,0.21
		c-0.36,0.12-0.72,0.25-1.12,0.25c-0.39,0-0.76-0.13-1.12-0.25c-0.32-0.11-0.62-0.21-0.89-0.21s-0.58,0.1-0.89,0.21
		c-0.36,0.12-0.73,0.25-1.12,0.25c-0.39,0-0.76-0.13-1.12-0.25c-0.32-0.11-0.62-0.21-0.89-0.21c-0.28,0-0.58,0.1-0.89,0.21
		c-0.36,0.12-0.73,0.25-1.12,0.25c-0.39,0-0.76-0.13-1.12-0.25c-0.32-0.11-0.62-0.21-0.89-0.21c-0.19,0-0.35-0.16-0.35-0.35
		c0-0.2,0.16-0.35,0.35-0.35c0.39,0,0.76,0.13,1.12,0.25c0.32,0.11,0.62,0.21,0.89,0.21c0.28,0,0.58-0.1,0.89-0.21
		c0.36-0.12,0.73-0.25,1.12-0.25c0.39,0,0.76,0.13,1.12,0.25c0.32,0.11,0.62,0.21,0.89,0.21c0.28,0,0.58-0.1,0.89-0.21
		c0.36-0.12,0.73-0.25,1.12-0.25c0.39,0,0.76,0.13,1.12,0.25c0.32,0.11,0.62,0.21,0.89,0.21c0.28,0,0.58-0.1,0.89-0.21
		c0.36-0.12,0.72-0.25,1.12-0.25c0.39,0,0.76,0.13,1.12,0.25c0.32,0.11,0.62,0.21,0.89,0.21c0.28,0,0.58-0.1,0.89-0.21
		c0.36-0.12,0.72-0.25,1.12-0.25c0.2,0,0.35,0.16,0.35,0.35c0,0.19-0.16,0.35-0.35,0.35c-0.28,0-0.58,0.1-0.89,0.21
		C33.24,39.08,32.87,39.21,32.48,39.2z"/>
</g>
</svg>
