<?xml version="1.0" encoding="utf-8"?>
<!-- Generator: Adobe Illustrator 27.3.1, SVG Export Plug-In . SVG Version: 6.00 Build 0)  -->
<svg version="1.1" id="Layer_1" xmlns="http://www.w3.org/2000/svg" xmlns:xlink="http://www.w3.org/1999/xlink" x="0px" y="0px"
	 viewBox="0 0 50 50" style="enable-background:new 0 0 50 50;" xml:space="preserve">
<style type="text/css">
	.st0{fill:none;}
	.st1{stroke:#000000;stroke-miterlimit:10;}
	.st2{stroke:#000000;stroke-width:0.75;stroke-miterlimit:10;}
	.st3{clip-path:url(#SVGID_00000042703885596738714940000009578554525184721586_);}
	.st4{clip-path:url(#SVGID_00000176009839576877893160000015082257973855761837_);}
	.st5{fill:#FFFFFF;}
	.st6{clip-path:url(#SVGID_00000076579364331910259410000002677686341422213774_);}
	.st7{fill:#231F20;}
	.st8{clip-path:url(#SVGID_00000009547771780152585450000010622848640164937119_);}
	.st9{clip-path:url(#SVGID_00000089543122262636252840000016525323545875079820_);}
	.st10{clip-path:url(#SVGID_00000125567363386822964810000008737141399221301664_);}
	.st11{clip-path:url(#SVGID_00000043453374467382377590000004934016444001338504_);}
	.st12{clip-path:url(#SVGID_00000055670780479237777530000012392628044048888197_);}
	.st13{clip-path:url(#SVGID_00000051373299293707264420000014955985161609434526_);}
	.st14{clip-path:url(#SVGID_00000008149220698831863400000008725602689461610394_);}
	.st15{clip-path:url(#SVGID_00000013888282005346851350000014182060962005375621_);}
	.st16{clip-path:url(#SVGID_00000073681097633455417730000018097283645605885352_);}
	.st17{clip-path:url(#SVGID_00000118375104851717042610000003567260027210522784_);}
	.st18{clip-path:url(#SVGID_00000125566755926005280780000017247160246531288471_);}
	.st19{clip-path:url(#SVGID_00000172429713284417957960000005559513002246570939_);}
	.st20{clip-path:url(#SVGID_00000160879814196470820910000006049472204176441274_);}
	.st21{clip-path:url(#SVGID_00000038382814387712446500000000431582068271000995_);}
	.st22{clip-path:url(#SVGID_00000164509883632055510650000000399570778609732002_);}
	.st23{clip-path:url(#SVGID_00000125564613473416051490000016166491735166969238_);}
	.st24{clip-path:url(#SVGID_00000132070734021726600510000001066916377511761804_);}
	.st25{clip-path:url(#SVGID_00000127046247761257277050000015412069908971342474_);}
	.st26{clip-path:url(#SVGID_00000071545191338984604360000006614704416987500712_);}
	.st27{clip-path:url(#SVGID_00000065791668265914886860000002360121223002606782_);}
	.st28{clip-path:url(#SVGID_00000143578598824621013640000014585826176162751412_);}
	.st29{clip-path:url(#SVGID_00000052789071953058295310000012040178167577773494_);}
	.st30{clip-path:url(#SVGID_00000015352385151078678750000008666150339381266077_);}
	.st31{fill-rule:evenodd;clip-rule:evenodd;}
	.st32{clip-path:url(#SVGID_00000081623154919802491750000016698967860225536137_);}
	.st33{clip-path:url(#SVGID_00000041974165806498656840000010045125654873100689_);}
	.st34{stroke:#000000;stroke-width:0.5;stroke-miterlimit:10;}
	.st35{clip-path:url(#SVGID_00000076592652135045815030000002075299542369779864_);}
	.st36{clip-path:url(#SVGID_00000168089354208431897060000017436563440148456885_);}
	.st37{clip-path:url(#SVGID_00000032640162146175980620000010116505312134497413_);}
	.st38{fill:#1A1A1A;}
	.st39{clip-path:url(#SVGID_00000104701535155650386760000008813140392188018837_);}
	.st40{clip-path:url(#SVGID_00000044175043274278753090000003986752130967824007_);}
	.st41{clip-path:url(#SVGID_00000160869622134327410390000011228729649533877151_);}
	.st42{clip-path:url(#SVGID_00000178919784709535992230000012777177363404587678_);}
	.st43{clip-path:url(#SVGID_00000080929506132743571060000000569589825200719013_);}
	.st44{clip-path:url(#SVGID_00000134214043544720391810000004388251647776142980_);}
	.st45{clip-path:url(#SVGID_00000116920911358766708230000002373671817954848398_);}
	.st46{clip-path:url(#SVGID_00000021109477901140505580000001220312379417314705_);}
	.st47{clip-path:url(#SVGID_00000075854074604752025610000005141585549892414860_);}
	.st48{fill:#F1F1F1;}
	.st49{fill:#E8E8E8;}
	.st50{fill:#FEFEFE;}
	.st51{fill:#CCCCCC;}
	.st52{fill:#B3B3B3;}
	.st53{fill:#E6E6E6;}
	.st54{fill:#EBEBEB;}
	.st55{fill:#EEEEEE;}
	.st56{fill:#F8F8F8;}
	.st57{fill:#FBFBFB;}
	.st58{fill:#383838;}
	.st59{fill:#232323;}
	.st60{fill:#F6F6F6;}
	.st61{fill:#535353;}
	.st62{fill:#0A0A0A;}
	.st63{fill:#F5F5F5;}
	.st64{fill:#818181;}
	.st65{fill:#4A4A4A;}
	.st66{fill:#999999;}
	.st67{fill:url(#SVGID_00000039822317607380932210000008660674988083920541_);}
	.st68{fill:url(#SVGID_00000116233372710165824720000000863337491215730569_);}
	.st69{fill:#0E0E0D;}
	.st70{fill:#333333;}
	.st71{fill:#808080;}
	.st72{fill:url(#SVGID_00000077326791775935797720000004835468119014348976_);}
	.st73{fill:#666666;}
	.st74{fill:url(#SVGID_00000049920065879213094010000001724775221015853967_);}
	.st75{fill:url(#SVGID_00000177475257550113973740000013192739796038977413_);}
	.st76{fill:url(#SVGID_00000026870543016940034410000007595809097989648555_);}
	.st77{fill:url(#SVGID_00000090986382030563067200000014892876462130432919_);}
	.st78{fill:url(#SVGID_00000026856576598232837380000010114138196439435916_);}
	.st79{clip-path:url(#SVGID_00000124842216590877374250000013452532214746673594_);}
	.st80{clip-path:url(#SVGID_00000086651022836340080590000006449183140413170610_);}
	.st81{clip-path:url(#SVGID_00000142890306094627336540000007488610054609698201_);}
	.st82{clip-path:url(#SVGID_00000112621538919571348040000011836929972735337872_);}
	.st83{clip-path:url(#SVGID_00000113325407832509489780000009094998643738741182_);}
	.st84{fill:#241F20;stroke:#000000;stroke-width:0.5;stroke-miterlimit:10;}
	.st85{clip-path:url(#SVGID_00000080182764931857689180000004935029083036169659_);}
	.st86{clip-path:url(#SVGID_00000025405142543036525350000002860368767742081683_);}
	.st87{clip-path:url(#SVGID_00000147209548093310679990000004295727900900813953_);}
	.st88{clip-path:url(#SVGID_00000082360809224424536430000012539032801014348937_);}
	.st89{clip-path:url(#SVGID_00000032630226469001028960000005766177120059808669_);}
	.st90{clip-path:url(#SVGID_00000072277221171043045870000011429139987580417215_);}
	.st91{clip-path:url(#SVGID_00000159458045102876666960000012772693316689187765_);}
	.st92{clip-path:url(#SVGID_00000084493518124875175120000013557206432988235425_);}
	.st93{clip-path:url(#SVGID_00000152258486163931415900000004854135240455867282_);}
	.st94{clip-path:url(#SVGID_00000074421452398676483310000013662997723799002523_);}
	.st95{clip-path:url(#SVGID_00000034773274843550211010000012485106837841597364_);}
	.st96{clip-path:url(#SVGID_00000173848108698818080500000002302200260996794538_);}
	.st97{clip-path:url(#SVGID_00000134231767256610889000000012308368735152830907_);}
	.st98{clip-path:url(#SVGID_00000009557665970644646680000016992007878695950977_);}
	.st99{clip-path:url(#SVGID_00000012468583672344312030000006045041807728425391_);}
	.st100{clip-path:url(#SVGID_00000078003624933299530990000010967017446236862342_);}
	.st101{clip-path:url(#SVGID_00000070841232879734316440000008722892341719509170_);}
	.st102{clip-path:url(#SVGID_00000091737886659501575050000017788812372278428850_);}
	.st103{clip-path:url(#SVGID_00000078012443600701890500000015806712050347728782_);}
	.st104{clip-path:url(#SVGID_00000160148243127238818690000002330777516862214556_);}
	.st105{clip-path:url(#SVGID_00000026161279076431854040000000681152304316100483_);}
	.st106{clip-path:url(#SVGID_00000040561122224930201970000018314892890454411158_);}
	.st107{clip-path:url(#SVGID_00000124139164903502851010000018115426047634981526_);}
	.st108{clip-path:url(#SVGID_00000048490009374008218980000013561392114406674072_);}
	.st109{clip-path:url(#SVGID_00000072970707420822159960000010000406057179791522_);}
	.st110{clip-path:url(#SVGID_00000116923019402967306730000013819304714813302913_);}
	.st111{clip-path:url(#SVGID_00000088834382178597841780000011816605035502088113_);}
	.st112{clip-path:url(#SVGID_00000100371708871636254620000013137172401862982050_);}
	.st113{clip-path:url(#SVGID_00000026154913055824964940000005460107224662539170_);}
	.st114{clip-path:url(#SVGID_00000137126542514350612490000009778452101615995521_);}
	.st115{fill:#FFFFFF;stroke:#000000;stroke-miterlimit:10;}
	.st116{clip-path:url(#SVGID_00000144320646818350083440000013074390356502537626_);}
	.st117{clip-path:url(#SVGID_00000034803020993649421900000018002819383530251673_);}
	.st118{fill:none;stroke:#010101;stroke-miterlimit:10;}
	.st119{fill:#010101;stroke:#000000;stroke-miterlimit:10;}
	.st120{clip-path:url(#SVGID_00000081606167729412524430000017513888295761222033_);}
	.st121{fill:#010101;stroke:#010101;stroke-miterlimit:10;}
	.st122{clip-path:url(#SVGID_00000094605166098250364400000000926937799485889699_);}
	.st123{clip-path:url(#SVGID_00000054987816997818421870000014482597408202545840_);}
	.st124{clip-path:url(#SVGID_00000079485216796148741300000003080616891187071897_);}
	.st125{clip-path:url(#SVGID_00000094587226252217611120000014582472697201620906_);}
	.st126{clip-path:url(#SVGID_00000176037339709078018680000006883873535833949072_);}
	.st127{fill:none;stroke:#000000;stroke-width:3;stroke-miterlimit:10;}
	.st128{clip-path:url(#SVGID_00000097480375663276182560000014365806634276647570_);}
	.st129{clip-path:url(#SVGID_00000088132121885663884110000016326513615561271956_);}
	.st130{clip-path:url(#SVGID_00000006709302980651774530000017866011346191045766_);}
	.st131{clip-path:url(#SVGID_00000141424737545664073420000013326012505689277355_);}
	.st132{fill:#040606;}
	.st133{clip-path:url(#SVGID_00000028317108076433210900000006838137565514115732_);}
	.st134{clip-path:url(#SVGID_00000125590194592410468230000018308496626596539571_);}
	.st135{clip-path:url(#SVGID_00000009580689902069114900000001858840583135759293_);}
	.st136{clip-path:url(#SVGID_00000047749909530505236260000005830334994104017318_);}
	.st137{clip-path:url(#SVGID_00000095322281926663355590000011924869680542940322_);}
	.st138{clip-path:url(#SVGID_00000181067163040129262600000015156165178369566103_);}
	.st139{clip-path:url(#SVGID_00000116923855922186459550000001356276148236263068_);}
	.st140{fill:#FFFFFF;stroke:#000000;stroke-width:1.5;stroke-miterlimit:10;}
	.st141{clip-path:url(#SVGID_00000096774468871364466070000018050174948161168306_);}
	.st142{fill:#BDBCBC;}
	.st143{clip-path:url(#SVGID_00000124154957486791677770000001883052781858127267_);}
	.st144{fill:#2E2A2B;}
	.st145{clip-path:url(#SVGID_00000014628855937216303890000002719554307276870536_);}
	.st146{clip-path:url(#SVGID_00000138570225025198711630000012175512415725569952_);}
	.st147{clip-path:url(#SVGID_00000057833731697186891600000017174681484751826048_);}
	.st148{clip-path:url(#SVGID_00000134940313932677843710000017076366383488200118_);}
	.st149{clip-path:url(#SVGID_00000182501656840640048570000018246067657490258329_);}
	.st150{fill:#272324;}
	.st151{clip-path:url(#SVGID_00000171690792873265711950000014749405759652914863_);}
	.st152{clip-path:url(#SVGID_00000018238510898939457540000012548532956765714107_);}
	.st153{clip-path:url(#SVGID_00000111193041874240182850000014594590305254046619_);}
	.st154{clip-path:url(#SVGID_00000039812835516627520280000008645179572953562019_);}
	.st155{clip-path:url(#SVGID_00000030444342759933380020000015912885616116004019_);}
	.st156{clip-path:url(#SVGID_00000042012924348156181560000010987006555491666070_);}
	.st157{fill:none;stroke:#000000;stroke-width:0.8735;stroke-linecap:round;stroke-linejoin:round;stroke-miterlimit:10;}
	.st158{clip-path:url(#SVGID_00000122002371248020981680000000735687014763091356_);}
	.st159{clip-path:url(#SVGID_00000068679156723496371180000000306813687757190312_);}
	.st160{clip-path:url(#SVGID_00000171683357962154401240000003606181726655302811_);}
	.st161{clip-path:url(#SVGID_00000081629472241905190070000005772698564087079076_);}
	.st162{clip-path:url(#SVGID_00000071548019348226967340000017871678435123467916_);}
	.st163{clip-path:url(#SVGID_00000120558437567109350410000015225807227806393232_);}
	.st164{clip-path:url(#SVGID_00000054266491533508666220000006597676249019126425_);}
	.st165{clip-path:url(#SVGID_00000060748863812767414000000009313847893180417968_);}
	.st166{clip-path:url(#SVGID_00000039833530037132887810000012181586508604951447_);}
	.st167{clip-path:url(#SVGID_00000021090138017757107590000015773781600985504946_);}
	.st168{clip-path:url(#SVGID_00000014623402285671118690000002388919686372302271_);}
	.st169{clip-path:url(#SVGID_00000057869930284057272180000012293924358814199712_);}
	.st170{clip-path:url(#SVGID_00000125586395128717513440000006062962634624831369_);}
	.st171{clip-path:url(#SVGID_00000072984707822836686920000015224447116158248595_);}
	.st172{clip-path:url(#SVGID_00000139253077507002030280000009835653121212323513_);}
	.st173{clip-path:url(#SVGID_00000003072394063606950090000001457305582339748230_);}
	.st174{clip-path:url(#SVGID_00000119808059860958685300000010237685648836986039_);}
	.st175{clip-path:url(#SVGID_00000036970659473717115160000011077649319854458773_);}
	.st176{clip-path:url(#SVGID_00000013888172986706232780000015907245834675175332_);}
	.st177{clip-path:url(#SVGID_00000160154151029304076380000003287713317420442529_);}
	.st178{clip-path:url(#SVGID_00000031197915486362910410000008124387831335164094_);}
	.st179{clip-path:url(#SVGID_00000021838469904322873190000004317792145679937469_);}
	.st180{clip-path:url(#SVGID_00000148632392329157175770000016078082934712487564_);}
	.st181{clip-path:url(#SVGID_00000107571761822653008400000014721039879593933201_);}
	.st182{clip-path:url(#SVGID_00000070114578349098019760000002020283357174641594_);}
	.st183{clip-path:url(#SVGID_00000097460530839887169650000017161928375416118927_);}
	.st184{clip-path:url(#SVGID_00000015336824415913849260000017315226252455327132_);}
	.st185{clip-path:url(#SVGID_00000157286989700517848160000008011730493371217820_);}
	.st186{clip-path:url(#SVGID_00000147927786714447795060000009386718899043636608_);}
	.st187{clip-path:url(#SVGID_00000005229273327220498240000017007216046958582926_);}
	.st188{clip-path:url(#SVGID_00000122686522568372600710000009643038800499463313_);}
	.st189{clip-path:url(#SVGID_00000005245701596038197360000010009107741348885175_);}
	.st190{clip-path:url(#SVGID_00000176761359445070733740000015698185863764278926_);}
	.st191{clip-path:url(#SVGID_00000180361128347163356360000006854569450272624030_);}
	.st192{clip-path:url(#SVGID_00000154402731972878466420000003547425052452356275_);}
	.st193{clip-path:url(#SVGID_00000092416984098474276900000002553357377767158938_);}
	.st194{clip-path:url(#SVGID_00000063591526808788758510000007663849889586730383_);}
	.st195{clip-path:url(#SVGID_00000142894792000988313230000016683723707420826554_);}
	.st196{fill:#E5E5E5;}
	.st197{fill:#1D1D1B;}
	.st198{fill:none;stroke:#000000;stroke-miterlimit:10;}
	.st199{fill:#FEFEFE;stroke:#000000;stroke-miterlimit:10;}
	.st200{clip-path:url(#SVGID_00000145017219646514967170000002697432643667739291_);}
	.st201{clip-path:url(#SVGID_00000052064249000684233510000016982466680206252989_);}
	.st202{clip-path:url(#SVGID_00000067930053913364652020000014085153979454663576_);}
	.st203{fill:#231F1F;}
	.st204{fill:#020000;}
	.st205{clip-path:url(#SVGID_00000096034507767357378970000011080111424932955576_);}
	.st206{clip-path:url(#SVGID_00000137827284359701104450000015714549654495252355_);}
	.st207{clip-path:url(#SVGID_00000059995277979996597590000005794351807846640792_);}
	.st208{clip-path:url(#SVGID_00000179625039991005280870000009338849607457383859_);}
	.st209{fill:#050000;}
	.st210{clip-path:url(#SVGID_00000129890882425660885110000013031671741451489669_);}
	.st211{clip-path:url(#SVGID_00000159452682895780393500000017826583771563148214_);}
	.st212{clip-path:url(#SVGID_00000098906507154811590320000005742325095330693558_);}
	.st213{clip-path:url(#SVGID_00000025428997507501775150000006915398185065816231_);}
	.st214{clip-path:url(#SVGID_00000093890148427020885270000001967570512352721793_);}
	.st215{clip-path:url(#SVGID_00000089558401559508860690000000685015996442523049_);}
	.st216{fill:#12100F;}
	.st217{clip-path:url(#SVGID_00000033352400034740103690000015837232040387872916_);}
	.st218{clip-path:url(#SVGID_00000106837159370099307980000015810250874731905188_);}
	.st219{fill:none;stroke:#000000;stroke-width:0.5;stroke-miterlimit:10;}
	.st220{clip-path:url(#SVGID_00000019651809026622595410000008192865499260746883_);}
	.st221{clip-path:url(#SVGID_00000116213016392842189210000007704724120783501747_);}
	.st222{clip-path:url(#SVGID_00000118383116593257262020000013423347040593723802_);}
	.st223{clip-path:url(#SVGID_00000055680057218040131710000012256371365775630465_);}
	.st224{fill:none;stroke:#000000;stroke-width:0.25;stroke-miterlimit:10;}
	.st225{clip-path:url(#SVGID_00000119803330510377200170000017421496997603306415_);}
	.st226{clip-path:url(#SVGID_00000012461648801242874310000002418016644477856148_);}
	.st227{clip-path:url(#SVGID_00000180342766077409581440000016801243685064261789_);}
</style>
<g>
	<path class="st0" d="M12.32,15.14h25.63c0.08,0,0.14,0.06,0.14,0.14v30.95c0,0.08-0.06,0.14-0.14,0.14H12.32
		c-0.08,0-0.14-0.06-0.14-0.14V15.28C12.19,15.2,12.25,15.14,12.32,15.14z"/>
	<g>
		<path class="st1" d="M32.6,46.36c-1.13,0-2.4-0.09-3.78-0.34c-0.06-0.01-0.11-0.06-0.12-0.12l-3.33-19.48
			c-0.03-0.15-0.24-0.15-0.27,0l-3.27,19.48c-0.01,0.06-0.06,0.11-0.12,0.12c-5.58,0.98-9.27-0.5-9.31-0.52
			c-0.06-0.02-0.1-0.09-0.09-0.15l2.09-22.88l0.07-0.74l0.59-6.43c0.01-0.08,0.08-0.14,0.16-0.13c0.08,0.01,0.14,0.08,0.13,0.16
			l-0.65,7.17l-2.07,22.66c-0.01,0.06,0.03,0.12,0.09,0.14c0.35,0.12,1.14,0.36,2.29,0.54c1.42,0.22,3.68,0.38,6.45-0.08
			c0.06-0.01,0.1-0.06,0.11-0.11l3.51-20.93c0.01-0.07,0.28-0.07,0.29,0l3.58,20.93c0.01,0.06,0.06,0.1,0.11,0.11
			c2.78,0.46,5.03,0.3,6.45,0.08c1.15-0.18,1.94-0.42,2.29-0.54c0.06-0.02,0.1-0.08,0.09-0.14l-2.07-22.71l-0.06-0.71
			c-0.01-0.01-0.01-0.03-0.01-0.04l-0.58-6.38c-0.01-0.08,0.05-0.15,0.13-0.16c0.08-0.01,0.15,0.05,0.16,0.13l0.05,0.55l0.52,5.8
			c0,0.01,0.01,0.03,0.01,0.04l0.06,0.75l2.09,22.92c0.01,0.06-0.03,0.13-0.09,0.15C38.09,45.52,36,46.36,32.6,46.36"/>
	</g>
	<path class="st1" d="M15.13,15.04c0,0.08,0.06,0.14,0.14,0.14h7.14c-0.02-0.1-0.03-0.2-0.03-0.3v-1.76c0-0.17,0.03-0.33,0.09-0.48
		h-7.2c-0.08,0-0.14,0.06-0.14,0.14V15.04z M22.61,15.47h-7.48c-0.16,0-0.29-0.13-0.29-0.29v-2.55c0-0.16,0.13-0.29,0.29-0.29h7.57
		c0.05,0,0.1,0.03,0.13,0.07s0.02,0.1,0,0.15c-0.1,0.16-0.15,0.35-0.15,0.55v1.76c0,0.14,0.02,0.27,0.07,0.39
		c0.02,0.04,0.01,0.1-0.01,0.14C22.71,15.45,22.66,15.47,22.61,15.47"/>
	<path class="st1" d="M27.92,15.17h7.14c0.08,0,0.14-0.06,0.14-0.14v-2.27c0-0.08-0.06-0.14-0.14-0.14h-7.2
		c0.06,0.15,0.09,0.32,0.09,0.48v1.76C27.95,14.98,27.94,15.08,27.92,15.17z M35.34,15.47h-7.62c-0.05,0-0.1-0.02-0.12-0.07
		c-0.03-0.04-0.03-0.09-0.01-0.14c0.05-0.12,0.07-0.26,0.07-0.39l0-1.78c0-0.18-0.03-0.38-0.15-0.52c-0.04-0.05-0.04-0.11-0.01-0.16
		c0.03-0.05,0.07-0.07,0.13-0.07h7.57c0.16,0,0.29,0.13,0.29,0.29v2.69C35.49,15.4,35.42,15.47,35.34,15.47"/>
	<path class="st0" d="M22.15,11.82h5.96c0.08,0,0.14,0.06,0.14,0.14v4.3c0,0.08-0.06,0.14-0.14,0.14h-5.96
		c-0.08,0-0.14-0.06-0.14-0.14v-4.3C22.01,11.88,22.07,11.82,22.15,11.82z"/>
	<g>
		<path d="M27.62,12.63c-0.05,0-0.1-0.02-0.13-0.07c-0.17-0.28-0.46-0.44-0.76-0.44h-3.15c-0.31,0-0.59,0.16-0.76,0.44
			c-0.04,0.07-0.13,0.09-0.2,0.05c-0.07-0.04-0.09-0.13-0.05-0.2c0.22-0.36,0.6-0.58,1.01-0.58h3.15c0.41,0,0.79,0.22,1.01,0.58
			c0.04,0.07,0.02,0.16-0.05,0.2C27.68,12.63,27.65,12.63,27.62,12.63z M23.64,14.83h2.91c0.08,0,0.14-0.06,0.14-0.14V13.3
			c0-0.08-0.06-0.14-0.14-0.14h-2.91v0.32h2.28c0.23,0,0.42,0.19,0.42,0.42s-0.19,0.42-0.42,0.42h-2.28V14.83z M26.74,15.13h-3.15
			c-0.13,0-0.24-0.11-0.24-0.25v-0.56c0-0.16,0.13-0.28,0.28-0.28h2.29c0.07,0,0.13-0.06,0.13-0.13s-0.06-0.13-0.13-0.13h-2.29
			c-0.16,0-0.28-0.13-0.28-0.28v-0.38c0-0.14,0.11-0.25,0.24-0.25h3.15c0.13,0,0.24,0.11,0.24,0.25v1.76
			C26.98,15.01,26.87,15.13,26.74,15.13z M26.74,16.17h-3.15c-0.49,0-0.93-0.31-1.12-0.79c-0.03-0.07,0.01-0.16,0.08-0.19
			c0.08-0.03,0.16,0.01,0.19,0.08c0.15,0.37,0.48,0.6,0.84,0.6h3.15c0.37,0,0.69-0.24,0.84-0.6c0.03-0.07,0.11-0.11,0.19-0.08
			c0.07,0.03,0.11,0.12,0.08,0.19C27.66,15.86,27.23,16.17,26.74,16.17"/>
	</g>
	<path class="st1" d="M14.42,22.64c-0.04,0-0.09-0.02-0.12-0.06c-0.05-0.07-0.03-0.16,0.03-0.21c1.6-1.17,2.79-2.84,3.35-4.72
		c0.02-0.08,0.1-0.12,0.18-0.1c0.08,0.02,0.12,0.1,0.1,0.18c-0.58,1.93-1.81,3.66-3.46,4.87C14.48,22.63,14.45,22.64,14.42,22.64"/>
	<path class="st1" d="M35.85,22.6c-0.03,0-0.06-0.01-0.09-0.03c-1.63-1.2-2.84-2.92-3.4-4.83c-0.02-0.08,0.02-0.16,0.1-0.18
		c0.08-0.02,0.16,0.02,0.18,0.1c0.55,1.85,1.72,3.51,3.3,4.67c0.07,0.05,0.08,0.14,0.03,0.21C35.94,22.58,35.9,22.6,35.85,22.6"/>
	<path class="st2" d="M25.27,22.88c-0.08,0-0.15-0.07-0.15-0.15v-6.71c0-0.08,0.07-0.15,0.15-0.15c0.08,0,0.15,0.07,0.15,0.15v6.71
		C25.42,22.81,25.35,22.88,25.27,22.88"/>
	<path d="M26.44,13.9c0,0.28-0.23,0.52-0.52,0.52c-0.28,0-0.52-0.23-0.52-0.52c0-0.29,0.23-0.52,0.52-0.52
		C26.21,13.39,26.44,13.62,26.44,13.9"/>
	<path d="M23.49,14.32h-0.17c-0.23,0-0.42-0.19-0.42-0.42s0.19-0.42,0.42-0.42h0.17c0.08,0,0.15,0.07,0.15,0.15
		c0,0.08-0.07,0.15-0.15,0.15h-0.17c-0.07,0-0.12,0.06-0.12,0.13s0.06,0.13,0.12,0.13h0.17c0.08,0,0.15,0.07,0.15,0.15
		C23.64,14.26,23.58,14.32,23.49,14.32"/>
</g>
</svg>
