<?xml version="1.0" encoding="utf-8"?>
<!-- Generator: Adobe Illustrator 27.3.1, SVG Export Plug-In . SVG Version: 6.00 Build 0)  -->
<svg version="1.1" id="Layer_1" xmlns="http://www.w3.org/2000/svg" xmlns:xlink="http://www.w3.org/1999/xlink" x="0px" y="0px"
	 viewBox="0 0 50 50" style="enable-background:new 0 0 50 50;" xml:space="preserve">
<style type="text/css">
	.st0{fill:none;}
	.st1{stroke:#000000;stroke-miterlimit:10;}
	.st2{stroke:#000000;stroke-width:0.75;stroke-miterlimit:10;}
	.st3{clip-path:url(#SVGID_00000124121355408530535400000005415897845321250944_);}
	.st4{clip-path:url(#SVGID_00000175312865964712891670000002288477154240939416_);}
	.st5{fill:#FFFFFF;}
	.st6{clip-path:url(#SVGID_00000119800386291858423880000011648745396273230489_);}
	.st7{fill:#231F20;}
	.st8{clip-path:url(#SVGID_00000072272256450638935200000001869456944793449883_);}
	.st9{clip-path:url(#SVGID_00000141429413796305778840000000694419260968468415_);}
	.st10{clip-path:url(#SVGID_00000070802205893956186590000014781224480004456838_);}
	.st11{clip-path:url(#SVGID_00000065782587205929570090000005235516304993143955_);}
	.st12{clip-path:url(#SVGID_00000120533007629871487910000004033429671203678903_);}
	.st13{clip-path:url(#SVGID_00000039818773068629327130000006778598541967111314_);}
	.st14{clip-path:url(#SVGID_00000141447212261323553870000010142067534169779609_);}
	.st15{clip-path:url(#SVGID_00000072280958324505591070000007136729755988287667_);}
	.st16{clip-path:url(#SVGID_00000085947709788187459050000001977876443775211413_);}
	.st17{clip-path:url(#SVGID_00000161630631370164977750000004961572263555528370_);}
	.st18{clip-path:url(#SVGID_00000133498164586843040810000017741878036910099893_);}
	.st19{clip-path:url(#SVGID_00000053533968700692175310000010977517194842175364_);}
	.st20{clip-path:url(#SVGID_00000158020543874741239700000016220705175903198129_);}
	.st21{clip-path:url(#SVGID_00000108271334529243081390000015918865205944609454_);}
	.st22{clip-path:url(#SVGID_00000147898801486116081650000003270694153980014756_);}
	.st23{clip-path:url(#SVGID_00000081637117328543670680000017571606132938537146_);}
	.st24{clip-path:url(#SVGID_00000145761149007051374170000011327304327623580296_);}
	.st25{clip-path:url(#SVGID_00000019640436166245897650000007420151308237841336_);}
	.st26{clip-path:url(#SVGID_00000009574656063344758310000004611168031817702833_);}
	.st27{clip-path:url(#SVGID_00000096041023971137912820000009430006346411063958_);}
	.st28{clip-path:url(#SVGID_00000162340056843467329410000012922049089015560127_);}
	.st29{clip-path:url(#SVGID_00000145742809540587618210000009904290350996845958_);}
	.st30{clip-path:url(#SVGID_00000134933989724303432870000000220197645038578091_);}
	.st31{fill-rule:evenodd;clip-rule:evenodd;}
	.st32{clip-path:url(#SVGID_00000079453835210821589510000000443808779002835587_);}
	.st33{clip-path:url(#SVGID_00000012455761616981657700000014016676229435769246_);}
	.st34{stroke:#000000;stroke-width:0.5;stroke-miterlimit:10;}
	.st35{clip-path:url(#SVGID_00000084492315649662858950000010137488175666185394_);}
	.st36{clip-path:url(#SVGID_00000012435465994231047660000006004297803660351151_);}
	.st37{clip-path:url(#SVGID_00000148659949915095126100000016694586714121183135_);}
	.st38{fill:#1A1A1A;}
	.st39{clip-path:url(#SVGID_00000166662999087068440460000011660030614612184974_);}
	.st40{clip-path:url(#SVGID_00000169525862584181991530000004364507761142984094_);}
	.st41{clip-path:url(#SVGID_00000030488379044457445570000002014486267935273874_);}
	.st42{clip-path:url(#SVGID_00000034052160889375632120000000811317614975432879_);}
	.st43{clip-path:url(#SVGID_00000054983854113070477330000018052558225073995967_);}
	.st44{clip-path:url(#SVGID_00000098213882856316048930000004644347254466337931_);}
	.st45{clip-path:url(#SVGID_00000163065117023614777720000017468106741330406330_);}
	.st46{clip-path:url(#SVGID_00000012455749799301638270000011385719450049437611_);}
	.st47{clip-path:url(#SVGID_00000118377717726296133600000008334398180231362728_);}
	.st48{fill:#F1F1F1;}
	.st49{fill:#E8E8E8;}
	.st50{fill:#FEFEFE;}
	.st51{fill:#CCCCCC;}
	.st52{fill:#B3B3B3;}
	.st53{fill:#E6E6E6;}
	.st54{fill:#EBEBEB;}
	.st55{fill:#EEEEEE;}
	.st56{fill:#F8F8F8;}
	.st57{fill:#FBFBFB;}
	.st58{fill:#383838;}
	.st59{fill:#232323;}
	.st60{fill:#F6F6F6;}
	.st61{fill:#535353;}
	.st62{fill:#0A0A0A;}
	.st63{fill:#F5F5F5;}
	.st64{fill:#818181;}
	.st65{fill:#4A4A4A;}
	.st66{fill:#999999;}
	.st67{fill:url(#SVGID_00000164504921966252631170000001573814168128829362_);}
	.st68{fill:url(#SVGID_00000127022154518060609630000009919274626837019578_);}
	.st69{fill:#0E0E0D;}
	.st70{fill:#333333;}
	.st71{fill:#808080;}
	.st72{fill:url(#SVGID_00000049220976371677623890000005868846143386849211_);}
	.st73{fill:#666666;}
	.st74{fill:url(#SVGID_00000014618465474613933910000006306247581680215473_);}
	.st75{fill:url(#SVGID_00000130615529687774310850000016487952716019828617_);}
	.st76{fill:url(#SVGID_00000139251946377722478840000003170637430998222744_);}
	.st77{fill:url(#SVGID_00000148633907948611916090000012977532586793830057_);}
	.st78{fill:url(#SVGID_00000076565495810134284450000012777986970497845904_);}
	.st79{clip-path:url(#SVGID_00000125583445791667973380000001203871589657541273_);}
	.st80{clip-path:url(#SVGID_00000076575331742265560260000007821240855738705577_);}
	.st81{clip-path:url(#SVGID_00000159463266253626298630000008740800735023242155_);}
	.st82{clip-path:url(#SVGID_00000106123602947562237840000001313923925724829864_);}
	.st83{clip-path:url(#SVGID_00000132806451910164252460000017269564269479580847_);}
	.st84{fill:#241F20;stroke:#000000;stroke-width:0.5;stroke-miterlimit:10;}
	.st85{clip-path:url(#SVGID_00000152984406236526339860000005161164388374183862_);}
	.st86{clip-path:url(#SVGID_00000011735806269746943670000014325159370696542856_);}
	.st87{clip-path:url(#SVGID_00000114751759512410778610000008066286130964818612_);}
	.st88{clip-path:url(#SVGID_00000051384204458909504770000005794587336147135887_);}
	.st89{clip-path:url(#SVGID_00000013191724921281473480000018245122445722126741_);}
	.st90{clip-path:url(#SVGID_00000015328763426987890270000018081738894693864323_);}
	.st91{clip-path:url(#SVGID_00000132050394672463265040000010279709482200621973_);}
	.st92{clip-path:url(#SVGID_00000070076429051288021670000010482858451989913507_);}
	.st93{clip-path:url(#SVGID_00000085217009761222111710000000882667441427613828_);}
	.st94{clip-path:url(#SVGID_00000025428311231396698470000013440126068508180657_);}
	.st95{clip-path:url(#SVGID_00000014603526461565158960000000454476294685500033_);}
	.st96{clip-path:url(#SVGID_00000142854649911535277910000018229068769085180825_);}
	.st97{clip-path:url(#SVGID_00000092430221806781982140000012043367538665749677_);}
	.st98{clip-path:url(#SVGID_00000004527213857021100970000005804462944861215163_);}
	.st99{clip-path:url(#SVGID_00000178165258951390265630000015012962838709444517_);}
	.st100{clip-path:url(#SVGID_00000161615235798892560060000009111427741359452053_);}
	.st101{clip-path:url(#SVGID_00000084529403300667485030000003760958933665005482_);}
	.st102{clip-path:url(#SVGID_00000043451758495804972190000011534582105340927370_);}
	.st103{clip-path:url(#SVGID_00000021800642473235022270000010705500135122645141_);}
	.st104{clip-path:url(#SVGID_00000173141739997932512430000008767698139722717368_);}
	.st105{clip-path:url(#SVGID_00000170260410126107466800000014211675844215897241_);}
	.st106{clip-path:url(#SVGID_00000166639675403342646680000006397384556445806226_);}
	.st107{clip-path:url(#SVGID_00000083775277812481375780000005694259377502024095_);}
	.st108{clip-path:url(#SVGID_00000181045654132172484570000010785557616932843398_);}
	.st109{clip-path:url(#SVGID_00000031192167596815585730000009502777341220174222_);}
	.st110{clip-path:url(#SVGID_00000021836601177083202460000005944992463648754349_);}
	.st111{clip-path:url(#SVGID_00000133491319932402734750000000028535099430171010_);}
	.st112{clip-path:url(#SVGID_00000000919296808161576180000011953253485424273057_);}
	.st113{clip-path:url(#SVGID_00000057841746533558261190000001583680410028542091_);}
	.st114{clip-path:url(#SVGID_00000045608740016145737000000013703812749758621596_);}
	.st115{fill:#FFFFFF;stroke:#000000;stroke-miterlimit:10;}
	.st116{clip-path:url(#SVGID_00000034063992776229547320000009971720199823526023_);}
	.st117{clip-path:url(#SVGID_00000177474789309527271500000011034220274303948935_);}
	.st118{fill:none;stroke:#010101;stroke-miterlimit:10;}
	.st119{fill:#010101;stroke:#000000;stroke-miterlimit:10;}
	.st120{clip-path:url(#SVGID_00000099654905241999588360000014355130420843682494_);}
	.st121{fill:#010101;stroke:#010101;stroke-miterlimit:10;}
	.st122{clip-path:url(#SVGID_00000029763216084163499740000011957370678698099385_);}
	.st123{clip-path:url(#SVGID_00000091719602248662318420000002240207196646336436_);}
	.st124{clip-path:url(#SVGID_00000075136079372792167150000008300992013567471233_);}
	.st125{clip-path:url(#SVGID_00000182511760065902365700000003926869050853507756_);}
	.st126{clip-path:url(#SVGID_00000101803675535978507900000000001127336986198439_);}
	.st127{fill:none;stroke:#000000;stroke-width:3;stroke-miterlimit:10;}
	.st128{clip-path:url(#SVGID_00000018202260432864185020000018252176922108243360_);}
	.st129{clip-path:url(#SVGID_00000139261398497591039860000000282314162935477376_);}
	.st130{clip-path:url(#SVGID_00000069356819398490264970000015999835508605814411_);}
	.st131{clip-path:url(#SVGID_00000032634632381865116080000018029058561389918602_);}
	.st132{fill:#040606;}
	.st133{clip-path:url(#SVGID_00000060011196493637566630000015332470758176736693_);}
	.st134{clip-path:url(#SVGID_00000027583654313148886120000003757225196905441441_);}
	.st135{clip-path:url(#SVGID_00000173129982401279798700000008522440904329976966_);}
	.st136{clip-path:url(#SVGID_00000121273670688736514920000016321231928862585516_);}
	.st137{clip-path:url(#SVGID_00000115491023401651392060000009342402428104898710_);}
	.st138{clip-path:url(#SVGID_00000128487085585536906890000003684753233144414093_);}
	.st139{clip-path:url(#SVGID_00000054265448635774650650000018230295166704501933_);}
	.st140{fill:#FFFFFF;stroke:#000000;stroke-width:1.5;stroke-miterlimit:10;}
	.st141{clip-path:url(#SVGID_00000044876362014981146810000014548064720993261747_);}
	.st142{fill:#BDBCBC;}
	.st143{clip-path:url(#SVGID_00000134229261098315382300000007644218041112013958_);}
	.st144{fill:#2E2A2B;}
	.st145{clip-path:url(#SVGID_00000041266212799482748930000012279049265732961416_);}
	.st146{clip-path:url(#SVGID_00000113332714261906772260000017399289269353431962_);}
	.st147{clip-path:url(#SVGID_00000016781533385353519500000008270799808166194862_);}
	.st148{clip-path:url(#SVGID_00000020370831133917070450000003167610313927414411_);}
	.st149{clip-path:url(#SVGID_00000051372221949054569510000017998287910465789846_);}
	.st150{fill:#272324;}
	.st151{clip-path:url(#SVGID_00000018939284779306515970000016818462170199674030_);}
	.st152{clip-path:url(#SVGID_00000031185589764765969890000017387203251394397861_);}
	.st153{clip-path:url(#SVGID_00000062166301388886871620000000652590946956012455_);}
	.st154{clip-path:url(#SVGID_00000181071943115599505140000016567754280666168459_);}
	.st155{clip-path:url(#SVGID_00000118393168292665986240000010799391730513445511_);}
	.st156{clip-path:url(#SVGID_00000052787812785954022470000008338271823214306721_);}
	.st157{fill:none;stroke:#000000;stroke-width:0.8735;stroke-linecap:round;stroke-linejoin:round;stroke-miterlimit:10;}
	.st158{clip-path:url(#SVGID_00000044896260207782472560000010369895441017213833_);}
	.st159{clip-path:url(#SVGID_00000146474660593438100940000007849376666286656700_);}
	.st160{clip-path:url(#SVGID_00000137837963871042524380000017651866043050465958_);}
	.st161{clip-path:url(#SVGID_00000083784587420711009110000012545311162443876758_);}
	.st162{clip-path:url(#SVGID_00000075140501014486573650000005108748396946015382_);}
	.st163{clip-path:url(#SVGID_00000088096280262898947410000004181999962700616091_);}
	.st164{clip-path:url(#SVGID_00000096766587639289009920000013885383079985576087_);}
	.st165{clip-path:url(#SVGID_00000100366019200330537750000000012872628372506781_);}
	.st166{clip-path:url(#SVGID_00000039091445709760338040000010626458709349752756_);}
	.st167{clip-path:url(#SVGID_00000137105234693524421720000014673035333646930320_);}
	.st168{clip-path:url(#SVGID_00000078734133163154039670000013079057529002361484_);}
	.st169{clip-path:url(#SVGID_00000163067959558520461340000013843809864814947245_);}
	.st170{clip-path:url(#SVGID_00000126318385300167907340000006156085495915172504_);}
	.st171{clip-path:url(#SVGID_00000082343430038212205350000000007323875204327605_);}
	.st172{clip-path:url(#SVGID_00000088818385634545945270000016624899113165908644_);}
	.st173{clip-path:url(#SVGID_00000021108975966217667770000004422391583420035499_);}
	.st174{clip-path:url(#SVGID_00000000194341122529449470000007202459301694865586_);}
	.st175{clip-path:url(#SVGID_00000016070849502182726440000014861372742984531883_);}
	.st176{clip-path:url(#SVGID_00000124851798263720735440000013625871492203488924_);}
	.st177{clip-path:url(#SVGID_00000003796573466966903530000016261255542859256756_);}
	.st178{clip-path:url(#SVGID_00000075842671660090834580000000350103754777189260_);}
	.st179{clip-path:url(#SVGID_00000041996720089679245310000009055785240986478511_);}
	.st180{clip-path:url(#SVGID_00000000916819112259446750000004748825180266783618_);}
	.st181{clip-path:url(#SVGID_00000125587302889761026970000017001299011845138565_);}
	.st182{clip-path:url(#SVGID_00000103970392905311755600000013740193045142964131_);}
	.st183{clip-path:url(#SVGID_00000073718843409511267460000006095396556457743782_);}
	.st184{clip-path:url(#SVGID_00000061448881781069468630000012192978474294153899_);}
	.st185{clip-path:url(#SVGID_00000007386417804148363000000007365723567289165479_);}
	.st186{clip-path:url(#SVGID_00000093138540995048025600000003223351470019038342_);}
	.st187{clip-path:url(#SVGID_00000125586169906939738550000012076731763395058854_);}
	.st188{clip-path:url(#SVGID_00000170262515437644085820000010077109587863977388_);}
	.st189{clip-path:url(#SVGID_00000042701250075227520240000016911729410726017960_);}
	.st190{clip-path:url(#SVGID_00000176044731978714403310000008911158142122163077_);}
	.st191{clip-path:url(#SVGID_00000082355695838771039240000002304945616622163112_);}
	.st192{clip-path:url(#SVGID_00000031925280629450582320000017998093699812355731_);}
	.st193{clip-path:url(#SVGID_00000153663907095642378240000016155382562529320879_);}
	.st194{clip-path:url(#SVGID_00000111154636938466114020000017921549650002769579_);}
	.st195{clip-path:url(#SVGID_00000169547291868105619240000017791423060038412713_);}
	.st196{fill:#E5E5E5;}
	.st197{fill:#1D1D1B;}
	.st198{fill:none;stroke:#000000;stroke-miterlimit:10;}
	.st199{fill:#FEFEFE;stroke:#000000;stroke-miterlimit:10;}
	.st200{clip-path:url(#SVGID_00000137833059794414562290000008137477708024277915_);}
	.st201{clip-path:url(#SVGID_00000062166387946834598610000015577269973797837995_);}
	.st202{clip-path:url(#SVGID_00000015324047373669448000000006044666201728617134_);}
	.st203{fill:#231F1F;}
	.st204{fill:#020000;}
	.st205{clip-path:url(#SVGID_00000038407922262751863610000008952777945118100914_);}
	.st206{clip-path:url(#SVGID_00000137817953801784682170000015869055705368372408_);}
	.st207{clip-path:url(#SVGID_00000088822666108346841900000006469018008980157845_);}
	.st208{clip-path:url(#SVGID_00000117665864487410767010000014421935964671364003_);}
	.st209{fill:#050000;}
	.st210{clip-path:url(#SVGID_00000138549446732671068940000013271049489020448177_);}
	.st211{clip-path:url(#SVGID_00000129187864707709557250000012477315769292809383_);}
	.st212{clip-path:url(#SVGID_00000021833506186580164630000000953639428992741531_);}
	.st213{clip-path:url(#SVGID_00000125585069702164858520000015739772103540127665_);}
	.st214{clip-path:url(#SVGID_00000169538024737004935910000007015191817815711875_);}
	.st215{clip-path:url(#SVGID_00000142140991255761159960000017140742551687656846_);}
	.st216{fill:#12100F;}
	.st217{clip-path:url(#SVGID_00000151529510996005215410000007265323639461991823_);}
	.st218{clip-path:url(#SVGID_00000049213224375075010570000016806176853789420951_);}
	.st219{fill:none;stroke:#000000;stroke-width:0.5;stroke-miterlimit:10;}
	.st220{clip-path:url(#SVGID_00000114786127118615760240000006985551419881200259_);}
	.st221{clip-path:url(#SVGID_00000047019327181873990450000016708553151611091103_);}
	.st222{clip-path:url(#SVGID_00000119086161239889826420000006034389917853107613_);}
	.st223{clip-path:url(#SVGID_00000001661327138431001530000000806571648003609274_);}
	.st224{fill:none;stroke:#000000;stroke-width:0.25;stroke-miterlimit:10;}
	.st225{clip-path:url(#SVGID_00000038401040925767473470000009222860781048670133_);}
	.st226{clip-path:url(#SVGID_00000052795003463840461150000011624784555682498181_);}
	.st227{clip-path:url(#SVGID_00000019679285100975106090000000130562392303029406_);}
</style>
<g>
	<path d="M13.84,34.72c0-1.24,0.03-2.48-0.01-3.72c-0.03-1.17-0.12-2.34-0.2-3.5c-0.08-1.06-0.18-2.12-0.28-3.18
		c-0.05-0.63-0.1-1.25-0.16-1.88c-0.02-0.21,0.06-0.34,0.25-0.45c0.35-0.2,0.69-0.42,1.02-0.65c1.16-0.79,1.8-1.9,1.99-3.28
		c0.14-1.03,0.2-2.06,0.13-3.1c-0.09-1.45-0.18-2.9-0.27-4.35c-0.02-0.36,0.09-0.5,0.43-0.52c0.57-0.03,1.14-0.06,1.71-0.08
		c0.32-0.01,0.38,0.04,0.4,0.35c0.03,0.61,0.04,1.22,0.06,1.83c0.02,0.45,0.05,0.89,0.08,1.34c0.01,0.15,0.08,0.25,0.2,0.34
		c1.41,1.07,3.02,1.46,4.76,1.44c0.77-0.01,1.53-0.08,2.26-0.34c0.89-0.32,1.56-0.93,2.2-1.58c0.09-0.09,0.13-0.25,0.13-0.38
		c0.01-0.89,0.01-1.77,0.01-2.66c0-0.33,0.08-0.44,0.41-0.45c0.53-0.02,1.06-0.02,1.58-0.02c0.34,0,0.4,0.08,0.38,0.43
		c-0.07,1.24-0.16,2.47-0.2,3.71c-0.04,1.15-0.02,2.3,0.18,3.44c0.23,1.34,0.87,2.43,1.89,3.32c0.28,0.25,0.58,0.49,0.88,0.72
		c0.16,0.12,0.23,0.27,0.21,0.47c-0.06,0.73-0.12,1.45-0.18,2.18c-0.07,0.86-0.15,1.72-0.21,2.58c-0.08,1.15-0.16,2.3-0.19,3.45
		c-0.03,1.41-0.04,2.82-0.01,4.23c0.03,1.4,0.09,2.8,0.16,4.2c0.06,1.13,0.16,2.26,0.25,3.39c0.05,0.68,0.11,1.35,0.16,2.03
		c0.02,0.32-0.04,0.41-0.36,0.45c-0.6,0.09-1.19,0.17-1.79,0.24c-1.21,0.14-2.42,0.28-3.64,0.4c-0.71,0.07-1.42,0.09-2.13,0.13
		c-1.23,0.08-2.45,0.05-3.68-0.04c-1.28-0.1-2.57-0.21-3.85-0.37c-1.52-0.18-3.04-0.41-4.56-0.61c-0.09-0.01-0.17-0.03-0.26-0.06
		c-0.19-0.06-0.28-0.18-0.26-0.38c0.07-0.99,0.16-1.98,0.22-2.97c0.08-1.21,0.15-2.42,0.21-3.64c0.04-0.81,0.07-1.62,0.1-2.43
		C13.86,34.72,13.85,34.72,13.84,34.72z M29.18,10.49c0,0.59,0.01,1.16,0,1.72c-0.01,1.1-0.09,2.19-0.42,3.24
		c-0.38,1.24-1.08,2.22-2.27,2.8c-1.45,0.7-2.96,0.86-4.52,0.49c-1.56-0.37-2.6-1.32-3.12-2.85c-0.31-0.91-0.45-1.84-0.51-2.79
		c-0.05-0.77-0.05-1.53-0.06-2.3c0-0.14-0.04-0.19-0.18-0.18c-0.31,0.02-0.61,0.04-0.92,0.05c-0.24,0.01-0.25,0-0.23,0.24
		c0.05,0.71,0.12,1.42,0.16,2.13c0.1,1.61,0.18,3.22-0.01,4.82c-0.11,0.87-0.35,1.7-0.81,2.45c-0.56,0.9-1.38,1.51-2.27,2.03
		c-0.19,0.11-0.22,0.22-0.2,0.4c0.12,1.23,0.26,2.46,0.34,3.7c0.13,1.85,0.25,3.7,0.3,5.56c0.07,2.3-0.02,4.59-0.16,6.88
		c-0.05,0.85-0.12,1.71-0.17,2.56c-0.04,0.66-0.08,1.32-0.13,1.98c-0.01,0.15,0.05,0.2,0.18,0.22c0.16,0.02,0.31,0.04,0.47,0.06
		c1.04,0.15,2.08,0.31,3.12,0.43c1.12,0.14,2.24,0.26,3.36,0.36c0.89,0.08,1.78,0.13,2.67,0.16c0.72,0.02,1.45,0.01,2.17-0.03
		c1.01-0.05,2.02-0.12,3.03-0.22c1.09-0.11,2.17-0.25,3.26-0.39c0.28-0.03,0.56-0.08,0.84-0.13c0.06-0.01,0.14-0.1,0.14-0.14
		c-0.06-0.87-0.15-1.74-0.21-2.61c-0.12-1.78-0.25-3.55-0.32-5.33c-0.06-1.4-0.06-2.8-0.04-4.21c0.02-1.38,0.07-2.77,0.17-4.15
		c0.12-1.78,0.29-3.55,0.44-5.32c0.01-0.14-0.03-0.22-0.13-0.3c-0.19-0.15-0.38-0.31-0.57-0.47c-0.98-0.83-1.73-1.82-2.09-3.07
		c-0.23-0.79-0.31-1.6-0.35-2.42c-0.09-1.58,0.05-3.15,0.14-4.73c0.01-0.23,0.03-0.46,0.04-0.7C29.92,10.45,29.55,10.47,29.18,10.49
		z M19.12,14.56c0.07,0.3,0.14,0.58,0.21,0.85c0.39,1.41,1.24,2.37,2.69,2.73c1.25,0.31,2.49,0.24,3.71-0.2
		c1.05-0.38,1.82-1.06,2.26-2.11c0.22-0.52,0.35-1.05,0.43-1.61c-0.03,0.01-0.04,0.01-0.05,0.01c-0.87,0.9-1.93,1.41-3.16,1.58
		c-0.78,0.11-1.57,0.12-2.35,0.04c-0.91-0.09-1.8-0.28-2.63-0.69C19.86,14.99,19.51,14.78,19.12,14.56z"/>
	<path class="st5" d="M29.18,10.49c0.38-0.02,0.74-0.04,1.12-0.06c-0.01,0.24-0.03,0.47-0.04,0.7c-0.09,1.58-0.23,3.15-0.14,4.73
		c0.05,0.82,0.13,1.63,0.35,2.42c0.36,1.25,1.1,2.24,2.09,3.07c0.19,0.16,0.38,0.32,0.57,0.47c0.1,0.08,0.14,0.16,0.13,0.3
		c-0.15,1.77-0.32,3.55-0.44,5.32c-0.09,1.38-0.14,2.76-0.17,4.15c-0.02,1.4-0.02,2.81,0.04,4.21c0.07,1.78,0.2,3.55,0.32,5.33
		c0.06,0.87,0.15,1.74,0.21,2.61c0,0.05-0.08,0.13-0.14,0.14c-0.28,0.05-0.56,0.09-0.84,0.13c-1.09,0.13-2.17,0.28-3.26,0.39
		c-1.01,0.1-2.02,0.16-3.03,0.22c-0.72,0.04-1.45,0.05-2.17,0.03c-0.89-0.03-1.78-0.08-2.67-0.16c-1.12-0.1-2.24-0.22-3.36-0.36
		c-1.04-0.13-2.08-0.29-3.12-0.43c-0.16-0.02-0.31-0.04-0.47-0.06c-0.13-0.01-0.2-0.07-0.18-0.22c0.05-0.66,0.08-1.32,0.13-1.98
		c0.06-0.85,0.12-1.71,0.17-2.56c0.14-2.29,0.23-4.59,0.16-6.88c-0.06-1.85-0.18-3.71-0.3-5.56c-0.08-1.24-0.22-2.47-0.34-3.7
		c-0.02-0.19,0.02-0.29,0.2-0.4c0.89-0.52,1.71-1.13,2.27-2.03c0.46-0.75,0.71-1.58,0.81-2.45c0.19-1.61,0.11-3.21,0.01-4.82
		c-0.04-0.71-0.11-1.42-0.16-2.13c-0.02-0.23-0.02-0.23,0.23-0.24c0.31-0.01,0.62-0.03,0.92-0.05c0.14-0.01,0.18,0.04,0.18,0.18
		c0.01,0.77,0.02,1.54,0.06,2.3c0.06,0.95,0.2,1.88,0.51,2.79c0.52,1.53,1.56,2.48,3.12,2.85c1.56,0.37,3.07,0.21,4.52-0.49
		c1.19-0.58,1.89-1.56,2.27-2.8c0.32-1.06,0.4-2.15,0.42-3.24C29.18,11.65,29.18,11.08,29.18,10.49z"/>
	<path class="st5" d="M19.12,14.56c0.39,0.22,0.74,0.43,1.11,0.61c0.83,0.41,1.71,0.6,2.63,0.69c0.79,0.07,1.57,0.07,2.35-0.04
		c1.23-0.17,2.29-0.68,3.16-1.58c0.01-0.01,0.02-0.01,0.05-0.01c-0.08,0.56-0.21,1.09-0.43,1.61c-0.44,1.04-1.21,1.73-2.26,2.11
		c-1.22,0.44-2.46,0.51-3.71,0.2c-1.44-0.36-2.3-1.32-2.69-2.73C19.26,15.14,19.19,14.87,19.12,14.56z"/>
</g>
</svg>
