<?xml version="1.0" encoding="utf-8"?>
<!-- Generator: Adobe Illustrator 27.3.1, SVG Export Plug-In . SVG Version: 6.00 Build 0)  -->
<svg version="1.1" id="Layer_1" xmlns="http://www.w3.org/2000/svg" xmlns:xlink="http://www.w3.org/1999/xlink" x="0px" y="0px"
	 viewBox="0 0 50 50" style="enable-background:new 0 0 50 50;" xml:space="preserve">
<style type="text/css">
	.st0{fill:none;}
	.st1{stroke:#000000;stroke-miterlimit:10;}
	.st2{stroke:#000000;stroke-width:0.75;stroke-miterlimit:10;}
	.st3{clip-path:url(#SVGID_00000001664931043004320200000000557996684407685522_);}
	.st4{clip-path:url(#SVGID_00000154409063959459287890000017677454173389420432_);}
	.st5{fill:#FFFFFF;}
	.st6{clip-path:url(#SVGID_00000039851672337023040010000011291608249209393580_);}
	.st7{fill:#231F20;}
	.st8{clip-path:url(#SVGID_00000096031355452994363960000008797778638380601522_);}
	.st9{clip-path:url(#SVGID_00000036931819059238179620000006221121406397102521_);}
	.st10{clip-path:url(#SVGID_00000127044292133430070970000000033215737301017237_);}
	.st11{clip-path:url(#SVGID_00000125570575116062329340000006314857539045261210_);}
	.st12{clip-path:url(#SVGID_00000092449274162895270800000008561340508637177015_);}
	.st13{clip-path:url(#SVGID_00000060726749973642145550000006631605393467505853_);}
	.st14{clip-path:url(#SVGID_00000016781422414153810960000014976130254687109814_);}
	.st15{clip-path:url(#SVGID_00000160185930180537761000000011776174615583646876_);}
	.st16{clip-path:url(#SVGID_00000055693543448795357320000006017505378714879872_);}
	.st17{clip-path:url(#SVGID_00000094620116919367475980000001028958280314005159_);}
	.st18{clip-path:url(#SVGID_00000025445122845282607110000005535731868505300866_);}
	.st19{clip-path:url(#SVGID_00000047048300504240185010000010326812889743298215_);}
	.st20{clip-path:url(#SVGID_00000173866261235698323400000002831437186387953290_);}
	.st21{clip-path:url(#SVGID_00000136413623884707040340000000185005815697146806_);}
	.st22{clip-path:url(#SVGID_00000151509773921034038900000006143166050932381841_);}
	.st23{clip-path:url(#SVGID_00000176016404272747555000000006816422511850302083_);}
	.st24{clip-path:url(#SVGID_00000023275292121320372000000004993851198768167061_);}
	.st25{clip-path:url(#SVGID_00000173153265025068144520000000702559131781476274_);}
	.st26{clip-path:url(#SVGID_00000145773254638300366660000009865695325122675851_);}
	.st27{clip-path:url(#SVGID_00000090977637954458788930000008116522136065281167_);}
	.st28{clip-path:url(#SVGID_00000136405705958960382870000006757710374466203806_);}
	.st29{clip-path:url(#SVGID_00000127013143438315466130000016039347433188482212_);}
	.st30{clip-path:url(#SVGID_00000157275260765069396880000000387393030842849975_);}
	.st31{fill-rule:evenodd;clip-rule:evenodd;}
	.st32{clip-path:url(#SVGID_00000049209917448253119140000017113657726225000835_);}
	.st33{clip-path:url(#SVGID_00000170255959283067537850000013423792556537063078_);}
	.st34{stroke:#000000;stroke-width:0.5;stroke-miterlimit:10;}
	.st35{clip-path:url(#SVGID_00000087399249277415407730000013481740825169260425_);}
	.st36{clip-path:url(#SVGID_00000006680998037257877820000008062939965838170010_);}
	.st37{clip-path:url(#SVGID_00000120520471276013290340000018279376426192851617_);}
	.st38{fill:#1A1A1A;}
	.st39{clip-path:url(#SVGID_00000176011751693731932590000018292953416814084234_);}
	.st40{clip-path:url(#SVGID_00000026151913284775752370000007614321282538264766_);}
	.st41{clip-path:url(#SVGID_00000091007534504225865200000010750061257321860508_);}
	.st42{clip-path:url(#SVGID_00000116927733798105799920000007852365164716257184_);}
	.st43{clip-path:url(#SVGID_00000101064365938454342800000004388234087556689832_);}
	.st44{clip-path:url(#SVGID_00000040552855274881744840000005876725007213659806_);}
	.st45{clip-path:url(#SVGID_00000153696191294224556750000002046899634787122879_);}
	.st46{clip-path:url(#SVGID_00000003090566713426302930000008717872515599177868_);}
	.st47{clip-path:url(#SVGID_00000031907939622824745840000005421291789889520054_);}
	.st48{fill:#F1F1F1;}
	.st49{fill:#E8E8E8;}
	.st50{fill:#FEFEFE;}
	.st51{fill:#CCCCCC;}
	.st52{fill:#B3B3B3;}
	.st53{fill:#E6E6E6;}
	.st54{fill:#EBEBEB;}
	.st55{fill:#EEEEEE;}
	.st56{fill:#F8F8F8;}
	.st57{fill:#FBFBFB;}
	.st58{fill:#383838;}
	.st59{fill:#232323;}
	.st60{fill:#F6F6F6;}
	.st61{fill:#535353;}
	.st62{fill:#0A0A0A;}
	.st63{fill:#F5F5F5;}
	.st64{fill:#818181;}
	.st65{fill:#4A4A4A;}
	.st66{fill:#999999;}
	.st67{fill:url(#SVGID_00000117641130356348463980000005617811402655681689_);}
	.st68{fill:url(#SVGID_00000121237134620651776800000002046932296578790548_);}
	.st69{fill:#0E0E0D;}
	.st70{fill:#333333;}
	.st71{fill:#808080;}
	.st72{fill:url(#SVGID_00000006693329099602945330000010936476113024224656_);}
	.st73{fill:#666666;}
	.st74{fill:url(#SVGID_00000172431114777171072620000000400307497475476112_);}
	.st75{fill:url(#SVGID_00000170260092347509982230000016990742400560760504_);}
	.st76{fill:url(#SVGID_00000166663454047259643230000011007179176613545916_);}
	.st77{fill:url(#SVGID_00000114074041706120632970000006145288093099668627_);}
	.st78{fill:url(#SVGID_00000018943465861406005050000004061423394711946681_);}
	.st79{clip-path:url(#SVGID_00000145741294281287339540000003209353414001724824_);}
	.st80{clip-path:url(#SVGID_00000116233957923482792870000014670452700621267884_);}
	.st81{clip-path:url(#SVGID_00000142856435491507835790000013910117429965119421_);}
	.st82{clip-path:url(#SVGID_00000137831732298197997850000011195029049828086677_);}
	.st83{clip-path:url(#SVGID_00000039125714982467080980000011701493770709780099_);}
	.st84{fill:#241F20;stroke:#000000;stroke-width:0.5;stroke-miterlimit:10;}
	.st85{clip-path:url(#SVGID_00000183230474086126634590000012147802650564531124_);}
	.st86{clip-path:url(#SVGID_00000144321042100822183450000017348806623962846103_);}
	.st87{clip-path:url(#SVGID_00000017493898459728716300000009899514153158514074_);}
	.st88{clip-path:url(#SVGID_00000062156759734371829540000005118307668804764828_);}
	.st89{clip-path:url(#SVGID_00000132069668943204189540000009435586384267582139_);}
	.st90{clip-path:url(#SVGID_00000133509787154970478860000007125745332884602762_);}
	.st91{clip-path:url(#SVGID_00000096058916387566239880000007864820064137223817_);}
	.st92{clip-path:url(#SVGID_00000008867220423031959370000000749923442482685589_);}
	.st93{clip-path:url(#SVGID_00000020374329495384567750000006069090489635622813_);}
	.st94{clip-path:url(#SVGID_00000110439712567970744520000013348836568648101016_);}
	.st95{clip-path:url(#SVGID_00000118390365171812326210000016411543096631756444_);}
	.st96{clip-path:url(#SVGID_00000080891986415676100670000011780954222361693578_);}
	.st97{clip-path:url(#SVGID_00000157275249931904236350000016640906617013520010_);}
	.st98{clip-path:url(#SVGID_00000078745121701698696580000014919378603682870165_);}
	.st99{clip-path:url(#SVGID_00000033365891255147384950000009100091795964675006_);}
	.st100{clip-path:url(#SVGID_00000003087618452776183770000000479724110115008659_);}
	.st101{clip-path:url(#SVGID_00000049193388129876751270000005160763867523892117_);}
	.st102{clip-path:url(#SVGID_00000127037878888222386880000006109287972438005165_);}
	.st103{clip-path:url(#SVGID_00000016787075031615363450000005604711897816980376_);}
	.st104{clip-path:url(#SVGID_00000074441393946396712690000015180030524620733333_);}
	.st105{clip-path:url(#SVGID_00000091729628486375049580000016383048471097226431_);}
	.st106{clip-path:url(#SVGID_00000031893496327593559570000016008311636254782129_);}
	.st107{clip-path:url(#SVGID_00000006679677192684710300000011731042242066457233_);}
	.st108{clip-path:url(#SVGID_00000096759694168929607680000007714033345872274060_);}
	.st109{clip-path:url(#SVGID_00000129900025134901549700000015926526784255184287_);}
	.st110{clip-path:url(#SVGID_00000005976532231589933170000009812156255515794049_);}
	.st111{clip-path:url(#SVGID_00000155120323618075983730000005160922260113167269_);}
	.st112{clip-path:url(#SVGID_00000117645861294098726450000012615648948900906379_);}
	.st113{clip-path:url(#SVGID_00000174560265058287677770000000211812294728673964_);}
	.st114{clip-path:url(#SVGID_00000068637000927841238000000006908346869060461184_);}
	.st115{fill:#FFFFFF;stroke:#000000;stroke-miterlimit:10;}
	.st116{clip-path:url(#SVGID_00000116200507507646245650000006444364318059310478_);}
	.st117{clip-path:url(#SVGID_00000089541356853645454490000005157659976646893238_);}
	.st118{fill:none;stroke:#010101;stroke-miterlimit:10;}
	.st119{fill:#010101;stroke:#000000;stroke-miterlimit:10;}
	.st120{clip-path:url(#SVGID_00000116224251210943979760000007102992100547879585_);}
	.st121{fill:#010101;stroke:#010101;stroke-miterlimit:10;}
	.st122{clip-path:url(#SVGID_00000150068088497509041330000011350479793096316292_);}
	.st123{clip-path:url(#SVGID_00000013873864039952139760000013752199646889748391_);}
	.st124{clip-path:url(#SVGID_00000159461651539521793640000007082912407624453015_);}
	.st125{clip-path:url(#SVGID_00000149375341728840759850000006428308310559822500_);}
	.st126{clip-path:url(#SVGID_00000005250974567778450750000006566570222028280978_);}
	.st127{fill:none;stroke:#000000;stroke-width:3;stroke-miterlimit:10;}
	.st128{clip-path:url(#SVGID_00000182520602566835651240000012275584329270412433_);}
	.st129{clip-path:url(#SVGID_00000165946966653067392980000009075686329018364072_);}
	.st130{clip-path:url(#SVGID_00000023245662852376288880000010730520621027011996_);}
	.st131{clip-path:url(#SVGID_00000041264587902474389550000014646232685938105985_);}
	.st132{fill:#040606;}
	.st133{clip-path:url(#SVGID_00000148623174251165504670000011320507460497717405_);}
	.st134{clip-path:url(#SVGID_00000155146489837485053400000017901698128679995060_);}
	.st135{clip-path:url(#SVGID_00000094583785287980978350000009077088446485189030_);}
	.st136{clip-path:url(#SVGID_00000121259862915058615060000013295422695620656806_);}
	.st137{clip-path:url(#SVGID_00000041290406581864948650000008458009272360201875_);}
	.st138{clip-path:url(#SVGID_00000042712881884914879220000014645336036616747186_);}
	.st139{clip-path:url(#SVGID_00000157991988089765457880000003520559017530379653_);}
	.st140{fill:#FFFFFF;stroke:#000000;stroke-width:1.5;stroke-miterlimit:10;}
	.st141{clip-path:url(#SVGID_00000062891658880511464030000016457819704287097503_);}
	.st142{fill:#BDBCBC;}
	.st143{clip-path:url(#SVGID_00000111912126683381646700000008447550260701612929_);}
	.st144{fill:#2E2A2B;}
	.st145{clip-path:url(#SVGID_00000169528101949060363350000014148053400257637789_);}
	.st146{clip-path:url(#SVGID_00000005236169384693611670000018398374237706584251_);}
	.st147{clip-path:url(#SVGID_00000034801683648327715760000014968630413184104876_);}
	.st148{clip-path:url(#SVGID_00000049926116128960428720000017818281696720073630_);}
	.st149{clip-path:url(#SVGID_00000148621056646890733430000003284850083972372670_);}
	.st150{fill:#272324;}
	.st151{clip-path:url(#SVGID_00000094607470086743819350000014277542364200041121_);}
	.st152{clip-path:url(#SVGID_00000013163437755694732970000013746402387584675722_);}
	.st153{clip-path:url(#SVGID_00000046332552380838496940000018387286643481052071_);}
	.st154{clip-path:url(#SVGID_00000080164957521737419270000009552617555698971277_);}
	.st155{clip-path:url(#SVGID_00000102520457183433306950000007932760262694586537_);}
	.st156{clip-path:url(#SVGID_00000055671639176379439880000013286177733431988909_);}
	.st157{fill:none;stroke:#000000;stroke-width:0.8735;stroke-linecap:round;stroke-linejoin:round;stroke-miterlimit:10;}
	.st158{clip-path:url(#SVGID_00000116228509790999786590000010406673770200423833_);}
	.st159{clip-path:url(#SVGID_00000085945618148605463020000013216549445386946492_);}
	.st160{clip-path:url(#SVGID_00000177473227736183188410000013556748855625108626_);}
	.st161{clip-path:url(#SVGID_00000160884198714544205750000001578320101652678039_);}
	.st162{clip-path:url(#SVGID_00000157301067223004921800000002270402317119266995_);}
	.st163{clip-path:url(#SVGID_00000003813703105411534310000017382335049288765330_);}
	.st164{clip-path:url(#SVGID_00000172440991661000154850000005679172691923022246_);}
	.st165{clip-path:url(#SVGID_00000173872205911442148530000002210507532807609768_);}
	.st166{clip-path:url(#SVGID_00000021083056151619448510000014211847531131320714_);}
	.st167{clip-path:url(#SVGID_00000104674275848397390870000010821227287604958869_);}
	.st168{clip-path:url(#SVGID_00000065064039278806986310000004574372990396720778_);}
	.st169{clip-path:url(#SVGID_00000057867708165946630790000001712502844340609716_);}
	.st170{clip-path:url(#SVGID_00000114764215049560177370000014566734358723074995_);}
	.st171{clip-path:url(#SVGID_00000023972326126304003460000018194810031609111732_);}
	.st172{clip-path:url(#SVGID_00000165235600490638174630000010408177426706017931_);}
	.st173{clip-path:url(#SVGID_00000138549055903730355470000010330488877362660520_);}
	.st174{clip-path:url(#SVGID_00000129163266019161544580000011408866567628286376_);}
	.st175{clip-path:url(#SVGID_00000171710986740450830010000005247275451563692967_);}
	.st176{clip-path:url(#SVGID_00000106108268880261259180000012787888191529830585_);}
	.st177{clip-path:url(#SVGID_00000160165774516036378300000014849390203753471924_);}
	.st178{clip-path:url(#SVGID_00000054965505925408060040000008529856463626327481_);}
	.st179{clip-path:url(#SVGID_00000134967287631543250710000017248548819219563927_);}
	.st180{clip-path:url(#SVGID_00000079486835688738461790000018070429594465394582_);}
	.st181{clip-path:url(#SVGID_00000057136873259155081170000004952016835877903263_);}
	.st182{clip-path:url(#SVGID_00000076568600493362481260000004900572616401381814_);}
	.st183{clip-path:url(#SVGID_00000065769991764218578560000011338372853569003195_);}
	.st184{clip-path:url(#SVGID_00000137818405964557398720000016160021689931831209_);}
	.st185{clip-path:url(#SVGID_00000002364972181563595370000002754309956405465222_);}
	.st186{clip-path:url(#SVGID_00000036947808366201902250000013695563900295109775_);}
	.st187{clip-path:url(#SVGID_00000176024806711670289410000007818480994542674820_);}
	.st188{clip-path:url(#SVGID_00000081647959253514746140000012629492840456988579_);}
	.st189{clip-path:url(#SVGID_00000093896206795384801980000018334998807577780151_);}
	.st190{clip-path:url(#SVGID_00000041995308668773253420000007590548444669874096_);}
	.st191{clip-path:url(#SVGID_00000172412085939766470070000001667430489101952410_);}
	.st192{clip-path:url(#SVGID_00000109717244221868172190000011606850052202848958_);}
	.st193{clip-path:url(#SVGID_00000038396577153922673910000011983170456936232845_);}
	.st194{clip-path:url(#SVGID_00000050659886264047610130000012623145864276614053_);}
	.st195{clip-path:url(#SVGID_00000147934353373139084560000009564648883810479786_);}
	.st196{fill:#E5E5E5;}
	.st197{fill:#1D1D1B;}
	.st198{fill:none;stroke:#000000;stroke-miterlimit:10;}
	.st199{fill:#FEFEFE;stroke:#000000;stroke-miterlimit:10;}
	.st200{clip-path:url(#SVGID_00000016061973880947173630000016842433758421812640_);}
	.st201{clip-path:url(#SVGID_00000092447628994203434360000013899762428523477167_);}
	.st202{clip-path:url(#SVGID_00000021821221820101412370000000913975614693429145_);}
	.st203{fill:#231F1F;}
	.st204{fill:#020000;}
	.st205{clip-path:url(#SVGID_00000097477593002877276050000008332676741896926892_);}
	.st206{clip-path:url(#SVGID_00000026135402626959411540000014069975395858926979_);}
	.st207{clip-path:url(#SVGID_00000043417565319746318130000013211476374745865607_);}
	.st208{clip-path:url(#SVGID_00000122701406593280645120000018436063835644369815_);}
	.st209{fill:#050000;}
	.st210{clip-path:url(#SVGID_00000007386333835603217660000013776518972754268570_);}
	.st211{clip-path:url(#SVGID_00000078025745524070740860000007372816279201943962_);}
	.st212{clip-path:url(#SVGID_00000034806546030274474600000010829237292060889758_);}
	.st213{clip-path:url(#SVGID_00000080921231210643675550000017467940008991121324_);}
	.st214{clip-path:url(#SVGID_00000150809994769377177020000005658462870566975408_);}
	.st215{clip-path:url(#SVGID_00000015319562086013791910000000359222785959101600_);}
	.st216{fill:#12100F;}
	.st217{clip-path:url(#SVGID_00000168097652377349490530000011885792339837333914_);}
	.st218{clip-path:url(#SVGID_00000003104312421478132270000013470231288345760953_);}
	.st219{fill:none;stroke:#000000;stroke-width:0.5;stroke-miterlimit:10;}
	.st220{clip-path:url(#SVGID_00000165955886386433811770000001635463190568971668_);}
	.st221{clip-path:url(#SVGID_00000053531771957813632530000010908848078948997808_);}
	.st222{clip-path:url(#SVGID_00000161614414422993981240000013300211897328685231_);}
	.st223{clip-path:url(#SVGID_00000045582470872562515150000008326072005530195082_);}
	.st224{fill:none;stroke:#000000;stroke-width:0.25;stroke-miterlimit:10;}
	.st225{clip-path:url(#SVGID_00000004526932610810602250000000972140760305887119_);}
	.st226{clip-path:url(#SVGID_00000157266680042892612570000000110505155613038470_);}
	.st227{clip-path:url(#SVGID_00000008830461286652540450000001909742265312598164_);}
</style>
<g>
	<g>
		<defs>
			<rect id="SVGID_00000078031167827437348350000018204331174350196407_" x="6.13" y="5.92" width="38.87" height="40.78"/>
		</defs>
		<clipPath id="SVGID_00000183930764747483094460000009695820034603205255_">
			<use xlink:href="#SVGID_00000078031167827437348350000018204331174350196407_"  style="overflow:visible;"/>
		</clipPath>
		<g style="clip-path:url(#SVGID_00000183930764747483094460000009695820034603205255_);">
			<path d="M25.68,34.14c-0.16,1.32-0.32,2.59-0.46,3.87c-0.18,1.61-0.27,3.23-0.49,4.84c-0.13,0.95-0.33,1.9-0.6,2.82
				c-0.13,0.45-0.39,0.7-0.91,0.7c-1.75,0-3.49,0.05-5.24-0.01c-0.97-0.03-1.94-0.16-2.9-0.31c-1.23-0.18-2.47-0.33-3.69-0.55
				c-0.43-0.08-0.86-0.18-1.29-0.27c-0.48-0.11-0.9-0.33-1.32-0.58c-0.11-0.06-0.21-0.14-0.29-0.24c-0.5-0.62-1.04-1.21-1.5-1.86
				c-0.41-0.59-0.72-1.23-0.8-1.96c-0.06-0.54,0-1.09,0.07-1.63c0.12-0.93,0.21-1.87,0.23-2.82c0.02-0.92,0.02-1.84,0.07-2.76
				c0.04-0.86,0.12-1.71,0.2-2.57c0.11-1.1,0.24-2.21,0.36-3.31c0.21-1.99,0.47-3.97,0.91-5.93c0.49-2.19,0.92-4.39,1.21-6.61
				c0.19-1.43,0.55-2.82,1-4.18c0.39-1.19,0.69-2.42,1-3.63c0.07-0.25,0.13-0.51,0.2-0.76c0.07-0.24,0.12-0.28,0.38-0.29
				c0.43-0.01,0.86,0.05,1.28,0.09c0.92,0.08,1.83,0.19,2.75,0.29c1.2,0.13,2.38,0.34,3.56,0.54c1.09,0.19,2.2,0.3,3.3,0.37
				c1.46,0.08,2.93,0.07,4.39,0.04c1.09-0.02,2.17-0.13,3.25-0.27c1.72-0.21,3.44-0.47,5.16-0.68c1.26-0.15,2.52-0.28,3.76-0.51
				C39.57,5.92,39.71,6,39.84,6.3c0.27,0.6,0.43,1.23,0.5,1.88c0.07,0.67,0.18,1.33,0.38,1.97c0.3,0.97,0.45,1.98,0.57,2.99
				c0.2,1.58,0.37,3.16,0.56,4.74c0.2,1.64,0.49,3.27,0.79,4.9c0.41,2.25,0.76,4.5,1.05,6.77c0.2,1.62,0.35,3.25,0.5,4.87
				c0.17,1.79,0.38,3.58,0.72,5.35c0.08,0.43,0.03,0.83-0.13,1.23c-0.16,0.38-0.35,0.74-0.55,1.1c-0.22,0.38-0.41,0.78-0.59,1.18
				c-0.06,0.12-0.12,0.24-0.18,0.37c-0.34,0.74-0.91,1.22-1.68,1.45c-0.94,0.29-1.9,0.51-2.88,0.6c-0.9,0.08-1.79,0.2-2.67,0.35
				c-0.54,0.09-1.08,0.15-1.62,0.16c-0.71,0.02-1.42,0.12-2.12,0.21c-0.4,0.05-0.81,0.11-1.22,0.1c-0.56-0.02-1.11,0.08-1.65,0.15
				c-0.06,0.01-0.12,0.02-0.19,0.02c-0.93,0.02-1.23-0.26-1.51-0.91c-0.34-0.82-0.55-1.67-0.71-2.54c-0.36-1.99-0.78-3.97-1.11-5.96
				c-0.16-0.95-0.26-1.91-0.35-2.87C25.76,34.33,25.78,34.24,25.68,34.14z M28.9,43.73c0.44-0.01,0.88-0.05,1.32-0.06
				c1.37-0.03,2.74-0.16,4.1-0.32c1.96-0.24,3.9-0.64,5.83-1.06c0.87-0.19,1.49-0.64,1.9-1.43c0.5-0.97,0.99-1.94,1.47-2.92
				c0.15-0.3,0.27-0.61,0.4-0.92c0.05-0.12,0.06-0.24,0.05-0.37c-0.12-1.12-0.24-2.23-0.35-3.34c-0.14-1.37-0.26-2.73-0.44-4.09
				c-0.31-2.36-0.69-4.7-1.12-7.04c-0.27-1.47-0.52-2.95-0.71-4.44c-0.2-1.62-0.38-3.24-0.57-4.86c-0.13-1.13-0.38-2.23-0.71-3.31
				C40,9.33,40,9.33,39.77,9.37c-0.37,0.07-0.75,0.1-1.12,0.12c-0.61,0.03-1.21,0.09-1.8,0.24c-0.72,0.19-1.44,0.38-2.17,0.51
				c-1.05,0.19-2.11,0.31-3.16,0.48c-1.39,0.23-2.77,0.41-4.18,0.4c-0.18,0-0.35,0.03-0.53,0.04c-0.13,0.01-0.16,0.07-0.12,0.19
				c0.01,0.04,0.03,0.08,0.05,0.12c0.52,1.25,0.65,2.57,0.8,3.89c0.01,0.08,0,0.17-0.03,0.25c-0.04,0.08-0.09,0.14-0.19,0.15
				c-0.09,0.01-0.16-0.04-0.2-0.12c-0.06-0.11-0.08-0.24-0.09-0.37c-0.06-0.68-0.15-1.35-0.27-2.02c-0.11-0.63-0.32-1.23-0.56-1.83
				c-0.07-0.17-0.16-0.26-0.35-0.24c-0.17,0.01-0.34,0-0.5,0.01c-0.31,0-0.32,0.01-0.42,0.31c-0.21,0.66-0.33,1.34-0.4,2.03
				c-0.06,0.6-0.11,1.21-0.17,1.81c-0.01,0.08-0.02,0.17-0.05,0.25c-0.03,0.09-0.1,0.16-0.21,0.15c-0.11-0.01-0.17-0.08-0.19-0.18
				c-0.02-0.08-0.02-0.17-0.02-0.25c0.01-0.2,0.04-0.39,0.05-0.59c0.08-1.11,0.2-2.21,0.51-3.28c0.06-0.21,0.05-0.23-0.17-0.26
				c-0.58-0.09-1.16-0.15-1.75-0.17c-0.89-0.03-1.78-0.01-2.67-0.06c-0.63-0.03-1.25-0.09-1.88-0.16c-1.36-0.15-2.71-0.42-4.05-0.7
				c-0.84-0.18-1.67-0.4-2.5-0.61c-0.24-0.06-0.25-0.05-0.33,0.19c-0.11,0.33-0.21,0.66-0.32,0.99c-0.45,1.42-0.86,2.85-1.06,4.33
				C9.43,17.22,9,19.45,8.5,21.65c-0.36,1.61-0.61,3.23-0.79,4.87c-0.17,1.46-0.32,2.91-0.47,4.37c-0.13,1.3-0.26,2.61-0.24,3.92
				c0.01,0.81-0.02,1.61-0.09,2.42c-0.03,0.33,0,0.62,0.17,0.9c0.05,0.08,0.09,0.17,0.13,0.25c0.67,1.23,1.5,2.34,2.43,3.38
				c0.42,0.47,0.91,0.84,1.55,0.95c0.11,0.02,0.22,0.05,0.34,0.07c1.26,0.24,2.55,0.34,3.83,0.43c1.22,0.09,2.44,0.16,3.66,0.22
				c0.52,0.02,1.05,0.03,1.57,0.07c1.07,0.07,2.16,0.02,3.23,0.11c0.24,0.02,0.27-0.01,0.31-0.25c0.06-0.36,0.12-0.72,0.16-1.09
				c0.13-1.27,0.26-2.54,0.38-3.81c0.13-1.37,0.3-2.73,0.47-4.09c0.19-1.54,0.34-3.08,0.36-4.63c0.01-0.66,0.03-1.32,0.05-1.98
				c0-0.05,0-0.11,0.01-0.15c0.02-0.09,0.07-0.15,0.16-0.17c0.09-0.02,0.16,0.02,0.22,0.09c0.08,0.08,0.08,0.19,0.08,0.3
				c0.01,0.64,0.04,1.28,0.04,1.92c0,1.7,0.02,3.39,0.2,5.08c0.1,0.93,0.2,1.85,0.37,2.77c0.24,1.29,0.48,2.57,0.72,3.86
				c0.13,0.69,0.26,1.38,0.39,2.07c0.05,0.24,0.06,0.24,0.31,0.23C28.35,43.73,28.62,43.73,28.9,43.73z M6.69,40.22
				c-0.05,0.08-0.03,0.13-0.02,0.18c0.06,0.73,0.35,1.37,0.78,1.96c0.38,0.5,0.79,0.97,1.18,1.47c0.36,0.47,0.83,0.75,1.4,0.9
				c0.61,0.16,1.22,0.27,1.85,0.37c1.07,0.17,2.15,0.31,3.23,0.47c1.45,0.22,2.91,0.35,4.37,0.35c0.98,0,1.97,0,2.95-0.01
				c0.29,0,0.58-0.03,0.88-0.04c0.17-0.01,0.28-0.08,0.33-0.24c0.02-0.08,0.05-0.16,0.08-0.24c0.08-0.28,0.05-0.32-0.23-0.32
				c-1.33,0.01-2.65-0.06-3.98-0.12c-0.85-0.04-1.69-0.08-2.54-0.12c-1.4-0.06-2.79-0.19-4.18-0.39c-0.82-0.12-1.63-0.25-2.42-0.51
				c-0.55-0.18-1.03-0.46-1.44-0.87c-0.42-0.42-0.78-0.87-1.13-1.34C7.42,41.22,7.07,40.73,6.69,40.22z M44.05,37.93
				c-0.05,0.11-0.11,0.22-0.17,0.33c-0.44,0.94-0.91,1.86-1.39,2.78c-0.47,0.91-1.17,1.51-2.2,1.7c-0.02,0-0.04,0.01-0.06,0.01
				c-1.25,0.29-2.51,0.56-3.78,0.77c-1.64,0.28-3.29,0.47-4.95,0.58c-1.06,0.07-2.11,0.08-3.17,0.08c-0.41,0-0.42,0.01-0.31,0.4
				c0,0.02,0.01,0.04,0.02,0.06c0.1,0.32,0.11,0.32,0.44,0.33c0.52,0.01,1.05-0.03,1.57-0.05c1.04-0.04,2.07-0.08,3.1-0.19
				c1.71-0.18,3.41-0.39,5.08-0.77c0.92-0.21,1.84-0.39,2.73-0.7c0.78-0.27,1.4-0.75,1.81-1.47c0.48-0.84,0.94-1.68,1.42-2.52
				c0.07-0.12,0.11-0.25,0.09-0.39c-0.05-0.28-0.09-0.56-0.13-0.84C44.14,38,44.14,37.93,44.05,37.93z M44.42,39.95
				c-0.14,0.07-0.16,0.19-0.22,0.29c-0.4,0.69-0.75,1.4-1.19,2.07c-0.4,0.61-0.94,1.03-1.61,1.3c-0.33,0.13-0.67,0.25-1.01,0.34
				c-1.73,0.45-3.48,0.82-5.26,1.05c-1.24,0.16-2.49,0.3-3.74,0.36c-0.88,0.04-1.75,0.09-2.63,0.08c-0.08,0-0.17,0-0.25,0
				c-0.13,0-0.16,0.06-0.11,0.18c0.15,0.42,0.31,0.54,0.76,0.56c0.12,0,0.25,0.01,0.38-0.01c0.65-0.1,1.31-0.14,1.97-0.16
				c0.27-0.01,0.54-0.04,0.81-0.07c0.75-0.08,1.49-0.2,2.25-0.23c0.54-0.02,1.09-0.07,1.62-0.16c0.76-0.14,1.53-0.26,2.3-0.32
				c1.03-0.08,2.02-0.3,3.02-0.56c0.76-0.2,1.3-0.64,1.61-1.37c0.29-0.67,0.64-1.32,1.01-1.95c0.14-0.24,0.25-0.5,0.34-0.77
				C44.53,40.38,44.53,40.18,44.42,39.95z M25.96,9.87c0.14,0.26,0.26,0.46,0.38,0.67c0.06,0.11,0.16,0.12,0.27,0.12
				c0.85-0.01,1.69-0.04,2.54-0.12c0.34-0.03,0.35-0.05,0.34-0.38c-0.02-0.7-0.11-1.4-0.19-2.09c-0.03-0.28-0.06-0.3-0.34-0.27
				c-0.9,0.1-1.81,0.13-2.72,0.15c-1.32,0.03-2.63,0-3.95-0.1c-0.31-0.02-0.33,0-0.4,0.31c-0.14,0.69-0.19,1.39-0.3,2.08
				c-0.03,0.2-0.01,0.22,0.19,0.23c0.9,0.04,1.8,0.08,2.68,0.22c0.17,0.03,0.28-0.03,0.34-0.2c0.03-0.08,0.07-0.15,0.1-0.23
				c0.05-0.12-0.01-0.16-0.12-0.13c-0.08,0.02-0.16,0.04-0.24,0.06c-0.4,0.11-0.8,0.18-1.21,0.18c-0.3,0.01-0.61,0-0.89-0.14
				C21.91,10,21.86,9.5,22.33,9.16c0.28-0.2,0.6-0.3,0.93-0.34c0.64-0.08,1.26,0.01,1.84,0.26C25.37,9.2,25.57,9.17,25.79,9
				c0.41-0.3,0.89-0.46,1.4-0.53c0.22-0.03,0.44-0.01,0.65,0.07c0.21,0.07,0.38,0.19,0.4,0.43c0.03,0.23-0.1,0.4-0.28,0.53
				c-0.24,0.17-0.51,0.24-0.78,0.3C26.79,9.89,26.4,9.85,25.96,9.87z M6.84,38.6c-0.09,0.21-0.06,0.36-0.1,0.5
				c-0.05,0.18-0.01,0.34,0.11,0.5c0.52,0.74,1.05,1.46,1.59,2.18c0.74,1,1.63,1.74,2.9,1.91c0.05,0.01,0.1,0.02,0.15,0.03
				c2.24,0.45,4.52,0.59,6.8,0.69c0.7,0.03,1.4,0.03,2.1,0.09c0.59,0.05,1.19,0.04,1.78,0.09c0.51,0.04,1.03,0.02,1.54,0.02
				c0.19,0,0.28-0.13,0.29-0.34c0-0.17-0.14-0.15-0.25-0.18c-0.07-0.02-0.15-0.02-0.22-0.02c-0.62-0.02-1.23-0.06-1.85-0.06
				c-1.31,0-2.61-0.09-3.92-0.16c-1.38-0.07-2.76-0.16-4.13-0.3c-0.83-0.08-1.66-0.18-2.48-0.37c-0.62-0.14-1.15-0.41-1.6-0.88
				c-0.91-0.95-1.72-1.97-2.37-3.11C7.08,39.01,6.97,38.83,6.84,38.6z M35.81,9.15c-0.05-0.65-0.11-1.29-0.12-1.94
				c0-0.22-0.05-0.25-0.28-0.22c-0.57,0.07-1.14,0.14-1.71,0.22c-0.3,0.04-0.31,0.06-0.31,0.35c0,0.08,0.01,0.17,0.01,0.25
				c0.05,0.6,0.11,1.19,0.17,1.78c0.03,0.29,0.06,0.33,0.35,0.28c0.53-0.08,1.05-0.17,1.57-0.3C35.82,9.49,35.82,9.49,35.81,9.15z
				 M19.22,7.72c0.03-0.15-0.02-0.23-0.18-0.26c-0.43-0.07-0.86-0.15-1.3-0.23C17.6,7.21,17.52,7.25,17.5,7.4
				c-0.01,0.06-0.02,0.12-0.03,0.18c-0.1,0.79-0.21,1.57-0.31,2.36c-0.02,0.2,0,0.23,0.21,0.26c0.46,0.06,0.91,0.11,1.37,0.16
				c0.25,0.03,0.28-0.01,0.3-0.27c0.01-0.23,0.02-0.46,0.05-0.69C19.14,8.85,19.18,8.28,19.22,7.72z M20.33,10.45c0,0,0,0.01,0,0.02
				c0.16,0,0.31,0,0.47,0c0.29,0,0.33-0.03,0.38-0.3C21.29,9.45,21.4,8.72,21.51,8c0.02-0.15-0.02-0.21-0.17-0.22
				c-0.45-0.05-0.91-0.12-1.36-0.17c-0.29-0.04-0.36,0.01-0.38,0.3c-0.02,0.27-0.04,0.54-0.05,0.81c-0.03,0.46-0.06,0.92-0.09,1.37
				c-0.01,0.29,0.03,0.34,0.34,0.36C19.97,10.46,20.15,10.45,20.33,10.45z M17.11,7.34c0.03-0.14-0.04-0.21-0.18-0.23
				c-0.38-0.05-0.77-0.1-1.15-0.14c-0.24-0.02-0.26,0-0.31,0.25C15.34,8,15.2,8.79,15.07,9.57c-0.03,0.2-0.01,0.24,0.2,0.28
				c0.39,0.08,0.78,0.16,1.17,0.22c0.22,0.04,0.26,0,0.3-0.21c0.06-0.33,0.1-0.66,0.15-0.99C16.96,8.36,17.03,7.85,17.11,7.34z
				 M15.09,7.13c0-0.2-0.05-0.25-0.28-0.28c-0.34-0.04-0.69-0.07-1.03-0.1c-0.27-0.03-0.32-0.02-0.38,0.25
				c-0.17,0.71-0.32,1.43-0.48,2.14c-0.04,0.16,0.02,0.23,0.17,0.26c0.42,0.09,0.84,0.18,1.26,0.27c0.24,0.05,0.27,0.03,0.31-0.22
				c0.11-0.56,0.21-1.11,0.31-1.67C15.01,7.56,15.05,7.33,15.09,7.13z M33.17,9.73c-0.06-0.72-0.11-1.44-0.17-2.15
				c-0.02-0.21-0.06-0.25-0.28-0.23c-0.4,0.05-0.81,0.1-1.21,0.17c-0.24,0.04-0.26,0.07-0.23,0.31c0.04,0.3,0.08,0.6,0.12,0.9
				c0.06,0.42,0.11,0.85,0.16,1.27c0.02,0.15,0.09,0.21,0.25,0.19c0.37-0.06,0.74-0.1,1.12-0.16C33.17,9.99,33.18,9.97,33.17,9.73z
				 M36.09,7.48c0.04,0.56,0.09,1.12,0.13,1.68c0.02,0.2,0.04,0.22,0.23,0.17c0.38-0.09,0.75-0.18,1.13-0.24
				c0.28-0.05,0.31-0.06,0.29-0.34c-0.05-0.59-0.04-1.17-0.05-1.76c0-0.26-0.05-0.3-0.3-0.27c-0.35,0.04-0.71,0.08-1.06,0.13
				c-0.37,0.05-0.39,0.07-0.38,0.46C36.09,7.37,36.09,7.42,36.09,7.48z M39.9,8.43c-0.05-0.53-0.13-1.13-0.36-1.7
				c-0.1-0.26-0.13-0.28-0.39-0.23c-0.2,0.03-0.41,0.07-0.62,0.1c-0.28,0.05-0.31,0.08-0.31,0.36c-0.01,0.61,0.04,1.21,0.06,1.82
				c0.01,0.21,0.05,0.24,0.28,0.24c0.34-0.01,0.69-0.04,1.03-0.11C39.93,8.84,39.93,8.83,39.9,8.43z M30.45,7.64
				c-0.16,0.02-0.31,0.04-0.47,0.06c-0.31,0.05-0.32,0.06-0.29,0.38c0.05,0.46,0.1,0.91,0.15,1.37c0.03,0.27,0.05,0.54,0.08,0.81
				c0.01,0.15,0.1,0.19,0.24,0.17c0.24-0.04,0.47-0.07,0.71-0.11c0.26-0.04,0.27-0.06,0.25-0.33c-0.07-0.67-0.14-1.33-0.21-1.99
				C30.86,7.61,30.86,7.61,30.45,7.64z M12.3,6.59c-0.38-0.02-0.43,0-0.48,0.22c-0.16,0.66-0.31,1.32-0.47,1.98
				C11.31,8.93,11.36,9,11.5,9.03c0.26,0.05,0.51,0.12,0.76,0.18c0.12,0.03,0.2-0.01,0.23-0.13c0.18-0.74,0.35-1.48,0.53-2.22
				c0.03-0.11,0-0.18-0.13-0.19C12.68,6.63,12.45,6.61,12.3,6.59z M24.9,9.55c-0.04-0.03-0.06-0.06-0.09-0.07
				c-0.49-0.18-0.99-0.23-1.51-0.18c-0.22,0.02-0.43,0.08-0.62,0.19c-0.07,0.04-0.16,0.09-0.15,0.18c0,0.1,0.1,0.12,0.18,0.15
				c0.12,0.04,0.24,0.06,0.37,0.07c0.35,0.02,0.69-0.02,1.02-0.1C24.36,9.74,24.63,9.7,24.9,9.55z M26.13,9.35
				c0.48,0.06,0.95,0.01,1.41-0.17c0.05-0.02,0.13-0.05,0.12-0.13c-0.01-0.1-0.11-0.08-0.18-0.09C26.99,8.93,26.55,9.07,26.13,9.35z
				 M25.56,10.72C25.56,10.72,25.56,10.72,25.56,10.72c0.04,0,0.08,0,0.12,0c0.16-0.02,0.17-0.04,0.1-0.2
				c-0.01-0.03-0.02-0.06-0.04-0.08c-0.07-0.1-0.09-0.28-0.22-0.26c-0.12,0.01-0.15,0.19-0.19,0.3c-0.09,0.21-0.06,0.24,0.17,0.25
				C25.52,10.72,25.54,10.72,25.56,10.72z"/>
		</g>
	</g>
	<path d="M25.61,16.43c0,0.82-0.03,1.64,0.01,2.45c0.08,2,0.12,4,0.13,6c0,0.3,0.04,0.61,0.05,0.91c0.01,0.24-0.07,0.36-0.2,0.37
		c-0.15,0.01-0.24-0.1-0.27-0.36c-0.04-0.32-0.05-0.65-0.06-0.97c-0.02-1.42-0.02-2.85-0.08-4.27c-0.06-1.68-0.12-3.37-0.09-5.05
		c0.01-0.75,0.07-1.49,0.02-2.23c-0.01-0.13,0.03-0.24,0.17-0.26c0.14-0.03,0.21,0.06,0.25,0.18c0.05,0.15,0.06,0.31,0.06,0.47
		c0,0.92,0,1.84,0,2.76C25.6,16.43,25.6,16.43,25.61,16.43z"/>
	<path d="M11.01,14.66c0.08-0.45,0.16-0.95,0.26-1.44c0.12-0.59,0.24-1.19,0.37-1.78c0.03-0.14,0.08-0.28,0.13-0.42
		c0.04-0.11,0.11-0.21,0.25-0.18c0.11,0.02,0.15,0.14,0.1,0.32c-0.3,1.09-0.45,2.21-0.65,3.33c-0.02,0.12-0.04,0.25-0.08,0.37
		c-0.03,0.11-0.09,0.2-0.22,0.18c-0.13-0.01-0.16-0.12-0.16-0.23C11.01,14.77,11.01,14.74,11.01,14.66z"/>
	<path d="M8.54,36.16c0,0.15-0.13,0.23-0.26,0.15c-0.04-0.03-0.08-0.07-0.11-0.11c-0.16-0.27-0.32-0.54-0.48-0.81
		c-0.02-0.03-0.02-0.06-0.03-0.09c-0.03-0.09-0.01-0.17,0.07-0.22c0.09-0.05,0.18-0.03,0.23,0.04c0.21,0.31,0.42,0.63,0.57,0.97
		C8.54,36.11,8.54,36.13,8.54,36.16z"/>
	<path d="M42.49,33.17c-0.13,0-0.21-0.1-0.19-0.22c0.01-0.08,0.05-0.16,0.08-0.24c0.11-0.24,0.22-0.48,0.33-0.71
		c0.04-0.09,0.12-0.16,0.23-0.12c0.12,0.04,0.15,0.15,0.1,0.26c-0.13,0.31-0.26,0.62-0.4,0.92C42.62,33.14,42.55,33.17,42.49,33.17z
		"/>
	<path d="M42.48,34.09c0.12-0.29,0.22-0.63,0.39-0.94c0.04-0.08,0.12-0.11,0.22-0.07c0.09,0.04,0.12,0.12,0.1,0.21
		c-0.1,0.34-0.21,0.67-0.38,0.99c-0.04,0.08-0.12,0.12-0.21,0.09C42.48,34.32,42.46,34.23,42.48,34.09z"/>
	<path d="M43.03,31.06c-0.01,0.03-0.02,0.08-0.05,0.13c-0.11,0.23-0.23,0.47-0.35,0.7c-0.02,0.04-0.04,0.07-0.07,0.1
		c-0.07,0.08-0.14,0.13-0.24,0.07c-0.08-0.05-0.1-0.13-0.08-0.22c0.01-0.04,0.02-0.08,0.04-0.12c0.12-0.23,0.23-0.47,0.35-0.7
		c0.03-0.05,0.07-0.1,0.11-0.14c0.05-0.04,0.11-0.05,0.18-0.02C43,30.9,43.03,30.96,43.03,31.06z"/>
	<path d="M42.88,35.06c-0.14,0.01-0.23-0.11-0.18-0.26c0.09-0.27,0.22-0.52,0.36-0.76c0.01-0.02,0.02-0.03,0.04-0.05
		c0.07-0.08,0.14-0.13,0.25-0.07c0.1,0.05,0.11,0.15,0.07,0.24c-0.11,0.26-0.23,0.51-0.35,0.76C43.02,34.99,42.96,35.05,42.88,35.06
		z"/>
	<path d="M8.19,38.19c0,0.07-0.02,0.12-0.08,0.16c-0.07,0.05-0.15,0.05-0.2,0c-0.21-0.2-0.39-0.43-0.53-0.69
		c-0.04-0.07-0.01-0.14,0.05-0.2c0.05-0.05,0.11-0.05,0.18-0.03C7.73,37.48,8.19,38.07,8.19,38.19z"/>
	<path d="M7.74,36.41c0.07,0,0.12,0.02,0.17,0.07c0.13,0.16,0.27,0.32,0.39,0.49c0.07,0.09,0.09,0.2,0,0.28
		c-0.1,0.09-0.2,0.05-0.28-0.03c-0.16-0.16-0.3-0.33-0.4-0.52C7.55,36.56,7.62,36.42,7.74,36.41z"/>
	<path d="M11.1,16.34c0,0.16-0.02,0.31-0.06,0.46c-0.02,0.1-0.08,0.17-0.2,0.16c-0.11-0.01-0.16-0.09-0.16-0.2
		c0.01-0.2,0.02-0.39,0.05-0.59c0.02-0.12,0.07-0.23,0.22-0.21c0.13,0.02,0.15,0.13,0.15,0.24C11.1,16.26,11.1,16.3,11.1,16.34z"/>
	<path d="M8.43,34.86c-0.01,0.13-0.13,0.21-0.25,0.14c-0.22-0.12-0.38-0.3-0.47-0.52c-0.06-0.13,0.08-0.28,0.2-0.21
		c0.22,0.12,0.39,0.3,0.51,0.53C8.43,34.82,8.42,34.84,8.43,34.86z"/>
	<path d="M42.68,30.34c-0.04,0.17-0.09,0.35-0.17,0.52c-0.04,0.09-0.12,0.15-0.23,0.11c-0.11-0.04-0.13-0.13-0.11-0.23
		c0.04-0.19,0.09-0.37,0.18-0.53c0.04-0.08,0.11-0.13,0.2-0.11C42.66,30.13,42.69,30.22,42.68,30.34z"/>
	<path d="M8.03,31.95c-0.01-0.1,0.02-0.17,0.11-0.21c0.08-0.03,0.15,0,0.2,0.06c0.11,0.14,0.17,0.31,0.22,0.48
		c0.02,0.07-0.01,0.14-0.09,0.18c-0.08,0.04-0.16,0.02-0.22-0.05C8.13,32.28,8.07,32.11,8.03,31.95z"/>
	<path d="M8.37,33.7c-0.16,0-0.44-0.33-0.42-0.49c0.01-0.11,0.13-0.19,0.23-0.14c0.17,0.09,0.3,0.23,0.36,0.41
		C8.57,33.61,8.48,33.7,8.37,33.7z"/>
	<path d="M8.42,31.45c-0.16,0.01-0.34-0.27-0.28-0.41c0.04-0.09,0.11-0.11,0.2-0.09c0.12,0.03,0.24,0.22,0.23,0.34
		C8.57,31.38,8.52,31.44,8.42,31.45z"/>
</g>
</svg>
