<?xml version="1.0" encoding="utf-8"?>
<!-- Generator: Adobe Illustrator 27.3.1, SVG Export Plug-In . SVG Version: 6.00 Build 0)  -->
<svg version="1.1" id="Layer_1" xmlns="http://www.w3.org/2000/svg" xmlns:xlink="http://www.w3.org/1999/xlink" x="0px" y="0px"
	 viewBox="0 0 50 50" style="enable-background:new 0 0 50 50;" xml:space="preserve">
<style type="text/css">
	.st0{fill:none;}
	.st1{stroke:#000000;stroke-miterlimit:10;}
	.st2{stroke:#000000;stroke-width:0.75;stroke-miterlimit:10;}
	.st3{clip-path:url(#SVGID_00000141430823604659787300000010344264769658029718_);}
	.st4{clip-path:url(#SVGID_00000087387478445348185410000001732423459822309565_);}
	.st5{fill:#FFFFFF;}
	.st6{clip-path:url(#SVGID_00000051366172559314935580000014823535200219965355_);}
	.st7{fill:#231F20;}
	.st8{clip-path:url(#SVGID_00000168095313936494600410000003921879220225917854_);}
	.st9{clip-path:url(#SVGID_00000067941132463081512530000011296695369006827662_);}
	.st10{clip-path:url(#SVGID_00000154409651248789340260000000986058906889837749_);}
	.st11{clip-path:url(#SVGID_00000134965800553395968260000013184789464721590929_);}
	.st12{clip-path:url(#SVGID_00000083802493998197516200000015911492122971375263_);}
	.st13{clip-path:url(#SVGID_00000093878371230414091070000009927484782844617365_);}
	.st14{clip-path:url(#SVGID_00000049914838885750962470000015439410183091502468_);}
	.st15{clip-path:url(#SVGID_00000148653960040152468870000012975654816058525573_);}
	.st16{clip-path:url(#SVGID_00000030473625421784790100000011813330783213234319_);}
	.st17{clip-path:url(#SVGID_00000134941841548326808340000014338404219132495747_);}
	.st18{clip-path:url(#SVGID_00000020388087406615042980000014000275267330911679_);}
	.st19{clip-path:url(#SVGID_00000064333755954978050030000011214767309063629458_);}
	.st20{clip-path:url(#SVGID_00000144339348671350878870000001611035318503658942_);}
	.st21{clip-path:url(#SVGID_00000062182766966854802700000010960750833816954018_);}
	.st22{clip-path:url(#SVGID_00000034055155490910866760000010603785161523550344_);}
	.st23{clip-path:url(#SVGID_00000172399570197486591570000006445863436761346956_);}
	.st24{clip-path:url(#SVGID_00000090987900707919788480000014915671373118657671_);}
	.st25{clip-path:url(#SVGID_00000150072305713571461620000003827446492723844236_);}
	.st26{clip-path:url(#SVGID_00000016760116102928736520000002310552942116544171_);}
	.st27{clip-path:url(#SVGID_00000036973478598327570190000016908844530181054110_);}
	.st28{clip-path:url(#SVGID_00000121980009097582427220000003759077956382106812_);}
	.st29{clip-path:url(#SVGID_00000023985357383487912510000002423376276439290792_);}
	.st30{clip-path:url(#SVGID_00000029039020467408342050000001401799269463154065_);}
	.st31{fill-rule:evenodd;clip-rule:evenodd;}
	.st32{clip-path:url(#SVGID_00000163768925811594125410000000992890212099243650_);}
	.st33{clip-path:url(#SVGID_00000045609448495351976730000010595117671928153476_);}
	.st34{stroke:#000000;stroke-width:0.5;stroke-miterlimit:10;}
	.st35{clip-path:url(#SVGID_00000062914701041993834130000014588607350179371174_);}
	.st36{clip-path:url(#SVGID_00000018959273302462358460000013046114348341791933_);}
	.st37{clip-path:url(#SVGID_00000183210907690694989760000008895921556384262547_);}
	.st38{fill:#1A1A1A;}
	.st39{clip-path:url(#SVGID_00000030458712937795681780000013698705359858155136_);}
	.st40{clip-path:url(#SVGID_00000031181759128158471880000006251865013464021141_);}
	.st41{clip-path:url(#SVGID_00000122687200327065465570000006953431022742118335_);}
	.st42{clip-path:url(#SVGID_00000145033251441375813910000016426698354703768466_);}
	.st43{clip-path:url(#SVGID_00000070085261791750854720000016994045490389393806_);}
	.st44{clip-path:url(#SVGID_00000150063100537275433140000006115066577052816537_);}
	.st45{clip-path:url(#SVGID_00000036249345283172306790000004650640807659409820_);}
	.st46{clip-path:url(#SVGID_00000003092066565154175510000008416010958911456396_);}
	.st47{clip-path:url(#SVGID_00000000919407069448253220000009385051008636602546_);}
	.st48{fill:#F1F1F1;}
	.st49{fill:#E8E8E8;}
	.st50{fill:#FEFEFE;}
	.st51{fill:#CCCCCC;}
	.st52{fill:#B3B3B3;}
	.st53{fill:#E6E6E6;}
	.st54{fill:#EBEBEB;}
	.st55{fill:#EEEEEE;}
	.st56{fill:#F8F8F8;}
	.st57{fill:#FBFBFB;}
	.st58{fill:#383838;}
	.st59{fill:#232323;}
	.st60{fill:#F6F6F6;}
	.st61{fill:#535353;}
	.st62{fill:#0A0A0A;}
	.st63{fill:#F5F5F5;}
	.st64{fill:#818181;}
	.st65{fill:#4A4A4A;}
	.st66{fill:#999999;}
	.st67{fill:url(#SVGID_00000000917174224978133920000002680574813349119632_);}
	.st68{fill:url(#SVGID_00000090988199489045865630000011970386248238064036_);}
	.st69{fill:#0E0E0D;}
	.st70{fill:#333333;}
	.st71{fill:#808080;}
	.st72{fill:url(#SVGID_00000021826130561217805260000000023669268190935180_);}
	.st73{fill:#666666;}
	.st74{fill:url(#SVGID_00000163039905865659132150000012639694385246067850_);}
	.st75{fill:url(#SVGID_00000103986244662236078510000011045319058066500254_);}
	.st76{fill:url(#SVGID_00000132804412666446160420000008334487243538119591_);}
	.st77{fill:url(#SVGID_00000075884450715425287250000006007748105248692615_);}
	.st78{fill:url(#SVGID_00000043417285721464446740000014776751006216848041_);}
	.st79{clip-path:url(#SVGID_00000101803749207381506650000001736786441468184448_);}
	.st80{clip-path:url(#SVGID_00000053506978820162383830000016592333521324326551_);}
	.st81{clip-path:url(#SVGID_00000101802216500744050860000014104209121230023093_);}
	.st82{clip-path:url(#SVGID_00000000915522155205453790000001591010613268158140_);}
	.st83{clip-path:url(#SVGID_00000129884000939264246120000006454912153557000334_);}
	.st84{fill:#241F20;stroke:#000000;stroke-width:0.5;stroke-miterlimit:10;}
	.st85{clip-path:url(#SVGID_00000181782385874810946790000001543609467393603765_);}
	.st86{clip-path:url(#SVGID_00000128460554360930991910000014738774354405320637_);}
	.st87{clip-path:url(#SVGID_00000179630563614016557810000014631710037642938005_);}
	.st88{clip-path:url(#SVGID_00000071538674339574771020000007624320691273868418_);}
	.st89{clip-path:url(#SVGID_00000023276814513245361890000008689731546626113713_);}
	.st90{clip-path:url(#SVGID_00000000203431027671640400000001265240182006253710_);}
	.st91{clip-path:url(#SVGID_00000003091366897661148560000014345834825766898825_);}
	.st92{clip-path:url(#SVGID_00000089537774609993559990000006242855424701180078_);}
	.st93{clip-path:url(#SVGID_00000158009446431054608980000011874992193798349706_);}
	.st94{clip-path:url(#SVGID_00000075841022973290614540000009772946735492829095_);}
	.st95{clip-path:url(#SVGID_00000169541055500533433390000013636661147752578452_);}
	.st96{clip-path:url(#SVGID_00000060751455715277326800000003051120558718658978_);}
	.st97{clip-path:url(#SVGID_00000119094124038307205720000003101656222953029300_);}
	.st98{clip-path:url(#SVGID_00000108276075394060476130000013694125817174210744_);}
	.st99{clip-path:url(#SVGID_00000036209943705316671760000000389962782382478995_);}
	.st100{clip-path:url(#SVGID_00000065076245688620030390000010394420851159470497_);}
	.st101{clip-path:url(#SVGID_00000075861863783510270080000001444874363222791830_);}
	.st102{clip-path:url(#SVGID_00000067220169785356155840000016790615826991277471_);}
	.st103{clip-path:url(#SVGID_00000056390161782789813980000010598490310936339620_);}
	.st104{clip-path:url(#SVGID_00000126306789717436500200000004207526718789513915_);}
	.st105{clip-path:url(#SVGID_00000182526073126396613840000006323099936746096037_);}
	.st106{clip-path:url(#SVGID_00000076573324389713957260000013405993862711680657_);}
	.st107{clip-path:url(#SVGID_00000108273274903679583700000014191035771665284763_);}
	.st108{clip-path:url(#SVGID_00000101068173828578715820000012311914415900788396_);}
	.st109{clip-path:url(#SVGID_00000147933520941875697410000008672893134066758844_);}
	.st110{clip-path:url(#SVGID_00000103237272697164046740000003877368553409528227_);}
	.st111{clip-path:url(#SVGID_00000139276843834052452290000012105374530915941530_);}
	.st112{clip-path:url(#SVGID_00000154395214284207711940000003577808068873154235_);}
	.st113{clip-path:url(#SVGID_00000173155035086032570770000018164648415461569154_);}
	.st114{clip-path:url(#SVGID_00000054978752052602870240000010469269580960617405_);}
	.st115{fill:#FFFFFF;stroke:#000000;stroke-miterlimit:10;}
	.st116{clip-path:url(#SVGID_00000078018879825954785980000004570384944632169624_);}
	.st117{clip-path:url(#SVGID_00000040533382302056587390000015908665063889318045_);}
	.st118{fill:none;stroke:#010101;stroke-miterlimit:10;}
	.st119{fill:#010101;stroke:#000000;stroke-miterlimit:10;}
	.st120{clip-path:url(#SVGID_00000073714279246401656740000017849280153078764432_);}
	.st121{fill:#010101;stroke:#010101;stroke-miterlimit:10;}
	.st122{clip-path:url(#SVGID_00000025404691017266912260000003616931258136671363_);}
	.st123{clip-path:url(#SVGID_00000158030249900748386330000010607650636204487854_);}
	.st124{clip-path:url(#SVGID_00000007388875265613458830000014035895741487548562_);}
	.st125{clip-path:url(#SVGID_00000026843885424800910260000004666573918238407346_);}
	.st126{clip-path:url(#SVGID_00000041289937465549312640000001617770407307665282_);}
	.st127{fill:none;stroke:#000000;stroke-width:3;stroke-miterlimit:10;}
	.st128{clip-path:url(#SVGID_00000158707139792882306230000018064846946689147536_);}
	.st129{clip-path:url(#SVGID_00000088832697743200738270000003745894459635916451_);}
	.st130{clip-path:url(#SVGID_00000023247811020693310640000012332400490950667928_);}
	.st131{clip-path:url(#SVGID_00000101807789924693744090000009161162788655680931_);}
	.st132{fill:#040606;}
	.st133{clip-path:url(#SVGID_00000164493200844309380660000007233045694459332234_);}
	.st134{clip-path:url(#SVGID_00000124866705605360603360000016477765864733907342_);}
	.st135{clip-path:url(#SVGID_00000020370282911635549050000011713924047471294353_);}
	.st136{clip-path:url(#SVGID_00000152239855286802277500000014578184041646467729_);}
	.st137{clip-path:url(#SVGID_00000011721134141869947290000002844834282255266466_);}
	.st138{clip-path:url(#SVGID_00000019638621206518625810000005799762985208434357_);}
	.st139{clip-path:url(#SVGID_00000011743948758484462640000010042868419689705919_);}
	.st140{fill:#FFFFFF;stroke:#000000;stroke-width:1.5;stroke-miterlimit:10;}
	.st141{clip-path:url(#SVGID_00000012463444034329872540000015355751696236145070_);}
	.st142{fill:#BDBCBC;}
	.st143{clip-path:url(#SVGID_00000152962587133729962400000007773083441587757720_);}
	.st144{fill:#2E2A2B;}
	.st145{clip-path:url(#SVGID_00000085226137968933854490000017933231876096473747_);}
	.st146{clip-path:url(#SVGID_00000029745274068612809070000004475640879843490193_);}
	.st147{clip-path:url(#SVGID_00000075130075331363411080000003945714128251907750_);}
	.st148{clip-path:url(#SVGID_00000083787441774436787500000003108195407575766940_);}
	.st149{clip-path:url(#SVGID_00000143594175270319845620000012659761897994114236_);}
	.st150{fill:#272324;}
	.st151{clip-path:url(#SVGID_00000160174791437309928870000016916737122549401242_);}
	.st152{clip-path:url(#SVGID_00000183210187495907234610000017253725839656535691_);}
	.st153{clip-path:url(#SVGID_00000052802626575963835930000002679907853526721173_);}
	.st154{clip-path:url(#SVGID_00000163034788066734276110000011434176387306037134_);}
	.st155{clip-path:url(#SVGID_00000064314868357071776860000005571033580100275897_);}
	.st156{clip-path:url(#SVGID_00000106142654677276618660000017344865341187442100_);}
	.st157{fill:none;stroke:#000000;stroke-width:0.8735;stroke-linecap:round;stroke-linejoin:round;stroke-miterlimit:10;}
	.st158{clip-path:url(#SVGID_00000140007474609581300900000014809228553881175714_);}
	.st159{clip-path:url(#SVGID_00000128465962521145440700000004569805561204837015_);}
	.st160{clip-path:url(#SVGID_00000145747919468652797780000009523063076360507311_);}
	.st161{clip-path:url(#SVGID_00000021800115809367577110000004466483680066907296_);}
	.st162{clip-path:url(#SVGID_00000181066320643588594880000001342679745731341502_);}
	.st163{clip-path:url(#SVGID_00000138560570677858299490000004924426592886657210_);}
	.st164{clip-path:url(#SVGID_00000168116941611663033150000014404354076186248110_);}
	.st165{clip-path:url(#SVGID_00000039101613591135541590000018317103251256739725_);}
	.st166{clip-path:url(#SVGID_00000036219738231013449320000017992742848851868038_);}
	.st167{clip-path:url(#SVGID_00000056408425131077259380000002923011202451859121_);}
	.st168{clip-path:url(#SVGID_00000176743702653169681080000003097294399795361464_);}
	.st169{clip-path:url(#SVGID_00000042018293381119912370000005245593952314286998_);}
	.st170{clip-path:url(#SVGID_00000160896857733743958000000006822610956694041487_);}
	.st171{clip-path:url(#SVGID_00000110466480137730919800000002973352300233005710_);}
	.st172{clip-path:url(#SVGID_00000165194890587009440720000005941491574633502392_);}
	.st173{clip-path:url(#SVGID_00000062168986371984856170000007818822711097111978_);}
	.st174{clip-path:url(#SVGID_00000160163200973346554400000013230861872370015105_);}
	.st175{clip-path:url(#SVGID_00000169535384707923811920000011730303055474175413_);}
	.st176{clip-path:url(#SVGID_00000118382347110872814120000006992866088689131175_);}
	.st177{clip-path:url(#SVGID_00000031195568969855802550000004801156946109522309_);}
	.st178{clip-path:url(#SVGID_00000176024605440472883170000008071196414785181851_);}
	.st179{clip-path:url(#SVGID_00000111161144753117163270000005314708817587228292_);}
	.st180{clip-path:url(#SVGID_00000167397531370715205710000015642273768880176277_);}
	.st181{clip-path:url(#SVGID_00000093171552224662689790000015823942234541301891_);}
	.st182{clip-path:url(#SVGID_00000083071343895373072730000009341455301455890826_);}
	.st183{clip-path:url(#SVGID_00000140015309111485373420000011882752678311746183_);}
	.st184{clip-path:url(#SVGID_00000038399334855186244820000015762519581189160857_);}
	.st185{clip-path:url(#SVGID_00000032649675463951233710000010223746023899761543_);}
	.st186{clip-path:url(#SVGID_00000132062530107045381450000012562782674430368187_);}
	.st187{clip-path:url(#SVGID_00000121255631669275004820000009239929170144150704_);}
	.st188{clip-path:url(#SVGID_00000007400179425249589130000012961484897042907061_);}
	.st189{clip-path:url(#SVGID_00000181808025385442005040000015589492769721418881_);}
	.st190{clip-path:url(#SVGID_00000062166217031411308370000002391848144397381009_);}
	.st191{clip-path:url(#SVGID_00000013884509164004722160000001237720534643307930_);}
	.st192{clip-path:url(#SVGID_00000102518230913210362020000013223019821143102102_);}
	.st193{clip-path:url(#SVGID_00000008147733569323235320000013308901279416129454_);}
	.st194{clip-path:url(#SVGID_00000034083877456457986420000013186293715771407233_);}
	.st195{clip-path:url(#SVGID_00000179622157453854220390000015636944417767776657_);}
	.st196{fill:#E5E5E5;}
	.st197{fill:#1D1D1B;}
	.st198{fill:none;stroke:#000000;stroke-miterlimit:10;}
	.st199{fill:#FEFEFE;stroke:#000000;stroke-miterlimit:10;}
	.st200{clip-path:url(#SVGID_00000073003164239605343630000010977001992176050858_);}
	.st201{clip-path:url(#SVGID_00000114034589219756055050000009534821232949709220_);}
	.st202{clip-path:url(#SVGID_00000027585500088268095160000004420743638594790056_);}
	.st203{fill:#231F1F;}
	.st204{fill:#020000;}
	.st205{clip-path:url(#SVGID_00000119840047710518599720000010056137821414327432_);}
	.st206{clip-path:url(#SVGID_00000181785727337826424430000008337512383919402376_);}
	.st207{clip-path:url(#SVGID_00000055707418088223382260000006134167307399453825_);}
	.st208{clip-path:url(#SVGID_00000036941111227213358210000005538025785971259057_);}
	.st209{fill:#050000;}
	.st210{clip-path:url(#SVGID_00000063596017017802998460000001832451945826882185_);}
	.st211{clip-path:url(#SVGID_00000149376123573288369350000002591538135238038201_);}
	.st212{clip-path:url(#SVGID_00000179630811750627178540000018336993044429334945_);}
	.st213{clip-path:url(#SVGID_00000100368199085695741760000012410929998329085865_);}
	.st214{clip-path:url(#SVGID_00000161592784408631686110000015409093247131859615_);}
	.st215{clip-path:url(#SVGID_00000054234179834779661130000015950415090788349829_);}
	.st216{fill:#12100F;}
	.st217{clip-path:url(#SVGID_00000140002060555365068820000001454089263104880829_);}
	.st218{clip-path:url(#SVGID_00000054953938289184054340000001997824366711923386_);}
	.st219{fill:none;stroke:#000000;stroke-width:0.5;stroke-miterlimit:10;}
	.st220{clip-path:url(#SVGID_00000060009594815525486800000001640392493094738337_);}
	.st221{clip-path:url(#SVGID_00000115501125394547128100000003938460226817594811_);}
	.st222{clip-path:url(#SVGID_00000082344407017704034720000006400574476641467320_);}
	.st223{clip-path:url(#SVGID_00000003783468044796631170000007775296202415707810_);}
	.st224{fill:none;stroke:#000000;stroke-width:0.25;stroke-miterlimit:10;}
	.st225{clip-path:url(#SVGID_00000050651163826402362280000007909915539927532200_);}
	.st226{clip-path:url(#SVGID_00000054943977521402255180000009972558519549247677_);}
	.st227{clip-path:url(#SVGID_00000119103412564300155410000013402303200201034392_);}
</style>
<g>
	<rect x="10.42" y="11.36" class="st0" width="22.66" height="32.74"/>
	<path d="M32.56,41.5c0,0.54-0.33,0.97-0.81,1.04l-6.68,1.04c-0.59,0-1.11-0.16-1.53-0.43V24.64l2.97-12.22l5,2.22l-0.25,3.46
		c-0.07,2.1,0.45,6.71,1.29,8.64V41.5z M22.52,41.24v-16.6l3.01-12.66l0.51,0.22l-2.99,12.34c0,0.02-0.01,0.04-0.01,0.06V42.7
		C22.71,42.3,22.52,41.81,22.52,41.24z M20.46,42.7V24.61c0-0.02,0-0.04-0.01-0.06l-2.99-12.34l0.51-0.22l3.01,12.66v16.6
		C20.97,41.81,20.78,42.3,20.46,42.7z M11.74,42.55c-0.48-0.07-0.81-0.5-0.81-1.04V26.75c0.84-1.92,1.36-6.54,1.29-8.65l-0.25-3.46
		l5.01-2.22l2.97,12.22v18.51c-0.42,0.27-0.94,0.43-1.53,0.43L11.74,42.55z M21.78,12.4c1.08,0,2.16-0.14,3.22-0.41l-0.13,0.53
		c-2.04,0.53-4.14,0.53-6.26,0l-0.13-0.53C19.59,12.26,20.69,12.4,21.78,12.4z M22.06,24.35h-0.62l-2.68-11.28
		c1.01,0.24,2.03,0.36,3.03,0.36c1,0,1.98-0.12,2.96-0.35L22.06,24.35z M21.49,24.87H22v16.11h-0.52V24.87z M33.05,26.58
		c-0.82-1.83-1.33-6.39-1.26-8.45l0.26-3.64c0.01-0.11-0.05-0.21-0.15-0.26l-6.44-2.86c-0.06-0.02-0.12-0.02-0.17-0.01l0-0.01
		c-2.3,0.68-4.67,0.68-7.07,0c-0.01,0-0.02,0-0.04,0c-0.02,0-0.03,0-0.04,0c-0.02,0-0.04,0.01-0.07,0.01c-0.01,0-0.02,0-0.03,0.01
		l-6.44,2.86c-0.1,0.04-0.16,0.15-0.15,0.26l0.26,3.63c0.07,2.07-0.44,6.63-1.26,8.46c-0.01,0.03-0.02,0.07-0.02,0.11V41.5
		c0,0.81,0.51,1.45,1.25,1.56l6.69,1.04c0.01,0,0.03,0,0.04,0c0.73,0,1.38-0.21,1.9-0.58c0.03-0.01,0.06-0.03,0.09-0.06
		C21,43,21.4,42.31,21.48,41.5h0.54c0.07,0.81,0.47,1.5,1.09,1.96c0.02,0.03,0.05,0.05,0.09,0.06c0.52,0.36,1.17,0.58,1.9,0.58
		c0.01,0,0.03,0,0.04,0l6.69-1.04c0.74-0.11,1.25-0.75,1.25-1.56V26.69C33.08,26.66,33.07,26.62,33.05,26.58"/>
	<path d="M26.64,19.68h1.8l0,1.04h-1.8V19.68z M26.64,21.24h1.8c0.28,0,0.52-0.23,0.52-0.52v-1.04c0-0.29-0.23-0.52-0.52-0.52h-1.8
		c-0.28,0-0.52,0.23-0.52,0.52v1.04C26.12,21,26.36,21.24,26.64,21.24"/>
	<path d="M17.38,41.77l-4.36-0.52c-0.62-0.08-1.06-0.62-1.06-1.3v-3.62c0.26,0.27,0.61,0.45,1,0.5l4.38,0.52c0.01,0,0.02,0,0.03,0
		c0.67,0,1.19-0.15,1.55-0.43v3.55C18.91,41.23,18.28,41.76,17.38,41.77z M11.96,33.97c0-0.09,0.03-0.17,0.08-0.22
		c0.04-0.03,0.08-0.05,0.13-0.05c0.01,0,0.02,0,0.03,0l6.43,0.52c0.14,0.01,0.28,0.14,0.28,0.26v1.3c0,0.69-0.52,1.04-1.53,1.04
		l-4.36-0.52c-0.62-0.08-1.06-0.63-1.06-1.3V33.97z M18.68,33.71l-6.43-0.52c-0.21-0.02-0.4,0.04-0.55,0.18
		c-0.16,0.15-0.25,0.36-0.25,0.6v5.98c0,0.94,0.64,1.71,1.51,1.82l4.38,0.52c0.01,0,0.02,0,0.03,0c1.2,0,2.06-0.77,2.06-1.82v-5.98
		C19.43,34.1,19.09,33.75,18.68,33.71"/>
	<path d="M15.31,35.01c0.14,0,0.26,0.12,0.26,0.26s-0.12,0.26-0.26,0.26c-0.14,0-0.26-0.12-0.26-0.26S15.17,35.01,15.31,35.01z
		 M15.31,36.05c0.43,0,0.77-0.35,0.77-0.78c0-0.43-0.34-0.78-0.77-0.78c-0.43,0-0.77,0.35-0.77,0.78
		C14.54,35.7,14.88,36.05,15.31,36.05"/>
	<path d="M18.91,30.85c0,0.76-0.63,1.29-1.54,1.3l-3.84-0.26c-0.62-0.08-1.06-0.62-1.06-1.3v-3c0.25,0.35,0.59,0.61,1.01,0.66
		l3.88,0.26c0.64,0,1.18-0.33,1.55-0.79V30.85z M12.48,25.14c0-0.09,0.03-0.17,0.08-0.21c0.03-0.03,0.08-0.05,0.13-0.05
		c0.01,0,0.02,0,0.03,0l5.91,0.26c0.14,0.01,0.28,0.14,0.28,0.26v0.9c0,0.8-0.66,1.7-1.53,1.7l-3.85-0.26
		c-0.59-0.07-1.06-1-1.06-1.71V25.14z M18.67,24.62l-5.91-0.26c-0.21-0.02-0.4,0.04-0.55,0.18c-0.16,0.15-0.25,0.37-0.25,0.6v5.46
		c0,0.94,0.64,1.71,1.53,1.82l3.86,0.26c0.01,0,0.01,0,0.02,0c1.2,0,2.06-0.76,2.06-1.82V25.4C19.43,25,19.09,24.66,18.67,24.62"/>
	<path d="M15.57,26.18c0.14,0,0.26,0.12,0.26,0.26c0,0.14-0.12,0.26-0.26,0.26c-0.14,0-0.26-0.12-0.26-0.26
		C15.31,26.29,15.42,26.18,15.57,26.18z M15.57,27.21c0.43,0,0.77-0.35,0.77-0.78s-0.35-0.78-0.77-0.78c-0.43,0-0.77,0.35-0.77,0.78
		S15.14,27.21,15.57,27.21"/>
	<path d="M31.32,33.71c0.05,0,0.09,0.02,0.13,0.05c0.05,0.05,0.08,0.13,0.08,0.22v1.04c0,0.68-0.45,1.22-1.06,1.3l-4.36,0.52
		c-1.01,0-1.53-0.35-1.53-1.04v-1.3c0-0.12,0.14-0.25,0.28-0.26l6.44-0.52C31.31,33.71,31.31,33.71,31.32,33.71z M31.53,39.95
		c0,0.68-0.45,1.22-1.06,1.3l-4.36,0.52c-0.9-0.01-1.53-0.54-1.53-1.3v-3.55c0.35,0.28,0.88,0.43,1.54,0.43c0.01,0,0.02,0,0.03,0
		l4.38-0.52c0.39-0.05,0.74-0.23,1-0.5V39.95z M24.81,33.71c-0.41,0.04-0.75,0.39-0.75,0.78v5.98c0,1.05,0.87,1.82,2.06,1.82
		c0.01,0,0.02,0,0.03,0l4.38-0.52c0.88-0.11,1.51-0.87,1.51-1.82v-5.98c0-0.24-0.09-0.45-0.25-0.6c-0.15-0.13-0.34-0.2-0.54-0.18
		L24.81,33.71"/>
	<path d="M28.18,35.01c0.14,0,0.26,0.12,0.26,0.26s-0.12,0.26-0.26,0.26c-0.14,0-0.26-0.12-0.26-0.26S28.04,35.01,28.18,35.01z
		 M28.18,36.05c0.43,0,0.77-0.35,0.77-0.78c0-0.43-0.35-0.78-0.77-0.78c-0.43,0-0.77,0.35-0.77,0.78
		C27.41,35.7,27.76,36.05,28.18,36.05"/>
	<path d="M30.71,24.8c0.05,0,0.09,0.01,0.13,0.05c0.05,0.05,0.08,0.12,0.09,0.21l0.02,0.9c0.02,0.71-0.43,1.64-1,1.73l-3.84,0.35
		c-0.88,0.02-1.57-0.86-1.59-1.66l-0.02-0.9c0-0.12,0.13-0.25,0.26-0.27l5.93-0.41C30.7,24.8,30.71,24.8,30.71,24.8z M31.07,30.51
		c0.02,0.68-0.42,1.23-1.02,1.32l-3.85,0.36c-0.9,0.02-1.55-0.5-1.57-1.26l-0.08-3.13c0.38,0.46,0.93,0.77,1.58,0.76l3.87-0.36
		c0.41-0.06,0.74-0.33,0.98-0.68L31.07,30.51z M24.72,24.69c-0.41,0.05-0.74,0.41-0.73,0.8l0.14,5.46c0.03,1.05,0.91,1.8,2.1,1.77
		c0.01,0,0.01,0,0.02,0l3.87-0.36c0.87-0.13,1.49-0.91,1.47-1.85l-0.14-5.46c-0.01-0.23-0.1-0.45-0.26-0.59
		c-0.15-0.13-0.35-0.19-0.54-0.17L24.72,24.69"/>
	<path d="M27.93,26.18c0.14,0,0.26,0.12,0.26,0.26c0,0.14-0.12,0.26-0.26,0.26c-0.14,0-0.26-0.12-0.26-0.26
		C27.67,26.29,27.78,26.18,27.93,26.18z M27.93,27.21c0.43,0,0.77-0.35,0.77-0.78s-0.34-0.78-0.77-0.78c-0.43,0-0.77,0.35-0.77,0.78
		S27.5,27.21,27.93,27.21"/>
</g>
</svg>
