<?xml version="1.0" encoding="utf-8"?>
<!-- Generator: Adobe Illustrator 27.3.1, SVG Export Plug-In . SVG Version: 6.00 Build 0)  -->
<svg version="1.1" id="Layer_1" xmlns="http://www.w3.org/2000/svg" xmlns:xlink="http://www.w3.org/1999/xlink" x="0px" y="0px"
	 viewBox="0 0 50 50" style="enable-background:new 0 0 50 50;" xml:space="preserve">
<style type="text/css">
	.st0{fill:none;}
	.st1{stroke:#000000;stroke-miterlimit:10;}
	.st2{stroke:#000000;stroke-width:0.75;stroke-miterlimit:10;}
	.st3{clip-path:url(#SVGID_00000120539840223362936560000009769298754459668155_);}
	.st4{clip-path:url(#SVGID_00000070808824643950906100000006599655260743092414_);}
	.st5{fill:#FFFFFF;}
	.st6{clip-path:url(#SVGID_00000008150940479911559950000000461109497739334310_);}
	.st7{fill:#231F20;}
	.st8{clip-path:url(#SVGID_00000011710824256077304770000001032162523897418395_);}
	.st9{clip-path:url(#SVGID_00000089568338693417296890000016161403122620092599_);}
	.st10{clip-path:url(#SVGID_00000062898883943851774020000017463949374404451472_);}
	.st11{clip-path:url(#SVGID_00000013162457546787590530000014597402592318445736_);}
	.st12{clip-path:url(#SVGID_00000086681653558042512500000013313974751363722919_);}
	.st13{clip-path:url(#SVGID_00000073708756594079382450000008905027546614953361_);}
	.st14{clip-path:url(#SVGID_00000085250184615015901640000003671070522561261965_);}
	.st15{clip-path:url(#SVGID_00000052062227526963280120000008067561755973015981_);}
	.st16{clip-path:url(#SVGID_00000165196132346126392910000013215506871859874234_);}
	.st17{clip-path:url(#SVGID_00000107564287723571266130000013624429860412704689_);}
	.st18{clip-path:url(#SVGID_00000025405171437058651520000002128995689870797205_);}
	.st19{clip-path:url(#SVGID_00000078044593016136138370000016523819119302231695_);}
	.st20{clip-path:url(#SVGID_00000167372059309800825710000004357577489300935587_);}
	.st21{clip-path:url(#SVGID_00000142150244158493318460000015757676002545147264_);}
	.st22{clip-path:url(#SVGID_00000178179378713006471040000017754507461323278984_);}
	.st23{clip-path:url(#SVGID_00000067945893747155401460000002097044627972202404_);}
	.st24{clip-path:url(#SVGID_00000011027793963917036140000017140996060270177710_);}
	.st25{clip-path:url(#SVGID_00000155104027901394314760000010896653713387721354_);}
	.st26{clip-path:url(#SVGID_00000139275544582466465230000008729213050933119368_);}
	.st27{clip-path:url(#SVGID_00000153669088297111463760000007080926962052618682_);}
	.st28{clip-path:url(#SVGID_00000090995806606076107440000005951603085226572934_);}
	.st29{clip-path:url(#SVGID_00000024720197111756727460000015722915757165626302_);}
	.st30{clip-path:url(#SVGID_00000026145286683196469250000004087975332756050819_);}
	.st31{fill-rule:evenodd;clip-rule:evenodd;}
	.st32{clip-path:url(#SVGID_00000077288108962476833850000007666170452827616925_);}
	.st33{clip-path:url(#SVGID_00000166650606813859528660000010823047010971177129_);}
	.st34{stroke:#000000;stroke-width:0.5;stroke-miterlimit:10;}
	.st35{clip-path:url(#SVGID_00000092453771433274935890000003402070203511024563_);}
	.st36{clip-path:url(#SVGID_00000021805153992070913050000002595260424362255266_);}
	.st37{clip-path:url(#SVGID_00000177464150278590335030000008434426139891922088_);}
	.st38{fill:#1A1A1A;}
	.st39{clip-path:url(#SVGID_00000075856619171663895570000007117382538070549149_);}
	.st40{clip-path:url(#SVGID_00000134234060683682980520000012106682957743774338_);}
	.st41{clip-path:url(#SVGID_00000153697433103153260210000013690055321285822093_);}
	.st42{clip-path:url(#SVGID_00000095327786007466072840000012107564781770248875_);}
	.st43{clip-path:url(#SVGID_00000124121565921265494590000003180806049544639390_);}
	.st44{clip-path:url(#SVGID_00000139284675833131238870000012099656312796694410_);}
	.st45{clip-path:url(#SVGID_00000131344040040953027020000015014879421836231584_);}
	.st46{clip-path:url(#SVGID_00000092446918206945514460000004417616506729483430_);}
	.st47{clip-path:url(#SVGID_00000170277897138290399220000004676141387559238061_);}
	.st48{fill:#F1F1F1;}
	.st49{fill:#E8E8E8;}
	.st50{fill:#FEFEFE;}
	.st51{fill:#CCCCCC;}
	.st52{fill:#B3B3B3;}
	.st53{fill:#E6E6E6;}
	.st54{fill:#EBEBEB;}
	.st55{fill:#EEEEEE;}
	.st56{fill:#F8F8F8;}
	.st57{fill:#FBFBFB;}
	.st58{fill:#383838;}
	.st59{fill:#232323;}
	.st60{fill:#F6F6F6;}
	.st61{fill:#535353;}
	.st62{fill:#0A0A0A;}
	.st63{fill:#F5F5F5;}
	.st64{fill:#818181;}
	.st65{fill:#4A4A4A;}
	.st66{fill:#999999;}
	.st67{fill:url(#SVGID_00000097472046839232068480000011378001831025765773_);}
	.st68{fill:url(#SVGID_00000017496925273297095100000008662654714190152842_);}
	.st69{fill:#0E0E0D;}
	.st70{fill:#333333;}
	.st71{fill:#808080;}
	.st72{fill:url(#SVGID_00000097484932515707123670000014685772354594522010_);}
	.st73{fill:#666666;}
	.st74{fill:url(#SVGID_00000057861541679299080340000004960767381381215117_);}
	.st75{fill:url(#SVGID_00000111897698341294080400000017061586195848726674_);}
	.st76{fill:url(#SVGID_00000016043863028330566030000015066771856265484732_);}
	.st77{fill:url(#SVGID_00000053546790015882683370000007677418740601054354_);}
	.st78{fill:url(#SVGID_00000181794664114038990160000016997879212127381894_);}
	.st79{clip-path:url(#SVGID_00000047755213124517898350000007703238469157313463_);}
	.st80{clip-path:url(#SVGID_00000023265657338168465810000015176827280024134282_);}
	.st81{clip-path:url(#SVGID_00000003089251241952865530000003035375064114774961_);}
	.st82{clip-path:url(#SVGID_00000085245046955294374820000006754637297074709378_);}
	.st83{clip-path:url(#SVGID_00000018229871408718861280000009191312041617532601_);}
	.st84{fill:#241F20;stroke:#000000;stroke-width:0.5;stroke-miterlimit:10;}
	.st85{clip-path:url(#SVGID_00000015339443872075226970000016618034585782670267_);}
	.st86{clip-path:url(#SVGID_00000063616876297795433600000015188118840096494261_);}
	.st87{clip-path:url(#SVGID_00000075152464306882651560000018286197522988806826_);}
	.st88{clip-path:url(#SVGID_00000158740542570682485910000008721444611652654518_);}
	.st89{clip-path:url(#SVGID_00000172441001537936577480000008666784480264021633_);}
	.st90{clip-path:url(#SVGID_00000057138788876792454820000011272427362127851395_);}
	.st91{clip-path:url(#SVGID_00000137813565479696907820000016998076255400585391_);}
	.st92{clip-path:url(#SVGID_00000018201664948959857170000011590911817435165883_);}
	.st93{clip-path:url(#SVGID_00000106131799766350959960000017235335589581816725_);}
	.st94{clip-path:url(#SVGID_00000171697401114399788190000003286179469917742229_);}
	.st95{clip-path:url(#SVGID_00000152982744751704996130000017710515601946637712_);}
	.st96{clip-path:url(#SVGID_00000129923386787448947610000013482444463493376923_);}
	.st97{clip-path:url(#SVGID_00000088113152928696486020000005222876004345005758_);}
	.st98{clip-path:url(#SVGID_00000042006228341010201650000000149328827018157755_);}
	.st99{clip-path:url(#SVGID_00000049201147680361581590000002050062596894049175_);}
	.st100{clip-path:url(#SVGID_00000162315974427812534520000002717382538750998947_);}
	.st101{clip-path:url(#SVGID_00000154390964546590218620000002730556691479696521_);}
	.st102{clip-path:url(#SVGID_00000066510909672558390330000005914873603921815731_);}
	.st103{clip-path:url(#SVGID_00000000908885200648962650000010327125759043317181_);}
	.st104{clip-path:url(#SVGID_00000085215311456765605690000013084118056639030460_);}
	.st105{clip-path:url(#SVGID_00000113335763471971289980000000840188978993323184_);}
	.st106{clip-path:url(#SVGID_00000033361531411219084880000004617892918743665850_);}
	.st107{clip-path:url(#SVGID_00000088127412518116678830000001458392735240762011_);}
	.st108{clip-path:url(#SVGID_00000108270115322674181710000007394780689049436802_);}
	.st109{clip-path:url(#SVGID_00000053515748336809120010000008840674244402977454_);}
	.st110{clip-path:url(#SVGID_00000083792376385667468650000009136351473118324912_);}
	.st111{clip-path:url(#SVGID_00000110466148961213982320000012473150217144993215_);}
	.st112{clip-path:url(#SVGID_00000063621724761347549960000012480769843556533652_);}
	.st113{clip-path:url(#SVGID_00000067200266867813373940000006915872336002311077_);}
	.st114{clip-path:url(#SVGID_00000048467939610887348900000017990299742036774564_);}
	.st115{fill:#FFFFFF;stroke:#000000;stroke-miterlimit:10;}
	.st116{clip-path:url(#SVGID_00000019641063088780081310000000249553069999222692_);}
	.st117{clip-path:url(#SVGID_00000097458843866676127210000008237931868585218195_);}
	.st118{fill:none;stroke:#010101;stroke-miterlimit:10;}
	.st119{fill:#010101;stroke:#000000;stroke-miterlimit:10;}
	.st120{clip-path:url(#SVGID_00000152251920358686225050000010255263855543752834_);}
	.st121{fill:#010101;stroke:#010101;stroke-miterlimit:10;}
	.st122{clip-path:url(#SVGID_00000159436253303300882350000003869472806377830539_);}
	.st123{clip-path:url(#SVGID_00000115505072552563278990000009338032247335674007_);}
	.st124{clip-path:url(#SVGID_00000098190622344665057260000011689292156945754754_);}
	.st125{clip-path:url(#SVGID_00000034078732940498510580000016390593595153412283_);}
	.st126{clip-path:url(#SVGID_00000102524206923930209610000011482147383615017390_);}
	.st127{fill:none;stroke:#000000;stroke-width:3;stroke-miterlimit:10;}
	.st128{clip-path:url(#SVGID_00000141440164295600407180000002894593352910565540_);}
	.st129{clip-path:url(#SVGID_00000059304315335474394870000002737377351213127051_);}
	.st130{clip-path:url(#SVGID_00000040532881826543600590000000719701474806634133_);}
	.st131{clip-path:url(#SVGID_00000163767349727816709780000004811562444214409604_);}
	.st132{fill:#040606;}
	.st133{clip-path:url(#SVGID_00000100345224208399259950000005823593274433946258_);}
	.st134{clip-path:url(#SVGID_00000159463805473366479850000015142732979876598158_);}
	.st135{clip-path:url(#SVGID_00000137109791319290948050000005767051725388121244_);}
	.st136{clip-path:url(#SVGID_00000006701276539748017540000010772034396308041899_);}
	.st137{clip-path:url(#SVGID_00000183929442272587705380000014633495974428275339_);}
	.st138{clip-path:url(#SVGID_00000003824575008718538730000012385807334075545246_);}
	.st139{clip-path:url(#SVGID_00000005970954355737137110000006427771860825651123_);}
	.st140{fill:#FFFFFF;stroke:#000000;stroke-width:1.5;stroke-miterlimit:10;}
	.st141{clip-path:url(#SVGID_00000037663293672391608590000004499210424870871487_);}
	.st142{fill:#BDBCBC;}
	.st143{clip-path:url(#SVGID_00000000211973992614025140000013984111318091101623_);}
	.st144{fill:#2E2A2B;}
	.st145{clip-path:url(#SVGID_00000004506036445626836650000011934211298017564288_);}
	.st146{clip-path:url(#SVGID_00000161593307547589471060000011117509804970558387_);}
	.st147{clip-path:url(#SVGID_00000082367877110669127580000007175443507815889549_);}
	.st148{clip-path:url(#SVGID_00000145036096281302602850000004477568972382227847_);}
	.st149{clip-path:url(#SVGID_00000103977126070466263050000016788568544028984731_);}
	.st150{fill:#272324;}
	.st151{clip-path:url(#SVGID_00000163764497305403961500000002861939162355185598_);}
	.st152{clip-path:url(#SVGID_00000134940192877756348340000006170366155538254233_);}
	.st153{clip-path:url(#SVGID_00000096760708778731127550000006682208006749926789_);}
	.st154{clip-path:url(#SVGID_00000155867297349009661770000009217084598439815584_);}
	.st155{clip-path:url(#SVGID_00000040564580839464316540000007307119977403859892_);}
	.st156{clip-path:url(#SVGID_00000122700101122157224740000009154123379590242959_);}
	.st157{fill:none;stroke:#000000;stroke-width:0.8735;stroke-linecap:round;stroke-linejoin:round;stroke-miterlimit:10;}
	.st158{clip-path:url(#SVGID_00000059999479342315963470000011113569580235155331_);}
	.st159{clip-path:url(#SVGID_00000053543524799447088550000001815380692644167575_);}
	.st160{clip-path:url(#SVGID_00000160869723919571196600000013707241765573127095_);}
	.st161{clip-path:url(#SVGID_00000119831792797206910190000009789388798170836924_);}
	.st162{clip-path:url(#SVGID_00000145761723998282351710000014625763761233893815_);}
	.st163{clip-path:url(#SVGID_00000075131320331369851770000003902990778338289282_);}
	.st164{clip-path:url(#SVGID_00000123414585542805150320000011763982651320390030_);}
	.st165{clip-path:url(#SVGID_00000000225130201819183220000012378422908968279181_);}
	.st166{clip-path:url(#SVGID_00000157992883082332587700000007343569759710921148_);}
	.st167{clip-path:url(#SVGID_00000158741590939578180470000015725525779251872644_);}
	.st168{clip-path:url(#SVGID_00000106825601186687112370000009080790564036958385_);}
	.st169{clip-path:url(#SVGID_00000005235036406251423670000005194040524552240262_);}
	.st170{clip-path:url(#SVGID_00000096019952189516294900000011724420142663730837_);}
	.st171{clip-path:url(#SVGID_00000120532434395439368150000016784153161420374432_);}
	.st172{clip-path:url(#SVGID_00000021105141967576988440000009034690566446608570_);}
	.st173{clip-path:url(#SVGID_00000103953427858763691310000013666332258946562740_);}
	.st174{clip-path:url(#SVGID_00000128450022288054633310000005474691043889038008_);}
	.st175{clip-path:url(#SVGID_00000096042836130887355930000007265757230523050127_);}
	.st176{clip-path:url(#SVGID_00000079464500443874708130000016150289147081532288_);}
	.st177{clip-path:url(#SVGID_00000156588911833875807610000013632188417678760633_);}
	.st178{clip-path:url(#SVGID_00000176013089397389152800000009310909712366982276_);}
	.st179{clip-path:url(#SVGID_00000013188775881690310870000004681509482317122727_);}
	.st180{clip-path:url(#SVGID_00000059308801705356014580000017300381853865222040_);}
	.st181{clip-path:url(#SVGID_00000028326043235627805080000014216722938922183842_);}
	.st182{clip-path:url(#SVGID_00000158018587412955367380000003891878928658047133_);}
	.st183{clip-path:url(#SVGID_00000145744325338029401750000016971126937082056888_);}
	.st184{clip-path:url(#SVGID_00000071529914301875365860000005107071019749438618_);}
	.st185{clip-path:url(#SVGID_00000070111577125939435130000012953725963398465462_);}
	.st186{clip-path:url(#SVGID_00000057841303744290028100000008186817473319419797_);}
	.st187{clip-path:url(#SVGID_00000057142854859937994690000008512515170122863510_);}
	.st188{clip-path:url(#SVGID_00000180354830002089887350000011806703874808799643_);}
	.st189{clip-path:url(#SVGID_00000114072437872346515770000015651213466253302146_);}
	.st190{clip-path:url(#SVGID_00000181784384552919303170000015894072841953603511_);}
	.st191{clip-path:url(#SVGID_00000128444346902897907140000007207261824577223354_);}
	.st192{clip-path:url(#SVGID_00000044142983853307621750000018366633432154321587_);}
	.st193{clip-path:url(#SVGID_00000163046984678867948610000000865766280794766492_);}
	.st194{clip-path:url(#SVGID_00000000943914836759781850000007346173429736236174_);}
	.st195{clip-path:url(#SVGID_00000048502053641867641970000002673768947112171916_);}
	.st196{fill:#E5E5E5;}
	.st197{fill:#1D1D1B;}
	.st198{fill:none;stroke:#000000;stroke-miterlimit:10;}
	.st199{fill:#FEFEFE;stroke:#000000;stroke-miterlimit:10;}
	.st200{clip-path:url(#SVGID_00000139997295385505021180000008234715749716234881_);}
	.st201{clip-path:url(#SVGID_00000003084369867402865570000012016058218097445513_);}
	.st202{clip-path:url(#SVGID_00000049912417840118900400000008582704699260700841_);}
	.st203{fill:#231F1F;}
	.st204{fill:#020000;}
	.st205{clip-path:url(#SVGID_00000114066324547257254840000009700205360573834897_);}
	.st206{clip-path:url(#SVGID_00000082364591937972402240000013847876331562602642_);}
	.st207{clip-path:url(#SVGID_00000100379767921647181440000000393344463737008525_);}
	.st208{clip-path:url(#SVGID_00000007430332650288664760000011418737898304237445_);}
	.st209{fill:#050000;}
	.st210{clip-path:url(#SVGID_00000145040071134781488230000011009019085026334882_);}
	.st211{clip-path:url(#SVGID_00000117665097483900458560000013197985941542947495_);}
	.st212{clip-path:url(#SVGID_00000149341948214062923590000000708875993890778519_);}
	.st213{clip-path:url(#SVGID_00000149382481443149972490000000104560454236100782_);}
	.st214{clip-path:url(#SVGID_00000015344317048099270160000005033518294011612558_);}
	.st215{clip-path:url(#SVGID_00000041999268745934987870000001128657750056141448_);}
	.st216{fill:#12100F;}
	.st217{clip-path:url(#SVGID_00000065766789308619149760000013588297663283534013_);}
	.st218{clip-path:url(#SVGID_00000139984729621841823750000012415317267944205488_);}
	.st219{fill:none;stroke:#000000;stroke-width:0.5;stroke-miterlimit:10;}
	.st220{clip-path:url(#SVGID_00000036972649545584247870000001106207030519948718_);}
	.st221{clip-path:url(#SVGID_00000080167167745945406080000008314786253890576001_);}
	.st222{clip-path:url(#SVGID_00000159435678813170616500000017235518222461690530_);}
	.st223{clip-path:url(#SVGID_00000136388068001541576890000001277440677736281773_);}
	.st224{fill:none;stroke:#000000;stroke-width:0.25;stroke-miterlimit:10;}
	.st225{clip-path:url(#SVGID_00000068647035547529609120000014901641530971728540_);}
	.st226{clip-path:url(#SVGID_00000173122331304719102080000017837075345848451482_);}
	.st227{clip-path:url(#SVGID_00000005249668839204903270000012658258522709907348_);}
</style>
<g>
	<g>
		<path class="st5" d="M25.89,38.22c-0.02,0-0.03,0-0.05,0c-0.01-0.08-0.03-0.16-0.04-0.24c-0.03-0.37-0.06-0.75-0.09-1.12
			c-0.1-1.29-0.19-2.58-0.3-3.88c-0.2-2.38-0.38-4.76-0.61-7.13c-0.14-1.43-0.31-2.86-0.51-4.28c-0.17-1.24-0.39-2.47-0.6-3.71
			c-0.02-0.09-0.06-0.18-0.09-0.27c-0.02,0-0.03,0.01-0.05,0.01c0.02,0.12,0.05,0.23,0.06,0.35c0.04,0.78,0.09,1.55,0.09,2.33
			c0.01,7.01,0,14.01,0,21.02c0,1.41,0,2.81,0,4.22c0,0.43,0.01,0.44,0.43,0.45c1.18,0.02,2.36,0.03,3.54,0.03
			c0.35,0,0.4-0.05,0.4-0.4c0-8.56,0-17.11,0-25.67c0-0.5,0.05-0.99,0.06-1.49c0.01-0.26,0-0.53,0-0.79
			c-0.12,0.37-0.22,0.75-0.27,1.13c-0.3,2.2-0.62,4.4-0.86,6.61c-0.22,2.01-0.36,4.02-0.53,6.03c-0.17,2.01-0.33,4.02-0.5,6.03
			C25.97,37.7,25.93,37.96,25.89,38.22z"/>
	</g>
	<g>
		<path d="M22.19,46.26c-0.06,0-0.11,0-0.15-0.01c-0.81-0.11-1.62-0.22-2.43-0.35c-1.31-0.2-2.62-0.5-4.01-0.92l-0.14-0.04
			c-0.29-0.1-0.65-0.29-0.46-0.89c0.09-0.28,0.2-0.56,0.31-0.84l0.07-0.18c0.8-2.09,1.26-4.25,1.57-5.89c0.13-0.7,0.24-1.4,0.34-2.1
			c0.06-0.41,0.12-0.81,0.19-1.22c0.08-0.48-0.04-0.86-0.36-1.26c-1.08-1.3-2.05-2.27-3.04-3.07c-0.42-0.34-0.55-0.73-0.4-1.27
			c0.66-2.42,1.37-5.06,2.16-8.09c0.26-0.99,0.5-1.98,0.74-2.97l0.29-1.19c0.03-0.11,0.05-0.23,0.08-0.35
			c0.05-0.22,0.09-0.44,0.16-0.65c0.39-1.21,1.2-2.08,2.41-2.58c0.1-0.04,0.15-0.09,0.2-0.21c0.2-0.47,0.39-0.98,0.59-1.6l0.06-0.18
			l0.19-0.04c0.35-0.08,0.67-0.22,0.95-0.42c0.14-0.1,0.25-0.2,0.36-0.31l0.08-0.06c0.13-0.07,0.25-0.14,0.36-0.23l0.4-0.31
			l0.18,0.65c0.14,0.5,0.28,1,0.44,1.5c0.09,0.3-0.02,0.54-0.32,0.67c-0.11,0.05-0.22,0.1-0.34,0.15c-0.16,0.07-0.32,0.14-0.48,0.21
			c0.08,0.89,0.16,1.76,0.22,2.64c0.03,0.41,0.06,0.82,0.1,1.23c0.09,1.06,0.18,2.17,0.21,3.26c0.07,2.72,0.07,5.4,0.07,7.89
			c0,2.69-0.02,5.39-0.03,8.08c-0.01,2.12-0.02,4.23-0.02,6.34c0,0.81,0.02,1.62,0.03,2.43l0.03,1.22c0,0.11,0,0.22,0,0.33
			c-0.01,0.15-0.03,0.36-0.21,0.51C22.45,46.23,22.31,46.26,22.19,46.26z M15.64,44.28c0.01,0,0.02,0.01,0.03,0.01l0.12,0.04
			c1.36,0.41,2.64,0.71,3.91,0.9c0.79,0.12,1.59,0.23,2.38,0.34c0-0.09,0-0.17,0-0.26l-0.03-1.22c-0.02-0.81-0.04-1.63-0.03-2.44
			c0.01-2.12,0.02-4.23,0.02-6.35c0.01-2.69,0.03-5.39,0.03-8.08c0-2.49,0-5.16-0.07-7.87c-0.03-1.07-0.12-2.16-0.2-3.22
			c-0.03-0.41-0.07-0.82-0.1-1.24c-0.07-0.9-0.15-1.79-0.23-2.69c-0.02-0.21,0.03-0.48,0.39-0.62c0.17-0.07,0.34-0.14,0.5-0.21
			c0.08-0.04,0.16-0.07,0.24-0.11c-0.11-0.37-0.22-0.74-0.33-1.11c-0.13,0.13-0.26,0.24-0.41,0.34c-0.31,0.22-0.65,0.38-1.01,0.49
			c-0.18,0.56-0.36,1.03-0.55,1.48c-0.12,0.28-0.3,0.46-0.56,0.57c-1.02,0.42-1.7,1.14-2.02,2.15c-0.06,0.19-0.1,0.39-0.14,0.58
			c-0.03,0.12-0.05,0.25-0.08,0.37l-0.29,1.18c-0.24,1-0.48,1.99-0.74,2.99c-0.79,3.03-1.5,5.67-2.16,8.09
			c-0.08,0.27-0.04,0.38,0.17,0.55c1.03,0.83,2.03,1.84,3.14,3.17c0.45,0.55,0.62,1.14,0.51,1.81c-0.07,0.4-0.13,0.81-0.19,1.21
			c-0.11,0.71-0.21,1.42-0.35,2.13c-0.31,1.68-0.78,3.87-1.6,6.01l-0.07,0.18c-0.1,0.27-0.21,0.53-0.29,0.8
			C15.65,44.27,15.64,44.27,15.64,44.28z M19.01,31.65l-0.42-0.19l0.14-0.31l-0.16,0.3c-0.04-0.02-0.11-0.04-0.17-0.08l-0.33-0.23
			c-0.14-0.1-0.28-0.2-0.42-0.29c-0.22-0.15-0.31-0.36-0.27-0.63c0.26-1.7,0.52-3.39,0.77-5.09c0.03-0.17,0.05-0.34,0.07-0.51
			l0.05-0.4c0.02-0.13,0.06-0.23,0.12-0.31c0.29-0.36,0.57-0.72,0.86-1.07c0.06-0.07,0.13-0.11,0.16-0.13l0.15-0.08l0.18,0.05
			l0.23,0.1L20,23.05L19.01,31.65z M18.04,30.3c0.14,0.09,0.27,0.18,0.4,0.27l0.76-6.61c-0.09,0.12-0.19,0.24-0.29,0.36l-0.03,0.38
			c-0.02,0.18-0.04,0.35-0.07,0.52C18.56,26.92,18.3,28.61,18.04,30.3z"/>
	</g>
	<g>
		<path d="M29.51,46.25c-0.11,0-0.22-0.02-0.32-0.11c-0.16-0.14-0.16-0.33-0.16-0.52l0.01-13.48l0-3.12c0-3.1-0.01-6.19,0.01-9.29
			c0.01-0.9,0.08-1.81,0.16-2.69l0.06-0.74c0.06-0.73,0.12-1.46,0.19-2.19c0.06-0.63,0.11-1.26,0.17-1.89
			c-0.27-0.14-0.54-0.26-0.8-0.36c-0.19-0.07-0.48-0.26-0.35-0.73c0.1-0.33,0.19-0.67,0.28-1L29.08,9l0.42,0.43
			c0.33,0.34,0.73,0.58,1.2,0.72c0.2,0.09,0.35,0.14,0.51,0.19l0.27,0.12l0.04,0.15c0.1,0.34,0.24,0.67,0.39,1.02
			c0.08,0.19,0.16,0.38,0.23,0.57c0.04,0.09,0.09,0.16,0.27,0.25c1,0.5,1.66,1.13,2.03,1.93c0.21,0.45,0.33,0.94,0.45,1.4l0.06,0.25
			c0.15,0.57,0.29,1.14,0.43,1.71c0.13,0.53,0.26,1.07,0.4,1.6c0.62,2.43,1.26,4.86,1.89,7.29c0.15,0.59,0.31,1.18,0.48,1.76
			c0.12,0.4,0.02,0.74-0.32,0.99c-1.18,0.9-2.16,2.01-3.07,3.07c-0.36,0.42-0.48,0.87-0.41,1.52c0.19,1.58,0.48,3.23,0.93,5.19
			c0.45,1.95,0.92,3.48,1.5,4.83c0.07,0.17,0.14,0.39,0.04,0.59c-0.1,0.21-0.31,0.3-0.51,0.35c-1.56,0.46-3.22,0.82-4.93,1.07
			c-0.55,0.08-1.1,0.15-1.65,0.22C29.65,46.24,29.58,46.25,29.51,46.25z M29.72,32.82l-0.01,12.72c0.52-0.06,1.03-0.13,1.55-0.2
			c1.68-0.25,3.31-0.6,4.84-1.05c0.01,0,0.02-0.01,0.04-0.01c0,0,0-0.01-0.01-0.01c-0.59-1.39-1.08-2.96-1.53-4.95
			c-0.46-1.99-0.76-3.66-0.95-5.26c-0.1-0.83,0.08-1.48,0.57-2.05c0.93-1.08,1.95-2.22,3.17-3.16c0.11-0.08,0.12-0.12,0.08-0.25h0
			c-0.18-0.59-0.34-1.19-0.49-1.79c-0.63-2.43-1.27-4.86-1.89-7.3c-0.14-0.53-0.27-1.07-0.4-1.61c-0.14-0.57-0.28-1.14-0.42-1.7
			l-0.06-0.25c-0.11-0.44-0.22-0.89-0.41-1.28c-0.3-0.66-0.85-1.17-1.71-1.6c-0.19-0.1-0.46-0.26-0.6-0.62
			c-0.07-0.19-0.15-0.37-0.22-0.55c-0.13-0.3-0.26-0.61-0.36-0.93c-0.13-0.04-0.3-0.1-0.45-0.17c-0.36-0.1-0.71-0.27-1.03-0.5
			l-0.01,0.02c-0.09,0.31-0.17,0.63-0.26,0.94c0.27,0.11,0.54,0.23,0.82,0.37c0.15,0.08,0.36,0.3,0.34,0.55
			c-0.05,0.66-0.11,1.33-0.17,1.99c-0.07,0.73-0.13,1.46-0.19,2.19l-0.06,0.75c-0.08,0.87-0.15,1.76-0.16,2.63
			c-0.02,3.1-0.02,6.19-0.01,9.29L29.72,32.82L29.72,32.82z M29.65,12.11C29.65,12.11,29.65,12.11,29.65,12.11
			C29.65,12.11,29.65,12.11,29.65,12.11z M32.79,31.9l-1.07-9.17l0.48-0.17l0.2,0.16c0.06,0.07,0.11,0.14,0.17,0.21
			c0.1,0.13,0.21,0.26,0.33,0.37c0.54,0.49,0.66,1.1,0.73,1.64c0.22,1.64,0.47,3.3,0.71,4.91c0.11,0.71,0.05,0.85-0.5,1.25l0,0
			c-0.12,0.09-0.24,0.18-0.37,0.28L32.79,31.9z M32.55,23.92l0.78,6.71c0.04-0.03,0.07-0.05,0.11-0.08l0,0
			c0.11-0.08,0.25-0.18,0.28-0.22c0-0.03-0.02-0.18-0.04-0.32c-0.25-1.66-0.5-3.32-0.72-4.97C32.89,24.55,32.8,24.2,32.55,23.92z"/>
	</g>
	<g>
		<path d="M25.89,38.22c0.04-0.26,0.08-0.52,0.1-0.78c0.17-2.01,0.33-4.02,0.5-6.03c0.17-2.01,0.31-4.03,0.53-6.03
			c0.24-2.21,0.56-4.41,0.86-6.61c0.05-0.38,0.15-0.75,0.27-1.13c0,0.26,0.01,0.53,0,0.79c-0.02,0.5-0.06,0.99-0.06,1.49
			c0,8.56,0,17.11,0,25.67c0,0.35-0.05,0.41-0.4,0.4c-1.18-0.01-2.36-0.02-3.54-0.03c-0.42-0.01-0.43-0.02-0.43-0.45
			c0-1.41,0-2.81,0-4.22c0-7.01,0-14.01,0-21.02c0-0.78-0.06-1.55-0.09-2.33c-0.01-0.12-0.04-0.23-0.06-0.35
			c0.02,0,0.03-0.01,0.05-0.01c0.03,0.09,0.07,0.18,0.09,0.27c0.2,1.24,0.43,2.47,0.6,3.71c0.2,1.42,0.37,2.85,0.51,4.28
			c0.22,2.38,0.41,4.75,0.61,7.13c0.11,1.29,0.2,2.58,0.3,3.88c0.03,0.37,0.06,0.75,0.09,1.12c0.01,0.08,0.02,0.16,0.04,0.24
			C25.86,38.22,25.88,38.22,25.89,38.22z"/>
	</g>
</g>
</svg>
