<?xml version="1.0" encoding="utf-8"?>
<!-- Generator: Adobe Illustrator 27.3.1, SVG Export Plug-In . SVG Version: 6.00 Build 0)  -->
<svg version="1.1" id="Layer_1" xmlns="http://www.w3.org/2000/svg" xmlns:xlink="http://www.w3.org/1999/xlink" x="0px" y="0px"
	 viewBox="0 0 50 50" style="enable-background:new 0 0 50 50;" xml:space="preserve">
<style type="text/css">
	.st0{fill:none;}
	.st1{stroke:#000000;stroke-miterlimit:10;}
	.st2{stroke:#000000;stroke-width:0.75;stroke-miterlimit:10;}
	.st3{clip-path:url(#SVGID_00000044137914836123902720000005356152744804556672_);}
	.st4{clip-path:url(#SVGID_00000148621048586596190900000011810884728744173202_);}
	.st5{fill:#FFFFFF;}
	.st6{clip-path:url(#SVGID_00000150073951894966602810000006599853130982784679_);}
	.st7{fill:#231F20;}
	.st8{clip-path:url(#SVGID_00000130644202830797258280000015625753520331776149_);}
	.st9{clip-path:url(#SVGID_00000062178092600449190560000006857631109063131571_);}
	.st10{clip-path:url(#SVGID_00000045594937536058547350000006318939550693267585_);}
	.st11{clip-path:url(#SVGID_00000078002763853855417050000003118823845682471864_);}
	.st12{clip-path:url(#SVGID_00000132804402462668609340000006947629636715201198_);}
	.st13{clip-path:url(#SVGID_00000072987422835234773420000002231727064097609357_);}
	.st14{clip-path:url(#SVGID_00000102510345176007630860000011604188034033289135_);}
	.st15{clip-path:url(#SVGID_00000064344996045025151980000007262384466248984456_);}
	.st16{clip-path:url(#SVGID_00000097460460614423613200000009372624033951885708_);}
	.st17{clip-path:url(#SVGID_00000068639226607720843570000012983294706923529629_);}
	.st18{clip-path:url(#SVGID_00000057829676666288316500000009310658750076551346_);}
	.st19{clip-path:url(#SVGID_00000084520276083615691130000002472748436404015241_);}
	.st20{clip-path:url(#SVGID_00000062910131832643423980000011433503787066798474_);}
	.st21{clip-path:url(#SVGID_00000168820183479904433020000005119531763000785317_);}
	.st22{clip-path:url(#SVGID_00000023281367763394328460000003340266301390089892_);}
	.st23{clip-path:url(#SVGID_00000124163087481611127670000000616815891252739745_);}
	.st24{clip-path:url(#SVGID_00000137101328665446608200000012024843749838868364_);}
	.st25{clip-path:url(#SVGID_00000172418619824353454480000008475877526607479681_);}
	.st26{clip-path:url(#SVGID_00000173851783806535583640000013017215340041025690_);}
	.st27{clip-path:url(#SVGID_00000103980888060303540700000016828245707183494787_);}
	.st28{clip-path:url(#SVGID_00000043425457098836211170000007952286138266686640_);}
	.st29{clip-path:url(#SVGID_00000176030802570573006690000013827721609608498342_);}
	.st30{clip-path:url(#SVGID_00000008838567795388228170000009960411387154746763_);}
	.st31{fill-rule:evenodd;clip-rule:evenodd;}
	.st32{clip-path:url(#SVGID_00000062896110521354115760000017064516462982326712_);}
	.st33{clip-path:url(#SVGID_00000026123215892626474310000014578213599595173305_);}
	.st34{stroke:#000000;stroke-width:0.5;stroke-miterlimit:10;}
	.st35{clip-path:url(#SVGID_00000120530824810660324260000000521967689019018885_);}
	.st36{clip-path:url(#SVGID_00000179640899733335183830000017027907182120229510_);}
	.st37{clip-path:url(#SVGID_00000140730242955144764650000006185389054998559659_);}
	.st38{fill:#1A1A1A;}
	.st39{clip-path:url(#SVGID_00000076590716988560247170000004486258404133470362_);}
	.st40{clip-path:url(#SVGID_00000132787372398153414680000012693319826097594766_);}
	.st41{clip-path:url(#SVGID_00000147215725046603036140000013621190778438029232_);}
	.st42{clip-path:url(#SVGID_00000039130782431075657970000011883193919061144723_);}
	.st43{clip-path:url(#SVGID_00000101810449376080339900000004338600058281451965_);}
	.st44{clip-path:url(#SVGID_00000049202432983876545530000004503526872153809793_);}
	.st45{clip-path:url(#SVGID_00000132790614313108263440000015400711395943285681_);}
	.st46{clip-path:url(#SVGID_00000000212643424692787830000008672626848238722193_);}
	.st47{clip-path:url(#SVGID_00000157286769780433993880000004179494790304602774_);}
	.st48{fill:#F1F1F1;}
	.st49{fill:#E8E8E8;}
	.st50{fill:#FEFEFE;}
	.st51{fill:#CCCCCC;}
	.st52{fill:#B3B3B3;}
	.st53{fill:#E6E6E6;}
	.st54{fill:#EBEBEB;}
	.st55{fill:#EEEEEE;}
	.st56{fill:#F8F8F8;}
	.st57{fill:#FBFBFB;}
	.st58{fill:#383838;}
	.st59{fill:#232323;}
	.st60{fill:#F6F6F6;}
	.st61{fill:#535353;}
	.st62{fill:#0A0A0A;}
	.st63{fill:#F5F5F5;}
	.st64{fill:#818181;}
	.st65{fill:#4A4A4A;}
	.st66{fill:#999999;}
	.st67{fill:url(#SVGID_00000108994111449329073390000006402341034476538258_);}
	.st68{fill:url(#SVGID_00000134950177336923329920000005937562667194281148_);}
	.st69{fill:#0E0E0D;}
	.st70{fill:#333333;}
	.st71{fill:#808080;}
	.st72{fill:url(#SVGID_00000121260658302500756290000017483589572814355080_);}
	.st73{fill:#666666;}
	.st74{fill:url(#SVGID_00000039129514313232981000000012227890846155547532_);}
	.st75{fill:url(#SVGID_00000081640214842311683300000004881540214406049185_);}
	.st76{fill:url(#SVGID_00000029729585888555040130000016446498480987903422_);}
	.st77{fill:url(#SVGID_00000091719725143997385140000011988925920102966403_);}
	.st78{fill:url(#SVGID_00000098179046803144230470000012130139559894419605_);}
	.st79{clip-path:url(#SVGID_00000029732524121689523690000005236455761533053317_);}
	.st80{clip-path:url(#SVGID_00000087411477179586854550000002591494881999400883_);}
	.st81{clip-path:url(#SVGID_00000089546987590679538760000011006067500387966135_);}
	.st82{clip-path:url(#SVGID_00000115509369226384568320000007795703287724640957_);}
	.st83{clip-path:url(#SVGID_00000079443805693389278900000008747385704867085242_);}
	.st84{fill:#241F20;stroke:#000000;stroke-width:0.5;stroke-miterlimit:10;}
	.st85{clip-path:url(#SVGID_00000136406094059101066080000007013319548643685507_);}
	.st86{clip-path:url(#SVGID_00000145753855066551903680000013962867312361456284_);}
	.st87{clip-path:url(#SVGID_00000082328900029817284600000007442936586997884314_);}
	.st88{clip-path:url(#SVGID_00000053519529664296752850000012389797547667388567_);}
	.st89{clip-path:url(#SVGID_00000108300001882783647080000008881307014472748984_);}
	.st90{clip-path:url(#SVGID_00000004530938899879931830000018339282375509475765_);}
	.st91{clip-path:url(#SVGID_00000163054789218399151860000012870889049019186601_);}
	.st92{clip-path:url(#SVGID_00000132780196545473467810000003875032833399402431_);}
	.st93{clip-path:url(#SVGID_00000160159823607756590140000010867411472182959752_);}
	.st94{clip-path:url(#SVGID_00000070087394798450168370000000538371192875291045_);}
	.st95{clip-path:url(#SVGID_00000097488535526137789420000008706309641614507654_);}
	.st96{clip-path:url(#SVGID_00000138571827385153066870000017861364630569346453_);}
	.st97{clip-path:url(#SVGID_00000034064896887499623470000003050937711546843031_);}
	.st98{clip-path:url(#SVGID_00000036934844786375881630000009730170880446646401_);}
	.st99{clip-path:url(#SVGID_00000021807475851346153190000008583584267600449702_);}
	.st100{clip-path:url(#SVGID_00000047040138265696606580000009163985092751249308_);}
	.st101{clip-path:url(#SVGID_00000013156670260804052100000003392148817138341289_);}
	.st102{clip-path:url(#SVGID_00000157292316800804975300000016814427706920859060_);}
	.st103{clip-path:url(#SVGID_00000023245815189970354400000017121187227606316163_);}
	.st104{clip-path:url(#SVGID_00000052821527582095043320000000944036941282553270_);}
	.st105{clip-path:url(#SVGID_00000044856105349330915600000000934877328758816131_);}
	.st106{clip-path:url(#SVGID_00000105399625834542931420000017043415423205678221_);}
	.st107{clip-path:url(#SVGID_00000005969366118974348450000014970275044009564312_);}
	.st108{clip-path:url(#SVGID_00000138544345535269926080000010579529238617856937_);}
	.st109{clip-path:url(#SVGID_00000040541804685916298350000015093249182872679850_);}
	.st110{clip-path:url(#SVGID_00000003075479486194322440000008021851352776563645_);}
	.st111{clip-path:url(#SVGID_00000049215583424203189870000003502440895923950484_);}
	.st112{clip-path:url(#SVGID_00000111184775270212754990000000306454280889463485_);}
	.st113{clip-path:url(#SVGID_00000048471617281889463160000004929423611447104679_);}
	.st114{clip-path:url(#SVGID_00000122701557219656354800000005679468203695598507_);}
	.st115{fill:#FFFFFF;stroke:#000000;stroke-miterlimit:10;}
	.st116{clip-path:url(#SVGID_00000096755075721524712560000009942724885203242665_);}
	.st117{clip-path:url(#SVGID_00000093882070802755528040000014249165393594685072_);}
	.st118{fill:none;stroke:#010101;stroke-miterlimit:10;}
	.st119{fill:#010101;stroke:#000000;stroke-miterlimit:10;}
	.st120{clip-path:url(#SVGID_00000154416893135639738360000003561615191014811570_);}
	.st121{fill:#010101;stroke:#010101;stroke-miterlimit:10;}
	.st122{clip-path:url(#SVGID_00000022530397955403215790000013097090057257583233_);}
	.st123{clip-path:url(#SVGID_00000002347213589625746810000003109158075792104844_);}
	.st124{clip-path:url(#SVGID_00000051383630699851824790000016401266465224282303_);}
	.st125{clip-path:url(#SVGID_00000081614154375530667140000011853340988151578805_);}
	.st126{clip-path:url(#SVGID_00000091012190555929831760000006444546283899805584_);}
	.st127{fill:none;stroke:#000000;stroke-width:3;stroke-miterlimit:10;}
	.st128{clip-path:url(#SVGID_00000129885550844427392290000015232153897202780567_);}
	.st129{clip-path:url(#SVGID_00000149373724902873847180000003010289516119296656_);}
	.st130{clip-path:url(#SVGID_00000070802111048528371510000013894731246668985271_);}
	.st131{clip-path:url(#SVGID_00000139291274220301060130000010290231166413278906_);}
	.st132{fill:#040606;}
	.st133{clip-path:url(#SVGID_00000052813368388401798380000016480940690722079915_);}
	.st134{clip-path:url(#SVGID_00000114051064061097815580000002903840550685438853_);}
	.st135{clip-path:url(#SVGID_00000178197773018582251420000015873018155601810098_);}
	.st136{clip-path:url(#SVGID_00000154392643436607368840000008084896964071396237_);}
	.st137{clip-path:url(#SVGID_00000116218004283945629830000003565824551352382387_);}
	.st138{clip-path:url(#SVGID_00000041296868643647779520000015231131241742136738_);}
	.st139{clip-path:url(#SVGID_00000112634237132285658000000012737695643712450455_);}
	.st140{fill:#FFFFFF;stroke:#000000;stroke-width:1.5;stroke-miterlimit:10;}
	.st141{clip-path:url(#SVGID_00000001636619743631600690000006282528736557708206_);}
	.st142{fill:#BDBCBC;}
	.st143{clip-path:url(#SVGID_00000129183798543569925640000007283049142095911573_);}
	.st144{fill:#2E2A2B;}
	.st145{clip-path:url(#SVGID_00000117634355517960077460000016140293671919027339_);}
	.st146{clip-path:url(#SVGID_00000152260768777243353440000003622519693499665550_);}
	.st147{clip-path:url(#SVGID_00000103948065932561023810000013801565467346089098_);}
	.st148{clip-path:url(#SVGID_00000174577156918773917430000005252841728885147070_);}
	.st149{clip-path:url(#SVGID_00000047766582258666424130000018268780992688905608_);}
	.st150{fill:#272324;}
	.st151{clip-path:url(#SVGID_00000169556299715498968680000017104360318512676745_);}
	.st152{clip-path:url(#SVGID_00000109739813184952970230000007662459485182937221_);}
	.st153{clip-path:url(#SVGID_00000123435546399173895710000010208232844107584133_);}
	.st154{clip-path:url(#SVGID_00000145778470540083310760000012212416471709827456_);}
	.st155{clip-path:url(#SVGID_00000016062773342049298380000017125067756849443758_);}
	.st156{clip-path:url(#SVGID_00000127017624437219125540000007103652835491834815_);}
	.st157{fill:none;stroke:#000000;stroke-width:0.8735;stroke-linecap:round;stroke-linejoin:round;stroke-miterlimit:10;}
	.st158{clip-path:url(#SVGID_00000000181312287549468940000016922828038929355707_);}
	.st159{clip-path:url(#SVGID_00000082360842863038013830000013467756658538096310_);}
	.st160{clip-path:url(#SVGID_00000067919342510823795580000010829073847804148864_);}
	.st161{clip-path:url(#SVGID_00000070096928070679957590000016795469990352660158_);}
	.st162{clip-path:url(#SVGID_00000023984037672366967060000001535646672178537371_);}
	.st163{clip-path:url(#SVGID_00000041262179732494200460000009115078094180834725_);}
	.st164{clip-path:url(#SVGID_00000141441952223096147830000002130932519463513237_);}
	.st165{clip-path:url(#SVGID_00000163795819324751374820000006444613755389605284_);}
	.st166{clip-path:url(#SVGID_00000096757298023272813100000005397336606121735069_);}
	.st167{clip-path:url(#SVGID_00000080904565571055200820000012953461183090527370_);}
	.st168{clip-path:url(#SVGID_00000151543887375989672360000010533588489739621005_);}
	.st169{clip-path:url(#SVGID_00000064329635440298855260000011600636378850781336_);}
	.st170{clip-path:url(#SVGID_00000060001821994782889800000000917905688280854661_);}
	.st171{clip-path:url(#SVGID_00000048466975523307083080000011015530734803019158_);}
	.st172{clip-path:url(#SVGID_00000050638694692817883630000016418605905475579523_);}
	.st173{clip-path:url(#SVGID_00000082370104596913971080000010742124748634369691_);}
	.st174{clip-path:url(#SVGID_00000090991766174177368720000001981455657550099087_);}
	.st175{clip-path:url(#SVGID_00000113339523501985042440000000739544210666121144_);}
	.st176{clip-path:url(#SVGID_00000055708445800374282750000010272987009714039487_);}
	.st177{clip-path:url(#SVGID_00000000930790792871210260000016726399601459489691_);}
	.st178{clip-path:url(#SVGID_00000106868472369102516210000012608129904493741228_);}
	.st179{clip-path:url(#SVGID_00000052823468443154310240000012003940839570575760_);}
	.st180{clip-path:url(#SVGID_00000049926572173549494010000000532213707121760959_);}
	.st181{clip-path:url(#SVGID_00000111909623290103388340000002430190695654685591_);}
	.st182{clip-path:url(#SVGID_00000128458596693993475030000003607945715706967941_);}
	.st183{clip-path:url(#SVGID_00000164481628045550337190000011599152437189971879_);}
	.st184{clip-path:url(#SVGID_00000058552338429861463100000003332837262565860254_);}
	.st185{clip-path:url(#SVGID_00000121984543841101427010000009871812848855205274_);}
	.st186{clip-path:url(#SVGID_00000166661798736057709770000000145077643368764296_);}
	.st187{clip-path:url(#SVGID_00000146482335871333777280000012945044241522848148_);}
	.st188{clip-path:url(#SVGID_00000021817569445550713630000008130721455697251753_);}
	.st189{clip-path:url(#SVGID_00000020384115131797126330000013463639349087095707_);}
	.st190{clip-path:url(#SVGID_00000156589729805028981800000018210918711450473135_);}
	.st191{clip-path:url(#SVGID_00000106113329303024303450000001954672209315939977_);}
	.st192{clip-path:url(#SVGID_00000036964881182098197650000015479067515479098779_);}
	.st193{clip-path:url(#SVGID_00000168836529399385572260000007255656411510704045_);}
	.st194{clip-path:url(#SVGID_00000091727487129213981110000009053258845275720326_);}
	.st195{clip-path:url(#SVGID_00000011753835508664780250000011135750466988712123_);}
	.st196{fill:#E5E5E5;}
	.st197{fill:#1D1D1B;}
	.st198{fill:none;stroke:#000000;stroke-miterlimit:10;}
	.st199{fill:#FEFEFE;stroke:#000000;stroke-miterlimit:10;}
	.st200{clip-path:url(#SVGID_00000095299023966200759500000005048631822236681352_);}
	.st201{clip-path:url(#SVGID_00000093865098649879096900000013154425600127003067_);}
	.st202{clip-path:url(#SVGID_00000163038251761917064710000005040442457804720539_);}
	.st203{fill:#231F1F;}
	.st204{fill:#020000;}
	.st205{clip-path:url(#SVGID_00000173150014862221233100000009928604497177490612_);}
	.st206{clip-path:url(#SVGID_00000036231607343338497380000000840260849764651419_);}
	.st207{clip-path:url(#SVGID_00000118361706490171489730000007210373926723901064_);}
	.st208{clip-path:url(#SVGID_00000040536438723489045440000004925810952800901257_);}
	.st209{fill:#050000;}
	.st210{clip-path:url(#SVGID_00000088813888470858100880000015932916918418600584_);}
	.st211{clip-path:url(#SVGID_00000158016982856696775760000011196098213523401394_);}
	.st212{clip-path:url(#SVGID_00000051373754570270137920000000832579057599036083_);}
	.st213{clip-path:url(#SVGID_00000176759069499964587590000010632426068682567354_);}
	.st214{clip-path:url(#SVGID_00000115499872224287250070000008383239287767699370_);}
	.st215{clip-path:url(#SVGID_00000103239389033537117700000015091164299017246114_);}
	.st216{fill:#12100F;}
	.st217{clip-path:url(#SVGID_00000106847999705917548640000014815471529980656036_);}
	.st218{clip-path:url(#SVGID_00000117641480393290501390000007095205061543667367_);}
	.st219{fill:none;stroke:#000000;stroke-width:0.5;stroke-miterlimit:10;}
	.st220{clip-path:url(#SVGID_00000138549106153873370000000007354168398604842924_);}
	.st221{clip-path:url(#SVGID_00000051349745401682964610000011532338176743552400_);}
	.st222{clip-path:url(#SVGID_00000082368842578997510720000016331862673609608117_);}
	.st223{clip-path:url(#SVGID_00000049941243127514895380000016808395686094598588_);}
	.st224{fill:none;stroke:#000000;stroke-width:0.25;stroke-miterlimit:10;}
	.st225{clip-path:url(#SVGID_00000063598148337493333330000008261201865004521137_);}
	.st226{clip-path:url(#SVGID_00000173124819680678847850000018341657056406419895_);}
	.st227{clip-path:url(#SVGID_00000114045740218193287470000013887459075198029733_);}
</style>
<path d="M39.5,30.03c-0.47-1.14-1.01-2.44-1.5-4.15c-0.67-2.31-0.83-3.95-0.96-5.27c-0.17-1.77-0.3-3.05-1.55-4.57
	c-1.1-1.33-2.62-2.33-4.53-2.97l1.71-1.21c0.06-0.04,0.11-0.11,0.11-0.19c0-0.07-0.02-0.15-0.07-0.21
	c-0.69-0.73-3.26-3.13-7.26-3.13c-4,0-6.57,2.4-7.26,3.13c-0.05,0.06-0.08,0.13-0.07,0.21c0.01,0.08,0.05,0.15,0.11,0.19l1.71,1.21
	c-1.91,0.64-3.44,1.64-4.53,2.97c-1.25,1.52-1.38,2.8-1.55,4.57c-0.13,1.32-0.3,2.96-0.96,5.27c-0.49,1.7-1.03,3-1.5,4.15
	c-0.87,2.09-1.49,3.59-0.96,5.74c0.27,1.09,0.79,2.12,1.53,3.07v1.74c0,0.81,1.57,1.18,3.03,1.18c1.46,0,3.03-0.37,3.03-1.18v-1.76
	c0.61-1.04,0.92-2.09,0.92-3.12c0-0.75-0.16-1.31-0.31-1.85c-0.15-0.55-0.3-1.07-0.31-1.81c0-0.4,0.04-0.81,0.12-1.21
	c0.39,0.63,0.9,1.19,1.49,1.65v2.3c0,0.15,0.12,0.27,0.27,0.27h10.45c0.15,0,0.26-0.12,0.26-0.27v-2.3c0.6-0.46,1.11-1.02,1.5-1.65
	c0.09,0.4,0.13,0.81,0.12,1.21c-0.01,0.74-0.15,1.26-0.31,1.81c-0.15,0.54-0.31,1.1-0.31,1.85c0,1.03,0.32,2.07,0.92,3.12v1.76
	c0,0.81,1.57,1.18,3.03,1.18c1.46,0,3.03-0.37,3.03-1.18v-1.74c0.74-0.96,1.26-1.99,1.53-3.07C41,33.62,40.37,32.11,39.5,30.03z
	 M18.79,11.6c0.88-0.86,3.2-2.74,6.66-2.74c3.46,0,5.78,1.89,6.66,2.74l-1.89,1.34c-0.11,0.07-0.14,0.21-0.09,0.32L31,15.3
	c-0.96,2.42-1.84,4.89-2.64,7.38c0.09-1.45,0.13-2.9,0.12-4.34c-0.01-2.04-0.11-4.09-0.31-6.12c-0.01-0.09-0.06-0.17-0.14-0.21
	c-0.55-0.29-1.45-0.64-2.58-0.64c-0.62,0-1.58,0.11-2.58,0.64c-0.08,0.04-0.13,0.12-0.14,0.21c-0.2,2.02-0.3,4.08-0.31,6.12
	c-0.01,1.44,0.03,2.89,0.12,4.34c-0.8-2.49-1.68-4.96-2.64-7.38l0.88-2.03c0.05-0.11,0.01-0.25-0.09-0.32L18.79,11.6z M17.5,39.87
	c-0.58-0.32-1.56-0.47-2.5-0.47c-0.94,0-1.92,0.15-2.5,0.47v-1.12c0-0.19,0.85-0.65,2.5-0.65c1.65,0,2.5,0.45,2.5,0.65V39.87z
	 M18.04,27.51v-7.95c0-0.15-0.12-0.27-0.27-0.27c-0.15,0-0.27,0.12-0.27,0.27v7.95c0,0.92,0.21,1.82,0.59,2.64
	c-0.19,0.63-0.28,1.27-0.28,1.91c0.01,0.81,0.17,1.38,0.33,1.94c0.15,0.53,0.29,1.03,0.29,1.71c0,0.82-0.23,1.67-0.66,2.51
	c-0.36-0.3-1.02-0.5-1.75-0.59c-0.32-0.84-0.57-1.71-0.74-2.59c-0.19-0.98-0.3-1.99-0.3-3c0-0.15-0.12-0.26-0.27-0.26
	c-0.15,0-0.27,0.12-0.27,0.27c0.01,1.04,0.11,2.08,0.32,3.09c0.16,0.83,0.39,1.64,0.68,2.44c-0.14-0.01-0.28-0.01-0.42-0.01
	c-0.42,0-0.85,0.03-1.24,0.09c-0.28-0.75-0.49-1.53-0.64-2.32c-0.03-0.14-0.17-0.23-0.32-0.21c-0.15,0.03-0.24,0.17-0.21,0.31
	c0.16,0.79,0.37,1.57,0.64,2.32c-0.44,0.11-0.81,0.28-1.03,0.49c-0.6-0.82-1.01-1.7-1.24-2.62c-0.49-1.98,0.07-3.34,0.93-5.4
	c0.48-1.16,1.03-2.47,1.53-4.2c0.68-2.36,0.84-4.02,0.98-5.36c0.17-1.74,0.29-2.89,1.43-4.29c1.02-1.24,2.44-2.17,4.23-2.79
	l-0.69,1.6c-0.03,0.06-0.03,0.14,0,0.2c1.26,3.18,2.4,6.45,3.37,9.72c0.68,2.29,1.3,4.63,1.85,6.97h-1.02
	c-0.24-0.34-0.45-0.7-0.63-1.07c-0.27-0.56-0.47-1.15-0.6-1.77c-0.03-0.14-0.17-0.23-0.31-0.21c-0.15,0.03-0.24,0.17-0.21,0.31
	c0.13,0.66,0.34,1.29,0.64,1.89c0.14,0.29,0.3,0.57,0.47,0.84h-0.72c-0.45-0.51-0.82-1.07-1.11-1.68c-0.27-0.56-0.47-1.15-0.6-1.77
	c-0.03-0.15-0.17-0.24-0.32-0.21c-0.14,0.03-0.23,0.17-0.21,0.31c0.13,0.65,0.34,1.29,0.64,1.89c0.25,0.51,0.55,1,0.9,1.45h-1.18
	C18.89,31,18.04,29.29,18.04,27.51z M23.26,24.99c-0.21-2.2-0.31-4.44-0.3-6.65c0.01-1.97,0.11-3.96,0.29-5.92
	c0.24-0.12,0.48-0.21,0.71-0.28v1.64c0,0.15,0.12,0.27,0.27,0.27h2.46c0.15,0,0.27-0.12,0.27-0.27v-1.64
	c0.27,0.09,0.51,0.19,0.71,0.28c0.19,1.96,0.28,3.96,0.3,5.92c0.01,2.21-0.09,4.45-0.31,6.65c-0.83,2.8-1.57,5.66-2.19,8.51
	C24.83,30.65,24.09,27.79,23.26,24.99z M38.4,39.87c-0.59-0.32-1.56-0.47-2.5-0.47s-1.92,0.15-2.5,0.47v-1.12
	c0-0.19,0.85-0.65,2.5-0.65c1.65,0,2.5,0.45,2.5,0.65V39.87z M39.94,35.64c-0.23,0.92-0.64,1.8-1.24,2.62
	c-0.22-0.21-0.59-0.37-1.03-0.49c0.27-0.76,0.48-1.54,0.64-2.32c0.03-0.14-0.07-0.28-0.21-0.31c-0.15-0.02-0.29,0.07-0.32,0.21
	c-0.15,0.79-0.37,1.56-0.64,2.32c-0.4-0.06-0.83-0.09-1.24-0.09c-0.14,0-0.28,0-0.42,0.01c0.29-0.79,0.52-1.61,0.68-2.44
	c0.2-1.02,0.31-2.06,0.32-3.09c0-0.15-0.12-0.27-0.27-0.27c-0.15,0-0.27,0.12-0.27,0.26c-0.01,1-0.11,2.01-0.3,3
	c-0.17,0.88-0.43,1.75-0.74,2.59c-0.73,0.09-1.39,0.28-1.75,0.59c-0.44-0.85-0.66-1.69-0.66-2.51c0-0.68,0.14-1.18,0.29-1.71
	c0.16-0.56,0.32-1.13,0.33-1.94c0-0.64-0.09-1.28-0.28-1.91c0.38-0.82,0.59-1.72,0.59-2.64v-7.95c0-0.15-0.12-0.27-0.27-0.27
	c-0.15,0-0.27,0.12-0.27,0.27v7.95c0,1.79-0.85,3.49-2.28,4.58H29.4c0.35-0.45,0.65-0.94,0.9-1.45c0.29-0.6,0.51-1.24,0.64-1.89
	c0.03-0.15-0.06-0.28-0.21-0.31c-0.15-0.03-0.29,0.06-0.32,0.21c-0.13,0.61-0.32,1.2-0.6,1.77c-0.29,0.6-0.66,1.17-1.11,1.68h-0.72
	c0.17-0.27,0.33-0.55,0.47-0.84c0.29-0.6,0.5-1.23,0.64-1.89c0.03-0.14-0.06-0.28-0.21-0.31c-0.14-0.03-0.28,0.06-0.31,0.21
	c-0.13,0.61-0.32,1.21-0.6,1.77c-0.18,0.37-0.39,0.73-0.63,1.07h-1.02c0.54-2.34,1.16-4.68,1.85-6.97c0.98-3.28,2.11-6.55,3.37-9.72
	c0.02-0.06,0.02-0.14,0-0.2l-0.69-1.6c1.79,0.61,3.21,1.54,4.23,2.79c1.15,1.39,1.26,2.55,1.43,4.29c0.13,1.34,0.3,3.01,0.98,5.36
	c0.5,1.73,1.04,3.04,1.52,4.2C39.87,32.3,40.43,33.66,39.94,35.64z"/>
</svg>
