<?xml version="1.0" encoding="utf-8"?>
<!-- Generator: Adobe Illustrator 27.3.1, SVG Export Plug-In . SVG Version: 6.00 Build 0)  -->
<svg version="1.1" id="Layer_1" xmlns="http://www.w3.org/2000/svg" xmlns:xlink="http://www.w3.org/1999/xlink" x="0px" y="0px"
	 viewBox="0 0 50 50" style="enable-background:new 0 0 50 50;" xml:space="preserve">
<style type="text/css">
	.st0{fill:none;}
	.st1{stroke:#000000;stroke-miterlimit:10;}
	.st2{stroke:#000000;stroke-width:0.75;stroke-miterlimit:10;}
	.st3{clip-path:url(#SVGID_00000045611457292076928570000013065531298727596985_);}
	.st4{clip-path:url(#SVGID_00000037669154978199815350000006156244168245381010_);}
	.st5{fill:#FFFFFF;}
	.st6{clip-path:url(#SVGID_00000041270137584374202600000011731272598725277077_);}
	.st7{fill:#231F20;}
	.st8{clip-path:url(#SVGID_00000121966331935730093130000002707227401707478163_);}
	.st9{clip-path:url(#SVGID_00000133524887869592372550000010933122293123311260_);}
	.st10{clip-path:url(#SVGID_00000050657810571358195490000003595199721192553879_);}
	.st11{clip-path:url(#SVGID_00000170962887870547765930000010512185769669530536_);}
	.st12{clip-path:url(#SVGID_00000181050443067551558480000003311812735694921886_);}
	.st13{clip-path:url(#SVGID_00000182521586896254638060000005026667501288341639_);}
	.st14{clip-path:url(#SVGID_00000067237513441740006480000015412313897161743273_);}
	.st15{clip-path:url(#SVGID_00000183223930011267920430000001973263338419210675_);}
	.st16{clip-path:url(#SVGID_00000048476166821003426210000016072468225762091157_);}
	.st17{clip-path:url(#SVGID_00000106124384171429326320000010809022845803093422_);}
	.st18{clip-path:url(#SVGID_00000105391295871845555390000006742123696678280368_);}
	.st19{clip-path:url(#SVGID_00000182486289557142404150000007646417463213459857_);}
	.st20{clip-path:url(#SVGID_00000150822284607681078760000010769294025993601470_);}
	.st21{clip-path:url(#SVGID_00000111173940607527682200000011107127709849138091_);}
	.st22{clip-path:url(#SVGID_00000127042579049798055070000010596582990898414772_);}
	.st23{clip-path:url(#SVGID_00000131349827262232738580000006835331756776431490_);}
	.st24{clip-path:url(#SVGID_00000049938355251029509340000004967198427810227346_);}
	.st25{clip-path:url(#SVGID_00000160891493536873029550000012211930704967217041_);}
	.st26{clip-path:url(#SVGID_00000114792846893370373610000011945768348499162507_);}
	.st27{clip-path:url(#SVGID_00000072969994796629239040000017940448173907482002_);}
	.st28{clip-path:url(#SVGID_00000154397828131722079850000016243362315742276014_);}
	.st29{clip-path:url(#SVGID_00000044881218875178572670000012801329606738945689_);}
	.st30{clip-path:url(#SVGID_00000121241799027294169950000015736458824965259431_);}
	.st31{fill-rule:evenodd;clip-rule:evenodd;}
	.st32{clip-path:url(#SVGID_00000026871563319626880460000001958976771944643742_);}
	.st33{clip-path:url(#SVGID_00000127007026652275735020000014808698251744906666_);}
	.st34{stroke:#000000;stroke-width:0.5;stroke-miterlimit:10;}
	.st35{clip-path:url(#SVGID_00000114795622886013490490000004998479351062978710_);}
	.st36{clip-path:url(#SVGID_00000031187558560823325520000017157199548148879264_);}
	.st37{clip-path:url(#SVGID_00000174559600081669095660000017623493970690367931_);}
	.st38{fill:#1A1A1A;}
	.st39{clip-path:url(#SVGID_00000160881540947782202900000018098506763860211094_);}
	.st40{clip-path:url(#SVGID_00000037673262601875350740000015304252754347517847_);}
	.st41{clip-path:url(#SVGID_00000087407980441341995630000004228041813697876385_);}
	.st42{clip-path:url(#SVGID_00000042001750173958422040000015235647610938005432_);}
	.st43{clip-path:url(#SVGID_00000092437771358257955080000006972068608177521577_);}
	.st44{clip-path:url(#SVGID_00000049216810512944425660000009684948435644837041_);}
	.st45{clip-path:url(#SVGID_00000034787501026080728990000015715601963740712072_);}
	.st46{clip-path:url(#SVGID_00000183948231524780120320000001499086426737253558_);}
	.st47{clip-path:url(#SVGID_00000030457608553502486320000015726571757089897641_);}
	.st48{fill:#F1F1F1;}
	.st49{fill:#E8E8E8;}
	.st50{fill:#FEFEFE;}
	.st51{fill:#CCCCCC;}
	.st52{fill:#B3B3B3;}
	.st53{fill:#E6E6E6;}
	.st54{fill:#EBEBEB;}
	.st55{fill:#EEEEEE;}
	.st56{fill:#F8F8F8;}
	.st57{fill:#FBFBFB;}
	.st58{fill:#383838;}
	.st59{fill:#232323;}
	.st60{fill:#F6F6F6;}
	.st61{fill:#535353;}
	.st62{fill:#0A0A0A;}
	.st63{fill:#F5F5F5;}
	.st64{fill:#818181;}
	.st65{fill:#4A4A4A;}
	.st66{fill:#999999;}
	.st67{fill:url(#SVGID_00000113330068039566602800000006889269875331614363_);}
	.st68{fill:url(#SVGID_00000005960318023620538590000012433719170268003470_);}
	.st69{fill:#0E0E0D;}
	.st70{fill:#333333;}
	.st71{fill:#808080;}
	.st72{fill:url(#SVGID_00000099663171302928007510000004436703355593758869_);}
	.st73{fill:#666666;}
	.st74{fill:url(#SVGID_00000067930382459631214090000015538810521828031150_);}
	.st75{fill:url(#SVGID_00000048463245355606491110000010568196911073445306_);}
	.st76{fill:url(#SVGID_00000141432757490937832340000002153761880062834816_);}
	.st77{fill:url(#SVGID_00000005264193070850433090000018058002936921331851_);}
	.st78{fill:url(#SVGID_00000106829152494114822430000016347813510423048861_);}
	.st79{clip-path:url(#SVGID_00000162334689319708514650000013176029511133346688_);}
	.st80{clip-path:url(#SVGID_00000005255643304652909250000009460737814433943989_);}
	.st81{clip-path:url(#SVGID_00000064326931434777863390000011813657950552366473_);}
	.st82{clip-path:url(#SVGID_00000028297626587937930230000002866609872971592068_);}
	.st83{clip-path:url(#SVGID_00000122690140818702553130000014524391436664163993_);}
	.st84{fill:#241F20;stroke:#000000;stroke-width:0.5;stroke-miterlimit:10;}
	.st85{clip-path:url(#SVGID_00000170970859168457767250000005175487027239186609_);}
	.st86{clip-path:url(#SVGID_00000179647066424018416710000005190257167001472431_);}
	.st87{clip-path:url(#SVGID_00000069381011695851504670000005005448320193050029_);}
	.st88{clip-path:url(#SVGID_00000061456682886333101310000008103412693813514892_);}
	.st89{clip-path:url(#SVGID_00000131368549496972722170000010246776316937604518_);}
	.st90{clip-path:url(#SVGID_00000100372639557192209860000000908372502279729068_);}
	.st91{clip-path:url(#SVGID_00000108271403475971014480000004107103978556611261_);}
	.st92{clip-path:url(#SVGID_00000179637392939798889490000016135123669926861189_);}
	.st93{clip-path:url(#SVGID_00000088816305283757469840000007548553193068130484_);}
	.st94{clip-path:url(#SVGID_00000098220130312207452950000017163408487703818938_);}
	.st95{clip-path:url(#SVGID_00000168813546181072018790000011865190773221134775_);}
	.st96{clip-path:url(#SVGID_00000137101725934309573880000015765694434603549339_);}
	.st97{clip-path:url(#SVGID_00000096764003723586101480000011622332057954877630_);}
	.st98{clip-path:url(#SVGID_00000159470651741942594620000015383866772490995897_);}
	.st99{clip-path:url(#SVGID_00000013195020595737510390000003139334446843589772_);}
	.st100{clip-path:url(#SVGID_00000130629667567869772570000008143969062694598829_);}
	.st101{clip-path:url(#SVGID_00000068661881333790785790000010519236216359716287_);}
	.st102{clip-path:url(#SVGID_00000021095589416148424670000007220259546918818966_);}
	.st103{clip-path:url(#SVGID_00000157298454558345144180000001642711411764108171_);}
	.st104{clip-path:url(#SVGID_00000158742725698244804200000018256737139865092760_);}
	.st105{clip-path:url(#SVGID_00000008129463495457554090000005761873227946196126_);}
	.st106{clip-path:url(#SVGID_00000023269937991789599740000002338100573655785344_);}
	.st107{clip-path:url(#SVGID_00000098192823679728097510000016847773164267861653_);}
	.st108{clip-path:url(#SVGID_00000003807942290482815500000017905890900953080981_);}
	.st109{clip-path:url(#SVGID_00000062184963489784117440000010939981920216144298_);}
	.st110{clip-path:url(#SVGID_00000156563183041867376700000012988549968535212681_);}
	.st111{clip-path:url(#SVGID_00000090254779916526393590000014858318515730706334_);}
	.st112{clip-path:url(#SVGID_00000087377639168913588330000003651903459603674008_);}
	.st113{clip-path:url(#SVGID_00000079447481783646563050000002440490530095734453_);}
	.st114{clip-path:url(#SVGID_00000100379447523057739690000004082862509261547449_);}
	.st115{fill:#FFFFFF;stroke:#000000;stroke-miterlimit:10;}
	.st116{clip-path:url(#SVGID_00000097472396971179082600000017773914381125090996_);}
	.st117{clip-path:url(#SVGID_00000166653397606820815360000001203342815058292380_);}
	.st118{fill:none;stroke:#010101;stroke-miterlimit:10;}
	.st119{fill:#010101;stroke:#000000;stroke-miterlimit:10;}
	.st120{clip-path:url(#SVGID_00000132087582209986158310000008061461519988671386_);}
	.st121{fill:#010101;stroke:#010101;stroke-miterlimit:10;}
	.st122{clip-path:url(#SVGID_00000149357803352164622150000014521571097948626054_);}
	.st123{clip-path:url(#SVGID_00000033358100456361688710000014946213168815481478_);}
	.st124{clip-path:url(#SVGID_00000086660511591015910890000007722364816212873649_);}
	.st125{clip-path:url(#SVGID_00000096763513369483240330000012235765926042191751_);}
	.st126{clip-path:url(#SVGID_00000027576704305655393390000007772329875779442834_);}
	.st127{fill:none;stroke:#000000;stroke-width:3;stroke-miterlimit:10;}
	.st128{clip-path:url(#SVGID_00000099664017729711177250000007796956339914474418_);}
	.st129{clip-path:url(#SVGID_00000039101333423423580600000013524026362122048442_);}
	.st130{clip-path:url(#SVGID_00000076578059160434731290000007510267445031781285_);}
	.st131{clip-path:url(#SVGID_00000015331631971998721150000003327977898158944954_);}
	.st132{fill:#040606;}
	.st133{clip-path:url(#SVGID_00000075876236951651844130000008385933449323826056_);}
	.st134{clip-path:url(#SVGID_00000054245799359446792760000003688259855986151090_);}
	.st135{clip-path:url(#SVGID_00000131343315892466660000000007178816602852706734_);}
	.st136{clip-path:url(#SVGID_00000137821288339429334110000000335734133850636956_);}
	.st137{clip-path:url(#SVGID_00000018230372800905262060000006619040294959466146_);}
	.st138{clip-path:url(#SVGID_00000046320875193744646250000008453819315201857687_);}
	.st139{clip-path:url(#SVGID_00000098216845402833924010000017364108169541981838_);}
	.st140{fill:#FFFFFF;stroke:#000000;stroke-width:1.5;stroke-miterlimit:10;}
	.st141{clip-path:url(#SVGID_00000054985120222972944070000003914597505580078252_);}
	.st142{fill:#BDBCBC;}
	.st143{clip-path:url(#SVGID_00000025430177204655531630000010111597020468690859_);}
	.st144{fill:#2E2A2B;}
	.st145{clip-path:url(#SVGID_00000054954092450005859480000008405394043103786631_);}
	.st146{clip-path:url(#SVGID_00000181789579559037787960000008366001660949505163_);}
	.st147{clip-path:url(#SVGID_00000044856022381995298520000017559689755036164765_);}
	.st148{clip-path:url(#SVGID_00000043450490036485076700000008787807387213464970_);}
	.st149{clip-path:url(#SVGID_00000083777743580216554480000011310837799918780079_);}
	.st150{fill:#272324;}
	.st151{clip-path:url(#SVGID_00000091007749921620654660000006668843026410253990_);}
	.st152{clip-path:url(#SVGID_00000096042959210308181020000004977025212275598477_);}
	.st153{clip-path:url(#SVGID_00000172402723962213546960000018396394450020832692_);}
	.st154{clip-path:url(#SVGID_00000076567656151150941530000004179528422089382568_);}
	.st155{clip-path:url(#SVGID_00000078024878840149104860000005971394123496975265_);}
	.st156{clip-path:url(#SVGID_00000178198710248246291400000005360830514953992834_);}
	.st157{fill:none;stroke:#000000;stroke-width:0.8735;stroke-linecap:round;stroke-linejoin:round;stroke-miterlimit:10;}
	.st158{clip-path:url(#SVGID_00000060738347933934869620000017791635541508835475_);}
	.st159{clip-path:url(#SVGID_00000032644306332158983250000013007510995316601271_);}
	.st160{clip-path:url(#SVGID_00000033341354655674783960000017953991348521177270_);}
	.st161{clip-path:url(#SVGID_00000094602976784714277180000010119838472647557778_);}
	.st162{clip-path:url(#SVGID_00000116930123544408504820000000312105132390535340_);}
	.st163{clip-path:url(#SVGID_00000110444462522919226870000012080488867272831161_);}
	.st164{clip-path:url(#SVGID_00000112614278402314210580000011613170429277047194_);}
	.st165{clip-path:url(#SVGID_00000044878232783912991890000003442114352558020249_);}
	.st166{clip-path:url(#SVGID_00000008129368138794979210000009432101416100619189_);}
	.st167{clip-path:url(#SVGID_00000172431279641980956020000000119982219371888551_);}
	.st168{clip-path:url(#SVGID_00000021798941621997980650000017528659414474167206_);}
	.st169{clip-path:url(#SVGID_00000015336895531209647300000010912222569805372350_);}
	.st170{clip-path:url(#SVGID_00000048467734979078434870000001817381094993220480_);}
	.st171{clip-path:url(#SVGID_00000129201076904084007140000004644113556315499650_);}
	.st172{clip-path:url(#SVGID_00000143601788983284752360000007178727326384465820_);}
	.st173{clip-path:url(#SVGID_00000100358439386402929070000008620653922415457712_);}
	.st174{clip-path:url(#SVGID_00000181784755359269737010000010315505145353258634_);}
	.st175{clip-path:url(#SVGID_00000070828825968185840380000015421426996403955865_);}
	.st176{clip-path:url(#SVGID_00000036223555818410050300000001751275691313258124_);}
	.st177{clip-path:url(#SVGID_00000098924928227821941190000016763330398810077069_);}
	.st178{clip-path:url(#SVGID_00000005980208041299212820000013183789334114336935_);}
	.st179{clip-path:url(#SVGID_00000111881346249655924470000008402025030657795222_);}
	.st180{clip-path:url(#SVGID_00000111160322699873860520000015216989278043163524_);}
	.st181{clip-path:url(#SVGID_00000008851990666115403890000007916489150301998780_);}
	.st182{clip-path:url(#SVGID_00000049193333072390477540000014801496950551750059_);}
	.st183{clip-path:url(#SVGID_00000120558733492180070860000013212203974189508511_);}
	.st184{clip-path:url(#SVGID_00000119114049133467090970000004774354395859032247_);}
	.st185{clip-path:url(#SVGID_00000080903451940261680400000002455777831330849675_);}
	.st186{clip-path:url(#SVGID_00000101810064923925659860000008953250250453073843_);}
	.st187{clip-path:url(#SVGID_00000119107029237580898990000008951683276764142208_);}
	.st188{clip-path:url(#SVGID_00000064345028923354916140000008498505187606415242_);}
	.st189{clip-path:url(#SVGID_00000054981802243130040440000005440457056209997967_);}
	.st190{clip-path:url(#SVGID_00000000213811546865615070000006109811388156447658_);}
	.st191{clip-path:url(#SVGID_00000162313602770751731210000018129947739244552326_);}
	.st192{clip-path:url(#SVGID_00000075871738078990445270000018369585493715108258_);}
	.st193{clip-path:url(#SVGID_00000147194044490243948340000005826369759280188832_);}
	.st194{clip-path:url(#SVGID_00000181081475978060070290000012497720857883338643_);}
	.st195{clip-path:url(#SVGID_00000011741281915415068410000009594082426174423206_);}
	.st196{fill:#E5E5E5;}
	.st197{fill:#1D1D1B;}
	.st198{fill:none;stroke:#000000;stroke-miterlimit:10;}
	.st199{fill:#FEFEFE;stroke:#000000;stroke-miterlimit:10;}
	.st200{clip-path:url(#SVGID_00000099638792618458314080000005558910501293846455_);}
	.st201{clip-path:url(#SVGID_00000140703971071018615880000013811192478621089949_);}
	.st202{clip-path:url(#SVGID_00000119110515131343496520000003622614177947890333_);}
	.st203{fill:#231F1F;}
	.st204{fill:#020000;}
	.st205{clip-path:url(#SVGID_00000016068098993297944740000014869059768579892638_);}
	.st206{clip-path:url(#SVGID_00000132079216537711805570000000242245966907543982_);}
	.st207{clip-path:url(#SVGID_00000137819296224239082620000013596468179440737972_);}
	.st208{clip-path:url(#SVGID_00000109713058813037421990000008239692592007402122_);}
	.st209{fill:#050000;}
	.st210{clip-path:url(#SVGID_00000118355892752789829460000009212660643464910213_);}
	.st211{clip-path:url(#SVGID_00000104686141929029815690000003856700293634958488_);}
	.st212{clip-path:url(#SVGID_00000114062582307551364750000013528622748597861567_);}
	.st213{clip-path:url(#SVGID_00000054970279914239867040000008638723324344984491_);}
	.st214{clip-path:url(#SVGID_00000013873269982666598600000002819356849050150039_);}
	.st215{clip-path:url(#SVGID_00000088092722104682535990000003950512425421395588_);}
	.st216{fill:#12100F;}
	.st217{clip-path:url(#SVGID_00000113334815215593709350000008558481276659655355_);}
	.st218{clip-path:url(#SVGID_00000180337278629801932590000011114927870502144947_);}
	.st219{fill:none;stroke:#000000;stroke-width:0.5;stroke-miterlimit:10;}
	.st220{clip-path:url(#SVGID_00000113322946981742713850000001567587400835798717_);}
	.st221{clip-path:url(#SVGID_00000137837799873121248160000002227427157705481858_);}
	.st222{clip-path:url(#SVGID_00000045588057492250488400000010558883011005557439_);}
	.st223{clip-path:url(#SVGID_00000178890015006604969990000013011597867033839038_);}
	.st224{fill:none;stroke:#000000;stroke-width:0.25;stroke-miterlimit:10;}
	.st225{clip-path:url(#SVGID_00000090281391590639916840000003592071749760552073_);}
	.st226{clip-path:url(#SVGID_00000047773996678955281440000001564246165178806144_);}
	.st227{clip-path:url(#SVGID_00000081649818625792089560000007246836495018109118_);}
</style>
<g>
	<defs>
		<rect id="SVGID_00000003802459171004161970000010456864101403806885_" x="12.27" y="7.52" width="22.63" height="37.7"/>
	</defs>
	<clipPath id="SVGID_00000000915425728287238760000012868251954826049433_">
		<use xlink:href="#SVGID_00000003802459171004161970000010456864101403806885_"  style="overflow:visible;"/>
	</clipPath>
	<g style="clip-path:url(#SVGID_00000000915425728287238760000012868251954826049433_);">
		<path d="M25.43,29.57c0,0.36-0.29,0.65-0.65,0.65c-0.36,0-0.65-0.29-0.65-0.65c0-0.36,0.29-0.65,0.65-0.65
			C25.13,28.92,25.43,29.21,25.43,29.57z M25.43,24.73c0,0.36-0.29,0.65-0.65,0.65c-0.36,0-0.65-0.29-0.65-0.65
			c0-0.36,0.29-0.65,0.65-0.65C25.13,24.07,25.43,24.36,25.43,24.73z M25.43,19.88c0,0.36-0.29,0.65-0.65,0.65
			c-0.36,0-0.65-0.29-0.65-0.65c0-0.36,0.29-0.65,0.65-0.65C25.13,19.22,25.43,19.52,25.43,19.88z M22.68,29.57
			c0,0.36-0.29,0.65-0.65,0.65c-0.36,0-0.65-0.29-0.65-0.65c0-0.36,0.29-0.65,0.65-0.65C22.39,28.92,22.68,29.21,22.68,29.57z
			 M22.68,24.73c0,0.36-0.29,0.65-0.65,0.65c-0.36,0-0.65-0.29-0.65-0.65c0-0.36,0.29-0.65,0.65-0.65
			C22.39,24.07,22.68,24.36,22.68,24.73z M22.68,19.88c0,0.36-0.29,0.65-0.65,0.65c-0.36,0-0.65-0.29-0.65-0.65
			c0-0.36,0.29-0.65,0.65-0.65C22.39,19.22,22.68,19.52,22.68,19.88z M30.18,43.38c-0.26-5.21-2.43-12.37-2.46-12.45
			c-0.04-0.13-0.18-0.2-0.31-0.17c-0.13,0.04-0.21,0.18-0.17,0.31c0.02,0.08,2.24,7.38,2.44,12.54c-0.01,0.02-0.01,0.04-0.01,0.06
			l0.01,0.21c-0.48,0.11-1.79,0.39-3.19,0.59V18.72c0-0.01,0-0.01,0-0.01c0-0.01,0-0.02,0-0.03c0-0.01,0-0.01,0-0.02
			c0-0.01-0.01-0.02-0.01-0.03c0-0.01-0.01-0.01-0.01-0.02c0,0,0-0.01,0-0.01l-1.29-2.58l2.72-1.92c0.06-0.04,0.1-0.11,0.1-0.18
			c0.01-0.07-0.02-0.14-0.07-0.2l-1.6-1.62c0.49,0.17,1.08,0.39,1.58,0.58c0.09,0.03,0.19,0.02,0.26-0.05
			c0.07-0.07,0.1-0.16,0.07-0.25c-0.09-0.32-0.19-0.61-0.3-0.89l0.82,0.39c0,0.98-0.03,6.27-0.37,7.88c0,0,0,0.01,0,0.01
			c-0.02,0.08-0.03,0.15-0.05,0.21c-0.66,2.19-0.36,4.64,0.84,6.9c0.51,0.95,1.44,3.41,2.38,6.02c0.02,0.06,0.04,0.1,0.05,0.14
			c1.25,3.49,2.51,7.22,2.75,7.96C34.02,41.42,32.54,42.99,30.18,43.38z M23.48,44.72c-2.15-0.02-5.2-0.66-6-0.84l0.01-0.21
			c0-0.02,0-0.04-0.01-0.06c0.2-5.16,2.42-12.47,2.44-12.54c0.04-0.13-0.03-0.27-0.17-0.31s-0.27,0.03-0.31,0.17
			c-0.02,0.08-2.19,7.23-2.45,12.44c-2.43-0.5-3.94-3.66-4.2-4.24c0.21-0.54,1.29-3.24,2.45-6.02c0.02-0.03,0.03-0.06,0.04-0.09
			c0,0,0-0.01,0-0.01c1.04-2.51,2.14-5.07,2.7-6.13c1.2-2.26,1.49-4.71,0.83-6.9c-0.38-1.28-0.42-7.05-0.42-8.09l0.83-0.36
			c-0.11,0.27-0.21,0.56-0.31,0.86c-0.03,0.09-0.01,0.19,0.07,0.26c0.07,0.07,0.17,0.08,0.26,0.05c0.51-0.2,1.09-0.41,1.58-0.58
			l-1.61,1.62c-0.05,0.05-0.08,0.13-0.07,0.2c0.01,0.07,0.04,0.14,0.1,0.18l6.75,4.74v25.8C25.75,44.68,25.08,44.74,23.48,44.72z
			 M18.51,20.8c0.38,1.88,0.05,3.93-0.97,5.85c-0.34,0.65-0.87,1.8-1.45,3.17C16.88,26.82,18.01,22.63,18.51,20.8z M16.15,13.84
			c0.37-1.42,0.86-1.86,1.19-1.99c0.24-0.08,0.44-0.03,0.56,0.03c0,0.96,0.03,6.14,0.37,7.93c-0.26,0.94-2.99,10.98-3.44,12.95
			c-0.46,0.03-1.33-0.13-1.83-0.24C13.3,30.55,15.4,16.68,16.15,13.84z M21.35,9.03c0.07,0.79,0.6,1.64,0.7,1.8l1.25,2.5l1.35,2.72
			c0,0,0,0.01,0.01,0.01l0.94,1.89l-5.8-4.08l2.15-2.16c0.08-0.08,0.09-0.21,0.03-0.31c-0.06-0.1-0.18-0.14-0.29-0.1
			c-0.01,0-1.11,0.37-2.12,0.75C20.11,10.53,20.76,9.6,21.35,9.03z M21.88,8.59c0.05-0.04,0.11-0.07,0.16-0.11
			c0.81-0.51,1.46-0.46,1.46-0.46c0.01,0,0.02,0,0.03,0h0.07c0.01,0,0.01,0,0.02,0c0.01,0,0.79-0.04,1.72,0.59
			c0.08,0.39-0.11,0.95-0.31,1.39c-0.32-0.2-0.9-0.5-1.45-0.5c-0.61,0-1.11,0.28-1.4,0.48C21.95,9.53,21.75,8.95,21.88,8.59z
			 M22.49,10.6c-0.01-0.01-0.01-0.02-0.01-0.03c-0.02-0.04-0.05-0.08-0.08-0.13c0.21-0.16,0.65-0.43,1.17-0.43
			c0.45,0,0.95,0.27,1.22,0.44c-0.03,0.05-0.06,0.09-0.08,0.13c0,0-0.01,0.01-0.01,0.01l-1.17,2.1L22.49,10.6z M27.63,12.05
			c-1.02-0.38-2.12-0.75-2.13-0.75c-0.11-0.04-0.23,0.01-0.29,0.1c-0.06,0.1-0.05,0.23,0.03,0.31l2.15,2.16l-2.42,1.71l-1.17-2.35
			l1.33-2.39c0.03-0.04,0.09-0.15,0.17-0.3c0.01-0.01,0.01-0.01,0.01-0.01c0.02-0.03,0.04-0.06,0.04-0.09
			c0.19-0.36,0.42-0.89,0.47-1.4C26.47,9.62,27.12,10.56,27.63,12.05z M29.84,11.85c0.34,0.12,0.81,0.57,1.19,1.99
			c0.75,2.84,2.77,16.7,3.06,18.67c-0.68,0.13-1.6,0.28-2.04,0.24c-0.01-0.03-0.02-0.07-0.04-0.1c-0.63-1.96-2.92-12.04-3.1-12.84
			c0.34-1.78,0.37-6.97,0.37-7.93C29.4,11.82,29.6,11.77,29.84,11.85z M28.65,20.9c0.36,1.59,1.09,4.73,1.74,7.44
			c-0.29-0.73-0.55-1.31-0.75-1.69C28.64,24.77,28.3,22.76,28.65,20.9z M34.89,40.98c-0.09-0.28-1.35-4.06-2.66-7.73
			c0.78-0.01,2.02-0.27,2.19-0.3c0.13-0.03,0.21-0.15,0.2-0.28c-0.09-0.65-2.29-15.88-3.1-18.96c-0.35-1.32-0.86-2.1-1.51-2.33
			c-0.42-0.15-0.79-0.02-0.97,0.07l-1.35-0.63c-0.62-1.32-1.35-2.09-1.98-2.55c0,0-0.01-0.01-0.01-0.01
			c-0.1-0.07-0.19-0.13-0.29-0.19c-0.94-0.57-1.71-0.55-1.81-0.54h-0.05c-0.12-0.01-0.84-0.04-1.72,0.51
			c-0.91,0.56-1.68,1.51-2.29,2.82l-1.35,0.59c-0.19-0.09-0.55-0.22-0.98-0.07c-0.66,0.23-1.17,1.02-1.52,2.33
			c-0.81,3.07-3.1,18.31-3.19,18.95c-0.02,0.13,0.06,0.25,0.19,0.28c0.15,0.03,1.24,0.29,1.98,0.3c-1.19,2.88-2.27,5.59-2.35,5.8
			c-0.02,0.06-0.02,0.13,0,0.19c0.07,0.17,1.71,4.09,4.68,4.64c0,0.07,0,0.13-0.01,0.2c0,0,0,0.01,0,0.01c0,0.01,0,0.02,0,0.03
			c0,0.01,0,0.01,0,0.02c0,0.01,0.01,0.02,0.01,0.03c0,0.01,0.01,0.01,0.01,0.02c0,0.01,0.01,0.02,0.01,0.02
			c0.01,0.01,0.01,0.01,0.01,0.02c0.01,0.01,0.01,0.02,0.02,0.02c0,0,0.01,0.01,0.01,0.01c0.01,0.01,0.02,0.01,0.02,0.02
			c0.01,0,0.01,0.01,0.01,0.01c0.01,0.01,0.02,0.01,0.03,0.02c0,0,0.01,0.01,0.01,0.01c0.01,0.01,0.03,0.01,0.04,0.02c0,0,0,0,0,0h0
			c0.19,0.04,3.78,0.88,6.31,0.9c0.13,0,0.26,0,0.4,0c0.98,0,2.28-0.03,2.51-0.17c0.03-0.02,0.05-0.04,0.07-0.07
			c1.8-0.26,3.48-0.65,3.55-0.66c0,0,0,0,0,0c0.02-0.01,0.03-0.01,0.04-0.02c0,0,0.01,0,0.01-0.01c0.01-0.01,0.02-0.01,0.03-0.02
			c0.01,0,0.01-0.01,0.01-0.01c0.01-0.01,0.02-0.01,0.02-0.02c0.01-0.01,0.01-0.01,0.01-0.01c0.01-0.01,0.01-0.02,0.02-0.02
			c0.01-0.01,0.01-0.01,0.01-0.02c0.01-0.01,0.01-0.02,0.01-0.02c0-0.01,0.01-0.01,0.01-0.02c0-0.01,0.01-0.02,0.01-0.03
			c0-0.01,0-0.01,0-0.02c0-0.01,0-0.02,0-0.03c0-0.01,0-0.01,0-0.01c0-0.07,0-0.13-0.01-0.2c2.93-0.45,4.58-2.58,4.65-2.68
			C34.9,41.14,34.92,41.05,34.89,40.98"/>
	</g>
</g>
</svg>
