<?xml version="1.0" encoding="utf-8"?>
<!-- Generator: Adobe Illustrator 27.3.1, SVG Export Plug-In . SVG Version: 6.00 Build 0)  -->
<svg version="1.1" id="Layer_1" xmlns="http://www.w3.org/2000/svg" xmlns:xlink="http://www.w3.org/1999/xlink" x="0px" y="0px"
	 viewBox="0 0 50 50" style="enable-background:new 0 0 50 50;" xml:space="preserve">
<style type="text/css">
	.st0{fill:none;}
	.st1{stroke:#000000;stroke-miterlimit:10;}
	.st2{stroke:#000000;stroke-width:0.75;stroke-miterlimit:10;}
	.st3{clip-path:url(#SVGID_00000110460629416736986200000000915034235215904938_);}
	.st4{clip-path:url(#SVGID_00000141424594479379847890000017474082428880830354_);}
	.st5{fill:#FFFFFF;}
	.st6{clip-path:url(#SVGID_00000152946388421535256690000010556875954833124766_);}
	.st7{fill:#231F20;}
	.st8{clip-path:url(#SVGID_00000168799962990903071170000004453156096029704893_);}
	.st9{clip-path:url(#SVGID_00000134947772318091006400000005766661985746729091_);}
	.st10{clip-path:url(#SVGID_00000106852063369622051620000016330405924896954508_);}
	.st11{clip-path:url(#SVGID_00000005246985323153286140000004260496328671037615_);}
	.st12{clip-path:url(#SVGID_00000132790246494371580340000012168597190085583018_);}
	.st13{clip-path:url(#SVGID_00000043425694009043602040000013172543977840776076_);}
	.st14{clip-path:url(#SVGID_00000085223790179035263710000016753624506737831050_);}
	.st15{clip-path:url(#SVGID_00000153675451926418795220000005062688656608499841_);}
	.st16{clip-path:url(#SVGID_00000026864368566351346570000011237199474937863345_);}
	.st17{clip-path:url(#SVGID_00000116940759524606832840000013634791012219112632_);}
	.st18{clip-path:url(#SVGID_00000156582060487238447840000018060890450766605482_);}
	.st19{clip-path:url(#SVGID_00000000920666495457960700000013169741696571658424_);}
	.st20{clip-path:url(#SVGID_00000156554966026061234740000003947116498462678407_);}
	.st21{clip-path:url(#SVGID_00000055701810653254324570000007690552363975220922_);}
	.st22{clip-path:url(#SVGID_00000078044257859224947680000002850006700893048255_);}
	.st23{clip-path:url(#SVGID_00000052084571318359436350000013482265746067455666_);}
	.st24{clip-path:url(#SVGID_00000035510780683842449200000013529224037698076315_);}
	.st25{clip-path:url(#SVGID_00000062877695574401840520000003736161608649479334_);}
	.st26{clip-path:url(#SVGID_00000030488120121743865180000018105875368064134830_);}
	.st27{clip-path:url(#SVGID_00000030447447572930417430000017809734389137025707_);}
	.st28{clip-path:url(#SVGID_00000021102232943896701630000016800134938686625177_);}
	.st29{clip-path:url(#SVGID_00000152986740786546013790000014899395344058871730_);}
	.st30{clip-path:url(#SVGID_00000059286502095304209810000011123379095928193945_);}
	.st31{fill-rule:evenodd;clip-rule:evenodd;}
	.st32{clip-path:url(#SVGID_00000047027200021421013800000014853094617892222888_);}
	.st33{clip-path:url(#SVGID_00000166654692206970231660000005212403957712197766_);}
	.st34{stroke:#000000;stroke-width:0.5;stroke-miterlimit:10;}
	.st35{clip-path:url(#SVGID_00000021111758956725786220000005269652659175317906_);}
	.st36{clip-path:url(#SVGID_00000071536054085053114400000017465855087531392919_);}
	.st37{clip-path:url(#SVGID_00000111872680648681226400000008705662601575949980_);}
	.st38{fill:#1A1A1A;}
	.st39{clip-path:url(#SVGID_00000132070617672018185520000004169306534230691490_);}
	.st40{clip-path:url(#SVGID_00000039812439520175931570000017231627513113600648_);}
	.st41{clip-path:url(#SVGID_00000103968339480728238210000011730846138366938246_);}
	.st42{clip-path:url(#SVGID_00000016762427960971322610000014395538770085399736_);}
	.st43{clip-path:url(#SVGID_00000053505186007569945490000001754845519608042372_);}
	.st44{clip-path:url(#SVGID_00000163778684757864382240000012994767825096336256_);}
	.st45{clip-path:url(#SVGID_00000041292658199583246020000002857659469299879846_);}
	.st46{clip-path:url(#SVGID_00000103237817279091486040000008360130572891642025_);}
	.st47{clip-path:url(#SVGID_00000098222417398169433540000008652791712455382196_);}
	.st48{fill:#F1F1F1;}
	.st49{fill:#E8E8E8;}
	.st50{fill:#FEFEFE;}
	.st51{fill:#CCCCCC;}
	.st52{fill:#B3B3B3;}
	.st53{fill:#E6E6E6;}
	.st54{fill:#EBEBEB;}
	.st55{fill:#EEEEEE;}
	.st56{fill:#F8F8F8;}
	.st57{fill:#FBFBFB;}
	.st58{fill:#383838;}
	.st59{fill:#232323;}
	.st60{fill:#F6F6F6;}
	.st61{fill:#535353;}
	.st62{fill:#0A0A0A;}
	.st63{fill:#F5F5F5;}
	.st64{fill:#818181;}
	.st65{fill:#4A4A4A;}
	.st66{fill:#999999;}
	.st67{fill:url(#SVGID_00000028317651762095194530000009969162443836781201_);}
	.st68{fill:url(#SVGID_00000058581129079958902090000006367419007612107147_);}
	.st69{fill:#0E0E0D;}
	.st70{fill:#333333;}
	.st71{fill:#808080;}
	.st72{fill:url(#SVGID_00000151533952052663299020000003235059558042009992_);}
	.st73{fill:#666666;}
	.st74{fill:url(#SVGID_00000123399279119732335980000004885226314709420455_);}
	.st75{fill:url(#SVGID_00000023991784034874347900000004591077607856760204_);}
	.st76{fill:url(#SVGID_00000053516284065647936300000016008128877231838355_);}
	.st77{fill:url(#SVGID_00000023962997817785109440000003071868117596151187_);}
	.st78{fill:url(#SVGID_00000061469905600409673210000010797294833652877481_);}
	.st79{clip-path:url(#SVGID_00000159449837449284342390000008194942261340448180_);}
	.st80{clip-path:url(#SVGID_00000050628082887019389430000001748951662254913678_);}
	.st81{clip-path:url(#SVGID_00000147182433852661647640000017036986858689085830_);}
	.st82{clip-path:url(#SVGID_00000005256839611071881100000013783237933581834668_);}
	.st83{clip-path:url(#SVGID_00000027570649298601468440000015292317381704843921_);}
	.st84{fill:#241F20;stroke:#000000;stroke-width:0.5;stroke-miterlimit:10;}
	.st85{clip-path:url(#SVGID_00000135673471855667923070000018186859572077209249_);}
	.st86{clip-path:url(#SVGID_00000054253523435540698950000005142549620180089748_);}
	.st87{clip-path:url(#SVGID_00000031175214795777288790000000125018819323741839_);}
	.st88{clip-path:url(#SVGID_00000132054868694140308320000007943506671154886025_);}
	.st89{clip-path:url(#SVGID_00000178176882900037283200000004228573009843831468_);}
	.st90{clip-path:url(#SVGID_00000026144303441233000530000001448690242726350262_);}
	.st91{clip-path:url(#SVGID_00000175313562161581652330000000641013505721050258_);}
	.st92{clip-path:url(#SVGID_00000002346009578542561350000006973914065780356228_);}
	.st93{clip-path:url(#SVGID_00000000182267605692511640000008761153392356817042_);}
	.st94{clip-path:url(#SVGID_00000070114248081175430030000016134670315749261217_);}
	.st95{clip-path:url(#SVGID_00000129920622574101968250000012014426321375539360_);}
	.st96{clip-path:url(#SVGID_00000080191532181226451600000008660606824272277647_);}
	.st97{clip-path:url(#SVGID_00000065047432231704492050000011962547411956750723_);}
	.st98{clip-path:url(#SVGID_00000094592475674865827290000018416471640909467827_);}
	.st99{clip-path:url(#SVGID_00000142139155432099294440000012559154751307683725_);}
	.st100{clip-path:url(#SVGID_00000071521149750548417050000009529588564223288982_);}
	.st101{clip-path:url(#SVGID_00000047026294253070589040000005064984819785739431_);}
	.st102{clip-path:url(#SVGID_00000000909898088130594960000003382621678345451966_);}
	.st103{clip-path:url(#SVGID_00000183949209574129773420000005728049646632549528_);}
	.st104{clip-path:url(#SVGID_00000161608023907069063880000010729866016463851665_);}
	.st105{clip-path:url(#SVGID_00000159433659475753342120000000645087722301000126_);}
	.st106{clip-path:url(#SVGID_00000085248053808507802910000013072028277136551060_);}
	.st107{clip-path:url(#SVGID_00000146483651809740132490000003006894923227866785_);}
	.st108{clip-path:url(#SVGID_00000086669039379722525010000013707984735002236852_);}
	.st109{clip-path:url(#SVGID_00000057144362393243727280000011952790065811836080_);}
	.st110{clip-path:url(#SVGID_00000037678448485299873270000010901135257663717566_);}
	.st111{clip-path:url(#SVGID_00000017508028181742939180000005851488270287890077_);}
	.st112{clip-path:url(#SVGID_00000133488748920952158560000005028194889442494372_);}
	.st113{clip-path:url(#SVGID_00000036218871957521223680000016538255247588870584_);}
	.st114{clip-path:url(#SVGID_00000173877806740089209140000014364878981265138332_);}
	.st115{fill:#FFFFFF;stroke:#000000;stroke-miterlimit:10;}
	.st116{clip-path:url(#SVGID_00000043447930701067141060000000759172567727510709_);}
	.st117{clip-path:url(#SVGID_00000027600226559472622740000001976997749558201255_);}
	.st118{fill:none;stroke:#010101;stroke-miterlimit:10;}
	.st119{fill:#010101;stroke:#000000;stroke-miterlimit:10;}
	.st120{clip-path:url(#SVGID_00000033364684735182583400000010929144152696802953_);}
	.st121{fill:#010101;stroke:#010101;stroke-miterlimit:10;}
	.st122{clip-path:url(#SVGID_00000072993564229253785140000001734381975040316596_);}
	.st123{clip-path:url(#SVGID_00000102536142003787969210000012743044338194326151_);}
	.st124{clip-path:url(#SVGID_00000016053551680031370510000005053920451128612789_);}
	.st125{clip-path:url(#SVGID_00000091723336413438233130000012840144617028046518_);}
	.st126{clip-path:url(#SVGID_00000026136275609713935430000006186681154594840235_);}
	.st127{fill:none;stroke:#000000;stroke-width:3;stroke-miterlimit:10;}
	.st128{clip-path:url(#SVGID_00000164497817675029794290000012966665278726372738_);}
	.st129{clip-path:url(#SVGID_00000162349952935734159720000008163874151802300343_);}
	.st130{clip-path:url(#SVGID_00000181054300054034557560000002343810250644809371_);}
	.st131{clip-path:url(#SVGID_00000041272837573225317230000008497619068794318231_);}
	.st132{fill:#040606;}
	.st133{clip-path:url(#SVGID_00000154386903943395159930000006775063639385718921_);}
	.st134{clip-path:url(#SVGID_00000180335887001878160140000000234509369373773454_);}
	.st135{clip-path:url(#SVGID_00000155857902582137757440000015640083684456098467_);}
	.st136{clip-path:url(#SVGID_00000153666576971895948830000013057090417670036366_);}
	.st137{clip-path:url(#SVGID_00000029725247892568247340000009469945945617680792_);}
	.st138{clip-path:url(#SVGID_00000118392363357600599460000011127231407542808974_);}
	.st139{clip-path:url(#SVGID_00000022533433740787361910000005918548703597081014_);}
	.st140{fill:#FFFFFF;stroke:#000000;stroke-width:1.5;stroke-miterlimit:10;}
	.st141{clip-path:url(#SVGID_00000075867324988265392520000017475209464033896851_);}
	.st142{fill:#BDBCBC;}
	.st143{clip-path:url(#SVGID_00000067914885085341679100000016993481997690940297_);}
	.st144{fill:#2E2A2B;}
	.st145{clip-path:url(#SVGID_00000032648541556891834210000009899361740691789717_);}
	.st146{clip-path:url(#SVGID_00000156579306959177304310000015042076750112192915_);}
	.st147{clip-path:url(#SVGID_00000078747813543674374700000012741587713651435437_);}
	.st148{clip-path:url(#SVGID_00000001664541526794976970000011049256891458274455_);}
	.st149{clip-path:url(#SVGID_00000041292306293273017620000010492536044851703717_);}
	.st150{fill:#272324;}
	.st151{clip-path:url(#SVGID_00000011754297669830149710000013779526032776574337_);}
	.st152{clip-path:url(#SVGID_00000151526586304555032380000015616449204708095136_);}
	.st153{clip-path:url(#SVGID_00000054945535957570333480000002806292034556588950_);}
	.st154{clip-path:url(#SVGID_00000145742204402627891800000013535312368844200631_);}
	.st155{clip-path:url(#SVGID_00000115486014698586453650000004039199037089682336_);}
	.st156{clip-path:url(#SVGID_00000093884846063498751460000012762347993782827442_);}
	.st157{fill:none;stroke:#000000;stroke-width:0.8735;stroke-linecap:round;stroke-linejoin:round;stroke-miterlimit:10;}
	.st158{clip-path:url(#SVGID_00000111163640057075483100000011849555728855325887_);}
	.st159{clip-path:url(#SVGID_00000103223673108912234660000007863319048772792710_);}
	.st160{clip-path:url(#SVGID_00000078024115000599073400000011477978163485924993_);}
	.st161{clip-path:url(#SVGID_00000013174922347889986080000003928943648067146117_);}
	.st162{clip-path:url(#SVGID_00000063611857762865539820000012839001097966052231_);}
	.st163{clip-path:url(#SVGID_00000072270665220431321680000005326586801725460147_);}
	.st164{clip-path:url(#SVGID_00000059290688291260169310000011620598510231849350_);}
	.st165{clip-path:url(#SVGID_00000138545164258875668560000018241316237777097364_);}
	.st166{clip-path:url(#SVGID_00000093165487531507303350000004130829251583725723_);}
	.st167{clip-path:url(#SVGID_00000080917908186244638780000001262807981062675635_);}
	.st168{clip-path:url(#SVGID_00000023989301143909251970000015318686903839168401_);}
	.st169{clip-path:url(#SVGID_00000068639773976584472180000003044317492288145049_);}
	.st170{clip-path:url(#SVGID_00000091704302493371954270000007336927159318559618_);}
	.st171{clip-path:url(#SVGID_00000126318824254768687990000004504292860610624899_);}
	.st172{clip-path:url(#SVGID_00000062150003551788991910000016872817260773548180_);}
	.st173{clip-path:url(#SVGID_00000183247604247257433860000013884695839452277905_);}
	.st174{clip-path:url(#SVGID_00000033329241174901837370000006524291476481241233_);}
	.st175{clip-path:url(#SVGID_00000160162986322813347140000018021503079324428974_);}
	.st176{clip-path:url(#SVGID_00000163043857950531333530000002476457644569241994_);}
	.st177{clip-path:url(#SVGID_00000153663693072089713160000014445030063349716917_);}
	.st178{clip-path:url(#SVGID_00000052825935773975347300000004445369277245274027_);}
	.st179{clip-path:url(#SVGID_00000030461131742078520850000007165214321637167252_);}
	.st180{clip-path:url(#SVGID_00000085209408004955422580000004125497069828669348_);}
	.st181{clip-path:url(#SVGID_00000180365983494742456800000007788754146536682889_);}
	.st182{clip-path:url(#SVGID_00000078020779024151873150000013858166553472206475_);}
	.st183{clip-path:url(#SVGID_00000023998784554644086600000017911703135910483641_);}
	.st184{clip-path:url(#SVGID_00000100350959054543033170000014309917596181699731_);}
	.st185{clip-path:url(#SVGID_00000165921661061228533550000004103160220731273140_);}
	.st186{clip-path:url(#SVGID_00000120556541798402262060000015458618649981557891_);}
	.st187{clip-path:url(#SVGID_00000112598317403805889090000009417560938685794946_);}
	.st188{clip-path:url(#SVGID_00000032635359843658944270000002328927665761905801_);}
	.st189{clip-path:url(#SVGID_00000147900987669821840750000012964745762351784887_);}
	.st190{clip-path:url(#SVGID_00000029029612893375323450000005427753785599389066_);}
	.st191{clip-path:url(#SVGID_00000115482252156275147090000003486810523210783640_);}
	.st192{clip-path:url(#SVGID_00000150086880105889484830000011911745065846077359_);}
	.st193{clip-path:url(#SVGID_00000112616278385362368080000018069299448087334276_);}
	.st194{clip-path:url(#SVGID_00000072972139677555950830000011120316196338414747_);}
	.st195{clip-path:url(#SVGID_00000103266553656472497290000011440968663322998952_);}
	.st196{fill:#E5E5E5;}
	.st197{fill:#1D1D1B;}
	.st198{fill:none;stroke:#000000;stroke-miterlimit:10;}
	.st199{fill:#FEFEFE;stroke:#000000;stroke-miterlimit:10;}
	.st200{clip-path:url(#SVGID_00000142146568755969813010000003008809389173727878_);}
	.st201{clip-path:url(#SVGID_00000165229913607910870980000003488805572986093980_);}
	.st202{clip-path:url(#SVGID_00000155847235404475679300000000903809172258777500_);}
	.st203{fill:#231F1F;}
	.st204{fill:#020000;}
	.st205{clip-path:url(#SVGID_00000080179907347055144950000017517672181888659590_);}
	.st206{clip-path:url(#SVGID_00000152971764726114301480000001607771441412592555_);}
	.st207{clip-path:url(#SVGID_00000015324244685676751060000010424530152240623289_);}
	.st208{clip-path:url(#SVGID_00000171717119614604764340000006382746226797238921_);}
	.st209{fill:#050000;}
	.st210{clip-path:url(#SVGID_00000070097662875249021100000007515791849344385946_);}
	.st211{clip-path:url(#SVGID_00000066506643977372513130000000438298257199972260_);}
	.st212{clip-path:url(#SVGID_00000120552062230011232830000014131320090952476844_);}
	.st213{clip-path:url(#SVGID_00000170961358169063654990000018002811859842403724_);}
	.st214{clip-path:url(#SVGID_00000018225561260284311820000010063474889095709315_);}
	.st215{clip-path:url(#SVGID_00000176034027085500246060000010148676215075069358_);}
	.st216{fill:#12100F;}
	.st217{clip-path:url(#SVGID_00000148655684445639267380000002278713101667510203_);}
	.st218{clip-path:url(#SVGID_00000164473998619756325130000013293921637842697125_);}
	.st219{fill:none;stroke:#000000;stroke-width:0.5;stroke-miterlimit:10;}
	.st220{clip-path:url(#SVGID_00000094598821955036450800000004817780095271837583_);}
	.st221{clip-path:url(#SVGID_00000037695102151822982660000000828660585740430212_);}
	.st222{clip-path:url(#SVGID_00000163066860811953428760000003718290284908955279_);}
	.st223{clip-path:url(#SVGID_00000129910681757671477720000002798798233705517187_);}
	.st224{fill:none;stroke:#000000;stroke-width:0.25;stroke-miterlimit:10;}
	.st225{clip-path:url(#SVGID_00000111914003950963287700000011736737084495434916_);}
	.st226{clip-path:url(#SVGID_00000104705289374222807000000017977967858754142894_);}
	.st227{clip-path:url(#SVGID_00000171001179731548634080000016437333478364729984_);}
</style>
<g>
	<defs>
		<rect id="SVGID_00000096056005508615485190000018009849346830682251_" x="12.18" y="10.05" width="27.38" height="30.9"/>
	</defs>
	<clipPath id="SVGID_00000147197027712527174940000001993030232215755452_">
		<use xlink:href="#SVGID_00000096056005508615485190000018009849346830682251_"  style="overflow:visible;"/>
	</clipPath>
	<g style="clip-path:url(#SVGID_00000147197027712527174940000001993030232215755452_);">
		<path d="M14.35,39.68c-0.01-0.39-0.23-1.26-0.31-1.47c-0.14-0.33-0.35-0.74-0.37-1.11c-0.04-1.34-0.08-2.65-0.04-4
			c0-0.01,0-0.02,0-0.03c-0.15,0.02-0.29,0.05-0.43,0.1c-0.61,0.22-0.02,3.23,0.08,3.72c0.11,0.51-0.14,1.03-0.09,1.55
			C13.25,38.94,13.78,39.41,14.35,39.68z M15.26,39.9c0.14-0.01,0.28-0.01,0.43-0.02c-0.42-0.78-0.35-2.21-0.46-2.98
			c-0.17-1.25-0.17-2.54-0.23-3.79c-0.31-0.03-0.63-0.07-0.94-0.06c0,0.02,0.01,0.04,0.01,0.06c-0.04,1.49-0.15,2.98,0.21,4.43
			c0.17,0.67,0.64,1.59,0.5,2.3C14.95,39.89,15.12,39.91,15.26,39.9z M16.19,39.87c0.39-0.01,0.78-0.01,1.17-0.01
			c-0.29-1.1-0.32-2.28-0.49-3.4c-0.18-1.1-0.18-2.16-0.13-3.27c-0.26,0-0.52,0.01-0.78,0.01c-0.17,0-0.34-0.02-0.52-0.04
			c0.06,1.1,0.05,2.22,0.18,3.31c0.09,0.77,0.2,1.53,0.31,2.3c0.04,0.25,0.04,0.82,0.22,1.03C16.17,39.82,16.18,39.84,16.19,39.87z
			 M19.11,39.88c0.08,0,0.16,0,0.24,0c-0.13-2.26-0.39-4.48-0.4-6.75c-0.59,0.01-1.18,0.02-1.78,0.04c0,0,0,0,0,0
			c-0.06,1.2-0.01,2.32,0.17,3.51c0.16,1.05,0.19,2.14,0.47,3.17C18.25,39.87,18.68,39.88,19.11,39.88z M19.98,18.74
			c-0.1-0.12-0.18-0.26-0.23-0.41c-1.3,0.5-2.64,1.37-3.21,2.66C16,22.2,15.21,23.33,15,24.65c-0.23,1.5-0.47,2.99-0.53,4.51
			c-0.05,1.14,0.04,2.36-0.21,3.49c0.17,0,0.34,0.01,0.51,0.02c0.02-1.32,0.02-2.71,0.12-4.02c0.11-1.38,0.64-2.47,0.99-3.78
			c0.37-1.36,0.81-2.85,1.63-4.02C18.23,19.84,18.96,19.3,19.98,18.74z M20.57,19.11c-0.07-0.01-0.15-0.04-0.22-0.08
			c-1.23,0.67-2.43,1.61-2.96,2.98c-0.23,0.59-0.56,1.19-0.74,1.79c-0.15,0.52-0.26,1.07-0.47,1.56c-0.99,2.3-0.93,4.86-0.96,7.33
			c0.29,0.02,0.55,0.05,0.74,0.05c0.32,0,0.64,0,0.96-0.01c-0.01-2.4,0.26-4.95,0.85-7.27c0.33-1.29,0.94-2.58,1.57-3.76
			C19.8,20.86,20.18,19.99,20.57,19.11z M20.77,22c0.15-0.95,0.58-1.78,0.91-2.67c-0.23-0.01-0.45-0.09-0.62-0.26
			c-0.37,0.85-0.7,1.68-1.15,2.51c-0.68,1.25-1.42,2.61-1.72,4.01c-0.51,2.31-0.84,4.77-0.84,7.14c0.81-0.01,1.62-0.03,2.44-0.04
			c0.2-1.12,0.16-2.25,0.19-3.39c0.03-1.31,0.19-2.64,0.35-3.94C20.46,24.26,20.6,23.11,20.77,22z M21.58,39.91
			c0-2.19,0.22-4.61-0.29-6.78c0-0.02,0-0.03,0-0.05c-0.43,0.02-0.86,0.06-1.26,0.06c0,0,0,0,0,0c-0.08,0-0.17,0-0.25,0
			c-0.13,0-0.25,0-0.38,0c0.02,2.27,0.27,4.5,0.4,6.75C20.39,39.9,20.98,39.9,21.58,39.91z M22.8,22.9c0.31-1.13,0.3-2.28,0.3-3.36
			c-0.13,0.06-0.27,0.08-0.41,0.03c-0.19-0.07-0.23-0.22-0.26-0.39c-0.09,0.04-0.17,0.07-0.27,0.09c0,0.01,0,0.03-0.01,0.04
			c-0.35,0.99-0.97,1.99-0.99,3.08c-0.02,1.27-0.36,2.54-0.48,3.81c-0.12,1.28-0.26,2.55-0.27,3.84c-0.01,0.9-0.03,1.78-0.18,2.66
			c0.11,0,0.22,0,0.32,0c0.67,0,1.33,0,2,0c-0.47-2.09-0.12-4.41-0.11-6.53C22.47,25.1,22.51,23.95,22.8,22.9z M23.55,39.94
			c0.17-1.2,0.02-2.52,0.02-3.73c0-1.03,0.17-2.03,0.19-3.05c-0.63-0.14-1.33-0.14-2.03-0.11c0.48,2.09,0.32,6.25,0.3,6.85
			C22.53,39.92,23.04,39.93,23.55,39.94z M25.2,32.72c0.01-2.58,0.22-5.1-0.16-7.6c-0.17-1.17-0.16-2.42-0.39-3.59
			c-0.12-0.63-0.46-1.42-0.44-2.09c-0.11,0.04-0.24,0.06-0.38,0.08c-0.11,0.01-0.21,0-0.3-0.04c0,0.88,0.05,1.92-0.15,2.88
			c-0.24,1.15-0.47,2.26-0.47,3.43c-0.01,2.22-0.41,4.73,0.13,6.91C23.76,32.71,24.48,32.71,25.2,32.72z M26.46,33.25
			c-0.35,0-0.7,0-1.05,0c-0.34,0-0.84,0.08-1.21,0.02c-0.03,1.11-0.18,2.21-0.18,3.33c0,1.1,0.11,2.26-0.03,3.35
			c0.7,0.02,1.39,0.05,2.08,0.1C26.41,37.82,26.46,35.62,26.46,33.25z M27.53,32.81c-0.02-2.32-0.31-4.7-0.58-6.98
			c-0.16-1.35-0.41-2.7-0.62-4.05c-0.12-0.75-0.16-1.46-0.37-2.19c0-0.01,0-0.02,0-0.03c0,0,0-0.01-0.01-0.01
			c-0.26,0.02-0.58,0.01-0.64-0.32c0-0.02,0-0.03-0.01-0.05c-0.15,0.04-0.32,0.05-0.52,0.05c-0.04,0-0.07-0.01-0.1-0.03
			c0.01,0.03,0.01,0.06,0,0.09c-0.11,0.53,0.25,1.29,0.34,1.81c0.1,0.54,0.16,1.09,0.25,1.63c0.15,1.01,0.22,2.08,0.31,3.1
			c0.18,2.3,0.08,4.54,0.07,6.91C26.27,32.75,26.9,32.78,27.53,32.81z M28.82,36.94c0.03-1.16,0.01-3.4,0.01-3.56
			c-0.34-0.02-0.69-0.05-1.04-0.07c-0.04,0-0.08,0-0.12-0.01c-0.19-0.01-0.38-0.02-0.57-0.03c-0.06,0-0.13,0-0.2,0
			c0,2.33-0.06,4.58-0.39,6.83c0.25,0.02,0.51,0.04,0.76,0.07c0.39,0.04,0.79,0.07,1.19,0.09c0-0.01,0-0.02,0-0.04
			C28.82,39.2,28.79,38,28.82,36.94z M30.19,33c0-2.29-0.25-4.73-0.67-6.99c-0.21-1.16-0.45-2.32-0.62-3.49
			c-0.13-0.9-0.44-2.25-1.06-2.96c-0.2-0.02-0.37-0.1-0.49-0.24c-0.09,0.05-0.26,0.13-0.3,0.13c-0.19,0-0.35-0.02-0.51-0.06
			c-0.04,0.06-0.09,0.11-0.15,0.15c0.24,0.83,0.27,1.62,0.41,2.47c0.18,1.14,0.4,2.27,0.54,3.42c0.16,1.33,0.35,2.64,0.38,3.99
			c0.02,0.98,0.17,2.72,0.23,3.43c0.47,0.03,0.93,0.06,1.39,0.1C29.63,32.96,29.91,32.98,30.19,33z M30.72,36.46
			c0.08-0.99,0.13-1.99,0.14-2.99c-0.53,0-1.06-0.03-1.59-0.06c0,1.31,0.01,2.57-0.03,3.87c-0.03,0.98-0.02,2.06-0.33,2.99
			c0.47,0.02,0.94,0.02,1.41,0.02c0-0.01,0.01-0.03,0.01-0.04C30.93,39.12,30.63,37.68,30.72,36.46z M30.82,16.77
			c0.21-0.1,0.2-0.17,0.18-0.41c-0.02-0.23-0.04-0.41-0.3-0.51c-0.23-0.09-0.17-0.43,0.03-0.44c0.11-0.13,0.25-0.3,0.16-0.47
			c-0.06-0.11-0.13-0.18-0.17-0.29c-0.03-0.06,0-0.17,0.06-0.22c0.05-0.04,0.24-0.13,0.16-0.22c-0.14-0.16-0.24-0.22-0.45-0.23
			c-0.23-0.01-0.27-0.29-0.14-0.4c0.01-0.14-0.02-0.31-0.19-0.19c-0.18,0.13-0.43-0.12-0.3-0.3c0.16-0.24-0.01-0.91-0.36-0.78
			c-0.16,0.06-0.26-0.07-0.26-0.2c-0.13,0.08-0.35,0.02-0.35-0.18c0-0.27-0.02-0.12-0.23-0.17c-0.1-0.03-0.22-0.13-0.26-0.22
			c-0.09-0.19-0.09-0.39-0.37-0.38c-0.15,0.01-0.33,0-0.45,0.11c0.05,0.02,0.1,0.04,0.15,0.06c0.28,0.18,0.42,0.45,0.48,0.77
			c0.06,0.28-0.37,0.4-0.43,0.12c-0.04-0.18-0.1-0.42-0.28-0.5c-0.15-0.07-0.3-0.07-0.45-0.03c-0.02,0.25-0.41,0.25-0.44-0.01
			c-0.06-0.08-0.09-0.18-0.02-0.26c-0.07-0.44-0.31-0.87-0.92-0.58c-0.11,0.05-0.26,0.14-0.39,0.1c-0.17-0.05-0.24-0.18-0.32-0.31
			c-0.21-0.3-0.74,0.05-0.91,0.31c0,0.06-0.03,0.12-0.07,0.16c-0.07,0.2-0.38,0.12-0.41-0.09c-0.15-0.07-0.27,0.15-0.39,0.25
			c-0.12,0.09-0.25,0.1-0.39,0.09c-0.08-0.01-0.44-0.04-0.44,0.1c-0.01,0.18-0.05,0.37,0.1,0.51c0.04,0.04,0.05,0.07,0.06,0.11
			c0.16-0.11,0.33-0.13,0.56-0.12c0.26,0.02,0.36,0.15,0.43,0.38c0.09,0.27-0.34,0.39-0.43,0.12c-0.03-0.1,0.03-0.06-0.12-0.06
			c-0.09,0-0.17-0.01-0.23,0.06c-0.08,0.08-0.15,0.16-0.25,0.22c-0.12,0.07-0.25,0.02-0.38,0.06c-0.08-0.04-0.09-0.02-0.04,0.05
			c0.01,0.02,0.02,0.04,0.03,0.06c0.02,0.03,0.04,0.06,0.06,0.1c0.14,0.25-0.25,0.47-0.38,0.22c-0.12-0.21-0.26-0.43-0.11-0.66
			c0.06-0.1,0.21-0.18,0.33-0.2c0.05-0.01,0.12-0.01,0.18-0.01c-0.01-0.01-0.02-0.01-0.03-0.02c-0.15-0.14-0.23-0.35-0.25-0.56
			c-0.04,0.02-0.09,0.03-0.15,0.01c-0.33-0.1-0.75-0.02-0.93,0.31c-0.09,0.17-0.14,0.33-0.1,0.52c0.01,0.07,0.03,0.15,0.01,0.21
			c-0.05,0.18-0.16,0.26-0.34,0.3c-0.15,0.04-0.32-0.04-0.32,0.19c0,0.1,0,0.2,0.04,0.3c0.05,0.1,0.02,0.19-0.04,0.26
			c-0.02,0.04-0.04,0.08-0.1,0.1c-0.56,0.28-0.17,1.03-0.11,1.51c0.15-0.11,0.4-0.15,0.56-0.15c0.29,0,0.29,0.44,0,0.44
			c-0.06,0-0.12,0-0.18,0.02c-0.01,0-0.03,0.01-0.05,0.01c0,0,0,0.01,0,0.02c0.02,0.08,0.32,0.09,0.4,0.13
			c0.08,0.03,0.18,0.11,0.16,0.21c-0.02,0.12-0.04,0.21-0.1,0.31c-0.01,0.02-0.01,0.05-0.01,0.08c0.27-0.11,0.38,0.32,0.12,0.42
			c-0.22,0.09-0.39,0.03-0.53-0.16c-0.06-0.08-0.03-0.24-0.03-0.33c0-0.07,0.02-0.12,0.05-0.17c-0.11-0.02-0.22-0.04-0.32-0.11
			c-0.12-0.09-0.19-0.25-0.21-0.4c-0.01,0-0.02,0.01-0.02,0.01c-0.32,0.09-0.41,0.32-0.13,0.68c0.24-0.01,0.33,0.37,0.07,0.43
			c-0.22,0.05-0.42,0.09-0.37,0.42c0.01,0.07,0.02,0.27,0.09,0.32c0.18,0.14,0.46,0.1,0.67,0.1c0.2,0,0.28,0.24,0.16,0.38
			c-0.17,0.18,0.45,0.68,0.48,0.62c0.04-0.07,0.11-0.1,0.17-0.1c0.03-0.06,0.08-0.08,0.14-0.08c0.11-0.04,0.26-0.02,0.32,0.13
			c0.2,0.51,0.91,0.25,1.23,0.04c0.11-0.08,0.3,0,0.32,0.13c0.02,0.1,0.02,0.19,0.03,0.29c0.01,0.17,0.15,0.04,0.23-0.07
			c0.01-0.02,0.03-0.04,0.05-0.05c-0.01-0.04-0.02-0.08-0.02-0.12c-0.04-0.28,0.41-0.28,0.44,0c0.04,0.29,0.37,0.24,0.57,0.17
			c0.22-0.07,0.3-0.2,0.38-0.4c0.09-0.23,0.43-0.2,0.43,0.06c0,0.04,0,0.08,0.01,0.12c0.13,0.01,0.26,0,0.27-0.12
			c0.02-0.18,0.3-0.53,0.49-0.31c0.13,0.16-0.04,0.58,0.02,0.77c0,0.01,0.19-0.02,0.22-0.02c0.07-0.01,0.13,0.02,0.16,0.06
			c0.09-0.01,0.11-0.1,0.15-0.17c0.06-0.11,0.19-0.13,0.3-0.08c0.19,0.09,0.46,0.13,0.62-0.02c0.03-0.03,0.06-0.05,0.1-0.05
			c0.11-0.03,0.2-0.04,0.3,0.01c0.13,0.07,0.08,0.23,0.25,0.26c0.26,0.04,0.36-0.04,0.39-0.22c-0.06-0.09-0.04-0.23,0.05-0.3
			c0.08-0.11,0.26-0.12,0.35-0.01c0.09,0,0.15-0.03,0.2-0.08c0.01-0.02,0.03-0.05,0.05-0.07c0.06-0.11,0.09-0.25,0.16-0.38
			c0.04-0.09,0.16-0.13,0.25-0.1c0.2,0.06,0.35,0.16,0.54,0.15c0.05-0.06,0.12-0.09,0.21-0.06c0.02,0,0.03,0.01,0.05,0.02
			c0.02-0.01,0.04-0.01,0.05-0.02c0.03-0.12,0.09-0.17,0.19-0.16c-0.27-0.08-0.16-0.51,0.12-0.42c0.01,0,0.02,0,0.02,0.01
			c0.01,0,0.02-0.01,0.02-0.01c0.2-0.03,0.09-0.36,0.12-0.47C30.64,16.87,30.72,16.82,30.82,16.77z M32.83,33.1
			c0.1-1.05-0.14-2.25-0.27-3.29c-0.18-1.36-0.41-2.73-0.74-4.06c-0.63-2.49-0.96-4.87-2.79-6.82c-0.12,0.08-0.24,0.12-0.38,0.11
			c-0.03,0.2-0.12,0.35-0.3,0.44c0.42,0.62,0.73,1.57,0.87,2.22c0.3,1.37,0.51,2.8,0.74,4.18c0.39,2.33,0.68,4.76,0.69,7.13
			C31.37,33.06,32.1,33.08,32.83,33.1z M33.11,35.73c0-0.73-0.04-1.54,0.09-2.26c-0.63-0.03-1.26-0.11-1.88-0.11c0,0-0.01,0-0.02,0
			c-0.01,1.32-0.14,2.48-0.15,3.71c-0.01,1.05,0.09,2.24-0.35,3.22c0.59,0,1.19-0.02,1.79-0.03C32.83,38.75,33.11,37.27,33.11,35.73
			z M35.26,33.14c0-1.1-0.24-2.27-0.38-3.48c-0.08-0.66-0.35-1.27-0.43-1.94c-0.11-0.88-0.22-1.76-0.36-2.63
			c-0.22-1.34-0.54-2.49-1.11-3.72c-0.36-0.78-0.95-1.42-1.68-1.87c-0.4-0.25-0.79-0.74-1.22-0.96c-0.24,0.04-0.51-0.04-0.74-0.11
			c-0.02,0.04-0.03,0.09-0.05,0.13c0.74,0.77,1.32,1.66,1.76,2.62c0.6,1.3,0.74,2.66,1.08,4.03c0.35,1.38,0.64,2.81,0.82,4.23
			c0.16,1.19,0.44,2.45,0.33,3.65C33.94,33.11,34.6,33.12,35.26,33.14z M34.89,40.22c0.68-2.2,0.56-4.38,0.81-6.63
			c-0.26,0-0.52,0-0.77,0c-0.43,0-0.86-0.02-1.28-0.04c-0.22,1.11-0.03,2.29-0.13,3.42c-0.09,1.11-0.3,2.2-0.48,3.29
			C33.66,40.24,34.27,40.22,34.89,40.22z M37.69,33.27c-0.06-0.62-0.23-1.21-0.27-1.84c-0.05-0.73,0-1.47-0.06-2.21
			c-0.13-1.66-0.44-3.29-1.19-4.8c-0.65-1.3-0.79-3.01-1.86-4.03c-1.09-1.05-2.19-1.84-3.7-2.02c0.42,0.3,0.81,0.71,1.21,0.97
			c0.48,0.31,0.89,0.74,1.21,1.23c0.69,1.07,1.22,2.36,1.38,3.63c0.22,1.67,0.32,3.47,0.84,5.08c0.39,1.2,0.42,2.78,0.42,3.89
			c0,0,0,0.01,0,0.01C36.34,33.18,37.02,33.21,37.69,33.27z M37.44,36.51c0-0.95,0.02-1.88,0.07-2.82
			c-0.45-0.05-0.91-0.08-1.37-0.09c-0.12,1.1-0.19,2.15-0.15,3.26c0.04,1.1-0.3,2.3-0.64,3.35c0.29,0,0.58,0,0.88,0.01
			c0.14,0,0.34,0,0.58-0.01c0.13-0.53,0.4-1,0.5-1.54C37.44,37.94,37.44,37.25,37.44,36.51z M38.87,37.67
			c0-0.65,0.44-3.62-0.38-3.82c-0.17-0.04-0.35-0.07-0.53-0.1c-0.06,1.17-0.06,2.34-0.06,3.51c0,1.07-0.37,1.92-0.61,2.91
			c0.63-0.08,1.3-0.27,1.44-0.74C38.87,38.87,38.87,38.25,38.87,37.67z M38.14,33.31c0.92,0.13,1.27,0.53,1.24,1.48
			c-0.05,1.27,0.17,2.8-0.11,4.04c-0.23,1-0.41,1.37-1.49,1.68c-1.41,0.4-3.08,0.15-4.54,0.15c-0.11,0-0.22,0-0.33,0
			c-0.06,0.04-0.14,0.04-0.21,0c-1.67,0.02-3.4,0.14-5.04-0.02c-1.58-0.16-3.09-0.29-4.68-0.27c-1.68,0.02-3.35-0.04-5.03-0.04
			c-1.22,0-2.58,0.23-3.71-0.25c-0.91-0.39-1.59-0.9-1.48-1.97c0.12-1.16,0.06-2.81-0.32-3.91c-0.4-1.15,0.4-1.47,1.37-1.53
			c0.22-0.91,0.15-1.9,0.19-2.83c0.03-0.8,0.14-1.58,0.18-2.38c0.08-1.41,0.27-2.87,0.77-4.19c0.48-1.27,1.17-2.58,2.01-3.64
			c0.57-0.72,1.45-1.22,2.32-1.58c-0.23-0.07-0.42-0.21-0.44-0.48c-0.02-0.31-0.1-0.53,0.06-0.81c0.05-0.09,0.13-0.15,0.22-0.2
			c-0.15-0.24-0.26-0.56-0.15-0.81c0.1-0.24,0.22-0.32,0.42-0.39c-0.04-0.22-0.15-0.46-0.15-0.68c0-0.17-0.01-0.35,0.02-0.52
			c0.06-0.26,0.16-0.46,0.37-0.59c-0.06-0.23-0.06-0.5,0.05-0.7c0.09-0.15,0.17-0.2,0.34-0.23c0.27-0.05,0.2-0.06,0.22-0.32
			c0.04-0.79,0.89-1.25,1.61-1.03c0.03,0.01,0.06,0.02,0.08,0.04c0.07-0.21,0.23-0.37,0.47-0.41c0.14-0.02,0.49,0.03,0.58-0.09
			c0.08-0.11,0.17-0.17,0.29-0.24c0.15-0.09,0.31-0.07,0.46-0.01c0.16-0.22,0.42-0.37,0.7-0.43c0.24-0.05,0.46-0.03,0.69,0.03
			c0.11,0.03,0.22,0.32,0.33,0.27c0.84-0.39,1.4,0.07,1.56,0.8c0.03-0.01,0.07-0.01,0.1-0.02c0-0.04,0.01-0.08,0.04-0.12
			c0.15-0.22,0.36-0.35,0.63-0.38c0.22-0.02,0.59-0.08,0.77,0.1c0.09,0.09,0.15,0.19,0.19,0.31c0.05,0.19,0.18,0.15,0.33,0.19
			c0.23,0.06,0.27,0.39,0.27,0.58c0.02-0.01,0.03-0.02,0.05-0.03c0.39-0.15,0.76,0.1,0.89,0.47c0.05,0.15,0.09,0.35,0.09,0.55
			c0.12,0.01,0.23,0.05,0.3,0.14c0.14,0.18,0.18,0.35,0.16,0.55c0.24,0.08,0.41,0.24,0.58,0.47c0.16,0.24-0.01,0.43-0.18,0.58
			c0.08,0.14,0.15,0.25,0.17,0.44c0.02,0.18-0.12,0.36-0.24,0.52c0.16,0.12,0.29,0.29,0.29,0.48c0.01,0.25,0.11,0.63-0.06,0.85
			c-0.08,0.11-0.16,0.17-0.29,0.22c-0.05-0.06-0.06-0.05-0.04,0.04c0,0.03,0,0.06,0,0.08c0,0.06,0,0.12-0.02,0.17
			c-0.02,0.21-0.14,0.37-0.33,0.43c0,0.02,0,0.04-0.01,0.06c1.38,0.17,2.4,0.77,3.45,1.69c0.52,0.46,1.06,0.94,1.33,1.59
			c0.37,0.88,0.49,1.79,0.93,2.65c0.71,1.41,1.24,2.94,1.35,4.53c0.07,1.05,0,2.15,0.14,3.18C37.97,32.16,38.09,32.71,38.14,33.31"
			/>
	</g>
</g>
</svg>
