<?xml version="1.0" encoding="utf-8"?>
<!-- Generator: Adobe Illustrator 27.3.1, SVG Export Plug-In . SVG Version: 6.00 Build 0)  -->
<svg version="1.1" id="Layer_1" xmlns="http://www.w3.org/2000/svg" xmlns:xlink="http://www.w3.org/1999/xlink" x="0px" y="0px"
	 viewBox="0 0 50 50" style="enable-background:new 0 0 50 50;" xml:space="preserve">
<style type="text/css">
	.st0{fill:none;}
	.st1{stroke:#000000;stroke-miterlimit:10;}
	.st2{stroke:#000000;stroke-width:0.75;stroke-miterlimit:10;}
	.st3{clip-path:url(#SVGID_00000082355544988950870240000018400838113599081638_);}
	.st4{clip-path:url(#SVGID_00000013153863123309121460000009772103326516583870_);}
	.st5{fill:#FFFFFF;}
	.st6{clip-path:url(#SVGID_00000041295120374264193290000010621389043218410400_);}
	.st7{fill:#231F20;}
	.st8{clip-path:url(#SVGID_00000158737637152683484990000005947793663842024599_);}
	.st9{clip-path:url(#SVGID_00000039831926946415897030000008516670855446174381_);}
	.st10{clip-path:url(#SVGID_00000130638314450481979420000005326620291104867502_);}
	.st11{clip-path:url(#SVGID_00000089551404501453212960000012173246490086635402_);}
	.st12{clip-path:url(#SVGID_00000091701762936362890740000009473310860897625782_);}
	.st13{clip-path:url(#SVGID_00000160187314089715936630000009455792162960284093_);}
	.st14{clip-path:url(#SVGID_00000179619326970788689620000017778216109297502364_);}
	.st15{clip-path:url(#SVGID_00000073709180989017768600000005089332750670561467_);}
	.st16{clip-path:url(#SVGID_00000137124082392096600490000013792962813175707289_);}
	.st17{clip-path:url(#SVGID_00000169533433415075164970000016434179141173451144_);}
	.st18{clip-path:url(#SVGID_00000167366577723377756490000002441294333322713500_);}
	.st19{clip-path:url(#SVGID_00000177466478040634339420000007238666038813707662_);}
	.st20{clip-path:url(#SVGID_00000114059976936135827720000000457797621109450416_);}
	.st21{clip-path:url(#SVGID_00000039129412351046116530000009457886570404147129_);}
	.st22{clip-path:url(#SVGID_00000129921583889025526460000015501213182514739352_);}
	.st23{clip-path:url(#SVGID_00000054254707134241495670000012952074852639253649_);}
	.st24{clip-path:url(#SVGID_00000160912254331255263630000016171885399580714166_);}
	.st25{clip-path:url(#SVGID_00000127737709952479775110000006399258970827404956_);}
	.st26{clip-path:url(#SVGID_00000154415358367182916280000011939945965432986254_);}
	.st27{clip-path:url(#SVGID_00000034777359927514610980000015507698773729361286_);}
	.st28{clip-path:url(#SVGID_00000018223794822450414070000008297641465887962502_);}
	.st29{clip-path:url(#SVGID_00000032618814259342724000000014745503821362623628_);}
	.st30{clip-path:url(#SVGID_00000109741664231671096260000016244547402835929225_);}
	.st31{fill-rule:evenodd;clip-rule:evenodd;}
	.st32{clip-path:url(#SVGID_00000048496360757698087400000001908379517726860220_);}
	.st33{clip-path:url(#SVGID_00000108274288547543199810000009666725454614971038_);}
	.st34{stroke:#000000;stroke-width:0.5;stroke-miterlimit:10;}
	.st35{clip-path:url(#SVGID_00000113315871926380861340000014314902929687787432_);}
	.st36{clip-path:url(#SVGID_00000062900062941267042340000015151286262702437794_);}
	.st37{clip-path:url(#SVGID_00000124853533253946683200000001972873096002927541_);}
	.st38{fill:#1A1A1A;}
	.st39{clip-path:url(#SVGID_00000088819987609170114060000002432043969881217921_);}
	.st40{clip-path:url(#SVGID_00000022537452202658570010000018096315640986440086_);}
	.st41{clip-path:url(#SVGID_00000119115810758002245840000009776883445582991772_);}
	.st42{clip-path:url(#SVGID_00000075875041097166309600000004773830172378389645_);}
	.st43{clip-path:url(#SVGID_00000168825872517881438570000015738565866730586776_);}
	.st44{clip-path:url(#SVGID_00000085212530492542953420000003333165611640120215_);}
	.st45{clip-path:url(#SVGID_00000124878907442771728130000013300270863489518754_);}
	.st46{clip-path:url(#SVGID_00000101786798454360474960000008569326194046135170_);}
	.st47{clip-path:url(#SVGID_00000008852789527742502400000006069998643852651668_);}
	.st48{fill:#F1F1F1;}
	.st49{fill:#E8E8E8;}
	.st50{fill:#FEFEFE;}
	.st51{fill:#CCCCCC;}
	.st52{fill:#B3B3B3;}
	.st53{fill:#E6E6E6;}
	.st54{fill:#EBEBEB;}
	.st55{fill:#EEEEEE;}
	.st56{fill:#F8F8F8;}
	.st57{fill:#FBFBFB;}
	.st58{fill:#383838;}
	.st59{fill:#232323;}
	.st60{fill:#F6F6F6;}
	.st61{fill:#535353;}
	.st62{fill:#0A0A0A;}
	.st63{fill:#F5F5F5;}
	.st64{fill:#818181;}
	.st65{fill:#4A4A4A;}
	.st66{fill:#999999;}
	.st67{fill:url(#SVGID_00000080884698811882093900000005699092415507094151_);}
	.st68{fill:url(#SVGID_00000121245634272264050300000008306397827647761338_);}
	.st69{fill:#0E0E0D;}
	.st70{fill:#333333;}
	.st71{fill:#808080;}
	.st72{fill:url(#SVGID_00000025425898375210716330000004200105496063158682_);}
	.st73{fill:#666666;}
	.st74{fill:url(#SVGID_00000106123726628731156100000016305502155322370991_);}
	.st75{fill:url(#SVGID_00000182514175984582915600000016256523662566429609_);}
	.st76{fill:url(#SVGID_00000134929487982126673790000005331622049228888486_);}
	.st77{fill:url(#SVGID_00000066483091131285521140000013277441353420257411_);}
	.st78{fill:url(#SVGID_00000003103512746838892570000009400801496080020110_);}
	.st79{clip-path:url(#SVGID_00000034792619388033732620000005505465009680315822_);}
	.st80{clip-path:url(#SVGID_00000126286767196463144230000000408785742194378142_);}
	.st81{clip-path:url(#SVGID_00000049209666375643908000000015139264867485308839_);}
	.st82{clip-path:url(#SVGID_00000041986962296941026430000008566890782245325985_);}
	.st83{clip-path:url(#SVGID_00000021097136889565287100000003588878061767136185_);}
	.st84{fill:#241F20;stroke:#000000;stroke-width:0.5;stroke-miterlimit:10;}
	.st85{clip-path:url(#SVGID_00000101101971390598432250000007092277913959328150_);}
	.st86{clip-path:url(#SVGID_00000114068909657009290130000012722432144453982123_);}
	.st87{clip-path:url(#SVGID_00000163793701700901404700000006726213610263084445_);}
	.st88{clip-path:url(#SVGID_00000093152473340750626430000017840360631150124965_);}
	.st89{clip-path:url(#SVGID_00000061458862824948902500000005106264787151973255_);}
	.st90{clip-path:url(#SVGID_00000121996950292363333030000015587423208112061624_);}
	.st91{clip-path:url(#SVGID_00000106830826873028528700000012060390143431666623_);}
	.st92{clip-path:url(#SVGID_00000047056720526073480250000017264315370969946786_);}
	.st93{clip-path:url(#SVGID_00000045608054433663501050000016536857965863944335_);}
	.st94{clip-path:url(#SVGID_00000116920791718964250770000002436878736798682555_);}
	.st95{clip-path:url(#SVGID_00000145020976709647587290000011153478854457842050_);}
	.st96{clip-path:url(#SVGID_00000003079168854076640630000018058249420606619055_);}
	.st97{clip-path:url(#SVGID_00000073697927281843416230000006216919160427667603_);}
	.st98{clip-path:url(#SVGID_00000118392371056944923240000018050240889517969537_);}
	.st99{clip-path:url(#SVGID_00000060732857079786624250000003744125327659101073_);}
	.st100{clip-path:url(#SVGID_00000021800375719298558290000012472864445600000951_);}
	.st101{clip-path:url(#SVGID_00000036229613096015134880000006539444684320530336_);}
	.st102{clip-path:url(#SVGID_00000176040191745206570750000000440029699499901367_);}
	.st103{clip-path:url(#SVGID_00000153707399448773782830000000905057145614283681_);}
	.st104{clip-path:url(#SVGID_00000088827784479119890500000016447246613403761568_);}
	.st105{clip-path:url(#SVGID_00000013883209062772835500000006785244920528157628_);}
	.st106{clip-path:url(#SVGID_00000155856066609400697690000014596211905883146156_);}
	.st107{clip-path:url(#SVGID_00000067221852999141816940000004771994278710350224_);}
	.st108{clip-path:url(#SVGID_00000045588827380103366400000017744569702462247322_);}
	.st109{clip-path:url(#SVGID_00000131353727694217467340000009799900530038232249_);}
	.st110{clip-path:url(#SVGID_00000040538415041414994030000004273356780347541666_);}
	.st111{clip-path:url(#SVGID_00000054974226852400648480000011202653110025296798_);}
	.st112{clip-path:url(#SVGID_00000003799042337463221370000009113524622106377619_);}
	.st113{clip-path:url(#SVGID_00000041986328137573665150000006021779807468811138_);}
	.st114{clip-path:url(#SVGID_00000145053016313115944510000006251540844648937886_);}
	.st115{fill:#FFFFFF;stroke:#000000;stroke-miterlimit:10;}
	.st116{clip-path:url(#SVGID_00000165952530525396778370000001240303745725180344_);}
	.st117{clip-path:url(#SVGID_00000153704593565818239540000015856643841161481888_);}
	.st118{fill:none;stroke:#010101;stroke-miterlimit:10;}
	.st119{fill:#010101;stroke:#000000;stroke-miterlimit:10;}
	.st120{clip-path:url(#SVGID_00000134227102374310354410000000240019665388366468_);}
	.st121{fill:#010101;stroke:#010101;stroke-miterlimit:10;}
	.st122{clip-path:url(#SVGID_00000025418531426551047650000005511633961465505187_);}
	.st123{clip-path:url(#SVGID_00000148625953780816109280000002688461492356194957_);}
	.st124{clip-path:url(#SVGID_00000034049470938508387850000008734869825485864353_);}
	.st125{clip-path:url(#SVGID_00000003800942436928742660000014956186307556085900_);}
	.st126{clip-path:url(#SVGID_00000148648336517277558690000011697542414918953866_);}
	.st127{fill:none;stroke:#000000;stroke-width:3;stroke-miterlimit:10;}
	.st128{clip-path:url(#SVGID_00000067237725392384829100000006320277622700352428_);}
	.st129{clip-path:url(#SVGID_00000134230269653184829550000005356766146099817883_);}
	.st130{clip-path:url(#SVGID_00000067195286169287148740000008245477730421961373_);}
	.st131{clip-path:url(#SVGID_00000047762397512250971900000009001556222132913284_);}
	.st132{fill:#040606;}
	.st133{clip-path:url(#SVGID_00000103227013670471100200000005104321686651696777_);}
	.st134{clip-path:url(#SVGID_00000183243330021183464340000007322633024447497120_);}
	.st135{clip-path:url(#SVGID_00000181793686638626488770000009599897700529051525_);}
	.st136{clip-path:url(#SVGID_00000082370247219066136060000000603353280131951289_);}
	.st137{clip-path:url(#SVGID_00000006690916037323236840000002635168701827347642_);}
	.st138{clip-path:url(#SVGID_00000176036806736312068170000010540573529823144600_);}
	.st139{clip-path:url(#SVGID_00000095309508797031810790000016092734877880851597_);}
	.st140{fill:#FFFFFF;stroke:#000000;stroke-width:1.5;stroke-miterlimit:10;}
	.st141{clip-path:url(#SVGID_00000136399814944016989220000006488640665776629897_);}
	.st142{fill:#BDBCBC;}
	.st143{clip-path:url(#SVGID_00000137847863359040189800000017421510998856912787_);}
	.st144{fill:#2E2A2B;}
	.st145{clip-path:url(#SVGID_00000176761882455617329360000006374552342929467551_);}
	.st146{clip-path:url(#SVGID_00000177443750406835156190000000886869939253082516_);}
	.st147{clip-path:url(#SVGID_00000140000254520726324500000007966549859636041361_);}
	.st148{clip-path:url(#SVGID_00000007413468769566209190000015198793139940095897_);}
	.st149{clip-path:url(#SVGID_00000064312038089168098860000005706237416965114803_);}
	.st150{fill:#272324;}
	.st151{clip-path:url(#SVGID_00000005971242085969618680000013862115296388956551_);}
	.st152{clip-path:url(#SVGID_00000116925236057788123690000004224335662424413825_);}
	.st153{clip-path:url(#SVGID_00000178206535135035814450000005112242635607653775_);}
	.st154{clip-path:url(#SVGID_00000175298891965819793960000012460236312723234710_);}
	.st155{clip-path:url(#SVGID_00000011735869009307190120000007840431430394769030_);}
	.st156{clip-path:url(#SVGID_00000022546686788257132600000014542952440968134044_);}
	.st157{fill:none;stroke:#000000;stroke-width:0.8735;stroke-linecap:round;stroke-linejoin:round;stroke-miterlimit:10;}
	.st158{clip-path:url(#SVGID_00000151510022448485789630000001264139177816168576_);}
	.st159{clip-path:url(#SVGID_00000104670149410981404470000002234810768824924063_);}
	.st160{clip-path:url(#SVGID_00000183208816188091398750000005048570185402430353_);}
	.st161{clip-path:url(#SVGID_00000149376312258808319660000003170107895837703562_);}
	.st162{clip-path:url(#SVGID_00000169534493257805167450000006770943914050110125_);}
	.st163{clip-path:url(#SVGID_00000098937729905397727490000000255661370624257966_);}
	.st164{clip-path:url(#SVGID_00000020370479782892778590000002127080020187288479_);}
	.st165{clip-path:url(#SVGID_00000007424125199368901530000009365621955961289662_);}
	.st166{clip-path:url(#SVGID_00000094593804742917790780000007638683560015798678_);}
	.st167{clip-path:url(#SVGID_00000013195297864157973720000010090583614904994723_);}
	.st168{clip-path:url(#SVGID_00000018931338953193818420000008640818145031726980_);}
	.st169{clip-path:url(#SVGID_00000133519230659384205040000002288382290329613190_);}
	.st170{clip-path:url(#SVGID_00000085233547601775048530000018346722884274341264_);}
	.st171{clip-path:url(#SVGID_00000028316151714634584170000005420002546909851312_);}
	.st172{clip-path:url(#SVGID_00000092441478411425891360000005898374521393797265_);}
	.st173{clip-path:url(#SVGID_00000168829439827712810560000000542935220487146160_);}
	.st174{clip-path:url(#SVGID_00000111876436399572023820000008717747016685364637_);}
	.st175{clip-path:url(#SVGID_00000057145105206818134380000015128139526077891496_);}
	.st176{clip-path:url(#SVGID_00000172424196758152913090000013010915836140247453_);}
	.st177{clip-path:url(#SVGID_00000037658251112983284000000015033582978276822403_);}
	.st178{clip-path:url(#SVGID_00000103945117031126578480000006043355802328498105_);}
	.st179{clip-path:url(#SVGID_00000152248519923226943150000016863631708098883984_);}
	.st180{clip-path:url(#SVGID_00000110435948523775263000000003118092956126608572_);}
	.st181{clip-path:url(#SVGID_00000083049094214503328190000011300001653690831491_);}
	.st182{clip-path:url(#SVGID_00000130620392694950792070000013784106500684539070_);}
	.st183{clip-path:url(#SVGID_00000095324086690780886180000001151982546030383787_);}
	.st184{clip-path:url(#SVGID_00000133528060818223082150000000664924815707878813_);}
	.st185{clip-path:url(#SVGID_00000005952991036592404770000004128509339426130620_);}
	.st186{clip-path:url(#SVGID_00000047746809166331607710000001842347457253542302_);}
	.st187{clip-path:url(#SVGID_00000067941569151519945050000006167846422396446082_);}
	.st188{clip-path:url(#SVGID_00000129903480900035180390000012383683692301458562_);}
	.st189{clip-path:url(#SVGID_00000060729165973643062460000013826683073208936867_);}
	.st190{clip-path:url(#SVGID_00000114783625825739563860000009470687644887435957_);}
	.st191{clip-path:url(#SVGID_00000170244682232435885230000000838128132525702829_);}
	.st192{clip-path:url(#SVGID_00000161624459596170027170000003277152295606405773_);}
	.st193{clip-path:url(#SVGID_00000096750883177681995910000010198691008059834000_);}
	.st194{clip-path:url(#SVGID_00000075847657209325191150000013784238651969320378_);}
	.st195{clip-path:url(#SVGID_00000080895436020474784420000008862202165070277813_);}
	.st196{fill:#E5E5E5;}
	.st197{fill:#1D1D1B;}
	.st198{fill:none;stroke:#000000;stroke-miterlimit:10;}
	.st199{fill:#FEFEFE;stroke:#000000;stroke-miterlimit:10;}
	.st200{clip-path:url(#SVGID_00000016077008855476714400000017413121407917965470_);}
	.st201{clip-path:url(#SVGID_00000040537007656271701110000004418599879926894008_);}
	.st202{clip-path:url(#SVGID_00000034087169888297640820000014423508215389643191_);}
	.st203{fill:#231F1F;}
	.st204{fill:#020000;}
	.st205{clip-path:url(#SVGID_00000103985929344896025400000005094535771169836212_);}
	.st206{clip-path:url(#SVGID_00000093159796778953977500000007562991136681084302_);}
	.st207{clip-path:url(#SVGID_00000052785313491758919010000016448192032280537768_);}
	.st208{clip-path:url(#SVGID_00000082338824818767563170000004307993970228983482_);}
	.st209{fill:#050000;}
	.st210{clip-path:url(#SVGID_00000056387521879888890660000002705933961172997509_);}
	.st211{clip-path:url(#SVGID_00000001637433502083783140000001039140597533432224_);}
	.st212{clip-path:url(#SVGID_00000048490547403781891090000012683613817970387116_);}
	.st213{clip-path:url(#SVGID_00000129888820855522140040000005837781743872384428_);}
	.st214{clip-path:url(#SVGID_00000170957628476886815270000003243516890260913318_);}
	.st215{clip-path:url(#SVGID_00000072966458405906902410000013003352359457753230_);}
	.st216{fill:#12100F;}
	.st217{clip-path:url(#SVGID_00000093155595518585494980000005488938777561349044_);}
	.st218{clip-path:url(#SVGID_00000117670491563141604840000014499033361634729907_);}
	.st219{fill:none;stroke:#000000;stroke-width:0.5;stroke-miterlimit:10;}
	.st220{clip-path:url(#SVGID_00000147210058575740626870000005848311418819347878_);}
	.st221{clip-path:url(#SVGID_00000098188729284766078480000002136702549283904698_);}
	.st222{clip-path:url(#SVGID_00000176020901182232832930000002685522246128829371_);}
	.st223{clip-path:url(#SVGID_00000038402416838887589510000005006795028307993219_);}
	.st224{fill:none;stroke:#000000;stroke-width:0.25;stroke-miterlimit:10;}
	.st225{clip-path:url(#SVGID_00000133521229095922329250000016419045211418230695_);}
	.st226{clip-path:url(#SVGID_00000085248713830948106040000005770016747719102599_);}
	.st227{clip-path:url(#SVGID_00000001640202733684437340000001554837361155552920_);}
</style>
<g>
	<path class="st5" d="M32.37,39.8c0.24,0.26,0.08,0.93,0.01,1.46c-0.08,0.59,0.08,1.18-0.16,1.48c-0.36,0.44-3.02,0.35-3.3,0.07
		c-0.32-0.32-0.13-0.98-0.23-1.66c-0.08-0.57-0.15-1.25,0.02-1.43"/>
	<g>
		<defs>
			<rect id="SVGID_00000083800805777121597620000001306209149231557030_" x="28.15" y="39.3" width="4.62" height="3.94"/>
		</defs>
		<clipPath id="SVGID_00000113311618023040675120000000596453546110517893_">
			<use xlink:href="#SVGID_00000083800805777121597620000001306209149231557030_"  style="overflow:visible;"/>
		</clipPath>
		<g style="clip-path:url(#SVGID_00000113311618023040675120000000596453546110517893_);">
			<path class="st157" d="M32.37,39.8c0.24,0.26,0.08,0.93,0.01,1.46c-0.08,0.59,0.08,1.18-0.16,1.48c-0.36,0.44-3.02,0.35-3.3,0.07
				c-0.32-0.32-0.13-0.98-0.23-1.66c-0.08-0.57-0.15-1.25,0.02-1.43"/>
		</g>
	</g>
	<g>
		<defs>
			<rect id="SVGID_00000069394048922728735770000016309981494252128401_" x="15.07" y="40.07" width="12.31" height="3.17"/>
		</defs>
		<clipPath id="SVGID_00000028292167567317724690000011158822550410425743_">
			<use xlink:href="#SVGID_00000069394048922728735770000016309981494252128401_"  style="overflow:visible;"/>
		</clipPath>
		<g style="clip-path:url(#SVGID_00000028292167567317724690000011158822550410425743_);">
			<path class="st5" d="M26.96,40.25c0.02,0.51,0.02,0.88-0.09,1.31c-0.15,0.56,0.02,1.13-0.7,1.42c-0.69,0.28-1.23,0.03-2.34,0.14
				c-0.94,0.1-1.52,0.08-2.66,0.05c-0.88-0.03-1.97-0.07-2.49-0.05c-0.82,0.04-1.57,0.17-2.16-0.03c-0.96-0.32-0.67-0.87-0.88-1.48
				c-0.15-0.44-0.19-0.95-0.15-1.31"/>
		</g>
	</g>
	<g>
		<defs>
			<rect id="SVGID_00000117667182769251325320000016738884268642546615_" x="15.07" y="39.3" width="12.31" height="3.94"/>
		</defs>
		<clipPath id="SVGID_00000085238479981076332170000009358635410623654037_">
			<use xlink:href="#SVGID_00000117667182769251325320000016738884268642546615_"  style="overflow:visible;"/>
		</clipPath>
		<g style="clip-path:url(#SVGID_00000085238479981076332170000009358635410623654037_);">
			<path class="st157" d="M26.96,40.25c0.02,0.51,0.02,0.88-0.09,1.31c-0.15,0.56,0.02,1.13-0.7,1.42
				c-0.69,0.28-1.23,0.03-2.34,0.14c-0.94,0.1-1.52,0.08-2.66,0.05c-0.88-0.03-1.97-0.07-2.49-0.05c-0.82,0.04-1.57,0.17-2.16-0.03
				c-0.96-0.32-0.67-0.87-0.88-1.48c-0.15-0.44-0.19-0.95-0.15-1.31"/>
		</g>
	</g>
	<path class="st5" d="M10.06,39.8c-0.24,0.26-0.08,0.93-0.01,1.46c0.08,0.59-0.08,1.18,0.16,1.48c0.36,0.44,3.02,0.35,3.3,0.07
		c0.32-0.32,0.13-0.98,0.23-1.66c0.08-0.57,0.15-1.25-0.02-1.43"/>
	<g>
		<defs>
			<rect id="SVGID_00000034793257622098256900000004781861082425080226_" x="9.68" y="39.3" width="4.62" height="3.94"/>
		</defs>
		<clipPath id="SVGID_00000146487171693511962600000010217995730655325628_">
			<use xlink:href="#SVGID_00000034793257622098256900000004781861082425080226_"  style="overflow:visible;"/>
		</clipPath>
		<g style="clip-path:url(#SVGID_00000146487171693511962600000010217995730655325628_);">
			<path class="st157" d="M10.06,39.8c-0.24,0.26-0.08,0.93-0.01,1.46c0.08,0.59-0.08,1.18,0.16,1.48c0.36,0.44,3.02,0.35,3.3,0.07
				c0.32-0.32,0.13-0.98,0.23-1.66c0.08-0.57,0.15-1.25-0.02-1.43"/>
		</g>
	</g>
	<path class="st5" d="M9.94,39.92l-0.94-3.01L9,32.32l0.73-3.78l1.57-6.44l2.04-1.75l2.21-0.69l0.78,0.75l4.97,0.41l4.92-0.4
		l0.89-0.74l2.51,0.93l1.89,1.98l0.63,3.38l1.06,4.82l0.31,3.02l-0.19,3.4l-1.01,2.67l-1.81,0.29l-1.86-0.43l-0.73-1.8l-0.62,2.09
		l-1.42,0.8l-9.4,0.06l-1.28-0.87l-0.53-2.21l-0.8,1.96l-2.14,0.45L9.94,39.92z"/>
	<g>
		<defs>
			<rect id="SVGID_00000119089632728809363560000011480816321654080670_" x="26.61" y="19.29" width="7.3" height="21.55"/>
		</defs>
		<clipPath id="SVGID_00000018946766327113383760000001985135094468402108_">
			<use xlink:href="#SVGID_00000119089632728809363560000011480816321654080670_"  style="overflow:visible;"/>
		</clipPath>
		<g style="clip-path:url(#SVGID_00000018946766327113383760000001985135094468402108_);">
			<path class="st157" d="M26.92,19.72c0.76,0.02,1.52,0.17,2.67,0.99c1.15,0.82,1.89,1.73,2.21,3.62c0.41,2.43,1.12,5,1.48,7.55
				c0.38,2.71,0.09,6.21-0.9,7.9c-0.54,0.68-3.22,0.33-3.68-0.06c-0.59-0.56-0.6-1.87-0.75-3.3"/>
		</g>
	</g>
	<g>
		<defs>
			<rect id="SVGID_00000121271601737958890670000000848702219763812283_" x="8.52" y="19.29" width="8.09" height="21.55"/>
		</defs>
		<clipPath id="SVGID_00000153665909419365802760000009767810352304920726_">
			<use xlink:href="#SVGID_00000121271601737958890670000000848702219763812283_"  style="overflow:visible;"/>
		</clipPath>
		<g style="clip-path:url(#SVGID_00000153665909419365802760000009767810352304920726_);">
			<path class="st157" d="M15.62,19.74c-0.76,0.02-1.63,0.14-2.78,0.96c-1.15,0.82-1.89,1.73-2.21,3.62c-0.41,2.43-1.12,5-1.48,7.55
				c-0.38,2.71-0.09,6.21,0.9,7.9c0.54,0.68,3.22,0.33,3.68-0.06c0.59-0.56,0.6-1.87,0.75-3.3"/>
		</g>
	</g>
	<path class="st157" d="M27.06,24.48c-0.36,1.58-0.17,2.92-0.08,3.64c0.22,1.78,0.71,2.41,0.94,5.65c0.23,3.24-0.2,4.74-0.63,6
		c-0.44,1.31-3.62,1.24-5.93,1.2c-2.02-0.03-5.55,0.57-6.22-1.2c-0.4-1.07-0.86-2.76-0.63-6c0.23-3.24,0.72-3.87,0.95-5.65
		c0.09-0.72,0.29-2.07-0.08-3.64"/>
	<path class="st157" d="M14.46,34.83c-0.13-1.15-0.35-2.44,0.49-4.24"/>
	<path class="st157" d="M27.98,34.83c0.13-1.15,0.36-2.44-0.49-4.24"/>
	<g>
		<defs>
			<rect id="SVGID_00000021830708588465406460000006529441913703080338_" x="15.07" y="13.23" width="12.31" height="7.61"/>
		</defs>
		<clipPath id="SVGID_00000088109576070103205380000007929111345521855678_">
			<use xlink:href="#SVGID_00000021830708588465406460000006529441913703080338_"  style="overflow:visible;"/>
		</clipPath>
		<g style="clip-path:url(#SVGID_00000088109576070103205380000007929111345521855678_);">
			<path class="st5" d="M16.73,14.1c-0.51,0.64-0.24,1.68-0.47,2.87c-0.19,1.02-0.85,2.07-0.57,2.85c0.32,0.87,1.39,0.7,2.44,0.75
				c1.21,0.06,2,0.17,3.11,0.2c1.19,0.03,2.36-0.19,3.23-0.2c0.87-0.02,1.88,0.02,2.29-0.6c0.41-0.63-0.26-1.82-0.39-3.05
				c-0.11-1.02,0.09-2.4-0.47-2.98c-0.47-0.48-2.01-0.11-2.54-0.03c-1.55,0.26-2.06,0.28-3.5,0.14
				C18.6,13.95,17.27,13.43,16.73,14.1z"/>
		</g>
	</g>
	<g>
		<defs>
			<rect id="SVGID_00000055679553524910182530000017133781889197761181_" x="15.07" y="13.23" width="12.31" height="8.37"/>
		</defs>
		<clipPath id="SVGID_00000021114764343600869780000007396828791992419459_">
			<use xlink:href="#SVGID_00000055679553524910182530000017133781889197761181_"  style="overflow:visible;"/>
		</clipPath>
		<g style="clip-path:url(#SVGID_00000021114764343600869780000007396828791992419459_);">
			<path class="st157" d="M16.73,14.1c-0.51,0.64-0.24,1.68-0.47,2.87c-0.19,1.02-0.85,2.07-0.57,2.85c0.32,0.87,1.39,0.7,2.44,0.75
				c1.21,0.06,2,0.17,3.11,0.2c1.19,0.03,2.36-0.19,3.23-0.2c0.87-0.02,1.88,0.02,2.29-0.6c0.41-0.63-0.26-1.82-0.39-3.05
				c-0.11-1.02,0.09-2.4-0.47-2.98c-0.47-0.48-2.01-0.11-2.54-0.03c-1.55,0.26-2.06,0.28-3.5,0.14
				C18.6,13.95,17.27,13.43,16.73,14.1z"/>
		</g>
	</g>
	<g>
		<defs>
			<rect id="SVGID_00000150795087818793600220000013818894031636340890_" x="15.83" y="13.23" width="3.08" height="7.61"/>
		</defs>
		<clipPath id="SVGID_00000122708249352940524750000008456947926224643466_">
			<use xlink:href="#SVGID_00000150795087818793600220000013818894031636340890_"  style="overflow:visible;"/>
		</clipPath>
		<g style="clip-path:url(#SVGID_00000122708249352940524750000008456947926224643466_);">
			<path class="st157" d="M17.94,13.8c-0.38,0.15-0.41,2.22-0.67,3.9c-0.25,1.6-0.71,2.56-0.61,2.65"/>
		</g>
	</g>
	<g>
		<defs>
			<rect id="SVGID_00000096754797102103271620000009076071192697095099_" x="17.37" y="13.23" width="2.31" height="7.61"/>
		</defs>
		<clipPath id="SVGID_00000113337516185551202860000001686402118200152495_">
			<use xlink:href="#SVGID_00000096754797102103271620000009076071192697095099_"  style="overflow:visible;"/>
		</clipPath>
		<g style="clip-path:url(#SVGID_00000113337516185551202860000001686402118200152495_);">
			<path class="st157" d="M19.05,13.99c-0.18,0.05-0.26,2.14-0.43,3.86c-0.14,1.42-0.35,2.46-0.23,2.59"/>
		</g>
	</g>
	<g>
		<defs>
			<rect id="SVGID_00000054958109629506997720000013898921131995714725_" x="19.68" y="13.23" width="1.54" height="8.37"/>
		</defs>
		<clipPath id="SVGID_00000005231658839711919700000002792629693846771883_">
			<use xlink:href="#SVGID_00000054958109629506997720000013898921131995714725_"  style="overflow:visible;"/>
		</clipPath>
		<g style="clip-path:url(#SVGID_00000005231658839711919700000002792629693846771883_);">
			<path class="st157" d="M20.35,14.15c-0.18,0.08-0.2,1.94-0.28,3.64c-0.07,1.45-0.22,2.78-0.06,2.89"/>
		</g>
	</g>
	<path class="st157" d="M21.44,14.24c0.07,1.87,0.09,4.37-0.08,6.44"/>
	<g>
		<defs>
			<rect id="SVGID_00000051364456128534693130000002259122626593718170_" x="24.3" y="13.23" width="2.31" height="7.61"/>
		</defs>
		<clipPath id="SVGID_00000100355742494055086250000009932659346283478199_">
			<use xlink:href="#SVGID_00000051364456128534693130000002259122626593718170_"  style="overflow:visible;"/>
		</clipPath>
		<g style="clip-path:url(#SVGID_00000100355742494055086250000009932659346283478199_);">
			<path class="st157" d="M24.86,13.77c0.34,0.2,0.31,2.42,0.5,4.06c0.19,1.59,0.6,2.34,0.47,2.55"/>
		</g>
	</g>
	<g>
		<defs>
			<rect id="SVGID_00000078743987932996006690000015546318390904988321_" x="22.76" y="13.23" width="2.31" height="7.61"/>
		</defs>
		<clipPath id="SVGID_00000093161350330333394870000007871274246370982034_">
			<use xlink:href="#SVGID_00000078743987932996006690000015546318390904988321_"  style="overflow:visible;"/>
		</clipPath>
		<g style="clip-path:url(#SVGID_00000093161350330333394870000007871274246370982034_);">
			<path class="st157" d="M23.6,13.95c0.2-0.05,0.44,2.48,0.63,4.32c0.14,1.33,0.27,2.1,0.17,2.18"/>
		</g>
	</g>
	<g>
		<defs>
			<rect id="SVGID_00000174585258718183395520000013979485414284992131_" x="21.99" y="13.23" width="1.54" height="8.37"/>
		</defs>
		<clipPath id="SVGID_00000018959341235945898920000006834164108916679059_">
			<use xlink:href="#SVGID_00000174585258718183395520000013979485414284992131_"  style="overflow:visible;"/>
		</clipPath>
		<g style="clip-path:url(#SVGID_00000018959341235945898920000006834164108916679059_);">
			<path class="st157" d="M22.57,14.1c0.13,0.06,0.21,2.04,0.3,3.81c0.07,1.36,0.2,2.59,0.08,2.72"/>
		</g>
	</g>
	<g>
		<defs>
			<rect id="SVGID_00000065076725705617453040000017337152707076475781_" x="30.46" y="39.3" width="1.54" height="3.94"/>
		</defs>
		<clipPath id="SVGID_00000168831301419814983930000013966569811758733754_">
			<use xlink:href="#SVGID_00000065076725705617453040000017337152707076475781_"  style="overflow:visible;"/>
		</clipPath>
		<g style="clip-path:url(#SVGID_00000168831301419814983930000013966569811758733754_);">
			<path class="st157" d="M31.61,40.18c0.01,0.35-0.03,0.69-0.11,1.26c-0.08,0.58-0.03,1.43-0.17,1.51"/>
		</g>
	</g>
	<g>
		<defs>
			<rect id="SVGID_00000058578614401588336840000003195448910452950956_" x="10.45" y="39.3" width="1.54" height="3.94"/>
		</defs>
		<clipPath id="SVGID_00000165932211641455301590000017278189492347697543_">
			<use xlink:href="#SVGID_00000058578614401588336840000003195448910452950956_"  style="overflow:visible;"/>
		</clipPath>
		<g style="clip-path:url(#SVGID_00000165932211641455301590000017278189492347697543_);">
			<path class="st157" d="M10.81,40.21c-0.01,0.35,0.03,0.69,0.11,1.26c0.08,0.58,0.03,1.43,0.17,1.51"/>
		</g>
	</g>
	<g>
		<defs>
			<rect id="SVGID_00000132086659128628094820000013284031663340064911_" x="28.92" y="39.3" width="1.54" height="3.94"/>
		</defs>
		<clipPath id="SVGID_00000064343978051315426270000012094743100388348293_">
			<use xlink:href="#SVGID_00000132086659128628094820000013284031663340064911_"  style="overflow:visible;"/>
		</clipPath>
		<g style="clip-path:url(#SVGID_00000064343978051315426270000012094743100388348293_);">
			<path class="st157" d="M29.42,40.06c-0.01,0.39,0.05,0.78,0.12,1.23c0.1,0.61-0.02,1.56,0.17,1.66"/>
		</g>
	</g>
	<g>
		<defs>
			<rect id="SVGID_00000008856631740536357300000002410404105997429401_" x="11.99" y="39.3" width="1.54" height="3.94"/>
		</defs>
		<clipPath id="SVGID_00000183227774638030525480000002028718210463614900_">
			<use xlink:href="#SVGID_00000008856631740536357300000002410404105997429401_"  style="overflow:visible;"/>
		</clipPath>
		<g style="clip-path:url(#SVGID_00000183227774638030525480000002028718210463614900_);">
			<path class="st157" d="M13,40.09c0.01,0.39-0.05,0.78-0.12,1.23c-0.1,0.61,0.02,1.56-0.17,1.66"/>
		</g>
	</g>
	<g>
		<defs>
			<rect id="SVGID_00000163794845586772636070000017623906441277018559_" x="29.69" y="39.3" width="1.54" height="3.94"/>
		</defs>
		<clipPath id="SVGID_00000061453387935621746910000002674275705294001045_">
			<use xlink:href="#SVGID_00000163794845586772636070000017623906441277018559_"  style="overflow:visible;"/>
		</clipPath>
		<g style="clip-path:url(#SVGID_00000061453387935621746910000002674275705294001045_);">
			<path class="st157" d="M30.52,40.27c0,0.55,0.15,2.68-0.06,2.7"/>
		</g>
	</g>
	<g>
		<defs>
			<rect id="SVGID_00000007391968663970874410000003601022895590846390_" x="11.22" y="39.3" width="1.54" height="3.94"/>
		</defs>
		<clipPath id="SVGID_00000124122278236563951910000003678408672289679780_">
			<use xlink:href="#SVGID_00000007391968663970874410000003601022895590846390_"  style="overflow:visible;"/>
		</clipPath>
		<g style="clip-path:url(#SVGID_00000124122278236563951910000003678408672289679780_);">
			<path class="st157" d="M11.9,40.29c0,0.55-0.15,2.68,0.06,2.7"/>
		</g>
	</g>
	<g>
		<defs>
			<rect id="SVGID_00000173127282223185017350000009031073415023569565_" x="22.76" y="40.07" width="1.54" height="3.17"/>
		</defs>
		<clipPath id="SVGID_00000026852099976820846540000009869109449268393388_">
			<use xlink:href="#SVGID_00000173127282223185017350000009031073415023569565_"  style="overflow:visible;"/>
		</clipPath>
		<g style="clip-path:url(#SVGID_00000026852099976820846540000009869109449268393388_);">
			<path class="st157" d="M23.89,41.04c0,0.62-0.06,2.01-0.39,2.09"/>
		</g>
	</g>
	<g>
		<defs>
			<rect id="SVGID_00000150821994032015032640000001157249488539736232_" x="18.14" y="40.84" width="1.54" height="2.4"/>
		</defs>
		<clipPath id="SVGID_00000085951374162767761600000004903505824966874014_">
			<use xlink:href="#SVGID_00000150821994032015032640000001157249488539736232_"  style="overflow:visible;"/>
		</clipPath>
		<g style="clip-path:url(#SVGID_00000085951374162767761600000004903505824966874014_);">
			<path class="st157" d="M18.58,41.12c0,0.59,0.06,1.9,0.39,1.98"/>
		</g>
	</g>
	<g>
		<defs>
			<rect id="SVGID_00000080909428320692810220000006510802885801844394_" x="21.22" y="40.07" width="1.54" height="3.17"/>
		</defs>
		<clipPath id="SVGID_00000168819958180562189080000016972423507667870378_">
			<use xlink:href="#SVGID_00000080909428320692810220000006510802885801844394_"  style="overflow:visible;"/>
		</clipPath>
		<g style="clip-path:url(#SVGID_00000168819958180562189080000016972423507667870378_);">
			<path class="st157" d="M21.83,41.08c-0.01,0.42,0.04,2.02-0.17,2.05"/>
		</g>
	</g>
	<g>
		<defs>
			<rect id="SVGID_00000181072863815985069030000000047725599798277000_" x="19.68" y="40.07" width="1.54" height="3.17"/>
		</defs>
		<clipPath id="SVGID_00000098215920781222538280000017728372381988176828_">
			<use xlink:href="#SVGID_00000181072863815985069030000000047725599798277000_"  style="overflow:visible;"/>
		</clipPath>
		<g style="clip-path:url(#SVGID_00000098215920781222538280000017728372381988176828_);">
			<path class="st157" d="M20.7,41.06c0,0.42-0.04,2.02,0.17,2.05"/>
		</g>
	</g>
	<g>
		<defs>
			<rect id="SVGID_00000177448785082955959960000017570799849914412928_" x="23.53" y="40.07" width="2.31" height="3.17"/>
		</defs>
		<clipPath id="SVGID_00000045616802181329114130000006663766267677879993_">
			<use xlink:href="#SVGID_00000177448785082955959960000017570799849914412928_"  style="overflow:visible;"/>
		</clipPath>
		<g style="clip-path:url(#SVGID_00000045616802181329114130000006663766267677879993_);">
			<path class="st157" d="M24.92,40.93c-0.01,0.45-0.13,2.09-0.5,2.15"/>
		</g>
	</g>
	<g>
		<defs>
			<rect id="SVGID_00000044147741784387729850000017087854139476247468_" x="16.6" y="40.07" width="2.31" height="3.17"/>
		</defs>
		<clipPath id="SVGID_00000008852549750696658880000012313349833572870046_">
			<use xlink:href="#SVGID_00000044147741784387729850000017087854139476247468_"  style="overflow:visible;"/>
		</clipPath>
		<g style="clip-path:url(#SVGID_00000008852549750696658880000012313349833572870046_);">
			<path class="st157" d="M17.54,41c0.01,0.45,0.13,2.09,0.5,2.15"/>
		</g>
	</g>
	<g>
		<defs>
			<rect id="SVGID_00000111192387142270484420000018394268456595085488_" x="21.99" y="40.84" width="1.54" height="2.4"/>
		</defs>
		<clipPath id="SVGID_00000157269759207763720320000015044045130801296554_">
			<use xlink:href="#SVGID_00000111192387142270484420000018394268456595085488_"  style="overflow:visible;"/>
		</clipPath>
		<g style="clip-path:url(#SVGID_00000157269759207763720320000015044045130801296554_);">
			<path class="st157" d="M22.9,41.1c-0.01,0.45,0.05,2.01-0.32,2.07"/>
		</g>
	</g>
	<g>
		<defs>
			<rect id="SVGID_00000109746861038893713260000001716797400256370613_" x="18.91" y="40.07" width="1.54" height="3.17"/>
		</defs>
		<clipPath id="SVGID_00000131350699070394582640000007789902817901212320_">
			<use xlink:href="#SVGID_00000109746861038893713260000001716797400256370613_"  style="overflow:visible;"/>
		</clipPath>
		<g style="clip-path:url(#SVGID_00000131350699070394582640000007789902817901212320_);">
			<path class="st157" d="M19.63,41.04c0.01,0.45-0.05,2.01,0.32,2.07"/>
		</g>
	</g>
	<g>
		<defs>
			<rect id="SVGID_00000055706738847637333330000014685797290563188908_" x="25.07" y="40.07" width="1.54" height="3.17"/>
		</defs>
		<clipPath id="SVGID_00000021814923789790499210000018420204092318499722_">
			<use xlink:href="#SVGID_00000055706738847637333330000014685797290563188908_"  style="overflow:visible;"/>
		</clipPath>
		<g style="clip-path:url(#SVGID_00000021814923789790499210000018420204092318499722_);">
			<path class="st157" d="M25.99,40.77c0.05,0.7-0.24,2.3-0.57,2.34"/>
		</g>
	</g>
	<g>
		<defs>
			<rect id="SVGID_00000010292342011338226300000002703761407123015056_" x="15.83" y="40.07" width="1.54" height="3.17"/>
		</defs>
		<clipPath id="SVGID_00000009555319220484161690000003233138260079595428_">
			<use xlink:href="#SVGID_00000010292342011338226300000002703761407123015056_"  style="overflow:visible;"/>
		</clipPath>
		<g style="clip-path:url(#SVGID_00000009555319220484161690000003233138260079595428_);">
			<path class="st157" d="M16.53,40.85c-0.05,0.7,0.24,2.3,0.57,2.34"/>
		</g>
	</g>
</g>
</svg>
