<svg width="19" height="18" viewBox="0 0 19 18" fill="none" xmlns="http://www.w3.org/2000/svg">
<path d="M3.75 0C1.96403 0 0.5 1.46403 0.5 3.25V14.75C0.5 16.536 1.96403 18 3.75 18H15.25C17.036 18 18.5 16.536 18.5 14.75V3.25C18.5 1.46403 17.036 0 15.25 0H3.75ZM3.75 1.5H15.25C16.225 1.5 17 2.27497 17 3.25V4H2V3.25C2 2.27497 2.77497 1.5 3.75 1.5ZM2 5.5H17V14.75C17 15.725 16.225 16.5 15.25 16.5H3.75C2.77497 16.5 2 15.725 2 14.75V5.5ZM5.25 7.5C4.91848 7.5 4.60054 7.6317 4.36612 7.86612C4.1317 8.10054 4 8.41848 4 8.75C4 9.08152 4.1317 9.39946 4.36612 9.63388C4.60054 9.8683 4.91848 10 5.25 10C5.58152 10 5.89946 9.8683 6.13388 9.63388C6.3683 9.39946 6.5 9.08152 6.5 8.75C6.5 8.41848 6.3683 8.10054 6.13388 7.86612C5.89946 7.6317 5.58152 7.5 5.25 7.5ZM9.5 7.5C9.16848 7.5 8.85054 7.6317 8.61612 7.86612C8.3817 8.10054 8.25 8.41848 8.25 8.75C8.25 9.08152 8.3817 9.39946 8.61612 9.63388C8.85054 9.8683 9.16848 10 9.5 10C9.83152 10 10.1495 9.8683 10.3839 9.63388C10.6183 9.39946 10.75 9.08152 10.75 8.75C10.75 8.41848 10.6183 8.10054 10.3839 7.86612C10.1495 7.6317 9.83152 7.5 9.5 7.5V7.5ZM13.75 7.5C13.4185 7.5 13.1005 7.6317 12.8661 7.86612C12.6317 8.10054 12.5 8.41848 12.5 8.75C12.5 9.08152 12.6317 9.39946 12.8661 9.63388C13.1005 9.8683 13.4185 10 13.75 10C14.0815 10 14.3995 9.8683 14.6339 9.63388C14.8683 9.39946 15 9.08152 15 8.75C15 8.41848 14.8683 8.10054 14.6339 7.86612C14.3995 7.6317 14.0815 7.5 13.75 7.5ZM5.25 12C4.91848 12 4.60054 12.1317 4.36612 12.3661C4.1317 12.6005 4 12.9185 4 13.25C4 13.5815 4.1317 13.8995 4.36612 14.1339C4.60054 14.3683 4.91848 14.5 5.25 14.5C5.58152 14.5 5.89946 14.3683 6.13388 14.1339C6.3683 13.8995 6.5 13.5815 6.5 13.25C6.5 12.9185 6.3683 12.6005 6.13388 12.3661C5.89946 12.1317 5.58152 12 5.25 12ZM9.5 12C9.16848 12 8.85054 12.1317 8.61612 12.3661C8.3817 12.6005 8.25 12.9185 8.25 13.25C8.25 13.5815 8.3817 13.8995 8.61612 14.1339C8.85054 14.3683 9.16848 14.5 9.5 14.5C9.83152 14.5 10.1495 14.3683 10.3839 14.1339C10.6183 13.8995 10.75 13.5815 10.75 13.25C10.75 12.9185 10.6183 12.6005 10.3839 12.3661C10.1495 12.1317 9.83152 12 9.5 12V12Z" fill="#A1AABA"/>
</svg>
