<svg width="15" height="17" viewBox="0 0 15 17" fill="none" xmlns="http://www.w3.org/2000/svg">
<path d="M1.6875 0.5C0.757125 0.5 0 1.25713 0 2.1875V13.8125C0 14.7429 0.757125 15.5 1.6875 15.5H6.61523C6.29461 15.1666 6.02082 14.7886 5.80444 14.375H1.6875C1.37737 14.375 1.125 14.1226 1.125 13.8125V2.1875C1.125 1.87737 1.37737 1.625 1.6875 1.625H6V4.8125C6 5.74287 6.75713 6.5 7.6875 6.5H10.875V7.31372C11.2669 7.37447 11.6449 7.47759 12 7.62646V5.9375C12 5.78206 11.937 5.64156 11.8352 5.53979L6.96021 0.664795C6.85844 0.563029 6.71794 0.5 6.5625 0.5H1.6875ZM7.125 2.42041L10.0796 5.375H7.6875C7.37737 5.375 7.125 5.12263 7.125 4.8125V2.42041ZM10.125 8C7.84688 8 6 9.84688 6 12.125C6 14.4031 7.84688 16.25 10.125 16.25C12.4031 16.25 14.25 14.4031 14.25 12.125C14.25 9.84688 12.4031 8 10.125 8ZM10.125 10.25C12.0683 10.25 13.0336 11.8674 13.0737 11.936C13.1416 12.053 13.1416 12.197 13.0737 12.314C13.0336 12.383 12.0683 14 10.125 14C8.18175 14 7.21639 12.3826 7.17627 12.314C7.10839 12.197 7.10839 12.053 7.17627 11.936C7.21639 11.8674 8.18175 10.25 10.125 10.25ZM10.125 11C9.50363 11 9 11.5036 9 12.125C9 12.7464 9.50363 13.25 10.125 13.25C10.7464 13.25 11.25 12.7464 11.25 12.125C11.25 11.5036 10.7464 11 10.125 11Z" fill="#484860"/>
</svg>
