<svg width="14" height="14" viewBox="0 0 14 14" fill="none" xmlns="http://www.w3.org/2000/svg">
<path d="M5.6875 0.25C2.69111 0.25 0.25 2.69112 0.25 5.6875C0.25 8.68388 2.69111 11.125 5.6875 11.125C6.98363 11.125 8.17514 10.6671 9.11084 9.90625L12.7898 13.5852C12.8416 13.6392 12.9037 13.6823 12.9724 13.712C13.0411 13.7417 13.115 13.7574 13.1899 13.7581C13.2647 13.7589 13.3389 13.7447 13.4082 13.7164C13.4775 13.6881 13.5405 13.6463 13.5934 13.5934C13.6463 13.5405 13.6881 13.4775 13.7164 13.4082C13.7447 13.3389 13.7589 13.2647 13.7581 13.1899C13.7574 13.115 13.7417 13.0411 13.712 12.9724C13.6823 12.9037 13.6392 12.8416 13.5852 12.7898L9.90625 9.11084C10.6671 8.17514 11.125 6.98363 11.125 5.6875C11.125 2.69112 8.68389 0.25 5.6875 0.25ZM5.6875 1.375C8.07589 1.375 10 3.29911 10 5.6875C10 6.85098 9.54107 7.90214 8.79663 8.67651C8.75074 8.71024 8.71024 8.75074 8.67651 8.79663C7.90214 9.54107 6.85098 10 5.6875 10C3.29911 10 1.375 8.07589 1.375 5.6875C1.375 3.29911 3.29911 1.375 5.6875 1.375Z" fill="white"/>
</svg>
