<svg width="14" height="15" viewBox="0 0 14 15" fill="none" xmlns="http://www.w3.org/2000/svg">
<path d="M13.0431 3.50563C12.957 3.41667 12.8246 3.39129 12.7117 3.44321L12.6639 3.46508C12.6234 3.48375 12.5828 3.50242 12.542 3.52079C12.6607 3.3315 12.7549 3.12908 12.82 2.91967C12.8561 2.80417 12.8167 2.67787 12.7211 2.60321C12.6254 2.52854 12.4936 2.52067 12.39 2.58396C12.0572 2.78608 11.7376 2.93163 11.4071 3.03313C10.9084 2.54925 10.2291 2.25 9.47921 2.25C7.94883 2.25 6.70837 3.49046 6.70837 5.02083C6.70837 5.02229 6.70837 5.08004 6.70837 5.16667L6.417 5.14333C3.58113 4.80792 2.77379 2.90042 2.74025 2.81817C2.686 2.68108 2.56642 2.58104 2.42204 2.551C2.27796 2.52038 2.12833 2.56558 2.02392 2.66971C1.96617 2.72775 1.45838 3.265 1.45838 4.29167C1.45838 5.02317 1.78446 5.61642 2.2065 6.07783C2.00992 5.95796 1.89529 5.86083 1.89237 5.85821C1.75792 5.74096 1.56542 5.71646 1.40558 5.79754C1.24633 5.87892 1.15242 6.04896 1.16846 6.22717C1.174 6.28871 1.29825 7.45596 2.64663 8.33737L2.40075 8.382C2.25171 8.40912 2.12717 8.5115 2.07175 8.65267C2.01663 8.79412 2.03821 8.95367 2.12921 9.075C2.15983 9.11612 2.72946 9.85667 3.96642 10.2825C3.30579 10.5027 2.39813 10.7083 1.31254 10.7083C1.14104 10.7083 0.985 10.8087 0.914125 10.965C0.842958 11.1213 0.870083 11.3048 0.98325 11.4337C1.03021 11.4877 2.16858 12.75 5.10421 12.75C9.97883 12.75 12.25 8.22479 12.25 5.16667V5.02083C12.25 4.97767 12.2454 4.93537 12.2436 4.89279C12.8538 4.30304 13.0833 3.86058 13.0944 3.83871C13.1495 3.72787 13.1291 3.59429 13.0431 3.50563Z" fill="black"/>
</svg>
