<svg width="16" height="20" viewBox="0 0 16 20" fill="none" xmlns="http://www.w3.org/2000/svg">
<path d="M8 0C5.79971 0 4 1.79971 4 4V6H2.25C1.01625 6 0 7.01625 0 8.25V17.75C0 18.9838 1.01625 20 2.25 20H13.75C14.9838 20 16 18.9838 16 17.75V8.25C16 7.01625 14.9838 6 13.75 6H5.5V4C5.5 2.61029 6.61029 1.5 8 1.5C9.32392 1.5 10.3905 2.5127 10.4893 3.80664C10.4967 3.90489 10.5234 4.00072 10.5678 4.08864C10.6123 4.17657 10.6736 4.25488 10.7484 4.3191C10.8231 4.38332 10.9097 4.43219 11.0033 4.46292C11.097 4.49365 11.1957 4.50564 11.294 4.4982C11.3922 4.49076 11.488 4.46404 11.5759 4.41957C11.6639 4.37509 11.7422 4.31373 11.8064 4.23899C11.8706 4.16426 11.9194 4.0776 11.9501 3.98398C11.9808 3.89036 11.9928 3.79161 11.9854 3.69336C11.8281 1.6323 10.0971 0 8 0ZM2.25 7.5H4.62695C4.70747 7.51323 4.7896 7.51323 4.87012 7.5H13.75C14.1732 7.5 14.5 7.82675 14.5 8.25V17.75C14.5 18.1733 14.1732 18.5 13.75 18.5H2.25C1.82675 18.5 1.5 18.1733 1.5 17.75V8.25C1.5 7.82675 1.82675 7.5 2.25 7.5ZM8 11.5C7.60218 11.5 7.22064 11.658 6.93934 11.9393C6.65804 12.2206 6.5 12.6022 6.5 13C6.5 13.3978 6.65804 13.7794 6.93934 14.0607C7.22064 14.342 7.60218 14.5 8 14.5C8.39782 14.5 8.77936 14.342 9.06066 14.0607C9.34196 13.7794 9.5 13.3978 9.5 13C9.5 12.6022 9.34196 12.2206 9.06066 11.9393C8.77936 11.658 8.39782 11.5 8 11.5Z" fill="#A1AABA"/>
</svg>
