<svg width="18" height="18" viewBox="0 0 18 18" fill="none" xmlns="http://www.w3.org/2000/svg">
<path d="M8.99067 5.39997C8.83481 5.40246 8.68603 5.4655 8.57583 5.57575L2.57583 11.5758C2.51825 11.631 2.47227 11.6973 2.4406 11.7705C2.40893 11.8438 2.3922 11.9227 2.39139 12.0025C2.39058 12.0823 2.4057 12.1615 2.43587 12.2354C2.46605 12.3093 2.51066 12.3765 2.56711 12.4329C2.62356 12.4894 2.6907 12.534 2.76461 12.5642C2.83851 12.5943 2.9177 12.6094 2.99752 12.6086C3.07735 12.6078 3.15621 12.5911 3.22948 12.5594C3.30276 12.5277 3.36898 12.4818 3.42427 12.4242L9.00005 6.84841L14.5758 12.4242C14.6311 12.4818 14.6973 12.5277 14.7706 12.5594C14.8439 12.5911 14.9228 12.6078 15.0026 12.6086C15.0824 12.6095 15.1616 12.5943 15.2355 12.5642C15.3094 12.534 15.3765 12.4894 15.433 12.4329C15.4894 12.3765 15.5341 12.3093 15.5642 12.2354C15.5944 12.1615 15.6095 12.0823 15.6087 12.0025C15.6079 11.9227 15.5912 11.8438 15.5595 11.7705C15.5278 11.6973 15.4819 11.631 15.4243 11.5758L9.42427 5.57575C9.36745 5.51891 9.29979 5.47406 9.22531 5.44386C9.15083 5.41367 9.07104 5.39874 8.99067 5.39997Z" fill="#C4C4C4"/>
</svg>
