<svg width="18" height="18" viewBox="0 0 18 18" fill="none" xmlns="http://www.w3.org/2000/svg">
<path d="M14.9942 5.39177C14.8359 5.39551 14.6856 5.46164 14.5758 5.57575L9.00005 11.1515L3.42427 5.57575C3.36835 5.51828 3.30149 5.47259 3.22762 5.44139C3.15375 5.41019 3.07438 5.39412 2.99419 5.39411C2.87483 5.39414 2.75819 5.42977 2.65919 5.49644C2.56018 5.56311 2.48331 5.65779 2.43839 5.76837C2.39348 5.87896 2.38256 6.00043 2.40705 6.11725C2.43153 6.23408 2.49029 6.34094 2.57583 6.42419L8.57583 12.4242C8.68836 12.5367 8.84095 12.5999 9.00005 12.5999C9.15915 12.5999 9.31174 12.5367 9.42427 12.4242L15.4243 6.42419C15.5114 6.3404 15.5712 6.23224 15.5958 6.11389C15.6204 5.99554 15.6088 5.87251 15.5623 5.76091C15.5158 5.64932 15.4367 5.55437 15.3353 5.4885C15.2339 5.42263 15.115 5.38892 14.9942 5.39177V5.39177Z" fill="#C4C4C4"/>
</svg>
