<svg width="19" height="19" viewBox="0 0 19 19" fill="none" xmlns="http://www.w3.org/2000/svg">
<g clip-path="url(#clip0_8_9874)">
<path d="M4.6875 2.75C3.76219 2.75 3 3.51219 3 4.4375V14.5625C3 15.4878 3.76219 16.25 4.6875 16.25H11.8125C11.9617 16.25 12.1047 16.1907 12.2102 16.0852C12.2122 16.0833 12.2141 16.0813 12.2161 16.0793L16.3352 11.9602C16.4407 11.8547 16.5 11.7117 16.5 11.5625V4.4375C16.5 3.51219 15.7378 2.75 14.8125 2.75H4.6875ZM4.6875 3.875H14.8125C15.1299 3.875 15.375 4.12006 15.375 4.4375V11H12.9375C12.0122 11 11.25 11.7622 11.25 12.6875V15.125H4.6875C4.37006 15.125 4.125 14.8799 4.125 14.5625V4.4375C4.125 4.12006 4.37006 3.875 4.6875 3.875ZM6.5625 5.74927C6.48796 5.74821 6.41396 5.76198 6.34479 5.78978C6.27562 5.81757 6.21266 5.85884 6.15958 5.91118C6.1065 5.96352 6.06435 6.02588 6.03557 6.09465C6.0068 6.16342 5.99199 6.23722 5.99199 6.31177C5.99199 6.38631 6.0068 6.46012 6.03557 6.52888C6.06435 6.59765 6.1065 6.66002 6.15958 6.71236C6.21266 6.7647 6.27562 6.80596 6.34479 6.83376C6.41396 6.86155 6.48796 6.87532 6.5625 6.87427H12.9375C13.012 6.87532 13.086 6.86155 13.1552 6.83376C13.2244 6.80596 13.2873 6.7647 13.3404 6.71236C13.3935 6.66002 13.4357 6.59765 13.4644 6.52888C13.4932 6.46012 13.508 6.38631 13.508 6.31177C13.508 6.23722 13.4932 6.16342 13.4644 6.09465C13.4357 6.02588 13.3935 5.96352 13.3404 5.91118C13.2873 5.85884 13.2244 5.81757 13.1552 5.78978C13.086 5.76198 13.012 5.74821 12.9375 5.74927H6.5625ZM6.5625 8.37427C6.48796 8.37321 6.41396 8.38698 6.34479 8.41478C6.27562 8.44257 6.21266 8.48384 6.15958 8.53618C6.1065 8.58852 6.06435 8.65088 6.03557 8.71965C6.0068 8.78842 5.99199 8.86222 5.99199 8.93677C5.99199 9.01131 6.0068 9.08512 6.03557 9.15388C6.06435 9.22265 6.1065 9.28502 6.15958 9.33736C6.21266 9.3897 6.27562 9.43096 6.34479 9.45876C6.41396 9.48655 6.48796 9.50032 6.5625 9.49927H11.4375C11.512 9.50032 11.586 9.48655 11.6552 9.45876C11.7244 9.43096 11.7873 9.3897 11.8404 9.33736C11.8935 9.28502 11.9357 9.22265 11.9644 9.15388C11.9932 9.08512 12.008 9.01131 12.008 8.93677C12.008 8.86222 11.9932 8.78842 11.9644 8.71965C11.9357 8.65088 11.8935 8.58852 11.8404 8.53618C11.7873 8.48384 11.7244 8.44257 11.6552 8.41478C11.586 8.38698 11.512 8.37321 11.4375 8.37427H6.5625ZM12.9375 12.125H14.5796L12.375 14.3296V12.6875C12.375 12.3701 12.6201 12.125 12.9375 12.125Z" fill="#0A80FE"/>
</g>
<defs>
<clipPath id="clip0_8_9874">
<rect width="18" height="18" fill="white" transform="translate(0.75 0.5)"/>
</clipPath>
</defs>
</svg>
