<svg width="18" height="18" viewBox="0 0 18 18" fill="none" xmlns="http://www.w3.org/2000/svg">
<g clip-path="url(#clip0_368_604)">
<path d="M8.99127 2.24177C8.84221 2.2441 8.70017 2.30549 8.59635 2.41247C8.49253 2.51945 8.43542 2.66327 8.43756 2.81232V10.8294L7.14776 9.53962C7.09533 9.48562 7.0326 9.4427 6.96328 9.41339C6.89396 9.38407 6.81946 9.36897 6.7442 9.36897C6.63225 9.36899 6.52286 9.40242 6.43002 9.46497C6.33718 9.52751 6.26511 9.61634 6.22303 9.72007C6.18095 9.82381 6.17078 9.93774 6.19382 10.0473C6.21686 10.1568 6.27206 10.257 6.35235 10.335L8.60235 12.585C8.70785 12.6905 8.8509 12.7497 9.00006 12.7497C9.14922 12.7497 9.29227 12.6905 9.39776 12.585L11.6478 10.335C11.7017 10.2832 11.7448 10.2211 11.7745 10.1524C11.8042 10.0837 11.8199 10.0098 11.8207 9.93496C11.8214 9.86012 11.8073 9.78589 11.779 9.7166C11.7507 9.64731 11.7089 9.58437 11.6559 9.53145C11.603 9.47853 11.5401 9.4367 11.4708 9.40842C11.4015 9.38013 11.3273 9.36595 11.2524 9.36671C11.1776 9.36747 11.1037 9.38316 11.035 9.41285C10.9663 9.44254 10.9042 9.48564 10.8524 9.53962L9.56256 10.8294V2.81232C9.56364 2.73704 9.54959 2.6623 9.52126 2.59254C9.49292 2.52278 9.45087 2.45942 9.39759 2.40621C9.34432 2.35301 9.2809 2.31103 9.21111 2.28279C9.14131 2.25454 9.06655 2.24059 8.99127 2.24177ZM2.80377 11.6168C2.65471 11.6191 2.51267 11.6805 2.40885 11.7875C2.30503 11.8945 2.24792 12.0383 2.25006 12.1873V13.6873C2.25006 14.8197 3.18014 15.7498 4.31256 15.7498H13.6876C14.82 15.7498 15.7501 14.8197 15.7501 13.6873V12.1873C15.7511 12.1128 15.7373 12.0388 15.7095 11.9696C15.6818 11.9004 15.6405 11.8375 15.5881 11.7844C15.5358 11.7313 15.4734 11.6892 15.4047 11.6604C15.3359 11.6316 15.2621 11.6168 15.1876 11.6168C15.113 11.6168 15.0392 11.6316 14.9704 11.6604C14.9017 11.6892 14.8393 11.7313 14.787 11.7844C14.7346 11.8375 14.6934 11.9004 14.6656 11.9696C14.6378 12.0388 14.624 12.1128 14.6251 12.1873V13.6873C14.6251 14.2117 14.2119 14.6248 13.6876 14.6248H4.31256C3.78822 14.6248 3.37506 14.2117 3.37506 13.6873V12.1873C3.37614 12.112 3.36209 12.0373 3.33376 11.9675C3.30542 11.8978 3.26337 11.8344 3.21009 11.7812C3.15682 11.728 3.0934 11.686 3.02361 11.6578C2.95381 11.6295 2.87905 11.6156 2.80377 11.6168Z" fill="#484860"/>
</g>
<defs>
<clipPath id="clip0_368_604">
<rect width="18" height="18" fill="white"/>
</clipPath>
</defs>
</svg>
