<svg width="14" height="15" viewBox="0 0 14 15" fill="none" xmlns="http://www.w3.org/2000/svg">
<path d="M6.99996 1.6665C3.78346 1.6665 1.16663 4.28334 1.16663 7.49984C1.16663 10.4183 3.32321 12.8359 6.12496 13.2603V8.95817H4.95829C4.79729 8.95817 4.66663 8.8278 4.66663 8.6665V7.7915C4.66663 7.63021 4.79729 7.49984 4.95829 7.49984H6.12496V6.4405C6.12496 5.0548 6.83283 4.2915 8.11821 4.2915C8.63913 4.2915 9.05008 4.32767 9.06729 4.32913C9.21779 4.34255 9.33329 4.46855 9.33329 4.61963V5.604C9.33329 5.7653 9.20263 5.89567 9.04163 5.89567H8.45829C8.13658 5.89567 7.87496 6.1573 7.87496 6.479V7.49984H9.04163C9.12533 7.49984 9.20496 7.53571 9.26038 7.59842C9.31579 7.66142 9.34146 7.74484 9.33125 7.82767L9.22188 8.70267C9.2035 8.8485 9.07925 8.95817 8.93225 8.95817H7.87496V13.2603C10.6767 12.8359 12.8333 10.4183 12.8333 7.49984C12.8333 4.28334 10.2165 1.6665 6.99996 1.6665Z" fill="black"/>
</svg>
