<svg width="19" height="18" viewBox="0 0 19 18" fill="none" xmlns="http://www.w3.org/2000/svg">
<g clip-path="url(#clip0_368_600)">
<path d="M4.05591 1.87477C3.90787 1.87652 3.7665 1.93655 3.66243 2.04185C3.55837 2.14715 3.5 2.28923 3.5 2.43727V13.8748C2.87863 13.8748 2.375 14.3784 2.375 14.9998C2.375 15.6211 2.87863 16.1248 3.5 16.1248H4.0625H4.625H14.375H14.9375H15.5C16.1214 16.1248 16.625 15.6211 16.625 14.9998C16.625 14.3784 16.1214 13.8748 15.5 13.8748V2.43727C15.5 2.33547 15.4723 2.23558 15.42 2.14825C15.3677 2.06093 15.2926 1.98943 15.2029 1.9414C15.1131 1.89336 15.012 1.87058 14.9103 1.87549C14.8087 1.88039 14.7102 1.9128 14.6255 1.96925L13.2339 2.8965L11.6643 1.9546C11.5769 1.90219 11.4769 1.87451 11.375 1.87451C11.2731 1.87451 11.1731 1.90219 11.0857 1.9546L9.5 2.90602L7.91431 1.9546C7.82691 1.90219 7.72691 1.87451 7.625 1.87451C7.52309 1.87451 7.42309 1.90219 7.33569 1.9546L5.76611 2.8965L4.37451 1.96925C4.28025 1.90639 4.1692 1.87346 4.05591 1.87477ZM7.625 3.09352L9.21069 4.0442C9.29809 4.09661 9.39809 4.1243 9.5 4.1243C9.60191 4.1243 9.70191 4.09661 9.78931 4.0442L11.375 3.09352L12.9607 4.04494C13.052 4.09965 13.157 4.12732 13.2635 4.12473C13.3699 4.12213 13.4734 4.08939 13.562 4.03029L14.375 3.4883V13.8748V14.9998H4.625V13.8748V3.4883L5.43799 4.03029C5.52656 4.08939 5.63008 4.12213 5.73653 4.12473C5.84297 4.12732 5.94796 4.09965 6.03931 4.04494L7.625 3.09352ZM6.3125 5.99977C6.23796 5.99872 6.16396 6.01249 6.09479 6.04028C6.02562 6.06808 5.96266 6.10934 5.90958 6.16168C5.8565 6.21402 5.81435 6.27638 5.78558 6.34515C5.7568 6.41392 5.74199 6.48772 5.74199 6.56227C5.74199 6.63682 5.7568 6.71062 5.78558 6.77939C5.81435 6.84816 5.8565 6.91052 5.90958 6.96286C5.96266 7.0152 6.02562 7.05646 6.09479 7.08426C6.16396 7.11205 6.23796 7.12582 6.3125 7.12477H12.6875C12.762 7.12582 12.836 7.11205 12.9052 7.08426C12.9744 7.05646 13.0373 7.0152 13.0904 6.96286C13.1435 6.91052 13.1857 6.84816 13.2144 6.77939C13.2432 6.71062 13.258 6.63682 13.258 6.56227C13.258 6.48772 13.2432 6.41392 13.2144 6.34515C13.1857 6.27638 13.1435 6.21402 13.0904 6.16168C13.0373 6.10934 12.9744 6.06808 12.9052 6.04028C12.836 6.01249 12.762 5.99872 12.6875 5.99977H6.3125ZM6.3125 8.99977C6.23796 8.99872 6.16396 9.01249 6.09479 9.04028C6.02562 9.06808 5.96266 9.10934 5.90958 9.16168C5.8565 9.21402 5.81435 9.27638 5.78558 9.34515C5.7568 9.41392 5.74199 9.48773 5.74199 9.56227C5.74199 9.63682 5.7568 9.71062 5.78558 9.77939C5.81435 9.84816 5.8565 9.91052 5.90958 9.96286C5.96266 10.0152 6.02562 10.0565 6.09479 10.0843C6.16396 10.1121 6.23796 10.1258 6.3125 10.1248H9.6875C9.76204 10.1258 9.83604 10.1121 9.90521 10.0843C9.97438 10.0565 10.0373 10.0152 10.0904 9.96286C10.1435 9.91052 10.1857 9.84816 10.2144 9.77939C10.2432 9.71062 10.258 9.63682 10.258 9.56227C10.258 9.48773 10.2432 9.41392 10.2144 9.34515C10.1857 9.27638 10.1435 9.21402 10.0904 9.16168C10.0373 9.10934 9.97438 9.06808 9.90521 9.04028C9.83604 9.01249 9.76204 8.99872 9.6875 8.99977H6.3125ZM11.9375 8.99977C11.863 8.99872 11.789 9.01249 11.7198 9.04028C11.6506 9.06808 11.5877 9.10934 11.5346 9.16168C11.4815 9.21402 11.4393 9.27638 11.4106 9.34515C11.3818 9.41392 11.367 9.48773 11.367 9.56227C11.367 9.63682 11.3818 9.71062 11.4106 9.77939C11.4393 9.84816 11.4815 9.91052 11.5346 9.96286C11.5877 10.0152 11.6506 10.0565 11.7198 10.0843C11.789 10.1121 11.863 10.1258 11.9375 10.1248H12.6875C12.762 10.1258 12.836 10.1121 12.9052 10.0843C12.9744 10.0565 13.0373 10.0152 13.0904 9.96286C13.1435 9.91052 13.1857 9.84816 13.2144 9.77939C13.2432 9.71062 13.258 9.63682 13.258 9.56227C13.258 9.48773 13.2432 9.41392 13.2144 9.34515C13.1857 9.27638 13.1435 9.21402 13.0904 9.16168C13.0373 9.10934 12.9744 9.06808 12.9052 9.04028C12.836 9.01249 12.762 8.99872 12.6875 8.99977H11.9375ZM6.3125 11.2498C6.23796 11.2487 6.16396 11.2625 6.09479 11.2903C6.02562 11.3181 5.96266 11.3593 5.90958 11.4117C5.8565 11.464 5.81435 11.5264 5.78558 11.5952C5.7568 11.6639 5.74199 11.7377 5.74199 11.8123C5.74199 11.8868 5.7568 11.9606 5.78558 12.0294C5.81435 12.0982 5.8565 12.1605 5.90958 12.2129C5.96266 12.2652 6.02562 12.3065 6.09479 12.3343C6.16396 12.3621 6.23796 12.3758 6.3125 12.3748H8.9375C9.01204 12.3758 9.08604 12.3621 9.15521 12.3343C9.22438 12.3065 9.28734 12.2652 9.34042 12.2129C9.3935 12.1605 9.43565 12.0982 9.46443 12.0294C9.4932 11.9606 9.50801 11.8868 9.50801 11.8123C9.50801 11.7377 9.4932 11.6639 9.46443 11.5952C9.43565 11.5264 9.3935 11.464 9.34042 11.4117C9.28734 11.3593 9.22438 11.3181 9.15521 11.2903C9.08604 11.2625 9.01204 11.2487 8.9375 11.2498H6.3125ZM11.9375 11.2498C11.863 11.2487 11.789 11.2625 11.7198 11.2903C11.6506 11.3181 11.5877 11.3593 11.5346 11.4117C11.4815 11.464 11.4393 11.5264 11.4106 11.5952C11.3818 11.6639 11.367 11.7377 11.367 11.8123C11.367 11.8868 11.3818 11.9606 11.4106 12.0294C11.4393 12.0982 11.4815 12.1605 11.5346 12.2129C11.5877 12.2652 11.6506 12.3065 11.7198 12.3343C11.789 12.3621 11.863 12.3758 11.9375 12.3748H12.6875C12.762 12.3758 12.836 12.3621 12.9052 12.3343C12.9744 12.3065 13.0373 12.2652 13.0904 12.2129C13.1435 12.1605 13.1857 12.0982 13.2144 12.0294C13.2432 11.9606 13.258 11.8868 13.258 11.8123C13.258 11.7377 13.2432 11.6639 13.2144 11.5952C13.1857 11.5264 13.1435 11.464 13.0904 11.4117C13.0373 11.3593 12.9744 11.3181 12.9052 11.2903C12.836 11.2625 12.762 11.2487 12.6875 11.2498H11.9375Z" fill="white"/>
</g>
<defs>
<clipPath id="clip0_368_600">
<rect width="18" height="18" fill="white" transform="translate(0.5)"/>
</clipPath>
</defs>
</svg>
