<svg width="48" height="48" viewBox="0 0 48 48" fill="none" xmlns="http://www.w3.org/2000/svg">
<path d="M9.50006 6C7.03256 6 5.00006 8.0325 5.00006 10.5V13.5V25.2539C4.97361 25.4149 4.97361 25.5792 5.00006 25.7402V38.5C5.00006 40.415 6.58511 42 8.50006 42H17.9551C19.5136 42 20.8973 40.953 21.3223 39.4531L24.0704 29.7539L27.129 39.5449C27.584 40.999 28.9455 42 30.4708 42H39.5001C41.415 42 43.0001 40.415 43.0001 38.5V25.7461C43.0265 25.5851 43.0265 25.4208 43.0001 25.2598V13.5V10.5C43.0001 8.0325 40.9676 6 38.5001 6H9.50006ZM9.50006 9H38.5001C39.3466 9 40.0001 9.6535 40.0001 10.5V12H8.00006V10.5C8.00006 9.6535 8.65356 9 9.50006 9ZM8.00006 15H14.8829C14.2914 19.5893 12.2954 21.7133 10.3731 22.8262C9.48334 23.3413 8.68116 23.5684 8.00006 23.7305V15ZM17.92 15H30.0801C30.7072 20.652 33.4554 23.8793 36.1231 25.4238C37.623 26.2922 38.9757 26.6489 40.0001 26.8242V38.5C40.0001 38.795 39.7951 39 39.5001 39H30.4708C30.2461 39 30.0592 38.8624 29.9923 38.6484L25.4317 24.0527C25.3352 23.7444 25.1418 23.4755 24.8801 23.2859C24.6185 23.0964 24.3027 22.9964 23.9796 23.0008C23.6566 23.0052 23.3436 23.1137 23.0872 23.3103C22.8309 23.5069 22.6448 23.781 22.5567 24.0918L18.4376 38.6367C18.3746 38.8588 18.1847 39 17.9551 39H8.50006C8.20502 39 8.00006 38.795 8.00006 38.5V26.8242C9.02441 26.6489 10.3771 26.2922 11.877 25.4238C14.5448 23.8793 17.2929 20.652 17.92 15ZM33.1173 15H40.0001V23.7305C39.319 23.5684 38.5168 23.3413 37.627 22.8262C35.7047 21.7133 33.7087 19.5893 33.1173 15Z" fill="#C0C3C8"/>
</svg>
