<svg width="36" height="36" viewBox="0 0 36 36" fill="none" xmlns="http://www.w3.org/2000/svg">
<rect x="0.5" y="0.5" width="35" height="35" rx="5.5" fill="#FEF6FA"/>
<path d="M22.4895 11.9948C22.4168 11.9971 22.3455 12.0151 22.2805 12.0477C22.2155 12.0803 22.1584 12.1267 22.1132 12.1836L13.1132 23.1836C13.0686 23.234 13.0345 23.2929 13.0132 23.3568C12.9919 23.4206 12.9837 23.4881 12.989 23.5552C12.9944 23.6223 13.0133 23.6877 13.0445 23.7473C13.0758 23.8069 13.1187 23.8596 13.1708 23.9023C13.2229 23.9449 13.2831 23.9766 13.3477 23.9954C13.4124 24.0142 13.4802 24.0198 13.547 24.0117C13.6138 24.0037 13.6784 23.9823 13.7367 23.9487C13.7951 23.9152 13.8461 23.8702 13.8866 23.8164L22.8866 12.8164C22.9487 12.7426 22.9881 12.6524 23.0001 12.5567C23.012 12.461 22.9961 12.3639 22.9541 12.2771C22.9121 12.1902 22.8459 12.1174 22.7635 12.0673C22.6811 12.0172 22.5859 11.9921 22.4895 11.9948V11.9948ZM14.4999 12.3334C13.3097 12.3334 12.3333 13.3099 12.3333 14.5V15.8334C12.3333 17.0236 13.3097 18 14.4999 18C15.6901 18 16.6666 17.0236 16.6666 15.8334V14.5C16.6666 13.3099 15.6901 12.3334 14.4999 12.3334ZM14.4999 13.3334C15.1477 13.3334 15.6666 13.8522 15.6666 14.5V15.8334C15.6666 16.4812 15.1477 17 14.4999 17C13.8521 17 13.3333 16.4812 13.3333 15.8334V14.5C13.3333 13.8522 13.8521 13.3334 14.4999 13.3334ZM21.4999 18C20.3097 18 19.3333 18.9765 19.3333 20.1667V21.5C19.3333 22.6902 20.3097 23.6667 21.4999 23.6667C22.6901 23.6667 23.6666 22.6902 23.6666 21.5V20.1667C23.6666 18.9765 22.6901 18 21.4999 18ZM21.4999 19C22.1477 19 22.6666 19.5189 22.6666 20.1667V21.5C22.6666 22.1479 22.1477 22.6667 21.4999 22.6667C20.8521 22.6667 20.3333 22.1479 20.3333 21.5V20.1667C20.3333 19.5189 20.8521 19 21.4999 19Z" fill="#FF5757"/>
<rect x="0.5" y="0.5" width="35" height="35" rx="5.5" stroke="#FF5757"/>
</svg>
