<svg width="18" height="18" viewBox="0 0 18 18" fill="none" xmlns="http://www.w3.org/2000/svg">
<g clip-path="url(#clip0_368_813)">
<path d="M6.1875 1.875C5.26219 1.875 4.5 2.63719 4.5 3.5625V4.125H3.9375C2.59802 4.125 1.5 5.22302 1.5 6.5625V11.8125C1.5 12.7378 2.26219 13.5 3.1875 13.5H4.5V14.4375C4.5 15.3628 5.26219 16.125 6.1875 16.125H11.8125C12.7378 16.125 13.5 15.3628 13.5 14.4375V13.5H14.8125C15.7378 13.5 16.5 12.7378 16.5 11.8125V6.5625C16.5 5.22302 15.402 4.125 14.0625 4.125H13.5V3.5625C13.5 2.63719 12.7378 1.875 11.8125 1.875H6.1875ZM6.1875 3H11.8125C12.1299 3 12.375 3.24506 12.375 3.5625V4.125H5.625V3.5625C5.625 3.24506 5.87006 3 6.1875 3ZM3.9375 5.25H14.0625C14.7938 5.25 15.375 5.83123 15.375 6.5625V11.8125C15.375 12.1299 15.1299 12.375 14.8125 12.375H13.5V11.0625C13.5 10.1372 12.7378 9.375 11.8125 9.375H6.1875C5.26219 9.375 4.5 10.1372 4.5 11.0625V12.375H3.1875C2.87006 12.375 2.625 12.1299 2.625 11.8125V6.5625C2.625 5.83123 3.20623 5.25 3.9375 5.25ZM6.1875 10.5H11.8125C12.1299 10.5 12.375 10.7451 12.375 11.0625V14.4375C12.375 14.7549 12.1299 15 11.8125 15H6.1875C5.87006 15 5.625 14.7549 5.625 14.4375V11.0625C5.625 10.7451 5.87006 10.5 6.1875 10.5Z" fill="white"/>
</g>
<defs>
<clipPath id="clip0_368_813">
<rect width="18" height="18" fill="white"/>
</clipPath>
</defs>
</svg>
