<svg width="25" height="24" viewBox="0 0 25 24" fill="none" xmlns="http://www.w3.org/2000/svg">
<g clip-path="url(#clip0_129_325)">
<path d="M6.99994 3C5.21397 3 3.74994 4.46403 3.74994 6.25V10.75C3.74853 10.8494 3.7669 10.9481 3.80396 11.0403C3.84102 11.1325 3.89604 11.2164 3.96582 11.2872C4.0356 11.358 4.11876 11.4142 4.21045 11.4526C4.30214 11.4909 4.40055 11.5107 4.49994 11.5107C4.59933 11.5107 4.69774 11.4909 4.78943 11.4526C4.88112 11.4142 4.96428 11.358 5.03406 11.2872C5.10384 11.2164 5.15886 11.1325 5.19592 11.0403C5.23298 10.9481 5.25135 10.8494 5.24994 10.75V6.25C5.24994 5.27497 6.02491 4.5 6.99994 4.5H18.4999C19.475 4.5 20.2499 5.27497 20.2499 6.25V17.75C20.2499 18.725 19.475 19.5 18.4999 19.5H6.99994C6.02491 19.5 5.24994 18.725 5.24994 17.75C5.25135 17.6506 5.23298 17.5519 5.19592 17.4597C5.15886 17.3675 5.10384 17.2836 5.03406 17.2128C4.96428 17.142 4.88112 17.0858 4.78943 17.0474C4.69774 17.0091 4.59933 16.9893 4.49994 16.9893C4.40055 16.9893 4.30214 17.0091 4.21045 17.0474C4.11876 17.0858 4.0356 17.142 3.96582 17.2128C3.89604 17.2836 3.84102 17.3675 3.80396 17.4597C3.7669 17.5519 3.74853 17.6506 3.74994 17.75C3.74994 19.536 5.21397 21 6.99994 21H18.4999C20.2859 21 21.7499 19.536 21.7499 17.75V6.25C21.7499 4.46403 20.2859 3 18.4999 3H6.99994ZM10.9882 5.98926C10.7895 5.99236 10.6001 6.07423 10.4617 6.21686C10.3232 6.3595 10.2471 6.55125 10.2499 6.75V7.5H9.49994C9.40056 7.49859 9.30188 7.51696 9.20966 7.55402C9.11743 7.59108 9.03349 7.6461 8.96271 7.71588C8.89194 7.78566 8.83573 7.86882 8.79737 7.96051C8.75901 8.0522 8.73926 8.15061 8.73926 8.25C8.73926 8.34939 8.75901 8.4478 8.79737 8.53949C8.83573 8.63118 8.89194 8.71434 8.96271 8.78412C9.03349 8.8539 9.11743 8.90892 9.20966 8.94598C9.30188 8.98304 9.40056 9.00141 9.49994 9H10.2499V9.75C10.2485 9.84938 10.2669 9.94806 10.304 10.0403C10.341 10.1325 10.396 10.2164 10.4658 10.2872C10.5356 10.358 10.6188 10.4142 10.7105 10.4526C10.8021 10.4909 10.9005 10.5107 10.9999 10.5107C11.0993 10.5107 11.1977 10.4909 11.2894 10.4526C11.3811 10.4142 11.4643 10.358 11.5341 10.2872C11.6038 10.2164 11.6589 10.1325 11.6959 10.0403C11.733 9.94806 11.7513 9.84938 11.7499 9.75V9H12.4999C12.5993 9.00141 12.698 8.98304 12.7902 8.94598C12.8824 8.90892 12.9664 8.8539 13.0372 8.78412C13.1079 8.71434 13.1641 8.63118 13.2025 8.53949C13.2409 8.4478 13.2606 8.34939 13.2606 8.25C13.2606 8.15061 13.2409 8.0522 13.2025 7.96051C13.1641 7.86882 13.1079 7.78566 13.0372 7.71588C12.9664 7.6461 12.8824 7.59108 12.7902 7.55402C12.698 7.51696 12.5993 7.49859 12.4999 7.5H11.7499V6.75C11.7514 6.64962 11.7327 6.54997 11.6949 6.45695C11.6571 6.36394 11.601 6.27946 11.53 6.20852C11.459 6.13757 11.3744 6.08161 11.2813 6.04395C11.1883 6.00629 11.0886 5.98769 10.9882 5.98926ZM5.98822 11.9893C5.78948 11.9924 5.6001 12.0742 5.46167 12.2169C5.32324 12.3595 5.24709 12.5513 5.24994 12.75V13.5H4.49994C4.40056 13.4986 4.30188 13.517 4.20966 13.554C4.11743 13.5911 4.03349 13.6461 3.96271 13.7159C3.89194 13.7857 3.83573 13.8688 3.79737 13.9605C3.75901 14.0522 3.73926 14.1506 3.73926 14.25C3.73926 14.3494 3.75901 14.4478 3.79737 14.5395C3.83573 14.6312 3.89194 14.7143 3.96271 14.7841C4.03349 14.8539 4.11743 14.9089 4.20966 14.946C4.30188 14.983 4.40056 15.0014 4.49994 15H5.24994V15.75C5.24853 15.8494 5.2669 15.9481 5.30396 16.0403C5.34102 16.1325 5.39604 16.2164 5.46582 16.2872C5.5356 16.358 5.61876 16.4142 5.71045 16.4526C5.80214 16.4909 5.90055 16.5107 5.99994 16.5107C6.09933 16.5107 6.19774 16.4909 6.28943 16.4526C6.38112 16.4142 6.46428 16.358 6.53406 16.2872C6.60384 16.2164 6.65886 16.1325 6.69592 16.0403C6.73298 15.9481 6.75135 15.8494 6.74994 15.75V15H7.49994C7.59932 15.0014 7.698 14.983 7.79022 14.946C7.88245 14.9089 7.96639 14.8539 8.03717 14.7841C8.10794 14.7143 8.16415 14.6312 8.20251 14.5395C8.24087 14.4478 8.26062 14.3494 8.26062 14.25C8.26062 14.1506 8.24087 14.0522 8.20251 13.9605C8.16415 13.8688 8.10794 13.7857 8.03717 13.7159C7.96639 13.6461 7.88245 13.5911 7.79022 13.554C7.698 13.517 7.59932 13.4986 7.49994 13.5H6.74994V12.75C6.75138 12.6496 6.73265 12.55 6.69487 12.457C6.65709 12.3639 6.60102 12.2795 6.52998 12.2085C6.45895 12.1376 6.3744 12.0816 6.28134 12.044C6.18828 12.0063 6.0886 11.9877 5.98822 11.9893ZM16.4882 12.9893C16.2895 12.9924 16.1001 13.0742 15.9617 13.2169C15.8232 13.3595 15.7471 13.5513 15.7499 13.75V14.5H14.9999C14.9006 14.4986 14.8019 14.517 14.7097 14.554C14.6174 14.5911 14.5335 14.6461 14.4627 14.7159C14.3919 14.7857 14.3357 14.8688 14.2974 14.9605C14.259 15.0522 14.2393 15.1506 14.2393 15.25C14.2393 15.3494 14.259 15.4478 14.2974 15.5395C14.3357 15.6312 14.3919 15.7143 14.4627 15.7841C14.5335 15.8539 14.6174 15.9089 14.7097 15.946C14.8019 15.983 14.9006 16.0014 14.9999 16H15.7499V16.75C15.7485 16.8494 15.7669 16.9481 15.804 17.0403C15.841 17.1325 15.896 17.2164 15.9658 17.2872C16.0356 17.358 16.1188 17.4142 16.2105 17.4526C16.3021 17.4909 16.4005 17.5107 16.4999 17.5107C16.5993 17.5107 16.6977 17.4909 16.7894 17.4526C16.8811 17.4142 16.9643 17.358 17.0341 17.2872C17.1038 17.2164 17.1589 17.1325 17.1959 17.0403C17.233 16.9481 17.2513 16.8494 17.2499 16.75V16H17.9999C18.0993 16.0014 18.198 15.983 18.2902 15.946C18.3824 15.9089 18.4664 15.8539 18.5372 15.7841C18.6079 15.7143 18.6641 15.6312 18.7025 15.5395C18.7409 15.4478 18.7606 15.3494 18.7606 15.25C18.7606 15.1506 18.7409 15.0522 18.7025 14.9605C18.6641 14.8688 18.6079 14.7857 18.5372 14.7159C18.4664 14.6461 18.3824 14.5911 18.2902 14.554C18.198 14.517 18.0993 14.4986 17.9999 14.5H17.2499V13.75C17.2514 13.6496 17.2327 13.55 17.1949 13.457C17.1571 13.3639 17.101 13.2795 17.03 13.2085C16.959 13.1376 16.8744 13.0816 16.7813 13.044C16.6883 13.0063 16.5886 12.9877 16.4882 12.9893Z" fill="#484860"/>
</g>
<defs>
<clipPath id="clip0_129_325">
<rect width="24" height="24" fill="white" transform="translate(0.75)"/>
</clipPath>
</defs>
</svg>
