<svg width="48" height="48" viewBox="0 0 48 48" fill="none" xmlns="http://www.w3.org/2000/svg">
<g clip-path="url(#clip0_8_10101)">
<path d="M42 24.1379L41.7241 24.2562L41.7833 24.2365L42 24.1379C41.3104 22.5517 40.6108 20.9458 40.1773 19.1429C39.7734 17.468 39.2808 15.9015 38.7094 14.4532C40.0591 14.0197 41.064 12.8571 41.064 11.4384C41.064 9.64533 39.4581 8.23646 37.5567 8.23646H35.1429C33.5764 6.4138 31.7636 5.15271 29.7241 4.51232C28.4434 4.11823 25.9409 3.95074 23.4778 4.00986C22.2365 4.03941 20.9951 4.12808 19.9113 4.27587C18.8276 4.42365 17.8818 4.63055 17.2315 4.90641C15.6158 5.60592 14.1478 6.72907 12.8572 8.23646H10.4434C8.54188 8.23646 6.93597 9.64533 6.93597 11.4384C6.93597 12.8473 7.94089 14.0197 9.29065 14.4532C8.71922 15.9113 8.22661 17.468 7.82267 19.1429C7.38917 20.9458 6.68966 22.5517 6.00001 24.1379C4.83745 26.8177 3.69459 29.4187 4.06897 32.6108C4.22661 33.9803 4.57144 34.9754 5.00493 35.803C5.43843 36.6207 5.97045 37.2512 6.49262 37.8719C7.46799 39.0345 8.46306 40.2069 9.15272 43.0542C9.15272 43.0542 9.17242 43.1133 9.18227 43.1429L9.46799 43.0542L9.19213 43.1527L9.21183 43.202V43.2118V43.2414L9.49754 43.133L9.22168 43.2414L9.23153 43.2808C9.33006 43.4877 9.48769 43.6552 9.65518 43.7734C9.65518 43.7734 9.71429 43.8128 9.734 43.8227H9.7537V43.8325L9.89163 43.5764L9.7537 43.8424L9.78326 43.8621L9.81282 43.8818C9.99016 43.9606 10.1872 44.0099 10.3941 44.0099C10.4631 44.0099 10.532 44.0099 10.601 43.9902H10.6404H10.67L10.6207 43.734L10.67 43.9803H10.7094C10.8276 43.9507 23.9704 40.798 37.1232 43.9803C37.3399 44.0394 37.5665 44.0493 37.7931 43.9902C38.0493 43.931 38.2759 43.8128 38.4532 43.6355L38.4729 43.6158L38.4926 43.5862L38.2759 43.3892L38.5025 43.5862C38.6108 43.4581 38.6995 43.3104 38.7488 43.1429L38.4631 43.0542H38.5025L38.7389 43.1429C38.7389 43.1429 38.7488 43.0936 38.7586 43.064C39.4384 40.2365 40.4335 39.0542 41.4089 37.9015C42.4237 36.6897 43.5172 35.399 43.8325 32.6503L43.537 32.6108L43.8325 32.6404C44.2069 29.4483 43.064 26.8473 41.9015 24.1675L42 24.1379ZM18.3547 7.12316C18.798 6.93597 19.5468 6.77833 20.4828 6.6601C21.4187 6.55173 22.5025 6.48276 23.5961 6.45321C24.6897 6.4335 25.7833 6.45321 26.7192 6.52217C27.665 6.59114 28.4335 6.69951 28.8867 6.83744C29.803 7.12316 30.6798 7.60592 31.5074 8.24631H16.4828C17.0838 7.7734 17.7044 7.39902 18.3547 7.12316ZM12.9261 32.2857C12.6108 29.4778 12.6305 28.069 12.8473 27.3104C12.9557 26.9458 13.1035 26.7389 13.2709 26.601C13.4581 26.4434 13.6847 26.3448 14.0099 26.2069C14.7488 25.8916 15.7044 25.4877 16.7389 24.5123C17.7636 23.537 18.8374 22.0099 19.8818 19.468C20.5911 18.4039 22.1478 17.7044 24.0197 17.7044C25.8916 17.7044 27.4384 18.4039 28.1576 19.468C29.1921 22.0099 30.2759 23.537 31.3005 24.5123C32.335 25.4975 33.2906 25.9015 34.0296 26.2069C34.3547 26.3448 34.5813 26.4434 34.7685 26.601C34.9458 26.7488 35.0936 26.9458 35.1921 27.3104C35.4089 28.0788 35.4187 29.4877 35.1133 32.2857C34.6995 36.0493 34.7685 38.9754 35.3301 41.0542C25.8424 39.2808 16.9557 40.3448 12.7291 41.0838C13.3005 39.0049 13.3695 36.0591 12.9557 32.2857H12.9261ZM39.4286 36.3645C38.8571 37.0443 38.1971 37.8325 37.5764 38.9852C37.3793 37.3202 37.4187 35.133 37.7044 32.532C38.0493 29.3892 38.0394 27.5074 37.6059 26.2857C37.1626 25.0148 36.2759 24.4828 35.0936 23.9803C34.4828 23.7241 33.803 23.4286 33.0443 22.6798C32.2857 21.9212 31.4384 20.6798 30.5616 18.4926L30.2956 18.601L30.5714 18.4926C30.5419 18.4237 30.5123 18.3645 30.4729 18.3054C29.2808 16.4039 26.7882 15.2611 24.0099 15.2611C21.2315 15.2611 18.7488 16.4039 17.5567 18.3054C17.5172 18.3645 17.4877 18.4237 17.4581 18.4926L17.734 18.601L17.468 18.4926C16.5911 20.6798 15.7438 21.9212 14.9852 22.6798C14.2266 23.4286 13.5468 23.7241 12.936 23.9803C11.7537 24.4828 10.867 25.0049 10.4237 26.2857C9.99016 27.5074 9.9803 29.3892 10.3251 32.532C10.6108 35.133 10.6503 37.3202 10.4532 38.9852C9.84237 37.8325 9.17242 37.0443 8.60099 36.3645C8.12809 35.7931 7.71429 35.3202 7.39902 34.7192C7.08375 34.1281 6.83745 33.399 6.71922 32.3547C6.4138 29.803 7.34976 27.6453 8.47291 25.064L8.27587 24.9754L8.19705 24.9458L8.47291 25.064C9.19213 23.4187 9.94089 21.6946 10.4237 19.6847C10.8572 17.8621 11.4089 16.1773 12.0493 14.6601H36.0099C36.6503 16.1773 37.202 17.8621 37.6355 19.6847C38.1182 21.6946 38.867 23.4187 39.5862 25.064C40.7094 27.6552 41.6453 29.803 41.3399 32.3547C41.2217 33.399 40.9754 34.1281 40.6601 34.7192C40.335 35.3202 39.931 35.803 39.4581 36.3744L39.6355 36.5222L39.6847 36.5616L39.4581 36.3744L39.4286 36.3645ZM37.5567 10.6798C38.069 10.6798 38.4335 11.0443 38.4335 11.4384C38.4335 11.8325 38.069 12.197 37.5567 12.197H10.4434C9.93104 12.197 9.56651 11.8325 9.56651 11.4384C9.56651 11.0443 9.93104 10.6798 10.4434 10.6798H13.4975H13.5271H34.4729V10.3842H34.5222V10.6798H37.5567Z" fill="#C0C3C8"/>
</g>
<defs>
<clipPath id="clip0_8_10101">
<rect width="48" height="48" fill="white"/>
</clipPath>
</defs>
</svg>
