<svg width="19" height="19" viewBox="0 0 19 19" fill="none" xmlns="http://www.w3.org/2000/svg">
<g clip-path="url(#clip0_8_9886)">
<path d="M9.75 2C5.61461 2 2.25 5.36461 2.25 9.5C2.25 13.6354 5.61461 17 9.75 17C13.8854 17 17.25 13.6354 17.25 9.5C17.25 5.36461 13.8854 2 9.75 2ZM9.75 3.125C13.2774 3.125 16.125 5.97264 16.125 9.5C16.125 13.0274 13.2774 15.875 9.75 15.875C6.22264 15.875 3.375 13.0274 3.375 9.5C3.375 5.97264 6.22264 3.125 9.75 3.125ZM7.875 6.5C7.46063 6.5 7.125 6.83563 7.125 7.25V11.75C7.125 12.1644 7.46063 12.5 7.875 12.5C8.28937 12.5 8.625 12.1644 8.625 11.75V7.25C8.625 6.83563 8.28937 6.5 7.875 6.5ZM11.625 6.5C11.2106 6.5 10.875 6.83563 10.875 7.25V11.75C10.875 12.1644 11.2106 12.5 11.625 12.5C12.0394 12.5 12.375 12.1644 12.375 11.75V7.25C12.375 6.83563 12.0394 6.5 11.625 6.5Z" fill="#4BC49A"/>
</g>
<defs>
<clipPath id="clip0_8_9886">
<rect width="18" height="18" fill="white" transform="translate(0.75 0.5)"/>
</clipPath>
</defs>
</svg>
