<svg width="48" height="48" viewBox="0 0 48 48" fill="none" xmlns="http://www.w3.org/2000/svg">
<g clip-path="url(#clip0_8_10117)">
<path d="M13.498 3C13.1492 3.0002 12.8112 3.122 12.5425 3.34444C12.2737 3.56688 12.0908 3.87605 12.0254 4.21875C12.0254 4.21875 10.998 9.54384 10.998 14.5723C10.998 22.8295 12.791 43.627 12.791 43.627C12.8229 44.0014 12.994 44.3502 13.2707 44.6044C13.5474 44.8587 13.9094 44.9998 14.2852 45H21.4277C21.788 45 22.1362 44.8703 22.4088 44.6347C22.6814 44.3991 22.86 44.0733 22.9121 43.7168L24.998 29.3984L27.084 43.7168C27.1361 44.0733 27.3147 44.3991 27.5873 44.6347C27.8598 44.8703 28.2081 45 28.5684 45H35.7109C36.0851 44.9995 36.4456 44.8592 36.7217 44.6067C36.9978 44.3541 37.1695 44.0074 37.2031 43.6348C37.2031 43.6348 39.0953 22.8549 38.9961 14.5547C38.9357 9.44793 37.4453 4.10352 37.4453 4.10352C37.3584 3.78638 37.1696 3.5066 36.9081 3.30722C36.6466 3.10783 36.3269 2.99989 35.998 3H13.498ZM14.7852 6H20.0254C19.9679 9.21461 18.0064 12.0822 15.0117 13.2793L14.0273 13.6738C14.1046 10.3158 14.561 7.31883 14.7852 6ZM23.0312 6H27.0234C27.4196 10.0536 30.0386 13.6052 33.875 15.1387L35.9375 15.9648C35.9511 15.9703 35.9648 15.9755 35.9785 15.9805C35.8996 23.9043 34.5123 39.8852 34.3262 42H29.8652L26.4824 18.7832C26.4289 18.4281 26.2498 18.104 25.9776 17.8697C25.7054 17.6354 25.3581 17.5066 24.999 17.5066C24.6399 17.5066 24.2927 17.6354 24.0205 17.8697C23.7483 18.104 23.5691 18.4281 23.5156 18.7832L20.1289 42H15.6719C15.5006 39.9575 14.2696 25.112 14.0449 16.8965C14.0488 16.8952 14.0527 16.8939 14.0566 16.8926L16.125 16.0645C20.251 14.4152 22.9736 10.4335 23.0312 6ZM30.0469 6H34.7988C35.0752 7.11685 35.681 9.7286 35.9062 12.7207L34.9883 12.3535V12.3516C32.2847 11.2709 30.4267 8.82917 30.0469 6Z" fill="#C0C3C8"/>
</g>
<defs>
<clipPath id="clip0_8_10117">
<rect width="48" height="48" fill="white"/>
</clipPath>
</defs>
</svg>
