<svg width="14" height="14" viewBox="0 0 14 14" fill="none" xmlns="http://www.w3.org/2000/svg">
<path d="M6.99127 0.241768C6.84221 0.244097 6.70017 0.305493 6.59635 0.412473C6.49253 0.519452 6.43542 0.663265 6.43756 0.812325V8.82941L5.14776 7.53962C5.09533 7.48562 5.0326 7.4427 4.96328 7.41339C4.89396 7.38407 4.81946 7.36897 4.7442 7.36897C4.63225 7.36899 4.52286 7.40242 4.43002 7.46497C4.33718 7.52751 4.26511 7.61634 4.22303 7.72007C4.18095 7.82381 4.17078 7.93774 4.19382 8.04729C4.21686 8.15684 4.27206 8.25703 4.35235 8.33503L6.60235 10.585C6.70785 10.6905 6.8509 10.7497 7.00006 10.7497C7.14922 10.7497 7.29227 10.6905 7.39776 10.585L9.64776 8.33503C9.70175 8.2832 9.74485 8.22112 9.77454 8.15242C9.80423 8.08372 9.81991 8.00979 9.82067 7.93496C9.82143 7.86012 9.80725 7.78589 9.77897 7.7166C9.75068 7.64731 9.70885 7.58437 9.65593 7.53145C9.60301 7.47853 9.54007 7.4367 9.47078 7.40842C9.4015 7.38013 9.32726 7.36595 9.25243 7.36671C9.17759 7.36747 9.10366 7.38316 9.03496 7.41285C8.96627 7.44254 8.90418 7.48564 8.85235 7.53962L7.56256 8.82941V0.812325C7.56364 0.737037 7.54959 0.6623 7.52126 0.59254C7.49292 0.522781 7.45087 0.45942 7.39759 0.406213C7.34432 0.353006 7.2809 0.311035 7.21111 0.282787C7.14131 0.25454 7.06655 0.240591 6.99127 0.241768ZM0.803769 9.61677C0.654712 9.6191 0.512675 9.68049 0.408854 9.78747C0.305033 9.89445 0.24792 10.0383 0.250058 10.1873V11.6873C0.250058 12.8197 1.18014 13.7498 2.31256 13.7498H11.6876C12.82 13.7498 13.7501 12.8197 13.7501 11.6873V10.1873C13.7511 10.1128 13.7373 10.0388 13.7095 9.96961C13.6818 9.90044 13.6405 9.83749 13.5881 9.7844C13.5358 9.73132 13.4734 9.68917 13.4047 9.6604C13.3359 9.63163 13.2621 9.61681 13.1876 9.61681C13.113 9.61681 13.0392 9.63163 12.9704 9.6604C12.9017 9.68917 12.8393 9.73132 12.787 9.7844C12.7346 9.83749 12.6934 9.90044 12.6656 9.96961C12.6378 10.0388 12.624 10.1128 12.6251 10.1873V11.6873C12.6251 12.2117 12.2119 12.6248 11.6876 12.6248H2.31256C1.78822 12.6248 1.37506 12.2117 1.37506 11.6873V10.1873C1.37614 10.112 1.36209 10.0373 1.33376 9.96754C1.30542 9.89778 1.26337 9.83442 1.21009 9.78121C1.15682 9.72801 1.0934 9.68604 1.02361 9.65779C0.95381 9.62954 0.879055 9.61559 0.803769 9.61677Z" fill="#484860"/>
</svg>
