<svg width="16" height="16" viewBox="0 0 16 16" fill="none" xmlns="http://www.w3.org/2000/svg">
<path d="M12.5 0.878906C11.827 0.878906 11.1541 1.13405 10.644 1.64429L2.34351 9.94409C2.18602 10.1016 2.07068 10.2974 2.00953 10.5125L0.896978 14.4082C0.86954 14.5046 0.868355 14.6066 0.893545 14.7036C0.918735 14.8006 0.969386 14.8891 1.04026 14.96C1.11113 15.0309 1.19965 15.0815 1.29666 15.1067C1.39367 15.1319 1.49565 15.1307 1.59205 15.1033L5.48853 13.9907L5.48926 13.99C5.70283 13.9286 5.89821 13.8147 6.05616 13.6567L14.356 5.3562C15.3764 4.33578 15.3764 2.66471 14.356 1.64429C13.846 1.13405 13.173 0.878906 12.5 0.878906ZM12.5 1.99731C12.8828 1.99731 13.2651 2.14481 13.5598 2.4397H13.5606C14.1511 3.03028 14.1511 3.97021 13.5606 4.56079L12.8333 5.28809L10.7122 3.16699L11.4395 2.4397C11.7342 2.14481 12.1172 1.99731 12.5 1.99731ZM9.91675 3.9624L12.0378 6.0835L5.26002 12.8613C5.23803 12.8832 5.21018 12.8999 5.17872 12.9089L2.25635 13.7439L3.09131 10.8208V10.8201C3.09991 10.7898 3.11566 10.7628 3.13892 10.7395L9.91675 3.9624Z" fill="#484860"/>
</svg>
