<svg width="20" height="20" viewBox="0 0 20 20" fill="none" xmlns="http://www.w3.org/2000/svg">
<path d="M2.74121 0.499856C2.54383 0.502189 2.35533 0.582233 2.21658 0.722631C2.07782 0.863029 2.00001 1.05246 2 1.24986V16.4999C1.1715 16.4999 0.5 17.1714 0.5 17.9999C0.5 18.8284 1.1715 19.4999 2 19.4999H2.75H3.5H16.5H17.25H18C18.8285 19.4999 19.5 18.8284 19.5 17.9999C19.5 17.1714 18.8285 16.4999 18 16.4999V1.24986C18 1.11412 17.9631 0.980935 17.8933 0.864499C17.8236 0.748063 17.7235 0.652741 17.6038 0.588693C17.4842 0.524645 17.3494 0.494273 17.2138 0.500813C17.0782 0.507354 16.9469 0.550563 16.834 0.625833L14.9785 1.86216L12.8857 0.606302C12.7692 0.536423 12.6359 0.499512 12.5 0.499512C12.3641 0.499512 12.2308 0.536423 12.1143 0.606302L10 1.87486L7.88574 0.606302C7.76921 0.536423 7.63588 0.499512 7.5 0.499512C7.36412 0.499512 7.23079 0.536423 7.11426 0.606302L5.02148 1.86216L3.16602 0.625833C3.04033 0.542021 2.89227 0.498112 2.74121 0.499856ZM7.5 2.12486L9.61426 3.39243C9.73079 3.46231 9.86412 3.49922 10 3.49922C10.1359 3.49922 10.2692 3.46231 10.3857 3.39243L12.5 2.12486L14.6143 3.39341C14.736 3.46636 14.876 3.50326 15.018 3.4998C15.1599 3.49634 15.2979 3.45268 15.416 3.37388L16.5 2.65122V16.4999V17.9999H3.5V16.4999V2.65122L4.58398 3.37388C4.70208 3.45268 4.84011 3.49634 4.98203 3.4998C5.12396 3.50326 5.26395 3.46636 5.38574 3.39341L7.5 2.12486ZM5.75 5.99986C5.65062 5.99845 5.55194 6.01681 5.45972 6.05387C5.36749 6.09093 5.28355 6.14595 5.21277 6.21574C5.142 6.28552 5.08579 6.36867 5.04743 6.46037C5.00907 6.55206 4.98932 6.65046 4.98932 6.74986C4.98932 6.84925 5.00907 6.94765 5.04743 7.03935C5.08579 7.13104 5.142 7.21419 5.21277 7.28398C5.28355 7.35376 5.36749 7.40878 5.45972 7.44584C5.55194 7.4829 5.65062 7.50126 5.75 7.49986H14.25C14.3494 7.50126 14.4481 7.4829 14.5403 7.44584C14.6325 7.40878 14.7164 7.35376 14.7872 7.28398C14.858 7.21419 14.9142 7.13104 14.9526 7.03935C14.9909 6.94765 15.0107 6.84925 15.0107 6.74986C15.0107 6.65046 14.9909 6.55206 14.9526 6.46037C14.9142 6.36867 14.858 6.28552 14.7872 6.21574C14.7164 6.14595 14.6325 6.09093 14.5403 6.05387C14.4481 6.01681 14.3494 5.99845 14.25 5.99986H5.75ZM5.75 9.99986C5.65062 9.99845 5.55194 10.0168 5.45972 10.0539C5.36749 10.0909 5.28355 10.146 5.21277 10.2157C5.142 10.2855 5.08579 10.3687 5.04743 10.4604C5.00907 10.5521 4.98932 10.6505 4.98932 10.7499C4.98932 10.8493 5.00907 10.9477 5.04743 11.0393C5.08579 11.131 5.142 11.2142 5.21277 11.284C5.28355 11.3538 5.36749 11.4088 5.45972 11.4458C5.55194 11.4829 5.65062 11.5013 5.75 11.4999H10.25C10.3494 11.5013 10.4481 11.4829 10.5403 11.4458C10.6325 11.4088 10.7164 11.3538 10.7872 11.284C10.858 11.2142 10.9142 11.131 10.9526 11.0393C10.9909 10.9477 11.0107 10.8493 11.0107 10.7499C11.0107 10.6505 10.9909 10.5521 10.9526 10.4604C10.9142 10.3687 10.858 10.2855 10.7872 10.2157C10.7164 10.146 10.6325 10.0909 10.5403 10.0539C10.4481 10.0168 10.3494 9.99845 10.25 9.99986H5.75ZM13.25 9.99986C13.1506 9.99845 13.0519 10.0168 12.9597 10.0539C12.8675 10.0909 12.7836 10.146 12.7128 10.2157C12.642 10.2855 12.5858 10.3687 12.5474 10.4604C12.5091 10.5521 12.4893 10.6505 12.4893 10.7499C12.4893 10.8493 12.5091 10.9477 12.5474 11.0393C12.5858 11.131 12.642 11.2142 12.7128 11.284C12.7836 11.3538 12.8675 11.4088 12.9597 11.4458C13.0519 11.4829 13.1506 11.5013 13.25 11.4999H14.25C14.3494 11.5013 14.4481 11.4829 14.5403 11.4458C14.6325 11.4088 14.7164 11.3538 14.7872 11.284C14.858 11.2142 14.9142 11.131 14.9526 11.0393C14.9909 10.9477 15.0107 10.8493 15.0107 10.7499C15.0107 10.6505 14.9909 10.5521 14.9526 10.4604C14.9142 10.3687 14.858 10.2855 14.7872 10.2157C14.7164 10.146 14.6325 10.0909 14.5403 10.0539C14.4481 10.0168 14.3494 9.99845 14.25 9.99986H13.25ZM5.75 12.9999C5.65062 12.9985 5.55194 13.0168 5.45972 13.0539C5.36749 13.0909 5.28355 13.146 5.21277 13.2157C5.142 13.2855 5.08579 13.3687 5.04743 13.4604C5.00907 13.5521 4.98932 13.6505 4.98932 13.7499C4.98932 13.8493 5.00907 13.9477 5.04743 14.0393C5.08579 14.131 5.142 14.2142 5.21277 14.284C5.28355 14.3538 5.36749 14.4088 5.45972 14.4458C5.55194 14.4829 5.65062 14.5013 5.75 14.4999H9.25C9.34938 14.5013 9.44806 14.4829 9.54028 14.4458C9.63251 14.4088 9.71645 14.3538 9.78723 14.284C9.858 14.2142 9.91421 14.131 9.95257 14.0393C9.99093 13.9477 10.0107 13.8493 10.0107 13.7499C10.0107 13.6505 9.99093 13.5521 9.95257 13.4604C9.91421 13.3687 9.858 13.2855 9.78723 13.2157C9.71645 13.146 9.63251 13.0909 9.54028 13.0539C9.44806 13.0168 9.34938 12.9985 9.25 12.9999H5.75ZM13.25 12.9999C13.1506 12.9985 13.0519 13.0168 12.9597 13.0539C12.8675 13.0909 12.7836 13.146 12.7128 13.2157C12.642 13.2855 12.5858 13.3687 12.5474 13.4604C12.5091 13.5521 12.4893 13.6505 12.4893 13.7499C12.4893 13.8493 12.5091 13.9477 12.5474 14.0393C12.5858 14.131 12.642 14.2142 12.7128 14.284C12.7836 14.3538 12.8675 14.4088 12.9597 14.4458C13.0519 14.4829 13.1506 14.5013 13.25 14.4999H14.25C14.3494 14.5013 14.4481 14.4829 14.5403 14.4458C14.6325 14.4088 14.7164 14.3538 14.7872 14.284C14.858 14.2142 14.9142 14.131 14.9526 14.0393C14.9909 13.9477 15.0107 13.8493 15.0107 13.7499C15.0107 13.6505 14.9909 13.5521 14.9526 13.4604C14.9142 13.3687 14.858 13.2855 14.7872 13.2157C14.7164 13.146 14.6325 13.0909 14.5403 13.0539C14.4481 13.0168 14.3494 12.9985 14.25 12.9999H13.25Z" fill="#A1AABA"/>
</svg>
