<svg width="16" height="16" viewBox="0 0 16 16" fill="none" xmlns="http://www.w3.org/2000/svg">
<path d="M5.1875 0.875C4.26219 0.875 3.5 1.63719 3.5 2.5625V3.125H2.9375C1.59802 3.125 0.5 4.22302 0.5 5.5625V10.8125C0.5 11.7378 1.26219 12.5 2.1875 12.5H3.5V13.4375C3.5 14.3628 4.26219 15.125 5.1875 15.125H10.8125C11.7378 15.125 12.5 14.3628 12.5 13.4375V12.5H13.8125C14.7378 12.5 15.5 11.7378 15.5 10.8125V5.5625C15.5 4.22302 14.402 3.125 13.0625 3.125H12.5V2.5625C12.5 1.63719 11.7378 0.875 10.8125 0.875H5.1875ZM5.1875 2H10.8125C11.1299 2 11.375 2.24506 11.375 2.5625V3.125H4.625V2.5625C4.625 2.24506 4.87006 2 5.1875 2ZM2.9375 4.25H13.0625C13.7938 4.25 14.375 4.83123 14.375 5.5625V10.8125C14.375 11.1299 14.1299 11.375 13.8125 11.375H12.5V10.0625C12.5 9.13719 11.7378 8.375 10.8125 8.375H5.1875C4.26219 8.375 3.5 9.13719 3.5 10.0625V11.375H2.1875C1.87006 11.375 1.625 11.1299 1.625 10.8125V5.5625C1.625 4.83123 2.20623 4.25 2.9375 4.25ZM5.1875 9.5H10.8125C11.1299 9.5 11.375 9.74506 11.375 10.0625V13.4375C11.375 13.7549 11.1299 14 10.8125 14H5.1875C4.87006 14 4.625 13.7549 4.625 13.4375V10.0625C4.625 9.74506 4.87006 9.5 5.1875 9.5Z" fill="#4BC49A"/>
</svg>
