<svg width="14" height="16" viewBox="0 0 14 16" fill="none" xmlns="http://www.w3.org/2000/svg">
<path d="M5.68745 0.500046C5.59686 0.498886 5.50732 0.519625 5.42646 0.5605C5.3456 0.601376 5.27581 0.661177 5.22302 0.734817C5.17024 0.808458 5.13602 0.893758 5.12328 0.983463C5.11054 1.07317 5.11966 1.16462 5.14986 1.25005H3.49019C2.80122 1.25005 2.15605 1.59484 1.77412 2.1685L0.886429 3.50005H0.812455C0.737917 3.49899 0.663913 3.51276 0.594743 3.54056C0.525573 3.56835 0.462618 3.60962 0.409535 3.66196C0.356452 3.71429 0.3143 3.77666 0.28553 3.84543C0.256759 3.9142 0.241943 3.988 0.241943 4.06255C0.241943 4.13709 0.256759 4.21089 0.28553 4.27966C0.3143 4.34843 0.356452 4.4108 0.409535 4.46314C0.462618 4.51547 0.525573 4.55674 0.594743 4.58453C0.663913 4.61233 0.737917 4.6261 0.812455 4.62505H1.09883C1.14708 4.63234 1.19608 4.63332 1.24458 4.62798L2.17183 13.2823C2.28371 14.3256 3.17339 15.125 4.22261 15.125H9.77657C10.8258 15.125 11.7155 14.3256 11.8273 13.2823L12.7553 4.62798C12.8029 4.63307 12.8509 4.63209 12.8981 4.62505H13.1875C13.262 4.6261 13.336 4.61233 13.4052 4.58453C13.4743 4.55674 13.5373 4.51547 13.5904 4.46314C13.6435 4.4108 13.6856 4.34843 13.7144 4.27966C13.7431 4.21089 13.758 4.13709 13.758 4.06255C13.758 3.988 13.7431 3.9142 13.7144 3.84543C13.6856 3.77666 13.6435 3.71429 13.5904 3.66196C13.5373 3.60962 13.4743 3.56835 13.4052 3.54056C13.336 3.51276 13.262 3.49899 13.1875 3.50005H13.1135L12.2258 2.1685C11.8436 1.59515 11.1985 1.25005 10.5097 1.25005H8.85005C8.88025 1.16462 8.88937 1.07317 8.87663 0.983463C8.86389 0.893758 8.82967 0.808458 8.77689 0.734817C8.7241 0.661177 8.65431 0.601376 8.57345 0.5605C8.49259 0.519625 8.40305 0.498886 8.31245 0.500046H5.68745ZM3.49019 2.37505H10.5097C10.8237 2.37505 11.1155 2.53113 11.2897 2.79253L11.7614 3.50005H2.23848L2.71016 2.79253C2.7104 2.79228 2.71065 2.79204 2.71089 2.79179C2.8847 2.53072 3.17566 2.37505 3.49019 2.37505ZM2.37618 4.62505H11.6237L10.7089 13.1622C10.6573 13.6435 10.2603 14 9.77657 14H4.22261C3.73883 14 3.34259 13.6435 3.29097 13.1622L2.37618 4.62505Z" fill="#FF5757"/>
</svg>
