<svg width="14" height="8" viewBox="0 0 14 8" fill="none" xmlns="http://www.w3.org/2000/svg">
<path d="M6.99067 0.399973C6.83481 0.402458 6.68603 0.4655 6.57583 0.575754L0.575832 6.57575C0.518248 6.63104 0.472274 6.69726 0.440603 6.77054C0.408932 6.84382 0.392201 6.92268 0.391388 7.0025C0.390576 7.08232 0.4057 7.16151 0.435873 7.23542C0.466047 7.30932 0.510664 7.37646 0.567111 7.43291C0.623558 7.48936 0.690701 7.53398 0.764607 7.56415C0.838514 7.59432 0.917698 7.60945 0.997522 7.60863C1.07735 7.60782 1.15621 7.59109 1.22948 7.55942C1.30276 7.52775 1.36898 7.48178 1.42427 7.42419L7.00005 1.84841L12.5758 7.42419C12.6311 7.48178 12.6973 7.52775 12.7706 7.55942C12.8439 7.59109 12.9228 7.60783 13.0026 7.60864C13.0824 7.60945 13.1616 7.59433 13.2355 7.56415C13.3094 7.53398 13.3765 7.48936 13.433 7.43291C13.4894 7.37647 13.5341 7.30932 13.5642 7.23542C13.5944 7.16151 13.6095 7.08233 13.6087 7.0025C13.6079 6.92268 13.5912 6.84382 13.5595 6.77054C13.5278 6.69726 13.4819 6.63104 13.4243 6.57575L7.42427 0.575754C7.36745 0.51891 7.29979 0.474059 7.22531 0.443863C7.15083 0.413667 7.07104 0.398742 6.99067 0.399973Z" fill="#C4C4C4"/>
</svg>
