<svg width="19" height="19" viewBox="0 0 19 19" fill="none" xmlns="http://www.w3.org/2000/svg">
<g clip-path="url(#clip0_8_9868)">
<path d="M6.92671 1.99639C6.68971 1.98876 6.44387 2.02288 6.19502 2.12602C5.5314 2.4008 5.23176 3.00424 4.99898 3.50737C4.7662 4.0105 4.5649 4.46869 4.3918 4.64189H4.39107C4.20007 4.83312 3.74115 5.03886 3.2419 5.27178C2.74265 5.5047 2.14682 5.79179 1.87593 6.44585C1.60515 7.09995 1.82382 7.72475 2.01216 8.24248C2.2005 8.76021 2.37922 9.22976 2.37911 9.50005C2.379 9.74503 2.19825 10.2116 2.00704 10.732C1.81583 11.2524 1.60088 11.8914 1.87593 12.555C2.1507 13.2186 2.75415 13.5182 3.25728 13.751C3.76041 13.9838 4.21787 14.1851 4.39107 14.3582V14.3589H4.3918C4.58302 14.5499 4.78803 15.0089 5.02095 15.5081C5.25387 16.0074 5.54097 16.6032 6.19502 16.8741C6.84912 17.1449 7.47393 16.9262 7.99166 16.7378C8.50938 16.5495 8.97966 16.3708 9.24996 16.3709C9.49494 16.371 9.96147 16.5518 10.4819 16.743C11.0023 16.9342 11.6406 17.1491 12.3042 16.8741C12.9678 16.5993 13.2674 15.9959 13.5002 15.4927C13.733 14.9896 13.935 14.5321 14.1081 14.3589V14.3582C14.2991 14.167 14.758 13.962 15.2573 13.7291C15.7565 13.4961 16.3531 13.209 16.624 12.555C16.8948 11.9009 16.6761 11.2761 16.4877 10.7583C16.2994 10.2406 16.12 9.77034 16.1201 9.50005C16.1202 9.25507 16.3017 8.78853 16.4929 8.26811C16.6841 7.7477 16.899 7.10944 16.624 6.44585C16.3492 5.78223 15.7458 5.48259 15.2426 5.2498C14.7395 5.01702 14.2813 4.81499 14.1081 4.64189C13.9169 4.45089 13.7111 3.99198 13.4782 3.49272C13.2453 2.99347 12.9582 2.39691 12.3042 2.12602C11.6501 1.85524 11.0253 2.07391 10.5075 2.26225C9.98979 2.4506 9.52025 2.63004 9.24996 2.62993C9.00497 2.62983 8.53844 2.44834 8.01802 2.25713C7.75781 2.16152 7.46804 2.06015 7.16036 2.01689C7.08344 2.00608 7.00571 1.99893 6.92671 1.99639ZM6.8 3.13017C7.00092 3.1203 7.28089 3.18507 7.62984 3.31328C8.09511 3.48423 8.61821 3.75466 9.24922 3.75493C9.88681 3.75519 10.4235 3.48958 10.892 3.31914C11.3602 3.14882 11.7013 3.09435 11.8735 3.16533C12.0452 3.23644 12.2479 3.51623 12.4587 3.96807C12.6694 4.41975 12.8619 4.98675 13.3127 5.4373C13.759 5.88333 14.3204 6.06268 14.7702 6.2708C15.2201 6.47892 15.5036 6.6799 15.5847 6.87578V6.87651C15.6659 7.07242 15.6077 7.41539 15.4367 7.88066C15.2658 8.34593 14.9953 8.86903 14.9951 9.50005C14.9948 10.1376 15.2604 10.6744 15.4309 11.1429C15.6013 11.6114 15.6559 11.9523 15.5847 12.1243C15.5136 12.296 15.2338 12.4987 14.7819 12.7095C14.3302 12.9202 13.7633 13.1127 13.3127 13.5635C12.8667 14.0098 12.6873 14.5705 12.4792 15.0203C12.2711 15.4701 12.0701 15.7537 11.8742 15.8348H11.8735C11.6776 15.916 11.3346 15.8585 10.8693 15.6875C10.4041 15.5166 9.88097 15.2462 9.24996 15.2459C8.61237 15.2456 8.07565 15.5105 7.60713 15.681C7.13861 15.8514 6.79771 15.906 6.62569 15.8348C6.45399 15.7637 6.25128 15.4839 6.04048 15.032C5.82968 14.5802 5.63763 14.0134 5.18648 13.5628C4.74018 13.1168 4.17953 12.9382 3.72969 12.73C3.27986 12.5219 2.99634 12.3202 2.91524 12.1243C2.83404 11.9284 2.89151 11.5854 3.06246 11.1202C3.2334 10.6549 3.50384 10.1318 3.50411 9.50078C3.50437 8.8632 3.23949 8.32648 3.06905 7.85796C2.89873 7.38978 2.84426 7.04866 2.91524 6.87651C2.98635 6.70482 3.26613 6.50211 3.71797 6.29131C4.16981 6.08051 4.73659 5.88846 5.18721 5.4373C5.63324 4.99101 5.81185 4.42962 6.01998 3.97978C6.2281 3.52995 6.42981 3.24643 6.62569 3.16533C6.67467 3.14503 6.73303 3.13347 6.8 3.13017ZM12.0515 6.11992C11.9054 6.12418 11.7667 6.18512 11.6648 6.28984L6.03975 11.9148C5.98577 11.9667 5.94267 12.0288 5.91298 12.0975C5.88329 12.1662 5.8676 12.2401 5.86684 12.3149C5.86608 12.3898 5.88026 12.464 5.90855 12.5333C5.93683 12.6026 5.97866 12.6655 6.03158 12.7184C6.0845 12.7713 6.14745 12.8132 6.21673 12.8415C6.28602 12.8697 6.36025 12.8839 6.43509 12.8832C6.50992 12.8824 6.58385 12.8667 6.65255 12.837C6.72125 12.8073 6.78333 12.7642 6.83516 12.7103L12.4602 7.08525C12.5413 7.00622 12.5967 6.90453 12.6191 6.79349C12.6415 6.68245 12.6299 6.56723 12.5857 6.46292C12.5415 6.35861 12.4669 6.27006 12.3716 6.20886C12.2763 6.14766 12.1647 6.11666 12.0515 6.11992ZM7.18746 6.12505C6.83936 6.12505 6.50552 6.26333 6.25938 6.50947C6.01324 6.75561 5.87496 7.08945 5.87496 7.43755C5.87496 7.78564 6.01324 8.11948 6.25938 8.36563C6.50552 8.61177 6.83936 8.75005 7.18746 8.75005C7.53555 8.75005 7.86939 8.61177 8.11553 8.36563C8.36168 8.11948 8.49996 7.78564 8.49996 7.43755C8.49996 7.08945 8.36168 6.75561 8.11553 6.50947C7.86939 6.26333 7.53555 6.12505 7.18746 6.12505ZM11.3125 10.25C10.9644 10.25 10.6305 10.3883 10.3844 10.6345C10.1382 10.8806 9.99996 11.2145 9.99996 11.5625C9.99996 11.9106 10.1382 12.2445 10.3844 12.4906C10.6305 12.7368 10.9644 12.875 11.3125 12.875C11.6606 12.875 11.9944 12.7368 12.2405 12.4906C12.4867 12.2445 12.625 11.9106 12.625 11.5625C12.625 11.2145 12.4867 10.8806 12.2405 10.6345C11.9944 10.3883 11.6606 10.25 11.3125 10.25Z" fill="#E89708"/>
</g>
<defs>
<clipPath id="clip0_8_9868">
<rect width="18" height="18" fill="white" transform="translate(0.25 0.5)"/>
</clipPath>
</defs>
</svg>
