<svg width="48" height="48" viewBox="0 0 48 48" fill="none" xmlns="http://www.w3.org/2000/svg">
<g clip-path="url(#clip0_8_10113)">
<path d="M25.0489 1C22.1024 1 19.6185 3.13563 19.0665 6H18.4962C18.2974 5.99719 18.1001 6.03391 17.9156 6.10803C17.7311 6.18215 17.5633 6.29219 17.4217 6.43176C17.2802 6.57133 17.1678 6.73764 17.091 6.92102C17.0143 7.10441 16.9748 7.30121 16.9748 7.5C16.9748 7.69879 17.0143 7.89559 17.091 8.07898C17.1678 8.26236 17.2802 8.42867 17.4217 8.56824C17.5633 8.70781 17.7311 8.81785 17.9156 8.89197C18.1001 8.96609 18.2974 9.00281 18.4962 9H18.5977C18.3616 10.7308 18.0724 12.8451 18.0489 13.0176L10.252 27.1523V27.1543C9.7077 28.0996 9.55897 29.2242 9.83992 30.2773L9.84187 30.2793C10.1247 31.3337 10.8148 32.233 11.7598 32.7793C11.7631 32.7813 11.7663 32.7832 11.7696 32.7852C12.7158 33.3321 13.8418 33.4802 14.8966 33.1973C15.4356 33.0527 15.9296 32.7964 16.3614 32.459L15.0059 45.3438C14.9841 45.5526 15.0063 45.7638 15.0712 45.9635C15.1362 46.1632 15.2423 46.3471 15.3828 46.5033C15.5232 46.6594 15.6949 46.7843 15.8867 46.8698C16.0785 46.9554 16.2861 46.9998 16.4962 47H33.4962C33.7064 47 33.9142 46.9559 34.1062 46.8704C34.2983 46.785 34.4702 46.6601 34.6109 46.504C34.7516 46.3478 34.8579 46.1638 34.9229 45.964C34.9879 45.7641 35.0102 45.5528 34.9884 45.3438L33.6309 32.457C34.063 32.795 34.5583 33.0526 35.0977 33.1973C36.1476 33.4789 37.2675 33.3318 38.211 32.791C38.2156 32.7891 38.2201 32.7871 38.2247 32.7852C38.2286 32.7832 38.2325 32.7813 38.2364 32.7793C38.2385 32.7781 38.2402 32.7766 38.2423 32.7754C38.2641 32.7623 38.2856 32.7486 38.3067 32.7344C38.2362 32.7814 38.2826 32.7499 38.2501 32.7676C39.1857 32.2203 39.8711 31.3278 40.1524 30.2793C40.4354 29.2245 40.2873 28.0966 39.7403 27.1504L31.9512 13.0312C31.9294 12.8513 31.6745 10.7463 31.463 9H31.4962C31.6949 9.00281 31.8923 8.96609 32.0767 8.89197C32.2612 8.81785 32.4291 8.70781 32.5706 8.56824C32.7122 8.42867 32.8246 8.26236 32.9013 8.07898C32.978 7.89559 33.0175 7.69879 33.0175 7.5C33.0175 7.30121 32.978 7.10441 32.9013 6.92102C32.8246 6.73764 32.7122 6.57133 32.5706 6.43176C32.4291 6.29219 32.2612 6.18215 32.0767 6.10803C31.8923 6.03391 31.6949 5.99719 31.4962 6H31.0216C30.4677 3.14284 27.9994 1 25.0509 1H25.0489ZM25.0489 4H25.0509C26.3421 4 27.2887 4.86965 27.7716 6H22.3204C22.8031 4.86722 23.7584 4 25.0489 4ZM21.6251 9H21.9962C21.9962 9 21.9962 9 24.9962 9C27.9962 9 27.9962 9 27.9962 9H28.4415C28.6509 10.7289 28.8542 12.4067 28.9102 12.8691C27.3506 14.336 26.1239 14.9861 25.0762 14.9668C24.0377 14.9476 22.7231 14.234 21.0997 12.8438C21.1655 12.3613 21.3912 10.7144 21.6251 9ZM19.9805 15.7305C21.6219 17 23.2515 17.9322 25.0196 17.9648C26.7738 17.9973 28.4128 17.0799 30.0352 15.7676L37.129 28.627C37.1335 28.6355 37.138 28.6439 37.1427 28.6523C37.2917 28.9101 37.333 29.2147 37.2559 29.502C37.1788 29.7895 36.9908 30.034 36.7325 30.1836L36.8126 30.1387C36.898 30.096 36.8377 30.1083 36.6427 30.2383L36.7227 30.1875C36.4649 30.3365 36.1623 30.3759 35.8751 30.2988C35.5875 30.2217 35.3438 30.0348 35.1954 29.7773C35.1922 29.7715 35.1889 29.7656 35.1856 29.7598L32.7852 25.7324C32.6099 25.4396 32.3399 25.2154 32.0199 25.0967C31.6999 24.978 31.349 24.972 31.0251 25.0797C30.7012 25.1873 30.4237 25.4022 30.2384 25.6888C30.0531 25.9755 29.9711 26.3167 30.0059 26.6562L31.8321 44H18.1622L19.9884 26.6562C20.0232 26.3167 19.9412 25.9755 19.7559 25.6888C19.5706 25.4022 19.2931 25.1873 18.9692 25.0797C18.6453 24.972 18.2944 24.978 17.9744 25.0967C17.6544 25.2154 17.3844 25.4396 17.2091 25.7324L14.8106 29.7598C14.8073 29.765 14.8041 29.7702 14.8009 29.7754C14.6511 30.0344 14.4068 30.2217 14.1192 30.2988C13.832 30.3759 13.5294 30.3365 13.2716 30.1875C13.2683 30.1855 13.2651 30.1836 13.2618 30.1816C13.0036 30.0324 12.8179 29.7903 12.7403 29.5039C12.6634 29.2157 12.7027 28.9087 12.8516 28.6504C12.8563 28.6426 12.8608 28.6348 12.8653 28.627L19.9805 15.7305Z" fill="#C0C3C8"/>
</g>
<defs>
<clipPath id="clip0_8_10113">
<rect width="48" height="48" fill="white"/>
</clipPath>
</defs>
</svg>
