<svg width="16" height="16" viewBox="0 0 16 16" fill="none" xmlns="http://www.w3.org/2000/svg">
<path d="M12.5 0.878662C11.827 0.878662 11.1541 1.1338 10.644 1.64404L2.34351 9.94385C2.18602 10.1013 2.07068 10.2972 2.00953 10.5122L0.896978 14.408C0.86954 14.5044 0.868355 14.6063 0.893545 14.7033C0.918735 14.8004 0.969386 14.8889 1.04026 14.9597C1.11113 15.0306 1.19965 15.0813 1.29666 15.1065C1.39367 15.1317 1.49565 15.1305 1.59205 15.103L5.48853 13.9905C5.48878 13.9902 5.48902 13.99 5.48926 13.9897C5.70283 13.9284 5.89821 13.8144 6.05616 13.6565L14.356 5.35596C15.3764 4.33554 15.3764 2.66446 14.356 1.64404C13.846 1.1338 13.173 0.878662 12.5 0.878662ZM12.5 1.99707C12.8828 1.99707 13.2651 2.14457 13.5598 2.43945C13.5601 2.43945 13.5603 2.43945 13.5606 2.43945C14.1511 3.03003 14.1511 3.96997 13.5606 4.56055L12.8333 5.28784L10.7122 3.16675L11.4395 2.43945C11.7342 2.14457 12.1172 1.99707 12.5 1.99707ZM9.91675 3.96216L12.0378 6.08325L5.26002 12.8611C5.23803 12.8829 5.21018 12.8996 5.17872 12.9087L2.25635 13.7437L3.09131 10.8206C3.09131 10.8203 3.09131 10.8201 3.09131 10.8198C3.09991 10.7896 3.11566 10.7625 3.13892 10.7393L9.91675 3.96216Z" fill="#C0C3C8"/>
</svg>
