<svg width="16" height="16" viewBox="0 0 16 16" fill="none" xmlns="http://www.w3.org/2000/svg">
<path d="M4.83334 14.6666C4.75068 14.6666 4.66768 14.6463 4.59168 14.6043C4.39334 14.4946 4.29334 14.2653 4.34868 14.0453L5.52634 9.33325H3.83334C3.67634 9.33325 3.52868 9.25959 3.43401 9.13425C3.33968 9.00892 3.30934 8.84659 3.35234 8.69592L5.35234 1.69592C5.41401 1.48125 5.61001 1.33325 5.83334 1.33325H10.5C10.6607 1.33325 10.8117 1.41059 10.9057 1.54092C10.9997 1.67125 11.0253 1.83892 10.9743 1.99125L9.86034 5.33325H12.8333C13.0337 5.33325 13.2147 5.45292 13.2933 5.63725C13.372 5.82159 13.333 6.03492 13.194 6.17925L5.19401 14.5126C5.09734 14.6136 4.96601 14.6666 4.83334 14.6666Z" fill="#E89708"/>
</svg>
