<svg width="20" height="20" viewBox="0 0 20 20" fill="none" xmlns="http://www.w3.org/2000/svg">
<g clip-path="url(#clip0_8_10183)">
<path d="M9.97965 1.66668C9.84639 1.67124 9.71807 1.71829 9.61344 1.80096L3.69141 6.46649C2.93978 7.05884 2.5 7.96398 2.5 8.92092V16.875C2.5 17.4432 2.9735 17.9167 3.54167 17.9167H7.70833C8.2765 17.9167 8.75 17.4432 8.75 16.875V12.7084C8.75 12.5854 8.8354 12.5 8.95833 12.5H11.0417C11.1646 12.5 11.25 12.5854 11.25 12.7084V16.875C11.25 17.4432 11.7235 17.9167 12.2917 17.9167H16.4583C17.0265 17.9167 17.5 17.4432 17.5 16.875V8.92092C17.5 7.96398 17.0602 7.05884 16.3086 6.46649L10.3866 1.80096C10.271 1.70966 10.1269 1.6621 9.97965 1.66668ZM10 3.08758L15.5355 7.44875C15.9872 7.80473 16.25 8.34619 16.25 8.92092V16.6667H12.5V12.7084C12.5 11.9105 11.8396 11.25 11.0417 11.25H8.95833C8.16044 11.25 7.5 11.9105 7.5 12.7084V16.6667H3.75V8.92092C3.75 8.34619 4.01281 7.80473 4.46452 7.44875L10 3.08758Z" fill="#484860"/>
</g>
<defs>
<clipPath id="clip0_8_10183">
<rect width="20" height="20" fill="white"/>
</clipPath>
</defs>
</svg>
