<svg width="14" height="4" viewBox="0 0 14 4" fill="none" xmlns="http://www.w3.org/2000/svg">
<path d="M1.66658 0.933212C1.52523 0.931213 1.3849 0.957327 1.25373 1.01003C1.12256 1.06274 1.00318 1.14099 0.90252 1.24024C0.801859 1.33949 0.721927 1.45775 0.66737 1.58816C0.612812 1.71857 0.584717 1.85852 0.584717 1.99988C0.584717 2.14124 0.612812 2.28119 0.66737 2.4116C0.721927 2.542 0.801859 2.66027 0.90252 2.75952C1.00318 2.85876 1.12256 2.93702 1.25373 2.98972C1.3849 3.04243 1.52523 3.06854 1.66658 3.06655C7.89484 3.06655 5.43957 3.06655 12.3332 3.06655C12.4746 3.06854 12.6149 3.04243 12.7461 2.98972C12.8773 2.93702 12.9966 2.85876 13.0973 2.75952C13.198 2.66027 13.2779 2.542 13.3324 2.4116C13.387 2.28119 13.4151 2.14124 13.4151 1.99988C13.4151 1.85852 13.387 1.71857 13.3324 1.58816C13.2779 1.45775 13.198 1.33949 13.0973 1.24024C12.9966 1.14099 12.8773 1.06274 12.7461 1.01003C12.6149 0.957327 12.4746 0.931213 12.3332 0.933212C5.4729 0.933212 7.86791 0.933212 1.66658 0.933212Z" fill="#4BC49A"/>
</svg>
