<svg width="12" height="14" viewBox="0 0 12 14" fill="none" xmlns="http://www.w3.org/2000/svg">
<path d="M10.4895 0.994835C10.4168 0.997054 10.3455 1.0151 10.2805 1.0477C10.2155 1.08031 10.1584 1.1267 10.1132 1.18364L1.1132 12.1836C1.06856 12.234 1.03455 12.2929 1.01321 12.3568C0.991875 12.4206 0.983651 12.4881 0.989033 12.5552C0.994415 12.6223 1.01329 12.6877 1.04453 12.7473C1.07577 12.8069 1.11873 12.8596 1.17083 12.9023C1.22294 12.9449 1.28311 12.9766 1.34775 12.9954C1.41239 13.0142 1.48016 13.0198 1.547 13.0117C1.61384 13.0037 1.67838 12.9823 1.73674 12.9487C1.7951 12.9152 1.84609 12.8702 1.88664 12.8164L10.8866 1.81645C10.9487 1.74262 10.9881 1.65242 11.0001 1.55672C11.012 1.46102 10.9961 1.3639 10.9541 1.27706C10.9121 1.19023 10.8459 1.11738 10.7635 1.06731C10.6811 1.01723 10.5859 0.992065 10.4895 0.994835V0.994835ZM2.49992 1.33338C1.30973 1.33338 0.333252 2.30986 0.333252 3.50004V4.83338C0.333252 6.02357 1.30973 7.00004 2.49992 7.00004C3.69011 7.00004 4.66659 6.02357 4.66659 4.83338V3.50004C4.66659 2.30986 3.69011 1.33338 2.49992 1.33338ZM2.49992 2.33338C3.14773 2.33338 3.66659 2.85223 3.66659 3.50004V4.83338C3.66659 5.48119 3.14773 6.00004 2.49992 6.00004C1.85211 6.00004 1.33325 5.48119 1.33325 4.83338V3.50004C1.33325 2.85223 1.85211 2.33338 2.49992 2.33338ZM9.49992 7.00004C8.30973 7.00004 7.33325 7.97652 7.33325 9.16671V10.5C7.33325 11.6902 8.30973 12.6667 9.49992 12.6667C10.6901 12.6667 11.6666 11.6902 11.6666 10.5V9.16671C11.6666 7.97652 10.6901 7.00004 9.49992 7.00004ZM9.49992 8.00004C10.1477 8.00004 10.6666 8.5189 10.6666 9.16671V10.5C10.6666 11.1479 10.1477 11.6667 9.49992 11.6667C8.85211 11.6667 8.33325 11.1479 8.33325 10.5V9.16671C8.33325 8.5189 8.85211 8.00004 9.49992 8.00004Z" fill="#FF5757"/>
</svg>
