<svg width="16" height="21" viewBox="0 0 16 21" fill="none" xmlns="http://www.w3.org/2000/svg">
<path d="M5.52051 0.00692136C5.19138 -0.0170226 4.85413 0.0166179 4.52344 0.114343L3.33984 0.464929C2.07862 0.837933 1.09317 1.83862 0.759765 3.10165C0.0194764 5.91052 0.866337 9.23523 3.07031 12.9776C5.27119 16.7149 7.77901 19.0901 10.6113 19.8653C11.8868 20.2144 13.2624 19.8809 14.2285 18.9835L15.1289 18.1485C16.1364 17.2131 16.2866 15.655 15.4727 14.5479L14.1719 12.7813C13.4746 11.8343 12.2455 11.431 11.1152 11.7706L9.08008 12.38C8.99465 12.4049 8.79021 12.2886 8.6123 12.1349L8.61133 12.1339C8.29446 11.8583 7.85543 11.3014 7.38574 10.505V10.504C6.88211 9.64863 6.6673 9.08923 6.58105 8.75887C6.49477 8.42837 6.51571 8.38817 6.52832 8.27645C6.53487 8.22071 6.56136 8.16906 6.60644 8.12802L6.60742 8.12704L8.125 6.73934C8.99445 5.94452 9.25692 4.67434 8.7666 3.60555L7.85156 1.60946V1.60848C7.42076 0.669434 6.50763 0.0787335 5.52051 0.00692136ZM5.41211 1.50302C5.87121 1.53732 6.29397 1.81269 6.4873 2.23446L7.40332 4.23055C7.625 4.71377 7.51383 5.26672 7.11328 5.6329L5.5957 7.01962C5.2846 7.30328 5.08565 7.69002 5.03808 8.10751V8.10848C5.02569 8.21827 4.99641 8.62653 5.12988 9.13778C5.26335 9.64903 5.53891 10.3252 6.09277 11.2657H6.09375C6.61054 12.1422 7.09897 12.8081 7.62793 13.2677H7.6289C7.80069 13.4164 8.52064 14.1064 9.5 13.8204L9.50293 13.8194L11.5469 13.2071C12.0776 13.0477 12.6451 13.2381 12.9639 13.671L14.2646 15.4376C14.633 15.9394 14.5686 16.6216 14.1084 17.0489L13.208 17.8849C12.6322 18.42 11.7771 18.6289 11.0068 18.4181C8.71715 17.7913 6.4514 15.7627 4.36328 12.2169C2.27225 8.66628 1.61825 5.72959 2.20996 3.48446C2.40556 2.74349 3.00485 2.1284 3.76562 1.90341L4.94824 1.55282C5.10229 1.5073 5.25908 1.49158 5.41211 1.50302Z" fill="#C0C3C8"/>
</svg>
