<svg width="14" height="14" viewBox="0 0 14 14" fill="none" xmlns="http://www.w3.org/2000/svg">
<path d="M6.98428 0.585319C6.70157 0.589463 6.43206 0.705673 6.23498 0.908417C6.0379 1.11116 5.92938 1.38385 5.93324 1.66657V5.93324H1.66658C1.52523 5.93124 1.3849 5.95735 1.25373 6.01006C1.12256 6.06277 1.00318 6.14102 0.90252 6.24027C0.801859 6.33951 0.721927 6.45778 0.66737 6.58818C0.612812 6.71859 0.584717 6.85854 0.584717 6.9999C0.584717 7.14126 0.612812 7.28121 0.66737 7.41162C0.721927 7.54203 0.801859 7.66029 0.90252 7.75954C1.00318 7.85879 1.12256 7.93704 1.25373 7.98975C1.3849 8.04246 1.52523 8.06857 1.66658 8.06657H5.93324V12.3332C5.93124 12.4746 5.95736 12.6149 6.01006 12.7461C6.06277 12.8772 6.14102 12.9966 6.24027 13.0973C6.33952 13.198 6.45778 13.2779 6.58819 13.3324C6.7186 13.387 6.85855 13.4151 6.99991 13.4151C7.14127 13.4151 7.28122 13.387 7.41163 13.3324C7.54204 13.2779 7.6603 13.198 7.75955 13.0973C7.85879 12.9966 7.93705 12.8772 7.98975 12.7461C8.04246 12.6149 8.06857 12.4746 8.06658 12.3332V8.06657H12.3332C12.4746 8.06857 12.6149 8.04246 12.7461 7.98975C12.8773 7.93704 12.9966 7.85879 13.0973 7.75954C13.198 7.66029 13.2779 7.54203 13.3324 7.41162C13.387 7.28121 13.4151 7.14126 13.4151 6.9999C13.4151 6.85854 13.387 6.71859 13.3324 6.58818C13.2779 6.45778 13.198 6.33951 13.0973 6.24027C12.9966 6.14102 12.8773 6.06277 12.7461 6.01006C12.6149 5.95735 12.4746 5.93124 12.3332 5.93324H8.06658V1.66657C8.06853 1.52395 8.04186 1.38239 7.98814 1.25025C7.93443 1.11812 7.85477 0.998101 7.75386 0.897293C7.65296 0.796484 7.53286 0.716935 7.40068 0.66335C7.26849 0.609764 7.1269 0.583231 6.98428 0.585319V0.585319Z" fill="#4BC49A"/>
</svg>
