<svg width="18" height="18" viewBox="0 0 18 18" fill="none" xmlns="http://www.w3.org/2000/svg">
<path d="M8.98895 1.86483C8.79017 1.86774 8.60067 1.94945 8.4621 2.092C8.32353 2.23456 8.24722 2.42629 8.24994 2.62508V8.25008H2.62494C2.52556 8.24867 2.42688 8.26704 2.33466 8.3041C2.24243 8.34116 2.15849 8.39618 2.08771 8.46596C2.01694 8.53574 1.96073 8.6189 1.92237 8.71059C1.88401 8.80228 1.86426 8.90069 1.86426 9.00008C1.86426 9.09947 1.88401 9.19788 1.92237 9.28957C1.96073 9.38126 2.01694 9.46442 2.08771 9.5342C2.15849 9.60398 2.24243 9.659 2.33466 9.69606C2.42688 9.73313 2.52556 9.75149 2.62494 9.75008H8.24994V15.3751C8.24853 15.4745 8.26689 15.5731 8.30396 15.6654C8.34102 15.7576 8.39604 15.8415 8.46582 15.9123C8.5356 15.9831 8.61876 16.0393 8.71045 16.0776C8.80214 16.116 8.90055 16.1358 8.99994 16.1358C9.09933 16.1358 9.19774 16.116 9.28943 16.0776C9.38112 16.0393 9.46428 15.9831 9.53406 15.9123C9.60384 15.8415 9.65886 15.7576 9.69592 15.6654C9.73298 15.5731 9.75135 15.4745 9.74994 15.3751V9.75008H15.3749C15.4743 9.75149 15.573 9.73313 15.6652 9.69606C15.7574 9.659 15.8414 9.60398 15.9122 9.5342C15.9829 9.46442 16.0391 9.38126 16.0775 9.28957C16.1159 9.19788 16.1356 9.09947 16.1356 9.00008C16.1356 8.90069 16.1159 8.80228 16.0775 8.71059C16.0391 8.6189 15.9829 8.53574 15.9122 8.46596C15.8414 8.39618 15.7574 8.34116 15.6652 8.3041C15.573 8.26704 15.4743 8.24867 15.3749 8.25008H9.74994V2.62508C9.75131 2.5248 9.73256 2.42526 9.69479 2.33236C9.65703 2.23945 9.60101 2.15506 9.53006 2.08418C9.45911 2.0133 9.37467 1.95737 9.28173 1.91969C9.18879 1.88201 9.08923 1.86336 8.98895 1.86483Z" fill="#4BC49A"/>
</svg>
