<svg width="16" height="16" viewBox="0 0 16 16" fill="none" xmlns="http://www.w3.org/2000/svg">
<path d="M7.99999 0.5C6.68437 0.5 5.58888 1.48304 5.40501 2.75H2.83934C2.80741 2.74454 2.77506 2.74184 2.74266 2.74194C2.71467 2.74255 2.68676 2.74524 2.65916 2.75H1.43749C1.36295 2.74895 1.28894 2.76272 1.21977 2.79051C1.1506 2.81831 1.08765 2.85957 1.03457 2.91191C0.981483 2.96425 0.939331 3.02661 0.91056 3.09538C0.88179 3.16415 0.866974 3.23795 0.866974 3.3125C0.866974 3.38705 0.88179 3.46085 0.91056 3.52962C0.939331 3.59839 0.981483 3.66075 1.03457 3.71309C1.08765 3.76543 1.1506 3.80669 1.21977 3.83449C1.28894 3.86228 1.36295 3.87605 1.43749 3.875H2.23949L3.18358 13.636C3.28523 14.6885 4.1794 15.5 5.23656 15.5H10.7627C11.8199 15.5 12.714 14.6886 12.8157 13.636L13.7605 3.875H14.5625C14.637 3.87605 14.711 3.86228 14.7802 3.83449C14.8494 3.80669 14.9123 3.76543 14.9654 3.71309C15.0185 3.66075 15.0606 3.59839 15.0894 3.52962C15.1182 3.46085 15.133 3.38705 15.133 3.3125C15.133 3.23795 15.1182 3.16415 15.0894 3.09538C15.0606 3.02661 15.0185 2.96425 14.9654 2.91191C14.9123 2.85957 14.8494 2.81831 14.7802 2.79051C14.711 2.76272 14.637 2.74895 14.5625 2.75H13.3415C13.2819 2.74032 13.221 2.74032 13.1614 2.75H10.595C10.4111 1.48304 9.3156 0.5 7.99999 0.5ZM7.99999 1.625C8.70467 1.625 9.28277 2.10056 9.44798 2.75H6.55199C6.7172 2.10056 7.2953 1.625 7.99999 1.625ZM3.36888 3.875H12.6304L11.6958 13.5276C11.6489 14.0133 11.2505 14.375 10.7627 14.375H5.23656C4.74946 14.375 4.3503 14.0126 4.30345 13.5276L3.36888 3.875ZM6.6787 5.74194C6.52964 5.74427 6.3876 5.80567 6.28378 5.91265C6.17996 6.01963 6.12285 6.16344 6.12499 6.3125V11.9375C6.12393 12.012 6.1377 12.086 6.1655 12.1552C6.19329 12.2244 6.23456 12.2873 6.2869 12.3404C6.33923 12.3935 6.4016 12.4357 6.47037 12.4644C6.53914 12.4932 6.61294 12.508 6.68749 12.508C6.76203 12.508 6.83583 12.4932 6.9046 12.4644C6.97337 12.4357 7.03574 12.3935 7.08808 12.3404C7.14041 12.2873 7.18168 12.2244 7.20947 12.1552C7.23727 12.086 7.25104 12.012 7.24999 11.9375V6.3125C7.25107 6.23721 7.23702 6.16247 7.20868 6.09272C7.18035 6.02296 7.13829 5.9596 7.08502 5.90639C7.03174 5.85318 6.96833 5.81121 6.89853 5.78296C6.82874 5.75472 6.75398 5.74077 6.6787 5.74194ZM9.3037 5.74194C9.15464 5.74427 9.0126 5.80567 8.90878 5.91265C8.80496 6.01963 8.74785 6.16344 8.74999 6.3125V11.9375C8.74893 12.012 8.7627 12.086 8.7905 12.1552C8.81829 12.2244 8.85956 12.2873 8.9119 12.3404C8.96423 12.3935 9.0266 12.4357 9.09537 12.4644C9.16414 12.4932 9.23794 12.508 9.31249 12.508C9.38703 12.508 9.46083 12.4932 9.5296 12.4644C9.59837 12.4357 9.66074 12.3935 9.71308 12.3404C9.76541 12.2873 9.80668 12.2244 9.83447 12.1552C9.86227 12.086 9.87604 12.012 9.87499 11.9375V6.3125C9.87607 6.23721 9.86202 6.16247 9.83368 6.09272C9.80535 6.02296 9.76329 5.9596 9.71002 5.90639C9.65674 5.85318 9.59333 5.81121 9.52353 5.78296C9.45374 5.75472 9.37898 5.74077 9.3037 5.74194Z" fill="#C4C4C4"/>
</svg>
