<svg width="16" height="16" viewBox="0 0 16 16" fill="none" xmlns="http://www.w3.org/2000/svg">
<path d="M7.99995 0.5C6.68434 0.5 5.58885 1.48304 5.40498 2.75H2.83931C2.80738 2.74454 2.77503 2.74184 2.74263 2.74194C2.71464 2.74255 2.68673 2.74524 2.65913 2.75H1.43745C1.36292 2.74895 1.28891 2.76272 1.21974 2.79051C1.15057 2.81831 1.08762 2.85957 1.03453 2.91191C0.981452 2.96425 0.9393 3.02661 0.91053 3.09538C0.881759 3.16415 0.866943 3.23795 0.866943 3.3125C0.866943 3.38705 0.881759 3.46085 0.91053 3.52962C0.9393 3.59839 0.981452 3.66075 1.03453 3.71309C1.08762 3.76543 1.15057 3.80669 1.21974 3.83449C1.28891 3.86228 1.36292 3.87605 1.43745 3.875H2.23946L3.18355 13.636C3.2852 14.6885 4.17937 15.5 5.23653 15.5H10.7627C11.8199 15.5 12.714 14.6886 12.8156 13.636L13.7605 3.875H14.5625C14.637 3.87605 14.711 3.86228 14.7802 3.83449C14.8493 3.80669 14.9123 3.76543 14.9654 3.71309C15.0185 3.66075 15.0606 3.59839 15.0894 3.52962C15.1181 3.46085 15.133 3.38705 15.133 3.3125C15.133 3.23795 15.1181 3.16415 15.0894 3.09538C15.0606 3.02661 15.0185 2.96425 14.9654 2.91191C14.9123 2.85957 14.8493 2.81831 14.7802 2.79051C14.711 2.76272 14.637 2.74895 14.5625 2.75H13.3415C13.2818 2.74032 13.221 2.74032 13.1613 2.75H10.5949C10.4111 1.48304 9.31557 0.5 7.99995 0.5ZM7.99995 1.625C8.70464 1.625 9.28274 2.10056 9.44795 2.75H6.55196C6.71717 2.10056 7.29527 1.625 7.99995 1.625ZM3.36885 3.875H12.6303L11.6958 13.5276C11.6489 14.0133 11.2504 14.375 10.7627 14.375H5.23653C4.74943 14.375 4.35027 14.0126 4.30342 13.5276L3.36885 3.875ZM6.67867 5.74194C6.52961 5.74427 6.38757 5.80567 6.28375 5.91265C6.17993 6.01963 6.12282 6.16344 6.12495 6.3125V11.9375C6.1239 12.012 6.13767 12.086 6.16547 12.1552C6.19326 12.2244 6.23453 12.2873 6.28687 12.3404C6.3392 12.3935 6.40157 12.4357 6.47034 12.4644C6.53911 12.4932 6.61291 12.508 6.68745 12.508C6.762 12.508 6.8358 12.4932 6.90457 12.4644C6.97334 12.4357 7.03571 12.3935 7.08804 12.3404C7.14038 12.2873 7.18165 12.2244 7.20944 12.1552C7.23724 12.086 7.25101 12.012 7.24995 11.9375V6.3125C7.25103 6.23721 7.23699 6.16247 7.20865 6.09272C7.18032 6.02296 7.13826 5.9596 7.08499 5.90639C7.03171 5.85318 6.9683 5.81121 6.8985 5.78296C6.82871 5.75472 6.75395 5.74077 6.67867 5.74194V5.74194ZM9.30367 5.74194C9.15461 5.74427 9.01257 5.80567 8.90875 5.91265C8.80493 6.01963 8.74782 6.16344 8.74995 6.3125V11.9375C8.7489 12.012 8.76267 12.086 8.79047 12.1552C8.81826 12.2244 8.85953 12.2873 8.91187 12.3404C8.9642 12.3935 9.02657 12.4357 9.09534 12.4644C9.16411 12.4932 9.23791 12.508 9.31245 12.508C9.387 12.508 9.4608 12.4932 9.52957 12.4644C9.59834 12.4357 9.66071 12.3935 9.71304 12.3404C9.76538 12.2873 9.80665 12.2244 9.83444 12.1552C9.86224 12.086 9.87601 12.012 9.87495 11.9375V6.3125C9.87603 6.23721 9.86199 6.16247 9.83365 6.09272C9.80532 6.02296 9.76326 5.9596 9.70999 5.90639C9.65671 5.85318 9.5933 5.81121 9.5235 5.78296C9.45371 5.75472 9.37895 5.74077 9.30367 5.74194V5.74194Z" fill="#FF5757"/>
</svg>
