<svg width="18" height="20" viewBox="0 0 18 20" fill="none" xmlns="http://www.w3.org/2000/svg">
<path d="M3.75 0.5C1.96403 0.5 0.5 1.96403 0.5 3.75V16.25C0.5 18.036 1.96403 19.5 3.75 19.5H14.25C16.036 19.5 17.5 18.036 17.5 16.25V3.75C17.5 1.96403 16.036 0.5 14.25 0.5H3.75ZM3.75 2H14.25C15.225 2 16 2.77497 16 3.75V16.25C16 17.225 15.225 18 14.25 18H3.75C2.77497 18 2 17.225 2 16.25V3.75C2 2.77497 2.77497 2 3.75 2ZM4.25 3.5C4.05109 3.5 3.86032 3.57902 3.71967 3.71967C3.57902 3.86032 3.5 4.05109 3.5 4.25C3.5 4.44891 3.57902 4.63968 3.71967 4.78033C3.86032 4.92098 4.05109 5 4.25 5C4.44891 5 4.63968 4.92098 4.78033 4.78033C4.92098 4.63968 5 4.44891 5 4.25C5 4.05109 4.92098 3.86032 4.78033 3.71967C4.63968 3.57902 4.44891 3.5 4.25 3.5ZM6.75 3.5C6.55109 3.5 6.36032 3.57902 6.21967 3.71967C6.07902 3.86032 6 4.05109 6 4.25C6 4.44891 6.07902 4.63968 6.21967 4.78033C6.36032 4.92098 6.55109 5 6.75 5C6.94891 5 7.13968 4.92098 7.28033 4.78033C7.42098 4.63968 7.5 4.44891 7.5 4.25C7.5 4.05109 7.42098 3.86032 7.28033 3.71967C7.13968 3.57902 6.94891 3.5 6.75 3.5ZM13.5 3.5C13.2348 3.5 12.9804 3.60536 12.7929 3.79289C12.6054 3.98043 12.5 4.23478 12.5 4.5C12.5 4.76522 12.6054 5.01957 12.7929 5.20711C12.9804 5.39464 13.2348 5.5 13.5 5.5C13.7652 5.5 14.0196 5.39464 14.2071 5.20711C14.3946 5.01957 14.5 4.76522 14.5 4.5C14.5 4.23478 14.3946 3.98043 14.2071 3.79289C14.0196 3.60536 13.7652 3.5 13.5 3.5ZM9 6C6.24746 6 4 8.24746 4 11C4 13.7525 6.24746 16 9 16C11.7525 16 14 13.7525 14 11C14 8.24746 11.7525 6 9 6ZM9 7.5C10.8253 7.5 12.2627 8.89386 12.4346 10.6719C11.1603 11.2685 10.5089 10.9621 9.44727 10.5508C8.50633 10.1863 7.24232 9.82905 5.64746 10.2617C5.99302 8.69037 7.32044 7.5 9 7.5ZM6.96289 11.4854C7.08929 11.4769 7.21048 11.4782 7.32617 11.4883C7.87447 11.5362 8.35056 11.7343 8.90527 11.9492C9.78103 12.2885 10.8967 12.6473 12.2363 12.3164C11.7182 13.5984 10.4741 14.5 9 14.5C7.34646 14.5 6.03408 13.346 5.66211 11.8115C6.15463 11.62 6.58371 11.5107 6.96289 11.4854Z" fill="#45A9CB"/>
</svg>
